<?xml version="1.0" encoding="UTF-8" standalone="no"?>
<!-- Created with Inkscape (http://www.inkscape.org/) -->

<svg
   xmlns:dc="http://purl.org/dc/elements/1.1/"
   xmlns:cc="http://creativecommons.org/ns#"
   xmlns:rdf="http://www.w3.org/1999/02/22-rdf-syntax-ns#"
   xmlns:svg="http://www.w3.org/2000/svg"
   xmlns="http://www.w3.org/2000/svg"
   xmlns:sodipodi="http://sodipodi.sourceforge.net/DTD/sodipodi-0.dtd"
   xmlns:inkscape="http://www.inkscape.org/namespaces/inkscape"
   width="48"
   height="48"
   viewBox="0 0 48 48"
   version="1.1"
   id="svg8"
   inkscape:version="0.92.3 (2405546, 2018-03-11)"
   sodipodi:docname="applications-education.svg">
  <title
     id="title7895">Antu icon Theme</title>
  <defs
     id="defs2">
    <style
       id="current-color-scheme"
       type="text/css">
      .ColorScheme-Text {
        color:#122036;
      }
      </style>
    <style
       id="current-color-scheme-2"
       type="text/css">
      .ColorScheme-Text {
        color:#122036;
      }
      </style>
    <style
       type="text/css"
       id="current-color-scheme-60">
      .ColorScheme-Text {
        color:#122036;
      }
      </style>
    <style
       id="current-color-scheme-6"
       type="text/css">
      .ColorScheme-Text {
        color:#122036;
      }
      </style>
    <style
       id="current-color-scheme-2-6"
       type="text/css">
      .ColorScheme-Text {
        color:#122036;
      }
      </style>
  </defs>
  <sodipodi:namedview
     id="base"
     pagecolor="#ffffff"
     bordercolor="#666666"
     borderopacity="1.0"
     inkscape:pageopacity="0.0"
     inkscape:pageshadow="2"
     inkscape:zoom="16"
     inkscape:cx="13.827451"
     inkscape:cy="16.480886"
     inkscape:document-units="px"
     inkscape:current-layer="g4203"
     showgrid="true"
     units="px"
     inkscape:window-width="1874"
     inkscape:window-height="1141"
     inkscape:window-x="46"
     inkscape:window-y="30"
     inkscape:window-maximized="1"
     objecttolerance="10"
     gridtolerance="10"
     guidetolerance="10"
     inkscape:snap-bbox="true"
     inkscape:bbox-paths="true"
     inkscape:bbox-nodes="true"
     inkscape:snap-bbox-edge-midpoints="true"
     inkscape:snap-bbox-midpoints="true"
     inkscape:object-paths="true"
     inkscape:snap-intersection-paths="true">
    <inkscape:grid
       type="xygrid"
       id="grid7897"
       empspacing="4" />
  </sodipodi:namedview>
  <metadata
     id="metadata5">
    <rdf:RDF>
      <cc:Work
         rdf:about="">
        <dc:format>image/svg+xml</dc:format>
        <dc:type
           rdf:resource="http://purl.org/dc/dcmitype/StillImage" />
        <dc:title>Antu icon Theme</dc:title>
      </cc:Work>
    </rdf:RDF>
  </metadata>
  <g
     inkscape:label="Capa 1"
     inkscape:groupmode="layer"
     id="layer1"
     transform="translate(0,-266.64999)">
    <g
       id="g4203"
       transform="translate(8,13.830212)">
      <g
         transform="translate(-8,-13.830212)"
         inkscape:label="Capa 1"
         id="layer1-5">
        <g
           id="layer1-7"
           inkscape:label="Capa 1">
          <g
             transform="translate(35.071428,-3.99999)"
             id="g8335">
            <path
               style="opacity:1;fill:#a36c4c;fill-opacity:1;stroke:none;stroke-width:0.99999994;stroke-opacity:1"
               d="m -33.071417,273.65 h 17.975774 5.024239 21.000002 c 1.107968,0 1.999975,0.89197 1.999975,1.99997 v 37.99998 c 0,1.10801 -0.892007,2.00001 -2.000013,2.00001 h -43.999977 c -1.108006,0 -2.000012,-0.892 -2.000012,-2.00001 v -37.99998 c 0,-1.108 0.892006,-1.99997 2.000012,-1.99997 z"
               id="rect9183-4-4"
               inkscape:connector-curvature="0"
               sodipodi:nodetypes="sccssssssss" />
            <path
               inkscape:connector-curvature="0"
               id="rect9179-4-3"
               transform="translate(-113.07133,322.64989)"
               d="m 80,-48 c -0.554004,-0.003 -1,0.44604 -1,1 v 33 2 2 1 c 0,0.554 0.446001,1 1,1 h 44 c 0.554,0 1,-0.446 1,-1 v -1 -2 -2 -33 c 0,-0.55396 -0.446,-1 -1,-1 h -22 -4 z"
               style="opacity:0.98999999;fill:#ffc49c;fill-opacity:1;stroke:none;stroke-width:0.99999994;stroke-opacity:1" />
          </g>
        </g>
      </g>
      <path
         inkscape:connector-curvature="0"
         id="rect2708"
         d="m -4,259.81976 h 40 v 34 H -4 Z"
         style="opacity:1;vector-effect:none;fill:#a36c4c;fill-opacity:1;stroke:none;stroke-width:6;stroke-linecap:round;stroke-linejoin:round;stroke-miterlimit:4;stroke-dasharray:none;stroke-dashoffset:0;stroke-opacity:1" />
      <path
         inkscape:connector-curvature="0"
         id="rect2710"
         d="m -3,260.81976 h 38 v 32 H -3 Z"
         style="opacity:1;vector-effect:none;fill:#1a8c7e;fill-opacity:1;stroke:none;stroke-width:6;stroke-linecap:round;stroke-linejoin:round;stroke-miterlimit:4;stroke-dasharray:none;stroke-dashoffset:0;stroke-opacity:1" />
      <path
         style="opacity:1;fill:#e9f4f3;fill-opacity:1;stroke:none;stroke-width:1;stroke-linecap:round;stroke-linejoin:round;stroke-miterlimit:4;stroke-dasharray:none;stroke-opacity:1"
         d="M 24 16 C 21.784001 16 20 17.784 20 20 C 20 22.216 21.784001 24 24 24 C 26.215999 24 28 22.216 28 20 C 28 17.784 26.215999 16 24 16 z M 18.5 26 C 17.115 26 16 27.115 16 28.5 L 16 31 L 32 31 L 32 28.5 C 32 27.115 30.885 26 29.5 26 L 18.5 26 z M 32.5 36 C 31.669 36 31 36.669 31 37.5 C 31 38.331 31.669 39 32.5 39 L 38.5 39 C 39.331 39 40 38.331 40 37.5 C 40 36.669 39.331 36 38.5 36 L 32.5 36 z "
         transform="translate(-8,252.81978)"
         id="path3973-8" />
    </g>
  </g>
</svg>
