<?xml version="1.0" encoding="UTF-8" standalone="no"?>
<!-- Created with Inkscape (http://www.inkscape.org/) -->

<svg
   xmlns:dc="http://purl.org/dc/elements/1.1/"
   xmlns:cc="http://creativecommons.org/ns#"
   xmlns:rdf="http://www.w3.org/1999/02/22-rdf-syntax-ns#"
   xmlns:svg="http://www.w3.org/2000/svg"
   xmlns="http://www.w3.org/2000/svg"
   xmlns:sodipodi="http://sodipodi.sourceforge.net/DTD/sodipodi-0.dtd"
   xmlns:inkscape="http://www.inkscape.org/namespaces/inkscape"
   width="32"
   height="32"
   viewBox="0 0 8.4666665 8.4666669"
   version="1.1"
   id="svg8"
   inkscape:version="0.92.3 (2405546, 2018-03-11)"
   sodipodi:docname="camera-photo.svg">
  <defs
     id="defs2" />
  <sodipodi:namedview
     id="base"
     pagecolor="#ffffff"
     bordercolor="#666666"
     borderopacity="1.0"
     inkscape:pageopacity="0.0"
     inkscape:pageshadow="2"
     inkscape:zoom="22.4"
     inkscape:cx="15.301214"
     inkscape:cy="14.408453"
     inkscape:document-units="px"
     inkscape:current-layer="layer1"
     showgrid="true"
     units="px"
     inkscape:showpageshadow="false"
     inkscape:snap-bbox="true"
     inkscape:bbox-paths="true"
     inkscape:bbox-nodes="true"
     inkscape:snap-bbox-edge-midpoints="true"
     inkscape:snap-bbox-midpoints="true"
     inkscape:object-paths="true"
     inkscape:snap-intersection-paths="true"
     inkscape:window-width="1874"
     inkscape:window-height="1141"
     inkscape:window-x="46"
     inkscape:window-y="30"
     inkscape:window-maximized="1">
    <inkscape:grid
       type="xygrid"
       id="grid815" />
  </sodipodi:namedview>
  <metadata
     id="metadata5">
    <rdf:RDF>
      <cc:Work
         rdf:about="">
        <dc:format>image/svg+xml</dc:format>
        <dc:type
           rdf:resource="http://purl.org/dc/dcmitype/StillImage" />
        <dc:title></dc:title>
      </cc:Work>
    </rdf:RDF>
  </metadata>
  <g
     inkscape:label="Capa 1"
     inkscape:groupmode="layer"
     id="layer1"
     transform="translate(0,-288.53333)">
    <g
       id="g2741"
       transform="translate(6.8791667,0.52917001)">
      <path
         style="opacity:1;fill:#36404d;fill-opacity:1;stroke:none;stroke-width:0.5291667;stroke-linecap:round;stroke-linejoin:round;stroke-miterlimit:4;stroke-dasharray:none;stroke-opacity:1;paint-order:fill markers stroke"
         d="m -5.8208344,289.32708 h 0.793752 c 0.1465786,0 0.2645823,0.118 0.2645823,0.26458 v 0.79375 c 0,0.14658 -0.1180037,0.26459 -0.2645823,0.26459 h -0.793752 c -0.1465786,0 -0.2645823,-0.11801 -0.2645823,-0.26459 v -0.79375 c 0,-0.14658 0.1180037,-0.26458 0.2645823,-0.26458 z"
         id="rect1028"
         inkscape:connector-curvature="0" />
      <path
         style="opacity:1;fill:#4b6477;fill-opacity:1;stroke:none;stroke-width:0.5291667;stroke-linecap:round;stroke-linejoin:round;stroke-miterlimit:4;stroke-dasharray:none;stroke-opacity:1;paint-order:fill markers stroke"
         d="m -5.8208334,289.59166 h 0.79375 v 0.79375 h -0.79375 z"
         id="rect1030"
         inkscape:connector-curvature="0" />
      <g
         transform="matrix(0.26458333,0,0,0.26458333,-6.8791667,213.48427)"
         id="layer1-0"
         inkscape:label="Capa 1">
        <g
           transform="translate(26,-7)"
           id="g1796">
          <path
             id="rect941"
             d="M -23.000004,295.64999 H 3.000004 c 1.107998,0 1.999996,0.892 1.999996,2 V 313.65 c 0,1.108 -0.891998,1.99999 -1.999996,1.99999 H -23.000004 C -24.108002,315.64999 -25,314.758 -25,313.65 v -16.00001 c 0,-1.108 0.891998,-2 1.999996,-2 z"
             style="opacity:1;fill:#a3b7cc;fill-opacity:1;stroke:none;stroke-width:0.80800003;stroke-linecap:round;stroke-linejoin:round;stroke-miterlimit:4;stroke-dasharray:none;stroke-opacity:1;paint-order:stroke markers fill"
             inkscape:connector-curvature="0"
             sodipodi:nodetypes="sssssssss" />
          <path
             id="rect943"
             d="M -23,296.64999 H 3 c 0.554,0 1,0.446 1,1 v 16 c 0,0.554 -0.446,1 -1,1 h -26 c -0.554,0 -1,-0.446 -1,-1 v -16 c 0,-0.554 0.446,-1 1,-1 z"
             style="opacity:1;fill:#e1ebf2;fill-opacity:1;stroke:none;stroke-width:0.80800003;stroke-linecap:round;stroke-linejoin:round;stroke-miterlimit:4;stroke-dasharray:none;stroke-opacity:1;paint-order:stroke markers fill"
             inkscape:connector-curvature="0"
             sodipodi:nodetypes="sssssssss" />
        </g>
      </g>
      <path
         style="opacity:1;fill:#36404d;fill-opacity:1;stroke:none;stroke-width:0.50808394;stroke-linecap:round;stroke-linejoin:round;stroke-miterlimit:4;stroke-dasharray:none;stroke-opacity:1;paint-order:fill markers stroke"
         d="m -2.1166667,289.59166 c 1.61237084,0 2.91041674,1.29805 2.91041674,2.91042 0,1.61237 -1.2980459,2.91042 -2.91041674,2.91042 -1.6123709,0 -2.9104167,-1.29805 -2.9104167,-2.91042 0,-1.61237 1.2980458,-2.91042 2.9104167,-2.91042 z"
         id="rect977"
         inkscape:connector-curvature="0" />
      <path
         style="opacity:1;fill:#4b6477;fill-opacity:1;stroke:none;stroke-width:0.46189448;stroke-linecap:round;stroke-linejoin:round;stroke-miterlimit:4;stroke-dasharray:none;stroke-opacity:1;paint-order:fill markers stroke"
         d="m -2.1166667,289.85625 c 1.46579174,0 2.64583334,1.18004 2.64583334,2.64583 0,1.46579 -1.1800416,2.64583 -2.64583334,2.64583 -1.4657917,0 -2.6458334,-1.18004 -2.6458334,-2.64583 0,-1.46579 1.1800417,-2.64583 2.6458334,-2.64583 z"
         id="rect977-9"
         inkscape:connector-curvature="0" />
      <path
         style="opacity:1;fill:#36404d;fill-opacity:1;stroke:none;stroke-width:0.36951563;stroke-linecap:round;stroke-linejoin:round;stroke-miterlimit:4;stroke-dasharray:none;stroke-opacity:1;paint-order:fill markers stroke"
         d="m -2.1166667,290.38541 c 1.17263334,0 2.116666740625005,0.94404 2.116666740625005,2.11667 0,1.17263 -0.944033400625005,2.11667 -2.116666740625005,2.11667 -1.1726334,0 -2.1166667,-0.94404 -2.1166667,-2.11667 0,-1.17263 0.9440333,-2.11667 2.1166667,-2.11667 z"
         id="rect977-9-3"
         inkscape:connector-curvature="0" />
      <path
         style="opacity:1;fill:#78c1ff;fill-opacity:1;stroke:none;stroke-width:0.32332614;stroke-linecap:round;stroke-linejoin:round;stroke-miterlimit:4;stroke-dasharray:none;stroke-opacity:1;paint-order:fill markers stroke"
         d="m -2.1166667,290.65 c 1.0260542,0 1.85208334,0.82603 1.85208334,1.85208 0,1.02605 -0.82602914,1.85208 -1.85208334,1.85208 -1.0260542,0 -1.8520834,-0.82603 -1.8520834,-1.85208 0,-1.02605 0.8260292,-1.85208 1.8520834,-1.85208 z"
         id="rect977-9-3-6"
         inkscape:connector-curvature="0" />
      <path
         style="opacity:1;fill:#36404d;fill-opacity:1;stroke:none;stroke-width:0.5291667;stroke-linecap:round;stroke-linejoin:round;stroke-miterlimit:4;stroke-dasharray:none;stroke-opacity:1;paint-order:fill markers stroke"
         d="m -5.5562506,290.38541 h 1e-6 c 0.2931581,0 0.5291662,0.23601 0.5291662,0.52917 0,0.29316 -0.2360081,0.52917 -0.5291662,0.52917 h -1e-6 c -0.293158,0 -0.5291661,-0.23601 -0.5291661,-0.52917 0,-0.29316 0.2360081,-0.52917 0.5291661,-0.52917 z"
         id="rect1024"
         inkscape:connector-curvature="0" />
      <path
         style="opacity:1;fill:#ffeea3;fill-opacity:1;stroke:none;stroke-width:0.5291667;stroke-linecap:round;stroke-linejoin:round;stroke-miterlimit:4;stroke-dasharray:none;stroke-opacity:1;paint-order:fill markers stroke"
         d="m -5.5562506,290.65 h 1.1e-6 c 0.1465788,0 0.2645828,0.118 0.2645828,0.26458 0,0.14658 -0.118004,0.26458 -0.2645828,0.26458 h -1.1e-6 c -0.1465788,0 -0.2645828,-0.118 -0.2645828,-0.26458 0,-0.14658 0.118004,-0.26458 0.2645828,-0.26458 z"
         id="rect1026"
         inkscape:connector-curvature="0" />
    </g>
  </g>
</svg>
