<?xml version="1.0" encoding="UTF-8" standalone="no"?>
<!-- Created with Inkscape (http://www.inkscape.org/) -->

<svg
   xmlns:dc="http://purl.org/dc/elements/1.1/"
   xmlns:cc="http://creativecommons.org/ns#"
   xmlns:rdf="http://www.w3.org/1999/02/22-rdf-syntax-ns#"
   xmlns:svg="http://www.w3.org/2000/svg"
   xmlns="http://www.w3.org/2000/svg"
   xmlns:sodipodi="http://sodipodi.sourceforge.net/DTD/sodipodi-0.dtd"
   xmlns:inkscape="http://www.inkscape.org/namespaces/inkscape"
   width="32"
   height="32"
   viewBox="0 0 32 32"
   version="1.1"
   id="svg8"
   inkscape:version="0.92.3 (2405546, 2018-03-11)"
   sodipodi:docname="androidstudio.svg">
  <title
     id="title7895">Antu icon Theme</title>
  <defs
     id="defs2" />
  <sodipodi:namedview
     id="base"
     pagecolor="#ffffff"
     bordercolor="#666666"
     borderopacity="1.0"
     inkscape:pageopacity="0.0"
     inkscape:pageshadow="2"
     inkscape:zoom="31.999998"
     inkscape:cx="16.733952"
     inkscape:cy="14.284345"
     inkscape:document-units="px"
     inkscape:current-layer="layer1"
     showgrid="true"
     units="px"
     inkscape:window-width="1874"
     inkscape:window-height="1141"
     inkscape:window-x="46"
     inkscape:window-y="30"
     inkscape:window-maximized="1"
     objecttolerance="10"
     gridtolerance="10"
     guidetolerance="10">
    <inkscape:grid
       type="xygrid"
       id="grid7897"
       empspacing="4" />
  </sodipodi:namedview>
  <metadata
     id="metadata5">
    <rdf:RDF>
      <cc:Work
         rdf:about="">
        <dc:format>image/svg+xml</dc:format>
        <dc:type
           rdf:resource="http://purl.org/dc/dcmitype/StillImage" />
        <dc:title>Antu icon Theme</dc:title>
      </cc:Work>
    </rdf:RDF>
  </metadata>
  <g
     inkscape:label="Capa 1"
     inkscape:groupmode="layer"
     id="layer1"
     transform="translate(0,-282.64999)">
    <g
       id="g928">
      <path
         style="fill:#2fa76c;fill-opacity:1;stroke:none;stroke-width:2.09761763;stroke-linecap:round;stroke-linejoin:round;stroke-miterlimit:4;stroke-dasharray:none;stroke-opacity:1"
         d="m 5.9628901,283.63946 a 2.0002,2.0002 0 0 0 -1.5,3.30078 l 3.0722656,3.68554 c -1.5831304,1.90472 -2.5351562,4.35357 -2.5351562,7.03516 0,6.094 4.9060011,11 11.0000005,11 6.093999,0 11,-4.906 11,-11 0,-2.96115 -1.164533,-5.63579 -3.054688,-7.60937 l 2.591797,-3.11133 a 2.0002,2.0002 0 0 0 -1.560547,-3.30078 2.0002,2.0002 0 0 0 -1.513671,0.74023 l -2.777344,3.33398 C 19.263728,287.04552 17.680454,286.66094 16,286.66094 c -1.962055,0 -3.797006,0.51517 -5.388672,1.4082 l -3.0742191,-3.68945 a 2.0002,2.0002 0 0 0 -1.5742188,-0.74023 z"
         id="rect1899"
         inkscape:connector-curvature="0" />
      <path
         style="fill:#90dfb3;fill-opacity:1;stroke:none;stroke-width:1.90692508;stroke-linecap:round;stroke-linejoin:round;stroke-miterlimit:4;stroke-dasharray:none;stroke-opacity:1"
         d="M 5.9804688 2 A 1.0001 1.0001 0 0 0 5.2324219 3.6523438 L 8.859375 8.0039062 C 7.0908501 9.8059563 6 12.275659 6 15.011719 C 6 20.551719 10.460001 25.011719 16 25.011719 C 21.539999 25.011719 26 20.551719 26 15.011719 C 26 11.998249 24.673384 9.3108588 22.578125 7.4804688 L 25.767578 3.6523438 A 1.0001 1.0001 0 0 0 24.988281 2 A 1.0001 1.0001 0 0 0 24.232422 2.3710938 L 20.943359 6.3183594 C 19.485883 5.4904294 17.802589 5.0117188 16 5.0117188 C 13.918972 5.0117188 11.989671 5.6412231 10.392578 6.7207031 L 6.7675781 2.3710938 A 1.0001 1.0001 0 0 0 5.9804688 2 z M 12.5 9.0117188 C 13.330999 9.0117187 14 9.6807185 14 10.511719 C 14 11.342719 13.330999 12.011719 12.5 12.011719 C 11.669001 12.011719 11 11.342719 11 10.511719 C 11 9.6807185 11.669001 9.0117188 12.5 9.0117188 z M 19.5 9.0117188 C 20.330999 9.0117187 21 9.6807185 21 10.511719 C 21 11.342719 20.330999 12.011719 19.5 12.011719 C 18.669001 12.011719 18 11.342719 18 10.511719 C 18 9.6807185 18.669 9.0117188 19.5 9.0117188 z "
         transform="translate(0,282.64999)"
         id="rect1899-6" />
      <path
         inkscape:connector-curvature="0"
         style="opacity:1;fill:#363c4d;fill-opacity:1;stroke:none;stroke-width:1.99999988;stroke-linecap:round;stroke-linejoin:round;stroke-miterlimit:4;stroke-dasharray:none;stroke-opacity:1"
         d="M 5.0000005,297.66094 H 27 c 1.108,0 2,0.892 2,2 v 12 c 0,1.108 -0.892,2 -2,2 H 5.0000005 c -1.108,0 -2,-0.892 -2,-2 v -12 c 0,-1.108 0.892,-2 2,-2 z"
         id="rect827"
         sodipodi:nodetypes="sssssssss" />
      <path
         inkscape:connector-curvature="0"
         style="opacity:1;fill:#4b6477;fill-opacity:1;stroke:none;stroke-width:1.99999988;stroke-linecap:round;stroke-linejoin:round;stroke-miterlimit:4;stroke-dasharray:none;stroke-opacity:1"
         d="M 5.0000005,298.66094 H 27 c 0.553999,0 1,0.446 1,1 v 12 c 0,0.554 -0.446001,1 -1,1 H 5.0000005 c -0.554,0 -1,-0.446 -1,-1 v -12 c 0,-0.554 0.446,-1 1,-1 z"
         id="rect829"
         sodipodi:nodetypes="sssssssss" />
      <g
         transform="matrix(3.7795275,0,0,3.7795275,-30,-795.86967)"
         id="layer1-3"
         inkscape:label="Capa 1" />
      <path
         style="opacity:1;fill:#3c4f5e;fill-opacity:1;stroke:none;stroke-width:2;stroke-linecap:round;stroke-linejoin:round;stroke-miterlimit:4;stroke-dasharray:none;stroke-opacity:1;paint-order:fill markers stroke"
         d="M 4 18 L 4 20 L 28 20 L 28 18 L 4 18 z M 4 22 L 4 24 L 28 24 L 28 22 L 4 22 z M 4 26 L 4 28 L 28 28 L 28 26 L 4 26 z "
         transform="translate(0,282.64999)"
         id="rect842" />
    </g>
    <path
       style="opacity:1;vector-effect:none;fill:#9affc1;fill-opacity:1;stroke:none;stroke-width:0.75590551;stroke-linecap:round;stroke-linejoin:bevel;stroke-miterlimit:4;stroke-dasharray:none;stroke-dashoffset:0;stroke-opacity:0.39215686;paint-order:stroke fill markers"
       d="M 6 17 L 6 18 L 5 18 L 5 19 L 6 19 L 6 21 L 5 21 L 5 22 L 6 22 L 6 23 L 7 23 L 7 22 L 9 22 L 9 23 L 10 23 L 10 22 L 11 22 L 11 21 L 10 21 L 10 19 L 11 19 L 11 18 L 10 18 L 10 17 L 9 17 L 9 18 L 7 18 L 7 17 L 6 17 z M 7 19 L 9 19 L 9 21 L 7 21 L 7 19 z M 13 22 L 13 23 L 17 23 L 17 22 L 13 22 z "
       transform="translate(0,282.64999)"
       id="rect6570-7" />
  </g>
</svg>
