<?xml version="1.0" encoding="UTF-8" standalone="no"?>
<!-- Created with Inkscape (http://www.inkscape.org/) -->

<svg
   width="32"
   height="32"
   viewBox="0 0 32 32"
   version="1.1"
   id="svg8"
   inkscape:version="1.2 (dc2aedaf03, 2022-05-15)"
   sodipodi:docname="android-file-transfer.svg"
   xml:space="preserve"
   xmlns:inkscape="http://www.inkscape.org/namespaces/inkscape"
   xmlns:sodipodi="http://sodipodi.sourceforge.net/DTD/sodipodi-0.dtd"
   xmlns="http://www.w3.org/2000/svg"
   xmlns:svg="http://www.w3.org/2000/svg"
   xmlns:rdf="http://www.w3.org/1999/02/22-rdf-syntax-ns#"
   xmlns:cc="http://creativecommons.org/ns#"
   xmlns:dc="http://purl.org/dc/elements/1.1/"><title
     id="title7895">Antu icon Theme</title><defs
     id="defs2"><style
       id="current-color-scheme"
       type="text/css">
      .ColorScheme-Text {
        color:#122036;
      }
      </style></defs><sodipodi:namedview
     id="base"
     pagecolor="#ffffff"
     bordercolor="#666666"
     borderopacity="1.0"
     inkscape:pageopacity="0.0"
     inkscape:pageshadow="2"
     inkscape:zoom="3.9999998"
     inkscape:cx="34.250001"
     inkscape:cy="49.375002"
     inkscape:document-units="px"
     inkscape:current-layer="g1176"
     showgrid="true"
     units="px"
     inkscape:window-width="2160"
     inkscape:window-height="1337"
     inkscape:window-x="0"
     inkscape:window-y="0"
     inkscape:window-maximized="1"
     objecttolerance="10"
     gridtolerance="10"
     guidetolerance="10"
     inkscape:showpageshadow="2"
     inkscape:pagecheckerboard="0"
     inkscape:deskcolor="#d1d1d1"
     showguides="false"><inkscape:grid
       type="xygrid"
       id="grid7897"
       empspacing="4" /></sodipodi:namedview><metadata
     id="metadata5"><rdf:RDF><cc:Work
         rdf:about=""><dc:format>image/svg+xml</dc:format><dc:type
           rdf:resource="http://purl.org/dc/dcmitype/StillImage" /><dc:title>Antu icon Theme</dc:title></cc:Work></rdf:RDF></metadata><g
     inkscape:label="Capa 1"
     inkscape:groupmode="layer"
     id="layer1"
     transform="translate(0,-282.64999)"><g
       id="g1645"
       transform="translate(13,-7)"><g
         transform="translate(31.000001,25.999995)"
         id="layer1-2"
         inkscape:label="Capa 1" /><g
         id="g1176"><g
           id="g935"><path
             inkscape:connector-curvature="0"
             style="fill:#363c4d;fill-opacity:1;stroke:none;stroke-width:2;stroke-linecap:round;stroke-linejoin:round;stroke-miterlimit:4;stroke-dasharray:none;stroke-dashoffset:0;stroke-opacity:1;opacity:0.93"
             d="m -9,311.64999 h 24 c 1.108,0 2,0.892 2,2 v 5 c 0,1.108 -0.892,2 -2,2 H -9 c -1.108,0 -2,-0.892 -2,-2 v -5 c 0,-1.108 0.892,-2 2,-2 z"
             id="rect842" /><path
             style="fill:#4b6477;fill-opacity:1;stroke:none;stroke-width:2;stroke-linecap:round;stroke-linejoin:round;stroke-miterlimit:4;stroke-dasharray:none;stroke-dashoffset:0;stroke-opacity:1"
             d="m 4,23 c -0.554,0 -1,0.446 -1,1 v 5 c 0,0.554 0.446,1 1,1 h 24 c 0.554,0 1,-0.446 1,-1 v -5 c 0,-0.554 -0.446,-1 -1,-1 z"
             transform="translate(-13,289.64999)"
             id="rect844" /><path
             style="fill:#e1f4ed;fill-opacity:1;stroke:none;stroke-width:2;stroke-linecap:round;stroke-linejoin:round;stroke-miterlimit:4;stroke-dasharray:none;stroke-dashoffset:0;stroke-opacity:1"
             d="M 5.4785156,28 H 26.521484 C 26.786243,28 27,28.213757 27,28.478516 v 0.04297 C 27,28.786243 26.786243,29 26.521484,29 H 5.4785156 C 5.2137574,29 5,28.786243 5,28.521484 v -0.04297 C 5,28.213757 5.2137574,28 5.4785156,28 Z"
             transform="translate(-13,289.64999)"
             id="path5952" /><path
             inkscape:connector-curvature="0"
             style="fill:#009688;fill-opacity:1;stroke:none;stroke-width:2;stroke-linecap:round;stroke-linejoin:round;stroke-miterlimit:4;stroke-dasharray:none;stroke-dashoffset:0;stroke-opacity:1"
             d="m -9,290.64999 h 24 c 1.108,0 2,0.892 2,2 v 22 c 0,1.108 -0.892,2 -2,2 H -9 c -1.108,0 -2,-0.892 -2,-2 v -22 c 0,-1.108 0.892,-2 2,-2 z"
             id="rect838" /><path
             style="fill:#4db6ac;fill-opacity:1;stroke:none;stroke-width:2;stroke-linecap:round;stroke-linejoin:round;stroke-miterlimit:4;stroke-dasharray:none;stroke-dashoffset:0;stroke-opacity:1"
             d="M 4,2 C 3.446,2 3,2.446 3,3 v 22 c 0,0.554 0.446,1 1,1 h 24 c 0.554,0 1,-0.446 1,-1 V 3 C 29,2.446 28.554,2 28,2 Z"
             transform="translate(-13,289.64999)"
             id="rect840"
             inkscape:connector-curvature="0"
             sodipodi:nodetypes="sssssssss" /></g><path
           id="rect898"
           style="opacity:1;fill:#d3ece9;fill-opacity:1;stroke:none;stroke-width:2;stroke-linecap:round;stroke-linejoin:round;stroke-miterlimit:4;stroke-dasharray:none;stroke-dashoffset:0;stroke-opacity:1"
           d="M 3 292.64999 C 2.6718996 292.65599 2.3675315 292.82223 2.1855469 293.0953 L 0.18554688 296.0953 C -0.25729724 296.75985 0.21899074 297.64982 1.0175781 297.64999 L 2.0175781 297.64999 L 2 304.64999 L 2 306.03085 L -1 304.03085 L -1 302.38437 C -0.54996391 302.12527 -0.21275274 301.69603 -0.072265625 301.18319 C -0.051931419 301.10896 -0.035208983 301.03214 -0.0234375 300.95468 C -0.022926438 300.95136 -0.021978947 300.94824 -0.021484375 300.94491 C -0.019362694 300.93063 -0.017441084 300.91632 -0.015625 300.90194 C -0.0053085275 300.81931 0 300.73551 0 300.64999 C 0 300.58074 -0.0029619209 300.51231 -0.009765625 300.44491 C -0.016569329 300.37751 -0.027738295 300.31091 -0.041015625 300.24569 C -0.054292955 300.18048 -0.070422871 300.11699 -0.08984375 300.05429 C -0.10926463 299.99158 -0.13101565 299.93055 -0.15625 299.87069 C -0.18148435 299.81083 -0.20951663 299.7516 -0.24023438 299.69491 C -0.27095212 299.63823 -0.30397269 299.58403 -0.33984375 299.53085 C -0.37571483 299.47767 -0.41438381 299.4259 -0.45507812 299.37655 C -0.49577242 299.3272 -0.53879692 299.27916 -0.58398438 299.23397 C -0.62917183 299.18879 -0.67721196 299.14576 -0.7265625 299.10507 C -0.77591305 299.06437 -0.82767583 299.0257 -0.88085938 298.98983 C -0.93404292 298.95396 -0.98823541 298.92094 -1.0449219 298.89022 C -1.1016083 298.85951 -1.1608438 298.83147 -1.2207031 298.80624 C -1.2805624 298.78101 -1.3415948 298.75925 -1.4042969 298.73983 C -1.466999 298.72041 -1.5304883 298.70428 -1.5957031 298.69101 C -1.6609179 298.67773 -1.7275245 298.66656 -1.7949219 298.65976 C -1.8623193 298.65295 -1.9307501 298.64999 -2 298.64999 C -2.0692499 298.64999 -2.1376807 298.65295 -2.2050781 298.65976 C -2.2724755 298.66656 -2.3390821 298.67773 -2.4042969 298.69101 C -2.4695117 298.70428 -2.533001 298.72041 -2.5957031 298.73983 C -2.6584052 298.75925 -2.7194376 298.78101 -2.7792969 298.80624 C -2.8391562 298.83147 -2.8983917 298.85951 -2.9550781 298.89022 C -3.0117646 298.92094 -3.0659571 298.95396 -3.1191406 298.98983 C -3.1723242 299.0257 -3.224087 299.06437 -3.2734375 299.10507 C -3.322788 299.14576 -3.3708282 299.18879 -3.4160156 299.23397 C -3.4612031 299.27916 -3.5042276 299.3272 -3.5449219 299.37655 C -3.5856162 299.4259 -3.6242852 299.47767 -3.6601562 299.53085 C -3.6960273 299.58403 -3.7290479 299.63823 -3.7597656 299.69491 C -3.7904834 299.7516 -3.8185157 299.81083 -3.84375 299.87069 C -3.8689843 299.93055 -3.8907354 299.99158 -3.9101562 300.05429 C -3.9295771 300.11699 -3.945707 300.18048 -3.9589844 300.24569 C -3.9722617 300.31091 -3.9834307 300.37751 -3.9902344 300.44491 C -3.9970381 300.51231 -4 300.58074 -4 300.64999 C -4 300.73551 -3.9946915 300.81931 -3.984375 300.90194 C -3.9825589 300.91632 -3.9806373 300.93063 -3.9785156 300.94491 C -3.9780331 300.9482 -3.9770609 300.9514 -3.9765625 300.95468 C -3.964791 301.03214 -3.9480686 301.10896 -3.9277344 301.18319 C -3.7872473 301.69603 -3.4500361 302.12527 -3 302.38437 L -3 304.64999 C -3.0000254 305.02878 -2.7860455 305.37508 -2.4472656 305.54452 L 0.15429688 307.13632 A 9 9 0 0 0 -2.6113281 308.6246 L -5.2929688 305.94296 A 1 1 0 0 0 -6 305.64999 A 1 1 0 0 0 -6.7070312 305.94296 A 1 1 0 0 0 -6.7070312 307.35702 L -4.0253906 310.03866 A 9 9 0 0 0 -6 315.64999 L 3 315.64999 L 12 315.64999 A 9 9 0 0 0 10.029297 310.03476 L 12.707031 307.35702 A 1 1 0 0 0 12.707031 305.94296 A 1 1 0 0 0 12 305.64999 A 1 1 0 0 0 11.292969 305.94296 L 8.6152344 308.62069 A 9 9 0 0 0 4.0175781 306.71835 L 4.0175781 306.37069 L 8.3339844 304.59921 C 8.7424234 304.46295 9.0178041 304.08056 9.0175781 303.64999 L 9.0175781 301.64999 C 9.5715751 301.64999 10.017578 301.20399 10.017578 300.64999 L 10.017578 298.64999 C 10.017578 298.09599 9.5715751 297.64999 9.0175781 297.64999 L 7.0175781 297.64999 C 6.4635813 297.64999 6.0175781 298.09599 6.0175781 298.64999 L 6.0175781 300.64999 C 6.0175781 301.20399 6.4635813 301.64999 7.0175781 301.64999 L 7.0175781 302.92929 L 4.0175781 304.26132 L 4.0175781 297.64999 L 5.0175781 297.64999 C 5.8161655 297.64982 6.2924534 296.75985 5.8496094 296.0953 L 3.8496094 293.0953 C 3.6607148 292.81187 3.3405554 292.64406 3 292.64999 z M -0.5 310.64999 C 0.33099751 310.64999 1 311.31899 1 312.14999 C 1 312.98099 0.33099751 313.64999 -0.5 313.64999 C -1.3309976 313.64999 -2 312.98099 -2 312.14999 C -2 311.31899 -1.3309976 310.64999 -0.5 310.64999 z M 6.5 310.64999 C 7.3309976 310.64999 8 311.31899 8 312.14999 C 8 312.98099 7.3309976 313.64999 6.5 313.64999 C 5.6690024 313.64999 5 312.98099 5 312.14999 C 5 311.31899 5.6690024 310.64999 6.5 310.64999 z " /><g
           id="layer1-02"
           inkscape:label="Capa 1"
           transform="translate(-13.02405,6.02209)"><g
             transform="matrix(3.7795275,0,0,3.7795275,47,-809.86967)"
             id="layer1-3-2"
             inkscape:label="Capa 1" /><g
             id="g1309"
             transform="translate(-104.9779,22.97791)"><g
               id="g1253"
               transform="translate(84,-4)" /></g></g><g
           id="path8765"><path
             style="color:#000000;fill:#005431;fill-opacity:0.745961;stroke-width:2;stroke-linecap:round;stroke-linejoin:round;-inkscape-stroke:none"
             d="m -6,306.64999 4,4"
             id="path8870" /></g><g
           id="path8765-9"><path
             style="color:#000000;fill:#005431;fill-opacity:0.745961;stroke-width:2;stroke-linecap:round;stroke-linejoin:round"
             d="m 12,306.64999 -4,4"
             id="path8864" /></g></g></g></g></svg>
