<?xml version="1.0" encoding="UTF-8" standalone="no"?>
<!-- Created with Inkscape (http://www.inkscape.org/) -->

<svg
   xmlns:dc="http://purl.org/dc/elements/1.1/"
   xmlns:cc="http://creativecommons.org/ns#"
   xmlns:rdf="http://www.w3.org/1999/02/22-rdf-syntax-ns#"
   xmlns:svg="http://www.w3.org/2000/svg"
   xmlns="http://www.w3.org/2000/svg"
   xmlns:sodipodi="http://sodipodi.sourceforge.net/DTD/sodipodi-0.dtd"
   xmlns:inkscape="http://www.inkscape.org/namespaces/inkscape"
   width="32"
   height="32"
   viewBox="0 0 32 32"
   version="1.1"
   id="svg8"
   inkscape:version="0.92.3 (2405546, 2018-03-11)"
   sodipodi:docname="ark.svg">
  <title
     id="title7895">Antu icon Theme</title>
  <defs
     id="defs2" />
  <sodipodi:namedview
     id="base"
     pagecolor="#ffffff"
     bordercolor="#666666"
     borderopacity="1.0"
     inkscape:pageopacity="0.0"
     inkscape:pageshadow="2"
     inkscape:zoom="16"
     inkscape:cx="9.920107"
     inkscape:cy="21.447076"
     inkscape:document-units="px"
     inkscape:current-layer="layer1"
     showgrid="false"
     units="px"
     inkscape:window-width="1874"
     inkscape:window-height="1141"
     inkscape:window-x="46"
     inkscape:window-y="30"
     inkscape:window-maximized="1"
     objecttolerance="10"
     gridtolerance="10"
     guidetolerance="10">
    <inkscape:grid
       type="xygrid"
       id="grid7897"
       empspacing="4" />
  </sodipodi:namedview>
  <metadata
     id="metadata5">
    <rdf:RDF>
      <cc:Work
         rdf:about="">
        <dc:format>image/svg+xml</dc:format>
        <dc:type
           rdf:resource="http://purl.org/dc/dcmitype/StillImage" />
        <dc:title>Antu icon Theme</dc:title>
      </cc:Work>
    </rdf:RDF>
  </metadata>
  <g
     inkscape:label="Capa 1"
     inkscape:groupmode="layer"
     id="layer1"
     transform="translate(0,-282.64999)">
    <path
       inkscape:connector-curvature="0"
       style="opacity:1;fill:#4972c5;fill-opacity:1;stroke:none;stroke-width:1.99999988;stroke-linecap:round;stroke-linejoin:round;stroke-miterlimit:4;stroke-dasharray:none;stroke-opacity:1"
       d="M 5.0000001,283.65001 H 26.999999 c 1.108,0 2,0.89202 2,2.00001 v 26.00001 c 0,1.10797 -0.892,1.99998 -2,1.99998 H 5.0000001 C 3.892,313.65001 3,312.758 3,311.65003 v -26 c 0,-1.108 0.892,-2.00001 2.0000001,-2.00002 z"
       id="rect827" />
    <path
       inkscape:connector-curvature="0"
       style="opacity:1;fill:#5ca5ff;fill-opacity:1;stroke:none;stroke-width:1.99999988;stroke-linecap:round;stroke-linejoin:round;stroke-miterlimit:4;stroke-dasharray:none;stroke-opacity:1"
       d="m 5,284.65003 h 21.999999 c 0.554,0 1,0.44599 1,1 v 26 c 0,0.55401 -0.446,1 -1,1 H 5 c -0.554,0 -1,-0.44599 -1,-1 v -26 c 0,-0.554 0.446,-1 1,-1 z"
       id="rect829" />
    <path
       inkscape:connector-curvature="0"
       style="fill:#36404d;fill-opacity:1;stroke:none;stroke-width:1.00157475;stroke-linecap:round;stroke-linejoin:round;stroke-miterlimit:4;stroke-dasharray:none;stroke-opacity:1"
       d="m 13,283.64996 v 5 1 7 c 0,1.66202 1.338,3 3,3 1.662,0 3,-1.33798 3,-3 v -7 -1 -5 h -1 -2 -2 z"
       id="rect4856" />
    <path
       style="fill:#4b6477;fill-opacity:1;stroke:none;stroke-width:1.00157475;stroke-linecap:round;stroke-linejoin:round;stroke-miterlimit:4;stroke-dasharray:none;stroke-opacity:1"
       d="m 14,284.64993 v 2.99997 9 c 0,1.108 0.892,2.00002 2,2.00002 1.108,0 2,-0.89202 2,-2.00002 v -9 -2.99997 h -2 z"
       id="rect4917"
       inkscape:connector-curvature="0"
       sodipodi:nodetypes="ccssscccc" />
    <path
       inkscape:connector-curvature="0"
       style="fill:#e6f9ff;fill-opacity:1;stroke:none;stroke-width:1.00157475;stroke-linecap:round;stroke-linejoin:round;stroke-miterlimit:4;stroke-dasharray:none;stroke-opacity:1"
       d="m 16,284.64996 v 1 h 1 v -1 z m 0,1 h -1 v 1 h 1 z m 0,1 v 1 h 1 v -1 z m 0,1 h -1 v 1 h 1 z m 0,1 v 1 h 1 v -1 z m 0,1 h -1 v 1 h 1 z m 0,1 v 1 h 1 v -1 z m 0,1 h -1 v 1 h 1 z m 0,1 v 1 h 1 v -1 z m 0,1 h -1 v 1 h 1 z m 0,1 v 1 h 1 v -1 z m 0,1 h -1 v 1 h 1 z m 0,1 v 1 h -1 v 1.2754 c -0.595799,0.34545 -1,0.98356 -1,1.7246 0,1.10801 0.892,2 2,2 1.108,0 2,-0.89199 2,-2 0,-0.74104 -0.404201,-1.37905 -1,-1.7246 v -1.2754 -1 z m 0,3 c 0.554,0 1,0.44601 1,1 0,0.554 -0.446,1 -1,1 -0.554,0 -1,-0.446 -1,-1 0,-0.55399 0.446,-1 1,-1 z"
       id="rect4858" />
  </g>
</svg>
