<?xml version="1.0" encoding="UTF-8" standalone="no"?>
<!-- Created with Inkscape (http://www.inkscape.org/) -->

<svg
   width="32"
   height="32"
   viewBox="0 0 8.4666665 8.4666669"
   version="1.1"
   id="svg8"
   inkscape:version="1.2 (dc2aedaf03, 2022-05-15)"
   sodipodi:docname="chromium.svg"
   xmlns:inkscape="http://www.inkscape.org/namespaces/inkscape"
   xmlns:sodipodi="http://sodipodi.sourceforge.net/DTD/sodipodi-0.dtd"
   xmlns="http://www.w3.org/2000/svg"
   xmlns:svg="http://www.w3.org/2000/svg"
   xmlns:rdf="http://www.w3.org/1999/02/22-rdf-syntax-ns#"
   xmlns:cc="http://creativecommons.org/ns#"
   xmlns:dc="http://purl.org/dc/elements/1.1/">
  <defs
     id="defs2" />
  <sodipodi:namedview
     id="base"
     pagecolor="#ffffff"
     bordercolor="#666666"
     borderopacity="1.0"
     inkscape:pageopacity="0.0"
     inkscape:pageshadow="2"
     inkscape:zoom="15.839192"
     inkscape:cx="49.686878"
     inkscape:cy="16.257142"
     inkscape:document-units="px"
     inkscape:current-layer="layer1"
     showgrid="true"
     units="px"
     inkscape:showpageshadow="false"
     inkscape:snap-bbox="true"
     inkscape:bbox-paths="true"
     inkscape:bbox-nodes="true"
     inkscape:snap-bbox-edge-midpoints="true"
     inkscape:snap-bbox-midpoints="true"
     inkscape:object-paths="true"
     inkscape:snap-intersection-paths="true"
     inkscape:window-width="2160"
     inkscape:window-height="1337"
     inkscape:window-x="0"
     inkscape:window-y="0"
     inkscape:window-maximized="1"
     inkscape:pagecheckerboard="0"
     inkscape:deskcolor="#d1d1d1">
    <inkscape:grid
       type="xygrid"
       id="grid815" />
  </sodipodi:namedview>
  <metadata
     id="metadata5">
    <rdf:RDF>
      <cc:Work
         rdf:about="">
        <dc:format>image/svg+xml</dc:format>
        <dc:type
           rdf:resource="http://purl.org/dc/dcmitype/StillImage" />
        <dc:title />
      </cc:Work>
    </rdf:RDF>
  </metadata>
  <g
     inkscape:label="Capa 1"
     inkscape:groupmode="layer"
     id="layer1"
     transform="translate(0,-288.53333)">
    <g
       id="g1547"
       transform="translate(4.4979159,0.52916663)">
      <path
         inkscape:connector-curvature="0"
         style="opacity:0.98000004;fill:#71a3d5;fill-opacity:1;stroke:none;stroke-width:1.1404233;stroke-linecap:square;stroke-linejoin:miter;stroke-miterlimit:4;stroke-dasharray:none;stroke-opacity:1;paint-order:stroke markers fill"
         d="m -0.67949004,296.18449 a 3.96875,3.96875 0 0 1 -3.21078596,-2.33277 3.96875,3.96875 0 0 1 0.4148469,-3.94701 l 3.21078686,2.33277 z"
         id="path972-5" />
      <path
         inkscape:connector-curvature="0"
         id="path972-1-7"
         d="m 3.2395363,290.37401 -3.50417924,1.86345 -1.02732736,3.83336 a 3.96875,3.96875 0 0 0 0.61236566,0.11369 3.96875,3.96875 0 0 0 3.70520044,-1.72754 3.96875,3.96875 0 0 0 0.2139405,-4.08296 z"
         style="opacity:0.98000004;fill:#96b2cb;fill-opacity:1;stroke:none;stroke-width:1.1404233;stroke-linecap:square;stroke-linejoin:miter;stroke-miterlimit:4;stroke-dasharray:none;stroke-opacity:1;paint-order:stroke markers fill" />
      <path
         inkscape:connector-curvature="0"
         id="path921-9"
         d="m -0.31270214,288.26872 c -0.02136,5.3e-4 -0.04273,0.001 -0.06408,0.002 -0.0097,5.3e-4 -0.019301,0.001 -0.02894,0.002 -0.04951,0.003 -0.09895,0.007 -0.1483109,0.0119 -0.07268,0.005 -0.1452322,0.0111 -0.2175581,0.0196 -0.0098,0.001 -0.01964,0.002 -0.02946,0.003 -0.04059,0.007 -0.08108,0.0142 -0.1214397,0.0222 -0.08124,0.0128 -0.16207106,0.0282 -0.24236206,0.046 -0.0095,0.002 -0.01896,0.004 -0.02842,0.006 -0.03858,0.0104 -0.07699,0.0215 -0.1152383,0.0331 -0.0796,0.021 -0.1585338,0.0444 -0.2366787,0.0703 -0.0086,0.003 -0.01724,0.005 -0.025839,0.008 -0.043361,0.0163 -0.086431,0.0334 -0.1291928,0.0512 -0.07022,0.0266 -0.139663,0.0552 -0.208256,0.0858 -0.0097,0.004 -0.019309,0.008 -0.02894,0.0119 -0.04049,0.0202 -0.08063,0.041 -0.1204058,0.0625 -0.06907,0.034 -0.1371441,0.07 -0.204122,0.108 -0.0093,0.005 -0.018619,0.01 -0.0279,0.015 -0.03744,0.0235 -0.07448,0.0476 -0.1111049,0.0723 -0.05815,0.0361 -0.115357,0.0736 -0.1715651,0.11266 -0.0083,0.005 -0.01656,0.0106 -0.024799,0.016 l 0.00101,0.002 c -0.01038,0.008 -0.020711,0.0165 -0.03101,0.0248 -0.09266,0.0681 -0.1823159,0.14015 -0.268718,0.21601 -0.019831,0.0186 -0.03947,0.0373 -0.05891,0.0563 -0.07598,0.0691 -0.149239,0.14118 -0.219624,0.216 -0.03094,0.0348 -0.06126,0.0701 -0.09095,0.10594 -0.05449,0.0616 -0.1070528,0.12482 -0.1576129,0.18965 -0.01764,0.0224 -0.03504,0.0449 -0.05219,0.0677 l 0.0031,0.003 c -0.05533,0.0738 -0.1080717,0.14943 -0.1581298,0.22686 l 1.5136091,2.18041 1.85207666,-0.0772 3.44681834,-1.32291 h 0.2573412 0.03979 l -0.03979,-0.10336 h -5.292e-4 c -0.05849,-0.14916 -0.1259639,-0.29463 -0.2020419,-0.43563 l 0.00259,-0.002 c -0.028523,-0.0506 -0.058163,-0.10056 -0.088893,-0.14986 -0.03463,-0.0598 -0.07081,-0.11878 -0.108521,-0.17673 -0.03577,-0.0529 -0.07282,-0.10495 -0.1111041,-0.15607 -0.0401,-0.0555 -0.08162,-0.10994 -0.1245399,-0.16329 -0.03988,-0.048 -0.08089,-0.095 -0.12299,-0.14108 -0.04619,-0.0522 -0.09375,-0.10324 -0.1426271,-0.15296 -0.04578,-0.0451 -0.09265,-0.089 -0.1405601,-0.13178 -0.04934,-0.0455 -0.09983,-0.0898 -0.1514118,-0.13281 -0.05086,-0.0409 -0.1027282,-0.0805 -0.1555462,-0.11885 -0.0536,-0.0405 -0.1082259,-0.0796 -0.1638138,-0.11731 -0.05478,-0.0356 -0.110439,-0.0699 -0.1669151,-0.10283 -0.05687,-0.0343 -0.1145939,-0.0673 -0.1731161,-0.0987 -0.0587,-0.0304 -0.118142,-0.0594 -0.1782839,-0.0868 -0.05927,-0.0283 -0.119231,-0.0552 -0.1798341,-0.0806 -0.06126,-0.0243 -0.123122,-0.047 -0.1855179,-0.0682 -0.06062,-0.0229 -0.12178694,-0.0442 -0.18345204,-0.0641 -0.01239,-0.003 -0.024789,-0.006 -0.03721,-0.009 -0.06181,-0.0167 -0.1240102,-0.0318 -0.1865521,-0.0455 -0.06508,-0.0163 -0.1305531,-0.0309 -0.1963701,-0.0439 -0.06761,-0.0112 -0.1355032,-0.0207 -0.203605,-0.0284 -0.06337,-0.009 -0.12695,-0.0167 -0.1906861,-0.0227 -0.01188,-0.001 -0.02377,-0.003 -0.03566,-0.004 -0.05973,-0.003 -0.119522,-0.004 -0.1793168,-0.004 -0.03254,-0.002 -0.0651,-0.003 -0.09767,-0.004 v -0.002 c -0.012581,1.1e-4 -0.025151,2.7e-4 -0.03772,5.3e-4 -0.0034,-1.8e-4 -0.0069,-2.6e-4 -0.010329,-5.3e-4 z"
         style="opacity:0.98000004;fill:#5581ab;fill-opacity:1;stroke:none;stroke-width:0.53501332;stroke-linecap:square;stroke-linejoin:miter;stroke-miterlimit:4;stroke-dasharray:none;stroke-opacity:1;paint-order:stroke markers fill"
         sodipodi:nodetypes="cccccccccccccccccccccccccccccccccccccccccccccccccccccccccccccccccccc" />
      <path
         inkscape:connector-curvature="0"
         style="opacity:0.98000004;fill:#91bee4;fill-opacity:1;stroke:none;stroke-width:1.11289108;stroke-linecap:square;stroke-linejoin:miter;stroke-miterlimit:4;stroke-dasharray:none;stroke-opacity:1;paint-order:stroke markers fill"
         d="m -0.65183314,295.92136 a 3.7041667,3.7041667 0 0 1 -2.99673376,-2.17726 3.7041667,3.7041667 0 0 1 0.387191,-3.68387 l 2.99673366,2.17725 z"
         id="path1022-9-2" />
      <path
         inkscape:connector-curvature="0"
         style="opacity:0.98000004;fill:#c9deee;fill-opacity:1;stroke:none;stroke-width:1.11289108;stroke-linecap:square;stroke-linejoin:miter;stroke-miterlimit:4;stroke-dasharray:none;stroke-opacity:1;paint-order:stroke markers fill"
         d="m 3.005959,290.49856 -0.7823809,0.41599 H 0.79369116 v 0.52917 H 1.2282892 l -1.49293244,0.79375 -0.95859676,3.57808 a 3.7041667,3.7041667 0 0 0 0.57205766,0.10128 l -5.291e-4,0.005 a 3.7041667,3.7041667 0 0 0 0.1095549,0.006 3.7041667,3.7041667 0 0 0 0.1855182,0.01 3.7041667,3.7041667 0 0 0 0.1886191,-0.001 3.7041667,3.7041667 0 0 0 0.174666,-0.008 3.7041667,3.7041667 0 0 0 0.1932699,-0.0202 3.7041667,3.7041667 0 0 0 0.1793169,-0.0264 3.7041667,3.7041667 0 0 0 0.183452,-0.0382 3.7041667,3.7041667 0 0 0 0.174666,-0.0434 3.7041667,3.7041667 0 0 0 0.1829353,-0.0579 3.7041667,3.7041667 0 0 0 0.16949794,-0.061 3.7041667,3.7041667 0 0 0 0.1725991,-0.0739 3.7041667,3.7041667 0 0 0 0.162265,-0.077 3.7041667,3.7041667 0 0 0 0.1694979,-0.094 3.7041667,3.7041667 0 0 0 0.151929,-0.092 3.7041667,3.7041667 0 0 0 0.153479,-0.10593 3.7041667,3.7041667 0 0 0 0.09095,-0.0625 3.7041667,3.7041667 0 0 0 0.08268,-0.0682 3.7041667,3.7041667 0 0 0 0.1379759,-0.12144 3.7041667,3.7041667 0 0 0 0.1348759,-0.12403 3.7041667,3.7041667 0 0 0 0.1312582,-0.14107 3.7041667,3.7041667 0 0 0 0.1173049,-0.13281 3.7041667,3.7041667 0 0 0 0.1694989,-0.22273 3.7041667,3.7041667 0 0 0 0.03307,-0.0444 3.7041667,3.7041667 0 0 0 0.0093,-0.0129 3.7041667,3.7041667 0 0 0 0.08475,-0.14004 3.7041667,3.7041667 0 0 0 0.1018029,-0.16898 3.7041667,3.7041667 0 0 0 0.07596,-0.15813 3.7041667,3.7041667 0 0 0 0.08113,-0.17053 3.7041667,3.7041667 0 0 0 0.07441,-0.20309 3.7041667,3.7041667 0 0 0 0.05219,-0.14625 3.7041667,3.7041667 0 0 0 0.05478,-0.21394 3.7041667,3.7041667 0 0 0 0.03566,-0.14314 3.7041667,3.7041667 0 0 0 0.03307,-0.22169 3.7041667,3.7041667 0 0 0 0.021191,-0.14572 3.7041667,3.7041667 0 0 0 0.010329,-0.20568 3.7041667,3.7041667 0 0 0 0.0078,-0.15399 h -0.00101 a 3.7041667,3.7041667 0 0 0 -0.4325292,-1.73891 z"
         id="path1022-9-9-2" />
      <path
         sodipodi:nodetypes="sccccccccccccccccccccccccccccccccccccccccccsccs"
         inkscape:connector-curvature="0"
         id="path1022-8"
         d="m -0.24448914,288.53331 c -0.084,-5.3e-4 -0.1673842,0.003 -0.2506311,0.008 -0.009,5.3e-4 -0.01791,10e-4 -0.02687,0.002 -0.08179,0.006 -0.1626029,0.0169 -0.243396,0.0279 -0.08636,0.0118 -0.172098,0.0275 -0.25786506,0.0455 -0.04612,0.01 -0.09235,0.0181 -0.1379759,0.0294 -0.020601,0.005 -0.04146,0.008 -0.06201,0.0134 -0.07573,0.0203 -0.1488691,0.0469 -0.2227249,0.0718 -0.03606,0.0122 -0.07288,0.0219 -0.108521,0.0351 -0.1262411,0.0469 -0.249352,0.10025 -0.3689701,0.16019 -0.02222,0.0111 -0.04312,0.0246 -0.06511,0.0362 -0.09783,0.0515 -0.1936909,0.10651 -0.2862868,0.1664 -0.03485,0.0225 -0.06821,0.0471 -0.1023192,0.0708 -0.07828,0.0545 -0.1545709,0.11126 -0.22841,0.17157 -0.03571,0.0292 -0.07075,0.0588 -0.1054198,0.0894 -0.06922,0.061 -0.1353942,0.1251 -0.199988,0.1912 -0.03747,0.0384 -0.07622,0.0751 -0.112138,0.11524 -0.016629,0.0186 -0.03283,0.0374 -0.04909,0.0563 -0.06557,0.0763 -0.129417,0.15448 -0.1891351,0.23668 l 5.292e-4,5.3e-4 c -0.07564,0.10413 -0.14693,0.21205 -0.2118731,0.32453 l 2.4143229,3.43958 h 0.52916716 l 1.222148,-2.54506 0.36483614,-0.36484 h 1.852599 l 0.283187,-0.005 c -0.05413,-0.14102 -0.1176981,-0.278 -0.1886191,-0.41135 h 0.00101 c -0.00249,-0.005 -0.0052,-0.009 -0.0078,-0.014 -0.00159,-0.003 -0.0031,-0.006 -0.0046,-0.009 h -5.292e-4 c -0.3310231,-0.61211 -0.821759,-1.10766 -1.406104,-1.44539 l 5.291e-4,-0.001 c -0.0057,-0.003 -0.011861,-0.006 -0.017571,-0.009 -0.09148,-0.0522 -0.185342,-0.10038 -0.2811201,-0.1447 -0.022249,-0.0103 -0.04476,-0.0196 -0.06718,-0.0294 -0.09033,-0.0396 -0.1818722,-0.0761 -0.27543604,-0.10852 -0.010099,-0.004 -0.019849,-0.008 -0.02997,-0.0114 -0.101033,-0.034 -0.2042631,-0.0626 -0.3085081,-0.0879 -0.02168,-0.005 -0.04335,-0.0101 -0.06511,-0.015 -0.104575,-0.0234 -0.2101281,-0.0436 -0.3172931,-0.0579 -0.0096,-10e-4 -0.019309,-0.002 -0.02894,-0.003 -0.06715,-0.008 -0.1345899,-0.0159 -0.2025719,-0.0207 -0.03213,-0.002 -0.06406,-0.002 -0.09612,-0.004 -0.023961,-10e-4 -0.04785,-0.002 -0.07183,-0.003 -0.0234,-5.3e-4 -0.04692,-0.002 -0.07028,-0.003 z"
         style="opacity:0.98000004;fill:#6b9bcb;fill-opacity:1;stroke:none;stroke-width:1.11289108;stroke-linecap:square;stroke-linejoin:miter;stroke-miterlimit:4;stroke-dasharray:none;stroke-opacity:1;paint-order:stroke markers fill" />
    </g>
    <g
       id="g151967"
       transform="matrix(0.26458333,0,0,0.26458333,-4.2333332,213.74885)">
      <path
         inkscape:connector-curvature="0"
         id="path1108-9-9"
         d="m 40,298.65001 a 8.0000013,8.0000013 0 0 1 -8,8 8.0000013,8.0000013 0 0 1 -8,-8 8.0000013,8.0000013 0 0 1 8,-8.00004 8.0000013,8.0000013 0 0 1 8,8.00004 z"
         style="fill:#a3b7cc;fill-opacity:1;stroke:none;stroke-width:2.13333;stroke-linecap:square;stroke-linejoin:miter;stroke-miterlimit:4;stroke-dasharray:none;stroke-opacity:1;paint-order:stroke markers fill" />
      <path
         inkscape:connector-curvature="0"
         id="path1108-2-7-3"
         d="m 39,298.64999 a 7.0000003,7.0000003 0 0 1 -7,7 7.0000003,7.0000003 0 0 1 -7,-7 7.0000003,7.0000003 0 0 1 7,-7 7.0000003,7.0000003 0 0 1 7,7 z"
         style="opacity:0.98;fill:#e6f5fe;fill-opacity:1;stroke:none;stroke-width:1.86666;stroke-linecap:square;stroke-linejoin:miter;stroke-miterlimit:4;stroke-dasharray:none;stroke-opacity:1;paint-order:stroke markers fill" />
      <path
         id="path1108-2-0-3-5"
         d="M 38,298.65002 A 5.9999995,5.9999995 0 0 1 31.999996,304.65 5.9999995,5.9999995 0 0 1 26,298.65002 5.9999995,5.9999995 0 0 1 31.999996,292.64998 5.9999995,5.9999995 0 0 1 38,298.65002 Z"
         style="opacity:0.98;fill:#568bc6;fill-opacity:1;stroke:none;stroke-width:1.6;stroke-linecap:square;stroke-linejoin:miter;stroke-miterlimit:4;stroke-dasharray:none;stroke-opacity:1;paint-order:stroke markers fill"
         inkscape:connector-curvature="0" />
      <path
         id="path1108-2-0-2-6-7"
         d="m 37,298.64999 a 4.9999999,4.9999999 0 0 1 -5,5 4.9999999,4.9999999 0 0 1 -5,-5 4.9999999,4.9999999 0 0 1 5,-5 4.9999999,4.9999999 0 0 1 5,5 z"
         style="opacity:0.98;fill:#86afda;fill-opacity:1;stroke:none;stroke-width:1.33333;stroke-linecap:square;stroke-linejoin:miter;stroke-miterlimit:4;stroke-dasharray:none;stroke-opacity:1;paint-order:stroke markers fill"
         inkscape:connector-curvature="0" />
    </g>
  </g>
</svg>
