<?xml version="1.0" encoding="UTF-8" standalone="no"?>
<!-- Created with Inkscape (http://www.inkscape.org/) -->

<svg
   xmlns:dc="http://purl.org/dc/elements/1.1/"
   xmlns:cc="http://creativecommons.org/ns#"
   xmlns:rdf="http://www.w3.org/1999/02/22-rdf-syntax-ns#"
   xmlns:svg="http://www.w3.org/2000/svg"
   xmlns="http://www.w3.org/2000/svg"
   xmlns:sodipodi="http://sodipodi.sourceforge.net/DTD/sodipodi-0.dtd"
   xmlns:inkscape="http://www.inkscape.org/namespaces/inkscape"
   width="32"
   height="32"
   viewBox="0 0 32 32"
   version="1.1"
   id="svg8"
   inkscape:version="0.92.3 (2405546, 2018-03-11)"
   sodipodi:docname="designer.svg">
  <title
     id="title7895">Antu icon Theme</title>
  <defs
     id="defs2">
    <style
       type="text/css"
       id="current-color-scheme">
      .ColorScheme-Text {
        color:#122036;
      }
      </style>
    <linearGradient
       y2="518.14001"
       x2="0"
       y1="545.14001"
       gradientUnits="userSpaceOnUse"
       id="0">
      <stop
         id="stop4164"
         stop-color="#00a661" />
      <stop
         id="stop4166"
         stop-color="#37ce97"
         offset="1" />
    </linearGradient>
  </defs>
  <sodipodi:namedview
     id="base"
     pagecolor="#ffffff"
     bordercolor="#666666"
     borderopacity="1.0"
     inkscape:pageopacity="0.0"
     inkscape:pageshadow="2"
     inkscape:zoom="11.313708"
     inkscape:cx="25.818731"
     inkscape:cy="8.8133573"
     inkscape:document-units="px"
     inkscape:current-layer="g2369"
     showgrid="true"
     units="px"
     inkscape:window-width="1874"
     inkscape:window-height="1141"
     inkscape:window-x="46"
     inkscape:window-y="30"
     inkscape:window-maximized="1"
     objecttolerance="10"
     gridtolerance="10"
     guidetolerance="10"
     inkscape:snap-bbox="true"
     inkscape:bbox-paths="true"
     inkscape:snap-bbox-edge-midpoints="true"
     inkscape:bbox-nodes="true"
     inkscape:snap-bbox-midpoints="true"
     inkscape:object-paths="true"
     inkscape:snap-intersection-paths="true"
     inkscape:object-nodes="true">
    <inkscape:grid
       type="xygrid"
       id="grid7897"
       empspacing="4" />
  </sodipodi:namedview>
  <metadata
     id="metadata5">
    <rdf:RDF>
      <cc:Work
         rdf:about="">
        <dc:format>image/svg+xml</dc:format>
        <dc:type
           rdf:resource="http://purl.org/dc/dcmitype/StillImage" />
        <dc:title>Antu icon Theme</dc:title>
      </cc:Work>
    </rdf:RDF>
  </metadata>
  <g
     inkscape:label="Capa 1"
     inkscape:groupmode="layer"
     id="layer1"
     transform="translate(0,-282.64999)">
    <g
       id="g2369"
       transform="translate(25,-8)">
      <path
         id="path12329"
         d="m -24,292.64999 c -0.55401,0 -1,0.446 -1,1 v 26 c 0,0.554 0.44599,1 1,1 H 6 c 0.55401,0 1,-0.446 1,-1 v -26 c 0,-0.554 -0.44599,-1 -1,-1 h -14 -3 z"
         style="fill:#36404d;fill-opacity:1;stroke-width:1.00000012"
         inkscape:connector-curvature="0" />
      <path
         sodipodi:nodetypes="ccccc"
         inkscape:connector-curvature="0"
         id="path1011"
         d="m -24,293.64999 0,26 12,0 0,-26 z"
         style="fill:#4b6477;fill-opacity:1;stroke-width:1.00000012" />
      <path
         sodipodi:nodetypes="ccccc"
         inkscape:connector-curvature="0"
         id="path13-5-2-9-4-2-6-6"
         d="m -11,293.64999 0,26 17,0 0,-26 z"
         style="fill:#bae0bd;fill-opacity:1;stroke-width:1.00000012" />
      <path
         id="rect1017"
         d="m -21,295.64999 0,1 -1,0 0,1 1,0 0,1 -1,0 0,1 1,0 0,1 1,0 0,-1 1,0 0,1 1,0 0,-1 1,0 0,-1 -1,0 0,-1 1,0 0,-1 -1,0 0,-1 -1,0 0,1 -1,0 0,-1 z m 1,2 1,0 0,1 -1,0 z"
         style="opacity:1;fill:#e1ebf2;fill-opacity:1;stroke:none;stroke-width:6;stroke-linecap:round;stroke-linejoin:round;stroke-miterlimit:4;stroke-dasharray:none;stroke-dashoffset:0;stroke-opacity:1;paint-order:stroke markers fill"
         inkscape:connector-curvature="0" />
      <g
         transform="translate(12,5.5949737)"
         id="layer1-6"
         inkscape:label="Capa 1"
         style="fill:#5e9c76;fill-opacity:1">
        <path
           style="opacity:0.98000004;fill:#5e9c76;fill-opacity:1;stroke:none;stroke-width:2;stroke-linecap:square;stroke-linejoin:miter;stroke-miterlimit:4;stroke-dasharray:none;stroke-opacity:1;paint-order:stroke markers fill"
           d="m -20,295.05502 0,5 5,0 0,-5 z m 6,0 0,5 5,0 0,-5 z m -6,7 0,5 5,0 0,-5 z m 6,0 0,5 5,0 0,-5 z"
           id="rect3215-0"
           inkscape:connector-curvature="0"
           sodipodi:nodetypes="cccccccccccccccccccc" />
      </g>
    </g>
  </g>
</svg>
