<?xml version="1.0" encoding="UTF-8" standalone="no"?>
<!-- Created with Inkscape (http://www.inkscape.org/) -->

<svg
   xmlns:dc="http://purl.org/dc/elements/1.1/"
   xmlns:cc="http://creativecommons.org/ns#"
   xmlns:rdf="http://www.w3.org/1999/02/22-rdf-syntax-ns#"
   xmlns:svg="http://www.w3.org/2000/svg"
   xmlns="http://www.w3.org/2000/svg"
   xmlns:sodipodi="http://sodipodi.sourceforge.net/DTD/sodipodi-0.dtd"
   xmlns:inkscape="http://www.inkscape.org/namespaces/inkscape"
   width="32"
   height="32"
   viewBox="0 0 8.4666665 8.4666669"
   version="1.1"
   id="svg8"
   inkscape:version="0.92.3 (2405546, 2018-03-11)"
   sodipodi:docname="view-calendar.svg">
  <defs
     id="defs2" />
  <sodipodi:namedview
     id="base"
     pagecolor="#ffffff"
     bordercolor="#666666"
     borderopacity="1.0"
     inkscape:pageopacity="0.0"
     inkscape:pageshadow="2"
     inkscape:zoom="11.2"
     inkscape:cx="1.6814447"
     inkscape:cy="13.283898"
     inkscape:document-units="px"
     inkscape:current-layer="layer1"
     showgrid="true"
     units="px"
     inkscape:showpageshadow="false"
     inkscape:snap-bbox="true"
     inkscape:bbox-paths="true"
     inkscape:bbox-nodes="true"
     inkscape:snap-bbox-edge-midpoints="true"
     inkscape:snap-bbox-midpoints="true"
     inkscape:object-paths="true"
     inkscape:snap-intersection-paths="true"
     inkscape:window-width="1874"
     inkscape:window-height="1141"
     inkscape:window-x="46"
     inkscape:window-y="30"
     inkscape:window-maximized="1">
    <inkscape:grid
       type="xygrid"
       id="grid815" />
  </sodipodi:namedview>
  <metadata
     id="metadata5">
    <rdf:RDF>
      <cc:Work
         rdf:about="">
        <dc:format>image/svg+xml</dc:format>
        <dc:type
           rdf:resource="http://purl.org/dc/dcmitype/StillImage" />
        <dc:title></dc:title>
      </cc:Work>
    </rdf:RDF>
  </metadata>
  <g
     inkscape:label="Capa 1"
     inkscape:groupmode="layer"
     id="layer1"
     transform="translate(0,-288.53333)">
    <g
       id="g8616"
       transform="translate(-3.7041667,3.3499999e-6)">
      <path
         inkscape:connector-curvature="0"
         style="opacity:1;fill:#a3b7cc;fill-opacity:1;stroke:none;stroke-width:0.63318539;stroke-linecap:round;stroke-linejoin:round;stroke-miterlimit:4;stroke-dasharray:none;stroke-opacity:1"
         d="m 4.4979167,288.79791 h 6.8791663 c 0.293159,0 0.529167,0.23601 0.529167,0.52917 v 6.87916 c 0,0.29316 -0.236008,0.52917 -0.529167,0.52917 H 4.4979167 c -0.2931584,0 -0.5291667,-0.23601 -0.5291667,-0.52917 v -6.87916 c 0,-0.29316 0.2360083,-0.52917 0.5291667,-0.52917 z"
         id="rect843-06" />
      <path
         inkscape:connector-curvature="0"
         style="opacity:1;fill:#f1f1f1;fill-opacity:1;stroke:none;stroke-width:0.59097302;stroke-linecap:round;stroke-linejoin:round;stroke-miterlimit:4;stroke-dasharray:none;stroke-opacity:1"
         d="m 4.4979167,289.06249 h 6.8791663 c 0.146579,0 0.264584,0.11801 0.264584,0.26459 v 6.87916 c 0,0.14658 -0.118005,0.26459 -0.264584,0.26459 H 4.4979167 c -0.1465792,0 -0.2645834,-0.11801 -0.2645834,-0.26459 v -6.87916 c 0,-0.14658 0.1180042,-0.26459 0.2645834,-0.26459 z"
         id="rect843-3-8" />
      <path
         style="opacity:0.98000004;fill:#c74343;fill-opacity:1;stroke:none;stroke-width:0.5291667;stroke-linecap:round;stroke-linejoin:round;stroke-miterlimit:4;stroke-dasharray:none;stroke-dashoffset:0;stroke-opacity:1"
         d="m 4.4979167,288.79791 c -0.2931578,0 -0.5291667,0.23601 -0.5291667,0.52917 v 0.79375 0.52916 0.52917 h 0.5291667 6.8791663 0.529167 v -0.52917 -0.52916 -0.79375 c 0,-0.29316 -0.236009,-0.52917 -0.529167,-0.52917 z"
         id="rect875"
         inkscape:connector-curvature="0"
         sodipodi:nodetypes="ssccccccccsss" />
      <path
         style="opacity:0.98000004;fill:#f78f8f;fill-opacity:1;stroke:none;stroke-width:0.5291667;stroke-linecap:round;stroke-linejoin:round;stroke-miterlimit:4;stroke-dasharray:none;stroke-dashoffset:0;stroke-opacity:1"
         d="m 4.4979167,289.06249 c -0.1465786,0 -0.2645834,0.11801 -0.2645834,0.26459 v 0.79375 0.52916 0.26459 h 0.2645834 6.8791663 0.264584 v -0.26459 -0.52916 -0.79375 c 0,-0.14658 -0.118005,-0.26459 -0.264584,-0.26459 z"
         id="rect882"
         inkscape:connector-curvature="0"
         sodipodi:nodetypes="ssccccccccsss" />
      <path
         inkscape:connector-curvature="0"
         style="opacity:0.98000004;fill:#a3b7cc;fill-opacity:1;stroke:none;stroke-width:0.5291667;stroke-linecap:square;stroke-linejoin:miter;stroke-miterlimit:4;stroke-dasharray:none;stroke-opacity:1;paint-order:stroke markers fill"
         d="m 5.0270833,291.70833 v 0.26458 0.52917 3.43958 h 1.5875 2.6458334 0.7937503 0.79375 v -0.26458 -0.52917 -0.26458 -2.11667 -0.26458 -0.52917 -0.26458 H 10.583333 10.054167 8.4666667 8.2020833 6.6145833 6.0854167 5.8208333 5.2916667 Z m 0.2645834,0.26458 h 0.5291666 v 0.52917 H 5.2916667 Z m 0.79375,0 h 0.5291666 v 0.52917 H 6.0854167 Z m 0.79375,0 h 0.5291666 v 0.52917 H 6.8791667 Z m 0.79375,0 h 0.5291666 v 0.52917 H 7.6729167 Z m 0.79375,0 h 0.5291667 v 0.52917 H 8.4666667 Z m 0.79375,0 h 0.5291667 v 0.52917 H 9.2604167 Z m 0.7937503,0 h 0.529166 v 0.52917 h -0.529166 z m -4.7625003,0.79375 h 0.5291666 v 0.52917 H 5.2916667 Z m 0.79375,0 h 0.5291666 v 0.52917 H 6.0854167 Z m 0.79375,0 h 0.5291666 v 0.52917 H 6.8791667 Z m 0.79375,0 h 0.5291666 v 0.52917 H 7.6729167 Z m 0.79375,0 h 0.5291667 v 0.52917 H 8.4666667 Z m 0.79375,0 h 0.5291667 v 0.52917 H 9.2604167 Z m 0.7937503,0 h 0.529166 v 0.52917 h -0.529166 z m -4.7625003,0.79375 h 0.5291666 v 0.52917 H 5.2916667 Z m 0.79375,0 h 0.5291666 v 0.52917 H 6.0854167 Z m 0.79375,0 h 0.5291666 v 0.52917 H 6.8791667 Z m 0.79375,0 h 0.5291666 v 0.52917 H 7.6729167 Z m 0.79375,0 h 0.5291667 v 0.52917 H 8.4666667 Z m 0.79375,0 h 0.5291667 v 0.52917 H 9.2604167 Z m 0.7937503,0 h 0.529166 v 0.52917 h -0.529166 z m -4.7625003,0.79375 h 0.5291666 v 0.52917 H 5.2916667 Z m 0.79375,0 h 0.5291666 v 0.52917 H 6.0854167 Z m 0.79375,0 h 0.5291666 v 0.52917 H 6.8791667 Z m 0.79375,0 h 0.5291666 v 0.52917 H 7.6729167 Z m 0.79375,0 h 0.5291667 v 0.52917 H 8.4666667 Z m 0.79375,0 h 0.5291667 v 0.52917 H 9.2604167 Z m 0.7937503,0 h 0.529166 v 0.52917 h -0.529166 z m -4.7625003,0.79375 h 0.5291666 v 0.52917 H 5.2916667 Z m 0.79375,0 h 0.5291666 v 0.52917 H 6.0854167 Z m 0.79375,0 h 0.5291666 v 0.52917 H 6.8791667 Z m 0.79375,0 h 0.5291666 v 0.52917 H 7.6729167 Z m 0.79375,0 h 0.5291667 v 0.52917 H 8.4666667 Z m 0.79375,0 h 0.5291667 v 0.52917 H 9.2604167 Z m 0.7937503,0 h 0.529166 v 0.52917 h -0.529166 z"
         id="rect3294-2" />
    </g>
  </g>
</svg>
