<?xml version="1.0" encoding="UTF-8" standalone="no"?>
<!-- Created with Inkscape (http://www.inkscape.org/) -->

<svg
   xmlns:dc="http://purl.org/dc/elements/1.1/"
   xmlns:cc="http://creativecommons.org/ns#"
   xmlns:rdf="http://www.w3.org/1999/02/22-rdf-syntax-ns#"
   xmlns:svg="http://www.w3.org/2000/svg"
   xmlns="http://www.w3.org/2000/svg"
   xmlns:sodipodi="http://sodipodi.sourceforge.net/DTD/sodipodi-0.dtd"
   xmlns:inkscape="http://www.inkscape.org/namespaces/inkscape"
   width="32"
   height="32"
   viewBox="0 0 32 32"
   version="1.1"
   id="svg8"
   inkscape:version="0.92.3 (2405546, 2018-03-11)"
   sodipodi:docname="imagewriter.svg">
  <title
     id="title7895">Antu icon Theme</title>
  <defs
     id="defs2">
    <style
       id="current-color-scheme"
       type="text/css">
      .ColorScheme-Text {
        color:#122036;
      }
      </style>
    <style
       id="current-color-scheme-53"
       type="text/css">
      .ColorScheme-Text {
        color:#122036;
      }
      </style>
    <style
       type="text/css"
       id="current-color-scheme-5">
      .ColorScheme-Text {
        color:#122036;
      }
      </style>
    <style
       type="text/css"
       id="current-color-scheme-2">
      .ColorScheme-Text {
        color:#122036;
      }
      </style>
    <style
       type="text/css"
       id="current-color-scheme-1">
      .ColorScheme-Text {
        color:#122036;
      }
      </style>
    <style
       id="current-color-scheme-10"
       type="text/css">
      .ColorScheme-Text {
        color:#122036;
      }
      </style>
    <style
       type="text/css"
       id="current-color-scheme-0">
      .ColorScheme-Text {
        color:#122036;
      }
      </style>
    <style
       type="text/css"
       id="current-color-scheme-26">
      .ColorScheme-Text {
        color:#122036;
      }
      </style>
    <style
       type="text/css"
       id="current-color-scheme-7">
      .ColorScheme-Text {
        color:#122036;
      }
      </style>
  </defs>
  <sodipodi:namedview
     id="base"
     pagecolor="#ffffff"
     bordercolor="#666666"
     borderopacity="1.0"
     inkscape:pageopacity="0.0"
     inkscape:pageshadow="2"
     inkscape:zoom="15.999999"
     inkscape:cx="7.0087253"
     inkscape:cy="7.2424546"
     inkscape:document-units="px"
     inkscape:current-layer="g1176"
     showgrid="true"
     units="px"
     inkscape:window-width="1874"
     inkscape:window-height="1141"
     inkscape:window-x="46"
     inkscape:window-y="30"
     inkscape:window-maximized="1"
     objecttolerance="10"
     gridtolerance="10"
     guidetolerance="10">
    <inkscape:grid
       type="xygrid"
       id="grid7897"
       empspacing="4" />
  </sodipodi:namedview>
  <metadata
     id="metadata5">
    <rdf:RDF>
      <cc:Work
         rdf:about="">
        <dc:format>image/svg+xml</dc:format>
        <dc:type
           rdf:resource="http://purl.org/dc/dcmitype/StillImage" />
        <dc:title>Antu icon Theme</dc:title>
      </cc:Work>
    </rdf:RDF>
  </metadata>
  <g
     inkscape:label="Capa 1"
     inkscape:groupmode="layer"
     id="layer1"
     transform="translate(0,-282.64999)">
    <g
       id="g1645"
       transform="translate(13,-7)">
      <g
         transform="translate(31.000001,25.999995)"
         id="layer1-2"
         inkscape:label="Capa 1" />
      <g
         id="g1176">
        <g
           id="g935">
          <path
             inkscape:connector-curvature="0"
             style="fill:#a5b8cd;fill-opacity:1;stroke:none;stroke-width:2;stroke-linecap:round;stroke-linejoin:round;stroke-miterlimit:4;stroke-dasharray:none;stroke-dashoffset:0;stroke-opacity:1;opacity:0.93"
             d="m -9,311.64999 h 24 c 1.108,0 2,0.892 2,2 v 5 c 0,1.108 -0.892,2 -2,2 H -9 c -1.108,0 -2,-0.892 -2,-2 v -5 c 0,-1.108 0.892,-2 2,-2 z"
             id="rect842" />
          <path
             inkscape:connector-curvature="0"
             style="fill:#f1f1f1;fill-opacity:1;stroke:none;stroke-width:2;stroke-linecap:round;stroke-linejoin:round;stroke-miterlimit:4;stroke-dasharray:none;stroke-dashoffset:0;stroke-opacity:1"
             d="m 4,23 c -0.554,0 -1,0.446 -1,1 v 5 c 0,0.554 0.446,1 1,1 h 24 c 0.554,0 1,-0.446 1,-1 v -5 c 0,-0.554 -0.446,-1 -1,-1 z m 1.4785156,5 H 26.521484 C 26.786243,28 27,28.213757 27,28.478516 v 0.04297 C 27,28.786243 26.786243,29 26.521484,29 H 5.4785156 C 5.2137574,29 5,28.786243 5,28.521484 v -0.04297 C 5,28.213757 5.2137574,28 5.4785156,28 Z"
             transform="translate(-13,289.64999)"
             id="rect844" />
          <path
             inkscape:connector-curvature="0"
             style="fill:#48b171;fill-opacity:1;stroke:none;stroke-width:2;stroke-linecap:round;stroke-linejoin:round;stroke-miterlimit:4;stroke-dasharray:none;stroke-dashoffset:0;stroke-opacity:1"
             d="m -9,290.64999 h 24 c 1.108,0 2,0.892 2,2 v 22 c 0,1.108 -0.892,2 -2,2 H -9 c -1.108,0 -2,-0.892 -2,-2 v -22 c 0,-1.108 0.892,-2 2,-2 z"
             id="rect838" />
          <path
             style="fill:#a7deb7;fill-opacity:1;stroke:none;stroke-width:2;stroke-linecap:round;stroke-linejoin:round;stroke-miterlimit:4;stroke-dasharray:none;stroke-dashoffset:0;stroke-opacity:1"
             d="M 4,2 C 3.446,2 3,2.446 3,3 v 22 c 0,0.554 0.446,1 1,1 h 24 c 0.554,0 1,-0.446 1,-1 V 3 C 29,2.446 28.554,2 28,2 Z"
             transform="translate(-13,289.64999)"
             id="rect840"
             inkscape:connector-curvature="0"
             sodipodi:nodetypes="sssssssss" />
        </g>
        <path
           style="opacity:1;fill:#2ba35c;fill-opacity:0.7647059;stroke:none;stroke-width:2;stroke-linecap:round;stroke-linejoin:round;stroke-miterlimit:4;stroke-dasharray:none;stroke-dashoffset:0;stroke-opacity:1"
           d="m 2.982422,293.64999 c -0.328101,0.006 -0.632468,0.17224 -0.814453,0.44531 l -2,3 C -0.274876,297.75985 0.201411,298.64982 1,298.64999 h 1 v 8 1.38086 l -4,-2 v -1.65625 c 0.595799,-0.34556 1,-0.98354 1,-1.72461 0,-1.108 -0.892,-2 -2,-2 -1.108,0 -2,0.892 -2,2 0,0.74107 0.4042011,1.37905 1,1.72461 v 2.27539 a 1.0001,1.0001 0 0 0 0.5527344,0.89453 L 2,310.26718 v 0.38281 a 1.0001,1.0001 0 0 0 0.039062,0.25391 C 1.421838,311.24364 1,311.89294 1,312.64999 c 0,1.108 0.892,2 2,2 1.108,0 2,-0.892 2,-2 0,-0.75611 -0.421161,-1.40403 -1.037109,-1.74414 A 1.0001,1.0001 0 0 0 4,310.64999 v -1 -2.2793 l 5.316406,-1.77148 A 1.0001,1.0001 0 0 0 10,304.64999 v -2 c 0.553998,0 1,-0.446 1,-1 v -2 c 0,-0.554 -0.446002,-1 -1,-1 H 8 c -0.553998,0 -1,0.446 -1,1 v 2 c 0,0.554 0.446002,1 1,1 v 1.2793 l -4,1.33203 v -6.61133 h 1 c 0.798589,-1.7e-4 1.274876,-0.89014 0.832031,-1.55469 l -2,-3 c -0.188895,-0.28343 -0.509053,-0.45124 -0.849609,-0.44531 z"
           id="rect898"
           inkscape:connector-curvature="0" />
      </g>
    </g>
  </g>
</svg>
