<?xml version="1.0" encoding="UTF-8" standalone="no"?>
<!-- Created with Inkscape (http://www.inkscape.org/) -->

<svg
   xmlns:dc="http://purl.org/dc/elements/1.1/"
   xmlns:cc="http://creativecommons.org/ns#"
   xmlns:rdf="http://www.w3.org/1999/02/22-rdf-syntax-ns#"
   xmlns:svg="http://www.w3.org/2000/svg"
   xmlns="http://www.w3.org/2000/svg"
   xmlns:sodipodi="http://sodipodi.sourceforge.net/DTD/sodipodi-0.dtd"
   xmlns:inkscape="http://www.inkscape.org/namespaces/inkscape"
   width="32"
   height="32"
   viewBox="0 0 8.4666665 8.4666669"
   version="1.1"
   id="svg8"
   inkscape:version="0.92.3 (2405546, 2018-03-11)"
   sodipodi:docname="kaddressbook.svg">
  <defs
     id="defs2" />
  <sodipodi:namedview
     id="base"
     pagecolor="#ffffff"
     bordercolor="#666666"
     borderopacity="1.0"
     inkscape:pageopacity="0.0"
     inkscape:pageshadow="2"
     inkscape:zoom="11.2"
     inkscape:cx="1.6814447"
     inkscape:cy="13.283898"
     inkscape:document-units="px"
     inkscape:current-layer="layer1"
     showgrid="true"
     units="px"
     inkscape:showpageshadow="false"
     inkscape:snap-bbox="true"
     inkscape:bbox-paths="true"
     inkscape:bbox-nodes="true"
     inkscape:snap-bbox-edge-midpoints="true"
     inkscape:snap-bbox-midpoints="true"
     inkscape:object-paths="true"
     inkscape:snap-intersection-paths="true"
     inkscape:window-width="1874"
     inkscape:window-height="1141"
     inkscape:window-x="46"
     inkscape:window-y="30"
     inkscape:window-maximized="1">
    <inkscape:grid
       type="xygrid"
       id="grid815" />
  </sodipodi:namedview>
  <metadata
     id="metadata5">
    <rdf:RDF>
      <cc:Work
         rdf:about="">
        <dc:format>image/svg+xml</dc:format>
        <dc:type
           rdf:resource="http://purl.org/dc/dcmitype/StillImage" />
        <dc:title></dc:title>
      </cc:Work>
    </rdf:RDF>
  </metadata>
  <g
     inkscape:label="Capa 1"
     inkscape:groupmode="layer"
     id="layer1"
     transform="translate(0,-288.53333)">
    <g
       id="g1658"
       transform="translate(5.2916667,3.3499999e-6)">
      <path
         id="rect868-2"
         d="M 1.8520833,290.91458 H 2.38125 c 0.1465791,0 0.2645833,0.118 0.2645833,0.26458 v 1.32292 c 0,0.14658 -0.1180042,0.26458 -0.2645833,0.26458 H 1.8520833 c -0.1465792,0 -0.2645833,-0.118 -0.2645833,-0.26458 v -1.32292 c 0,-0.14658 0.1180041,-0.26458 0.2645833,-0.26458 z"
         style="opacity:0.98000004;fill:#287bc2;fill-opacity:1;stroke:none;stroke-width:0.5291667;stroke-linecap:round;stroke-linejoin:round;stroke-miterlimit:4;stroke-dasharray:none;stroke-dashoffset:0;stroke-opacity:1"
         inkscape:connector-curvature="0" />
      <path
         style="opacity:0.98000004;fill:#d72f4a;fill-opacity:1;stroke:none;stroke-width:0.5291667;stroke-linecap:round;stroke-linejoin:round;stroke-miterlimit:4;stroke-dasharray:none;stroke-dashoffset:0;stroke-opacity:1"
         d="M 1.8520833,289.06249 H 2.38125 c 0.1465791,0 0.2645833,0.11801 0.2645833,0.26459 v 1.32291 c 0,0.14658 -0.1180042,0.26459 -0.2645833,0.26459 H 1.8520833 c -0.1465792,0 -0.2645833,-0.11801 -0.2645833,-0.26459 v -1.32291 c 0,-0.14658 0.1180041,-0.26459 0.2645833,-0.26459 z"
         id="rect868"
         inkscape:connector-curvature="0" />
      <path
         style="opacity:0.98000004;fill:#ff778a;fill-opacity:1;stroke:none;stroke-width:0.5291667;stroke-linecap:round;stroke-linejoin:round;stroke-miterlimit:4;stroke-dasharray:none;stroke-dashoffset:0;stroke-opacity:1"
         d="M 1.8520833,289.32708 H 2.38125 v 1.32291 H 1.8520833 Z"
         id="rect870"
         inkscape:connector-curvature="0" />
      <path
         style="opacity:0.98000004;fill:#78c1ff;fill-opacity:1;stroke:none;stroke-width:0.5291667;stroke-linecap:round;stroke-linejoin:round;stroke-miterlimit:4;stroke-dasharray:none;stroke-dashoffset:0;stroke-opacity:1"
         d="M 1.8520833,291.17916 H 2.38125 v 1.32292 H 1.8520833 Z"
         id="rect870-9"
         inkscape:connector-curvature="0" />
      <path
         style="opacity:0.98000004;fill:#60963f;fill-opacity:1;stroke:none;stroke-width:0.5291667;stroke-linecap:round;stroke-linejoin:round;stroke-miterlimit:4;stroke-dasharray:none;stroke-dashoffset:0;stroke-opacity:1"
         d="M 1.8520833,292.76666 H 2.38125 c 0.1465791,0 0.2645833,0.118 0.2645833,0.26458 v 1.32292 c 0,0.14658 -0.1180042,0.26458 -0.2645833,0.26458 H 1.8520833 c -0.1465792,0 -0.2645833,-0.118 -0.2645833,-0.26458 v -1.32292 c 0,-0.14658 0.1180041,-0.26458 0.2645833,-0.26458 z"
         id="rect868-2-1"
         inkscape:connector-curvature="0" />
      <path
         style="opacity:0.98000004;fill:#a0d580;fill-opacity:1;stroke:none;stroke-width:0.5291667;stroke-linecap:round;stroke-linejoin:round;stroke-miterlimit:4;stroke-dasharray:none;stroke-dashoffset:0;stroke-opacity:1"
         d="M 1.8520833,293.03124 H 2.38125 v 1.32292 H 1.8520833 Z"
         id="rect870-9-2"
         inkscape:connector-curvature="0" />
      <path
         style="opacity:0.98000004;fill:#f37d5c;fill-opacity:1;stroke:none;stroke-width:0.5291667;stroke-linecap:round;stroke-linejoin:round;stroke-miterlimit:4;stroke-dasharray:none;stroke-dashoffset:0;stroke-opacity:1"
         d="M 1.8520833,294.61874 H 2.38125 c 0.1465791,0 0.2645833,0.11801 0.2645833,0.26459 v 1.32291 c 0,0.14658 -0.1180042,0.26459 -0.2645833,0.26459 H 1.8520833 c -0.1465792,0 -0.2645833,-0.11801 -0.2645833,-0.26459 v -1.32291 c 0,-0.14658 0.1180041,-0.26459 0.2645833,-0.26459 z"
         id="rect868-2-7"
         inkscape:connector-curvature="0" />
      <path
         id="rect843"
         d="m -4.4979167,288.79791 h 5.8208333 c 0.2931584,0 0.5291667,0.23601 0.5291667,0.52917 v 6.87916 c 0,0.29316 -0.2360083,0.52917 -0.5291667,0.52917 h -5.8208333 c -0.2931583,0 -0.5291667,-0.23601 -0.5291667,-0.52917 v -6.87916 c 0,-0.29316 0.2360084,-0.52917 0.5291667,-0.52917 z"
         style="opacity:1;fill:#a16a4a;fill-opacity:1;stroke:none;stroke-width:0.63318539;stroke-linecap:round;stroke-linejoin:round;stroke-miterlimit:4;stroke-dasharray:none;stroke-opacity:1"
         inkscape:connector-curvature="0"
         sodipodi:nodetypes="sssssssss" />
      <path
         id="rect843-3"
         d="m -3.9687501,289.06249 v 7.40834 h 5.2916667 c 0.1465789,0 0.2645834,-0.11801 0.2645834,-0.26459 v -6.87916 c 0,-0.14658 -0.1180045,-0.26459 -0.2645834,-0.26459 z"
         style="opacity:1;fill:#ffc49c;fill-opacity:1;stroke:none;stroke-width:0.59097302;stroke-linecap:round;stroke-linejoin:round;stroke-miterlimit:4;stroke-dasharray:none;stroke-opacity:1"
         inkscape:connector-curvature="0" />
      <path
         style="opacity:0.98000004;fill:#ffb8a3;fill-opacity:1;stroke:none;stroke-width:0.5291667;stroke-linecap:round;stroke-linejoin:round;stroke-miterlimit:4;stroke-dasharray:none;stroke-dashoffset:0;stroke-opacity:1"
         d="M 1.8520833,294.88333 H 2.38125 v 1.32291 H 1.8520833 Z"
         id="rect870-9-0"
         inkscape:connector-curvature="0" />
      <path
         style="opacity:0.98000004;fill:#a16a4a;fill-opacity:1;stroke:none;stroke-width:0.5291667;stroke-linecap:round;stroke-linejoin:round;stroke-miterlimit:4;stroke-dasharray:none;stroke-dashoffset:0;stroke-opacity:1"
         d="m -1.3229167,291.17912 c -0.4397375,0 -0.79375,0.35401 -0.79375,0.79375 0,0.43974 0.3540125,0.79375 0.79375,0.79375 0.43973755,0 0.79375005,-0.35401 0.79375005,-0.79375 0,-0.43974 -0.3540125,-0.79375 -0.79375005,-0.79375 z m 0,1.85208 c -0.7306268,0 -1.3229167,0.59229 -1.3229167,1.32292 0.8509934,0.33014 1.72874945,0.37482 2.645833446875003,0 C 4.6875003e-8,293.62349 -0.59228985,293.0312 -1.3229167,293.0312 Z"
         id="rect966-6"
         inkscape:connector-curvature="0" />
    </g>
  </g>
</svg>
