<?xml version="1.0" encoding="UTF-8" standalone="no"?>
<!-- Created with Inkscape (http://www.inkscape.org/) -->

<svg
   xmlns:dc="http://purl.org/dc/elements/1.1/"
   xmlns:cc="http://creativecommons.org/ns#"
   xmlns:rdf="http://www.w3.org/1999/02/22-rdf-syntax-ns#"
   xmlns:svg="http://www.w3.org/2000/svg"
   xmlns="http://www.w3.org/2000/svg"
   xmlns:sodipodi="http://sodipodi.sourceforge.net/DTD/sodipodi-0.dtd"
   xmlns:inkscape="http://www.inkscape.org/namespaces/inkscape"
   width="32"
   height="32"
   viewBox="0 0 32 32"
   version="1.1"
   id="svg8"
   inkscape:version="0.92.3 (2405546, 2018-03-11)"
   sodipodi:docname="klipper.svg">
  <title
     id="title7895">Antu icon Theme</title>
  <defs
     id="defs2">
    <style
       type="text/css"
       id="current-color-scheme">
      .ColorScheme-Text {
        color:#122036;
      }
      </style>
    <style
       id="current-color-scheme-5"
       type="text/css">
      .ColorScheme-Text {
        color:#122036;
      }
      </style>
    <style
       id="current-color-scheme-2"
       type="text/css">
      .ColorScheme-Text {
        color:#122036;
      }
      </style>
    <style
       id="current-color-scheme-1"
       type="text/css">
      .ColorScheme-Text {
        color:#122036;
      }
      </style>
    <style
       type="text/css"
       id="current-color-scheme-10">
      .ColorScheme-Text {
        color:#122036;
      }
      </style>
    <style
       id="current-color-scheme-0"
       type="text/css">
      .ColorScheme-Text {
        color:#122036;
      }
      </style>
    <style
       id="current-color-scheme-26"
       type="text/css">
      .ColorScheme-Text {
        color:#122036;
      }
      </style>
  </defs>
  <sodipodi:namedview
     id="base"
     pagecolor="#ffffff"
     bordercolor="#666666"
     borderopacity="1.0"
     inkscape:pageopacity="0.0"
     inkscape:pageshadow="2"
     inkscape:zoom="22.4"
     inkscape:cx="16.205059"
     inkscape:cy="19.430357"
     inkscape:document-units="px"
     inkscape:current-layer="g1118"
     showgrid="true"
     units="px"
     inkscape:window-width="1874"
     inkscape:window-height="1141"
     inkscape:window-x="46"
     inkscape:window-y="30"
     inkscape:window-maximized="1"
     objecttolerance="10"
     gridtolerance="10"
     guidetolerance="10">
    <inkscape:grid
       type="xygrid"
       id="grid7897"
       empspacing="4" />
  </sodipodi:namedview>
  <metadata
     id="metadata5">
    <rdf:RDF>
      <cc:Work
         rdf:about="">
        <dc:format>image/svg+xml</dc:format>
        <dc:type
           rdf:resource="http://purl.org/dc/dcmitype/StillImage" />
        <dc:title>Antu icon Theme</dc:title>
      </cc:Work>
    </rdf:RDF>
  </metadata>
  <g
     inkscape:label="Capa 1"
     inkscape:groupmode="layer"
     id="layer1"
     transform="translate(0,-282.64999)">
    <g
       transform="translate(5e-7,-10e-6)"
       id="g1118">
      <path
         sodipodi:nodetypes="csssssssc"
         id="rect827"
         d="M 5.0000001,285.64998 H 26.999999 c 1.108,0 2,0.89202 2,2.00001 v 24.00004 c 0,1.10797 -0.892,1.99998 -2,1.99998 H 5.0000001 C 3.892,313.65001 3,312.758 3,311.65003 V 287.65 c 0,-1.108 0.892,-2.00001 2.0000001,-2.00002 z"
         style="opacity:1;fill:#a36c4c;fill-opacity:1;stroke:none;stroke-width:1.99999988;stroke-linecap:round;stroke-linejoin:round;stroke-miterlimit:4;stroke-dasharray:none;stroke-opacity:1"
         inkscape:connector-curvature="0" />
      <path
         sodipodi:nodetypes="sssssssss"
         id="rect829"
         d="m 5,286.65 h 21.999999 c 0.554,0 1,0.44599 1,1 v 24.00003 c 0,0.55401 -0.446,1 -1,1 H 5 c -0.554,0 -1,-0.44599 -1,-1 V 287.65 c 0,-0.554 0.446,-1 1,-1 z"
         style="opacity:1;fill:#ffc49c;fill-opacity:1;stroke:none;stroke-width:1.99999988;stroke-linecap:round;stroke-linejoin:round;stroke-miterlimit:4;stroke-dasharray:none;stroke-opacity:1"
         inkscape:connector-curvature="0" />
      <path
         inkscape:connector-curvature="0"
         id="rect842"
         d="M 6,288.64999 H 26 V 310.65 H 6 Z"
         style="opacity:1;fill:#a3b7cc;fill-opacity:1;stroke:none;stroke-width:1.10000002;stroke-linecap:round;stroke-linejoin:round;stroke-miterlimit:4;stroke-dasharray:none;stroke-dashoffset:0;stroke-opacity:0.98897059;paint-order:stroke markers fill" />
      <path
         inkscape:connector-curvature="0"
         id="rect846"
         d="M 7,289.64999 H 25 V 309.65 H 7 Z"
         style="opacity:1;fill:#f6ffff;fill-opacity:1;stroke:none;stroke-width:1.10000002;stroke-linecap:round;stroke-linejoin:round;stroke-miterlimit:4;stroke-dasharray:none;stroke-dashoffset:0;stroke-opacity:0.98897059;paint-order:stroke markers fill" />
      <path
         inkscape:connector-curvature="0"
         id="rect848"
         transform="translate(0,282.64999)"
         d="m 10,1 v 4 c 0,1.6619989 1.338001,3 3,3 h 6 c 1.661999,0 3,-1.3380011 3,-3 V 1 Z"
         style="opacity:1;fill:#a3b7cc;fill-opacity:1;stroke:none;stroke-width:1.10000002;stroke-linecap:round;stroke-linejoin:round;stroke-miterlimit:4;stroke-dasharray:none;stroke-dashoffset:0;stroke-opacity:0.98897059;paint-order:stroke markers fill" />
      <path
         inkscape:connector-curvature="0"
         id="rect855"
         transform="translate(0,282.64999)"
         d="m 11,2 v 3 c 0,1.108 0.892,2 2,2 h 6 c 1.108,0 2,-0.892 2,-2 V 2 Z m 5,1 c 0.553999,0 1,0.4460011 1,1 0,0.5539989 -0.446001,1 -1,1 -0.553999,0 -1,-0.4460011 -1,-1 0,-0.5539989 0.446001,-1 1,-1 z"
         style="opacity:1;fill:#f6ffff;fill-opacity:1;stroke:none;stroke-width:1.10000002;stroke-linecap:round;stroke-linejoin:round;stroke-miterlimit:4;stroke-dasharray:none;stroke-dashoffset:0;stroke-opacity:0.98897059;paint-order:stroke markers fill" />
      <path
         inkscape:connector-curvature="0"
         id="rect861"
         d="m 10.5,293.64999 c 0.831,0 1.5,0.669 1.5,1.50001 0,0.831 -0.669,1.5 -1.5,1.5 -0.831,0 -1.5,-0.669 -1.5,-1.5 0,-0.83101 0.669,-1.50001 1.5,-1.50001 z"
         style="opacity:1;fill:#a3b7cc;fill-opacity:1;stroke:none;stroke-width:1.10000002;stroke-linecap:round;stroke-linejoin:round;stroke-miterlimit:4;stroke-dasharray:none;stroke-dashoffset:0;stroke-opacity:0.98897059;paint-order:stroke markers fill" />
      <path
         inkscape:connector-curvature="0"
         id="rect863"
         d="m 14,294.64999 h 9 v 2 h -9 z"
         style="opacity:1;fill:#a3b7cc;fill-opacity:1;stroke:none;stroke-width:1.10000002;stroke-linecap:round;stroke-linejoin:round;stroke-miterlimit:4;stroke-dasharray:none;stroke-dashoffset:0;stroke-opacity:0.98897059;paint-order:stroke markers fill" />
      <path
         inkscape:connector-curvature="0"
         id="rect863-6"
         d="m 14,299.64999 h 9 v 2 h -9 z"
         style="opacity:1;fill:#a3b7cc;fill-opacity:1;stroke:none;stroke-width:1.10000002;stroke-linecap:round;stroke-linejoin:round;stroke-miterlimit:4;stroke-dasharray:none;stroke-dashoffset:0;stroke-opacity:0.98897059;paint-order:stroke markers fill" />
      <path
         inkscape:connector-curvature="0"
         id="rect863-5"
         d="m 14,304.64999 h 9 v 2 h -9 z"
         style="opacity:1;fill:#a3b7cc;fill-opacity:1;stroke:none;stroke-width:1.10000002;stroke-linecap:round;stroke-linejoin:round;stroke-miterlimit:4;stroke-dasharray:none;stroke-dashoffset:0;stroke-opacity:0.98897059;paint-order:stroke markers fill" />
      <path
         inkscape:connector-curvature="0"
         id="rect861-3"
         d="m 10.5,298.64999 c 0.831,0 1.5,0.669 1.5,1.50001 0,0.831 -0.669,1.5 -1.5,1.5 -0.831,0 -1.5,-0.669 -1.5,-1.5 0,-0.83101 0.669,-1.50001 1.5,-1.50001 z"
         style="opacity:1;fill:#a3b7cc;fill-opacity:1;stroke:none;stroke-width:1.10000002;stroke-linecap:round;stroke-linejoin:round;stroke-miterlimit:4;stroke-dasharray:none;stroke-dashoffset:0;stroke-opacity:0.98897059;paint-order:stroke markers fill" />
      <path
         inkscape:connector-curvature="0"
         id="rect861-5"
         d="m 10.5,303.64999 c 0.831,0 1.5,0.669 1.5,1.50001 0,0.831 -0.669,1.5 -1.5,1.5 -0.831,0 -1.5,-0.669 -1.5,-1.5 0,-0.83101 0.669,-1.50001 1.5,-1.50001 z"
         style="opacity:1;fill:#a3b7cc;fill-opacity:1;stroke:none;stroke-width:1.10000002;stroke-linecap:round;stroke-linejoin:round;stroke-miterlimit:4;stroke-dasharray:none;stroke-dashoffset:0;stroke-opacity:0.98897059;paint-order:stroke markers fill" />
    </g>
  </g>
</svg>
