<?xml version="1.0" encoding="UTF-8" standalone="no"?>
<!-- Created with Inkscape (http://www.inkscape.org/) -->

<svg
   width="32"
   height="32"
   viewBox="0 0 32 32"
   version="1.1"
   id="svg8"
   inkscape:version="1.2 (dc2aedaf03, 2022-05-15)"
   sodipodi:docname="mail.svg"
   xml:space="preserve"
   xmlns:inkscape="http://www.inkscape.org/namespaces/inkscape"
   xmlns:sodipodi="http://sodipodi.sourceforge.net/DTD/sodipodi-0.dtd"
   xmlns="http://www.w3.org/2000/svg"
   xmlns:svg="http://www.w3.org/2000/svg"
   xmlns:rdf="http://www.w3.org/1999/02/22-rdf-syntax-ns#"
   xmlns:cc="http://creativecommons.org/ns#"
   xmlns:dc="http://purl.org/dc/elements/1.1/"><title
     id="title7895">Antu icon Theme</title><defs
     id="defs2"><style
       id="current-color-scheme"
       type="text/css">
      .ColorScheme-Text {
        color:#122036;
      }
      </style><style
       type="text/css"
       id="current-color-scheme-5">
      .ColorScheme-Text {
        color:#122036;
      }
      </style><style
       type="text/css"
       id="current-color-scheme-2">
      .ColorScheme-Text {
        color:#122036;
      }
      </style><style
       type="text/css"
       id="current-color-scheme-1">
      .ColorScheme-Text {
        color:#122036;
      }
      </style><style
       id="current-color-scheme-10"
       type="text/css">
      .ColorScheme-Text {
        color:#122036;
      }
      </style><style
       id="current-color-scheme-20"
       type="text/css">
      .ColorScheme-Text {
        color:#122036;
      }
      </style><style
       type="text/css"
       id="current-color-scheme-1-2">
      .ColorScheme-Text {
        color:#122036;
      }
      </style><style
       type="text/css"
       id="current-color-scheme-9">
      .ColorScheme-Text {
        color:#122036;
      }
      </style><style
       id="current-color-scheme-53"
       type="text/css">
      .ColorScheme-Text {
        color:#122036;
      }
      </style><style
       type="text/css"
       id="current-color-scheme-5-3">
      .ColorScheme-Text {
        color:#122036;
      }
      </style><style
       type="text/css"
       id="current-color-scheme-2-7">
      .ColorScheme-Text {
        color:#122036;
      }
      </style><style
       type="text/css"
       id="current-color-scheme-1-1">
      .ColorScheme-Text {
        color:#122036;
      }
      </style><style
       id="current-color-scheme-10-5"
       type="text/css">
      .ColorScheme-Text {
        color:#122036;
      }
      </style><style
       id="current-color-scheme-535"
       type="text/css">
      .ColorScheme-Text {
        color:#122036;
      }
      </style><style
       id="current-color-scheme-0"
       type="text/css">
      .ColorScheme-Text {
        color:#122036;
      }
      </style></defs><sodipodi:namedview
     id="base"
     pagecolor="#ffffff"
     bordercolor="#666666"
     borderopacity="1.0"
     inkscape:pageopacity="0.0"
     inkscape:pageshadow="2"
     inkscape:zoom="15.839192"
     inkscape:cx="31.504132"
     inkscape:cy="21.749847"
     inkscape:document-units="px"
     inkscape:current-layer="g1558"
     showgrid="true"
     units="px"
     inkscape:window-width="2160"
     inkscape:window-height="1335"
     inkscape:window-x="0"
     inkscape:window-y="0"
     inkscape:window-maximized="1"
     objecttolerance="10"
     gridtolerance="10"
     guidetolerance="10"
     inkscape:showpageshadow="2"
     inkscape:pagecheckerboard="0"
     inkscape:deskcolor="#d1d1d1"><inkscape:grid
       type="xygrid"
       id="grid7897"
       empspacing="4" /></sodipodi:namedview><metadata
     id="metadata5"><rdf:RDF><cc:Work
         rdf:about=""><dc:format>image/svg+xml</dc:format><dc:type
           rdf:resource="http://purl.org/dc/dcmitype/StillImage" /><dc:title>Antu icon Theme</dc:title></cc:Work></rdf:RDF></metadata><g
     inkscape:label="Capa 1"
     inkscape:groupmode="layer"
     id="layer1"
     transform="translate(0,-282.64999)"><g
       id="g872"
       transform="translate(-24,-32)"><path
         id="path5683"
         style="fill:#cdcdcd;fill-opacity:1;stroke:#b1c1d4;stroke-width:2;stroke-linecap:round;stroke-linejoin:round;stroke-miterlimit:1.8;stroke-opacity:1;paint-order:fill markers stroke;stop-color:#000000"
         d="M 31.091797,317.64999 H 29 c -0.553997,0 -1,0.446 -1,1 v 1.0918 c 0.02756,0.01 0.0572,0.0141 0.08398,0.0254 0.08979,0.0378 0.176084,0.0849 0.25586,0.13867 0.07978,0.0538 0.154875,0.11386 0.222656,0.18164 0.06778,0.0678 0.127834,0.14288 0.181641,0.22266 0.05381,0.0798 0.10082,0.16607 0.138671,0.25586 0.03785,0.0898 0.06602,0.18342 0.08594,0.28125 0.01992,0.0978 0.03125,0.19886 0.03125,0.30273 0,0.10387 -0.01133,0.20491 -0.03125,0.30273 -0.01992,0.0978 -0.04809,0.19147 -0.08594,0.28125 -0.03785,0.0898 -0.08487,0.17609 -0.138671,0.25586 -0.05381,0.0798 -0.11386,0.15488 -0.181641,0.22266 -0.06778,0.0678 -0.142881,0.12783 -0.222656,0.18164 -0.07978,0.0538 -0.166071,0.10082 -0.25586,0.13867 -0.02679,0.0113 -0.05642,0.0156 -0.08398,0.0254 v 2.1836 c 0.02756,0.01 0.0572,0.0141 0.08398,0.0254 0.08979,0.0378 0.176084,0.0849 0.25586,0.13867 0.07978,0.0538 0.154875,0.11386 0.222656,0.18164 0.06778,0.0678 0.127834,0.14288 0.181641,0.22266 0.05381,0.0798 0.10082,0.16607 0.138671,0.25586 0.03785,0.0898 0.06602,0.18342 0.08594,0.28125 0.01992,0.0978 0.03125,0.19886 0.03125,0.30273 0,0.10387 -0.01133,0.20491 -0.03125,0.30273 -0.01992,0.0978 -0.04809,0.19147 -0.08594,0.28125 -0.03785,0.0898 -0.08487,0.17609 -0.138671,0.25586 -0.05381,0.0798 -0.11386,0.15488 -0.181641,0.22266 -0.06778,0.0678 -0.142881,0.12783 -0.222656,0.18164 -0.07978,0.0538 -0.166071,0.10082 -0.25586,0.13867 -0.02679,0.0113 -0.05642,0.0156 -0.08398,0.0254 v 2.1836 c 0.02756,0.01 0.0572,0.0141 0.08398,0.0254 0.08979,0.0378 0.176084,0.0849 0.25586,0.13867 0.07978,0.0538 0.154875,0.11386 0.222656,0.18164 0.06778,0.0678 0.127834,0.14288 0.181641,0.22266 0.05381,0.0798 0.10082,0.16607 0.138671,0.25586 0.03785,0.0898 0.06602,0.18342 0.08594,0.28125 0.01992,0.0978 0.03125,0.19886 0.03125,0.30273 0,0.10387 -0.01133,0.20491 -0.03125,0.30273 -0.01992,0.0978 -0.04809,0.19147 -0.08594,0.28125 -0.03785,0.0898 -0.08487,0.17609 -0.138671,0.25586 -0.05381,0.0798 -0.11386,0.15488 -0.181641,0.22266 -0.06778,0.0678 -0.142881,0.12783 -0.222656,0.18164 -0.07978,0.0538 -0.166071,0.10082 -0.25586,0.13867 -0.02679,0.0113 -0.05642,0.0156 -0.08398,0.0254 v 2.1836 c 0.02756,0.01 0.0572,0.0141 0.08398,0.0254 0.08979,0.0378 0.176084,0.0849 0.25586,0.13867 0.07978,0.0538 0.154875,0.11386 0.222656,0.18164 0.06778,0.0678 0.127834,0.14288 0.181641,0.22266 0.05381,0.0798 0.10082,0.16607 0.138671,0.25586 0.03785,0.0898 0.06602,0.18342 0.08594,0.28125 0.01992,0.0978 0.03125,0.19886 0.03125,0.30273 0,0.10387 -0.01133,0.20491 -0.03125,0.30273 -0.01992,0.0978 -0.04809,0.19147 -0.08594,0.28125 -0.03785,0.0898 -0.08487,0.17609 -0.138671,0.25586 -0.05381,0.0798 -0.11386,0.15488 -0.181641,0.22266 -0.06778,0.0678 -0.142881,0.12783 -0.222656,0.18164 -0.07978,0.0538 -0.166071,0.10082 -0.25586,0.13867 -0.02679,0.0113 -0.05642,0.0156 -0.08398,0.0254 v 2.1836 c 0.02756,0.01 0.0572,0.0141 0.08398,0.0254 0.08979,0.0378 0.176084,0.0849 0.25586,0.13867 0.07978,0.0538 0.154875,0.11386 0.222656,0.18164 0.06778,0.0678 0.127834,0.14288 0.181641,0.22266 0.05381,0.0798 0.10082,0.16607 0.138671,0.25586 0.03785,0.0898 0.06602,0.18342 0.08594,0.28125 0.01992,0.0978 0.03125,0.19886 0.03125,0.30273 0,0.10387 -0.01133,0.20491 -0.03125,0.30273 -0.01992,0.0978 -0.04809,0.19147 -0.08594,0.28125 -0.03785,0.0898 -0.08487,0.17609 -0.138671,0.25586 -0.05381,0.0798 -0.11386,0.15488 -0.181641,0.22266 -0.06778,0.0678 -0.142881,0.12783 -0.222656,0.18164 -0.07978,0.0538 -0.166071,0.10082 -0.25586,0.13867 -0.02679,0.0113 -0.05642,0.0156 -0.08398,0.0254 v 1.0918 c 0,0.554 0.446003,1 1,1 h 2.091797 c 0.0098,-0.0276 0.0141,-0.0572 0.02539,-0.084 0.03785,-0.0898 0.08487,-0.17609 0.138671,-0.25586 0.05381,-0.0798 0.11386,-0.15488 0.181641,-0.22266 0.06778,-0.0678 0.142881,-0.12783 0.222656,-0.18164 0.07978,-0.0538 0.166071,-0.10082 0.25586,-0.13867 0.08979,-0.0378 0.183428,-0.066 0.28125,-0.0859 0.09782,-0.0199 0.198859,-0.0312 0.302734,-0.0312 0.103875,0 0.204912,0.0113 0.302734,0.0312 0.09782,0.0199 0.191461,0.0481 0.28125,0.0859 0.08979,0.0378 0.176084,0.0849 0.25586,0.13867 0.07977,0.0538 0.154875,0.11386 0.222656,0.18164 0.06778,0.0678 0.127834,0.14288 0.181641,0.22266 0.05381,0.0798 0.10082,0.16607 0.138671,0.25586 0.01129,0.0268 0.01563,0.0564 0.02539,0.084 h 2.183594 c 0.0098,-0.0276 0.0141,-0.0572 0.02539,-0.084 0.03785,-0.0898 0.08487,-0.17609 0.138671,-0.25586 0.05381,-0.0798 0.11386,-0.15488 0.181641,-0.22266 0.06778,-0.0678 0.142881,-0.12783 0.222656,-0.18164 0.07978,-0.0538 0.166071,-0.10082 0.25586,-0.13867 0.08979,-0.0378 0.183428,-0.066 0.28125,-0.0859 0.09782,-0.0199 0.198859,-0.0312 0.302734,-0.0312 0.103875,0 0.204912,0.0113 0.302734,0.0312 0.09782,0.0199 0.191461,0.0481 0.28125,0.0859 0.08979,0.0378 0.176084,0.0849 0.25586,0.13867 0.07977,0.0538 0.154875,0.11386 0.222656,0.18164 0.06778,0.0678 0.127834,0.14288 0.181641,0.22266 0.05381,0.0798 0.10082,0.16607 0.138671,0.25586 0.01129,0.0268 0.01563,0.0564 0.02539,0.084 h 2.183594 c 0.0098,-0.0276 0.0141,-0.0572 0.02539,-0.084 0.03785,-0.0898 0.08487,-0.17609 0.138671,-0.25586 0.05381,-0.0798 0.11386,-0.15488 0.181641,-0.22266 0.06778,-0.0678 0.142881,-0.12783 0.222656,-0.18164 0.07978,-0.0538 0.166071,-0.10082 0.25586,-0.13867 0.08979,-0.0378 0.183428,-0.066 0.28125,-0.0859 0.09782,-0.0199 0.198859,-0.0312 0.302734,-0.0312 0.103875,0 0.204912,0.0113 0.302734,0.0312 0.09782,0.0199 0.191461,0.0481 0.28125,0.0859 0.08979,0.0378 0.176084,0.0849 0.25586,0.13867 0.07977,0.0538 0.154875,0.11386 0.222656,0.18164 0.06778,0.0678 0.127834,0.14288 0.181641,0.22266 0.05381,0.0798 0.10082,0.16607 0.138671,0.25586 0.01129,0.0268 0.01563,0.0564 0.02539,0.084 h 2.183594 c 0.0098,-0.0276 0.0141,-0.0572 0.02539,-0.084 0.03785,-0.0898 0.08487,-0.17609 0.138671,-0.25586 0.05381,-0.0798 0.11386,-0.15488 0.181641,-0.22266 0.06778,-0.0678 0.142881,-0.12783 0.222656,-0.18164 0.07978,-0.0538 0.166071,-0.10082 0.25586,-0.13867 0.08979,-0.0378 0.183428,-0.066 0.28125,-0.0859 0.09782,-0.0199 0.198859,-0.0312 0.302734,-0.0312 0.103875,0 0.204912,0.0113 0.302734,0.0312 0.09782,0.0199 0.191461,0.0481 0.28125,0.0859 0.08979,0.0378 0.176084,0.0849 0.25586,0.13867 0.07977,0.0538 0.154875,0.11386 0.222656,0.18164 0.06778,0.0678 0.127834,0.14288 0.181641,0.22266 0.05381,0.0798 0.10082,0.16607 0.138671,0.25586 0.01129,0.0268 0.01563,0.0564 0.02539,0.084 H 51 c 0.553997,0 1,-0.446 1,-1 v -1.0918 c -0.02757,-0.01 -0.0572,-0.0141 -0.08398,-0.0254 -0.08979,-0.0378 -0.176084,-0.0849 -0.25586,-0.13867 -0.07977,-0.0538 -0.154875,-0.11386 -0.222656,-0.18164 -0.06778,-0.0678 -0.127834,-0.14288 -0.181641,-0.22266 -0.05381,-0.0798 -0.10082,-0.16607 -0.138671,-0.25586 -0.03785,-0.0898 -0.06602,-0.18342 -0.08594,-0.28125 C 51.011334,341.3549 51,341.25386 51,341.14999 c 0,-0.10387 0.01133,-0.20491 0.03125,-0.30273 0.01992,-0.0978 0.04809,-0.19147 0.08594,-0.28125 0.03785,-0.0898 0.08487,-0.17609 0.138671,-0.25586 0.05381,-0.0798 0.11386,-0.15488 0.181641,-0.22266 0.06778,-0.0678 0.142881,-0.12783 0.222656,-0.18164 0.07978,-0.0538 0.166071,-0.10082 0.25586,-0.13867 0.02679,-0.0113 0.05642,-0.0156 0.08398,-0.0254 v -2.1836 c -0.02757,-0.01 -0.0572,-0.0141 -0.08398,-0.0254 -0.08979,-0.0378 -0.176084,-0.0849 -0.25586,-0.13867 -0.07977,-0.0538 -0.154875,-0.11386 -0.222656,-0.18164 -0.06778,-0.0678 -0.127834,-0.14288 -0.181641,-0.22266 -0.05381,-0.0798 -0.10082,-0.16607 -0.138671,-0.25586 -0.03785,-0.0898 -0.06602,-0.18342 -0.08594,-0.28125 C 51.011334,336.3549 51,336.25386 51,336.14999 c 0,-0.10387 0.01133,-0.20491 0.03125,-0.30273 0.01992,-0.0978 0.04809,-0.19147 0.08594,-0.28125 0.03785,-0.0898 0.08487,-0.17609 0.138671,-0.25586 0.05381,-0.0798 0.11386,-0.15488 0.181641,-0.22266 0.06778,-0.0678 0.142881,-0.12783 0.222656,-0.18164 0.07978,-0.0538 0.166071,-0.10082 0.25586,-0.13867 0.02679,-0.0113 0.05642,-0.0156 0.08398,-0.0254 v -2.1836 c -0.02757,-0.01 -0.0572,-0.0141 -0.08398,-0.0254 -0.08979,-0.0378 -0.176084,-0.0849 -0.25586,-0.13867 -0.07977,-0.0538 -0.154875,-0.11386 -0.222656,-0.18164 -0.06778,-0.0678 -0.127834,-0.14288 -0.181641,-0.22266 -0.05381,-0.0798 -0.10082,-0.16607 -0.138671,-0.25586 -0.03785,-0.0898 -0.06602,-0.18342 -0.08594,-0.28125 C 51.011334,331.3549 51,331.25386 51,331.14999 c 0,-0.10387 0.01133,-0.20491 0.03125,-0.30273 0.01992,-0.0978 0.04809,-0.19147 0.08594,-0.28125 0.03785,-0.0898 0.08487,-0.17609 0.138671,-0.25586 0.05381,-0.0798 0.11386,-0.15488 0.181641,-0.22266 0.06778,-0.0678 0.142881,-0.12783 0.222656,-0.18164 0.07978,-0.0538 0.166071,-0.10082 0.25586,-0.13867 0.02679,-0.0113 0.05642,-0.0156 0.08398,-0.0254 v -2.1836 c -0.02757,-0.01 -0.0572,-0.0141 -0.08398,-0.0254 -0.08979,-0.0378 -0.176084,-0.0849 -0.25586,-0.13867 -0.07977,-0.0538 -0.154875,-0.11386 -0.222656,-0.18164 -0.06778,-0.0678 -0.127834,-0.14288 -0.181641,-0.22266 -0.05381,-0.0798 -0.10082,-0.16607 -0.138671,-0.25586 -0.03785,-0.0898 -0.06602,-0.18342 -0.08594,-0.28125 C 51.011334,326.3549 51,326.25386 51,326.14999 c 0,-0.10387 0.01133,-0.20491 0.03125,-0.30273 0.01992,-0.0978 0.04809,-0.19147 0.08594,-0.28125 0.03785,-0.0898 0.08487,-0.17609 0.138671,-0.25586 0.05381,-0.0798 0.11386,-0.15488 0.181641,-0.22266 0.06778,-0.0678 0.142881,-0.12783 0.222656,-0.18164 0.07978,-0.0538 0.166071,-0.10082 0.25586,-0.13867 0.02679,-0.0113 0.05642,-0.0156 0.08398,-0.0254 v -2.1836 c -0.02757,-0.01 -0.0572,-0.0141 -0.08398,-0.0254 -0.08979,-0.0378 -0.176084,-0.0849 -0.25586,-0.13867 -0.07977,-0.0538 -0.154875,-0.11386 -0.222656,-0.18164 -0.06778,-0.0678 -0.127834,-0.14288 -0.181641,-0.22266 -0.05381,-0.0798 -0.10082,-0.16607 -0.138671,-0.25586 -0.03785,-0.0898 -0.06602,-0.18342 -0.08594,-0.28125 C 51.011334,321.3549 51,321.25386 51,321.14999 c 0,-0.10387 0.01133,-0.20491 0.03125,-0.30273 0.01992,-0.0978 0.04809,-0.19147 0.08594,-0.28125 0.03785,-0.0898 0.08487,-0.17609 0.138671,-0.25586 0.05381,-0.0798 0.11386,-0.15488 0.181641,-0.22266 0.06778,-0.0678 0.142881,-0.12783 0.222656,-0.18164 0.07978,-0.0538 0.166071,-0.10082 0.25586,-0.13867 0.02679,-0.0113 0.05642,-0.0156 0.08398,-0.0254 v -1.0918 c 0,-0.554 -0.446003,-1 -1,-1 h -2.091797 c -0.0098,0.0276 -0.0141,0.0572 -0.02539,0.084 -0.03785,0.0898 -0.08487,0.17609 -0.138671,0.25586 -0.05381,0.0798 -0.11386,0.15488 -0.181641,0.22266 -0.06778,0.0678 -0.142881,0.12783 -0.222656,0.18164 -0.07978,0.0538 -0.166071,0.10082 -0.25586,0.13867 -0.08979,0.0378 -0.183428,0.066 -0.28125,0.0859 -0.09782,0.0199 -0.198859,0.0312 -0.302734,0.0312 -0.103875,0 -0.204912,-0.0113 -0.302734,-0.0312 -0.09782,-0.0199 -0.191461,-0.0481 -0.28125,-0.0859 -0.08979,-0.0378 -0.176084,-0.0849 -0.25586,-0.13867 -0.07977,-0.0538 -0.154875,-0.11386 -0.222656,-0.18164 -0.06778,-0.0678 -0.127834,-0.14288 -0.181641,-0.22266 -0.05381,-0.0798 -0.10082,-0.16607 -0.138671,-0.25586 -0.01129,-0.0268 -0.01563,-0.0564 -0.02539,-0.084 h -2.183594 c -0.0098,0.0276 -0.0141,0.0572 -0.02539,0.084 -0.03785,0.0898 -0.08487,0.17609 -0.138671,0.25586 -0.05381,0.0798 -0.11386,0.15488 -0.181641,0.22266 -0.06778,0.0678 -0.142881,0.12783 -0.222656,0.18164 -0.07978,0.0538 -0.166071,0.10082 -0.25586,0.13867 -0.08979,0.0378 -0.183428,0.066 -0.28125,0.0859 -0.09782,0.0199 -0.198859,0.0312 -0.302734,0.0312 -0.103875,0 -0.204912,-0.0113 -0.302734,-0.0312 -0.09782,-0.0199 -0.191461,-0.0481 -0.28125,-0.0859 -0.08979,-0.0378 -0.176084,-0.0849 -0.25586,-0.13867 -0.07977,-0.0538 -0.154875,-0.11386 -0.222656,-0.18164 -0.06778,-0.0678 -0.127834,-0.14288 -0.181641,-0.22266 -0.05381,-0.0798 -0.10082,-0.16607 -0.138671,-0.25586 -0.01129,-0.0268 -0.01563,-0.0564 -0.02539,-0.084 h -2.183594 c -0.0098,0.0276 -0.0141,0.0572 -0.02539,0.084 -0.03785,0.0898 -0.08487,0.17609 -0.138671,0.25586 -0.05381,0.0798 -0.11386,0.15488 -0.181641,0.22266 -0.06778,0.0678 -0.142881,0.12783 -0.222656,0.18164 -0.07978,0.0538 -0.166071,0.10082 -0.25586,0.13867 -0.08979,0.0378 -0.183428,0.066 -0.28125,0.0859 -0.09782,0.0199 -0.198859,0.0312 -0.302734,0.0312 -0.103875,0 -0.204912,-0.0113 -0.302734,-0.0312 -0.09782,-0.0199 -0.191461,-0.0481 -0.28125,-0.0859 -0.08979,-0.0378 -0.176084,-0.0849 -0.25586,-0.13867 -0.07977,-0.0538 -0.154875,-0.11386 -0.222656,-0.18164 -0.06778,-0.0678 -0.127834,-0.14288 -0.181641,-0.22266 -0.05381,-0.0798 -0.10082,-0.16607 -0.138671,-0.25586 -0.01129,-0.0268 -0.01563,-0.0564 -0.02539,-0.084 h -2.183594 c -0.0098,0.0276 -0.0141,0.0572 -0.02539,0.084 -0.03785,0.0898 -0.08487,0.17609 -0.138671,0.25586 -0.05381,0.0798 -0.11386,0.15488 -0.181641,0.22266 -0.06778,0.0678 -0.142881,0.12783 -0.222656,0.18164 -0.07978,0.0538 -0.166071,0.10082 -0.25586,0.13867 -0.08979,0.0378 -0.183428,0.066 -0.28125,0.0859 -0.09782,0.0199 -0.198859,0.0312 -0.302734,0.0312 -0.103875,0 -0.204912,-0.0113 -0.302734,-0.0312 -0.09782,-0.0199 -0.191461,-0.0481 -0.28125,-0.0859 -0.08979,-0.0378 -0.176084,-0.0849 -0.25586,-0.13867 -0.07978,-0.0538 -0.154875,-0.11386 -0.222656,-0.18164 -0.06778,-0.0678 -0.127834,-0.14288 -0.181641,-0.22266 -0.05381,-0.0798 -0.10082,-0.16607 -0.138671,-0.25586 -0.01129,-0.0268 -0.01563,-0.0564 -0.02539,-0.084 z" /><path
         id="path5683-7"
         style="fill:#ecf6ff;fill-opacity:1;stroke:none;stroke-width:2;stroke-linecap:round;stroke-linejoin:round;stroke-miterlimit:1.8;stroke-opacity:1;paint-order:fill markers stroke;stop-color:#000000"
         d="M 31.091797,317.64999 H 29 c -0.553997,0 -1,0.446 -1,1 v 1.0918 c 0.02756,0.01 0.0572,0.0141 0.08398,0.0254 0.08979,0.0378 0.176084,0.0849 0.25586,0.13867 0.07978,0.0538 0.154875,0.11386 0.222656,0.18164 0.06778,0.0678 0.127834,0.14288 0.181641,0.22266 0.05381,0.0798 0.10082,0.16607 0.138671,0.25586 0.03785,0.0898 0.06602,0.18342 0.08594,0.28125 0.01992,0.0978 0.03125,0.19886 0.03125,0.30273 0,0.10387 -0.01133,0.20491 -0.03125,0.30273 -0.01992,0.0978 -0.04809,0.19147 -0.08594,0.28125 -0.03785,0.0898 -0.08487,0.17609 -0.138671,0.25586 -0.05381,0.0798 -0.11386,0.15488 -0.181641,0.22266 -0.06778,0.0678 -0.142881,0.12783 -0.222656,0.18164 -0.07978,0.0538 -0.166071,0.10082 -0.25586,0.13867 -0.02679,0.0113 -0.05642,0.0156 -0.08398,0.0254 v 2.1836 c 0.02756,0.01 0.0572,0.0141 0.08398,0.0254 0.08979,0.0378 0.176084,0.0849 0.25586,0.13867 0.07978,0.0538 0.154875,0.11386 0.222656,0.18164 0.06778,0.0678 0.127834,0.14288 0.181641,0.22266 0.05381,0.0798 0.10082,0.16607 0.138671,0.25586 0.03785,0.0898 0.06602,0.18342 0.08594,0.28125 0.01992,0.0978 0.03125,0.19886 0.03125,0.30273 0,0.10387 -0.01133,0.20491 -0.03125,0.30273 -0.01992,0.0978 -0.04809,0.19147 -0.08594,0.28125 -0.03785,0.0898 -0.08487,0.17609 -0.138671,0.25586 -0.05381,0.0798 -0.11386,0.15488 -0.181641,0.22266 -0.06778,0.0678 -0.142881,0.12783 -0.222656,0.18164 -0.07978,0.0538 -0.166071,0.10082 -0.25586,0.13867 -0.02679,0.0113 -0.05642,0.0156 -0.08398,0.0254 v 2.1836 c 0.02756,0.01 0.0572,0.0141 0.08398,0.0254 0.08979,0.0378 0.176084,0.0849 0.25586,0.13867 0.07978,0.0538 0.154875,0.11386 0.222656,0.18164 0.06778,0.0678 0.127834,0.14288 0.181641,0.22266 0.05381,0.0798 0.10082,0.16607 0.138671,0.25586 0.03785,0.0898 0.06602,0.18342 0.08594,0.28125 0.01992,0.0978 0.03125,0.19886 0.03125,0.30273 0,0.10387 -0.01133,0.20491 -0.03125,0.30273 -0.01992,0.0978 -0.04809,0.19147 -0.08594,0.28125 -0.03785,0.0898 -0.08487,0.17609 -0.138671,0.25586 -0.05381,0.0798 -0.11386,0.15488 -0.181641,0.22266 -0.06778,0.0678 -0.142881,0.12783 -0.222656,0.18164 -0.07978,0.0538 -0.166071,0.10082 -0.25586,0.13867 -0.02679,0.0113 -0.05642,0.0156 -0.08398,0.0254 v 2.1836 c 0.02756,0.01 0.0572,0.0141 0.08398,0.0254 0.08979,0.0378 0.176084,0.0849 0.25586,0.13867 0.07978,0.0538 0.154875,0.11386 0.222656,0.18164 0.06778,0.0678 0.127834,0.14288 0.181641,0.22266 0.05381,0.0798 0.10082,0.16607 0.138671,0.25586 0.03785,0.0898 0.06602,0.18342 0.08594,0.28125 0.01992,0.0978 0.03125,0.19886 0.03125,0.30273 0,0.10387 -0.01133,0.20491 -0.03125,0.30273 -0.01992,0.0978 -0.04809,0.19147 -0.08594,0.28125 -0.03785,0.0898 -0.08487,0.17609 -0.138671,0.25586 -0.05381,0.0798 -0.11386,0.15488 -0.181641,0.22266 -0.06778,0.0678 -0.142881,0.12783 -0.222656,0.18164 -0.07978,0.0538 -0.166071,0.10082 -0.25586,0.13867 -0.02679,0.0113 -0.05642,0.0156 -0.08398,0.0254 v 2.1836 c 0.02756,0.01 0.0572,0.0141 0.08398,0.0254 0.08979,0.0378 0.176084,0.0849 0.25586,0.13867 0.07978,0.0538 0.154875,0.11386 0.222656,0.18164 0.06778,0.0678 0.127834,0.14288 0.181641,0.22266 0.05381,0.0798 0.10082,0.16607 0.138671,0.25586 0.03785,0.0898 0.06602,0.18342 0.08594,0.28125 0.01992,0.0978 0.03125,0.19886 0.03125,0.30273 0,0.10387 -0.01133,0.20491 -0.03125,0.30273 -0.01992,0.0978 -0.04809,0.19147 -0.08594,0.28125 -0.03785,0.0898 -0.08487,0.17609 -0.138671,0.25586 -0.05381,0.0798 -0.11386,0.15488 -0.181641,0.22266 -0.06778,0.0678 -0.142881,0.12783 -0.222656,0.18164 -0.07978,0.0538 -0.166071,0.10082 -0.25586,0.13867 -0.02679,0.0113 -0.05642,0.0156 -0.08398,0.0254 v 1.0918 c 0,0.554 0.446003,1 1,1 h 2.091797 c 0.0098,-0.0276 0.0141,-0.0572 0.02539,-0.084 0.03785,-0.0898 0.08487,-0.17609 0.138671,-0.25586 0.05381,-0.0798 0.11386,-0.15488 0.181641,-0.22266 0.06778,-0.0678 0.142881,-0.12783 0.222656,-0.18164 0.07978,-0.0538 0.166071,-0.10082 0.25586,-0.13867 0.08979,-0.0378 0.183428,-0.066 0.28125,-0.0859 0.09782,-0.0199 0.198859,-0.0312 0.302734,-0.0312 0.103875,0 0.204912,0.0113 0.302734,0.0312 0.09782,0.0199 0.191461,0.0481 0.28125,0.0859 0.08979,0.0378 0.176084,0.0849 0.25586,0.13867 0.07977,0.0538 0.154875,0.11386 0.222656,0.18164 0.06778,0.0678 0.127834,0.14288 0.181641,0.22266 0.05381,0.0798 0.10082,0.16607 0.138671,0.25586 0.01129,0.0268 0.01563,0.0564 0.02539,0.084 h 2.183594 c 0.0098,-0.0276 0.0141,-0.0572 0.02539,-0.084 0.03785,-0.0898 0.08487,-0.17609 0.138671,-0.25586 0.05381,-0.0798 0.11386,-0.15488 0.181641,-0.22266 0.06778,-0.0678 0.142881,-0.12783 0.222656,-0.18164 0.07978,-0.0538 0.166071,-0.10082 0.25586,-0.13867 0.08979,-0.0378 0.183428,-0.066 0.28125,-0.0859 0.09782,-0.0199 0.198859,-0.0312 0.302734,-0.0312 0.103875,0 0.204912,0.0113 0.302734,0.0312 0.09782,0.0199 0.191461,0.0481 0.28125,0.0859 0.08979,0.0378 0.176084,0.0849 0.25586,0.13867 0.07977,0.0538 0.154875,0.11386 0.222656,0.18164 0.06778,0.0678 0.127834,0.14288 0.181641,0.22266 0.05381,0.0798 0.10082,0.16607 0.138671,0.25586 0.01129,0.0268 0.01563,0.0564 0.02539,0.084 h 2.183594 c 0.0098,-0.0276 0.0141,-0.0572 0.02539,-0.084 0.03785,-0.0898 0.08487,-0.17609 0.138671,-0.25586 0.05381,-0.0798 0.11386,-0.15488 0.181641,-0.22266 0.06778,-0.0678 0.142881,-0.12783 0.222656,-0.18164 0.07978,-0.0538 0.166071,-0.10082 0.25586,-0.13867 0.08979,-0.0378 0.183428,-0.066 0.28125,-0.0859 0.09782,-0.0199 0.198859,-0.0312 0.302734,-0.0312 0.103875,0 0.204912,0.0113 0.302734,0.0312 0.09782,0.0199 0.191461,0.0481 0.28125,0.0859 0.08979,0.0378 0.176084,0.0849 0.25586,0.13867 0.07977,0.0538 0.154875,0.11386 0.222656,0.18164 0.06778,0.0678 0.127834,0.14288 0.181641,0.22266 0.05381,0.0798 0.10082,0.16607 0.138671,0.25586 0.01129,0.0268 0.01563,0.0564 0.02539,0.084 h 2.183594 c 0.0098,-0.0276 0.0141,-0.0572 0.02539,-0.084 0.03785,-0.0898 0.08487,-0.17609 0.138671,-0.25586 0.05381,-0.0798 0.11386,-0.15488 0.181641,-0.22266 0.06778,-0.0678 0.142881,-0.12783 0.222656,-0.18164 0.07978,-0.0538 0.166071,-0.10082 0.25586,-0.13867 0.08979,-0.0378 0.183428,-0.066 0.28125,-0.0859 0.09782,-0.0199 0.198859,-0.0312 0.302734,-0.0312 0.103875,0 0.204912,0.0113 0.302734,0.0312 0.09782,0.0199 0.191461,0.0481 0.28125,0.0859 0.08979,0.0378 0.176084,0.0849 0.25586,0.13867 0.07977,0.0538 0.154875,0.11386 0.222656,0.18164 0.06778,0.0678 0.127834,0.14288 0.181641,0.22266 0.05381,0.0798 0.10082,0.16607 0.138671,0.25586 0.01129,0.0268 0.01563,0.0564 0.02539,0.084 H 51 c 0.553997,0 1,-0.446 1,-1 v -1.0918 c -0.02757,-0.01 -0.0572,-0.0141 -0.08398,-0.0254 -0.08979,-0.0378 -0.176084,-0.0849 -0.25586,-0.13867 -0.07977,-0.0538 -0.154875,-0.11386 -0.222656,-0.18164 -0.06778,-0.0678 -0.127834,-0.14288 -0.181641,-0.22266 -0.05381,-0.0798 -0.10082,-0.16607 -0.138671,-0.25586 -0.03785,-0.0898 -0.06602,-0.18342 -0.08594,-0.28125 C 51.011334,341.3549 51,341.25386 51,341.14999 c 0,-0.10387 0.01133,-0.20491 0.03125,-0.30273 0.01992,-0.0978 0.04809,-0.19147 0.08594,-0.28125 0.03785,-0.0898 0.08487,-0.17609 0.138671,-0.25586 0.05381,-0.0798 0.11386,-0.15488 0.181641,-0.22266 0.06778,-0.0678 0.142881,-0.12783 0.222656,-0.18164 0.07978,-0.0538 0.166071,-0.10082 0.25586,-0.13867 0.02679,-0.0113 0.05642,-0.0156 0.08398,-0.0254 v -2.1836 c -0.02757,-0.01 -0.0572,-0.0141 -0.08398,-0.0254 -0.08979,-0.0378 -0.176084,-0.0849 -0.25586,-0.13867 -0.07977,-0.0538 -0.154875,-0.11386 -0.222656,-0.18164 -0.06778,-0.0678 -0.127834,-0.14288 -0.181641,-0.22266 -0.05381,-0.0798 -0.10082,-0.16607 -0.138671,-0.25586 -0.03785,-0.0898 -0.06602,-0.18342 -0.08594,-0.28125 C 51.011334,336.3549 51,336.25386 51,336.14999 c 0,-0.10387 0.01133,-0.20491 0.03125,-0.30273 0.01992,-0.0978 0.04809,-0.19147 0.08594,-0.28125 0.03785,-0.0898 0.08487,-0.17609 0.138671,-0.25586 0.05381,-0.0798 0.11386,-0.15488 0.181641,-0.22266 0.06778,-0.0678 0.142881,-0.12783 0.222656,-0.18164 0.07978,-0.0538 0.166071,-0.10082 0.25586,-0.13867 0.02679,-0.0113 0.05642,-0.0156 0.08398,-0.0254 v -2.1836 c -0.02757,-0.01 -0.0572,-0.0141 -0.08398,-0.0254 -0.08979,-0.0378 -0.176084,-0.0849 -0.25586,-0.13867 -0.07977,-0.0538 -0.154875,-0.11386 -0.222656,-0.18164 -0.06778,-0.0678 -0.127834,-0.14288 -0.181641,-0.22266 -0.05381,-0.0798 -0.10082,-0.16607 -0.138671,-0.25586 -0.03785,-0.0898 -0.06602,-0.18342 -0.08594,-0.28125 C 51.011334,331.3549 51,331.25386 51,331.14999 c 0,-0.10387 0.01133,-0.20491 0.03125,-0.30273 0.01992,-0.0978 0.04809,-0.19147 0.08594,-0.28125 0.03785,-0.0898 0.08487,-0.17609 0.138671,-0.25586 0.05381,-0.0798 0.11386,-0.15488 0.181641,-0.22266 0.06778,-0.0678 0.142881,-0.12783 0.222656,-0.18164 0.07978,-0.0538 0.166071,-0.10082 0.25586,-0.13867 0.02679,-0.0113 0.05642,-0.0156 0.08398,-0.0254 v -2.1836 c -0.02757,-0.01 -0.0572,-0.0141 -0.08398,-0.0254 -0.08979,-0.0378 -0.176084,-0.0849 -0.25586,-0.13867 -0.07977,-0.0538 -0.154875,-0.11386 -0.222656,-0.18164 -0.06778,-0.0678 -0.127834,-0.14288 -0.181641,-0.22266 -0.05381,-0.0798 -0.10082,-0.16607 -0.138671,-0.25586 -0.03785,-0.0898 -0.06602,-0.18342 -0.08594,-0.28125 C 51.011334,326.3549 51,326.25386 51,326.14999 c 0,-0.10387 0.01133,-0.20491 0.03125,-0.30273 0.01992,-0.0978 0.04809,-0.19147 0.08594,-0.28125 0.03785,-0.0898 0.08487,-0.17609 0.138671,-0.25586 0.05381,-0.0798 0.11386,-0.15488 0.181641,-0.22266 0.06778,-0.0678 0.142881,-0.12783 0.222656,-0.18164 0.07978,-0.0538 0.166071,-0.10082 0.25586,-0.13867 0.02679,-0.0113 0.05642,-0.0156 0.08398,-0.0254 v -2.1836 c -0.02757,-0.01 -0.0572,-0.0141 -0.08398,-0.0254 -0.08979,-0.0378 -0.176084,-0.0849 -0.25586,-0.13867 -0.07977,-0.0538 -0.154875,-0.11386 -0.222656,-0.18164 -0.06778,-0.0678 -0.127834,-0.14288 -0.181641,-0.22266 -0.05381,-0.0798 -0.10082,-0.16607 -0.138671,-0.25586 -0.03785,-0.0898 -0.06602,-0.18342 -0.08594,-0.28125 C 51.011334,321.3549 51,321.25386 51,321.14999 c 0,-0.10387 0.01133,-0.20491 0.03125,-0.30273 0.01992,-0.0978 0.04809,-0.19147 0.08594,-0.28125 0.03785,-0.0898 0.08487,-0.17609 0.138671,-0.25586 0.05381,-0.0798 0.11386,-0.15488 0.181641,-0.22266 0.06778,-0.0678 0.142881,-0.12783 0.222656,-0.18164 0.07978,-0.0538 0.166071,-0.10082 0.25586,-0.13867 0.02679,-0.0113 0.05642,-0.0156 0.08398,-0.0254 v -1.0918 c 0,-0.554 -0.446003,-1 -1,-1 h -2.091797 c -0.0098,0.0276 -0.0141,0.0572 -0.02539,0.084 -0.03785,0.0898 -0.08487,0.17609 -0.138671,0.25586 -0.05381,0.0798 -0.11386,0.15488 -0.181641,0.22266 -0.06778,0.0678 -0.142881,0.12783 -0.222656,0.18164 -0.07978,0.0538 -0.166071,0.10082 -0.25586,0.13867 -0.08979,0.0378 -0.183428,0.066 -0.28125,0.0859 -0.09782,0.0199 -0.198859,0.0312 -0.302734,0.0312 -0.103875,0 -0.204912,-0.0113 -0.302734,-0.0312 -0.09782,-0.0199 -0.191461,-0.0481 -0.28125,-0.0859 -0.08979,-0.0378 -0.176084,-0.0849 -0.25586,-0.13867 -0.07977,-0.0538 -0.154875,-0.11386 -0.222656,-0.18164 -0.06778,-0.0678 -0.127834,-0.14288 -0.181641,-0.22266 -0.05381,-0.0798 -0.10082,-0.16607 -0.138671,-0.25586 -0.01129,-0.0268 -0.01563,-0.0564 -0.02539,-0.084 h -2.183594 c -0.0098,0.0276 -0.0141,0.0572 -0.02539,0.084 -0.03785,0.0898 -0.08487,0.17609 -0.138671,0.25586 -0.05381,0.0798 -0.11386,0.15488 -0.181641,0.22266 -0.06778,0.0678 -0.142881,0.12783 -0.222656,0.18164 -0.07978,0.0538 -0.166071,0.10082 -0.25586,0.13867 -0.08979,0.0378 -0.183428,0.066 -0.28125,0.0859 -0.09782,0.0199 -0.198859,0.0312 -0.302734,0.0312 -0.103875,0 -0.204912,-0.0113 -0.302734,-0.0312 -0.09782,-0.0199 -0.191461,-0.0481 -0.28125,-0.0859 -0.08979,-0.0378 -0.176084,-0.0849 -0.25586,-0.13867 -0.07977,-0.0538 -0.154875,-0.11386 -0.222656,-0.18164 -0.06778,-0.0678 -0.127834,-0.14288 -0.181641,-0.22266 -0.05381,-0.0798 -0.10082,-0.16607 -0.138671,-0.25586 -0.01129,-0.0268 -0.01563,-0.0564 -0.02539,-0.084 h -2.183594 c -0.0098,0.0276 -0.0141,0.0572 -0.02539,0.084 -0.03785,0.0898 -0.08487,0.17609 -0.138671,0.25586 -0.05381,0.0798 -0.11386,0.15488 -0.181641,0.22266 -0.06778,0.0678 -0.142881,0.12783 -0.222656,0.18164 -0.07978,0.0538 -0.166071,0.10082 -0.25586,0.13867 -0.08979,0.0378 -0.183428,0.066 -0.28125,0.0859 -0.09782,0.0199 -0.198859,0.0312 -0.302734,0.0312 -0.103875,0 -0.204912,-0.0113 -0.302734,-0.0312 -0.09782,-0.0199 -0.191461,-0.0481 -0.28125,-0.0859 -0.08979,-0.0378 -0.176084,-0.0849 -0.25586,-0.13867 -0.07977,-0.0538 -0.154875,-0.11386 -0.222656,-0.18164 -0.06778,-0.0678 -0.127834,-0.14288 -0.181641,-0.22266 -0.05381,-0.0798 -0.10082,-0.16607 -0.138671,-0.25586 -0.01129,-0.0268 -0.01563,-0.0564 -0.02539,-0.084 h -2.183594 c -0.0098,0.0276 -0.0141,0.0572 -0.02539,0.084 -0.03785,0.0898 -0.08487,0.17609 -0.138671,0.25586 -0.05381,0.0798 -0.11386,0.15488 -0.181641,0.22266 -0.06778,0.0678 -0.142881,0.12783 -0.222656,0.18164 -0.07978,0.0538 -0.166071,0.10082 -0.25586,0.13867 -0.08979,0.0378 -0.183428,0.066 -0.28125,0.0859 -0.09782,0.0199 -0.198859,0.0312 -0.302734,0.0312 -0.103875,0 -0.204912,-0.0113 -0.302734,-0.0312 -0.09782,-0.0199 -0.191461,-0.0481 -0.28125,-0.0859 -0.08979,-0.0378 -0.176084,-0.0849 -0.25586,-0.13867 -0.07978,-0.0538 -0.154875,-0.11386 -0.222656,-0.18164 -0.06778,-0.0678 -0.127834,-0.14288 -0.181641,-0.22266 -0.05381,-0.0798 -0.10082,-0.16607 -0.138671,-0.25586 -0.01129,-0.0268 -0.01563,-0.0564 -0.02539,-0.084 z" /><rect
         style="fill:#287bc2;fill-opacity:1;stroke:none;stroke-width:2;stroke-linecap:round;stroke-linejoin:round;stroke-miterlimit:1.8;stroke-opacity:1;paint-order:fill markers stroke;stop-color:#000000"
         id="rect5718"
         width="20"
         height="22.999996"
         x="30"
         y="319.64999"
         ry="0.99999613" /><rect
         style="fill:#78c1ff;fill-opacity:1;stroke:none;stroke-width:2;stroke-linecap:round;stroke-linejoin:round;stroke-miterlimit:1.8;stroke-opacity:1;paint-order:fill markers stroke;stop-color:#000000"
         id="rect5718-6"
         width="18"
         height="20.999996"
         x="31"
         y="320.64999" /><g
         id="g1558"
         transform="matrix(3.7795275,0,0,3.7795275,43.945312,-773.82473)"><path
           id="rect11510"
           style="fill:#cbe7ff;fill-opacity:1;stroke:none;stroke-width:0.529167;stroke-linecap:round;stroke-linejoin:round;stroke-miterlimit:1.8;stroke-opacity:1;paint-order:fill markers stroke;stop-color:#000000"
           d="M 5.1689618e-4,289.84436 C -0.2076779,289.8496 -0.38495025,289.97418 -0.46663806,290.15235 c -0.0541038,-0.0276 -0.11524905,-0.0434 -0.18035075,-0.0434 -0.21986854,0 -0.39687499,0.17701 -0.39687499,0.39688 0,0.0515 0.00967,0.10115 0.027389,0.14624 -0.1686314,0.0458 -0.2919719,0.19941 -0.2919719,0.38293 0,0.21986 0.1770065,0.39687 0.39687505,0.39687 h 0.79375001 c 0.02008344,0 0.03964519,-0.002 0.05891114,-0.005 0.02258661,0.003 0.04531483,0.005 0.06872965,0.005 h 0.53846844 c 0.29063777,0 0.52451581,-0.23388 0.52451581,-0.52451 v -0.009 c 0,-0.29063 -0.23387804,-0.52451 -0.52451581,-0.52451 h -0.004651 c 0,-0.29316 -0.23600862,-0.52917 -0.52916668,-0.52917 -0.00458059,0 -0.00940063,-1.1e-4 -0.0139526338,0 z" /><path
           id="rect11510-3"
           style="fill:#cbe7ff;fill-opacity:1;stroke:none;stroke-width:0.529167;stroke-linecap:round;stroke-linejoin:round;stroke-miterlimit:1.8;stroke-opacity:1;paint-order:fill markers stroke;stop-color:#000000"
           d="m -1.851567,293.28393 c -0.2081948,0.005 -0.3854671,0.12982 -0.4671549,0.30799 -0.054104,-0.0275 -0.1152491,-0.0434 -0.1803508,-0.0434 -0.2198685,0 -0.396875,0.17701 -0.396875,0.39688 0,0.0515 0.00967,0.10115 0.027389,0.14624 -0.1686314,0.0458 -0.2919719,0.19941 -0.2919719,0.38293 0,0.21986 0.1770065,0.39687 0.3968751,0.39687 h 0.79375 c 0.020083,0 0.039645,-0.002 0.058911,-0.005 0.022587,0.003 0.045315,0.005 0.06873,0.005 h 0.5384684 c 0.2906378,0 0.52451582,-0.23388 0.52451582,-0.52451 v -0.009 c 0,-0.29063 -0.23387802,-0.52451 -0.52451582,-0.52451 h -0.00465 c 0,-0.29316 -0.2360086,-0.52917 -0.5291667,-0.52917 -0.00458,0 -0.0094,-1.1e-4 -0.013953,0 z" /><path
           id="path15158"
           style="fill:#287bc2;fill-opacity:1;stroke-width:0.264583"
           d="M -1.8443318 290.63811 C -1.98772 290.64172 -2.1021972 290.7584 -2.1021972 290.90269 C -2.1021972 291.04927 -1.9841929 291.16727 -1.8376138 291.16727 C -1.6910348 291.16727 -1.5730305 291.04927 -1.5730305 290.90269 C -1.5730305 290.75611 -1.6910348 290.63811 -1.8376138 290.63811 C -1.8399041 290.63811 -1.8420558 290.63805 -1.8443318 290.63811 z M -0.77928048 290.63811 L -1.3084472 291.16727 L -0.51469714 291.96102 L -1.3084472 292.75477 L -0.77928048 293.28394 L 0.014469534 292.49019 L 0.54363621 291.96102 L 0.014469534 291.43186 L -0.77928048 290.63811 z M -2.2448241 291.69644 C -2.4599066 291.70185 -2.6313638 291.87688 -2.6313638 292.09332 C -2.6313638 292.31319 -2.4543575 292.49019 -2.2344888 292.49019 C -2.0146204 292.49019 -1.8376138 292.31319 -1.8376138 292.09332 C -1.8376138 291.87345 -2.0146204 291.69644 -2.2344888 291.69644 C -2.2379243 291.69644 -2.2414101 291.69635 -2.2448241 291.69644 z M -1.8515665 293.01936 C -2.138343 293.02657 -2.3667805 293.25995 -2.3667805 293.54852 C -2.3667805 293.84167 -2.130772 294.07769 -1.8376138 294.07769 C -1.5444558 294.07769 -1.3084472 293.84167 -1.3084472 293.54852 C -1.3084472 293.25536 -1.5444558 293.01936 -1.8376138 293.01936 C -1.8421944 293.01936 -1.8470145 293.01924 -1.8515665 293.01936 z " /></g></g></g></svg>
