<?xml version="1.0" encoding="UTF-8" standalone="no"?>
<!-- Created with Inkscape (http://www.inkscape.org/) -->

<svg
   xmlns:dc="http://purl.org/dc/elements/1.1/"
   xmlns:cc="http://creativecommons.org/ns#"
   xmlns:rdf="http://www.w3.org/1999/02/22-rdf-syntax-ns#"
   xmlns:svg="http://www.w3.org/2000/svg"
   xmlns="http://www.w3.org/2000/svg"
   xmlns:sodipodi="http://sodipodi.sourceforge.net/DTD/sodipodi-0.dtd"
   xmlns:inkscape="http://www.inkscape.org/namespaces/inkscape"
   width="32"
   height="32"
   viewBox="0 0 8.4666662 8.4666664"
   version="1.1"
   id="svg1399"
   inkscape:version="0.92.4 5da689c313, 2019-01-14"
   sodipodi:docname="kwin2.svg">
  <defs
     id="defs1393">
    <style
       id="current-color-scheme"
       type="text/css">
      .ColorScheme-Text {
        color:#36404d;
      }
      </style>
  </defs>
  <sodipodi:namedview
     id="base"
     pagecolor="#ffffff"
     bordercolor="#666666"
     borderopacity="1.0"
     inkscape:pageopacity="0.0"
     inkscape:pageshadow="2"
     inkscape:zoom="16"
     inkscape:cx="32.021654"
     inkscape:cy="12.917775"
     inkscape:document-units="px"
     inkscape:current-layer="g2235"
     showgrid="true"
     inkscape:showpageshadow="false"
     units="px"
     inkscape:window-width="1920"
     inkscape:window-height="991"
     inkscape:window-x="0"
     inkscape:window-y="0"
     inkscape:window-maximized="1">
    <inkscape:grid
       type="xygrid"
       id="grid2226" />
  </sodipodi:namedview>
  <metadata
     id="metadata1396">
    <rdf:RDF>
      <cc:Work
         rdf:about="">
        <dc:format>image/svg+xml</dc:format>
        <dc:type
           rdf:resource="http://purl.org/dc/dcmitype/StillImage" />
        <dc:title></dc:title>
      </cc:Work>
    </rdf:RDF>
  </metadata>
  <g
     inkscape:label="Capa 1"
     inkscape:groupmode="layer"
     id="layer1"
     transform="translate(0,-288.53338)">
    <g
       id="g2224"
       transform="translate(8.3395681,-2.5642869)">
      <path
         sodipodi:nodetypes="sssssssss"
         id="rect941"
         d="m -7.8104025,291.62683 h 6.8791685 c 0.2931578,0 0.5291656,0.23601 0.5291656,0.52917 v 6.08542 c 0,0.29316 -0.2360078,0.52916 -0.5291656,0.52916 h -6.8791685 c -0.2931578,0 -0.5291656,-0.236 -0.5291656,-0.52916 V 292.156 c 0,-0.29316 0.2360078,-0.52917 0.5291656,-0.52917 z"
         style="opacity:1;fill:#a3b7cc;fill-opacity:1;stroke:none;stroke-width:0.21378334;stroke-linecap:round;stroke-linejoin:round;stroke-miterlimit:4;stroke-dasharray:none;stroke-opacity:1;paint-order:stroke markers fill"
         inkscape:connector-curvature="0" />
      <path
         sodipodi:nodetypes="sssssssss"
         id="rect943"
         d="m -7.8104015,291.89142 h 6.8791664 c 0.1465792,0 0.2645833,0.118 0.2645833,0.26458 v 6.08542 c 0,0.14658 -0.1180041,0.26458 -0.2645833,0.26458 h -6.8791664 c -0.1465791,0 -0.2645833,-0.118 -0.2645833,-0.26458 V 292.156 c 0,-0.14658 0.1180042,-0.26458 0.2645833,-0.26458 z"
         style="opacity:1;fill:#f1f1f1;fill-opacity:1;stroke:none;stroke-width:0.21378334;stroke-linecap:round;stroke-linejoin:round;stroke-miterlimit:4;stroke-dasharray:none;stroke-opacity:1;paint-order:stroke markers fill"
         inkscape:connector-curvature="0" />
      <path
         style="opacity:1;fill:#36404d;fill-opacity:1;stroke:none;stroke-width:0.21378334;stroke-linecap:round;stroke-linejoin:round;stroke-miterlimit:4;stroke-dasharray:none;stroke-opacity:1;paint-order:stroke markers fill"
         d="m -7.8104015,291.36225 c -0.2931578,0 -0.5291666,0.23601 -0.5291666,0.52917 v 1.85208 0.26458 0.52917 h 0.5291666 6.8791664 0.5291667 v -0.52917 -0.26458 -1.85208 c 0,-0.29316 -0.2360089,-0.52917 -0.5291667,-0.52917 z"
         id="rect866"
         inkscape:connector-curvature="0"
         sodipodi:nodetypes="ssccccccccsss" />
      <path
         style="opacity:1;fill:#4b6477;fill-opacity:1;stroke:none;stroke-width:0.21378334;stroke-linecap:round;stroke-linejoin:round;stroke-miterlimit:4;stroke-dasharray:none;stroke-opacity:1;paint-order:stroke markers fill"
         d="m -7.8104015,291.62683 c -0.1465786,0 -0.2645833,0.11801 -0.2645833,0.26459 v 1.85208 0.26458 0.26459 h 0.2645833 6.8791664 0.2645833 v -0.26459 -0.26458 -1.85208 c 0,-0.14658 -0.1180047,-0.26459 -0.2645833,-0.26459 z"
         id="rect868"
         inkscape:connector-curvature="0"
         sodipodi:nodetypes="ssccccccccsss" />
      <path
         id="rect836-7"
         d="m -4.6354019,292.156 h 6e-7 c 0.4397375,0 0.7937497,0.35401 0.7937497,0.79375 0,0.43974 -0.3540122,0.79375 -0.7937497,0.79375 h -6e-7 c -0.4397374,0 -0.7937497,-0.35401 -0.7937497,-0.79375 0,-0.43974 0.3540123,-0.79375 0.7937497,-0.79375 z"
         style="opacity:1;fill:#36404d;fill-opacity:1;stroke:none;stroke-width:0.14252223;stroke-linecap:round;stroke-linejoin:round;stroke-miterlimit:4;stroke-dasharray:none;stroke-opacity:1;paint-order:stroke markers fill"
         inkscape:connector-curvature="0" />
      <path
         id="rect880-5"
         d="m -4.6354016,292.42058 c 0.2931583,0 0.5291667,0.23601 0.5291667,0.52917 0,0.29316 -0.2360084,0.52917 -0.5291667,0.52917 -0.2931583,0 -0.5291666,-0.23601 -0.5291666,-0.52917 0,-0.29316 0.2360083,-0.52917 0.5291666,-0.52917 z"
         style="opacity:1;fill:#f1f1f1;fill-opacity:1;stroke:none;stroke-width:0.14252222;stroke-linecap:round;stroke-linejoin:round;stroke-miterlimit:4;stroke-dasharray:none;stroke-opacity:1;paint-order:stroke markers fill"
         inkscape:connector-curvature="0" />
      <path
         id="rect836-5"
         d="m -6.7520687,292.156 h 8e-7 c 0.4397375,0 0.7937497,0.35401 0.7937497,0.79375 0,0.43974 -0.3540122,0.79375 -0.7937497,0.79375 h -8e-7 c -0.4397372,0 -0.7937494,-0.35401 -0.7937494,-0.79375 0,-0.43974 0.3540122,-0.79375 0.7937494,-0.79375 z"
         style="opacity:1;fill:#36404d;fill-opacity:1;stroke:none;stroke-width:0.14252223;stroke-linecap:round;stroke-linejoin:round;stroke-miterlimit:4;stroke-dasharray:none;stroke-opacity:1;paint-order:stroke markers fill"
         inkscape:connector-curvature="0" />
      <path
         id="rect880"
         d="m -6.7520682,292.42058 c 0.2931584,0 0.5291667,0.23601 0.5291667,0.52917 0,0.29316 -0.2360083,0.52917 -0.5291667,0.52917 -0.2931583,0 -0.5291666,-0.23601 -0.5291666,-0.52917 0,-0.29316 0.2360083,-0.52917 0.5291666,-0.52917 z"
         style="opacity:1;fill:#f1f1f1;fill-opacity:1;stroke:none;stroke-width:0.14252222;stroke-linecap:round;stroke-linejoin:round;stroke-miterlimit:4;stroke-dasharray:none;stroke-opacity:1;paint-order:stroke markers fill"
         inkscape:connector-curvature="0" />
      <g
         id="g2235"
         transform="translate(-0.12756699)">
        <path
           inkscape:connector-curvature="0"
           style="opacity:1;vector-effect:none;fill:#a8bbcf;fill-opacity:0.85333335;stroke:none;stroke-width:0.59164834;stroke-linecap:round;stroke-linejoin:round;stroke-miterlimit:4;stroke-dasharray:none;stroke-dashoffset:0;stroke-opacity:1"
           d="m -2.1265847,294.80175 c 1.319213,0 2.3812499,1.06204 2.3812499,2.38125 0,1.31921 -1.0620369,2.38125 -2.3812499,2.38125 -1.3192119,0 -2.3812499,-1.06204 -2.3812499,-2.38125 0,-1.31921 1.062038,-2.38125 2.3812499,-2.38125 z"
           id="rect843-5" />
        <path
           inkscape:connector-curvature="0"
           style="opacity:1;vector-effect:none;fill:#f1f1f1;fill-opacity:1;stroke:none;stroke-width:0.52590966;stroke-linecap:round;stroke-linejoin:round;stroke-miterlimit:4;stroke-dasharray:none;stroke-dashoffset:0;stroke-opacity:1"
           d="m -2.1265847,295.06633 c 1.1726341,0 2.1166668,0.94404 2.1166668,2.11667 0,1.17263 -0.9440327,2.11666 -2.1166668,2.11666 -1.172633,0 -2.1166668,-0.94403 -2.1166668,-2.11666 0,-1.17263 0.9440338,-2.11667 2.1166668,-2.11667 z"
           id="rect843-6-6" />
        <g
           id="g2241"
           transform="translate(-0.13701636)">
          <path
             style="color:#36404d;fill:#345166;fill-opacity:1;stroke:none;stroke-width:1"
             d="m 25,16 -2,2 3,3 -3,3 2,2 5,-5 z"
             transform="matrix(0.26458332,0,0,0.26458332,-8.0749848,291.09767)"
             id="path904" />
          <path
             style="color:#36404d;fill:#c74343;fill-opacity:1;stroke:none;stroke-width:1"
             d="m 19,17 c -0.554,0 -1,0.445997 -1,1 0,0.554003 0.446,1 1,1 0.554,0 1,-0.445997 1,-1 0,-0.554003 -0.446,-1 -1,-1 z"
             transform="matrix(0.26458332,0,0,0.26458332,-8.0749848,291.09767)"
             id="path902" />
          <path
             style="color:#36404d;fill:#5e9c76;fill-opacity:1;stroke:none;stroke-width:1"
             d="M 17.5,21 C 16.669,21 16,21.668995 16,22.5 16,23.331005 16.669,24 17.5,24 18.331,24 19,23.331005 19,22.5 19,21.668995 18.331,21 17.5,21 Z"
             transform="matrix(0.26458332,0,0,0.26458332,-8.0749848,291.09767)"
             id="path900" />
          <path
             style="color:#36404d;fill:#4f92db;fill-opacity:1;stroke:none;stroke-width:1"
             d="M 20.5,25 C 19.115,25 18,26.114992 18,27.5 18,28.885008 19.115,30 20.5,30 21.885,30 23,28.885008 23,27.5 23,26.114992 21.885,25 20.5,25 Z"
             transform="matrix(0.26458332,0,0,0.26458332,-8.0749848,291.09767)"
             id="path1381" />
        </g>
      </g>
    </g>
  </g>
</svg>
