<?xml version="1.0" encoding="UTF-8" standalone="no"?>
<!-- Created with Inkscape (http://www.inkscape.org/) -->

<svg
   xmlns:dc="http://purl.org/dc/elements/1.1/"
   xmlns:cc="http://creativecommons.org/ns#"
   xmlns:rdf="http://www.w3.org/1999/02/22-rdf-syntax-ns#"
   xmlns:svg="http://www.w3.org/2000/svg"
   xmlns="http://www.w3.org/2000/svg"
   xmlns:sodipodi="http://sodipodi.sourceforge.net/DTD/sodipodi-0.dtd"
   xmlns:inkscape="http://www.inkscape.org/namespaces/inkscape"
   width="32"
   height="32"
   viewBox="0 0 32 32"
   version="1.1"
   id="svg8"
   inkscape:version="0.92.3 (2405546, 2018-03-11)"
   sodipodi:docname="noc.svg">
  <title
     id="title7895">Antu icon Theme</title>
  <defs
     id="defs2">
    <style
       id="current-color-scheme"
       type="text/css">
      .ColorScheme-Text {
        color:#122036;
      }
      </style>
    <style
       type="text/css"
       id="current-color-scheme-5">
      .ColorScheme-Text {
        color:#122036;
      }
      </style>
    <style
       type="text/css"
       id="current-color-scheme-2">
      .ColorScheme-Text {
        color:#122036;
      }
      </style>
    <style
       type="text/css"
       id="current-color-scheme-1">
      .ColorScheme-Text {
        color:#122036;
      }
      </style>
    <style
       id="current-color-scheme-10"
       type="text/css">
      .ColorScheme-Text {
        color:#122036;
      }
      </style>
    <style
       type="text/css"
       id="current-color-scheme-0">
      .ColorScheme-Text {
        color:#122036;
      }
      </style>
  </defs>
  <sodipodi:namedview
     id="base"
     pagecolor="#ffffff"
     bordercolor="#666666"
     borderopacity="1.0"
     inkscape:pageopacity="0.0"
     inkscape:pageshadow="2"
     inkscape:zoom="11.2"
     inkscape:cx="1.4639927"
     inkscape:cy="14.622072"
     inkscape:document-units="px"
     inkscape:current-layer="layer1"
     showgrid="true"
     units="px"
     inkscape:window-width="1874"
     inkscape:window-height="1141"
     inkscape:window-x="46"
     inkscape:window-y="30"
     inkscape:window-maximized="1"
     objecttolerance="10"
     gridtolerance="10"
     guidetolerance="10">
    <inkscape:grid
       type="xygrid"
       id="grid7897"
       empspacing="4" />
  </sodipodi:namedview>
  <metadata
     id="metadata5">
    <rdf:RDF>
      <cc:Work
         rdf:about="">
        <dc:format>image/svg+xml</dc:format>
        <dc:type
           rdf:resource="http://purl.org/dc/dcmitype/StillImage" />
        <dc:title>Antu icon Theme</dc:title>
      </cc:Work>
    </rdf:RDF>
  </metadata>
  <g
     inkscape:label="Capa 1"
     inkscape:groupmode="layer"
     id="layer1"
     transform="translate(0,-282.64999)">
    <g
       id="g2317"
       transform="translate(21,-5)">
      <path
         style="opacity:1;fill:#317ad0;fill-opacity:1;stroke:none;stroke-width:1.97685266;stroke-linecap:round;stroke-linejoin:round;stroke-miterlimit:4;stroke-dasharray:none;stroke-opacity:1"
         d="m -5,288.64999 c 8.31,0 15,6.69 15,15 0,8.31 -6.69,15 -15,15 -8.31,0 -15,-6.69 -15,-15 0,-8.31 6.69,-15 15,-15 z"
         id="rect903"
         inkscape:connector-curvature="0" />
      <path
         style="opacity:1;fill:#6bb1ff;fill-opacity:1;stroke:none;stroke-width:1.84506249;stroke-linecap:round;stroke-linejoin:round;stroke-miterlimit:4;stroke-dasharray:none;stroke-opacity:1"
         d="m -5,289.64999 c 7.756,0 14,6.244 14,14 0,7.756 -6.244,14 -14,14 -7.756,0 -14,-6.244 -14,-14 0,-7.756 6.244,-14 14,-14 z"
         id="rect903-2"
         inkscape:connector-curvature="0" />
      <path
         id="path845"
         d="M -6.087891,294.72811 A 9,9 0 0 0 -14,303.64999 a 9,9 0 0 0 9,9 9,9 0 0 0 8.087891,-5.07813 9,9 0 0 1 -0.451172,0.0547 A 9,9 0 0 1 2,307.64996 a 9,9 0 0 1 -0.898438,-0.0449 9,9 0 0 1 -0.888671,-0.13477 9,9 0 0 1 -0.873047,-0.22265 9,9 0 0 1 -0.84375,-0.3086 9,9 0 0 1 -0.810547,-0.39062 9,9 0 0 1 -0.767578,-0.47071 9,9 0 0 1 -0.716797,-0.54492 9,9 0 0 1 -0.658203,-0.61328 9,9 0 0 1 -0.59375,-0.67578 9,9 0 0 1 -0.521485,-0.73047 9,9 0 0 1 -0.449218,-0.78125 9,9 0 0 1 -0.367188,-0.82031 9,9 0 0 1 -0.283203,-0.85352 9,9 0 0 1 -0.197266,-0.8789 A 9,9 0 0 1 -6.976562,299.2867 9,9 0 0 1 -7,298.64999 a 9,9 0 0 1 0.04492,-0.89844 9,9 0 0 1 0.134766,-0.88867 9,9 0 0 1 0.222656,-0.87305 9,9 0 0 1 0.308594,-0.84375 9,9 0 0 1 0.201171,-0.41797 z"
         style="opacity:1;fill:#e9f3ff;fill-opacity:1;stroke:none;stroke-width:0.85552949;stroke-linecap:round;stroke-linejoin:round;stroke-miterlimit:4;stroke-dasharray:none;stroke-opacity:1;paint-order:stroke markers fill"
         inkscape:connector-curvature="0" />
    </g>
  </g>
</svg>
