<?xml version="1.0" encoding="UTF-8" standalone="no"?>
<svg
   xmlns:dc="http://purl.org/dc/elements/1.1/"
   xmlns:cc="http://creativecommons.org/ns#"
   xmlns:rdf="http://www.w3.org/1999/02/22-rdf-syntax-ns#"
   xmlns:svg="http://www.w3.org/2000/svg"
   xmlns="http://www.w3.org/2000/svg"
   xmlns:sodipodi="http://sodipodi.sourceforge.net/DTD/sodipodi-0.dtd"
   xmlns:inkscape="http://www.inkscape.org/namespaces/inkscape"
   height="32"
   viewBox="0 0 8.4666664 8.4666669"
   width="32"
   version="1.1"
   id="svg6"
   sodipodi:docname="podcast-amarok.svg"
   inkscape:version="0.92.4 5da689c313, 2019-01-14">
  <metadata
     id="metadata10">
    <rdf:RDF>
      <cc:Work
         rdf:about="">
        <dc:format>image/svg+xml</dc:format>
        <dc:type
           rdf:resource="http://purl.org/dc/dcmitype/StillImage" />
        <dc:title></dc:title>
      </cc:Work>
    </rdf:RDF>
  </metadata>
  <sodipodi:namedview
     pagecolor="#ffffff"
     bordercolor="#666666"
     borderopacity="1"
     objecttolerance="10"
     gridtolerance="10"
     guidetolerance="10"
     inkscape:pageopacity="0"
     inkscape:pageshadow="2"
     inkscape:window-width="1870"
     inkscape:window-height="1141"
     id="namedview8"
     showgrid="false"
     inkscape:zoom="14.75"
     inkscape:cx="-14.644068"
     inkscape:cy="8"
     inkscape:window-x="50"
     inkscape:window-y="30"
     inkscape:window-maximized="1"
     inkscape:current-layer="svg6" />
  <defs
     id="defs2">
    <style
       type="text/css"
       id="current-color-scheme">
      .ColorScheme-Text {
        color:#36404d;
      }
      </style>
  </defs>
  <g
     id="g1457"
     transform="translate(8.7536723,-1.7399718)">
    <path
       inkscape:connector-curvature="0"
       style="fill:#6e7cd4;fill-opacity:1;stroke:none;stroke-width:0.38884729;stroke-linecap:round;stroke-linejoin:round;stroke-miterlimit:4;stroke-dasharray:none;stroke-opacity:1"
       d="m -4.5203388,2.0045657 c 2.1986878,0 3.96874968,1.7700202 3.96874968,3.9687288 0,2.1986716 -1.77006188,3.96875 -3.96874968,3.96875 -2.1986872,0 -3.96875,-1.7700784 -3.96875,-3.96875 0,-2.1987086 1.7700628,-3.9687288 3.96875,-3.9687288 z"
       id="rect4496" />
    <path
       inkscape:connector-curvature="0"
       style="fill:#93a0e6;fill-opacity:1;stroke:none;stroke-width:0.37100005;stroke-linecap:round;stroke-linejoin:round;stroke-miterlimit:4;stroke-dasharray:none;stroke-opacity:1"
       d="m -4.5203385,2.2691252 c 2.0521083,0 3.70416638,1.6520398 3.70416638,3.7041614 0,2.0521189 -1.65205808,3.7041878 -3.70416638,3.7041878 -2.0521086,0 -3.704167,-1.6520689 -3.704167,-3.7041878 0,-2.0521216 1.6520584,-3.7041614 3.704167,-3.7041614 z"
       id="rect4570-9-6" />
    <path
       id="path847"
       d="m -4.5203388,3.5920551 c -0.5863167,0 -1.0583333,0.4720167 -1.0583333,1.0583333 v 0.2645834 h 0.79375 v 0.2645833 h -0.79375 v 0.2645833 h 0.79375 v 0.2645834 h -0.79375 c 0,0.5863166 0.4720166,1.0583333 1.0583333,1.0583333 0.5863167,0 1.0583333,-0.4720167 1.0583333,-1.0583333 h -0.79375 V 5.4441384 h 0.79375 V 5.1795551 h -0.79375 V 4.9149718 h 0.79375 V 4.6503884 c 0,-0.5863166 -0.4720166,-1.0583333 -1.0583333,-1.0583333 z m -2.38125,1.0583333 c -0.1465792,0 -0.2645833,0.1180042 -0.2645833,0.2645834 0,0.1465791 0.1180041,0.2645833 0.2645833,0.2645833 0.1465792,0 0.2645833,-0.1180042 0.2645833,-0.2645833 0,-0.1465792 -0.1180041,-0.2645834 -0.2645833,-0.2645834 z m 4.7625,0 c -0.1465792,0 -0.2645833,0.1180042 -0.2645833,0.2645834 0,0.1465791 0.1180041,0.2645833 0.2645833,0.2645833 0.1465792,0 0.2645833,-0.1180042 0.2645833,-0.2645833 0,-0.1465792 -0.1180041,-0.2645834 -0.2645833,-0.2645834 z m -5.55625,0.5291667 c -0.1465792,0 -0.2645834,0.1180042 -0.2645834,0.2645833 0,0.1465792 0.1180042,0.2645834 0.2645834,0.2645834 0.1465791,0 0.2645833,-0.1180042 0.2645833,-0.2645834 0,-0.1465791 -0.1180042,-0.2645833 -0.2645833,-0.2645833 z m 6.35,0 c -0.1465792,0 -0.2645833,0.1180042 -0.2645833,0.2645833 0,0.1465792 0.1180041,0.2645834 0.2645833,0.2645834 0.1465792,0 0.2645833,-0.1180042 0.2645833,-0.2645834 0,-0.1465791 -0.1180041,-0.2645833 -0.2645833,-0.2645833 z m -5.55625,0.5291667 c -0.1465792,0 -0.2645833,0.1180041 -0.2645833,0.2645833 0,0.1465792 0.1180041,0.2645833 0.2645833,0.2645833 0.1465792,0 0.2645833,-0.1180041 0.2645833,-0.2645833 0,-0.1465792 -0.1180041,-0.2645833 -0.2645833,-0.2645833 z m 0.5291667,0 c -3.05e-5,0.661715 0.3529787,1.2731776 0.9260416,1.6040364 0.2040059,0.1172978 0.4284967,0.1946402 0.6614584,0.2278931 v 0.8139038 h 0.5291666 V 7.5401345 c 0.2329265,-0.033091 0.4574151,-0.1102611 0.6614584,-0.2273763 0.5730628,-0.3308588 0.926072,-0.9423214 0.9260416,-1.6040364 h -0.5291666 c -4.8e-6,0.4726278 -0.2521506,0.9093512 -0.6614584,1.1456664 -0.4093117,0.2363153 -0.9136049,0.2363153 -1.3229166,0 C -5.5911049,6.618073 -5.8432507,6.1813496 -5.8432555,5.7087218 Z m 4.2333333,0 c -0.1465792,0 -0.2645833,0.1180041 -0.2645833,0.2645833 0,0.1465792 0.1180041,0.2645833 0.2645833,0.2645833 0.1465792,0 0.2645833,-0.1180041 0.2645833,-0.2645833 0,-0.1465792 -0.1180041,-0.2645833 -0.2645833,-0.2645833 z m -5.55625,0.5291666 c -0.1465792,0 -0.2645834,0.1180042 -0.2645834,0.2645834 0,0.1465791 0.1180042,0.2645833 0.2645834,0.2645833 0.1465791,0 0.2645833,-0.1180042 0.2645833,-0.2645833 0,-0.1465792 -0.1180042,-0.2645834 -0.2645833,-0.2645834 z m 6.35,0 c -0.1465792,0 -0.2645833,0.1180042 -0.2645833,0.2645834 0,0.1465791 0.1180041,0.2645833 0.2645833,0.2645833 0.1465792,0 0.2645833,-0.1180042 0.2645833,-0.2645833 0,-0.1465792 -0.1180041,-0.2645834 -0.2645833,-0.2645834 z m -5.55625,0.5291667 c -0.1465792,0 -0.2645833,0.1180042 -0.2645833,0.2645833 0,0.1465792 0.1180041,0.2645834 0.2645833,0.2645834 0.1465792,0 0.2645833,-0.1180042 0.2645833,-0.2645834 0,-0.1465791 -0.1180041,-0.2645833 -0.2645833,-0.2645833 z m 4.7625,0 c -0.1465792,0 -0.2645833,0.1180042 -0.2645833,0.2645833 0,0.1465792 0.1180041,0.2645834 0.2645833,0.2645834 0.1465792,0 0.2645833,-0.1180042 0.2645833,-0.2645834 0,-0.1465791 -0.1180041,-0.2645833 -0.2645833,-0.2645833 z"
       style="opacity:1;fill:#f0f2fb;fill-opacity:1;stroke:none;stroke-width:1.58750021;stroke-linecap:round;stroke-linejoin:round;stroke-miterlimit:4;stroke-dasharray:none;stroke-dashoffset:0;stroke-opacity:1;paint-order:stroke markers fill"
       inkscape:connector-curvature="0" />
  </g>
</svg>
