<?xml version="1.0" encoding="UTF-8" standalone="no"?>
<svg
   xmlns:dc="http://purl.org/dc/elements/1.1/"
   xmlns:cc="http://creativecommons.org/ns#"
   xmlns:rdf="http://www.w3.org/1999/02/22-rdf-syntax-ns#"
   xmlns:svg="http://www.w3.org/2000/svg"
   xmlns="http://www.w3.org/2000/svg"
   xmlns:sodipodi="http://sodipodi.sourceforge.net/DTD/sodipodi-0.dtd"
   xmlns:inkscape="http://www.inkscape.org/namespaces/inkscape"
   height="32"
   viewBox="0 0 8.4666664 8.4666669"
   width="32"
   version="1.1"
   id="svg6"
   sodipodi:docname="preferences-system-network-server-installation.svg"
   inkscape:version="0.92.4 5da689c313, 2019-01-14">
  <metadata
     id="metadata10">
    <rdf:RDF>
      <cc:Work
         rdf:about="">
        <dc:format>image/svg+xml</dc:format>
        <dc:type
           rdf:resource="http://purl.org/dc/dcmitype/StillImage" />
        <dc:title />
      </cc:Work>
    </rdf:RDF>
  </metadata>
  <sodipodi:namedview
     pagecolor="#ffffff"
     bordercolor="#666666"
     borderopacity="1"
     objecttolerance="10"
     gridtolerance="10"
     guidetolerance="10"
     inkscape:pageopacity="0"
     inkscape:pageshadow="2"
     inkscape:window-width="1920"
     inkscape:window-height="1003"
     id="namedview8"
     showgrid="true"
     inkscape:zoom="59"
     inkscape:cx="21.646805"
     inkscape:cy="5.5634901"
     inkscape:window-x="0"
     inkscape:window-y="0"
     inkscape:window-maximized="1"
     inkscape:current-layer="g3973">
    <inkscape:grid
       type="xygrid"
       id="grid1683" />
  </sodipodi:namedview>
  <defs
     id="defs2">
    <style
       type="text/css"
       id="current-color-scheme">
      .ColorScheme-Text {
        color:#36404d;
      }
      </style>
    <style
       id="current-color-scheme-3"
       type="text/css">
      .ColorScheme-Text {
        color:#36404d;
      }
      </style>
    <style
       type="text/css"
       id="current-color-scheme-9">
      .ColorScheme-Text {
        color:#36404d;
      }
      </style>
    <style
       id="current-color-scheme-4"
       type="text/css">
      .ColorScheme-Text {
        color:#122036;
      }
      </style>
    <style
       type="text/css"
       id="current-color-scheme-7">
      .ColorScheme-Text {
        color:#36404d;
      }
      </style>
  </defs>
  <g
     id="g1681"
     transform="translate(9.0541312,-1.2847988)">
    <path
       inkscape:connector-curvature="0"
       style="fill:#36404d;fill-opacity:1;stroke:none;stroke-width:0.52916664;stroke-linecap:round;stroke-linejoin:round;stroke-miterlimit:4;stroke-dasharray:none;stroke-dashoffset:0;stroke-opacity:1"
       d="m -7.9957979,7.1056321 h 6.3500001 c 0.2931583,0 0.5291666,0.2360083 0.5291666,0.5291667 v 1.3229166 c 0,0.2931584 -0.2360083,0.5291667 -0.5291666,0.5291667 h -6.3500001 c -0.2931583,0 -0.5291666,-0.2360083 -0.5291666,-0.5291667 V 7.6347988 c 0,-0.2931584 0.2360083,-0.5291667 0.5291666,-0.5291667 z"
       id="rect842" />
    <path
       inkscape:connector-curvature="0"
       style="fill:#f1f1f1;fill-opacity:1;stroke:none;stroke-width:0.52916664;stroke-linecap:round;stroke-linejoin:round;stroke-miterlimit:4;stroke-dasharray:none;stroke-dashoffset:0;stroke-opacity:1"
       d="m -7.9957979,7.3702154 c -0.1465791,0 -0.2645833,0.1180042 -0.2645833,0.2645834 v 1.3229166 c 0,0.1465792 0.1180042,0.2645834 0.2645833,0.2645834 h 0.2645834 V 8.6931321 h 5.0270833 v 0.5291667 h 1.0583334 c 0.1465791,0 0.2645833,-0.1180042 0.2645833,-0.2645834 V 7.6347988 c 0,-0.1465792 -0.1180042,-0.2645834 -0.2645833,-0.2645834 z"
       id="path1024" />
    <path
       inkscape:connector-curvature="0"
       style="fill:#36404d;fill-opacity:1;stroke:none;stroke-width:0.52916664;stroke-linecap:round;stroke-linejoin:round;stroke-miterlimit:4;stroke-dasharray:none;stroke-dashoffset:0;stroke-opacity:1"
       d="m -7.9957979,1.5493821 h 6.3500001 c 0.2931583,0 0.5291666,0.2360084 0.5291666,0.5291667 v 5.8208333 c 0,0.2931583 -0.2360083,0.5291667 -0.5291666,0.5291667 h -6.3500001 c -0.2931583,0 -0.5291666,-0.2360084 -0.5291666,-0.5291667 V 2.0785488 c 0,-0.2931583 0.2360083,-0.5291667 0.5291666,-0.5291667 z"
       id="rect838" />
    <path
       style="fill:#4b6477;fill-opacity:1;stroke:none;stroke-width:0.52916664;stroke-linecap:round;stroke-linejoin:round;stroke-miterlimit:4;stroke-dasharray:none;stroke-dashoffset:0;stroke-opacity:1"
       d="m -7.9957979,1.8139655 c -0.1465791,0 -0.2645833,0.1180041 -0.2645833,0.2645833 v 5.8208333 c 0,0.1465792 0.1180042,0.2645833 0.2645833,0.2645833 h 6.3500001 c 0.1465791,0 0.2645833,-0.1180041 0.2645833,-0.2645833 V 2.0785488 c 0,-0.1465792 -0.1180042,-0.2645833 -0.2645833,-0.2645833 z m 0.2645834,0.2645833 c 0.1465791,0 0.2645833,0.1180042 0.2645833,0.2645833 0,0.1465792 -0.1180042,0.2645833 -0.2645833,0.2645833 -0.1465792,0 -0.2645834,-0.1180041 -0.2645834,-0.2645833 0,-0.1465791 0.1180042,-0.2645833 0.2645834,-0.2645833 z m 5.8208333,0 c 0.1465792,0 0.2645834,0.1180042 0.2645834,0.2645833 0,0.1465792 -0.1180042,0.2645833 -0.2645834,0.2645833 -0.1465791,0 -0.2645833,-0.1180041 -0.2645833,-0.2645833 0,-0.1465791 0.1180042,-0.2645833 0.2645833,-0.2645833 z m -5.8208333,2.38125 c 0.1465791,0 0.2645833,0.1180041 0.2645833,0.2645833 0,0.1465792 -0.1180042,0.2645833 -0.2645833,0.2645833 -0.1465792,0 -0.2645834,-0.1180041 -0.2645834,-0.2645833 0,-0.1465792 0.1180042,-0.2645833 0.2645834,-0.2645833 z m 5.8208333,0 c 0.1465792,0 0.2645834,0.1180041 0.2645834,0.2645833 0,0.1465792 -0.1180042,0.2645833 -0.2645834,0.2645833 -0.1465791,0 -0.2645833,-0.1180041 -0.2645833,-0.2645833 0,-0.1465792 0.1180042,-0.2645833 0.2645833,-0.2645833 z m -5.8208333,2.9104166 c 0.1465791,0 0.2645833,0.1180042 0.2645833,0.2645834 0,0.1465791 -0.1180042,0.2645833 -0.2645833,0.2645833 -0.1465792,0 -0.2645834,-0.1180042 -0.2645834,-0.2645833 0,-0.1465792 0.1180042,-0.2645834 0.2645834,-0.2645834 z m 5.8208333,0 c 0.1465792,0 0.2645834,0.1180042 0.2645834,0.2645834 0,0.1465791 -0.1180042,0.2645833 -0.2645834,0.2645833 -0.1465791,0 -0.2645833,-0.1180042 -0.2645833,-0.2645833 0,-0.1465792 0.1180042,-0.2645834 0.2645833,-0.2645834 z"
       id="rect840"
       inkscape:connector-curvature="0"
       sodipodi:nodetypes="sssssssssssssssssssssssssssssssssssssss" />
    <path
       inkscape:connector-curvature="0"
       style="opacity:1;fill:#f1f1f1;fill-opacity:1;stroke:none;stroke-width:0.52916664;stroke-linecap:round;stroke-linejoin:round;stroke-miterlimit:4;stroke-dasharray:none;stroke-opacity:1"
       d="m -7.4666312,8.9577154 v 0.2645834 h 0.5291667 V 8.9577154 Z m 0.79375,0 v 0.2645834 h 0.5291667 V 8.9577154 Z m 0.79375,0 v 0.2645834 h 0.5291667 V 8.9577154 Z m 0.79375,0 v 0.2645834 h 0.5291667 V 8.9577154 Z m 0.79375,0 v 0.2645834 h 0.5291667 V 8.9577154 Z m 0.79375,0 v 0.2645834 h 0.5291667 V 8.9577154 Z"
       id="rect848" />
    <path
       id="rect897"
       d="m -4.5562145,5.7827154 v 0.5291667 h -0.2645833 v 0.79375 h 0.2645833 v 0.2645833 h -0.2645833 v 0.79375 h 0.2645833 v 0.5291667 h 0.79375 v 0.2645833 h 0.5291667 v 0.2645834 h 0.5291666 V 8.9577154 h 0.5291667 V 8.6931321 h 0.79375 V 8.1639654 h 0.2645833 v -0.79375 H -1.3812145 V 7.1056321 h 0.2645833 v -0.79375 H -1.3812145 V 5.7827154 Z"
       style="fill:#363c4d;fill-opacity:1;stroke:none;stroke-width:0.52916664;stroke-linecap:round;stroke-linejoin:round;stroke-miterlimit:4;stroke-dasharray:none;stroke-opacity:1"
       inkscape:connector-curvature="0" />
    <path
       id="rect941"
       d="m -4.2916314,6.3118824 h 0.5291669 v 1.0583333 h -0.5291669 z"
       style="fill:#ffd84d;fill-opacity:1;stroke:none;stroke-width:0.52916664;stroke-linecap:round;stroke-linejoin:round;stroke-miterlimit:4;stroke-dasharray:none;stroke-opacity:1"
       inkscape:connector-curvature="0" />
    <path
       id="rect941-9"
       d="m -2.1749645,6.3118824 h 0.5291667 V 7.370216 h -0.5291667 z"
       style="fill:#ffd84d;fill-opacity:1;stroke:none;stroke-width:0.52916664;stroke-linecap:round;stroke-linejoin:round;stroke-miterlimit:4;stroke-dasharray:none;stroke-opacity:1"
       inkscape:connector-curvature="0" />
    <path
       id="rect941-1"
       d="m -3.2332981,6.3118824 h 0.5291669 V 7.370216 h -0.5291669 z"
       style="fill:#ffd84d;fill-opacity:1;stroke:none;stroke-width:0.52916664;stroke-linecap:round;stroke-linejoin:round;stroke-miterlimit:4;stroke-dasharray:none;stroke-opacity:1"
       inkscape:connector-curvature="0" />
  </g>
  <g
     transform="translate(-7.5540784,-1.5852525)"
     id="g3973">
    <path
       inkscape:connector-curvature="0"
       style="opacity:1;vector-effect:none;fill:#2fa76c;fill-opacity:1;stroke:none;stroke-width:0.59164834;stroke-linecap:round;stroke-linejoin:round;stroke-miterlimit:4;stroke-dasharray:none;stroke-dashoffset:0;stroke-opacity:1"
       d="m 13.640318,5.2902966 c 1.319213,0 2.38125,1.0620375 2.38125,2.38125 0,1.3192125 -1.062037,2.3812494 -2.38125,2.3812494 -1.319212,0 -2.38125,-1.0620369 -2.38125,-2.3812494 0,-1.3192125 1.062038,-2.38125 2.38125,-2.38125 z"
       id="rect843-5" />
    <path
       inkscape:connector-curvature="0"
       style="opacity:1;vector-effect:none;fill:#53d18a;fill-opacity:1;stroke:none;stroke-width:0.52590966;stroke-linecap:round;stroke-linejoin:round;stroke-miterlimit:4;stroke-dasharray:none;stroke-dashoffset:0;stroke-opacity:1"
       d="m 13.640318,5.55488 c 1.172634,0 2.116667,0.9440333 2.116667,2.1166666 0,1.1726333 -0.944033,2.1166668 -2.116667,2.1166668 -1.172633,0 -2.116667,-0.9440335 -2.116667,-2.1166668 0,-1.1726333 0.944034,-2.1166666 2.116667,-2.1166666 z"
       id="rect843-6-6" />
    <path
       style="color:#000000;font-style:normal;font-variant:normal;font-weight:normal;font-stretch:normal;font-size:medium;line-height:normal;font-family:sans-serif;font-variant-ligatures:normal;font-variant-position:normal;font-variant-caps:normal;font-variant-numeric:normal;font-variant-alternates:normal;font-feature-settings:normal;text-indent:0;text-align:start;text-decoration:none;text-decoration-line:none;text-decoration-style:solid;text-decoration-color:#000000;letter-spacing:normal;word-spacing:normal;text-transform:none;writing-mode:lr-tb;direction:ltr;text-orientation:mixed;dominant-baseline:auto;baseline-shift:baseline;text-anchor:start;white-space:normal;shape-padding:0;clip-rule:nonzero;display:inline;overflow:visible;visibility:visible;opacity:1;isolation:auto;mix-blend-mode:normal;color-interpolation:sRGB;color-interpolation-filters:linearRGB;solid-color:#000000;solid-opacity:1;vector-effect:none;fill:#f3fcf5;fill-opacity:1;fill-rule:nonzero;stroke:none;stroke-width:0.52916676;stroke-linecap:round;stroke-linejoin:round;stroke-miterlimit:4;stroke-dasharray:none;stroke-dashoffset:0;stroke-opacity:1;color-rendering:auto;image-rendering:auto;shape-rendering:auto;text-rendering:auto;enable-background:accumulate"
       d="m 13.375693,6.0838202 c -0.146171,5.17e-4 -0.264234,0.1194545 -0.263672,0.265625 v 1.0566406 h -0.529297 c -0.223755,-0.00153 -0.348281,0.2580983 -0.207031,0.4316406 l 1.058594,1.3222657 c 0.102658,0.1277613 0.295587,0.1324233 0.404297,0.00977 l 1.05651,-1.3222701 c 0.153095,-0.170485 0.03187,-0.4417411 -0.197266,-0.4414062 l -0.529166,0 V 6.3494452 c 5.56e-4,-0.1461705 -0.117501,-0.265108 -0.263672,-0.265625 z"
       id="path855-2"
       inkscape:connector-curvature="0"
       sodipodi:nodetypes="ccccccccccccc" />
  </g>
</svg>
