<?xml version="1.0" encoding="UTF-8" standalone="no"?>
<svg
   xmlns:dc="http://purl.org/dc/elements/1.1/"
   xmlns:cc="http://creativecommons.org/ns#"
   xmlns:rdf="http://www.w3.org/1999/02/22-rdf-syntax-ns#"
   xmlns:svg="http://www.w3.org/2000/svg"
   xmlns="http://www.w3.org/2000/svg"
   xmlns:sodipodi="http://sodipodi.sourceforge.net/DTD/sodipodi-0.dtd"
   xmlns:inkscape="http://www.inkscape.org/namespaces/inkscape"
   height="32"
   viewBox="0 0 8.4666664 8.4666669"
   width="32"
   version="1.1"
   id="svg6"
   sodipodi:docname="preferences-desktop-screensaver.svg"
   inkscape:version="0.92.4 5da689c313, 2019-01-14">
  <metadata
     id="metadata10">
    <rdf:RDF>
      <cc:Work
         rdf:about="">
        <dc:format>image/svg+xml</dc:format>
        <dc:type
           rdf:resource="http://purl.org/dc/dcmitype/StillImage" />
        <dc:title></dc:title>
      </cc:Work>
    </rdf:RDF>
  </metadata>
  <sodipodi:namedview
     pagecolor="#ffffff"
     bordercolor="#666666"
     borderopacity="1"
     objecttolerance="10"
     gridtolerance="10"
     guidetolerance="10"
     inkscape:pageopacity="0"
     inkscape:pageshadow="2"
     inkscape:window-width="1870"
     inkscape:window-height="1141"
     id="namedview8"
     showgrid="false"
     inkscape:zoom="14.75"
     inkscape:cx="-14.644068"
     inkscape:cy="8"
     inkscape:window-x="50"
     inkscape:window-y="30"
     inkscape:window-maximized="1"
     inkscape:current-layer="svg6" />
  <defs
     id="defs2">
    <style
       type="text/css"
       id="current-color-scheme">
      .ColorScheme-Text {
        color:#36404d;
      }
      </style>
  </defs>
  <g
     id="g5388"
     transform="translate(9.1303672,-2.0269775)">
    <path
       id="rect843"
       d="m -8.3366172,2.2915607 h 6.8791666 c 0.2931584,0 0.52916671,0.2360084 0.52916671,0.5291667 V 9.699894 c 0,0.2931584 -0.23600831,0.529167 -0.52916671,0.529167 h -6.8791666 c -0.2931584,0 -0.5291667,-0.2360086 -0.5291667,-0.529167 V 2.8207274 c 0,-0.2931583 0.2360083,-0.5291667 0.5291667,-0.5291667 z"
       style="opacity:1;fill:#36404d;fill-opacity:1;stroke:none;stroke-width:0.63318533;stroke-linecap:round;stroke-linejoin:round;stroke-miterlimit:4;stroke-dasharray:none;stroke-opacity:1"
       inkscape:connector-curvature="0" />
    <path
       id="rect843-3"
       d="m -8.3366172,2.5561441 h 6.8791666 c 0.1465789,0 0.2645834,0.1180041 0.2645834,0.2645833 V 9.699894 c 0,0.1465792 -0.1180045,0.2645834 -0.2645834,0.2645834 h -6.8791666 c -0.1465792,0 -0.2645834,-0.1180042 -0.2645834,-0.2645834 V 2.8207274 c 0,-0.1465792 0.1180042,-0.2645833 0.2645834,-0.2645833 z"
       style="opacity:1;fill:#4b6477;fill-opacity:1;stroke:none;stroke-width:0.59097302;stroke-linecap:round;stroke-linejoin:round;stroke-miterlimit:4;stroke-dasharray:none;stroke-opacity:1"
       inkscape:connector-curvature="0" />
    <path
       id="rect834"
       d="m -8.0720349,2.8207274 h 6.350002 c 0.1465787,0 0.2645823,0.1180042 0.2645823,0.2645833 v 5.2916667 c 0,0.1465791 -0.1180036,0.2645833 -0.2645823,0.2645833 h -6.350002 c -0.1465787,0 -0.2645823,-0.1180042 -0.2645823,-0.2645833 V 3.0853107 c 0,-0.1465791 0.1180036,-0.2645833 0.2645823,-0.2645833 z"
       style="opacity:1;fill:#36404d;fill-opacity:1;stroke:none;stroke-width:0.52916664;stroke-linecap:round;stroke-linejoin:round;stroke-miterlimit:4;stroke-dasharray:none;stroke-opacity:1;paint-order:stroke markers fill"
       inkscape:connector-curvature="0" />
    <path
       id="rect836"
       d="m -8.0661874,3.0794661 h 6.35 v 5.2916666 h -6.35 z"
       style="opacity:1;fill:#0d6ba0;fill-opacity:1;stroke:none;stroke-width:0.52916664;stroke-linecap:round;stroke-linejoin:round;stroke-miterlimit:4;stroke-dasharray:none;stroke-opacity:1;paint-order:stroke markers fill"
       inkscape:connector-curvature="0" />
    <path
       inkscape:connector-curvature="0"
       style="opacity:1;fill:#363c4d;fill-opacity:1;stroke:none;stroke-width:0.52916664;stroke-linecap:round;stroke-linejoin:round;stroke-miterlimit:4;stroke-dasharray:none;stroke-opacity:1;paint-order:stroke markers fill"
       d="m -2.1189089,8.906144 c 0.2198687,0 0.396875,0.1770063 0.396875,0.396875 0,0.2198688 -0.1770063,0.396875 -0.396875,0.396875 -0.2198688,0 -0.396875,-0.1770062 -0.396875,-0.396875 0,-0.2198687 0.1770062,-0.396875 0.396875,-0.396875 z"
       id="rect1584" />
    <path
       inkscape:connector-curvature="0"
       style="opacity:1;fill:#d1ebff;fill-opacity:1;stroke:none;stroke-width:0.52916664;stroke-linecap:round;stroke-linejoin:round;stroke-miterlimit:4;stroke-dasharray:none;stroke-opacity:1;paint-order:stroke markers fill"
       d="m -2.1189089,9.1707274 c 0.07329,0 0.1322917,0.059002 0.1322917,0.1322916 0,0.07329 -0.059002,0.1322917 -0.1322917,0.1322917 -0.07329,0 -0.1322917,-0.059002 -0.1322917,-0.1322917 0,-0.07329 0.059002,-0.1322916 0.1322917,-0.1322916 z"
       id="rect1586" />
    <path
       inkscape:connector-curvature="0"
       style="opacity:1;fill:#363c4d;fill-opacity:1;stroke:none;stroke-width:0.52916664;stroke-linecap:round;stroke-linejoin:round;stroke-miterlimit:4;stroke-dasharray:none;stroke-opacity:1;paint-order:stroke markers fill"
       d="m -3.1772422,8.906144 c 0.2198687,0 0.396875,0.1770063 0.396875,0.396875 0,0.2198688 -0.1770063,0.396875 -0.396875,0.396875 -0.2198688,0 -0.396875,-0.1770062 -0.396875,-0.396875 0,-0.2198687 0.1770062,-0.396875 0.396875,-0.396875 z"
       id="rect1584-6" />
    <path
       inkscape:connector-curvature="0"
       style="opacity:1;fill:#d1ebff;fill-opacity:1;stroke:none;stroke-width:0.52916664;stroke-linecap:round;stroke-linejoin:round;stroke-miterlimit:4;stroke-dasharray:none;stroke-opacity:1;paint-order:stroke markers fill"
       d="m -3.1772422,9.1707274 c 0.073289,0 0.1322916,0.059002 0.1322916,0.1322916 0,0.07329 -0.059002,0.1322917 -0.1322916,0.1322917 -0.07329,0 -0.1322917,-0.059002 -0.1322917,-0.1322917 0,-0.07329 0.059002,-0.1322916 0.1322917,-0.1322916 z"
       id="rect1586-7" />
    <path
       id="path4700"
       d="m -5.4405079,3.6820133 a 2.1166667,2.1166667 0 0 0 -1.5673462,2.0432861 2.1166667,2.1166667 0 0 0 2.1166667,2.1166666 2.1166667,2.1166667 0 0 0 1.8722372,-1.1317139 2.1166667,2.1166667 0 0 1 -0.1896526,0.042375 2.1166667,2.1166667 0 0 1 -0.2098064,0.025839 2.1166667,2.1166667 0 0 1 -0.1498615,0.00517 A 2.1166667,2.1166667 0 0 1 -3.7796273,6.7732986 2.1166667,2.1166667 0 0 1 -3.988917,6.7412592 2.1166667,2.1166667 0 0 1 -4.1935555,6.6890659 2.1166667,2.1166667 0 0 1 -4.3925097,6.616719 2.1166667,2.1166667 0 0 1 -4.583196,6.5247347 2.1166667,2.1166667 0 0 1 -4.7635466,6.4141474 2.1166667,2.1166667 0 0 1 -4.9320118,6.2859898 2.1166667,2.1166667 0 0 1 -5.0865243,6.1418125 2.1166667,2.1166667 0 0 1 -5.2265674,5.982649 a 2.1166667,2.1166667 0 0 1 -0.12299,-0.1720823 2.1166667,2.1166667 0 0 1 -0.1049031,-0.1834515 2.1166667,2.1166667 0 0 1 -0.086816,-0.1932697 2.1166667,2.1166667 0 0 1 -0.066663,-0.2005047 2.1166667,2.1166667 0 0 1 -0.045992,-0.2067057 2.1166667,2.1166667 0 0 1 -0.025839,-0.2098064 2.1166667,2.1166667 0 0 1 -0.00517,-0.1498616 2.1166667,2.1166667 0 0 1 0.010335,-0.2113566 2.1166667,2.1166667 0 0 1 0.032039,-0.2092896 2.1166667,2.1166667 0 0 1 0.052193,-0.2046386 2.1166667,2.1166667 0 0 1 0.072347,-0.1989542 2.1166667,2.1166667 0 0 1 0.077514,-0.1607137 z"
       style="fill:#ebecf4;fill-opacity:1;stroke:none;stroke-width:0.52916664;stroke-linecap:round;stroke-linejoin:round;stroke-miterlimit:4;stroke-dasharray:none;stroke-opacity:1"
       inkscape:connector-curvature="0" />
  </g>
</svg>
