<svg height="32" viewBox="0 0 8.4666664 8.4666669" width="32" xmlns="http://www.w3.org/2000/svg"><path d="m1.0676317.26459h6.3407017c.4397375 0 .79375.35401249.79375.79375v6.3499933c0 .4397375-.3540125.79375-.79375.79375h-6.3407017c-.43973747 0-.79374997-.3540125-.79374997-.79375v-6.3499933c0-.43973751.3540125-.79375.79374997-.79375z" fill="#004f60" stroke-linecap="round" stroke-linejoin="round" stroke-miterlimit="1.8" stroke-width=".529164"/><path d="m.52916666 2.3812501.00000001 5.0270832c0 .2931577.23600896.5291667.52916663.5291667h6.35c.2931577 0 .5291667-.236009.5291667-.5291667v-5.0270832h-.79375v5.0270832h-4.4979167v-5.0270832z" fill="#00b9b5"/><path d="m1.0557495.52916667c-.29179725 0-.52658283.23478558-.52658283.52658283v.00258.00258l-.00000001 1.0557495h7.40833334v-1.0557495-.00258-.00258c0-.29179725-.2347856-.52658283-.5265829-.52658283zm2.1192505.26458336h3.4395833v1.05833327h-3.4395832zm-.2645834 1.58750007v1.0583333h3.9687501v-1.0583333zm0 2.1166666v2.6458333h3.9687501v-2.6458333z" fill="#99e3e1"/><path d="m3.175 2.6458333v.5291667h3.4395833v-.5291667zm0 2.1166667v.5291666h.5291666v-.5291666zm.79375 0v.5291666h2.6458333v-.5291666zm-.79375.79375v.5291666h2.1166667v-.5291666zm2.38125 0v.5291666h1.0583333v-.5291666zm-2.38125.79375v.5291666h.5291666v-.5291666zm.79375 0v.5291666h2.6458333v-.5291666z" fill="#004f60"/><g fill="#00b9b5"><path d="m3.175 3.7041666v.5291667h3.4395833v-.5291667z"/><path d="m3.4395833 1.0583333.0000001.5291667h2.9104166v-.5291667z"/></g></svg>