<?xml version="1.0" encoding="UTF-8" standalone="no"?>
<!-- Created with Inkscape (http://www.inkscape.org/) -->

<svg
   xmlns:dc="http://purl.org/dc/elements/1.1/"
   xmlns:cc="http://creativecommons.org/ns#"
   xmlns:rdf="http://www.w3.org/1999/02/22-rdf-syntax-ns#"
   xmlns:svg="http://www.w3.org/2000/svg"
   xmlns="http://www.w3.org/2000/svg"
   xmlns:sodipodi="http://sodipodi.sourceforge.net/DTD/sodipodi-0.dtd"
   xmlns:inkscape="http://www.inkscape.org/namespaces/inkscape"
   width="32"
   height="32"
   viewBox="0 0 32 32"
   version="1.1"
   id="svg8"
   inkscape:version="0.92.3 (2405546, 2018-03-11)"
   sodipodi:docname="applications-multimedia.svg">
  <title
     id="title7895">Antu icon Theme</title>
  <defs
     id="defs2" />
  <sodipodi:namedview
     id="base"
     pagecolor="#ffffff"
     bordercolor="#666666"
     borderopacity="1.0"
     inkscape:pageopacity="0.0"
     inkscape:pageshadow="2"
     inkscape:zoom="256"
     inkscape:cx="9.7101794"
     inkscape:cy="3.6370695"
     inkscape:document-units="px"
     inkscape:current-layer="layer1"
     showgrid="true"
     units="px"
     inkscape:window-width="1874"
     inkscape:window-height="1141"
     inkscape:window-x="46"
     inkscape:window-y="30"
     inkscape:window-maximized="1"
     objecttolerance="10"
     gridtolerance="10"
     guidetolerance="10">
    <inkscape:grid
       type="xygrid"
       id="grid7897"
       empspacing="4" />
  </sodipodi:namedview>
  <metadata
     id="metadata5">
    <rdf:RDF>
      <cc:Work
         rdf:about="">
        <dc:format>image/svg+xml</dc:format>
        <dc:type
           rdf:resource="http://purl.org/dc/dcmitype/StillImage" />
        <dc:title>Antu icon Theme</dc:title>
      </cc:Work>
    </rdf:RDF>
  </metadata>
  <g
     inkscape:label="Capa 1"
     inkscape:groupmode="layer"
     id="layer1"
     transform="translate(0,-282.64999)">
    <g
       id="g1528"
       transform="translate(17,-10)">
      <path
         inkscape:connector-curvature="0"
         style="opacity:1;fill:#44acff;fill-opacity:1;stroke:none;stroke-width:2.23359871;stroke-linecap:round;stroke-linejoin:round;stroke-miterlimit:4;stroke-dasharray:none;stroke-opacity:1"
         d="m -14,294.64999 c -0.554,0 -1,0.446 -1,1 v 26 c 0,0.554 0.446,1 1,1 h 26 c 0.553999,0 1,-0.446 1,-1 v -26 c 0,-0.554 -0.446001,-1 -1,-1 z"
         id="path1667" />
      <path
         style="opacity:1;fill:#36404d;fill-opacity:1;stroke:none;stroke-width:6;stroke-linecap:round;stroke-linejoin:round;stroke-miterlimit:4;stroke-dasharray:none;stroke-dashoffset:0;stroke-opacity:1;paint-order:stroke markers fill"
         d="m -14,293.64999 c -1.107998,0 -2,0.892 -2,2 v 26 c 0,1.108 0.892002,2 2,2 h 1 3 1 16 1 3 1 c 1.107998,0 2,-0.892 2,-2 v -26 c 0,-1.108 -0.892002,-2 -2,-2 H 11 8 7 -9 h -1 -3 z m 5,1 H 7 v 1 1 h 1 v 24 H 7 v 1 1 H -9 v -1 -1 h -1 v -24 h 1 v -1 z"
         id="rect827-3"
         inkscape:connector-curvature="0"
         sodipodi:nodetypes="ssssccccccssssccccccsccccccccccccccccc" />
      <path
         inkscape:connector-curvature="0"
         style="opacity:1;fill:#4b6477;fill-opacity:1;stroke:none;stroke-width:6;stroke-linecap:round;stroke-linejoin:round;stroke-miterlimit:4;stroke-dasharray:none;stroke-dashoffset:0;stroke-opacity:1;paint-order:stroke markers fill"
         d="m -14,294.64999 c -0.553998,0 -1,0.446 -1,1 v 26 c 0,0.554 0.446002,1 1,1 h 3 1 1 16 1 1 3 c 0.553998,0 1,-0.446 1,-1 v -26 c 0,-0.554 -0.446002,-1 -1,-1 H 9 8 7 -9 h -1 -1 z m 4,2 h 1 16 1 v 11 h -18 z m 0,13 H 8 v 11 H 7 -9 -10 Z"
         id="rect832" />
      <path
         style="opacity:1;fill:#e1ebf2;fill-opacity:1;stroke:none;stroke-width:2.23359871;stroke-linecap:round;stroke-linejoin:round;stroke-miterlimit:4;stroke-dasharray:none;stroke-opacity:1"
         d="M 3 4 L 3 7 L 6 7 L 6 4 L 3 4 z M 26 4 L 26 7 L 29 7 L 29 4 L 26 4 z M 3 9 L 3 12 L 6 12 L 6 9 L 3 9 z M 26 9 L 26 12 L 29 12 L 29 9 L 26 9 z M 11.958984 10 C 11.422802 10.0221 10.9996 10.46337 11 11 L 11 21 C 10.999796 21.78621 11.865083 22.265206 12.53125 21.847656 L 20.53125 16.847656 C 21.15707 16.455816 21.15707 15.544184 20.53125 15.152344 L 12.53125 10.152344 C 12.360249 10.044964 12.160744 9.99185 11.958984 10 z M 3 14 L 3 17 L 6 17 L 6 14 L 3 14 z M 26 14 L 26 17 L 29 17 L 29 14 L 26 14 z M 3 19 L 3 22 L 6 22 L 6 19 L 3 19 z M 26 19 L 26 22 L 29 22 L 29 19 L 26 19 z M 3 24 L 3 27 L 6 27 L 6 24 L 3 24 z M 26 24 L 26 27 L 29 27 L 29 24 L 26 24 z "
         transform="translate(-17,292.64999)"
         id="path1665-9" />
    </g>
  </g>
</svg>
