<?xml version="1.0" encoding="UTF-8" standalone="no"?>
<!-- Created with Inkscape (http://www.inkscape.org/) -->

<svg
   xmlns:dc="http://purl.org/dc/elements/1.1/"
   xmlns:cc="http://creativecommons.org/ns#"
   xmlns:rdf="http://www.w3.org/1999/02/22-rdf-syntax-ns#"
   xmlns:svg="http://www.w3.org/2000/svg"
   xmlns="http://www.w3.org/2000/svg"
   xmlns:sodipodi="http://sodipodi.sourceforge.net/DTD/sodipodi-0.dtd"
   xmlns:inkscape="http://www.inkscape.org/namespaces/inkscape"
   width="32"
   height="32"
   viewBox="0 0 32 32"
   version="1.1"
   id="svg8"
   inkscape:version="0.92.3 (2405546, 2018-03-11)"
   sodipodi:docname="preferences-system-windows.svg">
  <title
     id="title7895">Antu icon Theme</title>
  <defs
     id="defs2">
    <style
       id="current-color-scheme"
       type="text/css">
      .ColorScheme-Text {
        color:#122036;
      }
      </style>
    <style
       type="text/css"
       id="current-color-scheme-1">
      .ColorScheme-Text {
        color:#122036;
      }
      </style>
  </defs>
  <sodipodi:namedview
     id="base"
     pagecolor="#ffffff"
     bordercolor="#666666"
     borderopacity="1.0"
     inkscape:pageopacity="0.0"
     inkscape:pageshadow="2"
     inkscape:zoom="15.839192"
     inkscape:cx="0.69000448"
     inkscape:cy="20.865904"
     inkscape:document-units="px"
     inkscape:current-layer="layer1"
     showgrid="true"
     units="px"
     inkscape:window-width="1874"
     inkscape:window-height="1141"
     inkscape:window-x="46"
     inkscape:window-y="30"
     inkscape:window-maximized="1"
     objecttolerance="10"
     gridtolerance="10"
     guidetolerance="10">
    <inkscape:grid
       type="xygrid"
       id="grid7897"
       empspacing="4" />
  </sodipodi:namedview>
  <metadata
     id="metadata5">
    <rdf:RDF>
      <cc:Work
         rdf:about="">
        <dc:format>image/svg+xml</dc:format>
        <dc:type
           rdf:resource="http://purl.org/dc/dcmitype/StillImage" />
        <dc:title>Antu icon Theme</dc:title>
      </cc:Work>
    </rdf:RDF>
  </metadata>
  <g
     inkscape:label="Capa 1"
     inkscape:groupmode="layer"
     id="layer1"
     transform="translate(0,-282.64999)">
    <g
       id="g1796"
       transform="translate(26,-7)">
      <path
         inkscape:connector-curvature="0"
         style="opacity:1;fill:#a3b7cc;fill-opacity:1;stroke:none;stroke-width:0.80800003;stroke-linecap:round;stroke-linejoin:round;stroke-miterlimit:4;stroke-dasharray:none;stroke-opacity:1;paint-order:stroke markers fill"
         d="M -24.000004,291.64999 H 4.000004 c 1.107998,0 1.999996,0.892 1.999996,2 V 317.65 c 0,1.108 -0.891998,1.99999 -1.999996,1.99999 H -24.000004 C -25.108002,319.64999 -26,318.758 -26,317.65 v -24.00001 c 0,-1.108 0.891998,-2 1.999996,-2 z"
         id="rect941" />
      <path
         inkscape:connector-curvature="0"
         style="opacity:1;fill:#f1f1f1;fill-opacity:1;stroke:none;stroke-width:0.80800003;stroke-linecap:round;stroke-linejoin:round;stroke-miterlimit:4;stroke-dasharray:none;stroke-opacity:1;paint-order:stroke markers fill"
         d="M -24,292.64999 H 4 c 0.554,0 1,0.446 1,1 v 24 c 0,0.554 -0.446,1 -1,1 h -28 c -0.554,0 -1,-0.446 -1,-1 v -24 c 0,-0.554 0.446,-1 1,-1 z"
         id="rect943" />
      <path
         sodipodi:nodetypes="ssccccccccsss"
         inkscape:connector-curvature="0"
         id="rect866"
         d="m -24,291.64999 c -1.107998,0 -2,0.892 -2,2 v 7 1 2 h 2 28 2 v -2 -1 -7 c 0,-1.108 -0.892002,-2 -2,-2 z"
         style="opacity:1;fill:#a3b7cc;fill-opacity:1;stroke:none;stroke-width:0.80800003;stroke-linecap:round;stroke-linejoin:round;stroke-miterlimit:4;stroke-dasharray:none;stroke-opacity:1;paint-order:stroke markers fill" />
      <path
         sodipodi:nodetypes="ssccccccccsss"
         inkscape:connector-curvature="0"
         id="rect868"
         d="m -24,292.64999 c -0.553998,0 -1,0.446 -1,1 v 7 1 1 h 1 28 1 v -1 -1 -7 c 0,-0.554 -0.446002,-1 -1,-1 z"
         style="opacity:1;fill:#e6f5fe;fill-opacity:1;stroke:none;stroke-width:0.80800003;stroke-linecap:round;stroke-linejoin:round;stroke-miterlimit:4;stroke-dasharray:none;stroke-opacity:1;paint-order:stroke markers fill" />
      <path
         inkscape:connector-curvature="0"
         style="opacity:1;fill:#ffb851;fill-opacity:0.96078432;stroke:none;stroke-width:0.53866673;stroke-linecap:round;stroke-linejoin:round;stroke-miterlimit:4;stroke-dasharray:none;stroke-opacity:1;paint-order:stroke markers fill"
         d="m -10.000001,294.64999 h 2e-6 c 1.662,0 2.999999,1.338 2.999999,3 0,1.662 -1.337999,3 -2.999999,3 h -2e-6 c -1.662,0 -2.999999,-1.338 -2.999999,-3 0,-1.662 1.337999,-3 2.999999,-3 z"
         id="rect836-7" />
      <path
         inkscape:connector-curvature="0"
         style="opacity:1;fill:#ffeea3;fill-opacity:1;stroke:none;stroke-width:0.53866667;stroke-linecap:round;stroke-linejoin:round;stroke-miterlimit:4;stroke-dasharray:none;stroke-opacity:1;paint-order:stroke markers fill"
         d="m -10,295.64999 c 1.108,0 2,0.892 2,2 0,1.108 -0.892,2 -2,2 -1.108,0 -2,-0.892 -2,-2 0,-1.108 0.892,-2 2,-2 z"
         id="rect880-5" />
      <path
         inkscape:connector-curvature="0"
         style="opacity:1;fill:#5e9c76;fill-opacity:1;stroke:none;stroke-width:0.53866673;stroke-linecap:round;stroke-linejoin:round;stroke-miterlimit:4;stroke-dasharray:none;stroke-opacity:1;paint-order:stroke markers fill"
         d="m -1.000002,294.64999 h 3e-6 c 1.662,0 2.999999,1.338 2.999999,3 0,1.662 -1.337999,3 -2.999999,3 h -3e-6 c -1.661999,0 -2.999998,-1.338 -2.999998,-3 0,-1.662 1.337999,-3 2.999998,-3 z"
         id="rect836" />
      <path
         inkscape:connector-curvature="0"
         style="opacity:1;fill:#c74343;fill-opacity:1;stroke:none;stroke-width:0.53866673;stroke-linecap:round;stroke-linejoin:round;stroke-miterlimit:4;stroke-dasharray:none;stroke-opacity:1;paint-order:stroke markers fill"
         d="m -19,294.64999 h 3e-6 c 1.662,0 2.999999,1.338 2.999999,3 0,1.662 -1.337999,3 -2.999999,3 H -19 c -1.661999,0 -2.999998,-1.338 -2.999998,-3 0,-1.662 1.337999,-3 2.999998,-3 z"
         id="rect836-5" />
      <path
         inkscape:connector-curvature="0"
         style="opacity:1;fill:#f78f8f;fill-opacity:1;stroke:none;stroke-width:0.53866667;stroke-linecap:round;stroke-linejoin:round;stroke-miterlimit:4;stroke-dasharray:none;stroke-opacity:1;paint-order:stroke markers fill"
         d="m -18.999998,295.64999 c 1.108,0 2,0.892 2,2 0,1.108 -0.892,2 -2,2 -1.108,0 -2,-0.892 -2,-2 0,-1.108 0.892,-2 2,-2 z"
         id="rect880" />
      <path
         inkscape:connector-curvature="0"
         style="opacity:1;fill:#bae0bd;fill-opacity:1;stroke:none;stroke-width:0.53866667;stroke-linecap:round;stroke-linejoin:round;stroke-miterlimit:4;stroke-dasharray:none;stroke-opacity:1;paint-order:stroke markers fill"
         d="m -1,295.64999 c 1.108,0 2,0.892 2,2 0,1.108 -0.892,2 -2,2 -1.108,0 -2,-0.892 -2,-2 0,-1.108 0.892,-2 2,-2 z"
         id="rect880-3" />
    </g>
  </g>
</svg>
