<?xml version="1.0" encoding="UTF-8" standalone="no"?>
<!-- Created with Inkscape (http://www.inkscape.org/) -->

<svg
   xmlns:dc="http://purl.org/dc/elements/1.1/"
   xmlns:cc="http://creativecommons.org/ns#"
   xmlns:rdf="http://www.w3.org/1999/02/22-rdf-syntax-ns#"
   xmlns:svg="http://www.w3.org/2000/svg"
   xmlns="http://www.w3.org/2000/svg"
   xmlns:sodipodi="http://sodipodi.sourceforge.net/DTD/sodipodi-0.dtd"
   xmlns:inkscape="http://www.inkscape.org/namespaces/inkscape"
   width="32"
   height="32"
   viewBox="0 0 32 32"
   version="1.1"
   id="svg8"
   inkscape:version="0.92.3 (2405546, 2018-03-11)"
   sodipodi:docname="drive-harddisk-encrypted.svg">
  <title
     id="title7895">Antu icon Theme</title>
  <defs
     id="defs2">
    <style
       id="current-color-scheme"
       type="text/css">
      .ColorScheme-Text {
        color:#122036;
      }
      </style>
    <style
       type="text/css"
       id="current-color-scheme-5356">
      .ColorScheme-Text {
        color:#122036;
      }
      </style>
    <style
       id="current-color-scheme-5"
       type="text/css">
      .ColorScheme-Text {
        color:#122036;
      }
      </style>
    <style
       id="current-color-scheme-53"
       type="text/css">
      .ColorScheme-Text {
        color:#122036;
      }
      </style>
    <style
       id="current-color-scheme-535"
       type="text/css">
      .ColorScheme-Text {
        color:#122036;
      }
      </style>
    <style
       type="text/css"
       id="current-color-scheme-5-6">
      .ColorScheme-Text {
        color:#122036;
      }
      </style>
    <style
       id="current-color-scheme-70"
       type="text/css">
      .ColorScheme-Text {
        color:#122036;
      }
      </style>
    <style
       type="text/css"
       id="current-color-scheme-5-9">
      .ColorScheme-Text {
        color:#122036;
      }
      </style>
    <style
       type="text/css"
       id="current-color-scheme-2">
      .ColorScheme-Text {
        color:#122036;
      }
      </style>
    <style
       type="text/css"
       id="current-color-scheme-1">
      .ColorScheme-Text {
        color:#122036;
      }
      </style>
    <style
       id="current-color-scheme-10"
       type="text/css">
      .ColorScheme-Text {
        color:#122036;
      }
      </style>
    <style
       type="text/css"
       id="current-color-scheme-0">
      .ColorScheme-Text {
        color:#122036;
      }
      </style>
    <style
       type="text/css"
       id="current-color-scheme-26">
      .ColorScheme-Text {
        color:#122036;
      }
      </style>
    <style
       type="text/css"
       id="current-color-scheme-7">
      .ColorScheme-Text {
        color:#122036;
      }
      </style>
  </defs>
  <sodipodi:namedview
     id="base"
     pagecolor="#ffffff"
     bordercolor="#666666"
     borderopacity="1.0"
     inkscape:pageopacity="0.0"
     inkscape:pageshadow="2"
     inkscape:zoom="15.999999"
     inkscape:cx="21.0441"
     inkscape:cy="5.5104625"
     inkscape:document-units="px"
     inkscape:current-layer="g1645"
     showgrid="true"
     units="px"
     inkscape:window-width="1874"
     inkscape:window-height="1141"
     inkscape:window-x="46"
     inkscape:window-y="30"
     inkscape:window-maximized="1"
     objecttolerance="10"
     gridtolerance="10"
     guidetolerance="10">
    <inkscape:grid
       type="xygrid"
       id="grid7897"
       empspacing="4" />
  </sodipodi:namedview>
  <metadata
     id="metadata5">
    <rdf:RDF>
      <cc:Work
         rdf:about="">
        <dc:format>image/svg+xml</dc:format>
        <dc:type
           rdf:resource="http://purl.org/dc/dcmitype/StillImage" />
        <dc:title>Antu icon Theme</dc:title>
      </cc:Work>
    </rdf:RDF>
  </metadata>
  <g
     inkscape:label="Capa 1"
     inkscape:groupmode="layer"
     id="layer1"
     transform="translate(0,-282.64999)">
    <g
       id="g1645"
       transform="translate(13,-7)">
      <g
         transform="translate(31.000001,25.999995)"
         id="layer1-2"
         inkscape:label="Capa 1" />
      <g
         id="g1176">
        <g
           id="g894"
           transform="translate(-57.000003,-96.000003)">
          <g
             id="g935"
             transform="translate(57.000003,96.000003)">
            <path
               inkscape:connector-curvature="0"
               style="fill:#36404d;fill-opacity:1;stroke:none;stroke-width:2;stroke-linecap:round;stroke-linejoin:round;stroke-miterlimit:4;stroke-dasharray:none;stroke-dashoffset:0;stroke-opacity:1"
               d="m -9,311.64999 h 24 c 1.108,0 2,0.892 2,2 v 5 c 0,1.108 -0.892,2 -2,2 H -9 c -1.108,0 -2,-0.892 -2,-2 v -5 c 0,-1.108 0.892,-2 2,-2 z"
               id="rect842" />
            <path
               style="fill:#4b6477;fill-opacity:1;stroke:none;stroke-width:2;stroke-linecap:round;stroke-linejoin:round;stroke-miterlimit:4;stroke-dasharray:none;stroke-dashoffset:0;stroke-opacity:1"
               d="M 4 23 C 3.446 23 3 23.446 3 24 L 3 29 C 3 29.554 3.446 30 4 30 L 5 30 L 5 28 L 24 28 L 24 30 L 28 30 C 28.554 30 29 29.554 29 29 L 29 24 C 29 23.446 28.554 23 28 23 L 4 23 z "
               id="path1024"
               transform="translate(-13,289.64999)" />
            <path
               inkscape:connector-curvature="0"
               style="fill:#a3b7cc;fill-opacity:1;stroke:none;stroke-width:2;stroke-linecap:round;stroke-linejoin:round;stroke-miterlimit:4;stroke-dasharray:none;stroke-dashoffset:0;stroke-opacity:1"
               d="m -9,290.64999 h 24 c 1.108,0 2,0.892 2,2 v 22 c 0,1.108 -0.892,2 -2,2 H -9 c -1.108,0 -2,-0.892 -2,-2 v -22 c 0,-1.108 0.892,-2 2,-2 z"
               id="rect838" />
            <path
               style="fill:#e1ebf2;fill-opacity:1;stroke:none;stroke-width:2;stroke-linecap:round;stroke-linejoin:round;stroke-miterlimit:4;stroke-dasharray:none;stroke-dashoffset:0;stroke-opacity:1"
               d="M 4,2 C 3.446,2 3,2.446 3,3 v 22 c 0,0.554 0.446,1 1,1 h 24 c 0.554,0 1,-0.446 1,-1 V 3 C 29,2.446 28.554,2 28,2 Z M 5,3 C 5.554,3 6,3.446 6,4 6,4.554 5.554,5 5,5 4.446,5 4,4.554 4,4 4,3.446 4.446,3 5,3 Z m 22,0 c 0.554,0 1,0.446 1,1 0,0.554 -0.446,1 -1,1 C 26.446,5 26,4.554 26,4 26,3.446 26.446,3 27,3 Z M 5,12 c 0.554,0 1,0.446 1,1 0,0.554 -0.446,1 -1,1 -0.554,0 -1,-0.446 -1,-1 0,-0.554 0.446,-1 1,-1 z m 22,0 c 0.554,0 1,0.446 1,1 0,0.554 -0.446,1 -1,1 -0.554,0 -1,-0.446 -1,-1 0,-0.554 0.446,-1 1,-1 z M 5,23 c 0.554,0 1,0.446 1,1 0,0.554 -0.446,1 -1,1 -0.554,0 -1,-0.446 -1,-1 0,-0.554 0.446,-1 1,-1 z m 22,0 c 0.554,0 1,0.446 1,1 0,0.554 -0.446,1 -1,1 -0.554,0 -1,-0.446 -1,-1 0,-0.554 0.446,-1 1,-1 z"
               transform="translate(-13,289.64999)"
               id="rect840"
               inkscape:connector-curvature="0"
               sodipodi:nodetypes="sssssssssssssssssssssssssssssssssssssss" />
          </g>
        </g>
        <path
           style="opacity:1;fill:#fdd837;fill-opacity:1;stroke:none;stroke-width:2;stroke-linecap:round;stroke-linejoin:round;stroke-miterlimit:4;stroke-dasharray:none;stroke-opacity:1"
           d="M 6 29 L 6 30 L 8 30 L 8 29 L 6 29 z M 9 29 L 9 30 L 11 30 L 11 29 L 9 29 z M 12 29 L 12 30 L 14 30 L 14 29 L 12 29 z M 15 29 L 15 30 L 17 30 L 17 29 L 15 29 z M 18 29 L 18 30 L 20 30 L 20 29 L 18 29 z M 21 29 L 21 30 L 23 30 L 23 29 L 21 29 z "
           transform="translate(-13,289.64999)"
           id="rect848" />
        <path
           style="opacity:1;fill:#52d089;fill-opacity:1;stroke:none;stroke-width:2;stroke-linecap:round;stroke-linejoin:round;stroke-miterlimit:4;stroke-dasharray:none;stroke-opacity:1"
           d="m 12,317.64999 h 2 v 1 h -2 z"
           id="rect875" />
        <g
           id="g940"
           transform="translate(-6,-2)" />
      </g>
      <g
         transform="matrix(3.7795275,0,0,3.7795275,-5,-811.86966)"
         id="layer1-3"
         inkscape:label="Capa 1">
        <path
           id="path855"
           d="m 2.1166667,293.03125 c -0.7283193,0 -1.32291661,0.5946 -1.32291661,1.32292 v 0.1111 c -0.1484925,0.0945 -0.2645834,0.23193 -0.2645834,0.41806 v 1.5875 c 0,0.28859 0.2405849,0.52917 0.52916671,0.52917 H 3.175 c 0.2885819,0 0.5291667,-0.24058 0.5291667,-0.52917 v -1.5875 c 0,-0.18613 -0.116091,-0.32354 -0.2645833,-0.41806 v -0.1111 c 0,-0.72832 -0.5945974,-1.32292 -1.3229167,-1.32292 z"
           style="color:#122036;font-style:normal;font-variant:normal;font-weight:normal;font-stretch:normal;font-size:medium;line-height:normal;font-family:sans-serif;font-variant-ligatures:normal;font-variant-position:normal;font-variant-caps:normal;font-variant-numeric:normal;font-variant-alternates:normal;font-feature-settings:normal;text-indent:0;text-align:start;text-decoration:none;text-decoration-line:none;text-decoration-style:solid;text-decoration-color:#000000;letter-spacing:normal;word-spacing:normal;text-transform:none;writing-mode:lr-tb;direction:ltr;text-orientation:mixed;dominant-baseline:auto;baseline-shift:baseline;text-anchor:start;white-space:normal;shape-padding:0;clip-rule:nonzero;display:inline;overflow:visible;visibility:visible;opacity:1;isolation:auto;mix-blend-mode:normal;color-interpolation:sRGB;color-interpolation-filters:linearRGB;solid-color:#000000;solid-opacity:1;vector-effect:none;fill:#4b6477;fill-opacity:1;fill-rule:nonzero;stroke:none;stroke-width:0.5291667;stroke-linecap:round;stroke-linejoin:round;stroke-miterlimit:4;stroke-dasharray:none;stroke-dashoffset:0;stroke-opacity:1;color-rendering:auto;image-rendering:auto;shape-rendering:auto;text-rendering:auto;enable-background:accumulate"
           inkscape:connector-curvature="0" />
        <path
           id="path4"
           class="ColorScheme-Text"
           style="color:#122036;fill:#a3b7cc;fill-opacity:1;stroke:none;stroke-width:0.26458335"
           d="m 2.1166667,293.29583 c -0.5863167,0 -1.0583334,0.47202 -1.0583334,1.05834 v 0.26458 c -0.14657913,0 -0.26458326,0.118 -0.26458326,0.26458 v 1.5875 c 0,0.14658 0.11800413,0.26459 0.26458326,0.26459 h 2.1166666 c 0.1465792,0 0.2645834,-0.11801 0.2645834,-0.26459 v -1.5875 c 0,-0.14658 -0.1180042,-0.26458 -0.2645834,-0.26458 v -0.26458 c 0,-0.58632 -0.4720165,-1.05834 -1.0583332,-1.05834 z m 0,0.52917 c 0.2931583,0 0.5291667,0.23601 0.5291667,0.52917 v 0.26458 H 1.5875 v -0.26458 c 0,-0.29316 0.2360084,-0.52917 0.5291667,-0.52917 z m 0,1.05833 c 0.2931583,0 0.5291667,0.23601 0.5291667,0.52917 0,0.19607 -0.1069449,0.36487 -0.2645834,0.4563 v 0.60203 H 1.8520834 V 295.8688 C 1.6944449,295.7774 1.5875,295.60857 1.5875,295.4125 c 0,-0.29316 0.2360084,-0.52917 0.5291667,-0.52917 z"
           inkscape:connector-curvature="0" />
      </g>
    </g>
  </g>
</svg>
