<?xml version="1.0" encoding="UTF-8" standalone="no"?>
<svg
   xmlns:dc="http://purl.org/dc/elements/1.1/"
   xmlns:cc="http://creativecommons.org/ns#"
   xmlns:rdf="http://www.w3.org/1999/02/22-rdf-syntax-ns#"
   xmlns:svg="http://www.w3.org/2000/svg"
   xmlns="http://www.w3.org/2000/svg"
   xmlns:xlink="http://www.w3.org/1999/xlink"
   xmlns:sodipodi="http://sodipodi.sourceforge.net/DTD/sodipodi-0.dtd"
   xmlns:inkscape="http://www.inkscape.org/namespaces/inkscape"
   height="32"
   viewBox="0 0 8.4666664 8.4666669"
   width="32"
   version="1.1"
   id="svg6"
   sodipodi:docname="preferences-desktop-gestures-touch.svg"
   inkscape:version="0.92.4 5da689c313, 2019-01-14">
  <metadata
     id="metadata10">
    <rdf:RDF>
      <cc:Work
         rdf:about="">
        <dc:format>image/svg+xml</dc:format>
        <dc:type
           rdf:resource="http://purl.org/dc/dcmitype/StillImage" />
        <dc:title />
      </cc:Work>
    </rdf:RDF>
  </metadata>
  <sodipodi:namedview
     pagecolor="#ffffff"
     bordercolor="#666666"
     borderopacity="1"
     objecttolerance="10"
     gridtolerance="10"
     guidetolerance="10"
     inkscape:pageopacity="0"
     inkscape:pageshadow="2"
     inkscape:window-width="1870"
     inkscape:window-height="1141"
     id="namedview8"
     showgrid="true"
     inkscape:zoom="11.313708"
     inkscape:cx="27.585729"
     inkscape:cy="42.414092"
     inkscape:window-x="50"
     inkscape:window-y="30"
     inkscape:window-maximized="1"
     inkscape:current-layer="g4208" />
  <defs
     id="defs2">
    <style
       type="text/css"
       id="current-color-scheme">
      .ColorScheme-Text {
        color:#36404d;
      }
      </style>
    <linearGradient
       gradientTransform="matrix(0.26458333,0,0,0.26458333,-7.5473517,-75.165655)"
       inkscape:collect="always"
       xlink:href="#linearGradient3428"
       id="linearGradient3430"
       x1="-6"
       y1="301.64999"
       x2="8"
       y2="301.64999"
       gradientUnits="userSpaceOnUse" />
    <linearGradient
       inkscape:collect="always"
       id="linearGradient3428">
      <stop
         style="stop-color:#ffffff;stop-opacity:0"
         offset="0"
         id="stop3424" />
      <stop
         style="stop-color:#ffffff;stop-opacity:1"
         offset="1"
         id="stop3426" />
    </linearGradient>
  </defs>
  <g
     id="g4208"
     transform="translate(10.457768,-0.41257063)">
    <path
       id="path12329"
       d="m -10.193185,0.9417373 c -0.146582,0 -0.264583,0.1180042 -0.264583,0.2645833 v 6.8791667 c 0,0.1465792 0.118001,0.2645833 0.264583,0.2645833 h 7.9375 c 0.1465816,0 0.2645833,-0.1180041 0.2645833,-0.2645833 V 1.2063206 c 0,-0.1465791 -0.118002,-0.2645833 -0.2645833,-0.2645833 h -3.7041666 -0.79375 z"
       style="fill:#1a76c0;fill-opacity:1;stroke-width:0.26458338"
       inkscape:connector-curvature="0" />
    <path
       sodipodi:nodetypes="ccccccc"
       inkscape:connector-curvature="0"
       id="path13-5-2-9-4-2-6-6"
       d="m -10.193185,1.2063206 v 6.8791667 h 7.9375 V 1.2063206 h -3.96875 -0.5291666 z"
       style="fill:#44acff;fill-opacity:1;stroke-width:0.26458338" />
    <path
       id="rect3419"
       d="m -8.8702693,2.264654 h 3.175002 c 0.1465787,0 0.2645823,0.1180041 0.2645823,0.2645833 v 4.2333333 c 0,0.1465792 -0.1180036,0.2645834 -0.2645823,0.2645834 h -3.175002 c -0.1465786,0 -0.2645823,-0.1180042 -0.2645823,-0.2645834 V 2.5292373 c 0,-0.1465792 0.1180037,-0.2645833 0.2645823,-0.2645833 z"
       style="fill:url(#linearGradient3430);fill-opacity:1;stroke:none;stroke-width:0.52916664;stroke-linecap:round;stroke-linejoin:round;stroke-miterlimit:4;stroke-dasharray:none;stroke-opacity:1"
       inkscape:connector-curvature="0" />
    <path
       inkscape:connector-curvature="0"
       id="path3326"
       d="m -5.430685,2.2646645 c -0.2885818,0 -0.5291666,0.2405857 -0.5291666,0.5291667 V 2.904935 C -6.0415876,2.852907 -6.1219825,2.7938312 -6.224435,2.7938312 c -0.2885818,0 -0.5291666,0.2405856 -0.5291666,0.5291667 v 1.4329886 c -0.083745,-0.052708 -0.1666386,-0.1126464 -0.2671673,-0.1126569 -0.2258938,6.08e-5 -0.4162774,0.1476877 -0.4904092,0.3302132 -0.074132,0.1825255 -0.040442,0.4207087 0.1214395,0.5782601 l 0.6748942,0.6748939 c 0.1068821,0.4208409 0.466254,0.7362825 0.9069215,0.7844472 0.067138,0.015161 0.1360371,0.023918 0.2041218,0.012409 l -0.043925,0.00362 h 1.2753743 c 0.5817399,0 1.0583333,-0.476594 1.0583333,-1.0583334 v -0.79375 -1.5875 c 0,-0.288581 -0.2405848,-0.5291666 -0.5291667,-0.5291666 -0.1024525,0 -0.1828474,0.059076 -0.2645833,0.1111038 v -0.111099 c 0,-0.2885811 -0.2405848,-0.5291667 -0.5291667,-0.5291667 -0.1236982,0 -0.2284669,0.061119 -0.3193603,0.1343581 C -5.0208409,2.4441632 -5.192542,2.2646778 -5.430685,2.2646778 Z"
       style="color:#000000;font-style:normal;font-variant:normal;font-weight:normal;font-stretch:normal;font-size:medium;line-height:normal;font-family:sans-serif;font-variant-ligatures:normal;font-variant-position:normal;font-variant-caps:normal;font-variant-numeric:normal;font-variant-alternates:normal;font-feature-settings:normal;text-indent:0;text-align:start;text-decoration:none;text-decoration-line:none;text-decoration-style:solid;text-decoration-color:#000000;letter-spacing:normal;word-spacing:normal;text-transform:none;writing-mode:lr-tb;direction:ltr;text-orientation:mixed;dominant-baseline:auto;baseline-shift:baseline;text-anchor:start;white-space:normal;shape-padding:0;clip-rule:nonzero;display:inline;overflow:visible;visibility:visible;opacity:1;isolation:auto;mix-blend-mode:normal;color-interpolation:sRGB;color-interpolation-filters:linearRGB;solid-color:#000000;solid-opacity:1;vector-effect:none;fill:#36404d;fill-opacity:1;fill-rule:nonzero;stroke:none;stroke-width:0.52916664;stroke-linecap:round;stroke-linejoin:round;stroke-miterlimit:4;stroke-dasharray:none;stroke-dashoffset:0;stroke-opacity:1;color-rendering:auto;image-rendering:auto;shape-rendering:auto;text-rendering:auto;enable-background:accumulate" />
    <path
       inkscape:connector-curvature="0"
       id="rect3266-4"
       d="m -5.430685,2.5292479 c -0.1465791,0 -0.2645833,0.1180041 -0.2645833,0.2645833 v 1.5875 c -0.093376,0 -0.1815068,0.018706 -0.2645833,0.048059 V 3.3229979 c 0,-0.1465792 -0.1180042,-0.2645834 -0.2645834,-0.2645834 -0.1465791,0 -0.2645833,0.1180042 -0.2645833,0.2645834 V 5.3301112 L -6.8311164,4.9880129 a 0.26460979,0.26460979 0 0 0 -0.1896525,-0.0801 0.26460979,0.26460979 0 0 0 -0.1844847,0.4542367 l 0.7286376,0.7286386 c 0.055134,0.3573225 0.3451538,0.6315896 0.7095175,0.6645593 a 0.26460979,0.26460979 0 0 0 0.1193726,0.00722 h 1.2753743 c 0.4397367,0 0.79375,-0.3540125 0.79375,-0.79375 v -0.79375 -1.5875 c 0,-0.146576 -0.1180042,-0.2645802 -0.2645834,-0.2645802 -0.1465791,0 -0.2645833,0.1180042 -0.2645833,0.2645833 V 4.4293795 C -4.1908448,4.400024 -4.2789757,4.3813206 -4.3723516,4.3813206 V 3.058404 c 0,-0.1465792 -0.1180042,-0.2645834 -0.2645834,-0.2645834 -0.1465791,0 -0.2645833,0.1180042 -0.2645833,0.2645834 v 1.3229166 h -0.2645833 v -1.5875 c 0,-0.1465791 -0.1180042,-0.2645833 -0.2645834,-0.2645833 z m -0.396875,2.38125 c 0.07329,0 0.1322917,0.059002 0.1322917,0.1322916 v 0.5291667 c 0,0.07329 -0.059002,0.1322917 -0.1322917,0.1322917 -0.07329,0 -0.1322916,-0.059002 -0.1322916,-0.1322917 V 5.0427895 c 0,-0.073289 0.059002,-0.1322916 0.1322916,-0.1322916 z m 0.5291667,0 c 0.07329,0 0.1322917,0.059002 0.1322917,0.1322916 v 0.5291667 c 0,0.07329 -0.059002,0.1322917 -0.1322917,0.1322917 -0.07329,0 -0.1322917,-0.059002 -0.1322917,-0.1322917 V 5.0427895 c 0,-0.073289 0.059002,-0.1322916 0.1322917,-0.1322916 z m 0.5291667,0 c 0.073289,0 0.1322916,0.059002 0.1322916,0.1322916 v 0.5291667 c 0,0.07329 -0.059002,0.1322917 -0.1322916,0.1322917 -0.07329,0 -0.1322917,-0.059002 -0.1322917,-0.1322917 V 5.0427895 c 0,-0.073289 0.059002,-0.1322916 0.1322917,-0.1322916 z m 0.5291666,0 c 0.07329,0 0.1322917,0.059002 0.1322917,0.1322916 v 0.5291667 c 0,0.07329 -0.059002,0.1322917 -0.1322917,0.1322917 -0.07329,0 -0.1322916,-0.059002 -0.1322916,-0.1322917 V 5.0427895 c 0,-0.073289 0.059002,-0.1322916 0.1322916,-0.1322916 z"
       style="fill:#f1f1f1;fill-opacity:1;stroke:none;stroke-width:0.52916664;stroke-linecap:round;stroke-linejoin:round;stroke-miterlimit:4;stroke-dasharray:none;stroke-opacity:1" />
  </g>
</svg>
