<?xml version="1.0" encoding="UTF-8" standalone="no"?>
<!-- Created with Inkscape (http://www.inkscape.org/) -->

<svg
   width="32"
   height="32"
   viewBox="0 0 32 32"
   version="1.1"
   id="svg8"
   inkscape:version="1.2 (dc2aedaf03, 2022-05-15)"
   sodipodi:docname="preferences-desktop-font-installer.svg"
   xml:space="preserve"
   xmlns:inkscape="http://www.inkscape.org/namespaces/inkscape"
   xmlns:sodipodi="http://sodipodi.sourceforge.net/DTD/sodipodi-0.dtd"
   xmlns="http://www.w3.org/2000/svg"
   xmlns:svg="http://www.w3.org/2000/svg"
   xmlns:rdf="http://www.w3.org/1999/02/22-rdf-syntax-ns#"
   xmlns:cc="http://creativecommons.org/ns#"
   xmlns:dc="http://purl.org/dc/elements/1.1/"><title
     id="title7895">Antu icon Theme</title><defs
     id="defs2"><style
       type="text/css"
       id="current-color-scheme">
      .ColorScheme-Text {
        color:#36404d;
      }
      </style><style
       type="text/css"
       id="current-color-scheme-67">
      .ColorScheme-Text {
        color:#122036;
      }
      </style><style
       type="text/css"
       id="current-color-scheme-7">
      .ColorScheme-Text {
        color:#122036;
      }
      </style><style
       type="text/css"
       id="current-color-scheme-5">
      .ColorScheme-Text {
        color:#122036;
      }
      </style><style
       type="text/css"
       id="current-color-scheme-6">
      .ColorScheme-Text {
        color:#122036;
      }
      </style><style
       type="text/css"
       id="current-color-scheme-1">
      .ColorScheme-Text {
        color:#122036;
      }
      </style><style
       id="current-color-scheme-10"
       type="text/css">
      .ColorScheme-Text {
        color:#122036;
      }
      </style><style
       id="current-color-scheme-5-7"
       type="text/css">
      .ColorScheme-Text {
        color:#122036;
      }
      </style><style
       id="current-color-scheme-1-2"
       type="text/css">
      .ColorScheme-Text {
        color:#122036;
      }
      </style><style
       type="text/css"
       id="current-color-scheme-10-9">
      .ColorScheme-Text {
        color:#122036;
      }
      </style><style
       type="text/css"
       id="current-color-scheme-535">
      .ColorScheme-Text {
        color:#36404d;
      }
      </style><style
       type="text/css"
       id="current-color-scheme-67-6">
      .ColorScheme-Text {
        color:#122036;
      }
      </style><style
       type="text/css"
       id="current-color-scheme-7-2">
      .ColorScheme-Text {
        color:#122036;
      }
      </style><style
       type="text/css"
       id="current-color-scheme-5-9">
      .ColorScheme-Text {
        color:#122036;
      }
      </style><style
       type="text/css"
       id="current-color-scheme-6-1">
      .ColorScheme-Text {
        color:#122036;
      }
      </style><style
       type="text/css"
       id="current-color-scheme-1-27">
      .ColorScheme-Text {
        color:#122036;
      }
      </style><style
       id="current-color-scheme-10-0"
       type="text/css">
      .ColorScheme-Text {
        color:#122036;
      }
      </style><style
       id="current-color-scheme-5-7-9"
       type="text/css">
      .ColorScheme-Text {
        color:#122036;
      }
      </style><style
       id="current-color-scheme-1-2-3"
       type="text/css">
      .ColorScheme-Text {
        color:#122036;
      }
      </style><style
       type="text/css"
       id="current-color-scheme-10-9-6">
      .ColorScheme-Text {
        color:#122036;
      }
      </style><style
       id="current-color-scheme-60"
       type="text/css">
      .ColorScheme-Text {
        color:#122036;
      }
      </style><style
       type="text/css"
       id="current-color-scheme-53">
      .ColorScheme-Text {
        color:#36404d;
      }
      </style><style
       type="text/css"
       id="current-color-scheme-67-5">
      .ColorScheme-Text {
        color:#122036;
      }
      </style><style
       type="text/css"
       id="current-color-scheme-7-6">
      .ColorScheme-Text {
        color:#122036;
      }
      </style><style
       type="text/css"
       id="current-color-scheme-5-2">
      .ColorScheme-Text {
        color:#122036;
      }
      </style><style
       type="text/css"
       id="current-color-scheme-6-9">
      .ColorScheme-Text {
        color:#122036;
      }
      </style><style
       type="text/css"
       id="current-color-scheme-1-1">
      .ColorScheme-Text {
        color:#122036;
      }
      </style><style
       id="current-color-scheme-10-2"
       type="text/css">
      .ColorScheme-Text {
        color:#122036;
      }
      </style><style
       id="current-color-scheme-5-7-7"
       type="text/css">
      .ColorScheme-Text {
        color:#122036;
      }
      </style><style
       id="current-color-scheme-1-2-0"
       type="text/css">
      .ColorScheme-Text {
        color:#122036;
      }
      </style><style
       type="text/css"
       id="current-color-scheme-10-9-9">
      .ColorScheme-Text {
        color:#122036;
      }
      </style><style
       type="text/css"
       id="current-color-scheme-3">
      .ColorScheme-Text {
        color:#36404d;
      }
      </style><style
       id="current-color-scheme-8"
       type="text/css">
      .ColorScheme-Text {
        color:#36404d;
      }
      </style><style
       type="text/css"
       id="current-color-scheme-6-6">
      .ColorScheme-Text {
        color:#36404d;
      }
      </style><style
       type="text/css"
       id="current-color-scheme-9">
      .ColorScheme-Text {
        color:#36404d;
      }
      </style><style
       type="text/css"
       id="current-color-scheme-79">
      .ColorScheme-Text {
        color:#36404d;
      }
      </style><style
       id="current-color-scheme-8-2"
       type="text/css">
      .ColorScheme-Text {
        color:#36404d;
      }
      </style><style
       type="text/css"
       id="current-color-scheme-6-0">
      .ColorScheme-Text {
        color:#36404d;
      }
      </style><style
       type="text/css"
       id="current-color-scheme-9-2">
      .ColorScheme-Text {
        color:#36404d;
      }
      </style></defs><sodipodi:namedview
     id="base"
     pagecolor="#ffffff"
     bordercolor="#666666"
     borderopacity="1.0"
     inkscape:pageopacity="0.0"
     inkscape:pageshadow="2"
     inkscape:zoom="11.2"
     inkscape:cx="47.098214"
     inkscape:cy="29.241071"
     inkscape:document-units="px"
     inkscape:current-layer="layer1"
     showgrid="true"
     units="px"
     inkscape:window-width="2160"
     inkscape:window-height="1335"
     inkscape:window-x="0"
     inkscape:window-y="0"
     inkscape:window-maximized="1"
     objecttolerance="10"
     gridtolerance="10"
     guidetolerance="10"
     inkscape:showpageshadow="2"
     inkscape:pagecheckerboard="0"
     inkscape:deskcolor="#d1d1d1"><inkscape:grid
       type="xygrid"
       id="grid7897"
       empspacing="4" /></sodipodi:namedview><metadata
     id="metadata5"><rdf:RDF><cc:Work
         rdf:about=""><dc:format>image/svg+xml</dc:format><dc:type
           rdf:resource="http://purl.org/dc/dcmitype/StillImage" /><dc:title>Antu icon Theme</dc:title></cc:Work></rdf:RDF></metadata><g
     inkscape:label="Capa 1"
     inkscape:groupmode="layer"
     id="layer1"
     transform="translate(0,-282.64999)"><g
       id="g2069"
       transform="translate(22,-8)"
       style="fill:#36404d;fill-opacity:1"><g
         id="rect965"
         style="fill:#36404d;fill-opacity:1"><path
           style="color:#000000;fill:#36404d;stroke-linecap:round;stroke-linejoin:round;paint-order:stroke markers fill;fill-opacity:1"
           d="m -15,293.65039 a 1.0001,1.0001 0 0 0 -1,1 v 3 a 1.0001,1.0001 0 0 0 1,1 h 3 v 18 a 1.0001,1.0001 0 0 0 0,0.004 c 0,0 -0.01451,0.0407 -0.01953,0.0508 -0.005,0.0101 0.189276,-0.0547 0.01953,-0.0547 h -2 a 1.0001,1.0001 0 0 0 -1,1 v 1 1 a 1.0001,1.0001 0 0 0 1,1 h 10 a 1.0001,1.0001 0 0 0 1,-1 v -1 -1 a 1.0001,1.0001 0 0 0 -1,-1 h -2 a 1.0001,1.0001 0 0 0 -0.00391,0 c 0,0 -0.040824,-0.0146 -0.050781,-0.0195 C -6.0646448,316.6259 -6,316.82039 -6,316.65039 v -6 h 2 v 1 a 1.0001,1.0001 0 0 0 1,1 h 2 a 1.0001,1.0001 0 0 0 1,-1 v -7 a 1.0001,1.0001 0 0 0 -1,-1 h -2 a 1.0001,1.0001 0 0 0 -1,1 v 1 a 1.0001,1.0001 0 0 0 0,0.004 c 0,0 -0.014512,0.0388 -0.019531,0.0488 -0.00502,0.0101 0.1892682,-0.0527 0.019531,-0.0527 h -2 v -7 h 6 v 2 a 1.0001,1.0001 0 0 0 1,1 h 3 a 1.0001,1.0001 0 0 0 1,-1 v -3 -1 -1 -1 a 1.0001,1.0001 0 0 0 -1,-1 H 3.0332031 3 Z m 1,2 H 3 v 1 1 2 H 2 v -1 c 0,-0.834 -0.5646453,-1.52744 -1.0546875,-1.77148 -0.4900422,-0.24404 -0.94921875,-0.22852 -0.94921875,-0.22852 H -7 a 1.0001,1.0001 0 0 0 -1,1 v 1 8 a 1.0001,1.0001 0 0 0 1,1 h 3 c 0.833952,0 1.5274265,-0.56476 1.7714844,-1.05469 0.2431085,-0.48801 0.2286318,-0.94175 0.2285156,-0.94531 v 5 c 0,-0.834 -0.5646453,-1.52744 -1.0546875,-1.77148 C -3.5428235,308.63581 -3.9964438,308.65027 -4,308.65039 h -3 a 1.0001,1.0001 0 0 0 -1,1 v 7 c 0,0.83401 0.5646453,1.52744 1.0546875,1.77148 0.488136,0.2431 0.9417563,0.22864 0.9453125,0.22852 h -6 c 0.833954,0 1.527427,-0.56476 1.771484,-1.05469 C -9.9844583,317.10578 -10,316.64648 -10,316.64648 v -18.99609 a 1.0001,1.0001 0 0 0 -1,-1 h -1 -2 z"
           id="path1442" /><path
           style="color:#000000;fill:#4f6a7d;stroke-width:2;stroke-linecap:round;stroke-linejoin:round;paint-order:stroke markers fill;fill-opacity:1"
           d="m -15,294.64999 v 3 h 3 1 v 19 c 0,0 0.0037,1 -1,1 h -2 v 1 1 h 10 v -1 -1 h -2 c 0,0 -1,0.004 -1,-1 v -7 h 3 c 0,0 1,-0.004 1,1 v 1 h 2 v -7 h -2 v 1 c 0,0 0.00369,1 -1,1 h -3 v -8 -1 h 7 c 0,0 1,-0.004 1,1 v 2 h 3 v -3 -1 -1 -1 H 3.0330378 3 Z"
           id="path1444" /></g></g><path
       inkscape:connector-curvature="0"
       style="fill:#287bc2;fill-opacity:1;stroke:none;stroke-width:0.685841;stroke-linecap:round;stroke-linejoin:round;stroke-miterlimit:4;stroke-dasharray:none;stroke-opacity:1"
       d="m 25,300.65004 c 3.878001,0 7,3.12192 7,6.99995 0,3.87798 -3.121999,7.00001 -7,7.00001 -3.878,0 -7,-3.12203 -7,-7.00001 0,-3.87803 3.122,-6.99995 7,-6.99995 z"
       id="rect4496-3" /><path
       inkscape:connector-curvature="0"
       style="fill:#78c1ff;fill-opacity:1;stroke:none;stroke-width:0.600945;stroke-linecap:round;stroke-linejoin:round;stroke-miterlimit:4;stroke-dasharray:none;stroke-opacity:1"
       d="m 25,301.64999 c 3.324,0 6,2.67601 6,6.00003 0,3.32402 -2.676,6.00001 -6,6.00001 -3.324001,0 -6,-2.676 -6,-6.00001 0,-3.32402 2.675999,-6.00003 6,-6.00003 z"
       id="rect4570-9-6-5" /><path
       inkscape:connector-curvature="0"
       id="path2073"
       d="m 25,303.65002 c 0.554,0 1,0.446 1,1 v 3 h 1 c 0.890637,3.5e-4 1.336587,1.07704 0.707031,1.70703 l -2,2 c -0.39053,0.39037 -1.023532,0.39037 -1.414062,0 l -2,-2 C 21.663413,308.72706 22.109363,307.65037 23,307.65002 h 1 v -3 c 0,-0.554 0.446,-1 1,-1 z"
       style="color:#122036;fill:#287bc2;fill-opacity:1;stroke:none" /></g></svg>
