<?xml version="1.0" encoding="UTF-8" standalone="no"?>
<!-- Created with Inkscape (http://www.inkscape.org/) -->

<svg
   width="32"
   height="32"
   viewBox="0 0 32 32"
   version="1.1"
   id="svg8"
   inkscape:version="1.2 (dc2aedaf03, 2022-05-15)"
   sodipodi:docname="preferences-system-windows-actions.svg"
   xmlns:inkscape="http://www.inkscape.org/namespaces/inkscape"
   xmlns:sodipodi="http://sodipodi.sourceforge.net/DTD/sodipodi-0.dtd"
   xmlns="http://www.w3.org/2000/svg"
   xmlns:svg="http://www.w3.org/2000/svg"
   xmlns:rdf="http://www.w3.org/1999/02/22-rdf-syntax-ns#"
   xmlns:cc="http://creativecommons.org/ns#"
   xmlns:dc="http://purl.org/dc/elements/1.1/">
  <title
     id="title7895">Antu icon Theme</title>
  <defs
     id="defs2">
    <style
       type="text/css"
       id="current-color-scheme">
      .ColorScheme-Text {
        color:#122036;
      }
      </style>
    <style
       id="current-color-scheme-1"
       type="text/css">
      .ColorScheme-Text {
        color:#122036;
      }
      </style>
  </defs>
  <sodipodi:namedview
     id="base"
     pagecolor="#ffffff"
     bordercolor="#666666"
     borderopacity="1.0"
     inkscape:pageopacity="0.0"
     inkscape:pageshadow="2"
     inkscape:zoom="22.627417"
     inkscape:cx="21.787728"
     inkscape:cy="15.313281"
     inkscape:document-units="px"
     inkscape:current-layer="layer1"
     showgrid="true"
     units="px"
     inkscape:window-width="2160"
     inkscape:window-height="1335"
     inkscape:window-x="0"
     inkscape:window-y="0"
     inkscape:window-maximized="1"
     objecttolerance="10"
     gridtolerance="10"
     guidetolerance="10"
     inkscape:showpageshadow="2"
     inkscape:pagecheckerboard="0"
     inkscape:deskcolor="#d1d1d1">
    <inkscape:grid
       type="xygrid"
       id="grid7897"
       empspacing="4" />
  </sodipodi:namedview>
  <metadata
     id="metadata5">
    <rdf:RDF>
      <cc:Work
         rdf:about="">
        <dc:format>image/svg+xml</dc:format>
        <dc:type
           rdf:resource="http://purl.org/dc/dcmitype/StillImage" />
        <dc:title>Antu icon Theme</dc:title>
      </cc:Work>
    </rdf:RDF>
  </metadata>
  <g
     inkscape:label="Capa 1"
     inkscape:groupmode="layer"
     id="layer1"
     transform="translate(0,-282.64999)">
    <g
       id="g2924"
       transform="translate(26,-5)">
      <path
         inkscape:connector-curvature="0"
         style="fill:#a3b7cc;fill-opacity:1;stroke-width:1.00000012"
         d="m -25,289.64999 c -0.55401,0 -1,0.446 -1,1 v 26 c 0,0.554 0.44599,1 1,1 H 5 c 0.55401,0 1,-0.446 1,-1 v -26 c 0,-0.554 -0.44599,-1 -1,-1 h -14 -3 z"
         id="path12329" />
      <path
         style="fill:#f1f1f1;fill-opacity:1;stroke-width:1.00000012"
         d="m -25,296.64999 v 20 H 5 v -20 z"
         id="path13-5-2-9-4-2-6-6"
         inkscape:connector-curvature="0"
         sodipodi:nodetypes="ccccc" />
      <path
         inkscape:connector-curvature="0"
         style="opacity:1;fill:#36404d;fill-opacity:1;stroke:none;stroke-width:0.80800003;stroke-linecap:round;stroke-linejoin:round;stroke-miterlimit:4;stroke-dasharray:none;stroke-opacity:1;paint-order:stroke markers fill"
         d="m -25,289.64999 c -0.554,0 -1,0.446 -1,1 v 5 1 h 1 30 1 v -1 -5 c 0,-0.554 -0.446,-1 -1,-1 z"
         id="rect1191" />
      <path
         inkscape:connector-curvature="0"
         style="fill:#4b6477;fill-opacity:1;stroke:none;stroke-width:0.40000001;stroke-linecap:round;stroke-linejoin:round;stroke-miterlimit:4;stroke-dasharray:none;stroke-opacity:1"
         d="m -25,290.64999 v 5 H 5 v -5 z"
         id="rect4537-2"
         sodipodi:nodetypes="ccccc" />
    </g>
    <path
       inkscape:connector-curvature="0"
       style="fill:#36404d;fill-opacity:1;stroke:none;stroke-width:0.881796;stroke-linecap:round;stroke-linejoin:round;stroke-miterlimit:4;stroke-dasharray:none;stroke-opacity:1"
       d="m 16,292.64999 c 4.986,0 8.999999,4.0139 8.999999,8.99993 0,4.98598 -4.013999,9.00002 -8.999999,9.00002 -4.986001,0 -9.0000008,-4.01404 -9.0000008,-9.00002 0,-4.98603 4.0140008,-8.99993 9.0000008,-8.99993 z"
       id="rect4496-3" />
    <path
       inkscape:connector-curvature="0"
       style="fill:#4b6477;fill-opacity:1;stroke:none;stroke-width:0.80126;stroke-linecap:round;stroke-linejoin:round;stroke-miterlimit:4;stroke-dasharray:none;stroke-opacity:1"
       d="m 15.999999,293.64994 c 4.432,0 8,3.56801 8,8.00003 0,4.43205 -3.568,8.00003 -8,8.00003 -4.432001,0 -8,-3.568 -8,-8.00003 0,-4.43202 3.567999,-8.00003 8,-8.00003 z"
       id="rect4570-9-6-5" />
    <g
       transform="matrix(3.7795276,0,0,3.7795276,27.398305,272.70933)"
       id="g1449"
       style="fill:#f1f1f1;fill-opacity:1">
      <path
         inkscape:connector-curvature="0"
         style="color:#000000;font-style:normal;font-variant:normal;font-weight:normal;font-stretch:normal;font-size:medium;line-height:normal;font-family:sans-serif;font-variant-ligatures:normal;font-variant-position:normal;font-variant-caps:normal;font-variant-numeric:normal;font-variant-alternates:normal;font-feature-settings:normal;text-indent:0;text-align:start;text-decoration:none;text-decoration-line:none;text-decoration-style:solid;text-decoration-color:#000000;letter-spacing:normal;word-spacing:normal;text-transform:none;writing-mode:lr-tb;direction:ltr;text-orientation:mixed;dominant-baseline:auto;baseline-shift:baseline;text-anchor:start;white-space:normal;shape-padding:0;clip-rule:nonzero;display:inline;overflow:visible;visibility:visible;opacity:1;isolation:auto;mix-blend-mode:normal;color-interpolation:sRGB;color-interpolation-filters:linearRGB;solid-color:#000000;solid-opacity:1;fill:#f1f1f1;fill-opacity:1;fill-rule:nonzero;stroke:none;stroke-width:0.529167;stroke-linecap:round;stroke-linejoin:round;stroke-miterlimit:4;stroke-dasharray:none;stroke-dashoffset:0;stroke-opacity:1;color-rendering:auto;image-rendering:auto;shape-rendering:auto;text-rendering:auto;enable-background:accumulate"
         d="m -3.8095516,6.0697157 c -0.092915,2.109e-4 -0.1792086,0.048908 -0.2268595,0.1286743 l -0.7927166,1.3224 c -0.050742,0.084084 -0.050742,0.1892847 0,0.2733683 l 0.7927166,1.3223999 c 0.047651,0.079766 0.1339445,0.1284634 0.2268595,0.1286743 h 1.5875 c 0.092915,-2.109e-4 0.1792087,-0.048908 0.2268596,-0.1286743 l 0.7927165,-1.3223999 c 0.050742,-0.084084 0.050742,-0.1892848 0,-0.2733683 L -1.995192,6.19839 C -2.0428429,6.1186237 -2.1291365,6.0699266 -2.2220516,6.0697157 Z m 0.79375,0.79375 c 0.4397375,0 0.79375,0.3540125 0.79375,0.79375 0,0.4397375 -0.3540125,0.79375 -0.79375,0.79375 -0.4397375,0 -0.79375,-0.3540125 -0.79375,-0.79375 0,-0.4397375 0.3540125,-0.79375 0.79375,-0.79375 z"
         id="path837" />
    </g>
  </g>
</svg>
