<?xml version="1.0" encoding="UTF-8" standalone="no"?>
<svg
   xmlns:dc="http://purl.org/dc/elements/1.1/"
   xmlns:cc="http://creativecommons.org/ns#"
   xmlns:rdf="http://www.w3.org/1999/02/22-rdf-syntax-ns#"
   xmlns:svg="http://www.w3.org/2000/svg"
   xmlns="http://www.w3.org/2000/svg"
   xmlns:sodipodi="http://sodipodi.sourceforge.net/DTD/sodipodi-0.dtd"
   xmlns:inkscape="http://www.inkscape.org/namespaces/inkscape"
   height="32"
   viewBox="0 0 8.4666664 8.4666669"
   width="32"
   version="1.1"
   id="svg6"
   sodipodi:docname="preferences-desktop-gestures-screenedges.svg"
   inkscape:version="0.92.4 5da689c313, 2019-01-14">
  <metadata
     id="metadata10">
    <rdf:RDF>
      <cc:Work
         rdf:about="">
        <dc:format>image/svg+xml</dc:format>
        <dc:type
           rdf:resource="http://purl.org/dc/dcmitype/StillImage" />
        <dc:title />
      </cc:Work>
    </rdf:RDF>
  </metadata>
  <sodipodi:namedview
     pagecolor="#ffffff"
     bordercolor="#666666"
     borderopacity="1"
     objecttolerance="10"
     gridtolerance="10"
     guidetolerance="10"
     inkscape:pageopacity="0"
     inkscape:pageshadow="2"
     inkscape:window-width="1870"
     inkscape:window-height="1141"
     id="namedview8"
     showgrid="true"
     inkscape:zoom="10.429825"
     inkscape:cx="25.9691"
     inkscape:cy="18.902771"
     inkscape:window-x="50"
     inkscape:window-y="30"
     inkscape:window-maximized="1"
     inkscape:current-layer="svg6" />
  <defs
     id="defs2">
    <style
       type="text/css"
       id="current-color-scheme">
      .ColorScheme-Text {
        color:#36404d;
      }
      </style>
  </defs>
  <g
     id="g860">
    <path
       inkscape:connector-curvature="0"
       style="fill:#3079cd;fill-opacity:1;stroke-width:0.26458341"
       d="m -22.875247,-2.2691384 c -0.146582,0 -0.264583,0.1180042 -0.264583,0.2645834 v 6.8791666 c 0,0.1465792 0.118001,0.2645833 0.264583,0.2645833 h 7.9375 c 0.146581,0 0.264583,-0.1180041 0.264583,-0.2645833 V -2.004555 c 0,-0.1465792 -0.118002,-0.2645834 -0.264583,-0.2645834 h -3.704167 -0.79375 z"
       id="path12329-7" />
    <path
       id="path2592"
       d="m -20.75858,-2.0045538 a 2.1166667,2.1166667 0 0 1 -0.01034,0.2113566 2.1166667,2.1166667 0 0 1 -0.03204,0.2092896 2.1166667,2.1166667 0 0 1 -0.05219,0.2046386 2.1166667,2.1166667 0 0 1 -0.07235,0.1989543 2.1166667,2.1166667 0 0 1 -0.09198,0.190686 2.1166667,2.1166667 0 0 1 -0.110587,0.1803507 2.1166667,2.1166667 0 0 1 -0.128158,0.1684653 2.1166667,2.1166667 0 0 1 -0.144177,0.1545124 2.1166667,2.1166667 0 0 1 -0.159164,0.1400432 2.1166667,2.1166667 0 0 1 -0.172082,0.12299 2.1166667,2.1166667 0 0 1 -0.183452,0.104903 2.1166667,2.1166667 0 0 1 -0.193269,0.0868164 2.1166667,2.1166667 0 0 1 -0.200505,0.0666626 2.1166667,2.1166667 0 0 1 -0.206706,0.045992 2.1166667,2.1166667 0 0 1 -0.209806,0.0258392 2.1166667,2.1166667 0 0 1 -0.149862,0.005167 v 3.4395833 h 6.287471 a 2.1166667,2.1166667 0 0 1 0.03101,-0.040824 2.1166667,2.1166667 0 0 1 0.144177,-0.1545124 2.1166667,2.1166667 0 0 1 0.159164,-0.1400432 2.1166667,2.1166667 0 0 1 0.172082,-0.1229899 2.1166667,2.1166667 0 0 1 0.183452,-0.1049031 2.1166667,2.1166667 0 0 1 0.193269,-0.086816 2.1166667,2.1166667 0 0 1 0.200505,-0.066663 2.1166667,2.1166667 0 0 1 0.206706,-0.045992 2.1166667,2.1166667 0 0 1 0.209806,-0.025839 2.1166667,2.1166667 0 0 1 0.149862,-0.00517 v -4.7625 h -3.96875 -0.529167 z"
       style="fill:#44acff;fill-opacity:1;stroke-width:0.26458341"
       inkscape:connector-curvature="0" />
    <path
       id="path2604"
       d="m -16.768643,3.8162783 h -6.106604 v 1.0583333 h 5.820833 a 2.1166667,2.1166667 0 0 1 0.01034,-0.2113566 2.1166667,2.1166667 0 0 1 0.03204,-0.2092896 2.1166667,2.1166667 0 0 1 0.05219,-0.2046386 2.1166667,2.1166667 0 0 1 0.07235,-0.1989542 2.1166667,2.1166667 0 0 1 0.09198,-0.1906863 2.1166667,2.1166667 0 0 1 0.02687,-0.043408 z"
       style="fill:#ebf2fa;fill-opacity:1;stroke:none;stroke-width:0.10583334;stroke-linecap:round;stroke-linejoin:round;stroke-miterlimit:4;stroke-dasharray:none;stroke-opacity:1"
       inkscape:connector-curvature="0" />
    <path
       inkscape:connector-curvature="0"
       style="fill:#ebf2fa;fill-opacity:1;stroke-width:0.26458332"
       d="m -19.96483,-0.6816371 c -0.14658,0 -0.264584,0.1180041 -0.264584,0.2645833 0,0.1465792 0.118004,0.2645833 0.264584,0.2645833 0.146579,0 0.264583,-0.1180041 0.264583,-0.2645833 0,-0.1465792 -0.118004,-0.2645833 -0.264583,-0.2645833 z m 1.5875,0 -0.529167,0.5291666 0.79375,0.7937501 -0.79375,0.79375 0.529167,0.5291666 0.79375,-0.79375 0.529166,-0.5291666 -0.529166,-0.5291667 z m -1.984375,1.3229167 c -0.219869,0 -0.396876,0.1770062 -0.396876,0.396875 0,0.2198687 0.177007,0.396875 0.396876,0.396875 0.219868,0 0.396875,-0.1770063 0.396875,-0.396875 0,-0.2198688 -0.177007,-0.396875 -0.396875,-0.396875 z m 0.750858,1.3229166 c -0.293158,0 -0.529166,0.2360084 -0.529166,0.5291667 0,0.2931583 0.236008,0.5291667 0.529166,0.5291667 0.293159,0 0.529167,-0.2360084 0.529167,-0.5291667 0,-0.2931583 -0.236008,-0.5291667 -0.529167,-0.5291667 z"
       id="path4783-5-3" />
    <path
       id="path1799"
       d="m -21.023164,-2.0045538 a 1.8520833,1.8520833 0 0 1 -1.852083,1.8520833 v -1.8520833 z"
       style="fill:#ebf2fa;fill-opacity:1;stroke:none;stroke-width:0.52916664;stroke-linecap:round;stroke-linejoin:round;stroke-miterlimit:4;stroke-dasharray:none;stroke-opacity:1"
       inkscape:connector-curvature="0" />
    <path
       id="path1799-1"
       d="m -16.78983,4.8746156 a 1.8520833,1.8520833 0 0 1 1.852083,-1.8520834 v 1.8520834 z"
       style="fill:#ebf2fa;fill-opacity:1;stroke:none;stroke-width:0.52916664;stroke-linecap:round;stroke-linejoin:round;stroke-miterlimit:4;stroke-dasharray:none;stroke-opacity:1"
       inkscape:connector-curvature="0" />
  </g>
  <g
     id="g889"
     transform="translate(4.0539548,1.7220339)">
    <path
       inkscape:connector-curvature="0"
       style="fill:#4a73c6;fill-opacity:1;stroke-width:0.26458341"
       d="m -3.7893715,-1.1928672 c -0.1465818,0 -0.2645833,0.1180042 -0.2645833,0.26458339 V 5.9508828 c 0,0.1465792 0.1180015,0.2645833 0.2645833,0.2645833 h 7.9375 c 0.1465816,0 0.2645833,-0.1180041 0.2645833,-0.2645833 v -6.87916661 c 0,-0.14657919 -0.118002,-0.26458339 -0.2645833,-0.26458339 h -3.70416657 -0.79375 z"
       id="path12329-7-3" />
    <path
       style="fill:#5ca5ff;fill-opacity:1;stroke-width:1.00000024"
       d="M 9 3 A 8.0000001 8.0000001 0 0 1 8.9609375 3.7988281 A 8.0000001 8.0000001 0 0 1 8.8398438 4.5898438 A 8.0000001 8.0000001 0 0 1 8.6425781 5.3632812 A 8.0000001 8.0000001 0 0 1 8.3691406 6.1152344 A 8.0000001 8.0000001 0 0 1 8.0214844 6.8359375 A 8.0000001 8.0000001 0 0 1 7.6035156 7.5175781 A 8.0000001 8.0000001 0 0 1 7.1191406 8.1542969 A 8.0000001 8.0000001 0 0 1 6.5742188 8.7382812 A 8.0000001 8.0000001 0 0 1 5.9726562 9.2675781 A 8.0000001 8.0000001 0 0 1 5.3222656 9.7324219 A 8.0000001 8.0000001 0 0 1 4.6289062 10.128906 A 8.0000001 8.0000001 0 0 1 3.8984375 10.457031 A 8.0000001 8.0000001 0 0 1 3.140625 10.708984 A 8.0000001 8.0000001 0 0 1 2.359375 10.882812 A 8.0000001 8.0000001 0 0 1 1.5664062 10.980469 A 8.0000001 8.0000001 0 0 1 1 11 L 1 24 L 1 25 L 24.080078 25 A 8.0000001 8.0000001 0 0 1 24.396484 24.482422 A 8.0000001 8.0000001 0 0 1 24.763672 24 A 8.0000001 8.0000001 0 0 1 24.880859 23.845703 A 8.0000001 8.0000001 0 0 1 25.425781 23.261719 A 8.0000001 8.0000001 0 0 1 26.027344 22.732422 A 8.0000001 8.0000001 0 0 1 26.677734 22.267578 A 8.0000001 8.0000001 0 0 1 27.371094 21.871094 A 8.0000001 8.0000001 0 0 1 28.101562 21.542969 A 8.0000001 8.0000001 0 0 1 28.859375 21.291016 A 8.0000001 8.0000001 0 0 1 29.640625 21.117188 A 8.0000001 8.0000001 0 0 1 30.433594 21.019531 A 8.0000001 8.0000001 0 0 1 31 21 L 31 3 L 16 3 L 14 3 L 9 3 z "
       transform="matrix(0.26458333,0,0,0.26458333,-4.0539548,-1.7220339)"
       id="path1821" />
    <path
       id="path2604-7"
       d="m 2.3172325,4.8925495 h -6.106604 v 1.0583333 h 5.8208334 a 2.1166667,2.1166667 0 0 1 0.010335,-0.2113566 2.1166667,2.1166667 0 0 1 0.032039,-0.2092896 2.1166667,2.1166667 0 0 1 0.052193,-0.2046386 2.1166667,2.1166667 0 0 1 0.072347,-0.1989542 2.1166667,2.1166667 0 0 1 0.091984,-0.1906863 2.1166667,2.1166667 0 0 1 0.026873,-0.043408 z"
       style="fill:#ebf2fa;fill-opacity:1;stroke:none;stroke-width:0.10583334;stroke-linecap:round;stroke-linejoin:round;stroke-miterlimit:4;stroke-dasharray:none;stroke-opacity:1"
       inkscape:connector-curvature="0" />
    <path
       inkscape:connector-curvature="0"
       style="fill:#ebf2fa;fill-opacity:1;stroke-width:0.26458332"
       d="m -0.87895477,0.39463408 c -0.14657923,0 -0.26458333,0.1180041 -0.26458333,0.2645833 0,0.1465792 0.1180041,0.2645833 0.26458333,0.2645833 0.1465792,0 0.2645833,-0.1180041 0.2645833,-0.2645833 0,-0.1465792 -0.1180041,-0.2645833 -0.2645833,-0.2645833 z m 1.5875,0 -0.5291667,0.5291666 0.79375,0.79375012 -0.79375,0.79375 0.5291667,0.5291666 L 1.5022952,2.2467174 2.0314619,1.7175508 1.5022952,1.1883841 Z M -1.2758298,1.7175508 c -0.2198689,0 -0.3968751,0.1770062 -0.3968751,0.396875 0,0.2198687 0.1770062,0.396875 0.3968751,0.396875 0.2198687,0 0.39687503,-0.1770063 0.39687503,-0.396875 0,-0.2198688 -0.17700633,-0.396875 -0.39687503,-0.396875 z m 0.75085873,1.3229166 c -0.2931584,0 -0.52916673,0.2360084 -0.52916673,0.5291667 0,0.2931583 0.23600833,0.5291667 0.52916673,0.5291667 0.2931583,0 0.5291666,-0.2360084 0.5291666,-0.5291667 0,-0.2931583 -0.2360083,-0.5291667 -0.5291666,-0.5291667 z"
       id="path4783-5-3-5" />
    <path
       id="path1799-3"
       d="m -1.9372881,-0.92828262 a 1.8520833,1.8520833 0 0 1 -1.8520833,1.8520833 v -1.8520833 z"
       style="fill:#ebf2fa;fill-opacity:1;stroke:none;stroke-width:0.52916664;stroke-linecap:round;stroke-linejoin:round;stroke-miterlimit:4;stroke-dasharray:none;stroke-opacity:1"
       inkscape:connector-curvature="0" />
    <path
       id="path1799-1-5"
       d="M 2.2960452,5.9508868 A 1.8520833,1.8520833 0 0 1 4.1481285,4.0988034 v 1.8520834 z"
       style="fill:#ebf2fa;fill-opacity:1;stroke:none;stroke-width:0.52916664;stroke-linecap:round;stroke-linejoin:round;stroke-miterlimit:4;stroke-dasharray:none;stroke-opacity:1"
       inkscape:connector-curvature="0" />
  </g>
</svg>
