<?xml version="1.0" encoding="UTF-8" standalone="no"?>
<svg
   xmlns:dc="http://purl.org/dc/elements/1.1/"
   xmlns:cc="http://creativecommons.org/ns#"
   xmlns:rdf="http://www.w3.org/1999/02/22-rdf-syntax-ns#"
   xmlns:svg="http://www.w3.org/2000/svg"
   xmlns="http://www.w3.org/2000/svg"
   xmlns:sodipodi="http://sodipodi.sourceforge.net/DTD/sodipodi-0.dtd"
   xmlns:inkscape="http://www.inkscape.org/namespaces/inkscape"
   height="32"
   viewBox="0 0 8.4666664 8.4666669"
   width="32"
   version="1.1"
   id="svg6"
   sodipodi:docname="preferences-system-network-iscsi.svg"
   inkscape:version="0.92.4 5da689c313, 2019-01-14">
  <metadata
     id="metadata10">
    <rdf:RDF>
      <cc:Work
         rdf:about="">
        <dc:format>image/svg+xml</dc:format>
        <dc:type
           rdf:resource="http://purl.org/dc/dcmitype/StillImage" />
        <dc:title></dc:title>
      </cc:Work>
    </rdf:RDF>
  </metadata>
  <sodipodi:namedview
     pagecolor="#ffffff"
     bordercolor="#666666"
     borderopacity="1"
     objecttolerance="10"
     gridtolerance="10"
     guidetolerance="10"
     inkscape:pageopacity="0"
     inkscape:pageshadow="2"
     inkscape:window-width="1870"
     inkscape:window-height="1141"
     id="namedview8"
     showgrid="true"
     inkscape:zoom="14.75"
     inkscape:cx="-14.644068"
     inkscape:cy="8"
     inkscape:window-x="50"
     inkscape:window-y="30"
     inkscape:window-maximized="1"
     inkscape:current-layer="svg6">
    <inkscape:grid
       type="xygrid"
       id="grid1683" />
  </sodipodi:namedview>
  <defs
     id="defs2">
    <style
       type="text/css"
       id="current-color-scheme">
      .ColorScheme-Text {
        color:#36404d;
      }
      </style>
  </defs>
  <g
     id="g1681"
     transform="translate(9.0541312,-1.2847988)">
    <path
       inkscape:connector-curvature="0"
       style="fill:#36404d;fill-opacity:1;stroke:none;stroke-width:0.52916664;stroke-linecap:round;stroke-linejoin:round;stroke-miterlimit:4;stroke-dasharray:none;stroke-dashoffset:0;stroke-opacity:1"
       d="m -7.9957979,7.1056321 h 6.3500001 c 0.2931583,0 0.5291666,0.2360083 0.5291666,0.5291667 v 1.3229166 c 0,0.2931584 -0.2360083,0.5291667 -0.5291666,0.5291667 h -6.3500001 c -0.2931583,0 -0.5291666,-0.2360083 -0.5291666,-0.5291667 V 7.6347988 c 0,-0.2931584 0.2360083,-0.5291667 0.5291666,-0.5291667 z"
       id="rect842" />
    <path
       inkscape:connector-curvature="0"
       style="fill:#f1f1f1;fill-opacity:1;stroke:none;stroke-width:0.52916664;stroke-linecap:round;stroke-linejoin:round;stroke-miterlimit:4;stroke-dasharray:none;stroke-dashoffset:0;stroke-opacity:1"
       d="m -7.9957979,7.3702154 c -0.1465791,0 -0.2645833,0.1180042 -0.2645833,0.2645834 v 1.3229166 c 0,0.1465792 0.1180042,0.2645834 0.2645833,0.2645834 h 0.2645834 V 8.6931321 h 5.0270833 v 0.5291667 h 1.0583334 c 0.1465791,0 0.2645833,-0.1180042 0.2645833,-0.2645834 V 7.6347988 c 0,-0.1465792 -0.1180042,-0.2645834 -0.2645833,-0.2645834 z"
       id="path1024" />
    <path
       inkscape:connector-curvature="0"
       style="fill:#36404d;fill-opacity:1;stroke:none;stroke-width:0.52916664;stroke-linecap:round;stroke-linejoin:round;stroke-miterlimit:4;stroke-dasharray:none;stroke-dashoffset:0;stroke-opacity:1"
       d="m -7.9957979,1.5493821 h 6.3500001 c 0.2931583,0 0.5291666,0.2360084 0.5291666,0.5291667 v 5.8208333 c 0,0.2931583 -0.2360083,0.5291667 -0.5291666,0.5291667 h -6.3500001 c -0.2931583,0 -0.5291666,-0.2360084 -0.5291666,-0.5291667 V 2.0785488 c 0,-0.2931583 0.2360083,-0.5291667 0.5291666,-0.5291667 z"
       id="rect838" />
    <path
       style="fill:#4b6477;fill-opacity:1;stroke:none;stroke-width:0.52916664;stroke-linecap:round;stroke-linejoin:round;stroke-miterlimit:4;stroke-dasharray:none;stroke-dashoffset:0;stroke-opacity:1"
       d="m -7.9957979,1.8139655 c -0.1465791,0 -0.2645833,0.1180041 -0.2645833,0.2645833 v 5.8208333 c 0,0.1465792 0.1180042,0.2645833 0.2645833,0.2645833 h 6.3500001 c 0.1465791,0 0.2645833,-0.1180041 0.2645833,-0.2645833 V 2.0785488 c 0,-0.1465792 -0.1180042,-0.2645833 -0.2645833,-0.2645833 z m 0.2645834,0.2645833 c 0.1465791,0 0.2645833,0.1180042 0.2645833,0.2645833 0,0.1465792 -0.1180042,0.2645833 -0.2645833,0.2645833 -0.1465792,0 -0.2645834,-0.1180041 -0.2645834,-0.2645833 0,-0.1465791 0.1180042,-0.2645833 0.2645834,-0.2645833 z m 5.8208333,0 c 0.1465792,0 0.2645834,0.1180042 0.2645834,0.2645833 0,0.1465792 -0.1180042,0.2645833 -0.2645834,0.2645833 -0.1465791,0 -0.2645833,-0.1180041 -0.2645833,-0.2645833 0,-0.1465791 0.1180042,-0.2645833 0.2645833,-0.2645833 z m -5.8208333,2.38125 c 0.1465791,0 0.2645833,0.1180041 0.2645833,0.2645833 0,0.1465792 -0.1180042,0.2645833 -0.2645833,0.2645833 -0.1465792,0 -0.2645834,-0.1180041 -0.2645834,-0.2645833 0,-0.1465792 0.1180042,-0.2645833 0.2645834,-0.2645833 z m 5.8208333,0 c 0.1465792,0 0.2645834,0.1180041 0.2645834,0.2645833 0,0.1465792 -0.1180042,0.2645833 -0.2645834,0.2645833 -0.1465791,0 -0.2645833,-0.1180041 -0.2645833,-0.2645833 0,-0.1465792 0.1180042,-0.2645833 0.2645833,-0.2645833 z m -5.8208333,2.9104166 c 0.1465791,0 0.2645833,0.1180042 0.2645833,0.2645834 0,0.1465791 -0.1180042,0.2645833 -0.2645833,0.2645833 -0.1465792,0 -0.2645834,-0.1180042 -0.2645834,-0.2645833 0,-0.1465792 0.1180042,-0.2645834 0.2645834,-0.2645834 z m 5.8208333,0 c 0.1465792,0 0.2645834,0.1180042 0.2645834,0.2645834 0,0.1465791 -0.1180042,0.2645833 -0.2645834,0.2645833 -0.1465791,0 -0.2645833,-0.1180042 -0.2645833,-0.2645833 0,-0.1465792 0.1180042,-0.2645834 0.2645833,-0.2645834 z"
       id="rect840"
       inkscape:connector-curvature="0"
       sodipodi:nodetypes="sssssssssssssssssssssssssssssssssssssss" />
    <path
       inkscape:connector-curvature="0"
       style="opacity:1;fill:#f1f1f1;fill-opacity:1;stroke:none;stroke-width:0.52916664;stroke-linecap:round;stroke-linejoin:round;stroke-miterlimit:4;stroke-dasharray:none;stroke-opacity:1"
       d="m -7.4666312,8.9577154 v 0.2645834 h 0.5291667 V 8.9577154 Z m 0.79375,0 v 0.2645834 h 0.5291667 V 8.9577154 Z m 0.79375,0 v 0.2645834 h 0.5291667 V 8.9577154 Z m 0.79375,0 v 0.2645834 h 0.5291667 V 8.9577154 Z m 0.79375,0 v 0.2645834 h 0.5291667 V 8.9577154 Z m 0.79375,0 v 0.2645834 h 0.5291667 V 8.9577154 Z"
       id="rect848" />
    <path
       id="rect883"
       d="m -4.8207978,4.9889654 h 3.7041664 c 0.29315827,0 0.52916657,0.2360084 0.52916657,0.5291667 v 3.7041667 c 0,0.2931583 -0.2360083,0.5291666 -0.52916657,0.5291666 h -3.7041664 c -0.2931584,0 -0.5291667,-0.2360083 -0.5291667,-0.5291666 V 5.5181321 c 0,-0.2931583 0.2360083,-0.5291667 0.5291667,-0.5291667 z"
       style="fill:#a3b7cc;fill-opacity:1;stroke:none;stroke-width:0.52916664;stroke-linecap:round;stroke-linejoin:round;stroke-miterlimit:4;stroke-dasharray:none;stroke-opacity:1"
       inkscape:connector-curvature="0" />
    <path
       id="rect885"
       d="m -4.8207978,5.2535488 h 3.7041664 c 0.14657907,0 0.26458327,0.1180041 0.26458327,0.2645833 v 3.7041667 c 0,0.1465791 -0.1180042,0.2645833 -0.26458327,0.2645833 h -3.7041664 c -0.1465792,0 -0.2645834,-0.1180042 -0.2645834,-0.2645833 V 5.5181321 c 0,-0.1465792 0.1180042,-0.2645833 0.2645834,-0.2645833 z"
       style="fill:#f1f1f1;fill-opacity:1;stroke:none;stroke-width:0.52916664;stroke-linecap:round;stroke-linejoin:round;stroke-miterlimit:4;stroke-dasharray:none;stroke-opacity:1"
       inkscape:connector-curvature="0" />
    <path
       id="rect897"
       d="m -4.5562145,5.7827154 v 0.5291667 h -0.2645833 v 0.79375 h 0.2645833 v 0.2645833 h -0.2645833 v 0.79375 h 0.2645833 v 0.5291667 h 0.79375 v 0.2645833 h 0.5291667 v 0.2645834 h 0.5291666 V 8.9577154 h 0.5291667 V 8.6931321 h 0.79375 V 8.1639654 h 0.2645833 v -0.79375 H -1.3812145 V 7.1056321 h 0.2645833 v -0.79375 H -1.3812145 V 5.7827154 Z"
       style="fill:#363c4d;fill-opacity:1;stroke:none;stroke-width:0.52916664;stroke-linecap:round;stroke-linejoin:round;stroke-miterlimit:4;stroke-dasharray:none;stroke-opacity:1"
       inkscape:connector-curvature="0" />
    <path
       id="rect941"
       d="m -4.2916314,6.3118824 h 0.5291669 v 1.0583333 h -0.5291669 z"
       style="fill:#ffd84d;fill-opacity:1;stroke:none;stroke-width:0.52916664;stroke-linecap:round;stroke-linejoin:round;stroke-miterlimit:4;stroke-dasharray:none;stroke-opacity:1"
       inkscape:connector-curvature="0" />
    <path
       id="rect941-9"
       d="m -2.1749645,6.3118824 h 0.5291667 V 7.370216 h -0.5291667 z"
       style="fill:#ffd84d;fill-opacity:1;stroke:none;stroke-width:0.52916664;stroke-linecap:round;stroke-linejoin:round;stroke-miterlimit:4;stroke-dasharray:none;stroke-opacity:1"
       inkscape:connector-curvature="0" />
    <path
       id="rect941-1"
       d="m -3.2332981,6.3118824 h 0.5291669 V 7.370216 h -0.5291669 z"
       style="fill:#ffd84d;fill-opacity:1;stroke:none;stroke-width:0.52916664;stroke-linecap:round;stroke-linejoin:round;stroke-miterlimit:4;stroke-dasharray:none;stroke-opacity:1"
       inkscape:connector-curvature="0" />
  </g>
</svg>
