<?xml version="1.0" encoding="UTF-8" standalone="no"?>
<!-- Created with Inkscape (http://www.inkscape.org/) -->

<svg
   width="32"
   height="32"
   viewBox="0 0 32 32"
   version="1.1"
   id="svg8"
   inkscape:version="1.2 (dc2aedaf03, 2022-05-15)"
   sodipodi:docname="face-smile.svg"
   xml:space="preserve"
   xmlns:inkscape="http://www.inkscape.org/namespaces/inkscape"
   xmlns:sodipodi="http://sodipodi.sourceforge.net/DTD/sodipodi-0.dtd"
   xmlns:xlink="http://www.w3.org/1999/xlink"
   xmlns="http://www.w3.org/2000/svg"
   xmlns:svg="http://www.w3.org/2000/svg"
   xmlns:rdf="http://www.w3.org/1999/02/22-rdf-syntax-ns#"
   xmlns:cc="http://creativecommons.org/ns#"
   xmlns:dc="http://purl.org/dc/elements/1.1/"><title
     id="title7895">Antu icon Theme</title><defs
     id="defs2"><style
       id="current-color-scheme"
       type="text/css">
      .ColorScheme-Text {
        color:#122036;
      }
      </style><style
       type="text/css"
       id="current-color-scheme-5">
      .ColorScheme-Text {
        color:#122036;
      }
      </style><style
       type="text/css"
       id="current-color-scheme-2">
      .ColorScheme-Text {
        color:#122036;
      }
      </style><style
       type="text/css"
       id="current-color-scheme-1">
      .ColorScheme-Text {
        color:#122036;
      }
      </style><style
       id="current-color-scheme-10"
       type="text/css">
      .ColorScheme-Text {
        color:#122036;
      }
      </style><style
       id="current-color-scheme-7"
       type="text/css">
      .ColorScheme-Text {
        color:#122036;
      }
      </style><style
       type="text/css"
       id="current-color-scheme-5-5">
      .ColorScheme-Text {
        color:#122036;
      }
      </style><style
       type="text/css"
       id="current-color-scheme-2-3">
      .ColorScheme-Text {
        color:#122036;
      }
      </style><style
       type="text/css"
       id="current-color-scheme-1-5">
      .ColorScheme-Text {
        color:#122036;
      }
      </style><style
       id="current-color-scheme-10-6"
       type="text/css">
      .ColorScheme-Text {
        color:#122036;
      }
      </style><style
       type="text/css"
       id="current-color-scheme-0">
      .ColorScheme-Text {
        color:#122036;
      }
      </style><style
       id="current-color-scheme-27"
       type="text/css">
      .ColorScheme-Text {
        color:#122036;
      }
      </style><style
       type="text/css"
       id="current-color-scheme-5-0">
      .ColorScheme-Text {
        color:#122036;
      }
      </style><style
       type="text/css"
       id="current-color-scheme-2-9">
      .ColorScheme-Text {
        color:#122036;
      }
      </style><style
       type="text/css"
       id="current-color-scheme-1-3">
      .ColorScheme-Text {
        color:#122036;
      }
      </style><style
       id="current-color-scheme-10-60"
       type="text/css">
      .ColorScheme-Text {
        color:#122036;
      }
      </style><style
       type="text/css"
       id="current-color-scheme-0-6">
      .ColorScheme-Text {
        color:#122036;
      }
      </style><style
       type="text/css"
       id="current-color-scheme-26">
      .ColorScheme-Text {
        color:#122036;
      }
      </style><style
       type="text/css"
       id="current-color-scheme-675">
      .ColorScheme-Text {
        color:#36404d;
      }
      </style><style
       type="text/css"
       id="current-color-scheme-67">
      .ColorScheme-Text {
        color:#122036;
      }
      </style><style
       type="text/css"
       id="current-color-scheme-7-3">
      .ColorScheme-Text {
        color:#122036;
      }
      </style><style
       type="text/css"
       id="current-color-scheme-5-56">
      .ColorScheme-Text {
        color:#122036;
      }
      </style><style
       type="text/css"
       id="current-color-scheme-6">
      .ColorScheme-Text {
        color:#122036;
      }
      </style><style
       type="text/css"
       id="current-color-scheme-1-29">
      .ColorScheme-Text {
        color:#122036;
      }
      </style><style
       id="current-color-scheme-10-1"
       type="text/css">
      .ColorScheme-Text {
        color:#122036;
      }
      </style><style
       id="current-color-scheme-5-7"
       type="text/css">
      .ColorScheme-Text {
        color:#122036;
      }
      </style><style
       id="current-color-scheme-1-2"
       type="text/css">
      .ColorScheme-Text {
        color:#122036;
      }
      </style><style
       type="text/css"
       id="current-color-scheme-10-9">
      .ColorScheme-Text {
        color:#122036;
      }
      </style><style
       type="text/css"
       id="current-color-scheme-2-2">
      .ColorScheme-Text {
        color:#36404d;
      }
      </style><style
       type="text/css"
       id="current-color-scheme-67-9">
      .ColorScheme-Text {
        color:#122036;
      }
      </style><style
       type="text/css"
       id="current-color-scheme-7-1">
      .ColorScheme-Text {
        color:#122036;
      }
      </style><style
       type="text/css"
       id="current-color-scheme-5-2">
      .ColorScheme-Text {
        color:#122036;
      }
      </style><style
       type="text/css"
       id="current-color-scheme-6-7">
      .ColorScheme-Text {
        color:#122036;
      }
      </style><style
       type="text/css"
       id="current-color-scheme-1-0">
      .ColorScheme-Text {
        color:#122036;
      }
      </style><style
       id="current-color-scheme-10-93"
       type="text/css">
      .ColorScheme-Text {
        color:#122036;
      }
      </style><style
       id="current-color-scheme-5-7-6"
       type="text/css">
      .ColorScheme-Text {
        color:#122036;
      }
      </style><style
       id="current-color-scheme-1-2-0"
       type="text/css">
      .ColorScheme-Text {
        color:#122036;
      }
      </style><style
       type="text/css"
       id="current-color-scheme-10-9-6">
      .ColorScheme-Text {
        color:#122036;
      }
      </style><linearGradient
       id="b"
       gradientTransform="matrix(0.64285644,0,0,0.64285644,-246.50993,-330.86975)"
       gradientUnits="userSpaceOnUse"
       x2="0"
       y1="545.79797"
       y2="517.79797"><stop
         offset="0"
         stop-color="#fdc95f"
         id="stop4327" /><stop
         offset="1"
         stop-color="#fdd583"
         id="stop4329" /></linearGradient><linearGradient
       id="c"
       gradientUnits="userSpaceOnUse"
       x1="11"
       x2="11"
       xlink:href="#a"
       y1="11"
       y2="7" /><linearGradient
       id="a"><stop
         offset="0"
         stop-color="#814b13"
         id="stop4322" /><stop
         offset="1"
         stop-color="#9d5b17"
         id="stop4324" /></linearGradient><linearGradient
       id="d"
       gradientUnits="userSpaceOnUse"
       x1="11"
       x2="11"
       xlink:href="#a"
       y1="16"
       y2="13" /></defs><sodipodi:namedview
     id="base"
     pagecolor="#ffffff"
     bordercolor="#666666"
     borderopacity="1.0"
     inkscape:pageopacity="0.0"
     inkscape:pageshadow="2"
     inkscape:zoom="22.4"
     inkscape:cx="28.325893"
     inkscape:cy="19.397321"
     inkscape:document-units="px"
     inkscape:current-layer="layer1-7"
     showgrid="true"
     units="px"
     inkscape:window-width="2160"
     inkscape:window-height="1335"
     inkscape:window-x="0"
     inkscape:window-y="0"
     inkscape:window-maximized="1"
     objecttolerance="10"
     gridtolerance="10"
     guidetolerance="10"
     inkscape:showpageshadow="2"
     inkscape:pagecheckerboard="0"
     inkscape:deskcolor="#d1d1d1"><inkscape:grid
       type="xygrid"
       id="grid7897"
       empspacing="4" /></sodipodi:namedview><metadata
     id="metadata5"><rdf:RDF><cc:Work
         rdf:about=""><dc:format>image/svg+xml</dc:format><dc:type
           rdf:resource="http://purl.org/dc/dcmitype/StillImage" /><dc:title>Antu icon Theme</dc:title></cc:Work></rdf:RDF></metadata><g
     inkscape:label="Capa 1"
     inkscape:groupmode="layer"
     id="layer1"
     transform="translate(0,-282.64999)"><g
       inkscape:label="Capa 1"
       id="layer1-7"
       transform="matrix(5.6692916,0,0,5.6692916,-2.0000001,280.64999)"><path
         id="rect15701"
         style="opacity:1;fill:#ffba54;fill-opacity:1;stroke-width:0.529167;stroke-linecap:round;stroke-linejoin:round;stroke-miterlimit:1.8;paint-order:fill markers stroke;stop-color:#000000"
         d="m 3.1749999,0.52916664 c 1.4657916,0 2.6458332,1.18004166 2.6458332,2.64583326 0,1.4657916 -1.1800416,2.6458332 -2.6458332,2.6458332 -1.4657916,0 -2.64583326,-1.1800416 -2.64583326,-2.6458332 0,-1.4657916 1.18004166,-2.64583326 2.64583326,-2.64583326 z" /><path
         id="rect15701-2"
         style="fill:#ffeba0;stroke-width:0.493889;stroke-linecap:round;stroke-linejoin:round;stroke-miterlimit:1.8;paint-order:fill markers stroke;stop-color:#000000;fill-opacity:1"
         d="m 3.1749999,0.70555555 c 1.3680721,0 2.4694443,1.10137215 2.4694443,2.46944435 0,1.3680721 -1.1013722,2.4694443 -2.4694443,2.4694443 -1.3680722,0 -2.46944435,-1.1013722 -2.46944435,-2.4694443 0,-1.3680722 1.10137215,-2.46944435 2.46944435,-2.46944435 z" /><g
         transform="matrix(0.26458333,0,0,0.26458333,0.26561465,0.08819438)"
         id="g4342"><path
           id="rect5734"
           style="opacity:1;fill:#864e14;stroke-width:2.22222;stroke-linecap:round;stroke-linejoin:round;stroke-miterlimit:1.8;paint-order:fill markers stroke;stop-color:#000000"
           d="M 7.3294352,7 C 8.2527685,7 8.9961018,7.7433333 8.9961018,8.6666666 8.9961018,9.59 8.2527685,10.333333 7.3294352,10.333333 6.4061019,10.333333 5.6627686,9.59 5.6627686,8.6666666 5.6627686,7.7433333 6.4061019,7 7.3294352,7 Z" /><path
           id="rect5736"
           style="opacity:1;fill:#864e14;stroke-width:2.22222;stroke-linecap:round;stroke-linejoin:round;stroke-miterlimit:1.8;paint-order:fill markers stroke;stop-color:#000000"
           d="m 14.662769,7 c 0.923333,0 1.666666,0.7433333 1.666666,1.6666666 0,0.9233333 -0.743333,1.6666664 -1.666666,1.6666664 -0.923334,0 -1.666667,-0.7433331 -1.666667,-1.6666664 C 12.996102,7.7433333 13.739435,7 14.662769,7 Z" /><path
           id="path6687"
           style="opacity:1;fill:#864e14;stroke-width:2;stroke-linecap:round;stroke-linejoin:round;stroke-miterlimit:1.8;paint-order:fill markers stroke;stop-color:#000000"
           d="M 8.3294352,13.666666 H 6.9961019 a 4,4 0 0 0 1.9999999,3.463542 4,4 0 0 0 4.0000002,0 4,4 0 0 0 2,-3.463542 h -1.333334 c 0,0.04617 -0.0016,0.09244 -0.0039,0.138021 -0.0023,0.04558 -0.0059,0.09049 -0.01042,0.135417 -0.0045,0.04493 -0.01021,0.08988 -0.01693,0.134114 -0.0067,0.04423 -0.01328,0.08803 -0.02214,0.131511 -0.0089,0.04348 -0.01902,0.08624 -0.02995,0.128906 -0.01093,0.04267 -0.02351,0.0845 -0.03646,0.126302 -0.01295,0.0418 -0.02675,0.08412 -0.04167,0.125 -0.01491,0.04088 -0.03005,0.08119 -0.04687,0.121094 -0.01682,0.03991 -0.03471,0.07831 -0.05339,0.117187 -0.01868,0.03888 -0.03812,0.07809 -0.05859,0.115886 -0.02048,0.03779 -0.04288,0.07533 -0.0651,0.111979 -0.02222,0.03665 -0.0451,0.07262 -0.06901,0.108073 -0.02391,0.03545 -0.04867,0.06996 -0.07422,0.104166 -0.02555,0.03421 -0.0523,0.06736 -0.07943,0.100261 -0.02713,0.0329 -0.05468,0.06481 -0.08333,0.09635 -0.02865,0.03154 -0.05842,0.06232 -0.08854,0.09245 -0.03012,0.03012 -0.06091,0.05989 -0.09245,0.08854 -0.03154,0.02866 -0.06345,0.0562 -0.09636,0.08333 -0.0329,0.02713 -0.06606,0.05388 -0.10026,0.07943 -0.03421,0.02555 -0.06871,0.0503 -0.104167,0.07422 -0.03546,0.02391 -0.07142,0.04679 -0.108073,0.06901 -0.03665,0.02222 -0.07419,0.04463 -0.111979,0.0651 -0.03779,0.02048 -0.07701,0.03992 -0.115885,0.05859 -0.03888,0.01868 -0.07728,0.03656 -0.117188,0.05338 -0.03991,0.01682 -0.08021,0.03196 -0.121093,0.04687 -0.04088,0.01491 -0.0832,0.02872 -0.125,0.04167 -0.0418,0.01295 -0.08364,0.02553 -0.126303,0.03646 -0.04267,0.01093 -0.08543,0.0211 -0.128906,0.02995 -0.04348,0.0089 -0.08728,0.01541 -0.13151,0.02214 -0.04423,0.0067 -0.08918,0.01239 -0.134115,0.01693 -0.04493,0.0045 -0.08984,0.0081 -0.135416,0.01042 -0.04558,0.0023 -0.09186,0.0039 -0.138021,0.0039 -0.04617,0 -0.09244,-0.0016 -0.138021,-0.0039 -0.04558,-0.0023 -0.09049,-0.0059 -0.135417,-0.01042 -0.04493,-0.0045 -0.08988,-0.01021 -0.134114,-0.01693 -0.04423,-0.0067 -0.08803,-0.01328 -0.131511,-0.02214 -0.04348,-0.0089 -0.08624,-0.01902 -0.128906,-0.02995 -0.04267,-0.01093 -0.0845,-0.02351 -0.126302,-0.03646 -0.0418,-0.01295 -0.08412,-0.02675 -0.125,-0.04167 -0.04088,-0.01491 -0.081188,-0.03005 -0.1210938,-0.04687 -0.039906,-0.01682 -0.078311,-0.03471 -0.1171875,-0.05338 -0.038876,-0.01868 -0.078094,-0.03812 -0.1158854,-0.05859 -0.037791,-0.02048 -0.075328,-0.04288 -0.1119792,-0.0651 -0.036651,-0.02222 -0.072617,-0.0451 -0.1080729,-0.06901 -0.035456,-0.02391 -0.069961,-0.04867 -0.1041666,-0.07422 -0.034206,-0.02555 -0.06736,-0.0523 -0.1002604,-0.07943 -0.0329,-0.02713 -0.064814,-0.05468 -0.096354,-0.08333 -0.03154,-0.02865 -0.062323,-0.05842 -0.092448,-0.08854 -0.030125,-0.03012 -0.059887,-0.06091 -0.088542,-0.09245 -0.028655,-0.03154 -0.056204,-0.06345 -0.083333,-0.09635 -0.02713,-0.0329 -0.053878,-0.06606 -0.079427,-0.100261 -0.025549,-0.03421 -0.050305,-0.06871 -0.074219,-0.104166 -0.023914,-0.03546 -0.046787,-0.07142 -0.06901,-0.108073 -0.022224,-0.03665 -0.044626,-0.07419 -0.065104,-0.111979 -0.020479,-0.03779 -0.039916,-0.07701 -0.058594,-0.115886 -0.018678,-0.03888 -0.036563,-0.07728 -0.053385,-0.117187 -0.016823,-0.03991 -0.031962,-0.08021 -0.046875,-0.121094 -0.014913,-0.04088 -0.028719,-0.0832 -0.041667,-0.125 -0.012947,-0.0418 -0.025531,-0.08364 -0.036458,-0.126302 -0.010927,-0.04267 -0.021096,-0.08543 -0.029948,-0.128906 -0.00885,-0.04348 -0.015414,-0.08728 -0.022135,-0.131511 -0.00672,-0.04423 -0.012391,-0.08918 -0.016927,-0.134114 -0.00454,-0.04493 -0.00812,-0.08984 -0.010417,-0.135417 -0.0023,-0.04558 -0.00391,-0.09185 -0.00391,-0.138021 z" /></g></g></g></svg>
