<?xml version="1.0" encoding="UTF-8" standalone="no"?>
<svg
   xmlns:dc="http://purl.org/dc/elements/1.1/"
   xmlns:cc="http://creativecommons.org/ns#"
   xmlns:rdf="http://www.w3.org/1999/02/22-rdf-syntax-ns#"
   xmlns:svg="http://www.w3.org/2000/svg"
   xmlns="http://www.w3.org/2000/svg"
   xmlns:sodipodi="http://sodipodi.sourceforge.net/DTD/sodipodi-0.dtd"
   xmlns:inkscape="http://www.inkscape.org/namespaces/inkscape"
   height="32"
   viewBox="0 0 8.4666664 8.4666669"
   width="32"
   version="1.1"
   id="svg6"
   sodipodi:docname="preferences-system-backup.svg"
   inkscape:version="0.92.4 5da689c313, 2019-01-14">
  <metadata
     id="metadata10">
    <rdf:RDF>
      <cc:Work
         rdf:about="">
        <dc:format>image/svg+xml</dc:format>
        <dc:type
           rdf:resource="http://purl.org/dc/dcmitype/StillImage" />
        <dc:title></dc:title>
      </cc:Work>
    </rdf:RDF>
  </metadata>
  <sodipodi:namedview
     pagecolor="#ffffff"
     bordercolor="#666666"
     borderopacity="1"
     objecttolerance="10"
     gridtolerance="10"
     guidetolerance="10"
     inkscape:pageopacity="0"
     inkscape:pageshadow="2"
     inkscape:window-width="1870"
     inkscape:window-height="1141"
     id="namedview8"
     showgrid="true"
     inkscape:zoom="20.85965"
     inkscape:cx="14.474493"
     inkscape:cy="9.6754299"
     inkscape:window-x="50"
     inkscape:window-y="30"
     inkscape:window-maximized="1"
     inkscape:current-layer="svg6">
    <inkscape:grid
       type="xygrid"
       id="grid1615" />
  </sodipodi:namedview>
  <defs
     id="defs2">
    <style
       type="text/css"
       id="current-color-scheme">
      .ColorScheme-Text {
        color:#36404d;
      }
      </style>
  </defs>
  <g
     id="g1613"
     transform="translate(8.4846045,-1.7937853)">
    <path
       id="rect842"
       d="m -7.4262712,7.6146186 h 6.3500001 c 0.29315827,0 0.52916657,0.2360083 0.52916657,0.5291667 v 1.3229166 c 0,0.2931584 -0.2360083,0.5291667 -0.52916657,0.5291667 h -6.3500001 c -0.2931583,0 -0.5291666,-0.2360083 -0.5291666,-0.5291667 V 8.1437853 c 0,-0.2931584 0.2360083,-0.5291667 0.5291666,-0.5291667 z"
       style="fill:#36404d;fill-opacity:1;stroke:none;stroke-width:0.52916664;stroke-linecap:round;stroke-linejoin:round;stroke-miterlimit:4;stroke-dasharray:none;stroke-dashoffset:0;stroke-opacity:1"
       inkscape:connector-curvature="0" />
    <path
       id="path1024"
       d="m -7.4262712,7.8792019 c -0.1465791,0 -0.2645833,0.1180042 -0.2645833,0.2645834 v 1.3229166 c 0,0.1465792 0.1180042,0.2645834 0.2645833,0.2645834 h 0.2645834 V 9.2021186 h 5.0270833 v 0.5291667 h 1.0583334 c 0.14657907,0 0.26458327,-0.1180042 0.26458327,-0.2645834 V 8.1437853 c 0,-0.1465792 -0.1180042,-0.2645834 -0.26458327,-0.2645834 z"
       style="fill:#4b6477;fill-opacity:1;stroke:none;stroke-width:0.52916664;stroke-linecap:round;stroke-linejoin:round;stroke-miterlimit:4;stroke-dasharray:none;stroke-dashoffset:0;stroke-opacity:1"
       inkscape:connector-curvature="0" />
    <path
       id="rect838"
       d="m -7.4262712,2.0583686 h 6.3500001 c 0.29315827,0 0.52916657,0.2360084 0.52916657,0.5291667 v 5.8208333 c 0,0.2931583 -0.2360083,0.5291667 -0.52916657,0.5291667 h -6.3500001 c -0.2931583,0 -0.5291666,-0.2360084 -0.5291666,-0.5291667 V 2.5875353 c 0,-0.2931583 0.2360083,-0.5291667 0.5291666,-0.5291667 z"
       style="fill:#a3b7cc;fill-opacity:1;stroke:none;stroke-width:0.52916664;stroke-linecap:round;stroke-linejoin:round;stroke-miterlimit:4;stroke-dasharray:none;stroke-dashoffset:0;stroke-opacity:1"
       inkscape:connector-curvature="0" />
    <path
       sodipodi:nodetypes="sssssssssssssssssssssssssssssssssssssss"
       inkscape:connector-curvature="0"
       id="rect840"
       d="m -7.4262712,2.322952 c -0.1465791,0 -0.2645833,0.1180041 -0.2645833,0.2645833 v 5.8208333 c 0,0.1465792 0.1180042,0.2645833 0.2645833,0.2645833 h 6.3500001 c 0.14657907,0 0.26458327,-0.1180041 0.26458327,-0.2645833 V 2.5875353 c 0,-0.1465792 -0.1180042,-0.2645833 -0.26458327,-0.2645833 z m 0.2645834,0.2645833 c 0.1465791,0 0.2645833,0.1180042 0.2645833,0.2645833 0,0.1465792 -0.1180042,0.2645833 -0.2645833,0.2645833 -0.1465792,0 -0.2645834,-0.1180041 -0.2645834,-0.2645833 0,-0.1465791 0.1180042,-0.2645833 0.2645834,-0.2645833 z m 5.8208333,0 c 0.1465792,0 0.2645834,0.1180042 0.2645834,0.2645833 0,0.1465792 -0.1180042,0.2645833 -0.2645834,0.2645833 -0.1465791,0 -0.2645833,-0.1180041 -0.2645833,-0.2645833 0,-0.1465791 0.1180042,-0.2645833 0.2645833,-0.2645833 z m -5.8208333,2.38125 c 0.1465791,0 0.2645833,0.1180041 0.2645833,0.2645833 0,0.1465792 -0.1180042,0.2645833 -0.2645833,0.2645833 -0.1465792,0 -0.2645834,-0.1180041 -0.2645834,-0.2645833 0,-0.1465792 0.1180042,-0.2645833 0.2645834,-0.2645833 z m 5.8208333,0 c 0.1465792,0 0.2645834,0.1180041 0.2645834,0.2645833 0,0.1465792 -0.1180042,0.2645833 -0.2645834,0.2645833 -0.1465791,0 -0.2645833,-0.1180041 -0.2645833,-0.2645833 0,-0.1465792 0.1180042,-0.2645833 0.2645833,-0.2645833 z m -5.8208333,2.9104166 c 0.1465791,0 0.2645833,0.1180042 0.2645833,0.2645834 0,0.1465791 -0.1180042,0.2645833 -0.2645833,0.2645833 -0.1465792,0 -0.2645834,-0.1180042 -0.2645834,-0.2645833 0,-0.1465792 0.1180042,-0.2645834 0.2645834,-0.2645834 z m 5.8208333,0 c 0.1465792,0 0.2645834,0.1180042 0.2645834,0.2645834 0,0.1465791 -0.1180042,0.2645833 -0.2645834,0.2645833 -0.1465791,0 -0.2645833,-0.1180042 -0.2645833,-0.2645833 0,-0.1465792 0.1180042,-0.2645834 0.2645833,-0.2645834 z"
       style="fill:#e1ebf2;fill-opacity:1;stroke:none;stroke-width:0.52916664;stroke-linecap:round;stroke-linejoin:round;stroke-miterlimit:4;stroke-dasharray:none;stroke-dashoffset:0;stroke-opacity:1" />
    <path
       id="rect848"
       d="m -6.8971045,9.4667019 v 0.2645834 h 0.5291667 V 9.4667019 Z m 0.79375,0 v 0.2645834 h 0.5291667 V 9.4667019 Z m 0.79375,0 v 0.2645834 h 0.5291667 V 9.4667019 Z m 0.79375,0 v 0.2645834 h 0.5291667 V 9.4667019 Z m 0.79375,0 v 0.2645834 h 0.5291667 V 9.4667019 Z m 0.79375,0 v 0.2645834 h 0.5291667 V 9.4667019 Z"
       style="opacity:1;fill:#fdd837;fill-opacity:1;stroke:none;stroke-width:0.52916664;stroke-linecap:round;stroke-linejoin:round;stroke-miterlimit:4;stroke-dasharray:none;stroke-opacity:1"
       inkscape:connector-curvature="0" />
    <path
       id="rect875"
       d="m -1.8700211,9.2021186 h 0.5291666 v 0.2645833 h -0.5291666 z"
       style="opacity:1;fill:#52d089;fill-opacity:1;stroke:none;stroke-width:0.52916664;stroke-linecap:round;stroke-linejoin:round;stroke-miterlimit:4;stroke-dasharray:none;stroke-opacity:1"
       inkscape:connector-curvature="0" />
    <path
       id="rect871"
       d="m -4.2512709,3.3812879 c 1.1726334,0 2.1166667,0.9440333 2.1166667,2.1166667 0,1.1726333 -0.9440333,2.1166666 -2.1166667,2.1166666 -1.1726333,0 -2.1166666,-0.9440333 -2.1166666,-2.1166666 0,-1.1726334 0.9440333,-2.1166667 2.1166666,-2.1166667 z"
       style="fill:#36404d;fill-opacity:1;stroke:none;stroke-width:0.54652095;stroke-linecap:round;stroke-linejoin:round;stroke-miterlimit:4;stroke-dasharray:none;stroke-opacity:1"
       inkscape:connector-curvature="0" />
    <path
       id="rect871-2"
       d="m -4.2512711,3.6458712 c 1.0260541,0 1.8520833,0.8260292 1.8520833,1.8520834 0,1.0260541 -0.8260292,1.8520833 -1.8520833,1.8520833 -1.0260542,0 -1.8520834,-0.8260292 -1.8520834,-1.8520833 0,-1.0260542 0.8260292,-1.8520834 1.8520834,-1.8520834 z"
       style="fill:#4b6477;fill-opacity:1;stroke:none;stroke-width:0.47820586;stroke-linecap:round;stroke-linejoin:round;stroke-miterlimit:4;stroke-dasharray:none;stroke-opacity:1"
       inkscape:connector-curvature="0" />
    <path
       id="rect871-2-9"
       d="m -4.2512711,3.9104546 c 0.879475,0 1.5875,0.708025 1.5875,1.5875 0,0.879475 -0.708025,1.5875 -1.5875,1.5875 -0.879475,0 -1.5875,-0.708025 -1.5875,-1.5875 0,-0.879475 0.708025,-1.5875 1.5875,-1.5875 z"
       style="fill:#f1f1f1;fill-opacity:1;stroke:none;stroke-width:0.40989074;stroke-linecap:round;stroke-linejoin:round;stroke-miterlimit:4;stroke-dasharray:none;stroke-opacity:1"
       inkscape:connector-curvature="0" />
    <path
       id="path961"
       d="m -4.468829,5.6483302 c -0.019414,0.03685 -0.047026,0.069503 -0.047026,0.1142051 v 0.79375 c 0,0.1465791 0.1180042,0.2645833 0.2645834,0.2645833 0.1465791,0 0.2645833,-0.1180042 0.2645833,-0.2645833 v -0.79375 c 0,-0.044529 -0.027752,-0.076941 -0.047026,-0.1136883 a 0.26458333,0.26458333 0 0 1 -0.014986,0.019637 0.26458333,0.26458333 0 0 1 -0.018087,0.019121 0.26458333,0.26458333 0 0 1 -0.020153,0.017571 0.26458333,0.26458333 0 0 1 -0.021188,0.015502 0.26458333,0.26458333 0 0 1 -0.023254,0.01292 0.26458333,0.26458333 0 0 1 -0.02377,0.010853 0.26458333,0.26458333 0 0 1 -0.025321,0.00827 0.26458333,0.26458333 0 0 1 -0.025839,0.0062 0.26458333,0.26458333 0 0 1 -0.026355,0.0031 0.26458333,0.26458333 0 0 1 -0.018604,5.128e-4 0.26458333,0.26458333 0 0 1 -0.026355,-0.00156 0.26458333,0.26458333 0 0 1 -0.026355,-0.00362 0.26458333,0.26458333 0 0 1 -0.025321,-0.00672 0.26458333,0.26458333 0 0 1 -0.024805,-0.00878 0.26458333,0.26458333 0 0 1 -0.02377,-0.011885 0.26458333,0.26458333 0 0 1 -0.022738,-0.013435 0.26458333,0.26458333 0 0 1 -0.021188,-0.016021 0.26458333,0.26458333 0 0 1 -0.019122,-0.018087 0.26458333,0.26458333 0 0 1 -0.017571,-0.020153 0.26458333,0.26458333 0 0 1 -0.010335,-0.013954 z"
       style="fill:#f68d8d;fill-opacity:1;stroke:none;stroke-width:0.52916664;stroke-linecap:round;stroke-linejoin:round;stroke-miterlimit:4;stroke-dasharray:none;stroke-opacity:1"
       inkscape:connector-curvature="0" />
    <path
       id="rect871-2-9-2"
       d="m -4.2512711,4.1750353 c -0.1465792,0 -0.2645834,0.1180041 -0.2645834,0.2645833 v 0.6020305 c -0.1576385,0.09143 -0.2645833,0.2602281 -0.2645833,0.4563028 0,0.2931584 0.2360083,0.5291667 0.5291667,0.5291667 0.167083,0 0.313986,-0.078224 0.4108275,-0.1984375 h 0.3498495 c 0.1649315,0 0.2976563,-0.1327248 0.2976563,-0.2976563 0,-0.1649314 -0.1327248,-0.2976562 -0.2976563,-0.2976562 h -0.3043742 c -0.04616,-0.079586 -0.1121334,-0.14556 -0.1917195,-0.1917195 V 4.4396186 c 0,-0.1465792 -0.1180042,-0.2645833 -0.2645833,-0.2645833 z m 0,1.0583333 c 0.1465791,0 0.2645833,0.1180042 0.2645833,0.2645833 0,0.1465792 -0.1180042,0.2645834 -0.2645833,0.2645834 -0.1465792,0 -0.2645834,-0.1180042 -0.2645834,-0.2645834 0,-0.1465791 0.1180042,-0.2645833 0.2645834,-0.2645833 z"
       style="fill:#36404d;fill-opacity:1;stroke:none;stroke-width:0.13663024;stroke-linecap:round;stroke-linejoin:round;stroke-miterlimit:4;stroke-dasharray:none;stroke-opacity:1"
       inkscape:connector-curvature="0" />
  </g>
</svg>
