<?xml version="1.0" encoding="UTF-8" standalone="no"?>
<!-- Created with Inkscape (http://www.inkscape.org/) -->

<svg
   xmlns:dc="http://purl.org/dc/elements/1.1/"
   xmlns:cc="http://creativecommons.org/ns#"
   xmlns:rdf="http://www.w3.org/1999/02/22-rdf-syntax-ns#"
   xmlns:svg="http://www.w3.org/2000/svg"
   xmlns="http://www.w3.org/2000/svg"
   xmlns:sodipodi="http://sodipodi.sourceforge.net/DTD/sodipodi-0.dtd"
   xmlns:inkscape="http://www.inkscape.org/namespaces/inkscape"
   width="32"
   height="32"
   viewBox="0 0 32 32"
   version="1.1"
   id="svg8"
   inkscape:version="0.92.3 (2405546, 2018-03-11)"
   sodipodi:docname="preferences-desktop-display.svg">
  <title
     id="title7895">Antu icon Theme</title>
  <defs
     id="defs2" />
  <sodipodi:namedview
     id="base"
     pagecolor="#ffffff"
     bordercolor="#666666"
     borderopacity="1.0"
     inkscape:pageopacity="0.0"
     inkscape:pageshadow="2"
     inkscape:zoom="15.839192"
     inkscape:cx="-10.604148"
     inkscape:cy="17.406585"
     inkscape:document-units="px"
     inkscape:current-layer="layer1"
     showgrid="true"
     units="px"
     inkscape:window-width="1874"
     inkscape:window-height="1141"
     inkscape:window-x="46"
     inkscape:window-y="30"
     inkscape:window-maximized="1"
     objecttolerance="10"
     gridtolerance="10"
     guidetolerance="10">
    <inkscape:grid
       type="xygrid"
       id="grid7897"
       empspacing="4" />
  </sodipodi:namedview>
  <metadata
     id="metadata5">
    <rdf:RDF>
      <cc:Work
         rdf:about="">
        <dc:format>image/svg+xml</dc:format>
        <dc:type
           rdf:resource="http://purl.org/dc/dcmitype/StillImage" />
        <dc:title>Antu icon Theme</dc:title>
      </cc:Work>
    </rdf:RDF>
  </metadata>
  <g
     inkscape:label="Capa 1"
     inkscape:groupmode="layer"
     id="layer1"
     transform="translate(0,-282.64999)">
    <g
       id="g1614"
       transform="translate(18.000002,-6)">
      <path
         inkscape:connector-curvature="0"
         style="fill:#a3b7cc;fill-opacity:1;stroke-width:0.99999994"
         d="m -6.0000013,312.64997 v 3.99999 h -2.0000005 c -0.5540062,0 -0.9999999,0.44598 -0.9999999,0.99998 v 1.00003 c 0,0.554 0.4459937,0.99999 0.9999999,0.99999 H 2.9999977 c 0.554006,0 1,-0.44599 1,-0.99999 v -1.00003 c 0,-0.554 -0.445994,-0.99998 -1,-0.99998 H 0.99999774 v -3.99999 z"
         id="rect14071" />
      <path
         inkscape:connector-curvature="0"
         style="fill:#36404d;fill-opacity:1;stroke-width:0.99999994"
         d="m -16.000052,290.65002 h 28.0001 c 0.553972,0 0.999949,0.44598 0.999949,0.99995 v 21.00011 c 0,0.55397 -0.445977,0.99995 -0.999949,0.99995 h -28.0001 c -0.553973,0 -0.999949,-0.44598 -0.999949,-0.99995 v -21.00011 c 0,-0.55397 0.445976,-0.99995 0.999949,-0.99995 z"
         id="rect14065" />
      <path
         inkscape:connector-curvature="0"
         style="fill:#e1ebf2;fill-opacity:1;stroke-width:0.99999994"
         d="m -5.0000023,313.64996 v 3.99998 h -2.9999995 v 1.00003 H -5.0000023 -2.26e-6 2.9999977 v -1.00003 H -2.26e-6 v -3.99998 z"
         id="rect14067" />
      <path
         inkscape:connector-curvature="0"
         style="fill:#4b6477;fill-opacity:1;stroke-width:0.99999994"
         d="m -15.000002,292.64992 h 25.999999 v 19.00002 h -25.999999 z"
         id="rect14076" />
      <path
         inkscape:connector-curvature="0"
         style="fill:#c74343;fill-opacity:1;stroke-width:0.99999994"
         d="m -13.000002,294.64997 h 5.9999997 v 15 h -5.9999997 z"
         id="rect14078" />
      <path
         inkscape:connector-curvature="0"
         style="fill:#287bc2;fill-opacity:1;stroke-width:0.99999994"
         d="m -5.0000023,294.64997 h 6.00000004 v 15 H -5.0000023 Z"
         id="rect14080" />
      <path
         inkscape:connector-curvature="0"
         style="fill:#5e9c76;fill-opacity:1;stroke-width:0.99999994"
         d="m 2.9999977,294.64997 h 6 v 15 h -6 z"
         id="rect14082" />
      <path
         inkscape:connector-curvature="0"
         style="fill:#f78f8f;fill-opacity:1;stroke-width:0.99999994"
         d="m -12.000002,295.64999 h 4.0000002 v 12.99999 h -4.0000002 z"
         id="rect14084" />
      <path
         inkscape:connector-curvature="0"
         style="fill:#78c1ff;fill-opacity:1;stroke-width:0.99999994"
         d="M -4.0000023,295.64999 H -3.26e-6 v 12.99999 H -4.0000023 Z"
         id="rect14086" />
      <path
         inkscape:connector-curvature="0"
         style="fill:#bae0bd;fill-opacity:1;stroke-width:0.99999994"
         d="m 3.9999977,295.64999 h 3.999999 v 12.99999 h -3.999999 z"
         id="rect14088" />
    </g>
  </g>
</svg>
