<?xml version="1.0" encoding="UTF-8" standalone="no"?>
<!-- Created with Inkscape (http://www.inkscape.org/) -->

<svg
   xmlns:dc="http://purl.org/dc/elements/1.1/"
   xmlns:cc="http://creativecommons.org/ns#"
   xmlns:rdf="http://www.w3.org/1999/02/22-rdf-syntax-ns#"
   xmlns:svg="http://www.w3.org/2000/svg"
   xmlns="http://www.w3.org/2000/svg"
   xmlns:sodipodi="http://sodipodi.sourceforge.net/DTD/sodipodi-0.dtd"
   xmlns:inkscape="http://www.inkscape.org/namespaces/inkscape"
   width="32"
   height="32"
   viewBox="0 0 8.4666665 8.4666669"
   version="1.1"
   id="svg8"
   inkscape:version="0.92.3 (2405546, 2018-03-11)"
   sodipodi:docname="sublime-text.svg">
  <defs
     id="defs2" />
  <sodipodi:namedview
     id="base"
     pagecolor="#ffffff"
     bordercolor="#666666"
     borderopacity="1.0"
     inkscape:pageopacity="0.0"
     inkscape:pageshadow="2"
     inkscape:zoom="11.2"
     inkscape:cx="1.6814447"
     inkscape:cy="13.283898"
     inkscape:document-units="px"
     inkscape:current-layer="layer1"
     showgrid="true"
     units="px"
     inkscape:showpageshadow="false"
     inkscape:snap-bbox="true"
     inkscape:bbox-paths="true"
     inkscape:bbox-nodes="true"
     inkscape:snap-bbox-edge-midpoints="true"
     inkscape:snap-bbox-midpoints="true"
     inkscape:object-paths="true"
     inkscape:snap-intersection-paths="true"
     inkscape:window-width="1874"
     inkscape:window-height="1141"
     inkscape:window-x="46"
     inkscape:window-y="30"
     inkscape:window-maximized="1">
    <inkscape:grid
       type="xygrid"
       id="grid815" />
  </sodipodi:namedview>
  <metadata
     id="metadata5">
    <rdf:RDF>
      <cc:Work
         rdf:about="">
        <dc:format>image/svg+xml</dc:format>
        <dc:type
           rdf:resource="http://purl.org/dc/dcmitype/StillImage" />
        <dc:title></dc:title>
      </cc:Work>
    </rdf:RDF>
  </metadata>
  <g
     inkscape:label="Capa 1"
     inkscape:groupmode="layer"
     id="layer1"
     transform="translate(0,-288.53333)">
    <g
       id="g1679"
       transform="translate(2.38125,-1.5874967)">
      <path
         inkscape:connector-curvature="0"
         style="opacity:1;fill:#36404d;fill-opacity:1;stroke:none;stroke-width:0.63318539;stroke-linecap:round;stroke-linejoin:round;stroke-miterlimit:4;stroke-dasharray:none;stroke-opacity:1"
         d="m -1.5875,290.38541 h 6.8791667 c 0.2931583,0 0.5291666,0.23601 0.5291666,0.52917 v 6.87916 c 0,0.29316 -0.2360083,0.52917 -0.5291666,0.52917 H -1.5875 c -0.2931583,0 -0.5291667,-0.23601 -0.5291667,-0.52917 v -6.87916 c 0,-0.29316 0.2360084,-0.52917 0.5291667,-0.52917 z"
         id="rect843" />
      <path
         inkscape:connector-curvature="0"
         style="opacity:1;fill:#4c5a6b;fill-opacity:1;stroke:none;stroke-width:0.59097302;stroke-linecap:round;stroke-linejoin:round;stroke-miterlimit:4;stroke-dasharray:none;stroke-opacity:1"
         d="m -1.5875,290.64999 h 6.8791667 c 0.1465789,0 0.2645833,0.11801 0.2645833,0.26459 v 6.87916 c 0,0.14658 -0.1180044,0.26459 -0.2645833,0.26459 H -1.5875 c -0.1465792,0 -0.2645833,-0.11801 -0.2645833,-0.26459 v -6.87916 c 0,-0.14658 0.1180041,-0.26459 0.2645833,-0.26459 z"
         id="rect843-3" />
      <path
         id="path946"
         d="m 2.1109823,293.56041 a 0.26460979,0.26460979 0 0 0 -0.2211752,0.12816 l -0.7436239,1.2392 -1.49448237,0.49816 a 0.26460979,0.26460979 0 0 0 -0.1808675,0.25115 v 1.5875 a 0.26460979,0.26460979 0 0 0 0.3436483,0.25218 l 4.23333327,-1.32292 a 0.26460979,0.26460979 0 0 0 0.1855184,-0.25218 v -1.5875 A 0.26460979,0.26460979 0 0 0 4.0416139,294.0994 l -1.8520834,-0.52917 a 0.26460979,0.26460979 0 0 0 -0.078548,-0.01 z m 0.1281576,0.57464 1.4650268,0.41858 v 1.19321 L 2.5000001e-8,296.90439 v -1.03663 L 1.4066324,295.39906 a 0.26460979,0.26460979 0 0 0 0.1431438,-0.11524 z"
         style="color:#000000;font-style:normal;font-variant:normal;font-weight:normal;font-stretch:normal;font-size:medium;line-height:normal;font-family:sans-serif;font-variant-ligatures:normal;font-variant-position:normal;font-variant-caps:normal;font-variant-numeric:normal;font-variant-alternates:normal;font-feature-settings:normal;text-indent:0;text-align:start;text-decoration:none;text-decoration-line:none;text-decoration-style:solid;text-decoration-color:#000000;letter-spacing:normal;word-spacing:normal;text-transform:none;writing-mode:lr-tb;direction:ltr;text-orientation:mixed;dominant-baseline:auto;baseline-shift:baseline;text-anchor:start;white-space:normal;shape-padding:0;clip-rule:nonzero;display:inline;overflow:visible;visibility:visible;opacity:1;isolation:auto;mix-blend-mode:normal;color-interpolation:sRGB;color-interpolation-filters:linearRGB;solid-color:#000000;solid-opacity:1;vector-effect:none;fill:#f37d5c;fill-opacity:1;fill-rule:nonzero;stroke:none;stroke-width:0.5291667;stroke-linecap:square;stroke-linejoin:round;stroke-miterlimit:4;stroke-dasharray:none;stroke-dashoffset:0;stroke-opacity:1;color-rendering:auto;image-rendering:auto;shape-rendering:auto;text-rendering:auto;enable-background:accumulate"
         inkscape:connector-curvature="0" />
      <path
         sodipodi:nodetypes="cccccccc"
         inkscape:connector-curvature="0"
         id="path829-3-7-3"
         d="m -0.26458337,297.26458 v -1.5875 l 1.58749997,-0.52917 0.79375,-1.32292 v 0 l 1.8520834,0.52917 v 1.5875 z"
         style="fill:#ffb8a3;fill-opacity:1;stroke:none;stroke-width:0.5291667;stroke-linecap:square;stroke-linejoin:round;stroke-miterlimit:4;stroke-dasharray:none;stroke-opacity:1" />
      <path
         inkscape:connector-curvature="0"
         id="path965"
         d="m 3.96875,291.17916 a 0.26460979,0.26460979 0 0 0 -0.071313,0.0119 l -4.23333337,1.32292 a 0.26460979,0.26460979 0 0 0 -0.1855184,0.25269 v 1.5875 a 0.26460979,0.26460979 0 0 0 0.1855184,0.2527 l 4.23333337,1.32292 a 0.26460979,0.26460979 0 0 0 0.3436482,-0.2527 v -1.5875 a 0.26460979,0.26460979 0 0 0 -0.1917194,-0.25425 l -0.9622153,-0.27492 0.9622153,-0.27491 a 0.26460979,0.26460979 0 0 0 0.1917194,-0.25425 v -1.5875 a 0.26460979,0.26460979 0 0 0 -0.2723348,-0.26458 z"
         style="color:#000000;font-style:normal;font-variant:normal;font-weight:normal;font-stretch:normal;font-size:medium;line-height:normal;font-family:sans-serif;font-variant-ligatures:normal;font-variant-position:normal;font-variant-caps:normal;font-variant-numeric:normal;font-variant-alternates:normal;font-feature-settings:normal;text-indent:0;text-align:start;text-decoration:none;text-decoration-line:none;text-decoration-style:solid;text-decoration-color:#000000;letter-spacing:normal;word-spacing:normal;text-transform:none;writing-mode:lr-tb;direction:ltr;text-orientation:mixed;dominant-baseline:auto;baseline-shift:baseline;text-anchor:start;white-space:normal;shape-padding:0;clip-rule:nonzero;display:inline;overflow:visible;visibility:visible;opacity:1;isolation:auto;mix-blend-mode:normal;color-interpolation:sRGB;color-interpolation-filters:linearRGB;solid-color:#000000;solid-opacity:1;vector-effect:none;fill:#f37d5c;fill-opacity:1;fill-rule:nonzero;stroke:none;stroke-width:0.5291667;stroke-linecap:square;stroke-linejoin:round;stroke-miterlimit:4;stroke-dasharray:none;stroke-dashoffset:0;stroke-opacity:1;color-rendering:auto;image-rendering:auto;shape-rendering:auto;text-rendering:auto;enable-background:accumulate" />
      <path
         inkscape:connector-curvature="0"
         id="path829-6-5"
         d="m 3.9765015,291.44374 v 1.5875 l -1.8520834,0.52917 1.8520834,0.52917 v 1.5875 l -4.23333337,-1.32292 v -1.5875 z"
         style="fill:#ffb8a3;fill-opacity:1;stroke:none;stroke-width:0.5291667;stroke-linecap:square;stroke-linejoin:round;stroke-miterlimit:4;stroke-dasharray:none;stroke-opacity:1" />
    </g>
  </g>
</svg>
