<?xml version="1.0" encoding="UTF-8" standalone="no"?>
<!-- Created with Inkscape (http://www.inkscape.org/) -->

<svg
   xmlns:dc="http://purl.org/dc/elements/1.1/"
   xmlns:cc="http://creativecommons.org/ns#"
   xmlns:rdf="http://www.w3.org/1999/02/22-rdf-syntax-ns#"
   xmlns:svg="http://www.w3.org/2000/svg"
   xmlns="http://www.w3.org/2000/svg"
   xmlns:sodipodi="http://sodipodi.sourceforge.net/DTD/sodipodi-0.dtd"
   xmlns:inkscape="http://www.inkscape.org/namespaces/inkscape"
   width="32"
   height="32"
   viewBox="0 0 32 32"
   version="1.1"
   id="svg8"
   inkscape:version="0.92.3 (2405546, 2018-03-11)"
   sodipodi:docname="transmission.svg">
  <title
     id="title7895">Antu icon Theme</title>
  <defs
     id="defs2">
    <style
       type="text/css"
       id="current-color-scheme">
      .ColorScheme-Text {
        color:#122036;
      }
      </style>
    <style
       id="current-color-scheme-5"
       type="text/css">
      .ColorScheme-Text {
        color:#122036;
      }
      </style>
    <style
       type="text/css"
       id="current-color-scheme-70">
      .ColorScheme-Text {
        color:#122036;
      }
      </style>
    <style
       id="current-color-scheme-5-9"
       type="text/css">
      .ColorScheme-Text {
        color:#122036;
      }
      </style>
    <style
       id="current-color-scheme-2"
       type="text/css">
      .ColorScheme-Text {
        color:#122036;
      }
      </style>
    <style
       id="current-color-scheme-1"
       type="text/css">
      .ColorScheme-Text {
        color:#122036;
      }
      </style>
    <style
       type="text/css"
       id="current-color-scheme-10">
      .ColorScheme-Text {
        color:#122036;
      }
      </style>
    <style
       id="current-color-scheme-0"
       type="text/css">
      .ColorScheme-Text {
        color:#122036;
      }
      </style>
    <style
       id="current-color-scheme-26"
       type="text/css">
      .ColorScheme-Text {
        color:#122036;
      }
      </style>
    <style
       id="current-color-scheme-7"
       type="text/css">
      .ColorScheme-Text {
        color:#122036;
      }
      </style>
  </defs>
  <sodipodi:namedview
     id="base"
     pagecolor="#ffffff"
     bordercolor="#666666"
     borderopacity="1.0"
     inkscape:pageopacity="0.0"
     inkscape:pageshadow="2"
     inkscape:zoom="15.999999"
     inkscape:cx="18.821671"
     inkscape:cy="10.253225"
     inkscape:document-units="px"
     inkscape:current-layer="layer1"
     showgrid="true"
     units="px"
     inkscape:window-width="1874"
     inkscape:window-height="1141"
     inkscape:window-x="46"
     inkscape:window-y="30"
     inkscape:window-maximized="1"
     objecttolerance="10"
     gridtolerance="10"
     guidetolerance="10"
     inkscape:snap-bbox="true"
     inkscape:bbox-paths="true"
     inkscape:bbox-nodes="true"
     inkscape:snap-bbox-edge-midpoints="true"
     inkscape:snap-bbox-midpoints="true"
     inkscape:object-paths="true"
     inkscape:snap-intersection-paths="true"
     inkscape:showpageshadow="false"
     showborder="true">
    <inkscape:grid
       type="xygrid"
       id="grid7897"
       empspacing="4" />
  </sodipodi:namedview>
  <metadata
     id="metadata5">
    <rdf:RDF>
      <cc:Work
         rdf:about="">
        <dc:format>image/svg+xml</dc:format>
        <dc:type
           rdf:resource="http://purl.org/dc/dcmitype/StillImage" />
        <dc:title>Antu icon Theme</dc:title>
      </cc:Work>
    </rdf:RDF>
  </metadata>
  <g
     inkscape:label="Capa 1"
     inkscape:groupmode="layer"
     id="layer1"
     transform="translate(0,-282.64999)">
    <path
       id="rect843"
       d="m 4,283.64999 h 24 c 1.108,0 2,0.892 2,2 v 26 c 0,1.108 -0.892,2 -2,2 H 4 c -1.108,0 -2,-0.892 -2,-2 v -26 c 0,-1.108 0.892,-2 2,-2 z"
       style="opacity:1;fill:#a3b7cc;fill-opacity:1;stroke:none;stroke-width:2.39314151;stroke-linecap:round;stroke-linejoin:round;stroke-miterlimit:4;stroke-dasharray:none;stroke-opacity:1"
       inkscape:connector-curvature="0"
       sodipodi:nodetypes="sssssssss" />
    <path
       style="opacity:1;fill:#e1ebf2;fill-opacity:1;stroke:none;stroke-width:2.23359871;stroke-linecap:round;stroke-linejoin:round;stroke-miterlimit:4;stroke-dasharray:none;stroke-opacity:1"
       d="M 4,2 C 3.446,2 3,2.446 3,3 v 26 c 0,0.554 0.446,1 1,1 h 24 c 0.553999,0 1,-0.446 1,-1 V 3 C 29,2.446 28.553999,2 28,2 Z M 6.5,4 C 7.3309989,4 8,4.6690011 8,5.5 8,6.3309989 7.3309989,7 6.5,7 5.6690011,7 5,6.3309989 5,5.5 5,4.6690011 5.6690011,4 6.5,4 Z m 19,0 C 26.331,4 27,4.669 27,5.5 27,6.331 26.331,7 25.5,7 24.669,7 24,6.331 24,5.5 24,4.669 24.669,4 25.5,4 Z M 6.5,26 C 7.331,26 8,26.669 8,27.5 8,28.331 7.331,29 6.5,29 5.669,29 5,28.331 5,27.5 5,26.669 5.669,26 6.5,26 Z m 19,0 C 26.330993,26 27,26.669007 27,27.5 27,28.330993 26.330993,29 25.5,29 24.669007,29 24,28.330993 24,27.5 24,26.669007 24.669007,26 25.5,26 Z"
       transform="translate(0,282.64999)"
       id="rect843-3"
       inkscape:connector-curvature="0"
       sodipodi:nodetypes="sssssssssssssssssssssssssssss" />
    <g
       id="layer1-1"
       inkscape:label="Capa 1">
      <g
         transform="translate(11,-2.9998)"
         id="g2980" />
      <g
         id="g997"
         transform="matrix(1,0,0,-1,0,599.30034)">
        <path
           style="color:#000000;font-style:normal;font-variant:normal;font-weight:normal;font-stretch:normal;font-size:medium;line-height:normal;font-family:sans-serif;font-variant-ligatures:normal;font-variant-position:normal;font-variant-caps:normal;font-variant-numeric:normal;font-variant-alternates:normal;font-feature-settings:normal;text-indent:0;text-align:start;text-decoration:none;text-decoration-line:none;text-decoration-style:solid;text-decoration-color:#000000;letter-spacing:normal;word-spacing:normal;text-transform:none;writing-mode:lr-tb;direction:ltr;text-orientation:mixed;dominant-baseline:auto;baseline-shift:baseline;text-anchor:start;white-space:normal;shape-padding:0;clip-rule:nonzero;display:inline;overflow:visible;visibility:visible;opacity:1;isolation:auto;mix-blend-mode:normal;color-interpolation:sRGB;color-interpolation-filters:linearRGB;solid-color:#000000;solid-opacity:1;vector-effect:none;fill:#36404c;fill-opacity:1;fill-rule:nonzero;stroke:none;stroke-width:2;stroke-linecap:round;stroke-linejoin:round;stroke-miterlimit:4;stroke-dasharray:none;stroke-dashoffset:0;stroke-opacity:1;color-rendering:auto;image-rendering:auto;shape-rendering:auto;text-rendering:auto;enable-background:accumulate"
           d="M 15.996094,7 C 15.693601,7.00101 15.407819,7.1388732 15.21875,7.375 l -4,5 C 10.694593,13.029951 11.161131,14.00035 12,14 l 1,3.6e-4 v 8 L 12,22 c -0.838869,-3.5e-4 -1.305407,0.970049 -0.78125,1.625 l 4,5 c 0.400371,0.500962 1.162129,0.500962 1.5625,0 l 4,-5 C 21.305407,22.970049 20.838869,21.99965 20,22 l -1,3.6e-4 v -8 L 20,14 c 0.838869,3.5e-4 1.305407,-0.970049 0.78125,-1.625 l -4,-5 C 16.59047,7.1367333 16.301325,6.9986342 15.996094,7 Z"
           transform="translate(0,282.64999)"
           id="path833"
           inkscape:connector-curvature="0"
           sodipodi:nodetypes="cccccccccccccccccc" />
        <path
           sodipodi:nodetypes="ccccccccccc"
           style="fill:#4b6376;fill-opacity:1;stroke:none;stroke-width:1px;stroke-linecap:butt;stroke-linejoin:miter;stroke-opacity:1"
           d="m 12,305.64999 4,5 4,-5 -2,3.6e-4 v -10 l 2,-3.6e-4 -4,-5 -4,5 2,3.6e-4 v 10 z"
           id="path861"
           inkscape:connector-curvature="0" />
      </g>
      <path
         style="opacity:1;fill:#c74343;fill-opacity:1;stroke:none;stroke-width:1;stroke-linecap:round;stroke-linejoin:round;stroke-miterlimit:4;stroke-dasharray:none;stroke-opacity:1"
         d="m 10,296.64999 h 12 c 1.108,0 2,0.892 2,2 0,1.108 -0.892,2 -2,2 H 10 c -1.108,0 -2,-0.892 -2,-2 0,-1.108 0.892,-2 2,-2 z"
         id="rect999" />
      <path
         style="opacity:1;fill:#f78f8f;fill-opacity:1;stroke:none;stroke-width:1;stroke-linecap:round;stroke-linejoin:round;stroke-miterlimit:4;stroke-dasharray:none;stroke-opacity:1"
         d="m 10,297.64999 h 12 c 0.554,0 1,0.446 1,1 0,0.554 -0.446,1 -1,1 H 10 c -0.554,0 -1,-0.446 -1,-1 0,-0.554 0.446,-1 1,-1 z"
         id="rect1001" />
    </g>
  </g>
</svg>
