<?xml version="1.0" encoding="UTF-8" standalone="no"?>
<!-- Created with Inkscape (http://www.inkscape.org/) -->

<svg
   xmlns:dc="http://purl.org/dc/elements/1.1/"
   xmlns:cc="http://creativecommons.org/ns#"
   xmlns:rdf="http://www.w3.org/1999/02/22-rdf-syntax-ns#"
   xmlns:svg="http://www.w3.org/2000/svg"
   xmlns="http://www.w3.org/2000/svg"
   xmlns:sodipodi="http://sodipodi.sourceforge.net/DTD/sodipodi-0.dtd"
   xmlns:inkscape="http://www.inkscape.org/namespaces/inkscape"
   width="32"
   height="32"
   viewBox="0 0 8.4666665 8.4666669"
   version="1.1"
   id="svg8"
   inkscape:version="0.92.3 (2405546, 2018-03-11)"
   sodipodi:docname="visual-studio-code-insiders.svg">
  <defs
     id="defs2" />
  <sodipodi:namedview
     id="base"
     pagecolor="#ffffff"
     bordercolor="#666666"
     borderopacity="1.0"
     inkscape:pageopacity="0.0"
     inkscape:pageshadow="2"
     inkscape:zoom="22.627417"
     inkscape:cx="11.97472"
     inkscape:cy="11.951386"
     inkscape:document-units="px"
     inkscape:current-layer="g4225"
     showgrid="true"
     units="px"
     inkscape:window-width="1874"
     inkscape:window-height="1141"
     inkscape:window-x="46"
     inkscape:window-y="30"
     inkscape:window-maximized="1"
     showguides="true"
     inkscape:guide-bbox="true">
    <inkscape:grid
       type="xygrid"
       id="grid5179" />
    <sodipodi:guide
       position="13.229166,-1.3229167"
       orientation="1,0"
       id="guide835"
       inkscape:locked="false" />
  </sodipodi:namedview>
  <metadata
     id="metadata5">
    <rdf:RDF>
      <cc:Work
         rdf:about="">
        <dc:format>image/svg+xml</dc:format>
        <dc:type
           rdf:resource="http://purl.org/dc/dcmitype/StillImage" />
        <dc:title />
      </cc:Work>
    </rdf:RDF>
  </metadata>
  <g
     inkscape:label="Capa 1"
     inkscape:groupmode="layer"
     id="layer1"
     transform="translate(0,-288.53332)">
    <g
       id="g4225"
       transform="translate(10.847917,7.9374985)">
      <path
         sodipodi:nodetypes="sssssssss"
         inkscape:connector-curvature="0"
         style="opacity:1;fill:#363c4d;fill-opacity:1;stroke:none;stroke-width:2.39314151;stroke-linecap:round;stroke-linejoin:round;stroke-miterlimit:4;stroke-dasharray:none;stroke-opacity:1"
         d="m -9.5250006,280.86035 5.8208336,1.1e-4 c 0.2931583,0 0.5291667,0.236 0.5291667,0.52916 l 0,6.87917 c 0,0.29316 -0.2360084,0.52917 -0.5291667,0.52917 l -5.8208336,-1.1e-4 c -0.2931583,0 -0.5291664,-0.23601 -0.5291664,-0.52917 l 0,-6.87916 c 0,-0.29316 0.2360081,-0.52918 0.5291664,-0.52917 z"
         id="rect843-5-4-7" />
      <path
         sodipodi:nodetypes="sssssssss"
         inkscape:connector-curvature="0"
         style="opacity:1;fill:#3c4f5e;fill-opacity:1;stroke:none;stroke-width:2.23359871;stroke-linecap:round;stroke-linejoin:round;stroke-miterlimit:4;stroke-dasharray:none;stroke-opacity:1"
         d="m -9.5250006,281.12493 5.8208336,1.1e-4 c 0.1465791,0 0.2645833,0.118 0.2645833,0.26458 l 0,6.87917 c 0,0.14658 -0.1180042,0.26459 -0.2645833,0.26458 l -5.8208336,-10e-5 c -0.1465792,-1e-5 -0.2645833,-0.11801 -0.2645833,-0.26459 l 0,-6.87916 c 0,-0.14658 0.1180041,-0.26459 0.2645833,-0.26459 z"
         id="rect843-3-9-3-1" />
      <path
         style="fill:#9affc1;fill-opacity:1;fill-rule:evenodd;stroke:none;stroke-width:1px;stroke-linecap:butt;stroke-linejoin:miter;stroke-opacity:1"
         d="m -5.2916671,281.91874 0,4.7625 -4.2333335,-0.79375 4.2333335,1.85208 1.3229167,-0.52917 0,-4.7625 -1.3229167,-0.52916 z m -1.3229167,0.52916 -1.5017171,1.50172 -0.6149496,-0.44338 -0.5291667,0 0.79375,0.79375 -0.79375,0.79375 0.5291667,0 0.6128824,-0.44545 1.5037843,1.50378 0.8082196,-0.53795 -0.01447,-0.0103 0,-2.62671 -0.79375,-0.52917 z m 0,1.1064 0,1.47742 -1.0200929,-0.73535 1.0200929,-0.74207 z"
         id="path4257-5"
         inkscape:connector-curvature="0" />
    </g>
  </g>
</svg>
