<?xml version="1.0" encoding="UTF-8" standalone="no"?>
<!-- Created with Inkscape (http://www.inkscape.org/) -->

<svg
   xmlns:dc="http://purl.org/dc/elements/1.1/"
   xmlns:cc="http://creativecommons.org/ns#"
   xmlns:rdf="http://www.w3.org/1999/02/22-rdf-syntax-ns#"
   xmlns:svg="http://www.w3.org/2000/svg"
   xmlns="http://www.w3.org/2000/svg"
   xmlns:sodipodi="http://sodipodi.sourceforge.net/DTD/sodipodi-0.dtd"
   xmlns:inkscape="http://www.inkscape.org/namespaces/inkscape"
   width="32"
   height="32"
   viewBox="0 0 8.4666665 8.4666669"
   version="1.1"
   id="svg8"
   inkscape:version="0.92.3 (2405546, 2018-03-11)"
   sodipodi:docname="wine+.svg">
  <defs
     id="defs2" />
  <sodipodi:namedview
     id="base"
     pagecolor="#ffffff"
     bordercolor="#666666"
     borderopacity="1.0"
     inkscape:pageopacity="0.0"
     inkscape:pageshadow="2"
     inkscape:zoom="11.2"
     inkscape:cx="1.6814447"
     inkscape:cy="13.283898"
     inkscape:document-units="px"
     inkscape:current-layer="layer1"
     showgrid="true"
     units="px"
     inkscape:showpageshadow="false"
     inkscape:snap-bbox="true"
     inkscape:bbox-paths="true"
     inkscape:bbox-nodes="true"
     inkscape:snap-bbox-edge-midpoints="true"
     inkscape:snap-bbox-midpoints="true"
     inkscape:object-paths="true"
     inkscape:snap-intersection-paths="true"
     inkscape:window-width="1874"
     inkscape:window-height="1141"
     inkscape:window-x="46"
     inkscape:window-y="30"
     inkscape:window-maximized="1">
    <inkscape:grid
       type="xygrid"
       id="grid815" />
  </sodipodi:namedview>
  <metadata
     id="metadata5">
    <rdf:RDF>
      <cc:Work
         rdf:about="">
        <dc:format>image/svg+xml</dc:format>
        <dc:type
           rdf:resource="http://purl.org/dc/dcmitype/StillImage" />
        <dc:title></dc:title>
      </cc:Work>
    </rdf:RDF>
  </metadata>
  <g
     inkscape:label="Capa 1"
     inkscape:groupmode="layer"
     id="layer1"
     transform="translate(0,-288.53333)">
    <g
       id="g1838"
       transform="translate(4.2333334,2.1166655)">
      <g
         transform="matrix(0.26458333,0,0,0.26458333,-4.2333332,211.63219)"
         inkscape:label="Capa 1"
         id="layer1-87">
        <g
           id="g1469"
           transform="translate(8.9999995,-18.000004)">
          <g
             inkscape:label="Capa 1"
             id="layer1-05"
             transform="translate(21.625001,8.5)" />
          <g
             id="g3679">
            <path
               style="opacity:1;fill:#287bc2;fill-opacity:1;stroke:none;stroke-width:2;stroke-linecap:round;stroke-linejoin:round;stroke-miterlimit:4;stroke-dasharray:none;stroke-opacity:1;paint-order:fill markers stroke"
               d="m 100,84 v 4 9 c 0,1.108 0.892,2 2,2 h 9 2 2 v -2 -1 -7 -3 -2 h -2 -1 -8 z"
               transform="translate(-108,232.64999)"
               id="rect3388-8-4-1"
               inkscape:connector-curvature="0" />
            <path
               style="opacity:1;fill:#78c1ff;fill-opacity:1;stroke:none;stroke-width:2;stroke-linecap:round;stroke-linejoin:round;stroke-miterlimit:4;stroke-dasharray:none;stroke-opacity:1;paint-order:fill markers stroke"
               d="m 101,85 v 1 11 c 0,0.554 0.446,1 1,1 h 10 1 1 V 97 96 86 85 h -1 -11 z"
               transform="translate(-108,232.64999)"
               id="rect3388-8-8-96"
               inkscape:connector-curvature="0" />
            <path
               style="opacity:1;fill:#ffb851;fill-opacity:0.96078431;stroke:none;stroke-width:2;stroke-linecap:round;stroke-linejoin:round;stroke-miterlimit:4;stroke-dasharray:none;stroke-opacity:1;paint-order:fill markers stroke"
               d="m 115,84 v 2 3 7 1 2 h 2 1 10 c 1.108,0 2,-0.892 2,-2 V 86 84 h -2 -10 -1 z"
               transform="translate(-108,232.64999)"
               id="rect3388-8-4-1-4"
               inkscape:connector-curvature="0" />
            <path
               style="opacity:1;fill:#ffeea3;fill-opacity:1;stroke:none;stroke-width:2;stroke-linecap:round;stroke-linejoin:round;stroke-miterlimit:4;stroke-dasharray:none;stroke-opacity:1;paint-order:fill markers stroke"
               d="m 116,85 v 1 11 1 h 2 10 c 0.554,0 1,-0.446 1,-1 V 87 86 85 h -1 -1 -10 z"
               transform="translate(-108,232.64999)"
               id="rect3388-8-8-96-4"
               inkscape:connector-curvature="0" />
            <path
               style="opacity:1;fill:#c74343;fill-opacity:1;stroke:none;stroke-width:2;stroke-linecap:round;stroke-linejoin:round;stroke-miterlimit:4;stroke-dasharray:none;stroke-opacity:1;paint-order:fill markers stroke"
               d="m 102,69 c -1.108,0 -2,0.892 -2,2 v 11 2 h 2 10 1 2 v -2 -3 -8 -2 h -2 -1 z"
               transform="translate(-108,232.64999)"
               id="rect3388-8-4-1-9"
               inkscape:connector-curvature="0" />
            <path
               style="opacity:1;fill:#f78f8f;fill-opacity:1;stroke:none;stroke-width:2;stroke-linecap:round;stroke-linejoin:round;stroke-miterlimit:4;stroke-dasharray:none;stroke-opacity:1;paint-order:fill markers stroke"
               d="m 102,70 c -0.554,0 -1,0.446 -1,1 v 11 1 h 1 11 1 V 82 71 70 h -1 z"
               transform="translate(-108,232.64999)"
               id="rect3388-8-8-96-9"
               inkscape:connector-curvature="0" />
            <path
               style="opacity:1;fill:#5e9c76;fill-opacity:1;stroke:none;stroke-width:2;stroke-linecap:round;stroke-linejoin:round;stroke-miterlimit:4;stroke-dasharray:none;stroke-opacity:1;paint-order:fill markers stroke"
               d="m 115,69 v 2 8 3 2 h 2 1 9 1 2 V 82 81 71 c 0,-1.108 -0.892,-2 -2,-2 h -11 z"
               transform="translate(-108,232.64999)"
               id="rect3388-8-4-1-4-3"
               inkscape:connector-curvature="0" />
            <path
               style="opacity:1;fill:#bae0bd;fill-opacity:1;stroke:none;stroke-width:2;stroke-linecap:round;stroke-linejoin:round;stroke-miterlimit:4;stroke-dasharray:none;stroke-opacity:1;paint-order:fill markers stroke"
               d="m 116,70 v 2 10 1 h 1 10 1 1 V 82 81 71 c 0,-0.554 -0.446,-1 -1,-1 h -10 z"
               transform="translate(-108,232.64999)"
               id="rect3388-8-8-96-4-6"
               inkscape:connector-curvature="0" />
          </g>
          <rect
             ry="1"
             y="307.64999"
             x="-2"
             height="18"
             width="18"
             id="rect3654"
             style="opacity:1;fill:#36404d;fill-opacity:1;stroke:none;stroke-width:2.25440764;stroke-linecap:round;stroke-linejoin:round;stroke-miterlimit:4;stroke-dasharray:none;stroke-opacity:1;paint-order:fill markers stroke" />
          <rect
             y="308.64999"
             x="-1"
             height="16"
             width="16"
             id="rect3654-2"
             style="opacity:1;fill:#4b6477;fill-opacity:1;stroke:none;stroke-width:2.00391793;stroke-linecap:round;stroke-linejoin:round;stroke-miterlimit:4;stroke-dasharray:none;stroke-opacity:1;paint-order:fill markers stroke" />
          <g
             inkscape:label="Capa 1"
             id="layer1-86"
             transform="translate(28,15)" />
        </g>
      </g>
      <path
         inkscape:connector-curvature="0"
         id="path37-6"
         d="M 1.3229167,289.0625 -1.3333331e-8,289.32708 v 1.05834 H 1.3229167 Z m -1.58750001,0.26458 -1.05833339,0.26459 v 0.79375 h 1.05833339 z M -1.3229167,290.65 v 0.79375 l 1.05833339,0.26458 V 290.65 Z m 1.322916686666669,0 v 1.05833 L 1.3229167,291.97292 V 290.65 Z"
         style="fill:#e5f3ff;fill-opacity:1;stroke-width:0.26458335;enable-background:new" />
    </g>
  </g>
</svg>
