<?xml version="1.0" encoding="UTF-8" standalone="no"?>
<!-- Created with Inkscape (http://www.inkscape.org/) -->

<svg
   xmlns:dc="http://purl.org/dc/elements/1.1/"
   xmlns:cc="http://creativecommons.org/ns#"
   xmlns:rdf="http://www.w3.org/1999/02/22-rdf-syntax-ns#"
   xmlns:svg="http://www.w3.org/2000/svg"
   xmlns="http://www.w3.org/2000/svg"
   xmlns:sodipodi="http://sodipodi.sourceforge.net/DTD/sodipodi-0.dtd"
   xmlns:inkscape="http://www.inkscape.org/namespaces/inkscape"
   width="32"
   height="32"
   viewBox="0 0 8.4666665 8.4666669"
   version="1.1"
   id="svg8"
   inkscape:version="0.92.3 (2405546, 2018-03-11)"
   sodipodi:docname="utilities-log-viewer.svg">
  <defs
     id="defs2">
    <style
       id="current-color-scheme"
       type="text/css">
      .ColorScheme-Text {
        color:#122036;
      }
      </style>
    <style
       id="current-color-scheme-1"
       type="text/css">
      .ColorScheme-Text {
        color:#122036;
      }
      </style>
    <style
       type="text/css"
       id="current-color-scheme-10">
      .ColorScheme-Text {
        color:#122036;
      }
      </style>
    <style
       type="text/css"
       id="current-color-scheme-6">
      .ColorScheme-Text {
        color:#122036;
      }
      </style>
    <style
       type="text/css"
       id="current-color-scheme-1-9">
      .ColorScheme-Text {
        color:#122036;
      }
      </style>
    <style
       id="current-color-scheme-10-1"
       type="text/css">
      .ColorScheme-Text {
        color:#122036;
      }
      </style>
    <style
       type="text/css"
       id="current-color-scheme-56">
      .ColorScheme-Text {
        color:#122036;
      }
      </style>
    <style
       type="text/css"
       id="current-color-scheme-1-91">
      .ColorScheme-Text {
        color:#122036;
      }
      </style>
    <style
       id="current-color-scheme-10-2"
       type="text/css">
      .ColorScheme-Text {
        color:#122036;
      }
      </style>
    <style
       id="current-color-scheme-5"
       type="text/css">
      .ColorScheme-Text {
        color:#122036;
      }
      </style>
    <style
       id="current-color-scheme-1-2"
       type="text/css">
      .ColorScheme-Text {
        color:#122036;
      }
      </style>
    <style
       type="text/css"
       id="current-color-scheme-10-9">
      .ColorScheme-Text {
        color:#122036;
      }
      </style>
    <style
       type="text/css"
       id="current-color-scheme-6-7">
      .ColorScheme-Text {
        color:#122036;
      }
      </style>
    <style
       type="text/css"
       id="current-color-scheme-1-9-0">
      .ColorScheme-Text {
        color:#122036;
      }
      </style>
    <style
       id="current-color-scheme-10-1-9"
       type="text/css">
      .ColorScheme-Text {
        color:#122036;
      }
      </style>
  </defs>
  <sodipodi:namedview
     id="base"
     pagecolor="#ffffff"
     bordercolor="#666666"
     borderopacity="1.0"
     inkscape:pageopacity="0.0"
     inkscape:pageshadow="2"
     inkscape:zoom="11.313708"
     inkscape:cx="27.153891"
     inkscape:cy="11.0934"
     inkscape:document-units="px"
     inkscape:current-layer="g5126"
     showgrid="false"
     units="px"
     inkscape:window-width="1874"
     inkscape:window-height="1141"
     inkscape:window-x="46"
     inkscape:window-y="30"
     inkscape:window-maximized="1">
    <inkscape:grid
       type="xygrid"
       id="grid899" />
  </sodipodi:namedview>
  <metadata
     id="metadata5">
    <rdf:RDF>
      <cc:Work
         rdf:about="">
        <dc:format>image/svg+xml</dc:format>
        <dc:type
           rdf:resource="http://purl.org/dc/dcmitype/StillImage" />
        <dc:title />
      </cc:Work>
    </rdf:RDF>
  </metadata>
  <g
     inkscape:label="Capa 1"
     inkscape:groupmode="layer"
     id="layer1"
     transform="translate(0,-288.53332)">
    <g
       id="g5126"
       transform="translate(-5.5704242,-2.6741817)">
      <path
         id="path7-9"
         d="m 5.8350074,292.00125 h 7.9375006 v 6.87917 H 5.8350074 Z"
         style="fill:#4b6477;stroke-width:0.26458335;fill-opacity:1"
         inkscape:connector-curvature="0" />
      <path
         inkscape:connector-curvature="0"
         style="opacity:1;vector-effect:none;fill:#3c4f5e;fill-opacity:1;stroke:none;stroke-width:0.2;stroke-linecap:round;stroke-linejoin:bevel;stroke-miterlimit:4;stroke-dasharray:none;stroke-dashoffset:0;stroke-opacity:0.39215686;paint-order:stroke fill markers"
         d="m 6.099591,293.05957 v 1.05834 h 7.408333 v -1.05834 z m 0,1.85209 v 1.05833 h 7.408333 v -1.05833 z m 0,1.85208 v 1.05833 h 7.408333 v -1.05833 z"
         id="rect6299-1-1-0-5" />
      <path
         id="path13-1"
         d="m 5.8350074,291.73667 c -0.1465817,0 -0.2645833,0.118 -0.2645833,0.26458 v 6.87917 c 0,0.14658 0.1180016,0.26458 0.2645833,0.26458 h 7.9375006 c 0.146581,0 0.264583,-0.118 0.264583,-0.26458 v -6.87917 c 0,-0.14658 -0.118002,-0.26458 -0.264583,-0.26458 z m 0.2645833,0.52917 h 7.4083333 v 6.35 H 6.0995907 Z"
         style="fill:#363c4d;stroke-width:0.26458335;fill-opacity:1"
         inkscape:connector-curvature="0" />
      <g
         transform="matrix(0.26458333,0,0,0.26458333,12.648029,216.62146)"
         id="layer1-6"
         inkscape:label="Capa 1">
        <g
           transform="translate(25,-8)"
           id="g2369" />
      </g>
      <g
         id="g1217"
         transform="translate(1.03125e-7,0.26457837)"
         style="fill:#cfcfcf;fill-opacity:1">
        <path
           style="opacity:1;fill:#e8f6ff;fill-opacity:1;stroke:none;stroke-width:0.99999994;stroke-linecap:round;stroke-linejoin:round;stroke-miterlimit:4;stroke-dasharray:none;stroke-dashoffset:0;stroke-opacity:1"
           d="M 3 6 L 3 8 L 8 8 L 8 6 L 3 6 z M 9 6 L 9 8 L 11 8 L 11 6 L 9 6 z M 12 6 L 12 8 L 17 8 L 17 6 L 12 6 z M 18 6 L 18 8 L 20 8 L 20 6 L 18 6 z M 21 6 L 21 8 L 24 8 L 24 6 L 21 6 z M 25 6 L 25 8 L 29 8 L 29 6 L 25 6 z M 3 9 L 3 11 L 11 11 L 11 9 L 3 9 z M 12 9 L 12 11 L 14 11 L 14 9 L 12 9 z M 15 9 L 15 11 L 20 11 L 20 9 L 15 9 z M 21 9 L 21 11 L 23 11 L 23 9 L 21 9 z M 24 9 L 24 11 L 27 11 L 27 9 L 24 9 z M 3 12 L 3 14 L 5 14 L 5 12 L 3 12 z M 6 12 L 6 14 L 8 14 L 8 12 L 6 12 z M 9 12 L 9 14 L 14 14 L 14 12 L 9 12 z M 15 12 L 15 14 L 17 14 L 17 12 L 15 12 z M 18 12 L 18 14 L 20 14 L 20 12 L 18 12 z M 22 12 L 22 14 L 24 14 L 24 12 L 22 12 z M 25 12 L 25 14 L 29 14 L 29 12 L 25 12 z M 3 15 L 3 17 L 8 17 L 8 15 L 3 15 z M 9 15 L 9 17 L 11 17 L 11 15 L 9 15 z M 12 15 L 12 17 L 17 17 L 17 15 L 12 15 z M 3 18 L 3 20 L 5 20 L 5 18 L 3 18 z M 6 18 L 6 20 L 11 20 L 11 18 L 6 18 z M 12 18 L 12 20 L 15 20 L 15 18 L 12 18 z M 3 21 L 3 23 L 7 23 L 7 21 L 3 21 z M 8 21 L 8 23 L 10 23 L 10 21 L 8 21 z M 11 21 L 11 23 L 15 23 L 15 21 L 11 21 z M 3 24 L 3 26 L 5 26 L 5 24 L 3 24 z M 6 24 L 6 26 L 10 26 L 10 24 L 6 24 z M 11 24 L 11 26 L 13 26 L 13 24 L 11 24 z "
           transform="matrix(0.26458333,0,0,0.26458333,5.5704241,290.94292)"
           id="rect4405" />
      </g>
      <g
         id="g1224">
        <g
           id="g2289"
           transform="matrix(0.15875,0,0,0.15875,5.9408413,249.88223)">
          <path
             sodipodi:nodetypes="cccccccc"
             inkscape:connector-curvature="0"
             id="path4161"
             d="m 32.605469,276.98438 c -0.583144,0.0211 -1.11282,0.34552 -1.396485,0.85546 l -16.666015,30 c -0.617494,1.11104 0.185927,2.47664 1.457031,2.47657 h 33.333984 c 1.271104,7e-5 2.074526,-1.36553 1.457032,-2.47657 l -16.667969,-30 c -0.30474,-0.54785 -0.891098,-0.87838 -1.517578,-0.85546 z"
             style="color:#000000;font-style:normal;font-variant:normal;font-weight:normal;font-stretch:normal;font-size:medium;line-height:normal;font-family:sans-serif;text-indent:0;text-align:start;text-decoration:none;text-decoration-line:none;text-decoration-style:solid;text-decoration-color:#000000;letter-spacing:normal;word-spacing:normal;text-transform:none;writing-mode:lr-tb;direction:ltr;baseline-shift:baseline;text-anchor:start;white-space:normal;clip-rule:nonzero;display:inline;overflow:visible;visibility:visible;opacity:1;isolation:auto;mix-blend-mode:normal;color-interpolation:sRGB;color-interpolation-filters:linearRGB;solid-color:#000000;solid-opacity:1;fill:#ffb851;fill-opacity:0.96078432;fill-rule:evenodd;stroke:none;stroke-width:3.33333325;stroke-linecap:round;stroke-linejoin:round;stroke-miterlimit:4;stroke-dasharray:none;stroke-dashoffset:0;stroke-opacity:1;color-rendering:auto;image-rendering:auto;shape-rendering:auto;text-rendering:auto;enable-background:accumulate" />
          <path
             inkscape:connector-curvature="0"
             id="path4165"
             d="m 16,308.64998 16.666667,-30 16.666667,30 z"
             style="fill:#ffd94c;fill-opacity:1;fill-rule:evenodd;stroke:none;stroke-width:1.66666675px;stroke-linecap:butt;stroke-linejoin:miter;stroke-opacity:1" />
        </g>
        <path
           style="opacity:1;fill:#906411;fill-opacity:1;stroke:none;stroke-width:0.26458332;stroke-linecap:round;stroke-linejoin:round;stroke-miterlimit:4;stroke-dasharray:none;stroke-opacity:1"
           d="m 11.126674,295.70542 c -0.146579,0 -0.264583,0.118 -0.264583,0.26458 v 1.32292 c 0,0.14658 0.118004,0.26458 0.264583,0.26458 0.146579,0 0.264583,-0.118 0.264583,-0.26458 V 295.97 c 0,-0.14658 -0.118004,-0.26458 -0.264583,-0.26458 z m 0,2.11666 c -0.146579,0 -0.264583,0.11801 -0.264583,0.26459 0,0.14658 0.118004,0.26458 0.264583,0.26458 0.146579,0 0.264583,-0.118 0.264583,-0.26458 0,-0.14658 -0.118004,-0.26459 -0.264583,-0.26459 z"
           id="rect901"
           inkscape:connector-curvature="0" />
      </g>
    </g>
  </g>
</svg>
