<?xml version="1.0" encoding="UTF-8" standalone="no"?>
<!-- Created with Inkscape (http://www.inkscape.org/) -->

<svg
   xmlns:dc="http://purl.org/dc/elements/1.1/"
   xmlns:cc="http://creativecommons.org/ns#"
   xmlns:rdf="http://www.w3.org/1999/02/22-rdf-syntax-ns#"
   xmlns:svg="http://www.w3.org/2000/svg"
   xmlns="http://www.w3.org/2000/svg"
   xmlns:sodipodi="http://sodipodi.sourceforge.net/DTD/sodipodi-0.dtd"
   xmlns:inkscape="http://www.inkscape.org/namespaces/inkscape"
   width="32"
   height="32"
   viewBox="0 0 8.4666665 8.4666669"
   version="1.1"
   id="svg8"
   inkscape:version="0.92.3 (2405546, 2018-03-11)"
   sodipodi:docname="deepin-appstore.svg">
  <defs
     id="defs2" />
  <sodipodi:namedview
     id="base"
     pagecolor="#ffffff"
     bordercolor="#666666"
     borderopacity="1.0"
     inkscape:pageopacity="0.0"
     inkscape:pageshadow="2"
     inkscape:zoom="11.2"
     inkscape:cx="1.6814447"
     inkscape:cy="13.283898"
     inkscape:document-units="px"
     inkscape:current-layer="layer1"
     showgrid="true"
     units="px"
     inkscape:showpageshadow="false"
     inkscape:snap-bbox="true"
     inkscape:bbox-paths="true"
     inkscape:bbox-nodes="true"
     inkscape:snap-bbox-edge-midpoints="true"
     inkscape:snap-bbox-midpoints="true"
     inkscape:object-paths="true"
     inkscape:snap-intersection-paths="true"
     inkscape:window-width="1874"
     inkscape:window-height="1141"
     inkscape:window-x="46"
     inkscape:window-y="30"
     inkscape:window-maximized="1">
    <inkscape:grid
       type="xygrid"
       id="grid815" />
  </sodipodi:namedview>
  <metadata
     id="metadata5">
    <rdf:RDF>
      <cc:Work
         rdf:about="">
        <dc:format>image/svg+xml</dc:format>
        <dc:type
           rdf:resource="http://purl.org/dc/dcmitype/StillImage" />
        <dc:title></dc:title>
      </cc:Work>
    </rdf:RDF>
  </metadata>
  <g
     inkscape:label="Capa 1"
     inkscape:groupmode="layer"
     id="layer1"
     transform="translate(0,-288.53333)">
    <g
       id="g2146"
       transform="translate(7.1437501,3.4395812)">
      <g
         transform="matrix(0.26458333,0,0,0.26458333,-1.1375e-7,210.04469)"
         id="g2933">
        <path
           sodipodi:nodetypes="sssssssss"
           inkscape:connector-curvature="0"
           style="opacity:1;fill:#c8c3b7;fill-opacity:1;stroke:none;stroke-width:0.80800003;stroke-linecap:round;stroke-linejoin:round;stroke-miterlimit:4;stroke-dasharray:none;stroke-opacity:1;paint-order:stroke markers fill"
           d="M -23,291.64999 H 1 c 1.108,0 2,0.892 2,2 v 19 c 0,1.108 -0.892,2 -2,2 h -24 c -1.108,0 -2,-0.892 -2,-2 v -19 c 0,-1.108 0.892,-2 2,-2 z"
           id="rect926" />
        <path
           sodipodi:nodetypes="sssssssss"
           inkscape:connector-curvature="0"
           style="opacity:1;fill:#f2efe6;fill-opacity:1;stroke:none;stroke-width:0.80800003;stroke-linecap:round;stroke-linejoin:round;stroke-miterlimit:4;stroke-dasharray:none;stroke-opacity:1;paint-order:stroke markers fill"
           d="M -23,292.64999 H 1.000012 c 0.554,0 1,0.446 1,1 v 19 c 0,0.554 -0.446,1 -1,1 H -23 c -0.554,0 -1,-0.446 -1,-1 v -19 c 0,-0.554 0.446,-1 1,-1 z"
           id="rect928" />
        <path
           sodipodi:nodetypes="sssssssss"
           inkscape:connector-curvature="0"
           style="opacity:1;fill:#4f92db;fill-opacity:1;stroke:none;stroke-width:0.80800003;stroke-linecap:round;stroke-linejoin:round;stroke-miterlimit:4;stroke-dasharray:none;stroke-opacity:1;paint-order:stroke markers fill"
           d="m -20,299.64999 h 6.999999 c 0.554,0 1,0.446 1,1 v 11 c 0,0.554 -0.446,1 -1,1 H -20 c -0.554,0 -1,-0.446 -1,-1 v -11 c 0,-0.554 0.446,-1 1,-1 z"
           id="rect963" />
        <path
           style="opacity:1;fill:#a3b7cc;fill-opacity:1;stroke:none;stroke-width:0.80800003;stroke-linecap:round;stroke-linejoin:round;stroke-miterlimit:4;stroke-dasharray:none;stroke-opacity:1;paint-order:stroke markers fill"
           d="m -21,311.64999 c -0.554,0 -1,0.446 -1,1 v 1 1 h 1 9 1 v -1 -1 c 0,-0.554 -0.445999,-1 -1,-1 z"
           id="rect938"
           inkscape:connector-curvature="0" />
        <path
           sodipodi:nodetypes="ccccc"
           inkscape:connector-curvature="0"
           style="opacity:1;fill:#5ac0ff;fill-opacity:1;stroke:none;stroke-width:0.80800003;stroke-linecap:round;stroke-linejoin:round;stroke-miterlimit:4;stroke-dasharray:none;stroke-opacity:1;paint-order:stroke markers fill"
           d="m -20,300.64999 h 7 v 11 h -7 z"
           id="rect965" />
        <path
           inkscape:connector-curvature="0"
           style="opacity:1;fill:#e8f6ff;fill-opacity:1;stroke:none;stroke-width:0.80800003;stroke-linecap:round;stroke-linejoin:round;stroke-miterlimit:4;stroke-dasharray:none;stroke-opacity:1;paint-order:stroke markers fill"
           d="m -21,312.64999 h 9 v 1 h -9 z"
           id="rect945" />
        <path
           inkscape:connector-curvature="0"
           style="opacity:1;fill:#4f92db;fill-opacity:1;stroke:none;stroke-width:0.80800003;stroke-linecap:round;stroke-linejoin:round;stroke-miterlimit:4;stroke-dasharray:none;stroke-opacity:1;paint-order:stroke markers fill"
           d="m -15,305.64999 c 0.554,0 1,0.446 1,1 0,0.554 -0.446,1 -1,1 -0.554,0 -1,-0.446 -1,-1 0,-0.554 0.446,-1 1,-1 z"
           id="rect985" />
        <path
           inkscape:connector-curvature="0"
           style="opacity:1;fill:#4f92db;fill-opacity:1;stroke:none;stroke-width:0.80800003;stroke-linecap:round;stroke-linejoin:round;stroke-miterlimit:4;stroke-dasharray:none;stroke-opacity:1;paint-order:stroke markers fill"
           d="M -8,298.64999 H 1e-6 c 0.554,0 1,0.446 1,1 v 8 c 0,0.554 -0.446,1 -1,1 H -8 c -0.554,0 -1,-0.446 -1,-1 v -8 c 0,-0.554 0.446,-1 1,-1 z"
           id="rect1019" />
        <path
           inkscape:connector-curvature="0"
           style="opacity:1;fill:#5ac0ff;fill-opacity:1;stroke:none;stroke-width:0.80800003;stroke-linecap:round;stroke-linejoin:round;stroke-miterlimit:4;stroke-dasharray:none;stroke-opacity:1;paint-order:stroke markers fill"
           d="m -8,299.64999 h 8 v 8 h -8 z"
           id="rect1021" />
        <path
           inkscape:connector-curvature="0"
           style="opacity:1;fill:#0e72ac;fill-opacity:1;stroke:none;stroke-width:0.80800003;stroke-linecap:round;stroke-linejoin:round;stroke-miterlimit:4;stroke-dasharray:none;stroke-opacity:1;paint-order:stroke markers fill"
           d="m -6,300.64999 h 4 c 0.554,0 1,0.446 1,1 v 4 c 0,0.554 -0.446,1 -1,1 h -4 c -0.554,0 -1,-0.446 -1,-1 v -4 c 0,-0.554 0.446,-1 1,-1 z"
           id="rect1023" />
        <path
           inkscape:connector-curvature="0"
           style="opacity:1;fill:#2594d1;fill-opacity:1;stroke:none;stroke-width:0.80800003;stroke-linecap:round;stroke-linejoin:round;stroke-miterlimit:4;stroke-dasharray:none;stroke-opacity:1;paint-order:stroke markers fill"
           d="m -6,301.64999 h 4 v 4 h -4 z"
           id="rect1025" />
        <path
           inkscape:connector-curvature="0"
           style="opacity:1;fill:#d72f4a;fill-opacity:1;stroke:none;stroke-width:0.80800003;stroke-linecap:round;stroke-linejoin:round;stroke-miterlimit:4;stroke-dasharray:none;stroke-opacity:1;paint-order:stroke markers fill"
           d="m -24,284.64999 c -1.108,0 -2,0.892 -2,2 v 1 3 2 c 1.49e-4,1.07165 0.571926,2.06184 1.5,2.59766 0.928203,0.5359 2.071797,0.5359 3,0 0.928074,-0.53582 1.499851,-1.52601 1.5,-2.59766 v -2 -3 -1 -2 h -2 z m 10,0 v 2 4 2 c 1.49e-4,1.07165 0.571926,2.06184 1.5,2.59766 0.928203,0.5359 2.071797,0.5359 3,0 0.928074,-0.53582 1.499851,-1.52601 1.5,-2.59766 v -5 -1 -2 h -2 -2 z m 12,0 v 2 4 2 c 1.49e-4,1.07165 0.571926,2.06184 1.5,2.59766 0.928203,0.5359 2.071797,0.5359 3,0 0.928074,-0.53582 1.499851,-1.52601 1.5,-2.59766 v -5 -1 c 0,-1.108 -0.892,-2 -2,-2 H 0 Z"
           id="path1075-0" />
        <path
           inkscape:connector-curvature="0"
           style="opacity:1;fill:#a3b7cc;fill-opacity:1;stroke:none;stroke-width:0.80800003;stroke-linecap:round;stroke-linejoin:round;stroke-miterlimit:4;stroke-dasharray:none;stroke-opacity:1;paint-order:stroke markers fill"
           d="m -20,284.64999 v 2 4 2 c 1.49e-4,1.07165 0.571926,2.06184 1.5,2.59766 0.928203,0.5359 2.071797,0.5359 3,0 0.928074,-0.53582 1.499851,-1.52601 1.5,-2.59766 v -5 -1 -2 h -2 -2 z m 12,0 v 2 4 2 c 1.49e-4,1.07165 0.571926,2.06184 1.5,2.59766 0.928203,0.5359 2.071797,0.5359 3,0 0.928074,-0.53582 1.499851,-1.52601 1.5,-2.59766 v -5 -1 -2 h -2 -2 z"
           id="path1075-0-1" />
        <path
           sodipodi:nodetypes="ccccssccsscc"
           inkscape:connector-curvature="0"
           style="opacity:1;fill:#ff778a;fill-opacity:1;stroke:none;stroke-width:0.53866667;stroke-linecap:round;stroke-linejoin:round;stroke-miterlimit:4;stroke-dasharray:none;stroke-opacity:1;paint-order:stroke markers fill"
           d="m -1,285.64999 v 1 5.00017 1 c -1.32e-4,0.71466 0.381084,1.37509 1,1.73242 0.618802,0.35727 1.381198,0.35727 2,0 0.618916,-0.35733 1.000132,-1.01776 1,-1.73242 v -1 -5.00017 c 0,-0.554 -0.446,-1 -1,-1 H 0 Z"
           id="path1075-0-9-2" />
        <path
           sodipodi:nodetypes="ccccssccccccc"
           inkscape:connector-curvature="0"
           style="opacity:1;fill:#e8f6ff;fill-opacity:1;stroke:none;stroke-width:0.53866667;stroke-linecap:round;stroke-linejoin:round;stroke-miterlimit:4;stroke-dasharray:none;stroke-opacity:1;paint-order:stroke markers fill"
           d="m -7,285.64999 v 1 5.00017 1 c -1.32e-4,0.71466 0.381084,1.37509 1,1.73242 0.618802,0.35727 1.381198,0.35727 2,0 0.618916,-0.35733 1.000132,-1.01776 1,-1.73242 v -1 -5.00017 -1 h -1 -2 z"
           id="path1075-0-9-2-0" />
        <path
           sodipodi:nodetypes="ccccssccccccc"
           inkscape:connector-curvature="0"
           style="opacity:1;fill:#ff778a;fill-opacity:1;stroke:none;stroke-width:0.53866667;stroke-linecap:round;stroke-linejoin:round;stroke-miterlimit:4;stroke-dasharray:none;stroke-opacity:1;paint-order:stroke markers fill"
           d="m -13,285.64999 v 1 5.00017 1 c -1.32e-4,0.71466 0.381084,1.37509 1,1.73242 0.618802,0.35727 1.381198,0.35727 2,0 0.618916,-0.35733 1.000132,-1.01776 1,-1.73242 v -1 -5.00017 -1 h -1 -2 z"
           id="path1075-0-9-2-2" />
        <path
           sodipodi:nodetypes="ccccssccccccc"
           inkscape:connector-curvature="0"
           style="opacity:1;fill:#e8f6ff;fill-opacity:1;stroke:none;stroke-width:0.53866667;stroke-linecap:round;stroke-linejoin:round;stroke-miterlimit:4;stroke-dasharray:none;stroke-opacity:1;paint-order:stroke markers fill"
           d="m -19,285.64999 v 1 5.00017 1 c -1.31e-4,0.71466 0.381084,1.37509 1,1.73242 0.618803,0.35727 1.381198,0.35727 2,0 0.618916,-0.35733 1.000132,-1.01776 1,-1.73242 v -1 -5.00017 -1 h -1 -2 z"
           id="path1075-0-9-2-3" />
        <path
           sodipodi:nodetypes="ssccsscccccs"
           inkscape:connector-curvature="0"
           style="opacity:1;fill:#ff778a;fill-opacity:1;stroke:none;stroke-width:0.53866667;stroke-linecap:round;stroke-linejoin:round;stroke-miterlimit:4;stroke-dasharray:none;stroke-opacity:1;paint-order:stroke markers fill"
           d="m -24,285.64999 c -0.553999,0 -1,0.446 -1,1 v 5.00017 1 c -1.31e-4,0.71466 0.381084,1.37509 1,1.73242 0.618803,0.35727 1.381198,0.35727 2,0 0.618917,-0.35733 1.000132,-1.01776 1,-1.73242 v -1 -5.00017 -1 h -1 z"
           id="path1075-0-9-2-7" />
      </g>
    </g>
  </g>
</svg>
