<?xml version="1.0" encoding="UTF-8" standalone="no"?>
<!-- Created with Inkscape (http://www.inkscape.org/) -->

<svg
   width="32"
   height="32"
   viewBox="0 0 8.4666664 8.4666666"
   version="1.1"
   id="svg5"
   inkscape:version="1.2 (dc2aedaf03, 2022-05-15)"
   sodipodi:docname="yast-mail.svg"
   xmlns:inkscape="http://www.inkscape.org/namespaces/inkscape"
   xmlns:sodipodi="http://sodipodi.sourceforge.net/DTD/sodipodi-0.dtd"
   xmlns="http://www.w3.org/2000/svg"
   xmlns:svg="http://www.w3.org/2000/svg">
  <sodipodi:namedview
     id="namedview7"
     pagecolor="#ffffff"
     bordercolor="#000000"
     borderopacity="0.25"
     inkscape:showpageshadow="false"
     inkscape:pageopacity="0.0"
     inkscape:pagecheckerboard="0"
     inkscape:deskcolor="#d1d1d1"
     inkscape:document-units="px"
     showgrid="true"
     inkscape:zoom="28.963094"
     inkscape:cx="16.762712"
     inkscape:cy="16.106705"
     inkscape:window-width="2160"
     inkscape:window-height="1335"
     inkscape:window-x="0"
     inkscape:window-y="0"
     inkscape:window-maximized="1"
     inkscape:current-layer="layer1">
    <inkscape:grid
       type="xygrid"
       id="grid290"
       originx="0"
       originy="0" />
  </sodipodi:namedview>
  <defs
     id="defs2" />
  <g
     inkscape:label="Capa 1"
     inkscape:groupmode="layer"
     id="layer1">
    <g
       id="g18452"
       transform="translate(-0.2645882,1.3229197)">
      <path
         id="path5683"
         style="fill:#cdcdcd;fill-opacity:1;stroke:#b1c1d4;stroke-width:0.529167;stroke-linecap:round;stroke-linejoin:round;stroke-miterlimit:1.8;stroke-opacity:1;paint-order:fill markers stroke;stop-color:#000000"
         d="M 2.1409546,-0.52916687 H 1.5875 c -0.1465784,0 -0.2645834,0.11800416 -0.2645834,0.26458333 v 0.28887208 c 0.00729,0.0026458 0.015134,0.0037306 0.02222,0.0067204 0.023757,0.01000125 0.046589,0.02246313 0.067696,0.03668978 0.021108,0.01423458 0.040977,0.03012545 0.058911,0.04805891 0.017934,0.0179388 0.033823,0.0378037 0.048059,0.0589121 0.014237,0.0211137 0.026675,0.0439393 0.03669,0.0676963 0.010015,0.0237596 0.017468,0.0485299 0.022738,0.0744141 0.00527,0.0258762 0.00827,0.052615 0.00827,0.0800973 0,0.0274823 -0.003,0.0542158 -0.00827,0.0800973 -0.00527,0.0258762 -0.012724,0.0506598 -0.022738,0.0744141 -0.010015,0.0237596 -0.022455,0.0465905 -0.03669,0.0676963 -0.014237,0.0211138 -0.030126,0.0409787 -0.048059,0.0589121 -0.017934,0.0179388 -0.037804,0.0338217 -0.058911,0.0480589 -0.021108,0.0142346 -0.04394,0.0266753 -0.067696,0.0366898 -0.00709,0.00299 -0.014928,0.004128 -0.02222,0.00672 V 1.3472105 c 0.00729,0.00265 0.015134,0.00373 0.02222,0.00672 0.023757,0.010001 0.046589,0.022463 0.067696,0.03669 0.021108,0.014235 0.040977,0.030125 0.058911,0.048059 0.017934,0.017939 0.033823,0.037804 0.048059,0.058912 0.014237,0.021114 0.026675,0.043939 0.03669,0.067696 0.010015,0.02376 0.017468,0.04853 0.022738,0.074414 0.00527,0.025876 0.00827,0.052615 0.00827,0.080097 0,0.027482 -0.003,0.054216 -0.00827,0.080097 -0.00527,0.025876 -0.012724,0.05066 -0.022738,0.074414 -0.010015,0.02376 -0.022455,0.04659 -0.03669,0.067696 -0.014237,0.021114 -0.030126,0.040979 -0.048059,0.058912 -0.017934,0.017939 -0.037804,0.033822 -0.058911,0.048059 -0.021108,0.014235 -0.04394,0.026675 -0.067696,0.03669 -0.00709,0.00299 -0.014928,0.00413 -0.02222,0.00672 v 0.5777441 c 0.00729,0.00265 0.015134,0.00373 0.02222,0.00672 0.023757,0.010001 0.046589,0.022463 0.067696,0.03669 0.021108,0.014235 0.040977,0.030126 0.058911,0.048059 0.017934,0.017939 0.033823,0.037804 0.048059,0.058912 0.014237,0.021114 0.026675,0.043939 0.03669,0.067696 0.010015,0.02376 0.017468,0.04853 0.022738,0.074414 0.00527,0.025876 0.00827,0.052615 0.00827,0.080097 0,0.027482 -0.003,0.054216 -0.00827,0.080097 -0.00527,0.025876 -0.012724,0.05066 -0.022738,0.074414 -0.010015,0.02376 -0.022455,0.046591 -0.03669,0.067696 -0.014237,0.021114 -0.030126,0.040979 -0.048059,0.058912 -0.017934,0.017939 -0.037804,0.033822 -0.058911,0.048059 -0.021108,0.014235 -0.04394,0.026675 -0.067696,0.03669 -0.00709,0.00299 -0.014928,0.00413 -0.02222,0.00672 v 0.5777442 c 0.00729,0.00265 0.015134,0.00373 0.02222,0.00672 0.023757,0.010001 0.046589,0.022463 0.067696,0.03669 0.021108,0.014234 0.040977,0.030125 0.058911,0.048059 0.017934,0.017939 0.033823,0.037804 0.048059,0.058912 0.014237,0.021114 0.026675,0.043939 0.03669,0.067696 0.010015,0.02376 0.017468,0.04853 0.022738,0.074414 0.00527,0.025876 0.00827,0.052615 0.00827,0.080097 0,0.027482 -0.003,0.054216 -0.00827,0.080097 -0.00527,0.025876 -0.012724,0.05066 -0.022738,0.074414 -0.010015,0.02376 -0.022455,0.046591 -0.03669,0.067696 -0.014237,0.021114 -0.030126,0.040979 -0.048059,0.058912 -0.017934,0.017939 -0.037804,0.033822 -0.058911,0.048059 -0.021108,0.014234 -0.04394,0.026675 -0.067696,0.03669 -0.00709,0.00299 -0.014928,0.00413 -0.02222,0.00672 V 5.315971 c 0.00729,0.00265 0.015134,0.00373 0.02222,0.00672 0.023757,0.010001 0.046589,0.022463 0.067696,0.03669 0.021108,0.014235 0.040977,0.030125 0.058911,0.048059 0.017934,0.017939 0.033823,0.037804 0.048059,0.058912 0.014237,0.021114 0.026675,0.043939 0.03669,0.067696 0.010015,0.02376 0.017468,0.04853 0.022738,0.074414 0.00527,0.025876 0.00827,0.052615 0.00827,0.080097 0,0.027482 -0.003,0.054216 -0.00827,0.080097 -0.00527,0.025876 -0.012724,0.05066 -0.022738,0.074414 -0.010015,0.02376 -0.022455,0.04659 -0.03669,0.067696 -0.014237,0.021114 -0.030126,0.040979 -0.048059,0.058912 -0.017934,0.017939 -0.037804,0.033822 -0.058911,0.048059 -0.021108,0.014235 -0.04394,0.026675 -0.067696,0.03669 -0.00709,0.00299 -0.014928,0.00413 -0.02222,0.00672 v 0.2888721 c 0,0.1465791 0.118005,0.2645833 0.2645834,0.2645833 h 0.5534546 c 0.00259,-0.0073 0.00373,-0.015134 0.00672,-0.022225 0.010014,-0.02376 0.022455,-0.04659 0.03669,-0.067696 0.014237,-0.021114 0.030125,-0.040979 0.048059,-0.058912 0.017933,-0.017939 0.037804,-0.033822 0.058911,-0.048059 0.021108,-0.014235 0.04394,-0.026675 0.067696,-0.03669 0.023757,-0.010001 0.048532,-0.017462 0.074414,-0.022728 0.025882,-0.00527 0.052615,-0.00826 0.080098,-0.00826 0.027484,0 0.054216,0.00299 0.080098,0.00826 0.025882,0.00527 0.050657,0.012726 0.074414,0.022728 0.023757,0.010001 0.046589,0.022463 0.067696,0.03669 0.021106,0.014234 0.040977,0.030125 0.058911,0.048059 0.017934,0.017939 0.033823,0.037804 0.048059,0.058912 0.014237,0.021114 0.026675,0.043939 0.03669,0.067696 0.00299,0.00709 0.00414,0.014922 0.00672,0.022225 h 0.5777426 c 0.00259,-0.0073 0.00373,-0.015134 0.00672,-0.022225 0.010015,-0.02376 0.022455,-0.04659 0.03669,-0.067696 0.014237,-0.021114 0.030126,-0.040979 0.048059,-0.058912 0.017934,-0.017939 0.037804,-0.033822 0.058911,-0.048059 0.021108,-0.014235 0.04394,-0.026675 0.067696,-0.03669 0.023757,-0.010001 0.048532,-0.017462 0.074414,-0.022728 0.025882,-0.00527 0.052615,-0.00826 0.080098,-0.00826 0.027484,0 0.054216,0.00299 0.080098,0.00826 0.025882,0.00527 0.050657,0.012726 0.074414,0.022728 0.023757,0.010001 0.046589,0.022463 0.067696,0.03669 0.021106,0.014234 0.040977,0.030125 0.058911,0.048059 0.017933,0.017939 0.033823,0.037804 0.048059,0.058912 0.014237,0.021114 0.026675,0.043939 0.03669,0.067696 0.00299,0.00709 0.00414,0.014922 0.00672,0.022225 h 0.5777425 c 0.00259,-0.0073 0.00373,-0.015134 0.00672,-0.022225 0.010014,-0.02376 0.022455,-0.04659 0.03669,-0.067696 0.014237,-0.021114 0.030126,-0.040979 0.048059,-0.058912 0.017933,-0.017939 0.037804,-0.033822 0.058911,-0.048059 0.021108,-0.014235 0.04394,-0.026675 0.067696,-0.03669 0.023757,-0.010001 0.048532,-0.017462 0.074414,-0.022728 0.025882,-0.00527 0.052615,-0.00826 0.080098,-0.00826 0.027484,0 0.054216,0.00299 0.080098,0.00826 0.025881,0.00527 0.050657,0.012726 0.074414,0.022728 0.023757,0.010001 0.046589,0.022463 0.067696,0.03669 0.021106,0.014234 0.040977,0.030125 0.058911,0.048059 0.017933,0.017939 0.033823,0.037804 0.048059,0.058912 0.014237,0.021114 0.026675,0.043939 0.03669,0.067696 0.00299,0.00709 0.00414,0.014922 0.00672,0.022225 h 0.5777425 c 0.00259,-0.0073 0.00373,-0.015134 0.00672,-0.022225 0.010015,-0.02376 0.022455,-0.04659 0.03669,-0.067696 0.014237,-0.021114 0.030125,-0.040979 0.048059,-0.058912 0.017933,-0.017939 0.037804,-0.033822 0.058911,-0.048059 0.021109,-0.014235 0.04394,-0.026675 0.067696,-0.03669 0.023757,-0.010001 0.048532,-0.017462 0.074414,-0.022728 0.025881,-0.00527 0.052615,-0.00826 0.080098,-0.00826 0.027484,0 0.054216,0.00299 0.080098,0.00826 0.025882,0.00527 0.050657,0.012726 0.074414,0.022728 0.023757,0.010001 0.046589,0.022463 0.067696,0.03669 0.021106,0.014234 0.040977,0.030125 0.058911,0.048059 0.017933,0.017939 0.033823,0.037804 0.048059,0.058912 0.014237,0.021114 0.026675,0.043939 0.03669,0.067696 0.00299,0.00709 0.00414,0.014922 0.00672,0.022225 h 0.5534567 c 0.1465784,0 0.2645834,-0.1180042 0.2645834,-0.2645833 v -0.288865 c -0.00729,-0.00265 -0.015134,-0.00373 -0.02222,-0.00672 -0.023757,-0.010001 -0.046589,-0.022463 -0.067696,-0.03669 -0.021106,-0.014235 -0.040977,-0.030126 -0.058911,-0.048059 -0.017933,-0.017939 -0.033823,-0.037804 -0.048059,-0.058912 -0.014237,-0.021114 -0.026675,-0.043939 -0.03669,-0.067696 -0.010014,-0.02376 -0.017468,-0.04853 -0.022738,-0.074414 -0.00527,-0.025905 -0.00827,-0.052639 -0.00827,-0.080121 0,-0.027482 0.003,-0.054216 0.00827,-0.080097 0.00527,-0.025876 0.012724,-0.05066 0.022738,-0.074414 0.010014,-0.02376 0.022455,-0.04659 0.03669,-0.067696 0.014237,-0.021114 0.030125,-0.040979 0.048059,-0.058912 0.017933,-0.017939 0.037804,-0.033822 0.058911,-0.048059 0.021108,-0.014235 0.04394,-0.026675 0.067696,-0.03669 0.00709,-0.00299 0.014928,-0.00413 0.02222,-0.00672 V 4.7382083 c -0.00729,-0.00265 -0.015134,-0.00373 -0.02222,-0.00672 -0.023757,-0.010001 -0.046589,-0.022463 -0.067696,-0.03669 -0.021106,-0.014234 -0.040977,-0.030125 -0.058911,-0.048059 -0.017933,-0.017939 -0.033823,-0.037804 -0.048059,-0.058912 -0.014237,-0.021114 -0.026675,-0.043939 -0.03669,-0.067696 -0.010014,-0.02376 -0.017468,-0.04853 -0.022738,-0.074414 -0.00527,-0.025876 -0.00827,-0.05261 -0.00827,-0.080092 0,-0.027482 0.003,-0.054216 0.00827,-0.080097 0.00527,-0.025876 0.012724,-0.05066 0.022738,-0.074414 0.010014,-0.02376 0.022455,-0.046591 0.03669,-0.067696 0.014237,-0.021114 0.030125,-0.040979 0.048059,-0.058912 0.017933,-0.017939 0.037804,-0.033822 0.058911,-0.048059 0.021108,-0.014235 0.04394,-0.026675 0.067696,-0.03669 0.00709,-0.00299 0.014928,-0.00413 0.02222,-0.00672 V 3.4152917 c -0.00729,-0.00265 -0.015134,-0.00373 -0.02222,-0.00672 C 7.6269394,3.39857 7.6041074,3.3861081 7.583,3.3718815 7.5618942,3.3576469 7.5420227,3.341756 7.524089,3.3238226 7.506156,3.3058836 7.490266,3.2860186 7.47603,3.2649106 7.461793,3.2437966 7.449355,3.2209716 7.43934,3.1972146 7.429326,3.1734546 7.421872,3.1486846 7.416602,3.1228006 c -0.00527,-0.025876 -0.00827,-0.05261 -0.00827,-0.080092 0,-0.027482 0.003,-0.054216 0.00827,-0.080097 0.00527,-0.025876 0.012724,-0.05066 0.022738,-0.074414 0.010014,-0.02376 0.022455,-0.04659 0.03669,-0.067696 0.014237,-0.021114 0.030125,-0.040979 0.048059,-0.058912 0.017933,-0.017939 0.037804,-0.033822 0.058911,-0.048059 0.021108,-0.014235 0.04394,-0.026675 0.067696,-0.03669 0.00709,-0.00299 0.014928,-0.00413 0.02222,-0.00672 V 2.092375 C 7.665626,2.089725 7.657782,2.088645 7.650696,2.085655 7.626939,2.075654 7.604107,2.063192 7.583,2.048965 7.561894,2.034731 7.542023,2.01884 7.524089,2.000906 7.506156,1.982967 7.490266,1.963102 7.47603,1.941994 7.461793,1.92088 7.449355,1.898055 7.43934,1.874298 7.429326,1.850538 7.421872,1.825768 7.416602,1.799884 7.411332,1.774008 7.408332,1.747274 7.408332,1.719792 c 0,-0.027482 0.003,-0.054216 0.00827,-0.080097 C 7.421872,1.613819 7.429326,1.589035 7.43934,1.565281 7.449354,1.541521 7.461795,1.518691 7.47603,1.497585 7.490267,1.476471 7.506155,1.456606 7.524089,1.438673 7.542022,1.420734 7.561893,1.404851 7.583,1.390614 7.604108,1.376379 7.62694,1.363939 7.650696,1.353924 7.657786,1.350934 7.665624,1.349794 7.672916,1.347204 V 0.76945838 c -0.00729,-0.002646 -0.015134,-0.003731 -0.02222,-0.00672 C 7.6269394,0.75273672 7.6041074,0.74027484 7.583,0.7260482 7.5618942,0.71181361 7.5420227,0.69592274 7.524089,0.67798928 7.5061555,0.66005053 7.4902662,0.64018561 7.4760298,0.61907716 7.4617926,0.59796341 7.4493545,0.5751378 7.4393398,0.55138087 7.4293253,0.52762128 7.421872,0.50285099 7.4166015,0.4769668 c -0.00527,-0.0258763 -0.00827,-0.0526098 -0.00827,-0.080092 0,-0.0274823 0.003,-0.0542158 0.00827,-0.0800973 0.00527,-0.0258762 0.012724,-0.0506598 0.022738,-0.0744141 0.010014,-0.0237596 0.022455,-0.0465905 0.03669,-0.0676963 C 7.490267,0.15355337 7.5061552,0.13368845 7.524089,0.115755 7.5420224,0.09781625 7.5618929,0.08193331 7.583,0.06769608 7.604108,0.0534615 7.62694,0.04102079 7.650696,0.03100631 c 0.00709,-0.0029898 0.014928,-0.0041275 0.02222,-0.0067204 v -0.28887208 c 0,-0.14657916 -0.1180049,-0.26458333 -0.2645833,-0.26458333 H 6.8548781 c -0.00259,0.007302 -0.00373,0.0151342 -0.00672,0.022225 -0.010014,0.0237596 -0.022455,0.0465905 -0.03669,0.0676963 -0.014237,0.0211138 -0.030125,0.0409787 -0.048059,0.0589121 -0.017933,0.0179388 -0.037804,0.0338217 -0.058911,0.0480589 -0.021108,0.0142346 -0.04394,0.0266753 -0.067696,0.0366898 -0.023757,0.0100013 -0.048532,0.0174625 -0.074414,0.0227277 -0.025882,0.005265 -0.052615,0.008255 -0.080098,0.008255 -0.027484,0 -0.054216,-0.00299 -0.080098,-0.008255 -0.025882,-0.005265 -0.050657,-0.0127265 -0.074414,-0.0227277 -0.023757,-0.0100013 -0.046589,-0.0224631 -0.067696,-0.0366898 -0.021106,-0.0142346 -0.040977,-0.0301255 -0.058911,-0.0480589 -0.017933,-0.0179388 -0.033823,-0.0378037 -0.048059,-0.0589121 -0.014237,-0.0211137 -0.026675,-0.0439393 -0.03669,-0.0676963 -0.00299,-0.007091 -0.00414,-0.0149225 -0.00672,-0.022225 H 5.531962 c -0.00259,0.007302 -0.00373,0.0151342 -0.00672,0.022225 -0.010015,0.0237596 -0.022455,0.0465905 -0.03669,0.0676963 -0.014237,0.0211138 -0.030126,0.0409787 -0.048059,0.0589121 -0.017934,0.0179388 -0.037804,0.0338217 -0.058911,0.0480589 -0.021108,0.0142346 -0.04394,0.0266753 -0.067696,0.0366898 -0.023757,0.0100013 -0.048532,0.0174625 -0.074414,0.0227277 -0.025882,0.005265 -0.052615,0.008255 -0.080098,0.008255 -0.027484,0 -0.054216,-0.00299 -0.080098,-0.008255 C 5.053395,-0.2781247 5.028619,-0.2855862 5.004862,-0.2955874 4.981105,-0.3055887 4.958273,-0.3180505 4.937166,-0.3322772 4.91606,-0.3465118 4.896189,-0.3624027 4.878255,-0.3803361 4.860322,-0.3982749 4.844432,-0.4181398 4.830196,-0.4392482 4.815959,-0.4603619 4.803521,-0.4831875 4.793506,-0.5069445 4.790516,-0.5140355 4.789366,-0.521867 4.786786,-0.5291695 H 4.2090458 c -0.00259,0.007302 -0.00373,0.0151342 -0.00672,0.022225 -0.010014,0.0237596 -0.022455,0.0465905 -0.03669,0.0676963 -0.014237,0.0211138 -0.030125,0.0409787 -0.048059,0.0589121 -0.017933,0.0179388 -0.037804,0.0338217 -0.058911,0.0480589 -0.021109,0.0142346 -0.04394,0.0266753 -0.067696,0.0366898 -0.023757,0.0100013 -0.048532,0.0174625 -0.074414,0.0227277 -0.025881,0.005265 -0.052615,0.008255 -0.080098,0.008255 -0.027484,0 -0.054216,-0.00299 -0.080098,-0.008255 -0.025882,-0.005265 -0.050657,-0.0127265 -0.074414,-0.0227277 -0.023757,-0.0100013 -0.046589,-0.0224631 -0.067696,-0.0366898 -0.021106,-0.0142346 -0.040977,-0.0301255 -0.058911,-0.0480589 -0.017933,-0.0179388 -0.033823,-0.0378037 -0.048059,-0.0589121 -0.014237,-0.0211137 -0.026675,-0.0439393 -0.03669,-0.0676963 -0.00299,-0.007091 -0.00414,-0.0149225 -0.00672,-0.022225 H 2.8861297 c -0.00259,0.007302 -0.00373,0.0151342 -0.00672,0.022225 -0.010015,0.0237596 -0.022455,0.0465905 -0.03669,0.0676963 -0.014237,0.0211138 -0.030125,0.0409787 -0.048059,0.0589121 -0.017933,0.0179388 -0.037804,0.0338217 -0.058911,0.0480589 -0.021108,0.0142346 -0.04394,0.0266753 -0.067696,0.0366898 -0.023757,0.0100013 -0.048532,0.0174625 -0.074414,0.0227277 -0.025881,0.005265 -0.052615,0.008255 -0.080098,0.008255 -0.027484,0 -0.054216,-0.00299 -0.080098,-0.008255 -0.025882,-0.005265 -0.050657,-0.0127265 -0.074414,-0.0227277 -0.023757,-0.0100013 -0.046589,-0.0224631 -0.067696,-0.0366898 -0.021108,-0.0142346 -0.040977,-0.0301255 -0.058911,-0.0480589 -0.017933,-0.0179388 -0.033823,-0.0378037 -0.048059,-0.0589121 -0.014237,-0.0211137 -0.026675,-0.0439393 -0.03669,-0.0676963 -0.00299,-0.007091 -0.00414,-0.0149225 -0.00672,-0.022225 z" />
      <path
         id="path5683-7"
         style="fill:#ecf6ff;fill-opacity:1;stroke:none;stroke-width:0.529167;stroke-linecap:round;stroke-linejoin:round;stroke-miterlimit:1.8;stroke-opacity:1;paint-order:fill markers stroke;stop-color:#000000"
         d="M 2.1409546,-0.52916687 H 1.5875 c -0.1465784,0 -0.2645834,0.11800416 -0.2645834,0.26458333 v 0.28887208 c 0.00729,0.0026458 0.015134,0.0037306 0.02222,0.0067204 0.023757,0.01000125 0.046589,0.02246313 0.067696,0.03668978 0.021108,0.01423458 0.040977,0.03012545 0.058911,0.04805891 0.017934,0.0179388 0.033823,0.0378037 0.048059,0.0589121 0.014237,0.0211137 0.026675,0.0439393 0.03669,0.0676963 0.010015,0.0237596 0.017468,0.0485299 0.022738,0.0744141 0.00527,0.0258762 0.00827,0.052615 0.00827,0.0800973 0,0.0274823 -0.003,0.0542158 -0.00827,0.0800973 -0.00527,0.0258762 -0.012724,0.0506598 -0.022738,0.0744141 -0.010015,0.0237596 -0.022455,0.0465905 -0.03669,0.0676963 -0.014237,0.0211138 -0.030126,0.0409787 -0.048059,0.0589121 -0.017934,0.0179388 -0.037804,0.0338217 -0.058911,0.0480589 -0.021108,0.0142346 -0.04394,0.0266753 -0.067696,0.0366898 -0.00709,0.00299 -0.014928,0.004128 -0.02222,0.00672 V 1.3472105 c 0.00729,0.00265 0.015134,0.00373 0.02222,0.00672 0.023757,0.010001 0.046589,0.022463 0.067696,0.03669 0.021108,0.014235 0.040977,0.030125 0.058911,0.048059 0.017934,0.017939 0.033823,0.037804 0.048059,0.058912 0.014237,0.021114 0.026675,0.043939 0.03669,0.067696 0.010015,0.02376 0.017468,0.04853 0.022738,0.074414 0.00527,0.025876 0.00827,0.052615 0.00827,0.080097 0,0.027482 -0.003,0.054216 -0.00827,0.080097 -0.00527,0.025876 -0.012724,0.05066 -0.022738,0.074414 -0.010015,0.02376 -0.022455,0.04659 -0.03669,0.067696 -0.014237,0.021114 -0.030126,0.040979 -0.048059,0.058912 -0.017934,0.017939 -0.037804,0.033822 -0.058911,0.048059 -0.021108,0.014235 -0.04394,0.026675 -0.067696,0.03669 -0.00709,0.00299 -0.014928,0.00413 -0.02222,0.00672 v 0.5777441 c 0.00729,0.00265 0.015134,0.00373 0.02222,0.00672 0.023757,0.010001 0.046589,0.022463 0.067696,0.03669 0.021108,0.014235 0.040977,0.030126 0.058911,0.048059 0.017934,0.017939 0.033823,0.037804 0.048059,0.058912 0.014237,0.021114 0.026675,0.043939 0.03669,0.067696 0.010015,0.02376 0.017468,0.04853 0.022738,0.074414 0.00527,0.025876 0.00827,0.052615 0.00827,0.080097 0,0.027482 -0.003,0.054216 -0.00827,0.080097 -0.00527,0.025876 -0.012724,0.05066 -0.022738,0.074414 -0.010015,0.02376 -0.022455,0.046591 -0.03669,0.067696 -0.014237,0.021114 -0.030126,0.040979 -0.048059,0.058912 -0.017934,0.017939 -0.037804,0.033822 -0.058911,0.048059 -0.021108,0.014235 -0.04394,0.026675 -0.067696,0.03669 -0.00709,0.00299 -0.014928,0.00413 -0.02222,0.00672 v 0.5777442 c 0.00729,0.00265 0.015134,0.00373 0.02222,0.00672 0.023757,0.010001 0.046589,0.022463 0.067696,0.03669 0.021108,0.014234 0.040977,0.030125 0.058911,0.048059 0.017934,0.017939 0.033823,0.037804 0.048059,0.058912 0.014237,0.021114 0.026675,0.043939 0.03669,0.067696 0.010015,0.02376 0.017468,0.04853 0.022738,0.074414 0.00527,0.025876 0.00827,0.052615 0.00827,0.080097 0,0.027482 -0.003,0.054216 -0.00827,0.080097 -0.00527,0.025876 -0.012724,0.05066 -0.022738,0.074414 -0.010015,0.02376 -0.022455,0.046591 -0.03669,0.067696 -0.014237,0.021114 -0.030126,0.040979 -0.048059,0.058912 -0.017934,0.017939 -0.037804,0.033822 -0.058911,0.048059 -0.021108,0.014234 -0.04394,0.026675 -0.067696,0.03669 -0.00709,0.00299 -0.014928,0.00413 -0.02222,0.00672 V 5.315971 c 0.00729,0.00265 0.015134,0.00373 0.02222,0.00672 0.023757,0.010001 0.046589,0.022463 0.067696,0.03669 0.021108,0.014235 0.040977,0.030125 0.058911,0.048059 0.017934,0.017939 0.033823,0.037804 0.048059,0.058912 0.014237,0.021114 0.026675,0.043939 0.03669,0.067696 0.010015,0.02376 0.017468,0.04853 0.022738,0.074414 0.00527,0.025876 0.00827,0.052615 0.00827,0.080097 0,0.027482 -0.003,0.054216 -0.00827,0.080097 -0.00527,0.025876 -0.012724,0.05066 -0.022738,0.074414 -0.010015,0.02376 -0.022455,0.04659 -0.03669,0.067696 -0.014237,0.021114 -0.030126,0.040979 -0.048059,0.058912 -0.017934,0.017939 -0.037804,0.033822 -0.058911,0.048059 -0.021108,0.014235 -0.04394,0.026675 -0.067696,0.03669 -0.00709,0.00299 -0.014928,0.00413 -0.02222,0.00672 v 0.2888721 c 0,0.1465791 0.118005,0.2645833 0.2645834,0.2645833 h 0.5534546 c 0.00259,-0.0073 0.00373,-0.015134 0.00672,-0.022225 0.010014,-0.02376 0.022455,-0.04659 0.03669,-0.067696 0.014237,-0.021114 0.030125,-0.040979 0.048059,-0.058912 0.017933,-0.017939 0.037804,-0.033822 0.058911,-0.048059 0.021108,-0.014235 0.04394,-0.026675 0.067696,-0.03669 0.023757,-0.010001 0.048532,-0.017462 0.074414,-0.022728 0.025882,-0.00527 0.052615,-0.00826 0.080098,-0.00826 0.027484,0 0.054216,0.00299 0.080098,0.00826 0.025882,0.00527 0.050657,0.012726 0.074414,0.022728 0.023757,0.010001 0.046589,0.022463 0.067696,0.03669 0.021106,0.014234 0.040977,0.030125 0.058911,0.048059 0.017934,0.017939 0.033823,0.037804 0.048059,0.058912 0.014237,0.021114 0.026675,0.043939 0.03669,0.067696 0.00299,0.00709 0.00414,0.014922 0.00672,0.022225 h 0.5777426 c 0.00259,-0.0073 0.00373,-0.015134 0.00672,-0.022225 0.010015,-0.02376 0.022455,-0.04659 0.03669,-0.067696 0.014237,-0.021114 0.030126,-0.040979 0.048059,-0.058912 0.017934,-0.017939 0.037804,-0.033822 0.058911,-0.048059 0.021108,-0.014235 0.04394,-0.026675 0.067696,-0.03669 0.023757,-0.010001 0.048532,-0.017462 0.074414,-0.022728 0.025882,-0.00527 0.052615,-0.00826 0.080098,-0.00826 0.027484,0 0.054216,0.00299 0.080098,0.00826 0.025882,0.00527 0.050657,0.012726 0.074414,0.022728 0.023757,0.010001 0.046589,0.022463 0.067696,0.03669 0.021106,0.014234 0.040977,0.030125 0.058911,0.048059 0.017933,0.017939 0.033823,0.037804 0.048059,0.058912 0.014237,0.021114 0.026675,0.043939 0.03669,0.067696 0.00299,0.00709 0.00414,0.014922 0.00672,0.022225 h 0.5777425 c 0.00259,-0.0073 0.00373,-0.015134 0.00672,-0.022225 0.010014,-0.02376 0.022455,-0.04659 0.03669,-0.067696 0.014237,-0.021114 0.030126,-0.040979 0.048059,-0.058912 0.017933,-0.017939 0.037804,-0.033822 0.058911,-0.048059 0.021108,-0.014235 0.04394,-0.026675 0.067696,-0.03669 0.023757,-0.010001 0.048532,-0.017462 0.074414,-0.022728 0.025882,-0.00527 0.052615,-0.00826 0.080098,-0.00826 0.027484,0 0.054216,0.00299 0.080098,0.00826 0.025881,0.00527 0.050657,0.012726 0.074414,0.022728 0.023757,0.010001 0.046589,0.022463 0.067696,0.03669 0.021106,0.014234 0.040977,0.030125 0.058911,0.048059 0.017933,0.017939 0.033823,0.037804 0.048059,0.058912 0.014237,0.021114 0.026675,0.043939 0.03669,0.067696 0.00299,0.00709 0.00414,0.014922 0.00672,0.022225 h 0.5777425 c 0.00259,-0.0073 0.00373,-0.015134 0.00672,-0.022225 0.010015,-0.02376 0.022455,-0.04659 0.03669,-0.067696 0.014237,-0.021114 0.030125,-0.040979 0.048059,-0.058912 0.017933,-0.017939 0.037804,-0.033822 0.058911,-0.048059 0.021109,-0.014235 0.04394,-0.026675 0.067696,-0.03669 0.023757,-0.010001 0.048532,-0.017462 0.074414,-0.022728 0.025881,-0.00527 0.052615,-0.00826 0.080098,-0.00826 0.027484,0 0.054216,0.00299 0.080098,0.00826 0.025882,0.00527 0.050657,0.012726 0.074414,0.022728 0.023757,0.010001 0.046589,0.022463 0.067696,0.03669 0.021106,0.014234 0.040977,0.030125 0.058911,0.048059 0.017933,0.017939 0.033823,0.037804 0.048059,0.058912 0.014237,0.021114 0.026675,0.043939 0.03669,0.067696 0.00299,0.00709 0.00414,0.014922 0.00672,0.022225 h 0.5534567 c 0.1465784,0 0.2645834,-0.1180042 0.2645834,-0.2645833 v -0.288865 c -0.00729,-0.00265 -0.015134,-0.00373 -0.02222,-0.00672 -0.023757,-0.010001 -0.046589,-0.022463 -0.067696,-0.03669 -0.021106,-0.014235 -0.040977,-0.030126 -0.058911,-0.048059 -0.017933,-0.017939 -0.033823,-0.037804 -0.048059,-0.058912 -0.014237,-0.021114 -0.026675,-0.043939 -0.03669,-0.067696 -0.010014,-0.02376 -0.017468,-0.04853 -0.022738,-0.074414 -0.00527,-0.025905 -0.00827,-0.052639 -0.00827,-0.080121 0,-0.027482 0.003,-0.054216 0.00827,-0.080097 0.00527,-0.025876 0.012724,-0.05066 0.022738,-0.074414 0.010014,-0.02376 0.022455,-0.04659 0.03669,-0.067696 0.014237,-0.021114 0.030125,-0.040979 0.048059,-0.058912 0.017933,-0.017939 0.037804,-0.033822 0.058911,-0.048059 0.021108,-0.014235 0.04394,-0.026675 0.067696,-0.03669 0.00709,-0.00299 0.014928,-0.00413 0.02222,-0.00672 V 4.7382083 c -0.00729,-0.00265 -0.015134,-0.00373 -0.02222,-0.00672 -0.023757,-0.010001 -0.046589,-0.022463 -0.067696,-0.03669 -0.021106,-0.014234 -0.040977,-0.030125 -0.058911,-0.048059 -0.017933,-0.017939 -0.033823,-0.037804 -0.048059,-0.058912 -0.014237,-0.021114 -0.026675,-0.043939 -0.03669,-0.067696 -0.010014,-0.02376 -0.017468,-0.04853 -0.022738,-0.074414 -0.00527,-0.025876 -0.00827,-0.05261 -0.00827,-0.080092 0,-0.027482 0.003,-0.054216 0.00827,-0.080097 0.00527,-0.025876 0.012724,-0.05066 0.022738,-0.074414 0.010014,-0.02376 0.022455,-0.046591 0.03669,-0.067696 0.014237,-0.021114 0.030125,-0.040979 0.048059,-0.058912 0.017933,-0.017939 0.037804,-0.033822 0.058911,-0.048059 0.021108,-0.014235 0.04394,-0.026675 0.067696,-0.03669 0.00709,-0.00299 0.014928,-0.00413 0.02222,-0.00672 V 3.4152917 c -0.00729,-0.00265 -0.015134,-0.00373 -0.02222,-0.00672 C 7.6269394,3.39857 7.6041074,3.3861081 7.583,3.3718815 7.5618942,3.3576469 7.5420227,3.341756 7.524089,3.3238226 7.506156,3.3058836 7.490266,3.2860186 7.47603,3.2649106 7.461793,3.2437966 7.449355,3.2209716 7.43934,3.1972146 7.429326,3.1734546 7.421872,3.1486846 7.416602,3.1228006 c -0.00527,-0.025876 -0.00827,-0.05261 -0.00827,-0.080092 0,-0.027482 0.003,-0.054216 0.00827,-0.080097 0.00527,-0.025876 0.012724,-0.05066 0.022738,-0.074414 0.010014,-0.02376 0.022455,-0.04659 0.03669,-0.067696 0.014237,-0.021114 0.030125,-0.040979 0.048059,-0.058912 0.017933,-0.017939 0.037804,-0.033822 0.058911,-0.048059 0.021108,-0.014235 0.04394,-0.026675 0.067696,-0.03669 0.00709,-0.00299 0.014928,-0.00413 0.02222,-0.00672 V 2.092375 C 7.665626,2.089725 7.657782,2.088645 7.650696,2.085655 7.626939,2.075654 7.604107,2.063192 7.583,2.048965 7.561894,2.034731 7.542023,2.01884 7.524089,2.000906 7.506156,1.982967 7.490266,1.963102 7.47603,1.941994 7.461793,1.92088 7.449355,1.898055 7.43934,1.874298 7.429326,1.850538 7.421872,1.825768 7.416602,1.799884 7.411332,1.774008 7.408332,1.747274 7.408332,1.719792 c 0,-0.027482 0.003,-0.054216 0.00827,-0.080097 C 7.421872,1.613819 7.429326,1.589035 7.43934,1.565281 7.449354,1.541521 7.461795,1.518691 7.47603,1.497585 7.490267,1.476471 7.506155,1.456606 7.524089,1.438673 7.542022,1.420734 7.561893,1.404851 7.583,1.390614 7.604108,1.376379 7.62694,1.363939 7.650696,1.353924 7.657786,1.350934 7.665624,1.349794 7.672916,1.347204 V 0.76945838 c -0.00729,-0.002646 -0.015134,-0.003731 -0.02222,-0.00672 C 7.6269394,0.75273672 7.6041074,0.74027484 7.583,0.7260482 7.5618942,0.71181361 7.5420227,0.69592274 7.524089,0.67798928 7.5061555,0.66005053 7.4902662,0.64018561 7.4760298,0.61907716 7.4617926,0.59796341 7.4493545,0.5751378 7.4393398,0.55138087 7.4293253,0.52762128 7.421872,0.50285099 7.4166015,0.4769668 c -0.00527,-0.0258763 -0.00827,-0.0526098 -0.00827,-0.080092 0,-0.0274823 0.003,-0.0542158 0.00827,-0.0800973 0.00527,-0.0258762 0.012724,-0.0506598 0.022738,-0.0744141 0.010014,-0.0237596 0.022455,-0.0465905 0.03669,-0.0676963 C 7.490267,0.15355337 7.5061552,0.13368845 7.524089,0.115755 7.5420224,0.09781625 7.5618929,0.08193331 7.583,0.06769608 7.604108,0.0534615 7.62694,0.04102079 7.650696,0.03100631 c 0.00709,-0.0029898 0.014928,-0.0041275 0.02222,-0.0067204 v -0.28887208 c 0,-0.14657916 -0.1180049,-0.26458333 -0.2645833,-0.26458333 H 6.8548781 c -0.00259,0.007302 -0.00373,0.0151342 -0.00672,0.022225 -0.010014,0.0237596 -0.022455,0.0465905 -0.03669,0.0676963 -0.014237,0.0211138 -0.030125,0.0409787 -0.048059,0.0589121 -0.017933,0.0179388 -0.037804,0.0338217 -0.058911,0.0480589 -0.021108,0.0142346 -0.04394,0.0266753 -0.067696,0.0366898 -0.023757,0.0100013 -0.048532,0.0174625 -0.074414,0.0227277 -0.025882,0.005265 -0.052615,0.008255 -0.080098,0.008255 -0.027484,0 -0.054216,-0.00299 -0.080098,-0.008255 -0.025882,-0.005265 -0.050657,-0.0127265 -0.074414,-0.0227277 -0.023757,-0.0100013 -0.046589,-0.0224631 -0.067696,-0.0366898 -0.021106,-0.0142346 -0.040977,-0.0301255 -0.058911,-0.0480589 -0.017933,-0.0179388 -0.033823,-0.0378037 -0.048059,-0.0589121 -0.014237,-0.0211137 -0.026675,-0.0439393 -0.03669,-0.0676963 -0.00299,-0.007091 -0.00414,-0.0149225 -0.00672,-0.022225 H 5.531962 c -0.00259,0.007302 -0.00373,0.0151342 -0.00672,0.022225 -0.010015,0.0237596 -0.022455,0.0465905 -0.03669,0.0676963 -0.014237,0.0211138 -0.030126,0.0409787 -0.048059,0.0589121 -0.017934,0.0179388 -0.037804,0.0338217 -0.058911,0.0480589 -0.021108,0.0142346 -0.04394,0.0266753 -0.067696,0.0366898 -0.023757,0.0100013 -0.048532,0.0174625 -0.074414,0.0227277 -0.025882,0.005265 -0.052615,0.008255 -0.080098,0.008255 -0.027484,0 -0.054216,-0.00299 -0.080098,-0.008255 C 5.053395,-0.2781247 5.028619,-0.2855862 5.004862,-0.2955874 4.981105,-0.3055887 4.958273,-0.3180505 4.937166,-0.3322772 4.91606,-0.3465118 4.896189,-0.3624027 4.878255,-0.3803361 4.860322,-0.3982749 4.844432,-0.4181398 4.830196,-0.4392482 4.815959,-0.4603619 4.803521,-0.4831875 4.793506,-0.5069445 4.790516,-0.5140355 4.789366,-0.521867 4.786786,-0.5291695 H 4.2090458 c -0.00259,0.007302 -0.00373,0.0151342 -0.00672,0.022225 -0.010014,0.0237596 -0.022455,0.0465905 -0.03669,0.0676963 -0.014237,0.0211138 -0.030125,0.0409787 -0.048059,0.0589121 -0.017933,0.0179388 -0.037804,0.0338217 -0.058911,0.0480589 -0.021109,0.0142346 -0.04394,0.0266753 -0.067696,0.0366898 -0.023757,0.0100013 -0.048532,0.0174625 -0.074414,0.0227277 -0.025881,0.005265 -0.052615,0.008255 -0.080098,0.008255 -0.027484,0 -0.054216,-0.00299 -0.080098,-0.008255 -0.025882,-0.005265 -0.050657,-0.0127265 -0.074414,-0.0227277 -0.023757,-0.0100013 -0.046589,-0.0224631 -0.067696,-0.0366898 -0.021106,-0.0142346 -0.040977,-0.0301255 -0.058911,-0.0480589 -0.017933,-0.0179388 -0.033823,-0.0378037 -0.048059,-0.0589121 -0.014237,-0.0211137 -0.026675,-0.0439393 -0.03669,-0.0676963 -0.00299,-0.007091 -0.00414,-0.0149225 -0.00672,-0.022225 H 2.8861297 c -0.00259,0.007302 -0.00373,0.0151342 -0.00672,0.022225 -0.010015,0.0237596 -0.022455,0.0465905 -0.03669,0.0676963 -0.014237,0.0211138 -0.030125,0.0409787 -0.048059,0.0589121 -0.017933,0.0179388 -0.037804,0.0338217 -0.058911,0.0480589 -0.021108,0.0142346 -0.04394,0.0266753 -0.067696,0.0366898 -0.023757,0.0100013 -0.048532,0.0174625 -0.074414,0.0227277 -0.025881,0.005265 -0.052615,0.008255 -0.080098,0.008255 -0.027484,0 -0.054216,-0.00299 -0.080098,-0.008255 -0.025882,-0.005265 -0.050657,-0.0127265 -0.074414,-0.0227277 -0.023757,-0.0100013 -0.046589,-0.0224631 -0.067696,-0.0366898 -0.021108,-0.0142346 -0.040977,-0.0301255 -0.058911,-0.0480589 -0.017933,-0.0179388 -0.033823,-0.0378037 -0.048059,-0.0589121 -0.014237,-0.0211137 -0.026675,-0.0439393 -0.03669,-0.0676963 -0.00299,-0.007091 -0.00414,-0.0149225 -0.00672,-0.022225 z" />
      <path
         id="rect5718"
         style="fill:#28596c;stroke-width:0.529167;stroke-linecap:round;stroke-linejoin:round;stroke-miterlimit:1.8;paint-order:fill markers stroke;stop-color:#000000"
         d="m 2.1166656,-2.113333e-7 h 4.762502 c 0.1465787,0 0.2645823,0.1180041613333 0.2645823,0.2645833313333 V 5.820833 c 0,0.1465792 -0.1180036,0.2645834 -0.2645823,0.2645834 h -4.762502 c -0.1465787,0 -0.2645823,-0.1180042 -0.2645823,-0.2645834 V 0.26458312 C 1.8520833,0.11800395 1.9700869,-2.113333e-7 2.1166656,-2.113333e-7 Z" />
      <path
         id="rect5718-6"
         style="fill:#23a79b;stroke-width:0.529167;stroke-linecap:round;stroke-linejoin:round;stroke-miterlimit:1.8;paint-order:fill markers stroke;stop-color:#000000"
         d="m 2.1166666,0.26458312 h 4.7625 V 5.820833 h -4.7625 z" />
      <path
         id="rect11510"
         style="fill:#cff7f1;fill-opacity:1;stroke:none;stroke-width:0.529167;stroke-linecap:round;stroke-linejoin:round;stroke-miterlimit:1.8;stroke-opacity:1;paint-order:fill markers stroke;stop-color:#000000"
         d="M 5.5422972,0.52918 C 5.3341024,0.53442 5.15683,0.659 5.0751422,0.83717 5.0210384,0.80957 4.9598932,0.79377 4.8947915,0.79377 c -0.2198686,0 -0.396875,0.17701 -0.396875,0.39688 0,0.0515 0.00967,0.10115 0.027389,0.14624 -0.1686314,0.0458 -0.2919719,0.19941 -0.2919719,0.38293 0,0.21986 0.1770065,0.39687 0.396875,0.39687 h 0.7937501 c 0.020083,0 0.039645,-0.002 0.058911,-0.005 0.022587,0.003 0.045315,0.005 0.06873,0.005 h 0.5384684 c 0.2906378,0 0.5245158,-0.23388 0.5245158,-0.52451 v -0.009 c 0,-0.29063 -0.233878,-0.52451 -0.5245158,-0.52451 h -0.00465 c 0,-0.29316 -0.2360086,-0.52917 -0.5291667,-0.52917 -0.00458,0 -0.0094,-1.1e-4 -0.013953,0 z" />
      <path
         id="path929"
         style="fill:#28596c;fill-opacity:1;stroke:none;stroke-width:0.186556px;stroke-linecap:butt;stroke-linejoin:miter;stroke-opacity:1"
         d="m 3.9206907,1.58751 c -0.070819,-7e-5 -0.1428074,0.001 -0.2165242,0.004 V 2.12067 L 3.4395831,1.85609 c -0.7274943,0.92969 -0.683279,1.86982 0,2.91042 C 4.6758831,3.83834 5.5747568,5.1263 6.3499997,3.70817 4.6302821,4.31316 3.9687498,3.28754 3.9687498,2.91442 4.7874349,3.94339 5.6952816,3.63897 6.3499997,3.17901 6.2405951,2.03944 5.389063,1.60729 3.9914874,1.58841 c -0.023293,-2.5e-4 -0.04719,-5e-4 -0.070797,-5.2e-4 z m 1.3570231,0.53278 c 0.00455,-1.1e-4 0.00937,0 0.013953,0 0.2931567,0 0.5291667,0.23601 0.5291667,0.52917 0,0.29316 -0.23601,0.52917 -0.5291667,0.52917 -0.2931567,0 -0.5291667,-0.23601 -0.5291667,-0.52917 0,-0.28858 0.2284389,-0.52195 0.5152137,-0.52917 z m 0.00723,0.26459 c -0.1433877,0.004 -0.2578654,0.12029 -0.2578654,0.26458 0,0.14658 0.1180048,0.26458 0.2645833,0.26458 0.1465785,0 0.2645833,-0.118 0.2645833,-0.26458 0,-0.14658 -0.1180048,-0.26458 -0.2645833,-0.26458 -0.00229,0 -0.00444,-6e-5 -0.00672,0 z" />
      <path
         id="rect11510-3"
         style="fill:#cff7f1;fill-opacity:1;stroke:none;stroke-width:0.529167;stroke-linecap:round;stroke-linejoin:round;stroke-miterlimit:1.8;stroke-opacity:1;paint-order:fill markers stroke;stop-color:#000000"
         d="M 3.6902133,3.96875 C 3.4820185,3.97375 3.3047462,4.09857 3.2230584,4.27674 3.1689544,4.24924 3.1078093,4.23334 3.0427076,4.23334 c -0.2198685,0 -0.396875,0.17701 -0.396875,0.39688 0,0.0515 0.00967,0.10115 0.027389,0.14624 -0.1686314,0.0458 -0.2919719,0.19941 -0.2919719,0.38293 0,0.21986 0.1770065,0.39687 0.3968751,0.39687 h 0.79375 c 0.020083,0 0.039645,-0.002 0.058911,-0.005 0.022587,0.003 0.045315,0.005 0.06873,0.005 H 4.2379842 C 4.528622,5.55626 4.7625,5.32238 4.7625,5.03175 v -0.009 c 0,-0.29063 -0.233878,-0.52451 -0.5245158,-0.52451 h -0.00465 c 0,-0.29316 -0.2360086,-0.52917 -0.5291667,-0.52917 -0.00458,0 -0.0094,-1.1e-4 -0.013953,0 z" />
    </g>
  </g>
</svg>
