<?xml version="1.0" encoding="UTF-8" standalone="no"?>
<!-- Created with Inkscape (http://www.inkscape.org/) -->

<svg
   width="24"
   height="24"
   viewBox="0 0 6.3499999 6.35"
   version="1.1"
   id="svg5"
   inkscape:version="1.2 (dc2aedaf03, 2022-05-15)"
   sodipodi:docname="preferences-desktop-multimedia.svg"
   xml:space="preserve"
   xmlns:inkscape="http://www.inkscape.org/namespaces/inkscape"
   xmlns:sodipodi="http://sodipodi.sourceforge.net/DTD/sodipodi-0.dtd"
   xmlns="http://www.w3.org/2000/svg"
   xmlns:svg="http://www.w3.org/2000/svg"><sodipodi:namedview
     id="namedview7"
     pagecolor="#ffffff"
     bordercolor="#000000"
     borderopacity="0.25"
     inkscape:showpageshadow="false"
     inkscape:pageopacity="0.0"
     inkscape:pagecheckerboard="0"
     inkscape:deskcolor="#d1d1d1"
     inkscape:document-units="px"
     showgrid="true"
     inkscape:zoom="26.910888"
     inkscape:cx="30.006442"
     inkscape:cy="15.699965"
     inkscape:window-width="2160"
     inkscape:window-height="1335"
     inkscape:window-x="0"
     inkscape:window-y="0"
     inkscape:window-maximized="1"
     inkscape:current-layer="layer1"
     showguides="false"><inkscape:grid
       type="xygrid"
       id="grid3636" /></sodipodi:namedview><defs
     id="defs2"><style
       type="text/css"
       id="current-color-scheme">
      .ColorScheme-Text {
        color:#36404d;
      }
      </style><style
       type="text/css"
       id="current-color-scheme-67">
      .ColorScheme-Text {
        color:#122036;
      }
      </style><style
       type="text/css"
       id="current-color-scheme-7">
      .ColorScheme-Text {
        color:#122036;
      }
      </style><style
       type="text/css"
       id="current-color-scheme-5">
      .ColorScheme-Text {
        color:#122036;
      }
      </style><style
       type="text/css"
       id="current-color-scheme-6">
      .ColorScheme-Text {
        color:#122036;
      }
      </style><style
       type="text/css"
       id="current-color-scheme-1">
      .ColorScheme-Text {
        color:#122036;
      }
      </style><style
       id="current-color-scheme-10"
       type="text/css">
      .ColorScheme-Text {
        color:#122036;
      }
      </style><style
       id="current-color-scheme-5-7"
       type="text/css">
      .ColorScheme-Text {
        color:#122036;
      }
      </style><style
       id="current-color-scheme-1-2"
       type="text/css">
      .ColorScheme-Text {
        color:#122036;
      }
      </style><style
       type="text/css"
       id="current-color-scheme-10-9">
      .ColorScheme-Text {
        color:#122036;
      }
      </style><style
       type="text/css"
       id="current-color-scheme-61">
      .ColorScheme-Text {
        color:#36404d;
      }
      </style></defs><g
     inkscape:label="Capa 1"
     inkscape:groupmode="layer"
     id="layer1"><path
       id="rect1728"
       style="opacity:1;fill:#36404d;stroke-width:0.529167;stroke-linecap:round;stroke-linejoin:round;stroke-miterlimit:1.8;paint-order:fill markers stroke;stop-color:#000000;fill-opacity:1"
       d="m 1.0583333,0.52916664 h 4.2333332 c 0.2931583,0 0.5291666,0.23600832 0.5291666,0.52916666 v 4.2333332 c 0,0.2931583 -0.2360083,0.5291666 -0.5291666,0.5291666 H 1.0583333 c -0.29315834,0 -0.52916666,-0.2360083 -0.52916666,-0.5291666 V 1.0583333 c 0,-0.29315834 0.23600832,-0.52916666 0.52916666,-0.52916666 z" /><path
       id="rect1728-7"
       style="fill:#4b6477;stroke-width:0.529167;stroke-linecap:round;stroke-linejoin:round;stroke-miterlimit:1.8;paint-order:fill markers stroke;stop-color:#000000;fill-opacity:1"
       d="m 1.0583333,0.79374999 h 4.2333341 c 0.1465792,0 0.2645834,0.11800416 0.2645834,0.26458331 v 4.2333332 c 0,0.1465791 -0.1180042,0.2645833 -0.2645834,0.2645833 H 1.0583333 c -0.14657915,0 -0.26458331,-0.1180042 -0.26458331,-0.2645833 V 1.0583333 c 0,-0.14657915 0.11800416,-0.26458331 0.26458331,-0.26458331 z" /><path
       id="rect2499"
       style="opacity:1;fill:#e1ebf2;stroke:none;stroke-width:0.529167;stroke-linecap:round;stroke-linejoin:round;stroke-miterlimit:1.8;paint-order:fill markers stroke;stop-color:#000000;fill-opacity:1"
       d="M 1.0583333 1.0583333 L 1.0583333 1.8520833 L 1.5875 1.8520833 L 1.5875 1.0583333 L 1.0583333 1.0583333 z M 4.7625 1.0583333 L 4.7625 1.8520833 L 5.2916666 1.8520833 L 5.2916666 1.0583333 L 4.7625 1.0583333 z M 1.0583333 2.1166666 L 1.0583333 2.9104166 L 1.5875 2.9104166 L 1.5875 2.1166666 L 1.0583333 2.1166666 z M 4.7625 2.1166666 L 4.7625 2.9104166 L 5.2916666 2.9104166 L 5.2916666 2.1166666 L 4.7625 2.1166666 z M 1.0583333 3.175 L 1.0583333 3.96875 L 1.5875 3.96875 L 1.5875 3.175 L 1.0583333 3.175 z M 4.7625 3.175 L 4.7625 3.96875 L 5.2916666 3.96875 L 5.2916666 3.175 L 4.7625 3.175 z M 1.0583333 4.2333333 L 1.0583333 5.0270833 L 1.5875 5.0270833 L 1.5875 4.2333333 L 1.0583333 4.2333333 z M 4.7625 4.2333333 L 4.7625 5.0270833 L 5.2916666 5.0270833 L 5.2916666 4.2333333 L 4.7625 4.2333333 z " /><path
       id="rect2719"
       style="opacity:1;fill:#44acff;stroke:none;stroke-width:0.529167;stroke-linecap:round;stroke-linejoin:round;stroke-miterlimit:1.8;paint-order:fill markers stroke;stop-color:#000000;fill-opacity:1"
       d="M 1.8520833 1.0583333 L 1.8520833 2.9104166 L 4.4979166 2.9104166 L 4.4979166 1.0583333 L 1.8520833 1.0583333 z M 1.8520833 3.4395833 L 1.8520833 5.2916666 L 4.4979166 5.2916666 L 4.4979166 3.4395833 L 1.8520833 3.4395833 z " /><path
       style="color:#000000;fill:#e1ebf2;fill-opacity:1;stroke-linecap:round;stroke-linejoin:round;stroke-miterlimit:1.8;-inkscape-stroke:none;paint-order:fill markers stroke"
       d="M 2.5277344,2.1447266 C 2.438118,2.1894345 2.3814211,2.2809055 2.38125,2.3810547 v 1.5878906 c 3.383e-4,0.2181221 0.2496106,0.3421839 0.4238281,0.2109375 L 3.8636719,3.3869141 c 0.1415279,-0.105831 0.1415279,-0.3179972 0,-0.4238282 L 2.8050781,2.1701172 C 2.7249225,2.109752 2.6175185,2.0999192 2.5277344,2.1447266 Z"
       id="path1035"
       sodipodi:nodetypes="cccccccc" /></g></svg>
