<?xml version="1.0" encoding="UTF-8" standalone="no"?>
<!-- Created with Inkscape (http://www.inkscape.org/) -->

<svg
   width="24"
   height="24"
   viewBox="0 0 6.3499999 6.35"
   version="1.1"
   id="svg5"
   inkscape:version="1.2 (dc2aedaf03, 2022-05-15)"
   sodipodi:docname="preferences-desktop-text-to-speech.svg"
   xml:space="preserve"
   xmlns:inkscape="http://www.inkscape.org/namespaces/inkscape"
   xmlns:sodipodi="http://sodipodi.sourceforge.net/DTD/sodipodi-0.dtd"
   xmlns="http://www.w3.org/2000/svg"
   xmlns:svg="http://www.w3.org/2000/svg"><sodipodi:namedview
     id="namedview7"
     pagecolor="#ffffff"
     bordercolor="#000000"
     borderopacity="0.25"
     inkscape:showpageshadow="false"
     inkscape:pageopacity="0.0"
     inkscape:pagecheckerboard="0"
     inkscape:deskcolor="#d1d1d1"
     inkscape:document-units="px"
     showgrid="true"
     inkscape:zoom="26.910888"
     inkscape:cx="6.4100449"
     inkscape:cy="13.321745"
     inkscape:window-width="2160"
     inkscape:window-height="1335"
     inkscape:window-x="0"
     inkscape:window-y="0"
     inkscape:window-maximized="1"
     inkscape:current-layer="layer1"><inkscape:grid
       type="xygrid"
       id="grid3636" /></sodipodi:namedview><defs
     id="defs2"><style
       type="text/css"
       id="current-color-scheme">
      .ColorScheme-Text {
        color:#36404d;
      }
      </style><style
       type="text/css"
       id="current-color-scheme-67">
      .ColorScheme-Text {
        color:#122036;
      }
      </style><style
       type="text/css"
       id="current-color-scheme-7">
      .ColorScheme-Text {
        color:#122036;
      }
      </style><style
       type="text/css"
       id="current-color-scheme-5">
      .ColorScheme-Text {
        color:#122036;
      }
      </style><style
       type="text/css"
       id="current-color-scheme-6">
      .ColorScheme-Text {
        color:#122036;
      }
      </style><style
       type="text/css"
       id="current-color-scheme-1">
      .ColorScheme-Text {
        color:#122036;
      }
      </style><style
       id="current-color-scheme-10"
       type="text/css">
      .ColorScheme-Text {
        color:#122036;
      }
      </style><style
       id="current-color-scheme-5-7"
       type="text/css">
      .ColorScheme-Text {
        color:#122036;
      }
      </style><style
       id="current-color-scheme-1-2"
       type="text/css">
      .ColorScheme-Text {
        color:#122036;
      }
      </style><style
       type="text/css"
       id="current-color-scheme-10-9">
      .ColorScheme-Text {
        color:#122036;
      }
      </style><style
       type="text/css"
       id="current-color-scheme-675">
      .ColorScheme-Text {
        color:#36404d;
      }
      </style><style
       id="current-color-scheme-3"
       type="text/css">
      .ColorScheme-Text {
        color:#36404d;
      }
      </style><style
       id="current-color-scheme-35"
       type="text/css">
      .ColorScheme-Text {
        color:#36404d;
      }
      </style><style
       type="text/css"
       id="current-color-scheme-6753">
      .ColorScheme-Text {
        color:#36404d;
      }
      </style><style
       id="current-color-scheme-3-5"
       type="text/css">
      .ColorScheme-Text {
        color:#36404d;
      }
      </style></defs><g
     inkscape:label="Capa 1"
     inkscape:groupmode="layer"
     id="layer1"><path
       id="rect15701"
       style="opacity:1;fill:#317ad0;stroke-width:0.529167;stroke-linecap:round;stroke-linejoin:round;stroke-miterlimit:1.8;paint-order:fill markers stroke;stop-color:#000000;fill-opacity:1"
       d="m 3.1749999,0.52916664 c 1.4657916,0 2.6458332,1.18004166 2.6458332,2.64583326 0,1.4657916 -1.1800416,2.6458332 -2.6458332,2.6458332 -1.4657916,0 -2.64583326,-1.1800416 -2.64583326,-2.6458332 0,-1.4657916 1.18004166,-2.64583326 2.64583326,-2.64583326 z" /><path
       id="rect15701-2"
       style="fill:#6bb1ff;stroke-width:0.47625;stroke-linecap:round;stroke-linejoin:round;stroke-miterlimit:1.8;paint-order:fill markers stroke;stop-color:#000000;fill-opacity:1"
       d="m 3.175,0.79374999 c 1.3192124,0 2.3812499,1.06203741 2.3812499,2.38124991 0,1.3192124 -1.0620375,2.3812499 -2.3812499,2.3812499 -1.3192125,0 -2.38124995,-1.0620375 -2.38124995,-2.3812499 0,-1.3192125 1.06203745,-2.38124991 2.38124995,-2.38124991 z" /><path
       id="rect15701-2-6"
       style="fill:#317ad0;fill-opacity:1;stroke-width:0.423334;stroke-linecap:round;stroke-linejoin:round;stroke-miterlimit:1.8;paint-order:fill markers stroke;stop-color:#000000"
       d="m 3.1750001,1.0583333 c 1.1726332,0 2.1166665,0.9440333 2.1166665,2.1166666 0,1.1726333 -0.9440333,2.1166667 -2.1166665,2.1166667 -1.1726334,0 -2.1166668,-0.9440334 -2.1166668,-2.1166667 0,-1.1726333 0.9440334,-2.1166666 2.1166668,-2.1166666 z" /><path
       id="rect15701-2-6-2"
       style="fill:#f9fbfb;fill-opacity:1;stroke-width:0.370417;stroke-linecap:round;stroke-linejoin:round;stroke-miterlimit:1.8;paint-order:fill markers stroke;stop-color:#000000"
       d="m 3.175,1.3229167 c 1.0260541,0 1.8520832,0.826029 1.8520832,1.8520832 0,1.0260541 -0.8260291,1.8520833 -1.8520832,1.8520833 -1.0260542,0 -1.8520834,-0.8260292 -1.8520834,-1.8520833 0,-1.0260542 0.8260292,-1.8520832 1.8520834,-1.8520832 z" /><path
       id="rect17743-1"
       style="fill:#363f4d;fill-opacity:1;stroke:none;stroke-width:0.529167;stroke-linecap:round;stroke-linejoin:round;stroke-miterlimit:1.8;stroke-dasharray:none;stroke-opacity:1;paint-order:fill markers stroke;stop-color:#000000"
       d="m 3.1610466,1.8520834 c -0.286775,0.00722 -0.515214,0.2405896 -0.515214,0.5291667 V 3.175 c 0,0.2931577 0.236009,0.5291667 0.529167,0.5291667 0.293158,0 0.529167,-0.236009 0.529167,-0.5291667 V 2.3812501 c 0,-0.2931577 -0.236009,-0.5291667 -0.529167,-0.5291667 -0.00458,0 -0.0094,-1.146e-4 -0.013953,0 z m -1.04438,1.0583333 V 3.175 c 0,0.4948786 0.336303,0.9083415 0.79375,1.0252604 V 4.7625 h 0.529166 V 4.2002604 C 3.8970296,4.0833415 4.2333326,3.6698786 4.2333326,3.175 V 2.9104167 H 3.9687496 V 3.175 c 0,0.4328646 -0.342916,0.7829244 -0.77308,0.79375 H 3.1543286 C 2.7241666,3.9579244 2.3812496,3.6078646 2.3812496,3.175 V 2.9104167 Z"
       sodipodi:nodetypes="cssssssccsccccsccsccscc" /></g></svg>
