<?xml version="1.0" encoding="UTF-8" standalone="no"?>
<!-- Created with Inkscape (http://www.inkscape.org/) -->

<svg
   width="24"
   height="24"
   viewBox="0 0 6.3499999 6.35"
   version="1.1"
   id="svg5"
   inkscape:version="1.2 (dc2aedaf03, 2022-05-15)"
   sodipodi:docname="preferences-desktop-color.svg"
   xml:space="preserve"
   xmlns:inkscape="http://www.inkscape.org/namespaces/inkscape"
   xmlns:sodipodi="http://sodipodi.sourceforge.net/DTD/sodipodi-0.dtd"
   xmlns="http://www.w3.org/2000/svg"
   xmlns:svg="http://www.w3.org/2000/svg"><sodipodi:namedview
     id="namedview7"
     pagecolor="#ffffff"
     bordercolor="#000000"
     borderopacity="0.25"
     inkscape:showpageshadow="false"
     inkscape:pageopacity="0.0"
     inkscape:pagecheckerboard="0"
     inkscape:deskcolor="#d1d1d1"
     inkscape:document-units="px"
     showgrid="true"
     inkscape:zoom="19.028871"
     inkscape:cx="-7.5411726"
     inkscape:cy="11.272345"
     inkscape:window-width="2160"
     inkscape:window-height="1335"
     inkscape:window-x="0"
     inkscape:window-y="0"
     inkscape:window-maximized="1"
     inkscape:current-layer="layer1"><inkscape:grid
       type="xygrid"
       id="grid3636" /></sodipodi:namedview><defs
     id="defs2"><style
       type="text/css"
       id="current-color-scheme">
      .ColorScheme-Text {
        color:#36404d;
      }
      </style><style
       type="text/css"
       id="current-color-scheme-67">
      .ColorScheme-Text {
        color:#122036;
      }
      </style><style
       type="text/css"
       id="current-color-scheme-7">
      .ColorScheme-Text {
        color:#122036;
      }
      </style><style
       type="text/css"
       id="current-color-scheme-5">
      .ColorScheme-Text {
        color:#122036;
      }
      </style><style
       type="text/css"
       id="current-color-scheme-6">
      .ColorScheme-Text {
        color:#122036;
      }
      </style><style
       type="text/css"
       id="current-color-scheme-1">
      .ColorScheme-Text {
        color:#122036;
      }
      </style><style
       id="current-color-scheme-10"
       type="text/css">
      .ColorScheme-Text {
        color:#122036;
      }
      </style><style
       id="current-color-scheme-5-7"
       type="text/css">
      .ColorScheme-Text {
        color:#122036;
      }
      </style><style
       id="current-color-scheme-1-2"
       type="text/css">
      .ColorScheme-Text {
        color:#122036;
      }
      </style><style
       type="text/css"
       id="current-color-scheme-10-9">
      .ColorScheme-Text {
        color:#122036;
      }
      </style></defs><g
     inkscape:label="Capa 1"
     inkscape:groupmode="layer"
     id="layer1"><g
       id="g4472"
       transform="translate(-0.52916637,6.7044021)"><path
         id="rect2556-5"
         style="fill:#287bc2;stroke-width:0.661459;stroke-linecap:round;stroke-linejoin:round;stroke-miterlimit:1.8;paint-order:fill markers stroke;stop-color:#000000;fill-opacity:1"
         d="m 5.0270832,-3.5294019 c 0.7328958,0 1.3229166,0.5900208 1.3229166,1.3229167 0,0.7328958 -0.5900208,1.32291656 -1.3229166,1.32291656 -0.7328958,0 -1.3229167,-0.59002076 -1.3229167,-1.32291656 0,-0.7328959 0.5900209,-1.3229167 1.3229167,-1.3229167 z" /><path
         id="rect2556-5-5"
         style="fill:#78c1ff;stroke-width:0.529167;stroke-linecap:round;stroke-linejoin:round;stroke-miterlimit:1.8;paint-order:fill markers stroke;stop-color:#000000;fill-opacity:1"
         d="m 5.027083,-3.2648188 c 0.5863167,0 1.0583334,0.4720167 1.0583334,1.0583333 0,0.5863167 -0.4720167,1.0583334 -1.0583334,1.0583334 -0.5863166,0 -1.0583333,-0.4720167 -1.0583333,-1.0583334 0,-0.5863166 0.4720167,-1.0583333 1.0583333,-1.0583333 z" /></g><g
       id="g4468"
       transform="translate(-2.9104167,-2.9104167)"><path
         id="rect2556-5-3"
         style="fill:#ffb851;fill-opacity:0.96078432;stroke-width:0.661459;stroke-linecap:round;stroke-linejoin:round;stroke-miterlimit:1.8;paint-order:fill markers stroke;stop-color:#000000"
         d="m 4.7625002,3.4395835 c 0.7328958,0 1.3229166,0.5900208 1.3229166,1.3229167 0,0.7328958 -0.5900208,1.3229165 -1.3229166,1.3229165 -0.7328958,0 -1.3229167,-0.5900207 -1.3229167,-1.3229165 0,-0.7328959 0.5900209,-1.3229167 1.3229167,-1.3229167 z" /><path
         id="rect2556-5-5-5"
         style="fill:#ffeea3;stroke-width:0.529167;stroke-linecap:round;stroke-linejoin:round;stroke-miterlimit:1.8;paint-order:fill markers stroke;stop-color:#000000;fill-opacity:1"
         d="m 4.7625,3.7041666 c 0.5863167,0 1.0583334,0.4720167 1.0583334,1.0583333 0,0.5863167 -0.4720167,1.0583334 -1.0583334,1.0583334 -0.5863166,0 -1.0583333,-0.4720167 -1.0583333,-1.0583334 0,-0.5863166 0.4720167,-1.0583333 1.0583333,-1.0583333 z" /></g><g
       id="g4476"
       transform="translate(1.1875e-7,6.8791667)"><path
         id="rect2556"
         style="opacity:1;fill:#c74343;stroke-width:0.661459;stroke-linecap:round;stroke-linejoin:round;stroke-miterlimit:1.8;paint-order:fill markers stroke;stop-color:#000000;fill-opacity:1"
         d="m 1.8520832,-3.7041667 c 0.7328959,0 1.3229167,0.5900208 1.3229167,1.3229166 0,0.7328959 -0.5900208,1.3229167 -1.3229167,1.3229167 -0.7328958,0 -1.32291658,-0.5900208 -1.32291658,-1.3229167 0,-0.7328958 0.59002078,-1.3229166 1.32291658,-1.3229166 z" /><path
         id="rect2556-5-5-2"
         style="fill:#f78f8f;stroke-width:0.529167;stroke-linecap:round;stroke-linejoin:round;stroke-miterlimit:1.8;paint-order:fill markers stroke;stop-color:#000000;fill-opacity:1"
         d="m 1.8520833,-3.4395833 c 0.5863167,0 1.0583333,0.4720166 1.0583333,1.0583333 0,0.5863167 -0.4720166,1.0583333 -1.0583333,1.0583333 -0.5863167,0 -1.05833328,-0.4720166 -1.05833328,-1.0583333 0,-0.5863167 0.47201658,-1.0583333 1.05833328,-1.0583333 z" /></g><g
       id="g4480"
       transform="translate(5.5562501,3.175)"><path
         id="rect2556-3"
         style="fill:#619f78;stroke-width:0.661459;stroke-linecap:round;stroke-linejoin:round;stroke-miterlimit:1.8;paint-order:fill markers stroke;stop-color:#000000;fill-opacity:1"
         d="m -1.058333,-2.6458331 c 0.7328958,0 1.3229166,0.5900208 1.3229166,1.3229167 0,0.73289584 -0.5900208,1.32291664375 -1.3229166,1.32291664375 -0.7328959,0 -1.3229167,-0.59002080375 -1.3229167,-1.32291664375 0,-0.7328959 0.5900208,-1.3229167 1.3229167,-1.3229167 z" /><path
         id="rect2556-5-5-2-9"
         style="fill:#bae0bd;stroke-width:0.529167;stroke-linecap:round;stroke-linejoin:round;stroke-miterlimit:1.8;paint-order:fill markers stroke;stop-color:#000000;fill-opacity:1"
         d="M -1.0583333,-2.38125 C -0.4720166,-2.38125 0,-1.9092333 0,-1.3229167 c 0,0.58631674 -0.4720166,1.05833334 -1.0583333,1.05833334 -0.5863166,0 -1.0583333,-0.4720166 -1.0583333,-1.05833334 0,-0.5863166 0.4720167,-1.0583333 1.0583333,-1.0583333 z" /></g><path
       id="rect2556-5-9"
       style="fill:#b1c1d4;stroke-width:0.661459;stroke-linecap:round;stroke-linejoin:round;stroke-miterlimit:1.8;paint-order:fill markers stroke;stop-color:#000000;fill-opacity:1"
       d="m 3.175,1.8520833 c 0.7328958,0 1.3229166,0.5900208 1.3229166,1.3229167 0,0.7328958 -0.5900208,1.3229166 -1.3229166,1.3229166 -0.7328958,0 -1.3229167,-0.5900208 -1.3229167,-1.3229166 0,-0.7328959 0.5900209,-1.3229167 1.3229167,-1.3229167 z" /><path
       id="rect2556-5-5-1"
       style="fill:#ecf6ff;stroke-width:0.529167;stroke-linecap:round;stroke-linejoin:round;stroke-miterlimit:1.8;paint-order:fill markers stroke;stop-color:#000000;fill-opacity:1"
       d="m 3.1749999,2.1166666 c 0.5863167,0 1.0583334,0.4720167 1.0583334,1.0583333 0,0.5863167 -0.4720167,1.0583334 -1.0583334,1.0583334 -0.5863166,0 -1.0583333,-0.4720167 -1.0583333,-1.0583334 0,-0.5863166 0.4720167,-1.0583333 1.0583333,-1.0583333 z" /><path
       id="rect2556-5-5-1-0"
       style="fill:#4b6477;stroke-width:0.264583;stroke-linecap:round;stroke-linejoin:round;stroke-miterlimit:1.8;paint-order:fill markers stroke;stop-color:#000000;fill-opacity:1"
       d="m 3.1749999,2.6458334 c 0.2931584,0 0.5291667,0.2360083 0.5291667,0.5291666 0,0.2931584 -0.2360083,0.5291667 -0.5291667,0.5291667 -0.2931583,0 -0.5291666,-0.2360083 -0.5291666,-0.5291667 0,-0.2931583 0.2360083,-0.5291666 0.5291666,-0.5291666 z" /></g></svg>
