<?xml version="1.0" encoding="UTF-8" standalone="no"?>
<!-- Created with Inkscape (http://www.inkscape.org/) -->

<svg
   width="24"
   height="24"
   viewBox="0 0 6.3499999 6.35"
   version="1.1"
   id="svg5"
   inkscape:version="1.2 (dc2aedaf03, 2022-05-15)"
   sodipodi:docname="preferences-devices-cpu.svg"
   xml:space="preserve"
   xmlns:inkscape="http://www.inkscape.org/namespaces/inkscape"
   xmlns:sodipodi="http://sodipodi.sourceforge.net/DTD/sodipodi-0.dtd"
   xmlns="http://www.w3.org/2000/svg"
   xmlns:svg="http://www.w3.org/2000/svg"><sodipodi:namedview
     id="namedview7"
     pagecolor="#ffffff"
     bordercolor="#000000"
     borderopacity="0.25"
     inkscape:showpageshadow="false"
     inkscape:pageopacity="0.0"
     inkscape:pagecheckerboard="0"
     inkscape:deskcolor="#d1d1d1"
     inkscape:document-units="px"
     showgrid="true"
     inkscape:zoom="26.910887"
     inkscape:cx="28.03698"
     inkscape:cy="17.372151"
     inkscape:window-width="2160"
     inkscape:window-height="1335"
     inkscape:window-x="0"
     inkscape:window-y="0"
     inkscape:window-maximized="1"
     inkscape:current-layer="layer1"><inkscape:grid
       type="xygrid"
       id="grid271" /></sodipodi:namedview><defs
     id="defs2"><style
       id="current-color-scheme"
       type="text/css">
      .ColorScheme-Text {
        color:#122036;
      }
      </style><style
       id="current-color-scheme-6"
       type="text/css">
      .ColorScheme-Text {
        color:#122036;
      }
      </style><style
       id="current-color-scheme-67"
       type="text/css">
      .ColorScheme-Text {
        color:#122036;
      }
      </style><style
       type="text/css"
       id="current-color-scheme-5">
      .ColorScheme-Text {
        color:#122036;
      }
      </style><style
       type="text/css"
       id="current-color-scheme-2">
      .ColorScheme-Text {
        color:#122036;
      }
      </style><style
       type="text/css"
       id="current-color-scheme-1">
      .ColorScheme-Text {
        color:#122036;
      }
      </style><style
       id="current-color-scheme-10"
       type="text/css">
      .ColorScheme-Text {
        color:#122036;
      }
      </style><style
       id="current-color-scheme-20"
       type="text/css">
      .ColorScheme-Text {
        color:#122036;
      }
      </style><style
       type="text/css"
       id="current-color-scheme-1-2">
      .ColorScheme-Text {
        color:#122036;
      }
      </style><style
       type="text/css"
       id="current-color-scheme-9">
      .ColorScheme-Text {
        color:#122036;
      }
      </style><style
       id="current-color-scheme-53"
       type="text/css">
      .ColorScheme-Text {
        color:#122036;
      }
      </style><style
       type="text/css"
       id="current-color-scheme-5-3">
      .ColorScheme-Text {
        color:#122036;
      }
      </style><style
       type="text/css"
       id="current-color-scheme-2-7">
      .ColorScheme-Text {
        color:#122036;
      }
      </style><style
       type="text/css"
       id="current-color-scheme-1-1">
      .ColorScheme-Text {
        color:#122036;
      }
      </style><style
       id="current-color-scheme-10-5"
       type="text/css">
      .ColorScheme-Text {
        color:#122036;
      }
      </style><style
       id="current-color-scheme-535"
       type="text/css">
      .ColorScheme-Text {
        color:#122036;
      }
      </style></defs><g
     inkscape:label="Capa 1"
     inkscape:groupmode="layer"
     id="layer1"><path
       id="rect1345"
       style="opacity:1;fill:#39444f;fill-opacity:1;stroke-width:0.529167;stroke-linecap:round;stroke-linejoin:round;stroke-miterlimit:1.8;paint-order:fill markers stroke;stop-color:#000000"
       d="m 0.79374996,0.52916646 4.76249994,2.3e-7 c 0.1465792,10e-9 0.2645833,0.11800417 0.2645833,0.26458335 V 5.5562498 c 0,0.1465792 -0.1180041,0.2645833 -0.2645833,0.2645833 l -4.76249994,-2e-7 c -0.14657918,0 -0.26458335,-0.1180041 -0.26458335,-0.2645833 V 0.79374981 c 0,-0.14657918 0.11800417,-0.26458336 0.26458335,-0.26458335 z"
       sodipodi:nodetypes="sssssssss" /><path
       id="rect1345-7"
       style="fill:#4b6377;fill-opacity:1;stroke-width:0.529167;stroke-linecap:round;stroke-linejoin:round;stroke-miterlimit:1.8;paint-order:fill markers stroke;stop-color:#000000"
       d="M 0.79374999,0.79375002 H 5.55625 V 5.55625 H 0.79374999 Z"
       sodipodi:nodetypes="ccccc" /><path
       id="rect1345-7-3"
       style="fill:#39444f;fill-opacity:1;stroke-width:0.293981;stroke-linecap:round;stroke-linejoin:round;stroke-miterlimit:1.8;paint-order:fill markers stroke;stop-color:#000000"
       d="M 1.8520833,1.8520833 H 4.4979166 V 4.4979166 H 1.8520833 Z"
       sodipodi:nodetypes="ccccc" /><path
       id="rect1345-7-3-5"
       style="fill:#5ba3fc;fill-opacity:1;stroke-width:0.235185;stroke-linecap:round;stroke-linejoin:round;stroke-miterlimit:1.8;paint-order:fill markers stroke;stop-color:#000000"
       d="M 2.1166666,2.1166666 H 4.2333332 V 4.2333332 H 2.1166666 Z"
       sodipodi:nodetypes="ccccc" /><path
       id="rect3612"
       style="opacity:1;fill:#dbe5ec;stroke-width:0.529167;stroke-linecap:round;stroke-linejoin:round;stroke-miterlimit:1.8;paint-order:fill markers stroke;stop-color:#000000;fill-opacity:1"
       d="M 2.1166666 1.0583333 L 2.1166666 1.3229167 L 2.38125 1.3229167 L 2.38125 1.0583333 L 2.1166666 1.0583333 z M 2.38125 1.3229167 L 2.38125 1.5875 L 2.6458333 1.5875 L 2.6458333 1.3229167 L 2.38125 1.3229167 z M 2.6458333 1.3229167 L 2.9104166 1.3229167 L 2.9104166 1.0583333 L 2.6458333 1.0583333 L 2.6458333 1.3229167 z M 2.9104166 1.3229167 L 2.9104166 1.5875 L 3.175 1.5875 L 3.175 1.3229167 L 2.9104166 1.3229167 z M 3.175 1.3229167 L 3.4395833 1.3229167 L 3.4395833 1.0583333 L 3.175 1.0583333 L 3.175 1.3229167 z M 3.4395833 1.3229167 L 3.4395833 1.5875 L 3.7041666 1.5875 L 3.7041666 1.3229167 L 3.4395833 1.3229167 z M 3.7041666 1.3229167 L 3.96875 1.3229167 L 3.96875 1.0583333 L 3.7041666 1.0583333 L 3.7041666 1.3229167 z M 3.96875 1.3229167 L 3.96875 1.5875 L 4.2333333 1.5875 L 4.2333333 1.3229167 L 3.96875 1.3229167 z M 4.2333333 1.3229167 L 4.4979166 1.3229167 L 4.4979166 1.0583333 L 4.2333333 1.0583333 L 4.2333333 1.3229167 z M 4.4979166 1.3229167 L 4.4979166 1.5875 L 4.7625 1.5875 L 4.7625 1.3229167 L 4.4979166 1.3229167 z M 2.1166666 1.3229167 L 1.8520833 1.3229167 L 1.8520833 1.5875 L 2.1166666 1.5875 L 2.1166666 1.3229167 z M 1.0583333 2.1166666 L 1.0583333 2.38125 L 1.3229167 2.38125 L 1.3229167 2.1166666 L 1.0583333 2.1166666 z M 1.3229167 2.38125 L 1.3229167 2.6458333 L 1.5875 2.6458333 L 1.5875 2.38125 L 1.3229167 2.38125 z M 1.3229167 2.6458333 L 1.0583333 2.6458333 L 1.0583333 2.9104166 L 1.3229167 2.9104166 L 1.3229167 2.6458333 z M 1.3229167 2.9104166 L 1.3229167 3.175 L 1.5875 3.175 L 1.5875 2.9104166 L 1.3229167 2.9104166 z M 1.3229167 3.175 L 1.0583333 3.175 L 1.0583333 3.4395833 L 1.3229167 3.4395833 L 1.3229167 3.175 z M 1.3229167 3.4395833 L 1.3229167 3.7041666 L 1.5875 3.7041666 L 1.5875 3.4395833 L 1.3229167 3.4395833 z M 1.3229167 3.7041666 L 1.0583333 3.7041666 L 1.0583333 3.96875 L 1.3229167 3.96875 L 1.3229167 3.7041666 z M 1.0583333 4.2333333 L 1.0583333 5.2916666 L 2.1166666 5.2916666 L 1.5875 4.7625 L 1.0583333 4.2333333 z M 2.6458333 4.7625 L 2.6458333 5.0270833 L 2.9104166 5.0270833 L 2.9104166 4.7625 L 2.6458333 4.7625 z M 2.9104166 5.0270833 L 2.9104166 5.2916666 L 3.175 5.2916666 L 3.175 5.0270833 L 2.9104166 5.0270833 z M 3.175 5.0270833 L 3.4395833 5.0270833 L 3.4395833 4.7625 L 3.175 4.7625 L 3.175 5.0270833 z M 3.4395833 5.0270833 L 3.4395833 5.2916666 L 3.7041666 5.2916666 L 3.7041666 5.0270833 L 3.4395833 5.0270833 z M 3.7041666 5.0270833 L 3.96875 5.0270833 L 3.96875 4.7625 L 3.7041666 4.7625 L 3.7041666 5.0270833 z M 3.96875 5.0270833 L 3.96875 5.2916666 L 4.2333333 5.2916666 L 4.2333333 5.0270833 L 3.96875 5.0270833 z M 4.2333333 5.0270833 L 4.4979166 5.0270833 L 4.4979166 4.7625 L 4.2333333 4.7625 L 4.2333333 5.0270833 z M 4.4979166 5.0270833 L 4.4979166 5.2916666 L 4.7625 5.2916666 L 4.7625 5.0270833 L 4.4979166 5.0270833 z M 4.7625 5.0270833 L 5.0270833 5.0270833 L 5.0270833 4.7625 L 4.7625 4.7625 L 4.7625 5.0270833 z M 5.0270833 5.0270833 L 5.0270833 5.2916666 L 5.2916666 5.2916666 L 5.2916666 5.0270833 L 5.0270833 5.0270833 z M 2.6458333 5.0270833 L 2.38125 5.0270833 L 2.38125 5.2916666 L 2.6458333 5.2916666 L 2.6458333 5.0270833 z " /></g></svg>
