<?xml version="1.0" encoding="UTF-8" standalone="no"?>
<!-- Created with Inkscape (http://www.inkscape.org/) -->

<svg
   xmlns:dc="http://purl.org/dc/elements/1.1/"
   xmlns:cc="http://creativecommons.org/ns#"
   xmlns:rdf="http://www.w3.org/1999/02/22-rdf-syntax-ns#"
   xmlns:svg="http://www.w3.org/2000/svg"
   xmlns="http://www.w3.org/2000/svg"
   xmlns:xlink="http://www.w3.org/1999/xlink"
   xmlns:sodipodi="http://sodipodi.sourceforge.net/DTD/sodipodi-0.dtd"
   xmlns:inkscape="http://www.inkscape.org/namespaces/inkscape"
   width="64"
   height="64"
   viewBox="0 0 64 64"
   version="1.1"
   id="svg8"
   inkscape:version="0.92.4 5da689c313, 2019-01-14"
   sodipodi:docname="alt-music.svg">
  <title
     id="title7895">Antu icon Theme</title>
  <defs
     id="defs2">
    <linearGradient
       gradientTransform="translate(-50,-91.000005)"
       inkscape:collect="always"
       xlink:href="#linearGradient903"
       id="linearGradient3653"
       x1="46"
       y1="405.64999"
       x2="46"
       y2="353.64999"
       gradientUnits="userSpaceOnUse" />
    <linearGradient
       inkscape:collect="always"
       xlink:href="#linearGradient895"
       id="linearGradient868"
       x1="-8"
       y1="312.64999"
       x2="-8"
       y2="264.64999"
       gradientUnits="userSpaceOnUse" />
    <linearGradient
       id="linearGradient903"
       inkscape:collect="always">
      <stop
         id="stop899"
         offset="0"
         style="stop-color:#b742ea;stop-opacity:1" />
      <stop
         id="stop901"
         offset="1"
         style="stop-color:#e43ac6;stop-opacity:1" />
    </linearGradient>
    <linearGradient
       id="linearGradient895"
       inkscape:collect="always">
      <stop
         id="stop891"
         offset="0"
         style="stop-color:#d697e8;stop-opacity:1" />
      <stop
         id="stop893"
         offset="1"
         style="stop-color:#e671ce;stop-opacity:1" />
    </linearGradient>
  </defs>
  <sodipodi:namedview
     id="base"
     pagecolor="#ffffff"
     bordercolor="#666666"
     borderopacity="1.0"
     inkscape:pageopacity="0.0"
     inkscape:pageshadow="2"
     inkscape:zoom="2.8"
     inkscape:cx="-26.372656"
     inkscape:cy="-12.526083"
     inkscape:document-units="px"
     inkscape:current-layer="g16561"
     showgrid="true"
     units="px"
     inkscape:window-width="1920"
     inkscape:window-height="1049"
     inkscape:window-x="0"
     inkscape:window-y="0"
     inkscape:window-maximized="1"
     objecttolerance="10"
     gridtolerance="10"
     guidetolerance="10"
     inkscape:snap-bbox="true"
     inkscape:bbox-paths="true"
     inkscape:bbox-nodes="true"
     inkscape:snap-bbox-edge-midpoints="true"
     inkscape:snap-bbox-midpoints="true"
     inkscape:object-paths="true"
     inkscape:snap-intersection-paths="true"
     inkscape:showpageshadow="false">
    <inkscape:grid
       type="xygrid"
       id="grid7897"
       empspacing="4" />
  </sodipodi:namedview>
  <metadata
     id="metadata5">
    <rdf:RDF>
      <cc:Work
         rdf:about="">
        <dc:format>image/svg+xml</dc:format>
        <dc:type
           rdf:resource="http://purl.org/dc/dcmitype/StillImage" />
        <dc:title>Antu icon Theme</dc:title>
      </cc:Work>
    </rdf:RDF>
  </metadata>
  <g
     inkscape:label="Capa 1"
     inkscape:groupmode="layer"
     id="layer1"
     transform="translate(0,-250.64999)">
    <g
       id="g16561"
       transform="translate(44,-2)">
      <path
         style="color:#000000;font-style:normal;font-variant:normal;font-weight:normal;font-stretch:normal;font-size:medium;line-height:normal;font-family:sans-serif;font-variant-ligatures:normal;font-variant-position:normal;font-variant-caps:normal;font-variant-numeric:normal;font-variant-alternates:normal;font-feature-settings:normal;text-indent:0;text-align:start;text-decoration:none;text-decoration-line:none;text-decoration-style:solid;text-decoration-color:#000000;letter-spacing:normal;word-spacing:normal;text-transform:none;writing-mode:lr-tb;direction:ltr;text-orientation:mixed;dominant-baseline:auto;baseline-shift:baseline;text-anchor:start;white-space:normal;shape-padding:0;clip-rule:nonzero;display:inline;overflow:visible;visibility:visible;opacity:1;isolation:auto;mix-blend-mode:normal;color-interpolation:sRGB;color-interpolation-filters:linearRGB;solid-color:#000000;solid-opacity:1;vector-effect:none;fill:#a63bcd;fill-opacity:1;fill-rule:nonzero;stroke:none;stroke-width:2;stroke-linecap:round;stroke-linejoin:round;stroke-miterlimit:4;stroke-dasharray:none;stroke-dashoffset:0;stroke-opacity:1;color-rendering:auto;image-rendering:auto;shape-rendering:auto;text-rendering:auto;enable-background:accumulate"
         d="m -39,254.64999 c -2.752703,0 -5,2.24729 -5,5 v 50 c 0,2.75269 2.247297,5 5,5 h 54 c 2.752703,0 5,-2.24731 5,-5 v -42 c 0,-2.75271 -2.247297,-5 -5,-5 h -27 c -0.305556,0 -0.669523,-0.21927 -1.185547,-0.87109 -0.516024,-0.65181 -1.073964,-1.63475 -1.714844,-2.66016 -0.64088,-1.0254 -1.369755,-2.10079 -2.341797,-2.96484 -0.972039,-0.86404 -2.241145,-1.50391 -3.757812,-1.50391 z"
         id="path1475-6"
         inkscape:connector-curvature="0" />
      <path
         style="opacity:1;vector-effect:none;fill:#c373dc;fill-opacity:1;stroke:none;stroke-width:2;stroke-linecap:round;stroke-linejoin:round;stroke-miterlimit:4;stroke-dasharray:none;stroke-dashoffset:0;stroke-opacity:1"
         d="m -39,255.64998 h 17.999999 c 5,0 6.000002,8.00001 9.000002,8.00001 H 15 c 2.216,0 4,1.78399 4,4 v 42 c 0,2.216 -1.784,4 -4,4 h -54 c -2.216,0 -4,-1.784 -4,-4 v -50 c 0,-2.21601 1.784,-4 4,-4.00001 z"
         id="rect1374-3-4"
         inkscape:connector-curvature="0"
         sodipodi:nodetypes="sccssssssss" />
      <path
         style="color:#000000;font-style:normal;font-variant:normal;font-weight:normal;font-stretch:normal;font-size:medium;line-height:normal;font-family:sans-serif;font-variant-ligatures:normal;font-variant-position:normal;font-variant-caps:normal;font-variant-numeric:normal;font-variant-alternates:normal;font-feature-settings:normal;text-indent:0;text-align:start;text-decoration:none;text-decoration-line:none;text-decoration-style:solid;text-decoration-color:#000000;letter-spacing:normal;word-spacing:normal;text-transform:none;writing-mode:lr-tb;direction:ltr;text-orientation:mixed;dominant-baseline:auto;baseline-shift:baseline;text-anchor:start;white-space:normal;shape-padding:0;clip-rule:nonzero;display:inline;overflow:visible;visibility:visible;opacity:1;isolation:auto;mix-blend-mode:normal;color-interpolation:sRGB;color-interpolation-filters:linearRGB;solid-color:#000000;solid-opacity:1;vector-effect:none;fill:url(#linearGradient3653);fill-opacity:1.0;fill-rule:nonzero;stroke:none;stroke-width:2;stroke-linecap:round;stroke-linejoin:round;stroke-miterlimit:4;stroke-dasharray:none;stroke-dashoffset:0;stroke-opacity:1;color-rendering:auto;image-rendering:auto;shape-rendering:auto;text-rendering:auto;enable-background:accumulate"
         d="m -12,262.64999 c -1.194444,0 -2.080477,0.78073 -2.751953,1.62891 -0.671476,0.84819 -1.238536,1.86525 -1.847656,2.83984 -0.60912,0.97459 -1.255245,1.8992 -1.970703,2.53516 -0.71546,0.63597 -1.446355,0.99609 -2.429688,0.99609 h -18 c -2.752703,0 -5,2.24729 -5,5 v 34 c 0,2.75269 2.247297,5 5,5 h 54 c 2.752703,0 5,-2.24731 5,-5 v -42 c 0,-2.75271 -2.247297,-5 -5,-5 z"
         id="path1453-6"
         inkscape:connector-curvature="0" />
      <path
         style="opacity:1;vector-effect:none;fill:url(#linearGradient868);fill-opacity:1.0;stroke:none;stroke-width:2;stroke-linecap:round;stroke-linejoin:round;stroke-miterlimit:4;stroke-dasharray:none;stroke-dashoffset:0;stroke-opacity:1"
         d="m -39,271.64999 h 17.999999 c 5,0 6.000002,-8 9.000002,-8 H 15 c 2.216,0 4,1.78399 4,4 v 42 c 0,2.216 -1.784,4 -4,4 h -54 c -2.216,0 -4,-1.784 -4,-4 v -34 c 0,-2.21601 1.784,-4 4,-4 z"
         id="rect1374-4-4-2"
         inkscape:connector-curvature="0"
         sodipodi:nodetypes="sccssssssss" />
      <path
         sodipodi:nodetypes="cccccssssccccccsssscccccccccccssssccc"
         inkscape:connector-curvature="0"
         id="rect4545-5"
         d="m -16,277.65012 -5,2.00002 v 2.00001 1.99997 2.34573 c -0.455562,-0.21618 -0.960386,-0.34582 -1.5,-0.34582 -1.939,0 -3.5,1.56099 -3.5,3.5 0,1.93901 1.561,3.49999 3.5,3.49999 1.939003,0 3.5,-1.56098 3.5,-3.49999 v -6.30078 l 3,-1.1992 z m 9,2.99974 -7.000001,3 v 11.02344 c -1.009822,-0.64493 -2.207938,-1.02341 -3.5,-1.02341 -3.600998,0 -6.5,2.89897 -6.5,6.49999 0,3.60098 2.899002,6.49999 6.5,6.49999 3.601003,0 6.5,-2.899 6.5,-6.49999 0,-0.034 -0.0047,-0.0688 -0.0059,-0.10356 l 0.0059,0.004 v -9.40037 -2.00001 L -7,286.64993 Z m 7.999999,8.00016 -5.000001,2.00002 v 1.99997 2.00001 2.34569 c -0.455562,-0.21619 -0.960386,-0.34582 -1.5,-0.34582 -1.938997,0 -3.499997,1.56098 -3.499997,3.49999 0,1.93901 1.561,3.49999 3.499997,3.49999 1.939003,0 3.540049,-1.56139 3.500001,-3.49999 v -6.30078 l 3,-1.19923 z"
         style="opacity:1;fill:#f7e3f7;fill-opacity:1;stroke:none;stroke-width:1;stroke-opacity:1" />
    </g>
  </g>
</svg>
