<?xml version="1.0" encoding="UTF-8" standalone="no"?>
<!-- Created with Inkscape (http://www.inkscape.org/) -->

<svg
   xmlns:dc="http://purl.org/dc/elements/1.1/"
   xmlns:cc="http://creativecommons.org/ns#"
   xmlns:rdf="http://www.w3.org/1999/02/22-rdf-syntax-ns#"
   xmlns:svg="http://www.w3.org/2000/svg"
   xmlns="http://www.w3.org/2000/svg"
   xmlns:sodipodi="http://sodipodi.sourceforge.net/DTD/sodipodi-0.dtd"
   xmlns:inkscape="http://www.inkscape.org/namespaces/inkscape"
   width="64"
   height="64"
   viewBox="0 0 16.933333 16.933333"
   version="1.1"
   id="svg8"
   inkscape:version="0.92.3 (2405546, 2018-03-11)"
   sodipodi:docname="apple.svg">
  <defs
     id="defs2" />
  <sodipodi:namedview
     id="base"
     pagecolor="#ffffff"
     bordercolor="#666666"
     borderopacity="1.0"
     inkscape:pageopacity="0.0"
     inkscape:pageshadow="2"
     inkscape:zoom="11.2"
     inkscape:cx="11.774357"
     inkscape:cy="29.512999"
     inkscape:document-units="px"
     inkscape:current-layer="layer1"
     showgrid="true"
     units="px"
     inkscape:showpageshadow="false"
     inkscape:snap-bbox="true"
     inkscape:bbox-paths="true"
     inkscape:bbox-nodes="true"
     inkscape:snap-bbox-edge-midpoints="true"
     inkscape:snap-bbox-midpoints="true"
     inkscape:object-paths="true"
     inkscape:snap-intersection-paths="true"
     inkscape:window-width="1874"
     inkscape:window-height="1141"
     inkscape:window-x="46"
     inkscape:window-y="30"
     inkscape:window-maximized="1">
    <inkscape:grid
       type="xygrid"
       id="grid815" />
  </sodipodi:namedview>
  <metadata
     id="metadata5">
    <rdf:RDF>
      <cc:Work
         rdf:about="">
        <dc:format>image/svg+xml</dc:format>
        <dc:type
           rdf:resource="http://purl.org/dc/dcmitype/StillImage" />
        <dc:title></dc:title>
      </cc:Work>
    </rdf:RDF>
  </metadata>
  <g
     inkscape:label="Capa 1"
     inkscape:groupmode="layer"
     id="layer1"
     transform="translate(0,-280.06666)">
    <g
       id="g1470"
       transform="translate(4.7625,0.7937465)">
      <path
         inkscape:connector-curvature="0"
         style="opacity:1;fill:#a3b7cc;fill-opacity:1;stroke:none;stroke-width:0.11906253;stroke-miterlimit:4;stroke-dasharray:none;stroke-opacity:1"
         d="m 3.7041666,279.80208 c 4.3973744,0 7.9374994,3.54012 7.9374994,7.9375 0,4.39737 -3.540125,7.9375 -7.9374994,7.9375 -4.39737469,0 -7.9374996,-3.54013 -7.9374996,-7.9375 0,-4.39738 3.54012491,-7.9375 7.9374996,-7.9375 z"
         id="rect4593" />
      <path
         inkscape:connector-curvature="0"
         style="opacity:1;fill:#ffffff;fill-opacity:1;stroke:none;stroke-width:0.11509378;stroke-miterlimit:4;stroke-dasharray:none;stroke-opacity:1"
         d="m 3.7041666,280.06666 c 4.2507954,0 7.6729164,3.42212 7.6729164,7.67292 0,4.2508 -3.422121,7.67292 -7.6729164,7.67292 -4.25079579,0 -7.6729165,-3.42212 -7.6729165,-7.67292 0,-4.2508 3.42212071,-7.67292 7.6729165,-7.67292 z"
         id="rect4593-5" />
      <path
         id="path5"
         d="m 5.3686645,282.64015 c -0.5227436,0.036 -1.1337464,0.37007 -1.4908651,0.80512 -0.3240506,0.39522 -0.5919772,0.98143 -0.4878255,1.55081 0.5707057,0.0178 1.1614554,-0.3241 1.5043009,-0.76585 0.3197241,-0.41235 0.5625301,-0.9948 0.4743897,-1.59008 z m 0.1932697,2.29237 c -0.8808373,0 -1.2529076,0.42013 -1.8639689,0.42013 -0.6297673,0 -1.108806,-0.41962 -1.8706867,-0.41962 -0.7482099,0 -1.54354499,0.45677 -2.04793689,1.23662 -0.00312,0.005 -0.00636,0.01 -0.0093,0.0145 H 7.05952 c 0.112041,-0.0954 0.237247,-0.18196 0.376204,-0.25838 -0.502583,-0.62927 -1.208275,-0.99322 -1.8737879,-0.99322 z"
         style="clip-rule:evenodd;overflow:visible;fill:#bae0bd;fill-opacity:1;fill-rule:evenodd;stroke:#5e9c76;stroke-width:0.26139963;stroke-linecap:round;stroke-linejoin:round;stroke-miterlimit:2.61310005;stroke-dasharray:none;stroke-opacity:1"
         inkscape:connector-curvature="0" />
      <path
         stroke-miterlimit="2.6131"
         d="m -0.25592859,286.17237 c -0.2172149,0.34174 -0.367511,0.83154 -0.4073956,1.26115 l 7.04693019,-1.8e-4 c 0.07619,-0.47001 0.329541,-0.91906 0.731099,-1.26045 l -7.37063359,-5.3e-4 h 4.234e-4 z"
         id="path9"
         style="clip-rule:evenodd;overflow:visible;fill:#ffeea3;fill-opacity:1;fill-rule:evenodd;stroke:#ba9b48;stroke-width:0.26139966;stroke-linecap:round;stroke-linejoin:round;stroke-miterlimit:2.61310005;stroke-dasharray:none;stroke-opacity:1"
         inkscape:connector-curvature="0"
         sodipodi:nodetypes="ccccccc" />
      <path
         stroke-miterlimit="2.6131"
         d="m -0.59933309,288.68346 c -0.068477,-0.43879 -0.079559,-0.86182 -0.036544,-1.24992 l 6.99203509,-1.8e-4 c -0.06839,0.42088 -0.01099,0.85887 0.16199,1.25037 z"
         id="path11"
         inkscape:connector-curvature="0"
         style="clip-rule:evenodd;overflow:visible;fill:#f0a371;fill-opacity:1;fill-rule:evenodd;stroke:#b86e3e;stroke-width:0.26139966;stroke-linecap:round;stroke-linejoin:round;stroke-miterlimit:2.61310005;stroke-dasharray:none;stroke-opacity:1" />
      <path
         stroke-miterlimit="2.6131"
         d="m -0.25762269,289.9333 c -0.1651103,-0.41992 -0.2781628,-0.84167 -0.3417104,-1.24984 l 7.11748109,2.7e-4 c 0.220342,0.49886 0.628118,0.92268 1.202299,1.14047 -0.01706,0.0381 -0.03351,0.0745 -0.04935,0.10963 z"
         id="path13"
         inkscape:connector-curvature="0"
         style="clip-rule:evenodd;overflow:visible;fill:#f78f8f;fill-opacity:1;fill-rule:evenodd;stroke:#c74343;stroke-width:0.26139966;stroke-linecap:round;stroke-linejoin:round;stroke-miterlimit:2.61310005;stroke-dasharray:none;stroke-opacity:1" />
      <path
         stroke-miterlimit="2.6131"
         d="m 7.671084,289.93381 c -0.197132,0.43522 -0.311408,0.66109 -0.584216,1.07805 -0.0367,0.056 -0.07463,0.11328 -0.114117,0.17109 l -6.56978979,6.1e-4 c -0.021047,-0.0315 -0.041898,-0.0629 -0.062431,-0.0942 -0.2456265,-0.37568 -0.4444791,-0.76516 -0.5981531,-1.15613 z"
         id="path15"
         inkscape:connector-curvature="0"
         style="clip-rule:evenodd;overflow:visible;fill:#dcd5f2;fill-opacity:1;fill-rule:evenodd;stroke:#8b75a1;stroke-width:0.26139966;stroke-linecap:round;stroke-linejoin:round;stroke-miterlimit:2.61310005;stroke-dasharray:none;stroke-opacity:1" />
      <path
         stroke-miterlimit="2.6131"
         d="m 6.972751,291.18295 c -0.401889,0.59119 -0.941441,1.24176 -1.5961384,1.24793 -0.6388457,0.006 -0.8027326,-0.41747 -1.6694562,-0.4127 -0.8667237,0.005 -1.0476677,0.42009 -1.6865134,0.41409 -0.6830134,-0.006 -1.21338099,-0.64526 -1.61768179,-1.24871 z"
         id="path19"
         inkscape:connector-curvature="0"
         style="clip-rule:evenodd;overflow:visible;fill:#8bb7f0;fill-opacity:1;fill-rule:evenodd;stroke:#4e7ab5;stroke-width:0.26139966;stroke-linecap:round;stroke-linejoin:round;stroke-miterlimit:2.61310005;stroke-dasharray:none;stroke-opacity:1" />
    </g>
  </g>
</svg>
