<?xml version="1.0" encoding="UTF-8" standalone="no"?>
<!-- Created with Inkscape (http://www.inkscape.org/) -->

<svg
   xmlns:dc="http://purl.org/dc/elements/1.1/"
   xmlns:cc="http://creativecommons.org/ns#"
   xmlns:rdf="http://www.w3.org/1999/02/22-rdf-syntax-ns#"
   xmlns:svg="http://www.w3.org/2000/svg"
   xmlns="http://www.w3.org/2000/svg"
   xmlns:sodipodi="http://sodipodi.sourceforge.net/DTD/sodipodi-0.dtd"
   xmlns:inkscape="http://www.inkscape.org/namespaces/inkscape"
   width="64"
   height="64"
   viewBox="0 0 16.933333 16.933333"
   version="1.1"
   id="svg8"
   inkscape:version="0.92.3 (2405546, 2018-03-11)"
   sodipodi:docname="arch.svg">
  <defs
     id="defs2" />
  <sodipodi:namedview
     id="base"
     pagecolor="#ffffff"
     bordercolor="#666666"
     borderopacity="1.0"
     inkscape:pageopacity="0.0"
     inkscape:pageshadow="2"
     inkscape:zoom="11.2"
     inkscape:cx="11.774357"
     inkscape:cy="29.512999"
     inkscape:document-units="px"
     inkscape:current-layer="layer1"
     showgrid="true"
     units="px"
     inkscape:showpageshadow="false"
     inkscape:snap-bbox="true"
     inkscape:bbox-paths="true"
     inkscape:bbox-nodes="true"
     inkscape:snap-bbox-edge-midpoints="true"
     inkscape:snap-bbox-midpoints="true"
     inkscape:object-paths="true"
     inkscape:snap-intersection-paths="true"
     inkscape:window-width="1874"
     inkscape:window-height="1141"
     inkscape:window-x="46"
     inkscape:window-y="30"
     inkscape:window-maximized="1">
    <inkscape:grid
       type="xygrid"
       id="grid815" />
  </sodipodi:namedview>
  <metadata
     id="metadata5">
    <rdf:RDF>
      <cc:Work
         rdf:about="">
        <dc:format>image/svg+xml</dc:format>
        <dc:type
           rdf:resource="http://purl.org/dc/dcmitype/StillImage" />
        <dc:title></dc:title>
      </cc:Work>
    </rdf:RDF>
  </metadata>
  <g
     inkscape:label="Capa 1"
     inkscape:groupmode="layer"
     id="layer1"
     transform="translate(0,-280.06666)">
    <g
       id="g2168"
       transform="translate(6.4264331,-0.5291735)">
      <path
         id="rect4593-9"
         d="m 2.0402335,281.125 c 4.3973744,0 7.9374994,3.54012 7.9374994,7.9375 0,4.39737 -3.540125,7.9375 -7.9374994,7.9375 -4.3973747,0 -7.9374996,-3.54013 -7.9374996,-7.9375 0,-4.39738 3.5401249,-7.9375 7.9374996,-7.9375 z"
         style="opacity:1;fill:#4e87b5;fill-opacity:1;stroke:none;stroke-width:0.11906253;stroke-miterlimit:4;stroke-dasharray:none;stroke-opacity:1"
         inkscape:connector-curvature="0" />
      <path
         id="rect4593-5-3"
         d="m 2.0402335,281.38958 c 4.2507954,0 7.6729164,3.42212 7.6729164,7.67292 0,4.2508 -3.422121,7.67292 -7.6729164,7.67292 -4.2507958,0 -7.6729165,-3.42212 -7.6729165,-7.67292 0,-4.2508 3.4221207,-7.67292 7.6729165,-7.67292 z"
         style="opacity:1;fill:#8bcaf0;fill-opacity:1;stroke:none;stroke-width:0.11509378;stroke-miterlimit:4;stroke-dasharray:none;stroke-opacity:1"
         inkscape:connector-curvature="0" />
      <path
         inkscape:connector-curvature="0"
         id="path4199-2-9"
         d="m 2.0402351,283.50616 c -1.25677215,4.39869 -5.0270862,10.05417 -5.0270862,10.05417 1.4220452,-0.94804 2.65074825,-1.42031 3.85009095,-1.6532 a 1.2567715,1.5709643 0 0 1 -0.034369,-0.12641 1.2567715,1.5709643 0 0 1 -0.027001,-0.15219 1.2567715,1.5709643 0 0 1 -0.014729,-0.15587 1.2567715,1.5709643 0 0 1 -0.00369,-0.11169 1.2567715,1.5709643 0 0 1 0.00616,-0.15709 1.2567715,1.5709643 0 0 1 0.018412,-0.15464 1.2567715,1.5709643 0 0 1 0.031911,-0.15219 1.2567715,1.5709643 0 0 1 0.042954,-0.14729 1.2567715,1.5709643 0 0 1 0.054002,-0.14237 1.2567715,1.5709643 0 0 1 0.066274,-0.13377 1.2567715,1.5709643 0 0 1 0.076093,-0.12519 1.2567715,1.5709643 0 0 1 0.085913,-0.11414 1.2567715,1.5709643 0 0 1 0.093275,-0.10431 1.2567715,1.5709643 0 0 1 0.1030952,-0.0908 1.2567715,1.5709643 0 0 1 0.1092316,-0.0786 1.2567715,1.5709643 0 0 1 0.1141394,-0.0638 1.2567715,1.5709643 0 0 1 0.1190498,-0.0491 1.2567715,1.5709643 0 0 1 0.1227323,-0.0344 1.2567715,1.5709643 0 0 1 0.125185,-0.0196 1.2567715,1.5709643 0 0 1 0.088367,-0.004 1.2567715,1.5709643 0 0 1 0.1251868,0.007 1.2567715,1.5709643 0 0 1 0.1239584,0.0246 1.2567715,1.5709643 0 0 1 0.1227314,0.0381 1.2567715,1.5709643 0 0 1 0.1178232,0.054 1.2567715,1.5709643 0 0 1 0.1129126,0.0687 1.2567715,1.5709643 0 0 1 0.1067763,0.0822 1.2567715,1.5709643 0 0 1 0.1006395,0.0945 1.2567715,1.5709643 0 0 1 0.092049,0.10678 1.2567715,1.5709643 0 0 1 0.08223,0.11782 1.2567715,1.5709643 0 0 1 0.073639,0.12764 1.2567715,1.5709643 0 0 1 0.062594,0.13623 1.2567715,1.5709643 0 0 1 0.050321,0.1436 1.2567715,1.5709643 0 0 1 0.040502,0.14973 1.2567715,1.5709643 0 0 1 0.027001,0.15219 1.2567715,1.5709643 0 0 1 0.014729,0.15587 1.2567715,1.5709643 0 0 1 0.00369,0.11168 1.2567715,1.5709643 0 0 1 -0.00616,0.1571 1.2567715,1.5709643 0 0 1 -0.018412,0.15464 1.2567715,1.5709643 0 0 1 -0.031911,0.15219 1.2567715,1.5709643 0 0 1 -0.02332,0.0822 c 1.1993416,0.23289 2.4280446,0.70516 3.8500896,1.65319 0,0 -3.7703145,-5.65547 -5.0270853,-10.05417 z"
         style="fill:#406e94;fill-opacity:1;fill-rule:evenodd;stroke:none;stroke-width:0.26458332px;stroke-linecap:butt;stroke-linejoin:miter;stroke-opacity:1" />
    </g>
  </g>
</svg>
