<?xml version="1.0" encoding="UTF-8" standalone="no"?>
<!-- Created with Inkscape (http://www.inkscape.org/) -->

<svg
   xmlns:dc="http://purl.org/dc/elements/1.1/"
   xmlns:cc="http://creativecommons.org/ns#"
   xmlns:rdf="http://www.w3.org/1999/02/22-rdf-syntax-ns#"
   xmlns:svg="http://www.w3.org/2000/svg"
   xmlns="http://www.w3.org/2000/svg"
   xmlns:sodipodi="http://sodipodi.sourceforge.net/DTD/sodipodi-0.dtd"
   xmlns:inkscape="http://www.inkscape.org/namespaces/inkscape"
   width="64"
   height="64"
   viewBox="0 0 16.933333 16.933333"
   version="1.1"
   id="svg8"
   inkscape:version="0.92.3 (2405546, 2018-03-11)"
   sodipodi:docname="folder-favorites.svg">
  <defs
     id="defs2" />
  <sodipodi:namedview
     id="base"
     pagecolor="#ffffff"
     bordercolor="#666666"
     borderopacity="1.0"
     inkscape:pageopacity="0.0"
     inkscape:pageshadow="2"
     inkscape:zoom="11.2"
     inkscape:cx="11.774357"
     inkscape:cy="29.512999"
     inkscape:document-units="px"
     inkscape:current-layer="layer1"
     showgrid="true"
     units="px"
     inkscape:showpageshadow="false"
     inkscape:snap-bbox="true"
     inkscape:bbox-paths="true"
     inkscape:bbox-nodes="true"
     inkscape:snap-bbox-edge-midpoints="true"
     inkscape:snap-bbox-midpoints="true"
     inkscape:object-paths="true"
     inkscape:snap-intersection-paths="true"
     inkscape:window-width="1874"
     inkscape:window-height="1141"
     inkscape:window-x="46"
     inkscape:window-y="30"
     inkscape:window-maximized="1">
    <inkscape:grid
       type="xygrid"
       id="grid815" />
  </sodipodi:namedview>
  <metadata
     id="metadata5">
    <rdf:RDF>
      <cc:Work
         rdf:about="">
        <dc:format>image/svg+xml</dc:format>
        <dc:type
           rdf:resource="http://purl.org/dc/dcmitype/StillImage" />
        <dc:title></dc:title>
      </cc:Work>
    </rdf:RDF>
  </metadata>
  <g
     inkscape:label="Capa 1"
     inkscape:groupmode="layer"
     id="layer1"
     transform="translate(0,-280.06666)">
    <g
       id="g5068"
       transform="translate(6.4161452,-0.1653635)">
      <path
         inkscape:connector-curvature="0"
         id="path1475-3"
         d="m -5.0932288,280.76119 c -0.7283192,0 -1.3229166,0.5946 -1.3229166,1.32292 v 13.22916 c 0,0.72832 0.5945974,1.32292 1.3229166,1.32292 H 9.1942706 c 0.72832,0 1.3229174,-0.5946 1.3229174,-1.32292 v -11.1125 c 0,-0.72832 -0.5945974,-1.32291 -1.3229174,-1.32291 H 2.0505211 c -0.080845,0 -0.1771446,-0.058 -0.313676,-0.23048 -0.1365313,-0.17246 -0.2841529,-0.43253 -0.4537191,-0.70383 -0.1695662,-0.27131 -0.36241434,-0.55584 -0.61960044,-0.78445 -0.2571854,-0.22861 -0.5929697,-0.39791 -0.9942545,-0.39791 z"
         style="color:#000000;font-style:normal;font-variant:normal;font-weight:normal;font-stretch:normal;font-size:medium;line-height:normal;font-family:sans-serif;font-variant-ligatures:normal;font-variant-position:normal;font-variant-caps:normal;font-variant-numeric:normal;font-variant-alternates:normal;font-feature-settings:normal;text-indent:0;text-align:start;text-decoration:none;text-decoration-line:none;text-decoration-style:solid;text-decoration-color:#000000;letter-spacing:normal;word-spacing:normal;text-transform:none;writing-mode:lr-tb;direction:ltr;text-orientation:mixed;dominant-baseline:auto;baseline-shift:baseline;text-anchor:start;white-space:normal;shape-padding:0;clip-rule:nonzero;display:inline;overflow:visible;visibility:visible;opacity:1;isolation:auto;mix-blend-mode:normal;color-interpolation:sRGB;color-interpolation-filters:linearRGB;solid-color:#000000;solid-opacity:1;vector-effect:none;fill:#4f92db;fill-opacity:1;fill-rule:nonzero;stroke:none;stroke-width:0.52916664;stroke-linecap:round;stroke-linejoin:round;stroke-miterlimit:4;stroke-dasharray:none;stroke-dashoffset:0;stroke-opacity:1;color-rendering:auto;image-rendering:auto;shape-rendering:auto;text-rendering:auto;enable-background:accumulate" />
      <path
         sodipodi:nodetypes="sccssssssss"
         inkscape:connector-curvature="0"
         id="rect1374-3-7"
         d="m -5.0932288,281.02577 h 4.76249966 c 1.3229166,0 1.58750054,2.11667 2.38125054,2.11667 h 7.1437492 c 0.586317,0 1.0583344,0.47201 1.0583344,1.05833 v 11.1125 c 0,0.58632 -0.4720174,1.05833 -1.0583344,1.05833 H -5.0932288 c -0.5863166,0 -1.0583333,-0.47201 -1.0583333,-1.05833 V 282.0841 c 0,-0.58631 0.4720167,-1.05833 1.0583333,-1.05833 z"
         style="opacity:1;vector-effect:none;fill:#5abfff;fill-opacity:1;stroke:none;stroke-width:0.52916664;stroke-linecap:round;stroke-linejoin:round;stroke-miterlimit:4;stroke-dasharray:none;stroke-dashoffset:0;stroke-opacity:1" />
      <path
         inkscape:connector-curvature="0"
         id="path1453-4"
         d="m 2.0505211,282.87786 c -0.31603,0 -0.5504595,0.20656 -0.7281209,0.43098 -0.1776613,0.22441 -0.32769604,0.49351 -0.48885904,0.75137 -0.161163,0.25786 -0.3321169,0.5025 -0.5214151,0.67076 -0.1892988,0.16827 -0.3826814,0.26355 -0.642855,0.26355 H -5.0932288 c -0.7283192,0 -1.3229166,0.5946 -1.3229166,1.32292 v 8.99583 c 0,0.72832 0.5945974,1.32292 1.3229166,1.32292 H 9.1942706 c 0.72832,0 1.3229174,-0.5946 1.3229174,-1.32292 v -11.1125 c 0,-0.72832 -0.5945974,-1.32291 -1.3229174,-1.32291 z"
         style="color:#000000;font-style:normal;font-variant:normal;font-weight:normal;font-stretch:normal;font-size:medium;line-height:normal;font-family:sans-serif;font-variant-ligatures:normal;font-variant-position:normal;font-variant-caps:normal;font-variant-numeric:normal;font-variant-alternates:normal;font-feature-settings:normal;text-indent:0;text-align:start;text-decoration:none;text-decoration-line:none;text-decoration-style:solid;text-decoration-color:#000000;letter-spacing:normal;word-spacing:normal;text-transform:none;writing-mode:lr-tb;direction:ltr;text-orientation:mixed;dominant-baseline:auto;baseline-shift:baseline;text-anchor:start;white-space:normal;shape-padding:0;clip-rule:nonzero;display:inline;overflow:visible;visibility:visible;opacity:1;isolation:auto;mix-blend-mode:normal;color-interpolation:sRGB;color-interpolation-filters:linearRGB;solid-color:#000000;solid-opacity:1;vector-effect:none;fill:#4f92db;fill-opacity:1;fill-rule:nonzero;stroke:none;stroke-width:0.52916664;stroke-linecap:round;stroke-linejoin:round;stroke-miterlimit:4;stroke-dasharray:none;stroke-dashoffset:0;stroke-opacity:1;color-rendering:auto;image-rendering:auto;shape-rendering:auto;text-rendering:auto;enable-background:accumulate" />
      <path
         sodipodi:nodetypes="sccssssssss"
         inkscape:connector-curvature="0"
         id="rect1374-4-4-5"
         d="m -5.0932288,285.2591 h 4.76249966 c 1.3229166,0 1.58750054,-2.11666 2.38125054,-2.11666 h 7.1437492 c 0.586317,0 1.0583344,0.47201 1.0583344,1.05833 v 11.1125 c 0,0.58632 -0.4720174,1.05833 -1.0583344,1.05833 H -5.0932288 c -0.5863166,0 -1.0583332,-0.47201 -1.0583332,-1.05833 v -8.99583 c 0,-0.58632 0.4720166,-1.05834 1.0583332,-1.05834 z"
         style="opacity:1;vector-effect:none;fill:#5abfff;fill-opacity:1;stroke:none;stroke-width:0.52916664;stroke-linecap:round;stroke-linejoin:round;stroke-miterlimit:4;stroke-dasharray:none;stroke-dashoffset:0;stroke-opacity:1" />
      <path
         style="opacity:0.98999999;vector-effect:none;fill:#ddf3ff;fill-opacity:1;stroke:none;stroke-width:0.52916664;stroke-linecap:round;stroke-linejoin:round;stroke-miterlimit:4;stroke-dasharray:none;stroke-dashoffset:0;stroke-opacity:1"
         d="m 0.72760416,287.90495 c -1.0178439,0 -1.83797616,0.81317 -1.85104976,1.8278 -7.144e-4,0.008 -0.00106,0.0162 -0.00103,0.0243 0,0.067 0.00347,0.13281 0.010335,0.19792 0.051829,0.78074 0.40202186,1.44982 0.91622316,2.0283 0.557453,0.62714 1.30228614,1.16516 2.10168044,1.69808 0.088874,0.0592 0.2046483,0.0592 0.2935224,0 0.7993946,-0.53292 1.5442272,-1.07094 2.1016802,-1.69808 0.514201,-0.57848 0.864394,-1.24755 0.916223,-2.0283 0.0069,-0.0651 0.01033,-0.13093 0.01033,-0.19792 -7.8e-5,-0.009 -5.82e-4,-0.0176 -0.0016,-0.0264 -0.01417,-1.01364 -0.833385,-1.82572 -1.8505223,-1.82572 -0.5193583,0 -0.9872382,0.21188 -1.3229166,0.55397 -0.3356785,-0.34209 -0.8035584,-0.55397 -1.32291674,-0.55397 z"
         id="rect833"
         inkscape:connector-curvature="0"
         sodipodi:nodetypes="sccccccccccscs" />
    </g>
  </g>
</svg>
