<?xml version="1.0" encoding="UTF-8" standalone="no"?>
<!-- Created with Inkscape (http://www.inkscape.org/) -->

<svg
   xmlns:dc="http://purl.org/dc/elements/1.1/"
   xmlns:cc="http://creativecommons.org/ns#"
   xmlns:rdf="http://www.w3.org/1999/02/22-rdf-syntax-ns#"
   xmlns:svg="http://www.w3.org/2000/svg"
   xmlns="http://www.w3.org/2000/svg"
   xmlns:sodipodi="http://sodipodi.sourceforge.net/DTD/sodipodi-0.dtd"
   xmlns:inkscape="http://www.inkscape.org/namespaces/inkscape"
   width="64"
   height="64"
   viewBox="0 0 16.933333 16.933333"
   version="1.1"
   id="svg8"
   inkscape:version="0.92.3 (2405546, 2018-03-11)"
   sodipodi:docname="folder-red.svg">
  <defs
     id="defs2" />
  <sodipodi:namedview
     id="base"
     pagecolor="#ffffff"
     bordercolor="#666666"
     borderopacity="1.0"
     inkscape:pageopacity="0.0"
     inkscape:pageshadow="2"
     inkscape:zoom="11.2"
     inkscape:cx="11.774357"
     inkscape:cy="29.512999"
     inkscape:document-units="px"
     inkscape:current-layer="layer1"
     showgrid="true"
     units="px"
     inkscape:showpageshadow="false"
     inkscape:snap-bbox="true"
     inkscape:bbox-paths="true"
     inkscape:bbox-nodes="true"
     inkscape:snap-bbox-edge-midpoints="true"
     inkscape:snap-bbox-midpoints="true"
     inkscape:object-paths="true"
     inkscape:snap-intersection-paths="true"
     inkscape:window-width="1874"
     inkscape:window-height="1141"
     inkscape:window-x="46"
     inkscape:window-y="30"
     inkscape:window-maximized="1">
    <inkscape:grid
       type="xygrid"
       id="grid815" />
  </sodipodi:namedview>
  <metadata
     id="metadata5">
    <rdf:RDF>
      <cc:Work
         rdf:about="">
        <dc:format>image/svg+xml</dc:format>
        <dc:type
           rdf:resource="http://purl.org/dc/dcmitype/StillImage" />
        <dc:title></dc:title>
      </cc:Work>
    </rdf:RDF>
  </metadata>
  <g
     inkscape:label="Capa 1"
     inkscape:groupmode="layer"
     id="layer1"
     transform="translate(0,-280.06666)">
    <g
       id="g12746"
       transform="translate(0.52916683,-2.1166635)">
      <path
         style="color:#000000;font-style:normal;font-variant:normal;font-weight:normal;font-stretch:normal;font-size:medium;line-height:normal;font-family:sans-serif;font-variant-ligatures:normal;font-variant-position:normal;font-variant-caps:normal;font-variant-numeric:normal;font-variant-alternates:normal;font-feature-settings:normal;text-indent:0;text-align:start;text-decoration:none;text-decoration-line:none;text-decoration-style:solid;text-decoration-color:#000000;letter-spacing:normal;word-spacing:normal;text-transform:none;writing-mode:lr-tb;direction:ltr;text-orientation:mixed;dominant-baseline:auto;baseline-shift:baseline;text-anchor:start;white-space:normal;shape-padding:0;clip-rule:nonzero;display:inline;overflow:visible;visibility:visible;opacity:1;isolation:auto;mix-blend-mode:normal;color-interpolation:sRGB;color-interpolation-filters:linearRGB;solid-color:#000000;solid-opacity:1;vector-effect:none;fill:#c74343;fill-opacity:1;fill-rule:nonzero;stroke:none;stroke-width:0.52916664;stroke-linecap:round;stroke-linejoin:round;stroke-miterlimit:4;stroke-dasharray:none;stroke-dashoffset:0;stroke-opacity:1;color-rendering:auto;image-rendering:auto;shape-rendering:auto;text-rendering:auto;enable-background:accumulate"
         d="m 0.79374994,282.71249 c -0.72831849,0 -1.3229166,0.5946 -1.3229166,1.32292 v 13.22917 c 0,0.72832 0.59459811,1.32291 1.3229166,1.32291 H 15.081249 c 0.728319,0 1.322917,-0.59459 1.322917,-1.32291 v -11.11251 c 0,-0.72832 -0.594598,-1.32291 -1.322917,-1.32291 H 7.9374998 c -0.080846,0 -0.1771438,-0.058 -0.3136768,-0.23048 -0.1365303,-0.17246 -0.2841519,-0.43253 -0.453718,-0.70383 -0.1695662,-0.27131 -0.3624157,-0.55584 -0.6196013,-0.78445 -0.2571856,-0.22861 -0.5929683,-0.39791 -0.9942539,-0.39791 z"
         id="path1475-91-2-1"
         inkscape:connector-curvature="0" />
      <path
         style="opacity:1;vector-effect:none;fill:#f78f8f;fill-opacity:1;stroke:none;stroke-width:0.52916664;stroke-linecap:round;stroke-linejoin:round;stroke-miterlimit:4;stroke-dasharray:none;stroke-dashoffset:0;stroke-opacity:1"
         d="M 0.79374994,282.97707 H 5.5562498 c 1.3229167,0 1.5875,2.11667 2.38125,2.11667 h 7.1437492 c 0.586317,0 1.058334,0.47201 1.058334,1.05833 v 11.11251 c 0,0.58632 -0.472017,1.05833 -1.058334,1.05833 H 0.79374994 c -0.58631661,0 -1.05833327,-0.47201 -1.05833327,-1.05833 V 284.0354 c 0,-0.58631 0.47201666,-1.05833 1.05833327,-1.05833 z"
         id="rect1374-3-07-2-7"
         inkscape:connector-curvature="0"
         sodipodi:nodetypes="sccssssssss" />
      <path
         style="color:#000000;font-style:normal;font-variant:normal;font-weight:normal;font-stretch:normal;font-size:medium;line-height:normal;font-family:sans-serif;font-variant-ligatures:normal;font-variant-position:normal;font-variant-caps:normal;font-variant-numeric:normal;font-variant-alternates:normal;font-feature-settings:normal;text-indent:0;text-align:start;text-decoration:none;text-decoration-line:none;text-decoration-style:solid;text-decoration-color:#000000;letter-spacing:normal;word-spacing:normal;text-transform:none;writing-mode:lr-tb;direction:ltr;text-orientation:mixed;dominant-baseline:auto;baseline-shift:baseline;text-anchor:start;white-space:normal;shape-padding:0;clip-rule:nonzero;display:inline;overflow:visible;visibility:visible;opacity:1;isolation:auto;mix-blend-mode:normal;color-interpolation:sRGB;color-interpolation-filters:linearRGB;solid-color:#000000;solid-opacity:1;vector-effect:none;fill:#c74343;fill-opacity:1;fill-rule:nonzero;stroke:none;stroke-width:0.52916664;stroke-linecap:round;stroke-linejoin:round;stroke-miterlimit:4;stroke-dasharray:none;stroke-dashoffset:0;stroke-opacity:1;color-rendering:auto;image-rendering:auto;shape-rendering:auto;text-rendering:auto;enable-background:accumulate"
         d="m 7.9374998,284.82916 c -0.3160289,0 -0.5504603,0.20656 -0.7281201,0.43098 -0.1776624,0.22441 -0.327697,0.49351 -0.48886,0.75137 -0.161163,0.25786 -0.3321156,0.5025 -0.5214144,0.67076 -0.1892988,0.16827 -0.3826827,0.26355 -0.6428555,0.26355 H 0.79374994 c -0.72831849,0 -1.3229166,0.5946 -1.3229166,1.32292 v 8.99584 c 0,0.72832 0.59459811,1.32291 1.3229166,1.32291 H 15.081249 c 0.728319,0 1.322917,-0.59459 1.322917,-1.32291 v -11.11251 c 0,-0.72832 -0.594598,-1.32291 -1.322917,-1.32291 z"
         id="path1453-5-8-5"
         inkscape:connector-curvature="0" />
      <path
         style="opacity:1;vector-effect:none;fill:#f78f8f;fill-opacity:1;stroke:none;stroke-width:0.52916664;stroke-linecap:round;stroke-linejoin:round;stroke-miterlimit:4;stroke-dasharray:none;stroke-dashoffset:0;stroke-opacity:1"
         d="M 0.79374994,287.2104 H 5.5562498 c 1.3229167,0 1.5875,-2.11666 2.38125,-2.11666 h 7.1437492 c 0.586317,0 1.058334,0.47201 1.058334,1.05833 v 11.11251 c 0,0.58632 -0.472017,1.05833 -1.058334,1.05833 H 0.79374994 c -0.58631661,0 -1.05833327,-0.47201 -1.05833327,-1.05833 v -8.99584 c 0,-0.58632 0.47201666,-1.05834 1.05833327,-1.05834 z"
         id="rect1374-4-4-87-9-9"
         inkscape:connector-curvature="0"
         sodipodi:nodetypes="sccssssssss" />
    </g>
  </g>
</svg>
