<?xml version="1.0" encoding="UTF-8" standalone="no"?>
<!-- Created with Inkscape (http://www.inkscape.org/) -->

<svg
   xmlns:dc="http://purl.org/dc/elements/1.1/"
   xmlns:cc="http://creativecommons.org/ns#"
   xmlns:rdf="http://www.w3.org/1999/02/22-rdf-syntax-ns#"
   xmlns:svg="http://www.w3.org/2000/svg"
   xmlns="http://www.w3.org/2000/svg"
   xmlns:sodipodi="http://sodipodi.sourceforge.net/DTD/sodipodi-0.dtd"
   xmlns:inkscape="http://www.inkscape.org/namespaces/inkscape"
   width="64"
   height="64"
   viewBox="0 0 16.933333 16.933333"
   version="1.1"
   id="svg8"
   inkscape:version="0.92.3 (2405546, 2018-03-11)"
   sodipodi:docname="folder-decrypted.svg">
  <defs
     id="defs2" />
  <sodipodi:namedview
     id="base"
     pagecolor="#ffffff"
     bordercolor="#666666"
     borderopacity="1.0"
     inkscape:pageopacity="0.0"
     inkscape:pageshadow="2"
     inkscape:zoom="11.2"
     inkscape:cx="11.774357"
     inkscape:cy="29.512999"
     inkscape:document-units="px"
     inkscape:current-layer="layer1"
     showgrid="true"
     units="px"
     inkscape:showpageshadow="false"
     inkscape:snap-bbox="true"
     inkscape:bbox-paths="true"
     inkscape:bbox-nodes="true"
     inkscape:snap-bbox-edge-midpoints="true"
     inkscape:snap-bbox-midpoints="true"
     inkscape:object-paths="true"
     inkscape:snap-intersection-paths="true"
     inkscape:window-width="1874"
     inkscape:window-height="1141"
     inkscape:window-x="46"
     inkscape:window-y="30"
     inkscape:window-maximized="1">
    <inkscape:grid
       type="xygrid"
       id="grid815" />
  </sodipodi:namedview>
  <metadata
     id="metadata5">
    <rdf:RDF>
      <cc:Work
         rdf:about="">
        <dc:format>image/svg+xml</dc:format>
        <dc:type
           rdf:resource="http://purl.org/dc/dcmitype/StillImage" />
        <dc:title></dc:title>
      </cc:Work>
    </rdf:RDF>
  </metadata>
  <g
     inkscape:label="Capa 1"
     inkscape:groupmode="layer"
     id="layer1"
     transform="translate(0,-280.06666)">
    <g
       id="g12120"
       transform="translate(6.1004819,-0.5419935)">
      <path
         inkscape:connector-curvature="0"
         id="path1475-2"
         d="m -4.7775653,281.13782 c -0.7283192,0 -1.3229166,0.5946 -1.3229166,1.32292 v 13.22916 c 0,0.72832 0.5945974,1.32292 1.3229166,1.32292 H 9.5099341 c 0.7283199,0 1.3229169,-0.5946 1.3229169,-1.32292 v -11.1125 c 0,-0.72832 -0.594597,-1.32291 -1.3229169,-1.32291 H 2.3661846 c -0.080845,0 -0.1771446,-0.058 -0.313676,-0.23048 -0.1365313,-0.17246 -0.2841529,-0.43253 -0.4537191,-0.70383 -0.1695662,-0.27131 -0.3624143,-0.55584 -0.61960042,-0.78445 -0.2571854,-0.22861 -0.5929697,-0.39791 -0.9942545,-0.39791 z"
         style="color:#000000;font-style:normal;font-variant:normal;font-weight:normal;font-stretch:normal;font-size:medium;line-height:normal;font-family:sans-serif;font-variant-ligatures:normal;font-variant-position:normal;font-variant-caps:normal;font-variant-numeric:normal;font-variant-alternates:normal;font-feature-settings:normal;text-indent:0;text-align:start;text-decoration:none;text-decoration-line:none;text-decoration-style:solid;text-decoration-color:#000000;letter-spacing:normal;word-spacing:normal;text-transform:none;writing-mode:lr-tb;direction:ltr;text-orientation:mixed;dominant-baseline:auto;baseline-shift:baseline;text-anchor:start;white-space:normal;shape-padding:0;clip-rule:nonzero;display:inline;overflow:visible;visibility:visible;opacity:1;isolation:auto;mix-blend-mode:normal;color-interpolation:sRGB;color-interpolation-filters:linearRGB;solid-color:#000000;solid-opacity:1;vector-effect:none;fill:#36404d;fill-opacity:1;fill-rule:nonzero;stroke:none;stroke-width:0.52916664;stroke-linecap:round;stroke-linejoin:round;stroke-miterlimit:4;stroke-dasharray:none;stroke-dashoffset:0;stroke-opacity:1;color-rendering:auto;image-rendering:auto;shape-rendering:auto;text-rendering:auto;enable-background:accumulate" />
      <path
         sodipodi:nodetypes="sccssssssss"
         inkscape:connector-curvature="0"
         id="rect1374-3-15"
         d="m -4.7775653,281.4024 h 4.76249968 c 1.32291662,0 1.58750052,2.11667 2.38125052,2.11667 h 7.1437492 c 0.5863169,0 1.0583339,0.47201 1.0583339,1.05833 v 11.1125 c 0,0.58632 -0.472017,1.05833 -1.0583339,1.05833 H -4.7775653 c -0.5863166,0 -1.0583333,-0.47201 -1.0583333,-1.05833 v -13.22917 c 0,-0.58631 0.4720167,-1.05833 1.0583333,-1.05833 z"
         style="opacity:1;vector-effect:none;fill:#4b6477;fill-opacity:1;stroke:none;stroke-width:0.52916664;stroke-linecap:round;stroke-linejoin:round;stroke-miterlimit:4;stroke-dasharray:none;stroke-dashoffset:0;stroke-opacity:1" />
      <path
         inkscape:connector-curvature="0"
         id="path1453-99"
         d="m 2.3661846,283.25449 c -0.31603,0 -0.5504595,0.20656 -0.7281209,0.43098 -0.1776613,0.22441 -0.327696,0.49351 -0.488859,0.75137 -0.16116302,0.25786 -0.33211692,0.5025 -0.52141512,0.67076 -0.1892988,0.16827 -0.3826814,0.26355 -0.642855,0.26355 H -4.7775653 c -0.7283192,0 -1.3229166,0.5946 -1.3229166,1.32292 v 8.99583 c 0,0.72832 0.5945974,1.32292 1.3229166,1.32292 H 9.5099341 c 0.7283199,0 1.3229169,-0.5946 1.3229169,-1.32292 v -11.1125 c 0,-0.72832 -0.594597,-1.32291 -1.3229169,-1.32291 z"
         style="color:#000000;font-style:normal;font-variant:normal;font-weight:normal;font-stretch:normal;font-size:medium;line-height:normal;font-family:sans-serif;font-variant-ligatures:normal;font-variant-position:normal;font-variant-caps:normal;font-variant-numeric:normal;font-variant-alternates:normal;font-feature-settings:normal;text-indent:0;text-align:start;text-decoration:none;text-decoration-line:none;text-decoration-style:solid;text-decoration-color:#000000;letter-spacing:normal;word-spacing:normal;text-transform:none;writing-mode:lr-tb;direction:ltr;text-orientation:mixed;dominant-baseline:auto;baseline-shift:baseline;text-anchor:start;white-space:normal;shape-padding:0;clip-rule:nonzero;display:inline;overflow:visible;visibility:visible;opacity:1;isolation:auto;mix-blend-mode:normal;color-interpolation:sRGB;color-interpolation-filters:linearRGB;solid-color:#000000;solid-opacity:1;vector-effect:none;fill:#36404d;fill-opacity:1;fill-rule:nonzero;stroke:none;stroke-width:0.52916664;stroke-linecap:round;stroke-linejoin:round;stroke-miterlimit:4;stroke-dasharray:none;stroke-dashoffset:0;stroke-opacity:1;color-rendering:auto;image-rendering:auto;shape-rendering:auto;text-rendering:auto;enable-background:accumulate" />
      <path
         sodipodi:nodetypes="sccssssssss"
         inkscape:connector-curvature="0"
         id="rect1374-4-4-1"
         d="m -4.7775653,285.63573 h 4.76249968 c 1.32291662,0 1.58750052,-2.11666 2.38125052,-2.11666 h 7.1437492 c 0.5863169,0 1.0583339,0.47201 1.0583339,1.05833 v 11.1125 c 0,0.58632 -0.472017,1.05833 -1.0583339,1.05833 H -4.7775653 c -0.5863166,0 -1.0583332,-0.47201 -1.0583332,-1.05833 v -8.99583 c 0,-0.58632 0.4720166,-1.05834 1.0583332,-1.05834 z"
         style="opacity:1;vector-effect:none;fill:#4b6477;fill-opacity:1;stroke:none;stroke-width:0.52916664;stroke-linecap:round;stroke-linejoin:round;stroke-miterlimit:4;stroke-dasharray:none;stroke-dashoffset:0;stroke-opacity:1" />
      <path
         id="path4466"
         d="m 2.3662642,287.7525 c -0.9321059,0 -1.66620822,0.69344 -1.79885702,1.5875 H 1.3611572 c 0.1193138,-0.4539 0.512736,-0.79375 1.005107,-0.79375 0.5863167,0 1.0583334,0.47202 1.0583334,1.05833 v 0.52917 H 1.5725143 1.3079309 0.51418088 0.24959758 c -0.1465791,0 -0.2645833,0.118 -0.2645833,0.26458 v 3.43959 c 0,0.14658 0.1180042,0.26458 0.2645833,0.26458 H 3.1600142 v -0.52917 h 0.5291667 v -0.52916 H 3.1600142 V 292.515 h 0.5291667 v -0.52917 h 0.5291662 v -0.52916 h 0.529167 v -1.05834 c 0,-0.14658 -0.118004,-0.26458 -0.264583,-0.26458 h -0.264584 v -0.52917 c 0,-1.02605 -0.8260287,-1.85208 -1.8520829,-1.85208 z m 1.8520829,4.23333 v 0.52917 h 0.529167 v -0.52917 z m 0,0.52917 H 3.6891809 v 0.52917 h 0.5291662 z m 0,0.52917 v 0.52916 h 0.529167 v -0.52916 z m 0,0.52916 H 3.6891809 v 0.52917 h 0.5291662 z m -1.8794725,-2.38125 h 0.054779 c 0.2781062,0 0.501777,0.22368 0.501777,0.50178 v 0.0548 c 0,0.19149 -0.1076828,0.35507 -0.2645833,0.43977 v 0.85576 c 0,0.14658 -0.1180042,0.26458 -0.2645834,0.26458 -0.1465791,0 -0.2645833,-0.118 -0.2645833,-0.26458 v -0.85576 c -0.1569005,-0.0847 -0.2645833,-0.24828 -0.2645833,-0.43977 v -0.0548 c 0,-0.2781 0.2236708,-0.50178 0.5017773,-0.50178 z"
         style="opacity:1;fill:#dbdfe4;fill-opacity:1;stroke:none;stroke-width:1.05833328;stroke-linecap:round;stroke-linejoin:round;stroke-miterlimit:4;stroke-dasharray:none;stroke-dashoffset:0;stroke-opacity:1"
         inkscape:connector-curvature="0" />
    </g>
  </g>
</svg>
