<?xml version="1.0" encoding="UTF-8" standalone="no"?>
<!-- Created with Inkscape (http://www.inkscape.org/) -->

<svg
   width="64"
   height="64"
   viewBox="0 0 16.933333 16.933333"
   version="1.1"
   id="svg1399"
   inkscape:version="1.2 (dc2aedaf03, 2022-05-15)"
   sodipodi:docname="folder-torrents.svg"
   xmlns:inkscape="http://www.inkscape.org/namespaces/inkscape"
   xmlns:sodipodi="http://sodipodi.sourceforge.net/DTD/sodipodi-0.dtd"
   xmlns:xlink="http://www.w3.org/1999/xlink"
   xmlns="http://www.w3.org/2000/svg"
   xmlns:svg="http://www.w3.org/2000/svg"
   xmlns:rdf="http://www.w3.org/1999/02/22-rdf-syntax-ns#"
   xmlns:cc="http://creativecommons.org/ns#"
   xmlns:dc="http://purl.org/dc/elements/1.1/">
  <defs
     id="defs1393">
    <linearGradient
       inkscape:collect="always"
       xlink:href="#linearGradient10239"
       id="linearGradient940"
       x1="18"
       y1="361.64999"
       x2="18"
       y2="346.64999"
       gradientUnits="userSpaceOnUse" />
    <linearGradient
       id="linearGradient10239"
       inkscape:collect="always">
      <stop
         id="stop10235"
         offset="0"
         style="stop-color:#4ea0ee;stop-opacity:1;" />
      <stop
         id="stop10237"
         offset="1"
         style="stop-color:#2484e6;stop-opacity:1;" />
    </linearGradient>
  </defs>
  <sodipodi:namedview
     id="base"
     pagecolor="#ffffff"
     bordercolor="#666666"
     borderopacity="1.0"
     inkscape:pageopacity="0.0"
     inkscape:pageshadow="2"
     inkscape:zoom="7.9195959"
     inkscape:cx="-17.930208"
     inkscape:cy="19.63484"
     inkscape:document-units="px"
     inkscape:current-layer="layer1"
     showgrid="false"
     inkscape:showpageshadow="false"
     units="px"
     inkscape:window-width="2160"
     inkscape:window-height="1337"
     inkscape:window-x="0"
     inkscape:window-y="0"
     inkscape:window-maximized="1"
     inkscape:pagecheckerboard="0"
     inkscape:deskcolor="#d1d1d1" />
  <metadata
     id="metadata1396">
    <rdf:RDF>
      <cc:Work
         rdf:about="">
        <dc:format>image/svg+xml</dc:format>
        <dc:type
           rdf:resource="http://purl.org/dc/dcmitype/StillImage" />
        <dc:title />
      </cc:Work>
    </rdf:RDF>
  </metadata>
  <g
     inkscape:label="Capa 1"
     inkscape:groupmode="layer"
     id="layer1"
     transform="translate(0,-280.06672)">
    <g
       id="g87068"
       transform="matrix(0.26458333,0,0,0.26458333,-5.9999999e-8,213.74891)">
      <g
         transform="translate(-6,-93.00001)"
         id="g1529">
        <path
           inkscape:connector-curvature="0"
           id="path1475"
           d="m 12,345.65 c -4,0 -6,3 -6,6 v 49 c 0,2.75269 2.2472973,5 5,5 h 54 c 2.752703,0 5,-2.24731 5,-5 v -42 c 0,-2.75271 -2.247297,-5 -5,-5 H 38 c -0.305556,0 -0.669523,-0.21927 -1.185547,-0.87109 -0.516024,-0.65182 -1.073964,-1.63475 -1.714844,-2.66016 -0.64088,-1.02541 -1.369755,-2.1008 -2.341797,-2.96484 C 31.785773,346.28987 30.516667,345.65 29,345.65 Z"
           style="color:#000000;font-style:normal;font-variant:normal;font-weight:normal;font-stretch:normal;font-size:medium;line-height:normal;font-family:sans-serif;font-variant-ligatures:normal;font-variant-position:normal;font-variant-caps:normal;font-variant-numeric:normal;font-variant-alternates:normal;font-feature-settings:normal;text-indent:0;text-align:start;text-decoration:none;text-decoration-line:none;text-decoration-style:solid;text-decoration-color:#000000;letter-spacing:normal;word-spacing:normal;text-transform:none;writing-mode:lr-tb;direction:ltr;text-orientation:mixed;dominant-baseline:auto;baseline-shift:baseline;text-anchor:start;white-space:normal;shape-padding:0;clip-rule:nonzero;display:inline;overflow:visible;visibility:visible;opacity:1;isolation:auto;mix-blend-mode:normal;color-interpolation:sRGB;color-interpolation-filters:linearRGB;solid-color:#000000;solid-opacity:1;vector-effect:none;fill:#286bb2;fill-opacity:1;fill-rule:nonzero;stroke:none;stroke-width:2;stroke-linecap:round;stroke-linejoin:round;stroke-miterlimit:4;stroke-dasharray:none;stroke-dashoffset:0;stroke-opacity:1;color-rendering:auto;image-rendering:auto;shape-rendering:auto;text-rendering:auto;enable-background:accumulate"
           sodipodi:nodetypes="ssssssssssssss" />
        <path
           sodipodi:nodetypes="sccssssssss"
           inkscape:connector-curvature="0"
           id="rect1374-3"
           d="m 12,346.64999 h 16.999999 c 5,0 6.000002,8 9.000002,8 H 65 c 2.216,0 4,1.784 4,4 v 42 c 0,2.216 -1.784,4 -4,4 H 11 c -2.2159999,0 -3.9999999,-1.784 -3.9999999,-4 l 3e-7,-48.97939 C 7.0000004,348.65 9,346.64999 12,346.64999 Z"
           style="opacity:1;vector-effect:none;fill:url(#linearGradient940);fill-opacity:1;stroke:none;stroke-width:2;stroke-linecap:round;stroke-linejoin:round;stroke-miterlimit:4;stroke-dasharray:none;stroke-dashoffset:0;stroke-opacity:1" />
        <path
           inkscape:connector-curvature="0"
           id="path1453"
           d="m 38,353.65 c -1.194444,0 -2.080477,0.78073 -2.751953,1.62891 -0.671476,0.84818 -1.238536,1.86525 -1.847656,2.83984 -0.60912,0.97459 -1.255245,1.8992 -1.970703,2.53516 C 30.714228,361.28987 29.983333,361.65 29,361.65 H 11 c -2.7527027,0 -5,2.24729 -5,5 v 34 c 0,2.75269 2.2472973,5 5,5 h 54 c 2.752703,0 5,-2.24731 5,-5 v -42 c 0,-2.75271 -2.247297,-5 -5,-5 z"
           style="color:#000000;font-style:normal;font-variant:normal;font-weight:normal;font-stretch:normal;font-size:medium;line-height:normal;font-family:sans-serif;font-variant-ligatures:normal;font-variant-position:normal;font-variant-caps:normal;font-variant-numeric:normal;font-variant-alternates:normal;font-feature-settings:normal;text-indent:0;text-align:start;text-decoration:none;text-decoration-line:none;text-decoration-style:solid;text-decoration-color:#000000;letter-spacing:normal;word-spacing:normal;text-transform:none;writing-mode:lr-tb;direction:ltr;text-orientation:mixed;dominant-baseline:auto;baseline-shift:baseline;text-anchor:start;white-space:normal;shape-padding:0;clip-rule:nonzero;display:inline;overflow:visible;visibility:visible;opacity:1;isolation:auto;mix-blend-mode:normal;color-interpolation:sRGB;color-interpolation-filters:linearRGB;solid-color:#000000;solid-opacity:1;vector-effect:none;fill:#3182d9;fill-opacity:1;fill-rule:nonzero;stroke:none;stroke-width:2;stroke-linecap:round;stroke-linejoin:round;stroke-miterlimit:4;stroke-dasharray:none;stroke-dashoffset:0;stroke-opacity:1;color-rendering:auto;image-rendering:auto;shape-rendering:auto;text-rendering:auto;enable-background:accumulate" />
        <path
           sodipodi:nodetypes="sccssssssss"
           inkscape:connector-curvature="0"
           id="rect1374-4-4"
           d="m 11,362.64999 h 17.999999 c 5,0 6.000002,-8 9.000002,-8 H 65 c 2.216,0 4,1.784 4,4 v 42 c 0,2.216 -1.784,4 -4,4 H 11 c -2.2159999,0 -3.9999996,-1.784 -3.9999996,-4 v -34 c 0,-2.216 1.7839997,-4 3.9999996,-4 z"
           style="opacity:1;vector-effect:none;fill:#50c1f9;fill-opacity:1;stroke:none;stroke-width:2;stroke-linecap:round;stroke-linejoin:round;stroke-miterlimit:4;stroke-dasharray:none;stroke-dashoffset:0;stroke-opacity:1" />
      </g>
    </g>
    <path
       style="vector-effect:none;fill:#ddf3ff;fill-opacity:1;stroke:none;stroke-width:0.529167;stroke-linecap:round;stroke-linejoin:round;stroke-miterlimit:4;stroke-dasharray:none;stroke-dashoffset:0;stroke-opacity:1;paint-order:normal"
       d="m 9.3105315,287.74016 c -0.9295474,-0.0137 -1.8250664,0.3494 -2.4825361,1.00665 -0.9836423,0.98385 -1.2777494,2.46336 -0.7451752,3.74861 0.5323348,1.28526 1.7864489,2.1233 3.1775847,2.12339 h 7.4083441 v -0.52917 H 9.2604049 c -0.096987,2e-5 -0.1939153,-0.005 -0.2904212,-0.0145 -0.09661,-0.01 -0.1926762,-0.0242 -0.2878387,-0.0434 -0.095026,-0.0194 -0.1890215,-0.0435 -0.2816359,-0.0723 -0.092729,-0.0287 -0.1839664,-0.062 -0.2733691,-0.0997 -0.089379,-0.0376 -0.1768211,-0.0797 -0.2619992,-0.12609 -0.085174,-0.0466 -0.167959,-0.0975 -0.2480466,-0.15245 -0.080048,-0.0547 -0.1573146,-0.11331 -0.2315109,-0.1757 -0.074234,-0.0625 -0.1452914,-0.12878 -0.2129065,-0.19843 -0.067685,-0.0696 -0.131844,-0.14257 -0.1922373,-0.2186 -0.060236,-0.076 -0.1166336,-0.15501 -0.1689811,-0.23667 -0.052402,-0.0816 -0.1006944,-0.16577 -0.144694,-0.25218 -0.034377,-0.0676 -0.066096,-0.1366 -0.095084,-0.20671 -0.0371,-0.0896 -0.069696,-0.18102 -0.097669,-0.27389 -0.028113,-0.0928 -0.051569,-0.18698 -0.07028,-0.28215 -0.018584,-0.0954 -0.032383,-0.19161 -0.041341,-0.28835 -0.00897,-0.0965 -0.013113,-0.19347 -0.012406,-0.29042 6.615e-4,-0.097 0.00618,-0.19396 0.016536,-0.29043 0.010533,-0.0965 0.025879,-0.19237 0.045992,-0.28732 0.019918,-0.0951 0.044581,-0.18905 0.073898,-0.28163 0.029376,-0.0924 0.063353,-0.18331 0.1018022,-0.27234 0.038345,-0.0891 0.081117,-0.17617 0.1281581,-0.26096 0.047179,-0.0849 0.098575,-0.1673 0.1539949,-0.24702 0.055374,-0.0797 0.1147053,-0.15666 0.1777677,-0.23047 0.049319,-0.0575 0.1008621,-0.11297 0.1545116,-0.1664 0.06853,-0.0687 0.1404496,-0.13386 0.215491,-0.19534 0.075106,-0.0614 0.1532355,-0.119 0.2340951,-0.1726 0.080848,-0.0536 0.1643242,-0.10307 0.2501141,-0.14831 0.085914,-0.0454 0.1740455,-0.0864 0.2640655,-0.12299 0.089818,-0.0364 0.1813999,-0.0683 0.2744025,-0.0956 0.093207,-0.0273 0.1877211,-0.0499 0.2831868,-0.0677 0.095403,-0.0179 0.1916422,-0.031 0.2883553,-0.0393 0.096575,-0.008 0.1935028,-0.0117 0.2904215,-0.0103 0.097057,0.001 0.1939843,0.008 0.2904215,0.0186 0.096334,0.0111 0.1920549,0.0269 0.2868046,0.0475 0.094916,0.0206 0.1887402,0.046 0.2811202,0.076 0.07197,0.0236 0.142993,0.05 0.212906,0.0791 0.0897,0.0371 0.177488,0.0787 0.263035,0.12454 0.08548,0.0459 0.168613,0.0961 0.24908,0.15038 0.08054,0.0541 0.158326,0.11225 0.233062,0.17415 0.07455,0.062 0.145951,0.12773 0.21394,0.19688 0.06817,0.0691 0.13285,0.14151 0.193787,0.21704 0.06091,0.0756 0.117999,0.1543 0.171048,0.23565 0.0529,0.0812 0.101708,0.16505 0.146245,0.25115 0.04469,0.0861 0.08505,0.17442 0.120923,0.26458 0.03592,0.0902 0.06731,0.18211 0.09405,0.27544 0.02658,0.0932 0.04848,0.18775 0.06563,0.28318 0.01721,0.0956 0.02963,0.19202 0.03721,0.28887 0.0059,0.0755 0.0088,0.15116 0.0088,0.22686 h 0.529167 c -8.5e-5,-1.39113 -0.838133,-2.64525 -2.123387,-3.17758 -0.401704,-0.1664 -0.8313157,-0.25513 -1.2660742,-0.26148 z m -0.011366,0.79375 c -0.7150094,-0.0104 -1.4037945,0.26899 -1.9094449,0.77463 -0.7565668,0.75662 -0.9829496,1.89444 -0.5736096,2.88302 0.409452,0.98871 1.3741641,1.63341 2.4442976,1.6335 h 7.4083434 v -0.52917 H 9.2604088 c -0.070581,8e-5 -0.1411213,-0.003 -0.2113571,-0.0103 -0.070254,-0.007 -0.1401048,-0.0179 -0.2092899,-0.032 -0.069039,-0.014 -0.1373367,-0.0314 -0.2046393,-0.0522 -0.067484,-0.0208 -0.1338855,-0.0449 -0.1989553,-0.0723 -0.065057,-0.0275 -0.128697,-0.0582 -0.1906854,-0.092 -0.061923,-0.0338 -0.1221148,-0.0707 -0.1803506,-0.11059 -0.058257,-0.0399 -0.1144831,-0.0827 -0.1684658,-0.12815 -0.053872,-0.0455 -0.1054409,-0.0936 -0.1545116,-0.14418 -0.04931,-0.0507 -0.09605,-0.10381 -0.1400435,-0.15917 -0.043838,-0.0553 -0.084886,-0.1127 -0.1229894,-0.17208 -0.038,-0.0594 -0.073011,-0.12059 -0.1049033,-0.18345 -0.025035,-0.0492 -0.048135,-0.0994 -0.069246,-0.15038 -0.02707,-0.0651 -0.05087,-0.13149 -0.071314,-0.19895 -0.020304,-0.0677 -0.037205,-0.13631 -0.050643,-0.20567 -0.01347,-0.0692 -0.023474,-0.13908 -0.029972,-0.20929 -0.00661,-0.0703 -0.00973,-0.1408 -0.00929,-0.21136 6.614e-4,-0.0706 0.00475,-0.14116 0.012406,-0.21136 0.00754,-0.0701 0.018579,-0.13977 0.033073,-0.20877 0.014491,-0.0691 0.03243,-0.13736 0.053745,-0.20464 0.021307,-0.0673 0.045969,-0.13356 0.073897,-0.19844 0.027999,-0.0647 0.059215,-0.12803 0.093534,-0.18965 0.0342,-0.0616 0.071453,-0.12144 0.1116214,-0.17932 0.040401,-0.0581 0.083691,-0.11416 0.1297085,-0.16794 0.035794,-0.0417 0.073202,-0.0821 0.1121371,-0.12093 0.049793,-0.05 0.1020519,-0.0974 0.1565801,-0.14211 0.054713,-0.0447 0.111628,-0.0866 0.1705319,-0.12557 0.058796,-0.039 0.1195057,-0.0751 0.1819013,-0.10801 0.062376,-0.033 0.1263642,-0.0628 0.1917205,-0.0894 0.065466,-0.0264 0.1322123,-0.0495 0.1999874,-0.0692 0.067688,-0.02 0.1363319,-0.0365 0.2056734,-0.0496 0.069418,-0.013 0.1394404,-0.0225 0.2098066,-0.0284 0.070279,-0.006 0.1408192,-0.009 0.2113558,-0.008 0.070469,0.001 0.1408364,0.006 0.2108406,0.014 0.070125,0.008 0.1398024,0.0196 0.2087729,0.0346 0.068919,0.015 0.1370449,0.0335 0.2041213,0.0553 0.052405,0.0171 0.1041206,0.0362 0.1550306,0.0574 0.0652,0.0269 0.129015,0.0571 0.191202,0.0904 0.06225,0.0335 0.122791,0.07 0.181385,0.10956 0.05857,0.0394 0.115146,0.0816 0.169499,0.1266 0.0542,0.0451 0.106113,0.0929 0.155546,0.14315 0.04964,0.0503 0.09672,0.1031 0.141077,0.15813 0.04416,0.0549 0.08556,0.112 0.124023,0.17105 0.03867,0.059 0.07438,0.11986 0.106971,0.18242 0.03248,0.0627 0.0618,0.12707 0.08785,0.19275 0.02607,0.0657 0.04884,0.13257 0.06821,0.2005 0.01926,0.0677 0.03513,0.13637 0.04754,0.20567 0.01262,0.0694 0.02176,0.13946 0.02739,0.20981 0.0042,0.055 0.0063,0.11018 0.0062,0.16537 h 0.529167 c -8.4e-5,-1.07014 -0.644789,-2.03485 -1.633493,-2.4443 -0.3089106,-0.12792 -0.6392699,-0.19613 -0.9735841,-0.20102 z m -0.011888,0.79323 c -0.5004702,-0.007 -0.9825209,0.18859 -1.3363535,0.5426 -0.5297493,0.5297 -0.6882265,1.32637 -0.4015259,2.01848 0.2867293,0.69196 0.9620028,1.14309 1.7110078,1.14309 H 16.66875 v -0.52917 H 9.2604075 c -0.044182,-3e-5 -0.088334,-0.002 -0.1322916,-0.007 -0.04388,-0.004 -0.087515,-0.0109 -0.1307412,-0.0196 -0.043236,-0.009 -0.086009,-0.0196 -0.1281584,-0.0326 -0.042073,-0.0131 -0.083465,-0.0283 -0.1240232,-0.0455 -0.040548,-0.0171 -0.080216,-0.0363 -0.1188561,-0.0574 -0.038683,-0.0212 -0.076281,-0.0443 -0.1126548,-0.0692 -0.036455,-0.0249 -0.071639,-0.0517 -0.1054203,-0.0801 -0.033687,-0.0283 -0.065939,-0.0584 -0.096635,-0.0899 -0.030759,-0.0318 -0.059907,-0.065 -0.087333,-0.0997 -0.027442,-0.0345 -0.053139,-0.0704 -0.076998,-0.10749 -0.023775,-0.0371 -0.045678,-0.0754 -0.065629,-0.11472 -0.015679,-0.0306 -0.03016,-0.0618 -0.043408,-0.0935 -0.01688,-0.0407 -0.031714,-0.0823 -0.044442,-0.12454 -0.012824,-0.0423 -0.023516,-0.0853 -0.032039,-0.12867 -0.00837,-0.0433 -0.014584,-0.0869 -0.018605,-0.13074 -0.0041,-0.044 -0.006,-0.0881 -0.00569,-0.1323 3.968e-4,-0.044 0.00297,-0.088 0.00775,-0.13177 0.0047,-0.0439 0.011599,-0.0875 0.020672,-0.13074 0.00906,-0.0431 0.020275,-0.0857 0.033589,-0.12764 0.013253,-0.0421 0.028603,-0.0835 0.045993,-0.12403 0.017468,-0.0406 0.036958,-0.0802 0.058394,-0.11885 0.021542,-0.0385 0.044997,-0.076 0.07028,-0.11214 0.025119,-0.0361 0.052025,-0.0709 0.080616,-0.10439 0.022426,-0.0262 0.045871,-0.0516 0.070279,-0.076 0.031224,-0.0312 0.063993,-0.0609 0.098185,-0.0889 0.034152,-0.028 0.069681,-0.0542 0.1064541,-0.0786 0.036754,-0.0243 0.074697,-0.0467 0.1136885,-0.0672 0.039007,-0.0206 0.07902,-0.0392 0.1198885,-0.0558 0.040766,-0.0165 0.082331,-0.031 0.1245402,-0.0434 0.042347,-0.0125 0.085293,-0.0228 0.1286751,-0.031 0.043423,-0.008 0.087231,-0.0143 0.1312579,-0.0181 0.04382,-0.004 0.0878,-0.005 0.1317749,-0.005 0.044217,6.6e-4 0.088369,0.004 0.132292,0.009 0.043743,0.005 0.087205,0.0123 0.1302255,0.0217 0.043098,0.009 0.085697,0.021 0.12764,0.0346 0.032837,0.0106 0.065246,0.0225 0.097152,0.0357 0.040703,0.0168 0.080544,0.0356 0.1193728,0.0563 0.038848,0.021 0.076619,0.0439 0.1131718,0.0687 0.036608,0.0246 0.071965,0.051 0.1059368,0.0791 0.03385,0.0282 0.06628,0.058 0.09715,0.0894 0.03109,0.0314 0.06058,0.0643 0.08837,0.0987 0.0276,0.0344 0.05347,0.07 0.07752,0.10697 0.02411,0.0369 0.04636,0.075 0.06666,0.11421 0.02025,0.0392 0.03854,0.0794 0.05478,0.1204 0.01637,0.0409 0.03069,0.0827 0.04289,0.12506 0.01212,0.0424 0.02213,0.0853 0.02997,0.12868 0.0077,0.0434 0.01322,0.0872 0.01654,0.13125 0.0027,0.0344 0.0041,0.0689 0.0041,0.10336 h 0.529167 c 2e-6,-0.74901 -0.451133,-1.42428 -1.1430837,-1.71101 -0.2164075,-0.0897 -0.4478769,-0.13762 -0.6821297,-0.14108 z"
       id="rect951"
       inkscape:connector-curvature="0"
       sodipodi:nodetypes="ccccccccccccccccccccccccccccccccccccccccccccccccccccccccccccccccccccccccccccccccccccccccccccccccccccccccccccccccccccccccccccccccccccccccccccccccccccccccccccccccccccccccccccccccc" />
  </g>
</svg>
