<?xml version="1.0" encoding="UTF-8" standalone="no"?>
<!-- Created with Inkscape (http://www.inkscape.org/) -->

<svg
   xmlns:dc="http://purl.org/dc/elements/1.1/"
   xmlns:cc="http://creativecommons.org/ns#"
   xmlns:rdf="http://www.w3.org/1999/02/22-rdf-syntax-ns#"
   xmlns:svg="http://www.w3.org/2000/svg"
   xmlns="http://www.w3.org/2000/svg"
   xmlns:sodipodi="http://sodipodi.sourceforge.net/DTD/sodipodi-0.dtd"
   xmlns:inkscape="http://www.inkscape.org/namespaces/inkscape"
   width="64"
   height="64"
   viewBox="0 0 16.933333 16.933333"
   version="1.1"
   id="svg8"
   inkscape:version="0.92.3 (2405546, 2018-03-11)"
   sodipodi:docname="folder-mail.svg">
  <defs
     id="defs2" />
  <sodipodi:namedview
     id="base"
     pagecolor="#ffffff"
     bordercolor="#666666"
     borderopacity="1.0"
     inkscape:pageopacity="0.0"
     inkscape:pageshadow="2"
     inkscape:zoom="4"
     inkscape:cx="21.58868"
     inkscape:cy="44.607569"
     inkscape:document-units="px"
     inkscape:current-layer="g7695"
     showgrid="false"
     units="px"
     inkscape:showpageshadow="false"
     inkscape:snap-bbox="true"
     inkscape:bbox-paths="true"
     inkscape:bbox-nodes="true"
     inkscape:snap-bbox-edge-midpoints="true"
     inkscape:snap-bbox-midpoints="true"
     inkscape:object-paths="true"
     inkscape:snap-intersection-paths="true"
     inkscape:window-width="1874"
     inkscape:window-height="1141"
     inkscape:window-x="46"
     inkscape:window-y="30"
     inkscape:window-maximized="1">
    <inkscape:grid
       type="xygrid"
       id="grid815" />
  </sodipodi:namedview>
  <metadata
     id="metadata5">
    <rdf:RDF>
      <cc:Work
         rdf:about="">
        <dc:format>image/svg+xml</dc:format>
        <dc:type
           rdf:resource="http://purl.org/dc/dcmitype/StillImage" />
        <dc:title></dc:title>
      </cc:Work>
    </rdf:RDF>
  </metadata>
  <g
     inkscape:label="Capa 1"
     inkscape:groupmode="layer"
     id="layer1"
     transform="translate(0,-280.06666)">
    <g
       id="g7695"
       transform="translate(5.2916668,3.9687465)">
      <path
         inkscape:connector-curvature="0"
         id="path1475-0"
         d="m -3.96875,276.62708 c -0.7283192,0 -1.3229166,0.5946 -1.3229166,1.32292 v 13.22916 c 0,0.72832 0.5945974,1.32292 1.3229166,1.32292 h 14.287499 c 0.72832,0 1.322917,-0.5946 1.322917,-1.32292 v -11.1125 c 0,-0.72832 -0.594597,-1.32291 -1.322917,-1.32291 H 3.1749999 c -0.080845,0 -0.1771446,-0.058 -0.313676,-0.23048 C 2.7247926,278.34081 2.577171,278.08074 2.4076048,277.80944 2.2380386,277.53813 2.0451905,277.2536 1.7880044,277.02499 1.530819,276.79638 1.1950347,276.62708 0.79374994,276.62708 Z"
         style="color:#000000;font-style:normal;font-variant:normal;font-weight:normal;font-stretch:normal;font-size:medium;line-height:normal;font-family:sans-serif;font-variant-ligatures:normal;font-variant-position:normal;font-variant-caps:normal;font-variant-numeric:normal;font-variant-alternates:normal;font-feature-settings:normal;text-indent:0;text-align:start;text-decoration:none;text-decoration-line:none;text-decoration-style:solid;text-decoration-color:#000000;letter-spacing:normal;word-spacing:normal;text-transform:none;writing-mode:lr-tb;direction:ltr;text-orientation:mixed;dominant-baseline:auto;baseline-shift:baseline;text-anchor:start;white-space:normal;shape-padding:0;clip-rule:nonzero;display:inline;overflow:visible;visibility:visible;opacity:1;isolation:auto;mix-blend-mode:normal;color-interpolation:sRGB;color-interpolation-filters:linearRGB;solid-color:#000000;solid-opacity:1;vector-effect:none;fill:#4f92db;fill-opacity:1;fill-rule:nonzero;stroke:none;stroke-width:0.52916664;stroke-linecap:round;stroke-linejoin:round;stroke-miterlimit:4;stroke-dasharray:none;stroke-dashoffset:0;stroke-opacity:1;color-rendering:auto;image-rendering:auto;shape-rendering:auto;text-rendering:auto;enable-background:accumulate" />
      <path
         sodipodi:nodetypes="sccssssssss"
         inkscape:connector-curvature="0"
         id="rect1374-3-2"
         d="m -3.96875,276.89166 h 4.76249974 c 1.32291656,0 1.58750046,2.11667 2.38125046,2.11667 h 7.1437488 c 0.586317,0 1.058334,0.47201 1.058334,1.05833 v 11.1125 c 0,0.58632 -0.472017,1.05833 -1.058334,1.05833 H -3.96875 c -0.5863166,0 -1.0583332,-0.47201 -1.0583332,-1.05833 v -13.22917 c 0,-0.58631 0.4720166,-1.05833 1.0583332,-1.05833 z"
         style="opacity:1;vector-effect:none;fill:#5abfff;fill-opacity:1;stroke:none;stroke-width:0.52916664;stroke-linecap:round;stroke-linejoin:round;stroke-miterlimit:4;stroke-dasharray:none;stroke-dashoffset:0;stroke-opacity:1" />
      <path
         inkscape:connector-curvature="0"
         id="path1453-10"
         d="m 3.1749999,278.74375 c -0.31603,0 -0.5504595,0.20656 -0.7281209,0.43098 -0.1776613,0.22441 -0.327696,0.49351 -0.488859,0.75137 -0.161163,0.25786 -0.3321169,0.5025 -0.5214151,0.67076 -0.1892988,0.16827 -0.3826814,0.26355 -0.64285496,0.26355 H -3.96875 c -0.7283192,0 -1.3229166,0.5946 -1.3229166,1.32292 v 8.99583 c 0,0.72832 0.5945974,1.32292 1.3229166,1.32292 h 14.287499 c 0.72832,0 1.322917,-0.5946 1.322917,-1.32292 v -11.1125 c 0,-0.72832 -0.594597,-1.32291 -1.322917,-1.32291 z"
         style="color:#000000;font-style:normal;font-variant:normal;font-weight:normal;font-stretch:normal;font-size:medium;line-height:normal;font-family:sans-serif;font-variant-ligatures:normal;font-variant-position:normal;font-variant-caps:normal;font-variant-numeric:normal;font-variant-alternates:normal;font-feature-settings:normal;text-indent:0;text-align:start;text-decoration:none;text-decoration-line:none;text-decoration-style:solid;text-decoration-color:#000000;letter-spacing:normal;word-spacing:normal;text-transform:none;writing-mode:lr-tb;direction:ltr;text-orientation:mixed;dominant-baseline:auto;baseline-shift:baseline;text-anchor:start;white-space:normal;shape-padding:0;clip-rule:nonzero;display:inline;overflow:visible;visibility:visible;opacity:1;isolation:auto;mix-blend-mode:normal;color-interpolation:sRGB;color-interpolation-filters:linearRGB;solid-color:#000000;solid-opacity:1;vector-effect:none;fill:#4f92db;fill-opacity:1;fill-rule:nonzero;stroke:none;stroke-width:0.52916664;stroke-linecap:round;stroke-linejoin:round;stroke-miterlimit:4;stroke-dasharray:none;stroke-dashoffset:0;stroke-opacity:1;color-rendering:auto;image-rendering:auto;shape-rendering:auto;text-rendering:auto;enable-background:accumulate" />
      <path
         sodipodi:nodetypes="sccssssssss"
         inkscape:connector-curvature="0"
         id="rect1374-4-4-51"
         d="m -3.96875,281.12499 h 4.76249974 c 1.32291656,0 1.58750046,-2.11666 2.38125046,-2.11666 h 7.1437488 c 0.586317,0 1.058334,0.47201 1.058334,1.05833 v 11.1125 c 0,0.58632 -0.472017,1.05833 -1.058334,1.05833 H -3.96875 c -0.5863166,0 -1.0583331,-0.47201 -1.0583331,-1.05833 v -8.99583 c 0,-0.58632 0.4720165,-1.05834 1.0583331,-1.05834 z"
         style="opacity:1;vector-effect:none;fill:#5abfff;fill-opacity:1;stroke:none;stroke-width:0.52916664;stroke-linecap:round;stroke-linejoin:round;stroke-miterlimit:4;stroke-dasharray:none;stroke-dashoffset:0;stroke-opacity:1" />
      <path
         sodipodi:nodetypes="ccccccc"
         style="fill:#dcf2ff;fill-opacity:1;stroke:none;stroke-width:0.52916676px;stroke-linecap:butt;stroke-linejoin:miter;stroke-opacity:1"
         d="M -0.79374976,288.79793 H 1.5875002 l 1.5874997,1.85208 1.5874995,-1.85208 h 2.38125 l -3.9687495,-6.35 z"
         id="path4503"
         inkscape:connector-curvature="0" />
      <path
         style="fill:#4f92db;fill-opacity:0.22009569;stroke:none;stroke-width:0.52916676px;stroke-linecap:butt;stroke-linejoin:miter;stroke-opacity:1"
         d="m 3.1749999,290.65001 v -5.55626 l -1.5874997,3.70418 z"
         id="path4505"
         inkscape:connector-curvature="0"
         sodipodi:nodetypes="cccc" />
      <path
         style="fill:#4f92db;fill-opacity:0.43062201;stroke:none;stroke-width:0.52916676px;stroke-linecap:butt;stroke-linejoin:miter;stroke-opacity:1"
         d="m 3.1749999,290.65001 v -5.55626 l 1.5874995,3.70418 z"
         id="path4505-3"
         inkscape:connector-curvature="0"
         sodipodi:nodetypes="cccc" />
    </g>
  </g>
</svg>
