<?xml version="1.0" encoding="UTF-8" standalone="no"?>
<!-- Created with Inkscape (http://www.inkscape.org/) -->

<svg
   xmlns:dc="http://purl.org/dc/elements/1.1/"
   xmlns:cc="http://creativecommons.org/ns#"
   xmlns:rdf="http://www.w3.org/1999/02/22-rdf-syntax-ns#"
   xmlns:svg="http://www.w3.org/2000/svg"
   xmlns="http://www.w3.org/2000/svg"
   xmlns:sodipodi="http://sodipodi.sourceforge.net/DTD/sodipodi-0.dtd"
   xmlns:inkscape="http://www.inkscape.org/namespaces/inkscape"
   width="64"
   height="64"
   viewBox="0 0 16.933333 16.933333"
   version="1.1"
   id="svg8"
   inkscape:version="0.92.3 (2405546, 2018-03-11)"
   sodipodi:docname="folder-publicshare.svg">
  <defs
     id="defs2" />
  <sodipodi:namedview
     id="base"
     pagecolor="#ffffff"
     bordercolor="#666666"
     borderopacity="1.0"
     inkscape:pageopacity="0.0"
     inkscape:pageshadow="2"
     inkscape:zoom="11.2"
     inkscape:cx="11.774357"
     inkscape:cy="29.512999"
     inkscape:document-units="px"
     inkscape:current-layer="layer1"
     showgrid="true"
     units="px"
     inkscape:showpageshadow="false"
     inkscape:snap-bbox="true"
     inkscape:bbox-paths="true"
     inkscape:bbox-nodes="true"
     inkscape:snap-bbox-edge-midpoints="true"
     inkscape:snap-bbox-midpoints="true"
     inkscape:object-paths="true"
     inkscape:snap-intersection-paths="true"
     inkscape:window-width="1874"
     inkscape:window-height="1141"
     inkscape:window-x="46"
     inkscape:window-y="30"
     inkscape:window-maximized="1">
    <inkscape:grid
       type="xygrid"
       id="grid815" />
  </sodipodi:namedview>
  <metadata
     id="metadata5">
    <rdf:RDF>
      <cc:Work
         rdf:about="">
        <dc:format>image/svg+xml</dc:format>
        <dc:type
           rdf:resource="http://purl.org/dc/dcmitype/StillImage" />
        <dc:title></dc:title>
      </cc:Work>
    </rdf:RDF>
  </metadata>
  <g
     inkscape:label="Capa 1"
     inkscape:groupmode="layer"
     id="layer1"
     transform="translate(0,-280.06666)">
    <g
       id="g12056"
       transform="translate(-2.6504848,3.1749965)">
      <path
         inkscape:connector-curvature="0"
         id="path1475-96"
         d="m 3.9734013,277.42083 c -0.7283192,0 -1.3229166,0.5946 -1.3229166,1.32292 v 13.22916 c 0,0.72832 0.5945974,1.32292 1.3229166,1.32292 H 18.260901 c 0.72832,0 1.322917,-0.5946 1.322917,-1.32292 v -11.1125 c 0,-0.72832 -0.594597,-1.32291 -1.322917,-1.32291 h -7.14375 c -0.08085,0 -0.177144,-0.058 -0.313676,-0.23048 -0.136531,-0.17246 -0.284153,-0.43253 -0.453719,-0.70383 -0.169566,-0.27131 -0.3624142,-0.55584 -0.6196003,-0.78445 -0.2571854,-0.22861 -0.5929697,-0.39791 -0.9942545,-0.39791 z"
         style="color:#000000;font-style:normal;font-variant:normal;font-weight:normal;font-stretch:normal;font-size:medium;line-height:normal;font-family:sans-serif;font-variant-ligatures:normal;font-variant-position:normal;font-variant-caps:normal;font-variant-numeric:normal;font-variant-alternates:normal;font-feature-settings:normal;text-indent:0;text-align:start;text-decoration:none;text-decoration-line:none;text-decoration-style:solid;text-decoration-color:#000000;letter-spacing:normal;word-spacing:normal;text-transform:none;writing-mode:lr-tb;direction:ltr;text-orientation:mixed;dominant-baseline:auto;baseline-shift:baseline;text-anchor:start;white-space:normal;shape-padding:0;clip-rule:nonzero;display:inline;overflow:visible;visibility:visible;opacity:1;isolation:auto;mix-blend-mode:normal;color-interpolation:sRGB;color-interpolation-filters:linearRGB;solid-color:#000000;solid-opacity:1;vector-effect:none;fill:#4f92db;fill-opacity:1;fill-rule:nonzero;stroke:none;stroke-width:0.52916664;stroke-linecap:round;stroke-linejoin:round;stroke-miterlimit:4;stroke-dasharray:none;stroke-dashoffset:0;stroke-opacity:1;color-rendering:auto;image-rendering:auto;shape-rendering:auto;text-rendering:auto;enable-background:accumulate" />
      <path
         sodipodi:nodetypes="sccssssssss"
         inkscape:connector-curvature="0"
         id="rect1374-3-25"
         d="M 3.9734013,277.68541 H 8.735901 c 1.322917,0 1.5875,2.11667 2.38125,2.11667 h 7.14375 c 0.586317,0 1.058334,0.47201 1.058334,1.05833 v 11.1125 c 0,0.58632 -0.472017,1.05833 -1.058334,1.05833 H 3.9734013 c -0.5863166,0 -1.0583333,-0.47201 -1.0583333,-1.05833 v -13.22917 c 0,-0.58631 0.4720167,-1.05833 1.0583333,-1.05833 z"
         style="opacity:1;vector-effect:none;fill:#5abfff;fill-opacity:1;stroke:none;stroke-width:0.52916664;stroke-linecap:round;stroke-linejoin:round;stroke-miterlimit:4;stroke-dasharray:none;stroke-dashoffset:0;stroke-opacity:1" />
      <path
         inkscape:connector-curvature="0"
         id="path1453-4"
         d="m 11.117151,279.5375 c -0.31603,0 -0.550459,0.20656 -0.728121,0.43098 -0.177661,0.22441 -0.327696,0.49351 -0.4888587,0.75137 -0.161163,0.25786 -0.3321169,0.5025 -0.5214151,0.67076 -0.1892988,0.16827 -0.3826814,0.26355 -0.642855,0.26355 H 3.9734013 c -0.7283192,0 -1.3229166,0.5946 -1.3229166,1.32292 v 8.99583 c 0,0.72832 0.5945974,1.32292 1.3229166,1.32292 H 18.260901 c 0.72832,0 1.322917,-0.5946 1.322917,-1.32292 v -11.1125 c 0,-0.72832 -0.594597,-1.32291 -1.322917,-1.32291 z"
         style="color:#000000;font-style:normal;font-variant:normal;font-weight:normal;font-stretch:normal;font-size:medium;line-height:normal;font-family:sans-serif;font-variant-ligatures:normal;font-variant-position:normal;font-variant-caps:normal;font-variant-numeric:normal;font-variant-alternates:normal;font-feature-settings:normal;text-indent:0;text-align:start;text-decoration:none;text-decoration-line:none;text-decoration-style:solid;text-decoration-color:#000000;letter-spacing:normal;word-spacing:normal;text-transform:none;writing-mode:lr-tb;direction:ltr;text-orientation:mixed;dominant-baseline:auto;baseline-shift:baseline;text-anchor:start;white-space:normal;shape-padding:0;clip-rule:nonzero;display:inline;overflow:visible;visibility:visible;opacity:1;isolation:auto;mix-blend-mode:normal;color-interpolation:sRGB;color-interpolation-filters:linearRGB;solid-color:#000000;solid-opacity:1;vector-effect:none;fill:#4f92db;fill-opacity:1;fill-rule:nonzero;stroke:none;stroke-width:0.52916664;stroke-linecap:round;stroke-linejoin:round;stroke-miterlimit:4;stroke-dasharray:none;stroke-dashoffset:0;stroke-opacity:1;color-rendering:auto;image-rendering:auto;shape-rendering:auto;text-rendering:auto;enable-background:accumulate" />
      <path
         sodipodi:nodetypes="sccssssssss"
         inkscape:connector-curvature="0"
         id="rect1374-4-4-49"
         d="M 3.9734013,281.91874 H 8.735901 c 1.322917,0 1.5875,-2.11666 2.38125,-2.11666 h 7.14375 c 0.586317,0 1.058334,0.47201 1.058334,1.05833 v 11.1125 c 0,0.58632 -0.472017,1.05833 -1.058334,1.05833 H 3.9734013 c -0.5863166,0 -1.0583332,-0.47201 -1.0583332,-1.05833 v -8.99583 c 0,-0.58632 0.4720166,-1.05834 1.0583332,-1.05834 z"
         style="opacity:1;vector-effect:none;fill:#5abfff;fill-opacity:1;stroke:none;stroke-width:0.52916664;stroke-linecap:round;stroke-linejoin:round;stroke-miterlimit:4;stroke-dasharray:none;stroke-dashoffset:0;stroke-opacity:1" />
      <path
         inkscape:connector-curvature="0"
         id="rect8142-7"
         d="m 11.1125,284.03541 a 0.26460979,0.26460979 0 0 0 -0.215491,0.11782 l -1.0583332,1.5875 a 0.26460979,0.26460979 0 0 0 0.2201412,0.41135 h 0.529167 v 0.79375 c 0,0.29316 0.236008,0.52916 0.529167,0.52916 0.293158,0 0.529166,-0.236 0.529166,-0.52916 v -0.79375 h 0.529167 a 0.26460979,0.26460979 0 0 0 0.220141,-0.41135 l -1.058333,-1.5875 A 0.26460979,0.26460979 0 0 0 11.1125,284.03541 Z m -1.8474326,2.64583 c -0.2931578,0 -0.5291667,0.23601 -0.5291667,0.52917 v 2.38125 c 0,0.29316 0.2360089,0.52917 0.5291667,0.52917 h 3.7041666 c 0.293158,0 0.529167,-0.23601 0.529167,-0.52917 v -2.38125 c 0,-0.29316 -0.236009,-0.52917 -0.529167,-0.52917 h -0.79375 v 0.79375 h 0.529167 v 1.85209 H 9.5296507 v -1.85209 h 0.5291663 v -0.79375 z"
         style="opacity:1;fill:#dbf1ff;fill-opacity:1;stroke:none;stroke-width:0.52916664;stroke-linecap:round;stroke-linejoin:round;stroke-miterlimit:4;stroke-dasharray:none;stroke-opacity:1" />
    </g>
  </g>
</svg>
