<?xml version="1.0" encoding="UTF-8" standalone="no"?>
<!-- Created with Inkscape (http://www.inkscape.org/) -->

<svg
   width="64"
   height="64"
   viewBox="0 0 16.933333 16.933333"
   version="1.1"
   id="svg8"
   inkscape:version="1.2.1 (9c6d41e410, 2022-07-14)"
   sodipodi:docname="folder-onedrive.svg"
   xml:space="preserve"
   xmlns:inkscape="http://www.inkscape.org/namespaces/inkscape"
   xmlns:sodipodi="http://sodipodi.sourceforge.net/DTD/sodipodi-0.dtd"
   xmlns:xlink="http://www.w3.org/1999/xlink"
   xmlns="http://www.w3.org/2000/svg"
   xmlns:svg="http://www.w3.org/2000/svg"
   xmlns:rdf="http://www.w3.org/1999/02/22-rdf-syntax-ns#"
   xmlns:cc="http://creativecommons.org/ns#"
   xmlns:dc="http://purl.org/dc/elements/1.1/"><defs
     id="defs2"><linearGradient
       inkscape:collect="always"
       xlink:href="#linearGradient40128-5"
       id="linearGradient29048-7"
       gradientUnits="userSpaceOnUse"
       x1="18"
       y1="361.64999"
       x2="18"
       y2="346.64999" /><linearGradient
       id="linearGradient40128-5"
       inkscape:collect="always"><stop
         id="stop40124-3"
         offset="0"
         style="stop-color:#5c9ce9;stop-opacity:1;" /><stop
         id="stop40126-5"
         offset="1"
         style="stop-color:#4a8ee4;stop-opacity:1;" /></linearGradient></defs><sodipodi:namedview
     id="base"
     pagecolor="#ffffff"
     bordercolor="#666666"
     borderopacity="1.0"
     inkscape:pageopacity="0.0"
     inkscape:pageshadow="2"
     inkscape:zoom="11.2"
     inkscape:cx="10.3125"
     inkscape:cy="29.598214"
     inkscape:document-units="px"
     inkscape:current-layer="layer1"
     showgrid="true"
     units="px"
     inkscape:showpageshadow="false"
     inkscape:snap-bbox="true"
     inkscape:bbox-paths="true"
     inkscape:bbox-nodes="true"
     inkscape:snap-bbox-edge-midpoints="true"
     inkscape:snap-bbox-midpoints="true"
     inkscape:object-paths="true"
     inkscape:snap-intersection-paths="true"
     inkscape:window-width="2160"
     inkscape:window-height="1335"
     inkscape:window-x="0"
     inkscape:window-y="0"
     inkscape:window-maximized="1"
     inkscape:pagecheckerboard="0"
     inkscape:deskcolor="#d1d1d1"><inkscape:grid
       type="xygrid"
       id="grid815" /></sodipodi:namedview><metadata
     id="metadata5"><rdf:RDF><cc:Work
         rdf:about=""><dc:format>image/svg+xml</dc:format><dc:type
           rdf:resource="http://purl.org/dc/dcmitype/StillImage" /><dc:title /></cc:Work></rdf:RDF></metadata><g
     inkscape:label="Capa 1"
     inkscape:groupmode="layer"
     id="layer1"
     transform="translate(0,-280.06666)"><g
       transform="matrix(0.26458333,0,0,0.26458333,-1.5875,189.1426)"
       id="g1529-9-7-2"><path
         inkscape:connector-curvature="0"
         id="path1475-2-2-7"
         d="m 12,345.65 c -4,0 -6,3 -6,6 v 49 c 0,2.75269 2.2472973,5 5,5 h 54 c 2.752703,0 5,-2.24731 5,-5 v -42 c 0,-2.75271 -2.247297,-5 -5,-5 H 38 c -0.305556,0 -0.669523,-0.21927 -1.185547,-0.87109 -0.516024,-0.65182 -1.073964,-1.63475 -1.714844,-2.66016 -0.64088,-1.02541 -1.369755,-2.1008 -2.341797,-2.96484 C 31.785773,346.28987 30.516667,345.65 29,345.65 Z"
         style="color:#000000;font-style:normal;font-variant:normal;font-weight:normal;font-stretch:normal;font-size:medium;line-height:normal;font-family:sans-serif;font-variant-ligatures:normal;font-variant-position:normal;font-variant-caps:normal;font-variant-numeric:normal;font-variant-alternates:normal;font-feature-settings:normal;text-indent:0;text-align:start;text-decoration:none;text-decoration-line:none;text-decoration-style:solid;text-decoration-color:#000000;letter-spacing:normal;word-spacing:normal;text-transform:none;writing-mode:lr-tb;direction:ltr;text-orientation:mixed;dominant-baseline:auto;baseline-shift:baseline;text-anchor:start;white-space:normal;shape-padding:0;clip-rule:nonzero;display:inline;overflow:visible;visibility:visible;opacity:1;isolation:auto;mix-blend-mode:normal;color-interpolation:sRGB;color-interpolation-filters:linearRGB;solid-color:#000000;solid-opacity:1;vector-effect:none;fill:#3177d3;fill-opacity:1;fill-rule:nonzero;stroke:none;stroke-width:2;stroke-linecap:round;stroke-linejoin:round;stroke-miterlimit:4;stroke-dasharray:none;stroke-dashoffset:0;stroke-opacity:1;color-rendering:auto;image-rendering:auto;shape-rendering:auto;text-rendering:auto;enable-background:accumulate"
         sodipodi:nodetypes="ssssssssssssss" /><path
         sodipodi:nodetypes="sccssssssss"
         inkscape:connector-curvature="0"
         id="rect1374-3-6-2-0"
         d="m 12,346.64999 h 16.999999 c 5,0 6.000002,8 9.000002,8 H 65 c 2.216,0 4,1.784 4,4 v 42 c 0,2.216 -1.784,4 -4,4 H 11 c -2.2159999,0 -3.9999999,-1.784 -3.9999999,-4 l 3e-7,-48.97939 C 7.0000004,348.65 9,346.64999 12,346.64999 Z"
         style="opacity:1;vector-effect:none;fill:url(#linearGradient29048-7);fill-opacity:1;stroke:none;stroke-width:2;stroke-linecap:round;stroke-linejoin:round;stroke-miterlimit:4;stroke-dasharray:none;stroke-dashoffset:0;stroke-opacity:1" /><path
         inkscape:connector-curvature="0"
         id="path1453-6-6-9"
         d="m 38,353.65 c -1.194444,0 -2.080477,0.78073 -2.751953,1.62891 -0.671476,0.84818 -1.238536,1.86525 -1.847656,2.83984 -0.60912,0.97459 -1.255245,1.8992 -1.970703,2.53516 C 30.714228,361.28987 29.983333,361.65 29,361.65 H 11 c -2.7527027,0 -5,2.24729 -5,5 v 34 c 0,2.75269 2.2472973,5 5,5 h 54 c 2.752703,0 5,-2.24731 5,-5 v -42 c 0,-2.75271 -2.247297,-5 -5,-5 z"
         style="color:#000000;font-style:normal;font-variant:normal;font-weight:normal;font-stretch:normal;font-size:medium;line-height:normal;font-family:sans-serif;font-variant-ligatures:normal;font-variant-position:normal;font-variant-caps:normal;font-variant-numeric:normal;font-variant-alternates:normal;font-feature-settings:normal;text-indent:0;text-align:start;text-decoration:none;text-decoration-line:none;text-decoration-style:solid;text-decoration-color:#000000;letter-spacing:normal;word-spacing:normal;text-transform:none;writing-mode:lr-tb;direction:ltr;text-orientation:mixed;dominant-baseline:auto;baseline-shift:baseline;text-anchor:start;white-space:normal;shape-padding:0;clip-rule:nonzero;display:inline;overflow:visible;visibility:visible;opacity:1;isolation:auto;mix-blend-mode:normal;color-interpolation:sRGB;color-interpolation-filters:linearRGB;solid-color:#000000;solid-opacity:1;vector-effect:none;fill:#3177d3;fill-opacity:1;fill-rule:nonzero;stroke:none;stroke-width:2;stroke-linecap:round;stroke-linejoin:round;stroke-miterlimit:4;stroke-dasharray:none;stroke-dashoffset:0;stroke-opacity:1;color-rendering:auto;image-rendering:auto;shape-rendering:auto;text-rendering:auto;enable-background:accumulate" /><path
         sodipodi:nodetypes="sccssssssss"
         inkscape:connector-curvature="0"
         id="rect1374-4-4-4-1-3"
         d="m 11,362.64999 h 17.999999 c 5,0 6.000002,-8 9.000002,-8 H 65 c 2.216,0 4,1.784 4,4 v 42 c 0,2.216 -1.784,4 -4,4 H 11 c -2.2159999,0 -3.9999996,-1.784 -3.9999996,-4 v -34 c 0,-2.216 1.7839997,-4 3.9999996,-4 z"
         style="opacity:1;vector-effect:none;fill:#72b0f4;fill-opacity:1;stroke:none;stroke-width:2;stroke-linecap:round;stroke-linejoin:round;stroke-miterlimit:4;stroke-dasharray:none;stroke-dashoffset:0;stroke-opacity:1" /></g><path
       id="rect4546"
       d="m 9.2604165,287.73377 c -0.9658189,0 -1.7749485,0.64078 -2.0308834,1.52187 -0.1733738,-0.12402 -0.3845978,-0.19895 -0.6149499,-0.19895 -0.5863164,0 -1.058333,0.47201 -1.058333,1.05833 0,0.002 5.027e-4,0.004 5.291e-4,0.006 -0.7439519,0.0662 -1.3234458,0.68728 -1.3234458,1.44901 0,0.80618 0.6490227,1.45521 1.4552083,1.45521 0.04463,0 0.088709,-0.002 0.1322914,-0.006 v 0.006 H 11.1125 c 0.879474,0 1.587499,-0.70803 1.587499,-1.5875 0,-0.78949 -0.570999,-1.43923 -1.323949,-1.56425 8.5e-5,-0.008 0.001,-0.0154 0.001,-0.0233 0,-1.17264 -0.944033,-2.11667 -2.1166666,-2.11667 z"
       style="fill:#dfeafe;fill-opacity:1;stroke:none;stroke-width:0.079375;stroke-miterlimit:4;stroke-dasharray:none;stroke-opacity:1"
       inkscape:connector-curvature="0" /></g></svg>
