<?xml version="1.0" encoding="UTF-8" standalone="no"?>
<!-- Created with Inkscape (http://www.inkscape.org/) -->

<svg
   xmlns:dc="http://purl.org/dc/elements/1.1/"
   xmlns:cc="http://creativecommons.org/ns#"
   xmlns:rdf="http://www.w3.org/1999/02/22-rdf-syntax-ns#"
   xmlns:svg="http://www.w3.org/2000/svg"
   xmlns="http://www.w3.org/2000/svg"
   xmlns:sodipodi="http://sodipodi.sourceforge.net/DTD/sodipodi-0.dtd"
   xmlns:inkscape="http://www.inkscape.org/namespaces/inkscape"
   width="64"
   height="64"
   viewBox="0 0 16.933333 16.933333"
   version="1.1"
   id="svg8"
   inkscape:version="0.92.3 (2405546, 2018-03-11)"
   sodipodi:docname="folder-owncloud.svg">
  <defs
     id="defs2" />
  <sodipodi:namedview
     id="base"
     pagecolor="#ffffff"
     bordercolor="#666666"
     borderopacity="1.0"
     inkscape:pageopacity="0.0"
     inkscape:pageshadow="2"
     inkscape:zoom="11.2"
     inkscape:cx="11.774357"
     inkscape:cy="29.512999"
     inkscape:document-units="px"
     inkscape:current-layer="layer1"
     showgrid="true"
     units="px"
     inkscape:showpageshadow="false"
     inkscape:snap-bbox="true"
     inkscape:bbox-paths="true"
     inkscape:bbox-nodes="true"
     inkscape:snap-bbox-edge-midpoints="true"
     inkscape:snap-bbox-midpoints="true"
     inkscape:object-paths="true"
     inkscape:snap-intersection-paths="true"
     inkscape:window-width="1874"
     inkscape:window-height="1141"
     inkscape:window-x="46"
     inkscape:window-y="30"
     inkscape:window-maximized="1">
    <inkscape:grid
       type="xygrid"
       id="grid815" />
  </sodipodi:namedview>
  <metadata
     id="metadata5">
    <rdf:RDF>
      <cc:Work
         rdf:about="">
        <dc:format>image/svg+xml</dc:format>
        <dc:type
           rdf:resource="http://purl.org/dc/dcmitype/StillImage" />
        <dc:title></dc:title>
      </cc:Work>
    </rdf:RDF>
  </metadata>
  <g
     inkscape:label="Capa 1"
     inkscape:groupmode="layer"
     id="layer1"
     transform="translate(0,-280.06666)">
    <g
       id="g9800"
       transform="translate(6.3650651,-0.2774035)">
      <path
         inkscape:connector-curvature="0"
         id="path1475-88"
         d="m -5.0421486,280.87323 c -0.7283192,0 -1.3229166,0.5946 -1.3229166,1.32292 v 13.22916 c 0,0.72832 0.5945974,1.32292 1.3229166,1.32292 H 9.2453508 c 0.72832,0 1.3229172,-0.5946 1.3229172,-1.32292 v -11.1125 c 0,-0.72832 -0.5945972,-1.32291 -1.3229172,-1.32291 H 2.1016013 c -0.080845,0 -0.1771446,-0.058 -0.313676,-0.23048 -0.1365313,-0.17246 -0.2841529,-0.43253 -0.4537191,-0.70383 -0.1695662,-0.27131 -0.36241435,-0.55584 -0.61960045,-0.78445 -0.2571854,-0.22861 -0.5929697,-0.39791 -0.9942545,-0.39791 z"
         style="color:#000000;font-style:normal;font-variant:normal;font-weight:normal;font-stretch:normal;font-size:medium;line-height:normal;font-family:sans-serif;font-variant-ligatures:normal;font-variant-position:normal;font-variant-caps:normal;font-variant-numeric:normal;font-variant-alternates:normal;font-feature-settings:normal;text-indent:0;text-align:start;text-decoration:none;text-decoration-line:none;text-decoration-style:solid;text-decoration-color:#000000;letter-spacing:normal;word-spacing:normal;text-transform:none;writing-mode:lr-tb;direction:ltr;text-orientation:mixed;dominant-baseline:auto;baseline-shift:baseline;text-anchor:start;white-space:normal;shape-padding:0;clip-rule:nonzero;display:inline;overflow:visible;visibility:visible;opacity:1;isolation:auto;mix-blend-mode:normal;color-interpolation:sRGB;color-interpolation-filters:linearRGB;solid-color:#000000;solid-opacity:1;vector-effect:none;fill:#4f92db;fill-opacity:1;fill-rule:nonzero;stroke:none;stroke-width:0.52916664;stroke-linecap:round;stroke-linejoin:round;stroke-miterlimit:4;stroke-dasharray:none;stroke-dashoffset:0;stroke-opacity:1;color-rendering:auto;image-rendering:auto;shape-rendering:auto;text-rendering:auto;enable-background:accumulate" />
      <path
         sodipodi:nodetypes="sccssssssss"
         inkscape:connector-curvature="0"
         id="rect1374-3-89"
         d="m -5.0421486,281.13781 h 4.76249965 c 1.32291665,0 1.58750055,2.11667 2.38125055,2.11667 h 7.1437492 c 0.586317,0 1.0583342,0.47201 1.0583342,1.05833 v 11.1125 c 0,0.58632 -0.4720172,1.05833 -1.0583342,1.05833 H -5.0421486 c -0.5863166,0 -1.0583333,-0.47201 -1.0583333,-1.05833 v -13.22917 c 0,-0.58631 0.4720167,-1.05833 1.0583333,-1.05833 z"
         style="opacity:1;vector-effect:none;fill:#5abfff;fill-opacity:1;stroke:none;stroke-width:0.52916664;stroke-linecap:round;stroke-linejoin:round;stroke-miterlimit:4;stroke-dasharray:none;stroke-dashoffset:0;stroke-opacity:1" />
      <path
         inkscape:connector-curvature="0"
         id="path1453-77"
         d="m 2.1016013,282.9899 c -0.31603,0 -0.5504595,0.20656 -0.7281209,0.43098 -0.1776613,0.22441 -0.327696,0.49351 -0.48885905,0.75137 -0.161163,0.25786 -0.3321169,0.5025 -0.5214151,0.67076 -0.1892988,0.16827 -0.3826814,0.26355 -0.642855,0.26355 H -5.0421486 c -0.7283192,0 -1.3229166,0.5946 -1.3229166,1.32292 v 8.99583 c 0,0.72832 0.5945974,1.32292 1.3229166,1.32292 H 9.2453508 c 0.72832,0 1.3229172,-0.5946 1.3229172,-1.32292 v -11.1125 c 0,-0.72832 -0.5945972,-1.32291 -1.3229172,-1.32291 z"
         style="color:#000000;font-style:normal;font-variant:normal;font-weight:normal;font-stretch:normal;font-size:medium;line-height:normal;font-family:sans-serif;font-variant-ligatures:normal;font-variant-position:normal;font-variant-caps:normal;font-variant-numeric:normal;font-variant-alternates:normal;font-feature-settings:normal;text-indent:0;text-align:start;text-decoration:none;text-decoration-line:none;text-decoration-style:solid;text-decoration-color:#000000;letter-spacing:normal;word-spacing:normal;text-transform:none;writing-mode:lr-tb;direction:ltr;text-orientation:mixed;dominant-baseline:auto;baseline-shift:baseline;text-anchor:start;white-space:normal;shape-padding:0;clip-rule:nonzero;display:inline;overflow:visible;visibility:visible;opacity:1;isolation:auto;mix-blend-mode:normal;color-interpolation:sRGB;color-interpolation-filters:linearRGB;solid-color:#000000;solid-opacity:1;vector-effect:none;fill:#4f92db;fill-opacity:1;fill-rule:nonzero;stroke:none;stroke-width:0.52916664;stroke-linecap:round;stroke-linejoin:round;stroke-miterlimit:4;stroke-dasharray:none;stroke-dashoffset:0;stroke-opacity:1;color-rendering:auto;image-rendering:auto;shape-rendering:auto;text-rendering:auto;enable-background:accumulate" />
      <path
         sodipodi:nodetypes="sccssssssss"
         inkscape:connector-curvature="0"
         id="rect1374-4-4-64"
         d="m -5.0421486,285.37114 h 4.76249965 c 1.32291665,0 1.58750055,-2.11666 2.38125055,-2.11666 h 7.1437492 c 0.586317,0 1.0583342,0.47201 1.0583342,1.05833 v 11.1125 c 0,0.58632 -0.4720172,1.05833 -1.0583342,1.05833 H -5.0421486 c -0.5863166,0 -1.0583332,-0.47201 -1.0583332,-1.05833 v -8.99583 c 0,-0.58632 0.4720166,-1.05834 1.0583332,-1.05834 z"
         style="opacity:1;vector-effect:none;fill:#5abfff;fill-opacity:1;stroke:none;stroke-width:0.52916664;stroke-linecap:round;stroke-linejoin:round;stroke-miterlimit:4;stroke-dasharray:none;stroke-dashoffset:0;stroke-opacity:1" />
      <path
         id="rect4546"
         d="m 2.8953513,288.01117 c -0.9658189,0 -1.7749485,0.64078 -2.03088345,1.52187 -0.1733738,-0.12402 -0.3845978,-0.19895 -0.6149499,-0.19895 -0.5863164,0 -1.058333,0.47201 -1.058333,1.05833 0,0.002 5.027e-4,0.004 5.291e-4,0.006 -0.74395185,0.0662 -1.32344575,0.68728 -1.32344575,1.44901 0,0.80618 0.6490227,1.45521 1.45520825,1.45521 0.04463,0 0.088709,-0.002 0.1322914,-0.006 v 0.006 H 4.7474348 c 0.879474,0 1.587499,-0.70803 1.587499,-1.5875 0,-0.78949 -0.570999,-1.43923 -1.323949,-1.56425 8.5e-5,-0.008 10e-4,-0.0154 10e-4,-0.0233 0,-1.17264 -0.944033,-2.11667 -2.1166666,-2.11667 z"
         style="opacity:1;fill:#d2eeff;fill-opacity:1;stroke:none;stroke-width:0.07937501;stroke-miterlimit:4;stroke-dasharray:none;stroke-opacity:1"
         inkscape:connector-curvature="0" />
    </g>
  </g>
</svg>
