<?xml version="1.0" encoding="UTF-8" standalone="no"?>
<!-- Created with Inkscape (http://www.inkscape.org/) -->

<svg
   xmlns:dc="http://purl.org/dc/elements/1.1/"
   xmlns:cc="http://creativecommons.org/ns#"
   xmlns:rdf="http://www.w3.org/1999/02/22-rdf-syntax-ns#"
   xmlns:svg="http://www.w3.org/2000/svg"
   xmlns="http://www.w3.org/2000/svg"
   xmlns:sodipodi="http://sodipodi.sourceforge.net/DTD/sodipodi-0.dtd"
   xmlns:inkscape="http://www.inkscape.org/namespaces/inkscape"
   width="64"
   height="64"
   viewBox="0 0 16.933333 16.933333"
   version="1.1"
   id="svg8"
   inkscape:version="0.92.3 (2405546, 2018-03-11)"
   sodipodi:docname="folder-cyan.svg">
  <defs
     id="defs2" />
  <sodipodi:namedview
     id="base"
     pagecolor="#ffffff"
     bordercolor="#666666"
     borderopacity="1.0"
     inkscape:pageopacity="0.0"
     inkscape:pageshadow="2"
     inkscape:zoom="11.2"
     inkscape:cx="11.774357"
     inkscape:cy="29.512999"
     inkscape:document-units="px"
     inkscape:current-layer="layer1"
     showgrid="true"
     units="px"
     inkscape:showpageshadow="false"
     inkscape:snap-bbox="true"
     inkscape:bbox-paths="true"
     inkscape:bbox-nodes="true"
     inkscape:snap-bbox-edge-midpoints="true"
     inkscape:snap-bbox-midpoints="true"
     inkscape:object-paths="true"
     inkscape:snap-intersection-paths="true"
     inkscape:window-width="1874"
     inkscape:window-height="1141"
     inkscape:window-x="46"
     inkscape:window-y="30"
     inkscape:window-maximized="1">
    <inkscape:grid
       type="xygrid"
       id="grid815" />
  </sodipodi:namedview>
  <metadata
     id="metadata5">
    <rdf:RDF>
      <cc:Work
         rdf:about="">
        <dc:format>image/svg+xml</dc:format>
        <dc:type
           rdf:resource="http://purl.org/dc/dcmitype/StillImage" />
        <dc:title></dc:title>
      </cc:Work>
    </rdf:RDF>
  </metadata>
  <g
     inkscape:label="Capa 1"
     inkscape:groupmode="layer"
     id="layer1"
     transform="translate(0,-280.06666)">
    <g
       id="g11268"
       transform="translate(5.853906,-0.5953135)">
      <path
         inkscape:connector-curvature="0"
         id="path1475-51"
         d="m -4.5309895,281.19114 c -0.7283192,0 -1.3229166,0.5946 -1.3229166,1.32292 v 13.22916 c 0,0.72832 0.5945974,1.32292 1.3229166,1.32292 H 9.7565099 c 0.7283201,0 1.3229171,-0.5946 1.3229171,-1.32292 v -11.1125 c 0,-0.72832 -0.594597,-1.32291 -1.3229171,-1.32291 H 2.6127604 c -0.080845,0 -0.1771446,-0.058 -0.313676,-0.23048 C 2.1625531,282.90487 2.0149315,282.6448 1.8453653,282.3735 1.6757991,282.10219 1.482951,281.81766 1.2257649,281.58905 0.96857947,281.36044 0.63279517,281.19114 0.23151037,281.19114 Z"
         style="color:#000000;font-style:normal;font-variant:normal;font-weight:normal;font-stretch:normal;font-size:medium;line-height:normal;font-family:sans-serif;font-variant-ligatures:normal;font-variant-position:normal;font-variant-caps:normal;font-variant-numeric:normal;font-variant-alternates:normal;font-feature-settings:normal;text-indent:0;text-align:start;text-decoration:none;text-decoration-line:none;text-decoration-style:solid;text-decoration-color:#000000;letter-spacing:normal;word-spacing:normal;text-transform:none;writing-mode:lr-tb;direction:ltr;text-orientation:mixed;dominant-baseline:auto;baseline-shift:baseline;text-anchor:start;white-space:normal;shape-padding:0;clip-rule:nonzero;display:inline;overflow:visible;visibility:visible;opacity:1;isolation:auto;mix-blend-mode:normal;color-interpolation:sRGB;color-interpolation-filters:linearRGB;solid-color:#000000;solid-opacity:1;vector-effect:none;fill:#008fa8;fill-opacity:1;fill-rule:nonzero;stroke:none;stroke-width:0.52916664;stroke-linecap:round;stroke-linejoin:round;stroke-miterlimit:4;stroke-dasharray:none;stroke-dashoffset:0;stroke-opacity:1;color-rendering:auto;image-rendering:auto;shape-rendering:auto;text-rendering:auto;enable-background:accumulate" />
      <path
         sodipodi:nodetypes="sccssssssss"
         inkscape:connector-curvature="0"
         id="rect1374-3-1"
         d="m -4.5309895,281.45572 h 4.76249967 c 1.32291663,0 1.58750053,2.11667 2.38125053,2.11667 h 7.1437492 c 0.5863171,0 1.0583341,0.47201 1.0583341,1.05833 v 11.1125 c 0,0.58632 -0.472017,1.05833 -1.0583341,1.05833 H -4.5309895 c -0.5863166,0 -1.0583333,-0.47201 -1.0583333,-1.05833 v -13.22917 c 0,-0.58631 0.4720167,-1.05833 1.0583333,-1.05833 z"
         style="opacity:1;vector-effect:none;fill:#3bc6e0;fill-opacity:1;stroke:none;stroke-width:0.52916664;stroke-linecap:round;stroke-linejoin:round;stroke-miterlimit:4;stroke-dasharray:none;stroke-dashoffset:0;stroke-opacity:1" />
      <path
         inkscape:connector-curvature="0"
         id="path1453-0"
         d="m 2.6127604,283.30781 c -0.31603,0 -0.5504595,0.20656 -0.7281209,0.43098 -0.1776613,0.22441 -0.327696,0.49351 -0.488859,0.75137 -0.161163,0.25786 -0.3321169,0.5025 -0.52141513,0.67076 -0.1892988,0.16827 -0.3826814,0.26355 -0.642855,0.26355 H -4.5309895 c -0.7283192,0 -1.3229166,0.5946 -1.3229166,1.32292 v 8.99583 c 0,0.72832 0.5945974,1.32292 1.3229166,1.32292 H 9.7565099 c 0.7283201,0 1.3229171,-0.5946 1.3229171,-1.32292 v -11.1125 c 0,-0.72832 -0.594597,-1.32291 -1.3229171,-1.32291 z"
         style="color:#000000;font-style:normal;font-variant:normal;font-weight:normal;font-stretch:normal;font-size:medium;line-height:normal;font-family:sans-serif;font-variant-ligatures:normal;font-variant-position:normal;font-variant-caps:normal;font-variant-numeric:normal;font-variant-alternates:normal;font-feature-settings:normal;text-indent:0;text-align:start;text-decoration:none;text-decoration-line:none;text-decoration-style:solid;text-decoration-color:#000000;letter-spacing:normal;word-spacing:normal;text-transform:none;writing-mode:lr-tb;direction:ltr;text-orientation:mixed;dominant-baseline:auto;baseline-shift:baseline;text-anchor:start;white-space:normal;shape-padding:0;clip-rule:nonzero;display:inline;overflow:visible;visibility:visible;opacity:1;isolation:auto;mix-blend-mode:normal;color-interpolation:sRGB;color-interpolation-filters:linearRGB;solid-color:#000000;solid-opacity:1;vector-effect:none;fill:#008fa8;fill-opacity:1;fill-rule:nonzero;stroke:none;stroke-width:0.52916664;stroke-linecap:round;stroke-linejoin:round;stroke-miterlimit:4;stroke-dasharray:none;stroke-dashoffset:0;stroke-opacity:1;color-rendering:auto;image-rendering:auto;shape-rendering:auto;text-rendering:auto;enable-background:accumulate" />
      <path
         sodipodi:nodetypes="sccssssssss"
         inkscape:connector-curvature="0"
         id="rect1374-4-4-85"
         d="m -4.5309895,285.68905 h 4.76249967 c 1.32291663,0 1.58750053,-2.11666 2.38125053,-2.11666 h 7.1437492 c 0.5863171,0 1.0583341,0.47201 1.0583341,1.05833 v 11.1125 c 0,0.58632 -0.472017,1.05833 -1.0583341,1.05833 H -4.5309895 c -0.5863166,0 -1.0583332,-0.47201 -1.0583332,-1.05833 v -8.99583 c 0,-0.58632 0.4720166,-1.05834 1.0583332,-1.05834 z"
         style="opacity:1;vector-effect:none;fill:#3bc6e0;fill-opacity:1;stroke:none;stroke-width:0.52916664;stroke-linecap:round;stroke-linejoin:round;stroke-miterlimit:4;stroke-dasharray:none;stroke-dashoffset:0;stroke-opacity:1" />
    </g>
  </g>
</svg>
