<?xml version="1.0" encoding="UTF-8" standalone="no"?>
<!-- Created with Inkscape (http://www.inkscape.org/) -->

<svg
   width="64"
   height="64"
   viewBox="0 0 16.933333 16.933333"
   version="1.1"
   id="svg8"
   inkscape:version="1.2 (dc2aedaf03, 2022-05-15)"
   sodipodi:docname="folder-blender.svg"
   xmlns:inkscape="http://www.inkscape.org/namespaces/inkscape"
   xmlns:sodipodi="http://sodipodi.sourceforge.net/DTD/sodipodi-0.dtd"
   xmlns:xlink="http://www.w3.org/1999/xlink"
   xmlns="http://www.w3.org/2000/svg"
   xmlns:svg="http://www.w3.org/2000/svg"
   xmlns:rdf="http://www.w3.org/1999/02/22-rdf-syntax-ns#"
   xmlns:cc="http://creativecommons.org/ns#"
   xmlns:dc="http://purl.org/dc/elements/1.1/">
  <defs
     id="defs2">
    <linearGradient
       inkscape:collect="always"
       xlink:href="#linearGradient10239"
       id="linearGradient940"
       x1="18"
       y1="361.64999"
       x2="18"
       y2="346.64999"
       gradientUnits="userSpaceOnUse" />
    <linearGradient
       id="linearGradient10239"
       inkscape:collect="always">
      <stop
         id="stop10235"
         offset="0"
         style="stop-color:#4ea0ee;stop-opacity:1;" />
      <stop
         id="stop10237"
         offset="1"
         style="stop-color:#2484e6;stop-opacity:1;" />
    </linearGradient>
  </defs>
  <sodipodi:namedview
     id="base"
     pagecolor="#ffffff"
     bordercolor="#666666"
     borderopacity="1.0"
     inkscape:pageopacity="0.0"
     inkscape:pageshadow="2"
     inkscape:zoom="11.2"
     inkscape:cx="10.267857"
     inkscape:cy="29.598214"
     inkscape:document-units="px"
     inkscape:current-layer="layer1"
     showgrid="true"
     units="px"
     inkscape:showpageshadow="false"
     inkscape:snap-bbox="true"
     inkscape:bbox-paths="true"
     inkscape:bbox-nodes="true"
     inkscape:snap-bbox-edge-midpoints="true"
     inkscape:snap-bbox-midpoints="true"
     inkscape:object-paths="true"
     inkscape:snap-intersection-paths="true"
     inkscape:window-width="2160"
     inkscape:window-height="1337"
     inkscape:window-x="0"
     inkscape:window-y="0"
     inkscape:window-maximized="1"
     inkscape:pagecheckerboard="0"
     inkscape:deskcolor="#d1d1d1">
    <inkscape:grid
       type="xygrid"
       id="grid815" />
  </sodipodi:namedview>
  <metadata
     id="metadata5">
    <rdf:RDF>
      <cc:Work
         rdf:about="">
        <dc:format>image/svg+xml</dc:format>
        <dc:type
           rdf:resource="http://purl.org/dc/dcmitype/StillImage" />
      </cc:Work>
    </rdf:RDF>
  </metadata>
  <g
     inkscape:label="Capa 1"
     inkscape:groupmode="layer"
     id="layer1"
     transform="translate(0,-280.06666)">
    <g
       transform="matrix(0.26458333,0,0,0.26458333,-1.5875,189.1426)"
       id="g1529">
      <path
         inkscape:connector-curvature="0"
         id="path1475"
         d="m 12,345.65 c -4,0 -6,3 -6,6 v 49 c 0,2.75269 2.2472973,5 5,5 h 54 c 2.752703,0 5,-2.24731 5,-5 v -42 c 0,-2.75271 -2.247297,-5 -5,-5 H 38 c -0.305556,0 -0.669523,-0.21927 -1.185547,-0.87109 -0.516024,-0.65182 -1.073964,-1.63475 -1.714844,-2.66016 -0.64088,-1.02541 -1.369755,-2.1008 -2.341797,-2.96484 C 31.785773,346.28987 30.516667,345.65 29,345.65 Z"
         style="color:#000000;font-style:normal;font-variant:normal;font-weight:normal;font-stretch:normal;font-size:medium;line-height:normal;font-family:sans-serif;font-variant-ligatures:normal;font-variant-position:normal;font-variant-caps:normal;font-variant-numeric:normal;font-variant-alternates:normal;font-feature-settings:normal;text-indent:0;text-align:start;text-decoration:none;text-decoration-line:none;text-decoration-style:solid;text-decoration-color:#000000;letter-spacing:normal;word-spacing:normal;text-transform:none;writing-mode:lr-tb;direction:ltr;text-orientation:mixed;dominant-baseline:auto;baseline-shift:baseline;text-anchor:start;white-space:normal;shape-padding:0;clip-rule:nonzero;display:inline;overflow:visible;visibility:visible;opacity:1;isolation:auto;mix-blend-mode:normal;color-interpolation:sRGB;color-interpolation-filters:linearRGB;solid-color:#000000;solid-opacity:1;vector-effect:none;fill:#286bb2;fill-opacity:1;fill-rule:nonzero;stroke:none;stroke-width:2;stroke-linecap:round;stroke-linejoin:round;stroke-miterlimit:4;stroke-dasharray:none;stroke-dashoffset:0;stroke-opacity:1;color-rendering:auto;image-rendering:auto;shape-rendering:auto;text-rendering:auto;enable-background:accumulate"
         sodipodi:nodetypes="ssssssssssssss" />
      <path
         sodipodi:nodetypes="sccssssssss"
         inkscape:connector-curvature="0"
         id="rect1374-3"
         d="m 12,346.64999 h 16.999999 c 5,0 6.000002,8 9.000002,8 H 65 c 2.216,0 4,1.784 4,4 v 42 c 0,2.216 -1.784,4 -4,4 H 11 c -2.2159999,0 -3.9999999,-1.784 -3.9999999,-4 l 3e-7,-48.97939 C 7.0000004,348.65 9,346.64999 12,346.64999 Z"
         style="opacity:1;vector-effect:none;fill:url(#linearGradient940);fill-opacity:1;stroke:none;stroke-width:2;stroke-linecap:round;stroke-linejoin:round;stroke-miterlimit:4;stroke-dasharray:none;stroke-dashoffset:0;stroke-opacity:1" />
      <path
         inkscape:connector-curvature="0"
         id="path1453"
         d="m 38,353.65 c -1.194444,0 -2.080477,0.78073 -2.751953,1.62891 -0.671476,0.84818 -1.238536,1.86525 -1.847656,2.83984 -0.60912,0.97459 -1.255245,1.8992 -1.970703,2.53516 C 30.714228,361.28987 29.983333,361.65 29,361.65 H 11 c -2.7527027,0 -5,2.24729 -5,5 v 34 c 0,2.75269 2.2472973,5 5,5 h 54 c 2.752703,0 5,-2.24731 5,-5 v -42 c 0,-2.75271 -2.247297,-5 -5,-5 z"
         style="color:#000000;font-style:normal;font-variant:normal;font-weight:normal;font-stretch:normal;font-size:medium;line-height:normal;font-family:sans-serif;font-variant-ligatures:normal;font-variant-position:normal;font-variant-caps:normal;font-variant-numeric:normal;font-variant-alternates:normal;font-feature-settings:normal;text-indent:0;text-align:start;text-decoration:none;text-decoration-line:none;text-decoration-style:solid;text-decoration-color:#000000;letter-spacing:normal;word-spacing:normal;text-transform:none;writing-mode:lr-tb;direction:ltr;text-orientation:mixed;dominant-baseline:auto;baseline-shift:baseline;text-anchor:start;white-space:normal;shape-padding:0;clip-rule:nonzero;display:inline;overflow:visible;visibility:visible;opacity:1;isolation:auto;mix-blend-mode:normal;color-interpolation:sRGB;color-interpolation-filters:linearRGB;solid-color:#000000;solid-opacity:1;vector-effect:none;fill:#3182d9;fill-opacity:1;fill-rule:nonzero;stroke:none;stroke-width:2;stroke-linecap:round;stroke-linejoin:round;stroke-miterlimit:4;stroke-dasharray:none;stroke-dashoffset:0;stroke-opacity:1;color-rendering:auto;image-rendering:auto;shape-rendering:auto;text-rendering:auto;enable-background:accumulate" />
      <path
         sodipodi:nodetypes="sccssssssss"
         inkscape:connector-curvature="0"
         id="rect1374-4-4"
         d="m 11,362.64999 h 17.999999 c 5,0 6.000002,-8 9.000002,-8 H 65 c 2.216,0 4,1.784 4,4 v 42 c 0,2.216 -1.784,4 -4,4 H 11 c -2.2159999,0 -3.9999996,-1.784 -3.9999996,-4 v -34 c 0,-2.216 1.7839997,-4 3.9999996,-4 z"
         style="opacity:1;vector-effect:none;fill:#50c1f9;fill-opacity:1;stroke:none;stroke-width:2;stroke-linecap:round;stroke-linejoin:round;stroke-miterlimit:4;stroke-dasharray:none;stroke-dashoffset:0;stroke-opacity:1" />
    </g>
    <path
       id="rect8258-6"
       style="fill:#dcf3ff;fill-opacity:1;stroke:none;stroke-width:0.587964;stroke-linecap:round;stroke-linejoin:round;stroke-dasharray:none;stroke-opacity:1;stop-color:#000000"
       d="m 6.8838174,287.21043 c -0.059422,-4.4e-4 -0.1187044,0.006 -0.1767334,0.0186 -0.2059484,0.0458 -0.3852006,0.17166 -0.4981608,0.34985 -0.235004,0.37002 -0.1255727,0.8605 0.2444295,1.09554 l 0.6108155,0.38861 H 5.2911498 c -0.4379712,2.8e-4 -0.7929483,0.35526 -0.7932332,0.79323 5.698e-4,0.43777 0.3554636,0.79243 0.7932332,0.79272 h 1.100708 l -1.3022461,0.94723 c -0.353873,0.25756 -0.4324734,0.75297 -0.1756999,1.10742 0.2576851,0.35518 0.7546758,0.43388 1.109493,0.1757 l 0.6785116,-0.49351 c 0.2978811,1.13534 1.3271534,1.96836 2.5585001,1.96836 1.4657855,0 2.6458335,-1.18005 2.6458335,-2.64584 0,-1.32291 -0.839775,-2.07141 -1.69137,-2.52232 l -2.9104164,-1.85157 c -0.1257856,-0.08 -0.2715663,-0.12301 -0.4206462,-0.12402 z m 2.3765991,2.64583 c 1.0260515,0 1.8520835,0.82603 1.8520835,1.85208 0,1.02605 -0.826032,1.85209 -1.8520835,1.85209 -1.026051,0 -1.8520833,-0.82604 -1.8520833,-1.85209 0,-1.02605 0.8260323,-1.85208 1.8520833,-1.85208 z m 0,0.79375 c -0.5863155,0 -1.0583333,0.47202 -1.0583333,1.05833 0,0.58632 0.4720178,1.05834 1.0583333,1.05834 0.5863154,0 1.0583335,-0.47202 1.0583335,-1.05834 0,-0.58631 -0.4720181,-1.05833 -1.0583335,-1.05833 z" />
  </g>
</svg>
