<?xml version="1.0" encoding="UTF-8" standalone="no"?>
<!-- Created with Inkscape (http://www.inkscape.org/) -->

<svg
   xmlns:dc="http://purl.org/dc/elements/1.1/"
   xmlns:cc="http://creativecommons.org/ns#"
   xmlns:rdf="http://www.w3.org/1999/02/22-rdf-syntax-ns#"
   xmlns:svg="http://www.w3.org/2000/svg"
   xmlns="http://www.w3.org/2000/svg"
   xmlns:sodipodi="http://sodipodi.sourceforge.net/DTD/sodipodi-0.dtd"
   xmlns:inkscape="http://www.inkscape.org/namespaces/inkscape"
   width="64"
   height="64"
   viewBox="0 0 16.933333 16.933333"
   version="1.1"
   id="svg8"
   inkscape:version="0.92.4 5da689c313, 2019-01-14"
   sodipodi:docname="mageia.svg">
  <defs
     id="defs2">
    <style
       id="current-color-scheme"
       type="text/css">
      .ColorScheme-Text {
        color:#122036;
      }
      </style>
    <style
       id="current-color-scheme-75"
       type="text/css">
      .ColorScheme-Text {
        color:#122036;
      }
      </style>
    <style
       id="current-color-scheme-7"
       type="text/css">
      .ColorScheme-Text {
        color:#122036;
      }
      </style>
    <linearGradient
       y2="372.65002"
       y1="400.64996"
       x2="-96"
       x1="-96"
       gradientUnits="userSpaceOnUse"
       id="linearGradient1032"
       gradientTransform="translate(112,-88.00002)">
      <stop
         id="stop1028"
         stop-color="#094b71"
         offset="0"
         style="stop-color:#007caf;stop-opacity:1" />
      <stop
         id="stop1030"
         stop-color="#052f47"
         offset="1"
         style="stop-color:#00a6eb;stop-opacity:1" />
    </linearGradient>
  </defs>
  <sodipodi:namedview
     id="base"
     pagecolor="#ffffff"
     bordercolor="#666666"
     borderopacity="1.0"
     inkscape:pageopacity="0.0"
     inkscape:pageshadow="2"
     inkscape:zoom="5.6"
     inkscape:cx="101.84605"
     inkscape:cy="-4.3159197"
     inkscape:document-units="px"
     inkscape:current-layer="layer1-5"
     showgrid="true"
     units="px"
     inkscape:showpageshadow="false"
     inkscape:snap-bbox="true"
     inkscape:bbox-paths="true"
     inkscape:bbox-nodes="true"
     inkscape:snap-bbox-edge-midpoints="true"
     inkscape:snap-bbox-midpoints="true"
     inkscape:object-paths="true"
     inkscape:snap-intersection-paths="true"
     inkscape:window-width="1870"
     inkscape:window-height="1141"
     inkscape:window-x="50"
     inkscape:window-y="30"
     inkscape:window-maximized="1">
    <inkscape:grid
       type="xygrid"
       id="grid815" />
  </sodipodi:namedview>
  <metadata
     id="metadata5">
    <rdf:RDF>
      <cc:Work
         rdf:about="">
        <dc:format>image/svg+xml</dc:format>
        <dc:type
           rdf:resource="http://purl.org/dc/dcmitype/StillImage" />
        <dc:title />
      </cc:Work>
    </rdf:RDF>
  </metadata>
  <g
     inkscape:label="Capa 1"
     inkscape:groupmode="layer"
     id="layer1"
     transform="translate(0,-280.06666)">
    <g
       transform="translate(-14.2875,-2.6458302)"
       id="layer1-5"
       inkscape:label="Capa 1">
      <g
         id="g855"
         transform="translate(-9.161716,-2.0253333)">
        <path
           id="rect4593-9"
           d="m 31.915883,285.26699 c 4.397374,0 7.937499,3.54012 7.937499,7.9375 0,4.39737 -3.540125,7.9375 -7.937499,7.9375 -4.397375,0 -7.9375,-3.54013 -7.9375,-7.9375 0,-4.39738 3.540125,-7.9375 7.9375,-7.9375 z"
           style="opacity:1;fill:#0070a0;fill-opacity:1;stroke:none;stroke-width:0.11906253;stroke-miterlimit:4;stroke-dasharray:none;stroke-opacity:1"
           inkscape:connector-curvature="0" />
        <path
           id="rect4593-5-3"
           d="m 31.915883,285.53157 c 4.250795,0 7.672916,3.42212 7.672916,7.67292 0,4.2508 -3.422121,7.67292 -7.672916,7.67292 -4.250796,0 -7.672917,-3.42212 -7.672917,-7.67292 0,-4.2508 3.422121,-7.67292 7.672917,-7.67292 z"
           style="opacity:1;fill:#0094d1;fill-opacity:1;stroke:none;stroke-width:0.11509378;stroke-miterlimit:4;stroke-dasharray:none;stroke-opacity:1"
           inkscape:connector-curvature="0" />
        <path
           id="path1074-0"
           d="m 31.51899,287.11959 c -0.219868,0 -0.396875,0.17701 -0.396875,0.39687 0,0.21987 0.177007,0.39688 0.396875,0.39688 0.219869,0 0.396875,-0.17701 0.396875,-0.39688 0,-0.21986 -0.177006,-0.39687 -0.396875,-0.39687 z m 1.322917,0.52917 c -0.366448,0 -0.661458,0.29501 -0.661458,0.66145 0,0.36645 0.29501,0.66146 0.661458,0.66146 0.366448,0 0.661458,-0.29501 0.661458,-0.66146 0,-0.36644 -0.29501,-0.66145 -0.661458,-0.66145 z m -1.5875,0.79375 c -0.366448,0 -0.661458,0.29501 -0.661458,0.66145 0,0.36645 0.29501,0.66146 0.661458,0.66146 0.366448,0 0.661458,-0.29501 0.661458,-0.66146 0,-0.36644 -0.29501,-0.66145 -0.661458,-0.66145 z m 1.852083,0.92604 c -0.513027,0 -0.926041,0.41301 -0.926041,0.92604 0,0.51302 0.413014,0.92604 0.926041,0.92604 0.513027,0 0.926042,-0.41302 0.926042,-0.92604 0,-0.51303 -0.413015,-0.92604 -0.926042,-0.92604 z m -2.38125,0.92604 c -0.513027,0 -0.926041,0.41301 -0.926041,0.92604 0,0.51302 0.413014,0.92604 0.926041,0.92604 0.513027,0 0.926042,-0.41302 0.926042,-0.92604 0,-0.51303 -0.413015,-0.92604 -0.926042,-0.92604 z m 3.90312,1.85983 a 0.26460976,0.26460976 0 0 0 -0.02635,5.3e-4 v 5.3e-4 a 0.26460976,0.26460976 0 0 0 -0.198953,0.10749 c -0.01995,0.0271 -0.04067,0.0536 -0.0615,0.0801 -0.06744,0.0798 -0.13897,0.15668 -0.213939,0.22944 -0.07596,0.0737 -0.155287,0.1435 -0.238231,0.20929 -0.08289,0.0658 -0.169336,0.1273 -0.258382,0.18449 -0.08906,0.0572 -0.180596,0.11012 -0.274918,0.15813 -0.09429,0.048 -0.191291,0.0913 -0.289904,0.1297 -0.09862,0.0382 -0.198823,0.0711 -0.300757,0.0992 a 0.26460976,0.26460976 0 0 0 -5.29e-4,5.3e-4 c -0.101968,0.0284 -0.205251,0.0512 -0.309541,0.0693 -0.104241,0.018 -0.209196,0.0308 -0.314709,0.0382 a 0.26460976,0.26460976 0 0 0 -5.3e-4,0 c -0.07477,0.005 -0.149312,0.008 -0.224277,0.008 -0.105603,3e-5 -0.211177,-0.005 -0.316259,-0.0155 h -5.29e-4 c -0.105183,-0.0107 -0.21008,-0.027 -0.313675,-0.0481 a 0.26460976,0.26460976 0 0 0 -5.29e-4,0 c -0.103799,-0.0209 -0.20628,-0.0468 -0.307475,-0.078 -0.100915,-0.0312 -0.200345,-0.0674 -0.297657,-0.10852 l -5.29e-4,-5.3e-4 c -0.09727,-0.0412 -0.192577,-0.0872 -0.285252,-0.13798 -0.09287,-0.0508 -0.183454,-0.10607 -0.270785,-0.16588 a 0.26460976,0.26460976 0 0 0 0,-5.3e-4 c -0.08722,-0.0595 -0.171845,-0.12328 -0.252699,-0.1912 l -5.29e-4,-5.3e-4 c -0.0808,-0.0681 -0.158422,-0.14068 -0.232029,-0.21652 -0.07296,-0.0752 -0.142039,-0.15364 -0.207221,-0.23565 -7.94e-4,-8.7e-4 -0.0013,-0.002 -0.0021,-0.003 v -5.3e-4 a 0.26460976,0.26460976 0 0 0 -0.396359,-0.0413 c -0.859549,0.7999 -1.34843,1.92093 -1.349666,3.09506 a 0.26460976,0.26460976 0 0 0 0,5.3e-4 c 0,2.33487 1.898462,4.23333 4.233333,4.23333 2.334871,0 4.233334,-1.89846 4.233334,-4.23333 a 0.26460976,0.26460976 0 0 0 0,-5.3e-4 c -0.0019,-1.17482 -0.492374,-2.29613 -1.353405,-3.09541 a 0.26460976,0.26460976 0 0 0 -0.167434,-0.0708 z"
           style="color:#000000;font-style:normal;font-variant:normal;font-weight:normal;font-stretch:normal;font-size:medium;line-height:normal;font-family:sans-serif;font-variant-ligatures:normal;font-variant-position:normal;font-variant-caps:normal;font-variant-numeric:normal;font-variant-alternates:normal;font-feature-settings:normal;text-indent:0;text-align:start;text-decoration:none;text-decoration-line:none;text-decoration-style:solid;text-decoration-color:#000000;letter-spacing:normal;word-spacing:normal;text-transform:none;writing-mode:lr-tb;direction:ltr;text-orientation:mixed;dominant-baseline:auto;baseline-shift:baseline;text-anchor:start;white-space:normal;shape-padding:0;clip-rule:nonzero;display:inline;overflow:visible;visibility:visible;opacity:1;isolation:auto;mix-blend-mode:normal;color-interpolation:sRGB;color-interpolation-filters:linearRGB;solid-color:#000000;solid-opacity:1;vector-effect:none;fill:#d9eff9;fill-opacity:1;fill-rule:nonzero;stroke:none;stroke-width:0.52916664;stroke-linecap:round;stroke-linejoin:round;stroke-miterlimit:4;stroke-dasharray:none;stroke-dashoffset:0;stroke-opacity:1;color-rendering:auto;image-rendering:auto;shape-rendering:auto;text-rendering:auto;enable-background:accumulate"
           inkscape:connector-curvature="0" />
      </g>
    </g>
  </g>
</svg>
