<?xml version="1.0" encoding="UTF-8" standalone="no"?>
<!-- Created with Inkscape (http://www.inkscape.org/) -->

<svg
   xmlns:dc="http://purl.org/dc/elements/1.1/"
   xmlns:cc="http://creativecommons.org/ns#"
   xmlns:rdf="http://www.w3.org/1999/02/22-rdf-syntax-ns#"
   xmlns:svg="http://www.w3.org/2000/svg"
   xmlns="http://www.w3.org/2000/svg"
   xmlns:xlink="http://www.w3.org/1999/xlink"
   xmlns:sodipodi="http://sodipodi.sourceforge.net/DTD/sodipodi-0.dtd"
   xmlns:inkscape="http://www.inkscape.org/namespaces/inkscape"
   width="64"
   height="64"
   viewBox="0 0 16.933333 16.933333"
   version="1.1"
   id="svg8"
   inkscape:version="0.92.3 (2405546, 2018-03-11)"
   sodipodi:docname="neon.svg">
  <defs
     id="defs2">
    <linearGradient
       gradientTransform="matrix(0.26458333,0,0,0.26458333,2.6458334,212.9551)"
       gradientUnits="userSpaceOnUse"
       y2="258.64999"
       x2="16"
       y1="320.47144"
       x1="16"
       id="linearGradient4204"
       xlink:href="#linearGradient4367-5"
       inkscape:collect="always" />
    <linearGradient
       inkscape:collect="always"
       id="linearGradient4367-5">
      <stop
         style="stop-color:#527fba;stop-opacity:1"
         offset="0"
         id="stop4369-3" />
      <stop
         style="stop-color:#5e9c76;stop-opacity:1"
         offset="1"
         id="stop4371-5" />
    </linearGradient>
    <linearGradient
       gradientTransform="translate(-1.5875,1.3229095)"
       inkscape:collect="always"
       xlink:href="#linearGradient4737-6"
       id="linearGradient4616"
       x1="7.4083333"
       y1="295.94168"
       x2="7.4083333"
       y2="281.125"
       gradientUnits="userSpaceOnUse" />
    <linearGradient
       inkscape:collect="always"
       id="linearGradient4737-6">
      <stop
         style="stop-color:#8bb7f0;stop-opacity:1"
         offset="0"
         id="stop4733-2" />
      <stop
         style="stop-color:#99c99e;stop-opacity:1"
         offset="1"
         id="stop4735-9" />
    </linearGradient>
  </defs>
  <sodipodi:namedview
     id="base"
     pagecolor="#ffffff"
     bordercolor="#666666"
     borderopacity="1.0"
     inkscape:pageopacity="0.0"
     inkscape:pageshadow="2"
     inkscape:zoom="11.2"
     inkscape:cx="11.774357"
     inkscape:cy="29.512999"
     inkscape:document-units="px"
     inkscape:current-layer="layer1"
     showgrid="true"
     units="px"
     inkscape:showpageshadow="false"
     inkscape:snap-bbox="true"
     inkscape:bbox-paths="true"
     inkscape:bbox-nodes="true"
     inkscape:snap-bbox-edge-midpoints="true"
     inkscape:snap-bbox-midpoints="true"
     inkscape:object-paths="true"
     inkscape:snap-intersection-paths="true"
     inkscape:window-width="1874"
     inkscape:window-height="1141"
     inkscape:window-x="46"
     inkscape:window-y="30"
     inkscape:window-maximized="1">
    <inkscape:grid
       type="xygrid"
       id="grid815" />
  </sodipodi:namedview>
  <metadata
     id="metadata5">
    <rdf:RDF>
      <cc:Work
         rdf:about="">
        <dc:format>image/svg+xml</dc:format>
        <dc:type
           rdf:resource="http://purl.org/dc/dcmitype/StillImage" />
        <dc:title></dc:title>
      </cc:Work>
    </rdf:RDF>
  </metadata>
  <g
     inkscape:label="Capa 1"
     inkscape:groupmode="layer"
     id="layer1"
     transform="translate(0,-280.06666)">
    <g
       id="g19925"
       transform="translate(1.5875,-1.3229135)">
      <path
         id="rect4593-59"
         d="m 6.8791666,281.91874 c 4.3973744,0 7.9374994,3.54012 7.9374994,7.9375 0,4.39737 -3.540125,7.9375 -7.9374994,7.9375 -4.3973747,0 -7.9374996,-3.54013 -7.9374996,-7.9375 0,-4.39738 3.5401249,-7.9375 7.9374996,-7.9375 z"
         style="opacity:1;fill:url(#linearGradient4204);fill-opacity:1;stroke:none;stroke-width:0.11906253;stroke-miterlimit:4;stroke-dasharray:none;stroke-opacity:1"
         inkscape:connector-curvature="0" />
      <path
         id="rect4593-5-7"
         d="m 6.8791666,282.18332 c 4.2507954,0 7.6729164,3.42212 7.6729164,7.67292 0,4.2508 -3.422121,7.67292 -7.6729164,7.67292 -4.2507958,0 -7.67291659,-3.42212 -7.67291659,-7.67292 0,-4.2508 3.42212079,-7.67292 7.67291659,-7.67292 z"
         style="opacity:1;fill:url(#linearGradient4616);fill-opacity:1;stroke:none;stroke-width:0.11509378;stroke-miterlimit:4;stroke-dasharray:none;stroke-opacity:1"
         inkscape:connector-curvature="0" />
      <path
         inkscape:connector-curvature="0"
         style="opacity:1;fill:#f6fafb;fill-opacity:1;stroke:none;stroke-width:0.52916664;stroke-linecap:round;stroke-linejoin:round;stroke-miterlimit:4;stroke-dasharray:none;stroke-opacity:1"
         d="m 6.8791666,283.50624 c -0.3649909,0 -0.6677353,0.24544 -0.7611938,0.57981 -1.1699404,0.15161 -2.2281078,0.64733 -3.0711304,1.38389 -0.1179166,-0.0693 -0.2538245,-0.11162 -0.4010091,-0.11162 -0.4397372,0 -0.79375,0.35402 -0.79375,0.79375 0,0.18508 0.065634,0.35261 0.1710489,0.48731 -0.4773866,0.72102 -0.7974771,1.55531 -0.914156,2.45567 -0.33436775,0.0934 -0.57980955,0.3962 -0.57980955,0.76119 0,0.36499 0.2454418,0.66774 0.57980955,0.76119 0.1166789,0.90036 0.4367694,1.73465 0.914156,2.45567 -0.1054145,0.1347 -0.1710489,0.30223 -0.1710489,0.48731 0,0.43973 0.3540128,0.79375 0.79375,0.79375 0.1471846,0 0.2830925,-0.0424 0.4010091,-0.11162 0.8430226,0.73656 1.90119,1.23228 3.0711304,1.38389 0.093459,0.33437 0.3962029,0.57981 0.7611938,0.57981 0.3649908,0 0.6677353,-0.24544 0.7611938,-0.57981 1.1699404,-0.15161 2.2281076,-0.64733 3.0711306,-1.38389 0.117916,0.0693 0.253824,0.11162 0.401009,0.11162 0.439737,0 0.79375,-0.35402 0.79375,-0.79375 0,-0.18508 -0.06563,-0.35261 -0.171049,-0.48731 0.477387,-0.72102 0.797477,-1.55531 0.914156,-2.45567 0.334368,-0.0935 0.579809,-0.3962 0.579809,-0.76119 0,-0.36499 -0.245441,-0.66774 -0.579809,-0.76119 -0.116679,-0.90036 -0.436769,-1.73465 -0.914156,-2.45567 0.105414,-0.1347 0.171049,-0.30223 0.171049,-0.48731 0,-0.43973 -0.354013,-0.79375 -0.79375,-0.79375 -0.147185,0 -0.283093,0.0424 -0.401009,0.11162 -0.843023,-0.73656 -1.9011902,-1.23228 -3.0711306,-1.38389 -0.093459,-0.33437 -0.396203,-0.57981 -0.7611938,-0.57981 z m -0.5612061,1.35599 c 0.1434298,0.14317 0.3416006,0.23151 0.5612061,0.23151 0.2196055,0 0.4177763,-0.0883 0.5612061,-0.23151 1.1128779,0.12275 2.1116093,0.60724 2.8825113,1.33222 0.01973,0.37029 0.28855,0.67136 0.644405,0.7369 0.486741,0.68045 0.809109,1.48625 0.905888,2.36368 -0.143167,0.14343 -0.231511,0.3416 -0.231511,0.56121 0,0.21961 0.08834,0.41778 0.231511,0.56121 -0.09678,0.87743 -0.419147,1.68323 -0.905888,2.36368 -0.355855,0.0655 -0.624676,0.36661 -0.644405,0.7369 -0.770902,0.72498 -1.7696334,1.20947 -2.8825113,1.33222 -0.1434298,-0.14317 -0.3416006,-0.23151 -0.5612061,-0.23151 -0.2196055,0 -0.4177763,0.0883 -0.5612061,0.23151 -1.112878,-0.12275 -2.1116089,-0.60724 -2.8825113,-1.33222 -0.01973,-0.37029 -0.2885498,-0.67136 -0.6444051,-0.7369 -0.4867405,-0.68045 -0.8091085,-1.48625 -0.9058878,-2.36368 0.1431671,-0.14343 0.2315104,-0.3416 0.2315104,-0.56121 0,-0.21961 -0.088343,-0.41778 -0.2315104,-0.56121 0.096779,-0.87743 0.4191473,-1.68323 0.9058878,-2.36368 0.3558553,-0.0655 0.6246759,-0.36661 0.6444051,-0.7369 0.7709024,-0.72498 1.7696333,-1.20947 2.8825113,-1.33222 z m 0.5612061,1.02526 c -0.3794244,0 -0.6936433,0.2643 -0.7730794,0.61908 -1.5302997,0.34938 -2.6665039,1.7105 -2.6665039,3.34967 0,1.63917 1.1362042,3.00029 2.6665039,3.34967 0.079436,0.35478 0.393655,0.61908 0.7730794,0.61908 0.3794244,0 0.6936433,-0.2643 0.7730794,-0.61908 1.5303,-0.34938 2.666504,-1.7105 2.666504,-3.34967 0,-1.63917 -1.136204,-3.00029 -2.666504,-3.34967 -0.079436,-0.35478 -0.393655,-0.61908 -0.7730794,-0.61908 z m -0.535368,1.37718 c 0.1411404,0.12948 0.3278473,0.21032 0.535368,0.21032 0.2075206,0 0.3942276,-0.0808 0.5353679,-0.21032 1.2072747,0.24633 2.1104655,1.3094 2.1104655,2.59157 0,1.28217 -0.9031908,2.34524 -2.1104655,2.59157 -0.1411403,-0.12948 -0.3278473,-0.21032 -0.5353679,-0.21032 -0.2075207,0 -0.3942276,0.0808 -0.535368,0.21032 -1.2072747,-0.24633 -2.1104653,-1.3094 -2.1104653,-2.59157 0,-1.28217 0.9031906,-2.34524 2.1104653,-2.59157 z m 0.535368,1.26865 c -0.7328958,0 -1.3229167,0.59002 -1.3229167,1.32292 0,0.7329 0.5900209,1.32292 1.3229167,1.32292 0.7328958,0 1.3229166,-0.59002 1.3229166,-1.32292 0,-0.7329 -0.5900208,-1.32292 -1.3229166,-1.32292 z"
         id="rect4211-1-2" />
    </g>
  </g>
</svg>
