<?xml version="1.0" encoding="UTF-8" standalone="no"?>
<!-- Created with Inkscape (http://www.inkscape.org/) -->

<svg
   xmlns:dc="http://purl.org/dc/elements/1.1/"
   xmlns:cc="http://creativecommons.org/ns#"
   xmlns:rdf="http://www.w3.org/1999/02/22-rdf-syntax-ns#"
   xmlns:svg="http://www.w3.org/2000/svg"
   xmlns="http://www.w3.org/2000/svg"
   xmlns:sodipodi="http://sodipodi.sourceforge.net/DTD/sodipodi-0.dtd"
   xmlns:inkscape="http://www.inkscape.org/namespaces/inkscape"
   width="64"
   height="64"
   viewBox="0 0 16.933333 16.933333"
   version="1.1"
   id="svg8"
   inkscape:version="0.92.3 (2405546, 2018-03-11)"
   sodipodi:docname="start-here.svg">
  <defs
     id="defs2" />
  <sodipodi:namedview
     id="base"
     pagecolor="#ffffff"
     bordercolor="#666666"
     borderopacity="1.0"
     inkscape:pageopacity="0.0"
     inkscape:pageshadow="2"
     inkscape:zoom="11.2"
     inkscape:cx="11.774357"
     inkscape:cy="29.512999"
     inkscape:document-units="px"
     inkscape:current-layer="layer1"
     showgrid="true"
     units="px"
     inkscape:showpageshadow="false"
     inkscape:snap-bbox="true"
     inkscape:bbox-paths="true"
     inkscape:bbox-nodes="true"
     inkscape:snap-bbox-edge-midpoints="true"
     inkscape:snap-bbox-midpoints="true"
     inkscape:object-paths="true"
     inkscape:snap-intersection-paths="true"
     inkscape:window-width="1874"
     inkscape:window-height="1141"
     inkscape:window-x="46"
     inkscape:window-y="30"
     inkscape:window-maximized="1">
    <inkscape:grid
       type="xygrid"
       id="grid815" />
  </sodipodi:namedview>
  <metadata
     id="metadata5">
    <rdf:RDF>
      <cc:Work
         rdf:about="">
        <dc:format>image/svg+xml</dc:format>
        <dc:type
           rdf:resource="http://purl.org/dc/dcmitype/StillImage" />
        <dc:title></dc:title>
      </cc:Work>
    </rdf:RDF>
  </metadata>
  <g
     inkscape:label="Capa 1"
     inkscape:groupmode="layer"
     id="layer1"
     transform="translate(0,-280.06666)">
    <g
       id="g2198"
       transform="translate(5.6942851,-2.3835335)">
      <path
         id="rect4593-7"
         d="m 2.7723814,282.97936 c 4.3973744,0 7.9374996,3.54012 7.9374996,7.9375 0,4.39737 -3.5401252,7.9375 -7.9374996,7.9375 -4.3973747,0 -7.9374996,-3.54013 -7.9374996,-7.9375 0,-4.39738 3.5401249,-7.9375 7.9374996,-7.9375 z"
         style="opacity:1;fill:#4f92db;fill-opacity:1;stroke:none;stroke-width:0.11906253;stroke-miterlimit:4;stroke-dasharray:none;stroke-opacity:1"
         inkscape:connector-curvature="0" />
      <path
         id="rect4593-5-9"
         d="m 2.7723814,283.24394 c 4.2507954,0 7.6729166,3.42212 7.6729166,7.67292 0,4.2508 -3.4221212,7.67292 -7.6729166,7.67292 -4.2507958,0 -7.6729165,-3.42212 -7.6729165,-7.67292 0,-4.2508 3.4221207,-7.67292 7.6729165,-7.67292 z"
         style="opacity:1;fill:#5abfff;fill-opacity:1;stroke:none;stroke-width:0.11509378;stroke-miterlimit:4;stroke-dasharray:none;stroke-opacity:1"
         inkscape:connector-curvature="0" />
      <path
         style="opacity:1;fill:#e0f6ff;fill-opacity:1;stroke:none;stroke-width:0.07937501;stroke-miterlimit:4;stroke-dasharray:none;stroke-opacity:1"
         d="m -0.13803521,286.94811 c -0.5863164,0 -1.05833329,0.47201 -1.05833329,1.05833 0,0.58632 0.47201689,1.05834 1.05833329,1.05834 0.5863161,0 1.0583333,-0.47202 1.0583333,-1.05834 0,-0.58632 -0.4720172,-1.05833 -1.0583333,-1.05833 z m 2.91041661,0 c -0.5863148,0 -1.0583333,0.47202 -1.0583333,1.05833 0,0.58632 0.4720185,1.05834 1.0583333,1.05834 0.586315,0 1.0583333,-0.47202 1.0583333,-1.05834 0,-0.58631 -0.4720183,-1.05833 -1.0583333,-1.05833 z m 2.9104164,0 c -0.586315,0 -1.0583331,0.47202 -1.0583331,1.05833 0,0.58632 0.4720181,1.05834 1.0583331,1.05834 0.586314,0 1.058334,-0.47202 1.058334,-1.05834 0,-0.58631 -0.47202,-1.05833 -1.058334,-1.05833 z m -5.82083301,2.91042 c -0.5863143,0 -1.05833329,0.47202 -1.05833329,1.05833 0,0.58632 0.47201899,1.05833 1.05833329,1.05833 0.5863137,0 1.0583333,-0.47201 1.0583333,-1.05833 0,-0.58631 -0.4720196,-1.05833 -1.0583333,-1.05833 z m 2.91041661,0 c -0.5863148,0 -1.0583333,0.47202 -1.0583333,1.05833 0,0.58632 0.4720185,1.05833 1.0583333,1.05833 0.586315,0 1.0583333,-0.47201 1.0583333,-1.05833 0,-0.58631 -0.4720183,-1.05833 -1.0583333,-1.05833 z m 2.9104164,0 c -0.586315,0 -1.0583331,0.47202 -1.0583331,1.05833 0,0.58632 0.4720181,1.05833 1.0583331,1.05833 0.586314,0 1.058334,-0.47201 1.058334,-1.05833 0,-0.58631 -0.47202,-1.05833 -1.058334,-1.05833 z m -5.82083301,2.91041 c -0.5863143,0 -1.05833329,0.47202 -1.05833329,1.05834 0,0.58632 0.47201899,1.05833 1.05833329,1.05833 0.5863137,0 1.0583333,-0.47201 1.0583333,-1.05833 0,-0.58632 -0.4720196,-1.05834 -1.0583333,-1.05834 z m 2.91041661,0 c -0.5863148,0 -1.0583333,0.47202 -1.0583333,1.05834 0,0.58632 0.4720185,1.05833 1.0583333,1.05833 0.586315,0 1.0583333,-0.47201 1.0583333,-1.05833 0,-0.58632 -0.4720183,-1.05834 -1.0583333,-1.05834 z m 2.9104164,0 c -0.586315,0 -1.0583331,0.47202 -1.0583331,1.05834 0,0.58632 0.4720181,1.05833 1.0583331,1.05833 0.586314,0 1.058334,-0.47201 1.058334,-1.05833 0,-0.58632 -0.47202,-1.05834 -1.058334,-1.05834 z"
         id="rect4618"
         inkscape:connector-curvature="0" />
    </g>
  </g>
</svg>
