<?xml version="1.0" encoding="UTF-8" standalone="no"?>
<!-- Created with Inkscape (http://www.inkscape.org/) -->

<svg
   xmlns:dc="http://purl.org/dc/elements/1.1/"
   xmlns:cc="http://creativecommons.org/ns#"
   xmlns:rdf="http://www.w3.org/1999/02/22-rdf-syntax-ns#"
   xmlns:svg="http://www.w3.org/2000/svg"
   xmlns="http://www.w3.org/2000/svg"
   xmlns:sodipodi="http://sodipodi.sourceforge.net/DTD/sodipodi-0.dtd"
   xmlns:inkscape="http://www.inkscape.org/namespaces/inkscape"
   width="64"
   height="64"
   viewBox="0 0 16.933333 16.933333"
   version="1.1"
   id="svg8"
   inkscape:version="0.92.3 (2405546, 2018-03-11)"
   sodipodi:docname="start-here-kde.svg">
  <defs
     id="defs2" />
  <sodipodi:namedview
     id="base"
     pagecolor="#ffffff"
     bordercolor="#666666"
     borderopacity="1.0"
     inkscape:pageopacity="0.0"
     inkscape:pageshadow="2"
     inkscape:zoom="11.2"
     inkscape:cx="11.774357"
     inkscape:cy="29.512999"
     inkscape:document-units="px"
     inkscape:current-layer="layer1"
     showgrid="true"
     units="px"
     inkscape:showpageshadow="false"
     inkscape:snap-bbox="true"
     inkscape:bbox-paths="true"
     inkscape:bbox-nodes="true"
     inkscape:snap-bbox-edge-midpoints="true"
     inkscape:snap-bbox-midpoints="true"
     inkscape:object-paths="true"
     inkscape:snap-intersection-paths="true"
     inkscape:window-width="1874"
     inkscape:window-height="1141"
     inkscape:window-x="46"
     inkscape:window-y="30"
     inkscape:window-maximized="1">
    <inkscape:grid
       type="xygrid"
       id="grid815" />
  </sodipodi:namedview>
  <metadata
     id="metadata5">
    <rdf:RDF>
      <cc:Work
         rdf:about="">
        <dc:format>image/svg+xml</dc:format>
        <dc:type
           rdf:resource="http://purl.org/dc/dcmitype/StillImage" />
        <dc:title></dc:title>
      </cc:Work>
    </rdf:RDF>
  </metadata>
  <g
     inkscape:label="Capa 1"
     inkscape:groupmode="layer"
     id="layer1"
     transform="translate(0,-280.06666)">
    <g
       id="g1496"
       transform="translate(1.0583332,-1.5875035)">
      <path
         inkscape:connector-curvature="0"
         style="opacity:1;fill:#a3b7cc;fill-opacity:1;stroke:none;stroke-width:0.11906253;stroke-miterlimit:4;stroke-dasharray:none;stroke-opacity:1"
         d="m 7.4083332,282.18333 c 4.3973748,0 7.9374998,3.54012 7.9374998,7.9375 0,4.39737 -3.540125,7.9375 -7.9374998,7.9375 -4.3973747,0 -7.93749959,-3.54013 -7.93749959,-7.9375 0,-4.39738 3.54012489,-7.9375 7.93749959,-7.9375 z"
         id="rect4593" />
      <path
         inkscape:connector-curvature="0"
         style="opacity:1;fill:#ffffff;fill-opacity:1;stroke:none;stroke-width:0.11509378;stroke-miterlimit:4;stroke-dasharray:none;stroke-opacity:1"
         d="m 7.4083332,282.44791 c 4.2507958,0 7.6729168,3.42212 7.6729168,7.67292 0,4.2508 -3.422121,7.67292 -7.6729168,7.67292 -4.2507958,0 -7.67291653,-3.42212 -7.67291653,-7.67292 0,-4.2508 3.42212073,-7.67292 7.67291653,-7.67292 z"
         id="rect4593-5" />
      <path
         id="rect4119"
         d="m 4.4979139,285.35832 c 0.4397375,0 0.79375,0.35402 0.79375,0.79375 0,0.43974 -0.3540125,0.79375 -0.79375,0.79375 -0.4397375,0 -0.79375,-0.35401 -0.79375,-0.79375 0,-0.43973 0.3540125,-0.79375 0.79375,-0.79375 z"
         style="fill:#c74343;fill-opacity:1;stroke-width:0.2539992"
         inkscape:connector-curvature="0" />
      <path
         id="rect4308"
         d="m 3.4395753,288.53332 h 1.06e-5 c 0.7328932,0 1.3229114,0.59003 1.3229114,1.32292 v 0 c 0,0.73289 -0.5900182,1.32291 -1.3229114,1.32291 h -1.06e-5 c -0.7328932,0 -1.3229113,-0.59002 -1.3229113,-1.32291 v 0 c 0,-0.73289 0.5900181,-1.32292 1.3229113,-1.32292 z"
         style="fill:#5e9c76;fill-opacity:1;stroke-width:0.29398084"
         inkscape:connector-curvature="0" />
      <path
         id="rect4312"
         d="m 5.2916639,292.50208 c 1.0260542,0 1.8520833,0.82603 1.8520833,1.85209 0,1.02605 -0.8260291,1.85208 -1.8520833,1.85208 -1.0260541,0 -1.8520833,-0.82603 -1.8520833,-1.85208 0,-1.02606 0.8260292,-1.85209 1.8520833,-1.85209 z"
         style="fill:#4f92db;fill-opacity:1;stroke-width:0.28493601"
         inkscape:connector-curvature="0" />
      <path
         id="rect4308-6"
         d="m 3.439578,288.79791 h 5.3e-6 c 0.5863166,0 1.0583306,0.47201 1.0583306,1.05833 v 0 c 0,0.58631 -0.472014,1.05833 -1.0583306,1.05833 h -5.3e-6 c -0.586314,0 -1.0583307,-0.47202 -1.0583307,-1.05833 v 0 c 0,-0.58632 0.4720167,-1.05833 1.0583307,-1.05833 z"
         style="fill:#bae0bd;fill-opacity:1;stroke-width:0.23518465"
         inkscape:connector-curvature="0" />
      <path
         id="rect4119-7"
         d="m 4.4979139,285.62291 c 0.2931584,0 0.5291667,0.23601 0.5291667,0.52916 0,0.29316 -0.2360083,0.52917 -0.5291667,0.52917 -0.2931583,0 -0.5291666,-0.23601 -0.5291666,-0.52917 0,-0.29315 0.2360083,-0.52916 0.5291666,-0.52916 z"
         style="fill:#f78f8f;fill-opacity:1;stroke-width:0.1693328"
         inkscape:connector-curvature="0" />
      <path
         id="rect4312-5"
         d="m 5.2916639,292.76667 c 0.879475,0 1.5875,0.70802 1.5875,1.5875 0,0.87947 -0.708025,1.5875 -1.5875,1.5875 -0.879475,0 -1.5875,-0.70803 -1.5875,-1.5875 0,-0.87948 0.708025,-1.5875 1.5875,-1.5875 z"
         style="fill:#5abfff;fill-opacity:1;stroke-width:0.24423087"
         inkscape:connector-curvature="0" />
      <path
         sodipodi:nodetypes="ccccccccccccc"
         inkscape:connector-curvature="0"
         id="path914-3"
         d="m 8.7271647,284.3 c -0.068734,10e-4 -0.1343396,0.0289 -0.1829356,0.0775 l -1.3229166,1.32292 c -0.1032854,0.10333 -0.1032854,0.27081 0,0.37413 l 2.7233481,2.72335 -2.7233481,2.72335 c -0.1032854,0.10333 -0.1032854,0.27081 0,0.37414 l 1.3229166,1.32291 c 0.1033277,0.10329 0.2708116,0.10329 0.3741393,0 l 4.2333336,-4.23333 c 0.103285,-0.10333 0.103285,-0.27081 0,-0.37414 L 8.9183684,284.3775 C 8.8677484,284.3269 8.7987609,284.2989 8.7271647,284.3 Z"
         style="color:#000000;font-style:normal;font-variant:normal;font-weight:normal;font-stretch:normal;font-size:medium;line-height:normal;font-family:sans-serif;font-variant-ligatures:normal;font-variant-position:normal;font-variant-caps:normal;font-variant-numeric:normal;font-variant-alternates:normal;font-feature-settings:normal;text-indent:0;text-align:start;text-decoration:none;text-decoration-line:none;text-decoration-style:solid;text-decoration-color:#000000;letter-spacing:normal;word-spacing:normal;text-transform:none;writing-mode:lr-tb;direction:ltr;text-orientation:mixed;dominant-baseline:auto;baseline-shift:baseline;text-anchor:start;white-space:normal;shape-padding:0;clip-rule:nonzero;display:inline;overflow:visible;visibility:visible;opacity:1;isolation:auto;mix-blend-mode:normal;color-interpolation:sRGB;color-interpolation-filters:linearRGB;solid-color:#000000;solid-opacity:1;vector-effect:none;fill:#36404d;fill-opacity:1;fill-rule:nonzero;stroke:none;stroke-width:0.52916664;stroke-linecap:round;stroke-linejoin:round;stroke-miterlimit:4;stroke-dasharray:none;stroke-dashoffset:0;stroke-opacity:1;color-rendering:auto;image-rendering:auto;shape-rendering:auto;text-rendering:auto;enable-background:accumulate" />
      <path
         inkscape:connector-curvature="0"
         id="path914"
         d="m 7.4083332,291.70833 1.3229166,1.32292 4.2333332,-4.23334 -4.2333332,-4.23333 -1.3229166,1.32292 2.9104168,2.91041 z"
         style="fill:#4b6477;fill-opacity:1;stroke:none;stroke-width:0.52916664;stroke-linecap:round;stroke-linejoin:round;stroke-miterlimit:4;stroke-dasharray:none;stroke-opacity:1" />
    </g>
  </g>
</svg>
