<?xml version="1.0" encoding="UTF-8" standalone="no"?>
<!-- Created with Inkscape (http://www.inkscape.org/) -->

<svg
   xmlns:dc="http://purl.org/dc/elements/1.1/"
   xmlns:cc="http://creativecommons.org/ns#"
   xmlns:rdf="http://www.w3.org/1999/02/22-rdf-syntax-ns#"
   xmlns:svg="http://www.w3.org/2000/svg"
   xmlns="http://www.w3.org/2000/svg"
   xmlns:sodipodi="http://sodipodi.sourceforge.net/DTD/sodipodi-0.dtd"
   xmlns:inkscape="http://www.inkscape.org/namespaces/inkscape"
   width="64"
   height="64"
   viewBox="0 0 16.933333 16.933333"
   version="1.1"
   id="svg8"
   inkscape:version="0.92.4 5da689c313, 2019-01-14"
   sodipodi:docname="ubuntu.svg">
  <defs
     id="defs2" />
  <sodipodi:namedview
     id="base"
     pagecolor="#ffffff"
     bordercolor="#666666"
     borderopacity="1.0"
     inkscape:pageopacity="0.0"
     inkscape:pageshadow="2"
     inkscape:zoom="5.6"
     inkscape:cx="12.682933"
     inkscape:cy="16.504179"
     inkscape:document-units="px"
     inkscape:current-layer="layer1"
     showgrid="true"
     units="px"
     inkscape:showpageshadow="false"
     inkscape:snap-bbox="true"
     inkscape:bbox-paths="true"
     inkscape:bbox-nodes="true"
     inkscape:snap-bbox-edge-midpoints="true"
     inkscape:snap-bbox-midpoints="true"
     inkscape:object-paths="true"
     inkscape:snap-intersection-paths="true"
     inkscape:window-width="1870"
     inkscape:window-height="1141"
     inkscape:window-x="50"
     inkscape:window-y="30"
     inkscape:window-maximized="1">
    <inkscape:grid
       type="xygrid"
       id="grid815" />
  </sodipodi:namedview>
  <metadata
     id="metadata5">
    <rdf:RDF>
      <cc:Work
         rdf:about="">
        <dc:format>image/svg+xml</dc:format>
        <dc:type
           rdf:resource="http://purl.org/dc/dcmitype/StillImage" />
        <dc:title></dc:title>
      </cc:Work>
    </rdf:RDF>
  </metadata>
  <g
     inkscape:label="Capa 1"
     inkscape:groupmode="layer"
     id="layer1"
     transform="translate(0,-280.06666)">
    <g
       id="g841"
       transform="translate(-5.2916668,-1.3229135)">
      <path
         inkscape:connector-curvature="0"
         style="opacity:1;fill:#d16040;fill-opacity:1;stroke:none;stroke-width:0.11906253;stroke-miterlimit:4;stroke-dasharray:none;stroke-opacity:1"
         d="m 13.758333,281.91874 c 4.397375,0 7.9375,3.54012 7.9375,7.9375 0,4.39737 -3.540125,7.9375 -7.9375,7.9375 -4.3973745,0 -7.9374994,-3.54013 -7.9374994,-7.9375 0,-4.39738 3.5401249,-7.9375 7.9374994,-7.9375 z"
         id="rect4593-9" />
      <path
         inkscape:connector-curvature="0"
         style="opacity:1;fill:#ff8f64;fill-opacity:1;stroke:none;stroke-width:0.11509378;stroke-miterlimit:4;stroke-dasharray:none;stroke-opacity:1"
         d="m 13.758333,282.18332 c 4.250796,0 7.672917,3.42212 7.672917,7.67292 0,4.2508 -3.422121,7.67292 -7.672917,7.67292 -4.2507956,0 -7.6729163,-3.42212 -7.6729163,-7.67292 0,-4.2508 3.4221207,-7.67292 7.6729163,-7.67292 z"
         id="rect4593-5-3" />
      <path
         style="fill:#ffffff;fill-opacity:1;stroke:none;stroke-width:0.52916664;stroke-linecap:round;stroke-linejoin:round;stroke-miterlimit:4;stroke-dasharray:none;stroke-opacity:1"
         d="m 16.668742,283.50623 a 1.3229166,1.3229166 0 0 0 -1.322917,1.32292 1.3229166,1.3229166 0 0 0 1.322917,1.32292 1.3229166,1.3229166 0 0 0 1.322916,-1.32292 1.3229166,1.3229166 0 0 0 -1.322916,-1.32292 z m -2.878894,1.5875 a 4.7624999,4.7624999 0 0 0 -2.694924,0.81442 l 1.036111,1.53531 a 2.9104166,2.9104166 0 0 1 0.248564,-0.15038 2.9104166,2.9104166 0 0 1 0.263033,-0.12505 2.9104166,2.9104166 0 0 1 0.273885,-0.0977 2.9104166,2.9104166 0 0 1 0.282153,-0.0703 2.9104166,2.9104166 0 0 1 0.288355,-0.0413 2.9104166,2.9104166 0 0 1 0.290421,-0.0129 2.9104166,2.9104166 0 0 1 0.290422,0.0165 2.9104166,2.9104166 0 0 1 0.28732,0.0455 2.9104166,2.9104166 0 0 1 0.281636,0.0739 2.9104166,2.9104166 0 0 1 0.235128,0.0858 2.9104166,2.9104166 0 0 1 0.263033,0.12453 2.9104166,2.9104166 0 0 1 0.249081,0.15039 2.9104166,2.9104166 0 0 1 0.233059,0.17415 2.9104166,2.9104166 0 0 1 0.213942,0.19688 2.9104166,2.9104166 0 0 1 0.193786,0.21704 2.9104166,2.9104166 0 0 1 0.171049,0.23513 2.9104166,2.9104166 0 0 1 0.146245,0.25167 2.9104166,2.9104166 0 0 1 0.120922,0.26458 2.9104166,2.9104166 0 0 1 0.09405,0.27543 2.9104166,2.9104166 0 0 1 0.05839,0.24339 l 1.817976,-0.35346 a 4.7624999,4.7624999 0 0 0 -1.297594,-2.44533 1.5875,1.5875 0 0 1 -0.01189,0.007 1.5875,1.5875 0 0 1 -0.144694,0.0646 1.5875,1.5875 0 0 1 -0.150378,0.0501 1.5875,1.5875 0 0 1 -0.15503,0.0346 1.5875,1.5875 0 0 1 -0.157613,0.0191 1.5875,1.5875 0 0 1 -0.112137,0.004 1.5875,1.5875 0 0 1 -0.158646,-0.008 1.5875,1.5875 0 0 1 -0.156581,-0.0238 1.5875,1.5875 0 0 1 -0.153996,-0.0393 1.5875,1.5875 0 0 1 -0.148828,-0.0543 1.5875,1.5875 0 0 1 -0.143143,-0.0692 1.5875,1.5875 0 0 1 -0.135393,-0.0832 1.5875,1.5875 0 0 1 -0.12609,-0.0956 1.5875,1.5875 0 0 1 -0.116272,-0.10852 1.5875,1.5875 0 0 1 -0.104387,-0.11886 1.5875,1.5875 0 0 1 -0.0925,-0.12919 1.5875,1.5875 0 0 1 -0.07906,-0.13797 1.5875,1.5875 0 0 1 -0.0646,-0.1447 1.5875,1.5875 0 0 1 -0.05013,-0.15038 1.5875,1.5875 0 0 1 -0.03462,-0.15503 1.5875,1.5875 0 0 1 -0.01757,-0.14366 4.7624999,4.7624999 0 0 0 -1.032494,-0.12609 z m -3.457151,1.45418 a 4.7624999,4.7624999 0 0 0 -1.2407507,2.37918 1.5875,1.5875 0 0 1 0.1359088,0.0651 1.5875,1.5875 0 0 1 0.1353931,0.0832 1.5875,1.5875 0 0 1 0.1260899,0.0956 1.5875,1.5875 0 0 1 0.1162719,0.10852 1.5875,1.5875 0 0 1 0.1043861,0.11886 1.5875,1.5875 0 0 1 0.0925,0.12919 1.5875,1.5875 0 0 1 0.07906,0.13798 1.5875,1.5875 0 0 1 0.0646,0.14469 1.5875,1.5875 0 0 1 0.05013,0.15038 1.5875,1.5875 0 0 1 0.03462,0.15503 1.5875,1.5875 0 0 1 0.01912,0.15761 1.5875,1.5875 0 0 1 0.0041,0.11214 1.5875,1.5875 0 0 1 -0.0078,0.15865 1.5875,1.5875 0 0 1 -0.02377,0.15658 1.5875,1.5875 0 0 1 -0.03927,0.15399 1.5875,1.5875 0 0 1 -0.05478,0.14883 1.5875,1.5875 0 0 1 -0.06873,0.14314 1.5875,1.5875 0 0 1 -0.0832,0.1354 1.5875,1.5875 0 0 1 -0.0956,0.12609 1.5875,1.5875 0 0 1 -0.108521,0.11627 1.5875,1.5875 0 0 1 -0.1188559,0.10438 1.5875,1.5875 0 0 1 -0.08578,0.0615 4.7624999,4.7624999 0 0 0 1.4583078,1.91875 l 1.140499,-1.45935 a 2.9104166,2.9104166 0 0 1 -0.220142,-0.19017 2.9104166,2.9104166 0 0 1 -0.199987,-0.21135 2.9104166,2.9104166 0 0 1 -0.177767,-0.23048 2.9104166,2.9104166 0 0 1 -0.153996,-0.24701 2.9104166,2.9104166 0 0 1 -0.128674,-0.26097 2.9104166,2.9104166 0 0 1 -0.101803,-0.27233 2.9104166,2.9104166 0 0 1 -0.0739,-0.28112 2.9104166,2.9104166 0 0 1 -0.04547,-0.28732 2.9104166,2.9104166 0 0 1 -0.0098,-0.10956 2.9104166,2.9104166 0 0 1 -0.0057,-0.29094 2.9104166,2.9104166 0 0 1 0.02325,-0.2899 2.9104166,2.9104166 0 0 1 0.05219,-0.28629 2.9104166,2.9104166 0 0 1 0.0801,-0.27957 2.9104166,2.9104166 0 0 1 0.108003,-0.27027 2.9104166,2.9104166 0 0 1 0.134359,-0.25786 2.9104166,2.9104166 0 0 1 0.15968,-0.2434 2.9104166,2.9104166 0 0 1 0.182935,-0.22634 2.9104166,2.9104166 0 0 1 0.07493,-0.0801 z m -2.1306182,2.51457 a 1.3229166,1.3229166 0 0 0 -1.3229163,1.32292 1.3229166,1.3229166 0 0 0 1.3229163,1.32292 1.3229166,1.3229166 0 0 0 1.3229161,-1.32292 1.3229166,1.3229166 0 0 0 -1.3229161,-1.32292 z m 8.4666632,0.79375 a 2.9104166,2.9104166 0 0 1 -0.01447,0.29042 2.9104166,2.9104166 0 0 1 -0.04341,0.28784 2.9104166,2.9104166 0 0 1 -0.07235,0.28164 2.9104166,2.9104166 0 0 1 -0.09974,0.27337 2.9104166,2.9104166 0 0 1 -0.12609,0.262 2.9104166,2.9104166 0 0 1 -0.152445,0.24804 2.9104166,2.9104166 0 0 1 -0.1757,0.23151 2.9104166,2.9104166 0 0 1 -0.198439,0.21291 2.9104166,2.9104166 0 0 1 -0.21859,0.19224 2.9104166,2.9104166 0 0 1 -0.236678,0.16898 2.9104166,2.9104166 0 0 1 -0.0088,0.006 2.9104166,2.9104166 0 0 1 -0.252698,0.14366 2.9104166,2.9104166 0 0 1 -0.266133,0.11783 2.9104166,2.9104166 0 0 1 -0.276469,0.0909 2.9104166,2.9104166 0 0 1 -0.284221,0.0625 2.9104166,2.9104166 0 0 1 -0.28887,0.0341 2.9104166,2.9104166 0 0 1 -0.290938,0.005 2.9104166,2.9104166 0 0 1 -0.289905,-0.0243 2.9104166,2.9104166 0 0 1 -0.285771,-0.0527 2.9104166,2.9104166 0 0 1 -0.279569,-0.0811 2.9104166,2.9104166 0 0 1 -0.26975,-0.10852 2.9104166,2.9104166 0 0 1 -0.0093,-0.005 l -0.782898,1.67897 a 4.7624999,4.7624999 0 0 0 3.620449,0.16278 1.5875,1.5875 0 0 1 -0.01602,-0.13385 1.5875,1.5875 0 0 1 -0.0041,-0.11213 1.5875,1.5875 0 0 1 0.0078,-0.15865 1.5875,1.5875 0 0 1 0.02377,-0.15658 1.5875,1.5875 0 0 1 0.03927,-0.154 1.5875,1.5875 0 0 1 0.05478,-0.14882 1.5875,1.5875 0 0 1 0.06873,-0.14315 1.5875,1.5875 0 0 1 0.0832,-0.13539 1.5875,1.5875 0 0 1 0.0956,-0.12609 1.5875,1.5875 0 0 1 0.10852,-0.11627 1.5875,1.5875 0 0 1 0.118857,-0.10439 1.5875,1.5875 0 0 1 0.129191,-0.0925 1.5875,1.5875 0 0 1 0.137975,-0.0791 1.5875,1.5875 0 0 1 0.144694,-0.0646 1.5875,1.5875 0 0 1 0.150379,-0.0501 1.5875,1.5875 0 0 1 0.15503,-0.0346 1.5875,1.5875 0 0 1 0.157612,-0.0191 1.5875,1.5875 0 0 1 0.112138,-0.004 1.5875,1.5875 0 0 1 0.158647,0.008 1.5875,1.5875 0 0 1 0.156579,0.0238 1.5875,1.5875 0 0 1 0.153996,0.0393 1.5875,1.5875 0 0 1 0.148828,0.0543 1.5875,1.5875 0 0 1 0.05581,0.0269 4.7624999,4.7624999 0 0 0 0.913639,-2.79777 z m 0.529166,3.175 a 1.3229166,1.3229166 0 0 0 -1.322916,1.32292 1.3229166,1.3229166 0 0 0 1.322916,1.32292 1.3229166,1.3229166 0 0 0 1.322917,-1.32292 1.3229166,1.3229166 0 0 0 -1.322917,-1.32292 z"
         id="path1012"
         inkscape:connector-curvature="0" />
    </g>
  </g>
</svg>
