<?xml version="1.0" encoding="UTF-8" standalone="no"?>
<!-- Created with Inkscape (http://www.inkscape.org/) -->

<svg
   xmlns:dc="http://purl.org/dc/elements/1.1/"
   xmlns:cc="http://creativecommons.org/ns#"
   xmlns:rdf="http://www.w3.org/1999/02/22-rdf-syntax-ns#"
   xmlns:svg="http://www.w3.org/2000/svg"
   xmlns="http://www.w3.org/2000/svg"
   xmlns:sodipodi="http://sodipodi.sourceforge.net/DTD/sodipodi-0.dtd"
   xmlns:inkscape="http://www.inkscape.org/namespaces/inkscape"
   width="64"
   height="64"
   viewBox="0 0 16.933333 16.933333"
   version="1.1"
   id="svg8"
   inkscape:version="0.92.3 (2405546, 2018-03-11)"
   sodipodi:docname="user-trash-full.svg">
  <defs
     id="defs2" />
  <sodipodi:namedview
     id="base"
     pagecolor="#ffffff"
     bordercolor="#666666"
     borderopacity="1.0"
     inkscape:pageopacity="0.0"
     inkscape:pageshadow="2"
     inkscape:zoom="11.2"
     inkscape:cx="11.774357"
     inkscape:cy="29.512999"
     inkscape:document-units="px"
     inkscape:current-layer="layer1"
     showgrid="true"
     units="px"
     inkscape:showpageshadow="false"
     inkscape:snap-bbox="true"
     inkscape:bbox-paths="true"
     inkscape:bbox-nodes="true"
     inkscape:snap-bbox-edge-midpoints="true"
     inkscape:snap-bbox-midpoints="true"
     inkscape:object-paths="true"
     inkscape:snap-intersection-paths="true"
     inkscape:window-width="1874"
     inkscape:window-height="1141"
     inkscape:window-x="46"
     inkscape:window-y="30"
     inkscape:window-maximized="1">
    <inkscape:grid
       type="xygrid"
       id="grid815" />
  </sodipodi:namedview>
  <metadata
     id="metadata5">
    <rdf:RDF>
      <cc:Work
         rdf:about="">
        <dc:format>image/svg+xml</dc:format>
        <dc:type
           rdf:resource="http://purl.org/dc/dcmitype/StillImage" />
        <dc:title></dc:title>
      </cc:Work>
    </rdf:RDF>
  </metadata>
  <g
     inkscape:label="Capa 1"
     inkscape:groupmode="layer"
     id="layer1"
     transform="translate(0,-280.06666)">
    <g
       id="g2979"
       transform="translate(-1.3363644,1.9604097)">
      <path
         inkscape:connector-curvature="0"
         id="rect5426"
         d="m 7.4217709,279.42919 h 3.1750211 c 0.293153,0 0.529156,0.236 0.529156,0.52916 v 3.96877 c 0,0.29315 -0.236003,0.52915 -0.529156,0.52915 H 7.4217709 c -0.2931525,0 -0.5291561,-0.236 -0.5291561,-0.52915 v -3.96877 c 0,-0.29316 0.2360036,-0.52916 0.5291561,-0.52916 z"
         style="opacity:1;fill:#4f92db;fill-opacity:1;stroke:none;stroke-width:0.07937501;stroke-miterlimit:4;stroke-dasharray:none;stroke-opacity:1" />
      <path
         inkscape:connector-curvature="0"
         id="rect5434"
         d="m 7.4217812,279.69378 h 3.1749998 c 0.146579,0 0.264583,0.118 0.264583,0.26458 v 3.96875 c 0,0.14658 -0.118004,0.26458 -0.264583,0.26458 H 7.4217812 c -0.1465792,0 -0.2645833,-0.118 -0.2645833,-0.26458 v -3.96875 c 0,-0.14658 0.1180041,-0.26458 0.2645833,-0.26458 z"
         style="opacity:1;fill:#5ac0ff;fill-opacity:1;stroke:none;stroke-width:0.07937501;stroke-miterlimit:4;stroke-dasharray:none;stroke-opacity:1" />
      <path
         inkscape:connector-curvature="0"
         id="rect5430"
         d="m 10.596771,280.22292 h 3.439603 c 0.293153,0 0.529156,0.23601 0.529156,0.52916 v 3.96878 c 0,0.29315 -0.236003,0.52916 -0.529156,0.52916 h -3.439603 c -0.293152,0 -0.529156,-0.23601 -0.529156,-0.52916 v -3.96878 c 0,-0.29315 0.236004,-0.52916 0.529156,-0.52916 z"
         style="opacity:1;fill:#ba9b48;fill-opacity:1;stroke:none;stroke-width:0.07937501;stroke-miterlimit:4;stroke-dasharray:none;stroke-opacity:1" />
      <path
         inkscape:connector-curvature="0"
         id="rect5424"
         d="m 6.0988532,281.28124 h 2.9104377 c 0.2931525,0 0.5291561,0.236 0.5291561,0.52916 v 1.58752 c 0,0.29315 -0.2360036,0.52915 -0.5291561,0.52915 H 6.0988532 c -0.2931525,0 -0.5291561,-0.236 -0.5291561,-0.52915 v -1.58752 c 0,-0.29316 0.2360036,-0.52916 0.5291561,-0.52916 z"
         style="opacity:1;fill:#5e9c76;fill-opacity:1;stroke:none;stroke-width:0.07937501;stroke-miterlimit:4;stroke-dasharray:none;stroke-opacity:1" />
      <path
         inkscape:connector-curvature="0"
         id="rect5432"
         d="m 6.0988637,281.54583 h 2.9104167 c 0.1465791,0 0.2645833,0.118 0.2645833,0.26458 v 1.5875 c 0,0.14658 -0.1180042,0.26458 -0.2645833,0.26458 H 6.0988637 c -0.1465791,0 -0.2645833,-0.118 -0.2645833,-0.26458 v -1.5875 c 0,-0.14658 0.1180042,-0.26458 0.2645833,-0.26458 z"
         style="opacity:1;fill:#99c99e;fill-opacity:1;stroke:none;stroke-width:0.07937501;stroke-miterlimit:4;stroke-dasharray:none;stroke-opacity:1" />
      <path
         inkscape:connector-curvature="0"
         id="rect5436"
         d="m 10.596781,280.48751 h 3.439584 c 0.146578,0 0.264582,0.118 0.264582,0.26458 v 3.96876 c 0,0.14658 -0.118004,0.26458 -0.264582,0.26458 h -3.439584 c -0.146579,0 -0.264584,-0.118 -0.264584,-0.26458 v -3.96876 c 0,-0.14658 0.118005,-0.26458 0.264584,-0.26458 z"
         style="opacity:1;fill:#ffeea3;fill-opacity:1;stroke:none;stroke-width:0.07937501;stroke-miterlimit:4;stroke-dasharray:none;stroke-opacity:1" />
      <path
         inkscape:connector-curvature="0"
         id="rect5428"
         d="m 10.332185,281.81045 h 2.116688 c 0.293152,0 0.529156,0.236 0.529156,0.52915 v 2.11669 c 0,0.29315 -0.236004,0.52916 -0.529156,0.52916 h -2.116688 c -0.293153,0 -0.5291565,-0.23601 -0.5291565,-0.52916 v -2.11669 c 0,-0.29315 0.2360035,-0.52915 0.5291565,-0.52915 z"
         style="opacity:1;fill:#c74343;fill-opacity:1;stroke:none;stroke-width:0.07937501;stroke-miterlimit:4;stroke-dasharray:none;stroke-opacity:1" />
      <path
         inkscape:connector-curvature="0"
         id="rect5438"
         d="m 10.332196,282.075 h 2.116667 c 0.146579,0 0.264584,0.11801 0.264584,0.26459 v 2.11666 c 0,0.14658 -0.118005,0.26459 -0.264584,0.26459 h -2.116667 c -0.146579,0 -0.264583,-0.11801 -0.264583,-0.26459 v -2.11666 c 0,-0.14658 0.118004,-0.26459 0.264583,-0.26459 z"
         style="opacity:1;fill:#f78f8f;fill-opacity:1;stroke:none;stroke-width:0.07937501;stroke-miterlimit:4;stroke-dasharray:none;stroke-opacity:1" />
      <path
         id="rect5510-0"
         d="m 5.3051145,283.39792 c -0.2931578,0 -0.5291666,0.23601 -0.5291666,0.52917 v 0.26458 1.05833 3.43959 3.70416 c 0,0.87948 0.7080218,1.5875 1.5875,1.5875 h 6.8791661 c 0.879479,0 1.5875,-0.70802 1.5875,-1.5875 v -3.70416 -3.43959 -1.05833 -0.26458 c 0,-0.29316 -0.236009,-0.52917 -0.529166,-0.52917 z"
         style="opacity:1;fill:#b1c2d5;fill-opacity:1;stroke:none;stroke-width:0.52916664;stroke-linecap:round;stroke-linejoin:round;stroke-miterlimit:4;stroke-dasharray:none;stroke-opacity:1"
         inkscape:connector-curvature="0" />
      <path
         id="rect5539-6"
         d="m 5.3051024,283.6623 c -0.1465792,0 -0.2645834,0.11801 -0.2645834,0.26459 v 0.52916 0.79375 4.49792 2.64583 c 0,0.7329 0.5900209,1.32292 1.3229167,1.32292 h 6.8791663 c 0.732896,0 1.322917,-0.59002 1.322917,-1.32292 v -2.64583 -4.49792 -0.79375 -0.52916 c 0,-0.14658 -0.118004,-0.26459 -0.264584,-0.26459 z m 2.1166666,1.5875 c 0.2931583,0 0.5291667,0.23601 0.5291667,0.52917 v 5.55625 c 0,0.29316 -0.2360084,0.52917 -0.5291667,0.52917 -0.2931583,0 -0.5291666,-0.23601 -0.5291666,-0.52917 v -5.55625 c 0,-0.29316 0.2360083,-0.52917 0.5291666,-0.52917 z m 2.38125,0 c 0.293158,0 0.529167,0.23602 0.529167,0.52917 v 5.55625 c 0,0.29316 -0.236009,0.52917 -0.529167,0.52917 -0.2931586,0 -0.5291667,-0.23601 -0.5291667,-0.52917 v -5.55625 c 0,-0.29316 0.2360081,-0.52917 0.5291667,-0.52917 z m 2.38125,0 c 0.293158,0 0.529167,0.23602 0.529167,0.52917 v 5.55625 c 0,0.29316 -0.236009,0.52917 -0.529167,0.52917 -0.293158,0 -0.529167,-0.23601 -0.529167,-0.52917 v -5.55625 c 0,-0.29316 0.236009,-0.52917 0.529167,-0.52917 z"
         style="opacity:1;fill:#dfe9f2;fill-opacity:1;stroke:none;stroke-width:0.52916664;stroke-linecap:round;stroke-linejoin:round;stroke-miterlimit:4;stroke-dasharray:none;stroke-opacity:1"
         inkscape:connector-curvature="0" />
    </g>
  </g>
</svg>
