<?xml version="1.0" encoding="UTF-8" standalone="no"?>
<!-- Created with Inkscape (http://www.inkscape.org/) -->

<svg
   xmlns:dc="http://purl.org/dc/elements/1.1/"
   xmlns:cc="http://creativecommons.org/ns#"
   xmlns:rdf="http://www.w3.org/1999/02/22-rdf-syntax-ns#"
   xmlns:svg="http://www.w3.org/2000/svg"
   xmlns="http://www.w3.org/2000/svg"
   xmlns:sodipodi="http://sodipodi.sourceforge.net/DTD/sodipodi-0.dtd"
   xmlns:inkscape="http://www.inkscape.org/namespaces/inkscape"
   width="64"
   height="64"
   viewBox="0 0 16.933333 16.933333"
   version="1.1"
   id="svg8"
   inkscape:version="0.92.3 (2405546, 2018-03-11)"
   sodipodi:docname="user-desktop.svg">
  <defs
     id="defs2" />
  <sodipodi:namedview
     id="base"
     pagecolor="#ffffff"
     bordercolor="#666666"
     borderopacity="1.0"
     inkscape:pageopacity="0.0"
     inkscape:pageshadow="2"
     inkscape:zoom="11.2"
     inkscape:cx="-3.1363573"
     inkscape:cy="29.512999"
     inkscape:document-units="px"
     inkscape:current-layer="layer1"
     showgrid="true"
     units="px"
     inkscape:showpageshadow="false"
     inkscape:snap-bbox="true"
     inkscape:bbox-paths="true"
     inkscape:bbox-nodes="true"
     inkscape:snap-bbox-edge-midpoints="true"
     inkscape:snap-bbox-midpoints="true"
     inkscape:object-paths="true"
     inkscape:snap-intersection-paths="true"
     inkscape:window-width="1874"
     inkscape:window-height="1141"
     inkscape:window-x="46"
     inkscape:window-y="30"
     inkscape:window-maximized="1">
    <inkscape:grid
       type="xygrid"
       id="grid815" />
  </sodipodi:namedview>
  <metadata
     id="metadata5">
    <rdf:RDF>
      <cc:Work
         rdf:about="">
        <dc:format>image/svg+xml</dc:format>
        <dc:type
           rdf:resource="http://purl.org/dc/dcmitype/StillImage" />
        <dc:title></dc:title>
      </cc:Work>
    </rdf:RDF>
  </metadata>
  <g
     inkscape:label="Capa 1"
     inkscape:groupmode="layer"
     id="layer1"
     transform="translate(0,-280.06666)">
    <g
       id="g4359"
       transform="translate(6.0854162,-0.00413697)">
      <path
         sodipodi:nodetypes="sccssssssss"
         inkscape:connector-curvature="0"
         id="rect9313-2-3"
         d="m -5.2916637,281.6583 5.55624996,2e-5 1.32291004,-3e-5 h 8.4666687 c 0.43974,0 0.79375,0.35401 0.79375,0.79375 v 13.22918 c 0,0.43974 -0.35401,0.79375 -0.79375,0.79375 H -5.2916637 c -0.4397398,0 -0.7937499,-0.35401 -0.7937499,-0.79375 v -13.22917 c 0,-0.43974 0.3540148,-0.79584 0.7937499,-0.79375 z"
         style="opacity:1;fill:#4f92db;fill-opacity:1;stroke:none;stroke-width:0.26458332;stroke-opacity:1" />
      <path
         sodipodi:nodetypes="ssccssccs"
         inkscape:connector-curvature="0"
         id="rect9315-0-6"
         d="m -5.2916655,281.92288 c -0.2931599,0 -0.5291667,0.23601 -0.5291667,0.52917 v 11.64166 H 10.583333 v -11.64166 c 0,-0.29316 -0.236007,-0.52917 -0.529166,-0.52917 H 1.8520844 0.52916776 Z"
         style="opacity:1;fill:#5abfff;fill-opacity:1;stroke:none;stroke-width:0.26458332;stroke-opacity:1" />
      <path
         id="rect4532"
         d="m -5.820833,294.3583 v 0.52916 0.79375 c 0,0.29316 0.2360092,0.52917 0.5291667,0.52917 H 10.054166 c 0.293159,0 0.529167,-0.23601 0.529167,-0.52917 v -0.79375 -0.52916 H 10.054166 -5.2916663 Z m 0.7937501,0.26458 c 0.1465791,0 0.2645833,0.118 0.2645833,0.26458 0,0.14658 -0.1180042,0.26459 -0.2645833,0.26459 -0.1465792,0 -0.2645834,-0.11801 -0.2645834,-0.26459 0,-0.14658 0.1180042,-0.26458 0.2645834,-0.26458 z m 0.79375,0 c 0.1465791,0 0.2645833,0.118 0.2645833,0.26458 0,0.14658 -0.1180042,0.26459 -0.2645833,0.26459 -0.1465792,0 -0.2645834,-0.11801 -0.2645834,-0.26459 0,-0.14658 0.1180042,-0.26458 0.2645834,-0.26458 z m 9.6572913,0 c 0.07329,0 0.132292,0.059 0.132292,0.13229 v 1.05833 c 0,0.0733 -0.059,0.1323 -0.132292,0.1323 -0.07329,0 -0.132292,-0.059 -0.132292,-0.1323 v -1.05833 c 0,-0.0733 0.059,-0.13229 0.132292,-0.13229 z m 0.926042,0 c 0.293158,0 0.529166,0.23602 0.529166,0.52917 v 0.26458 c 0,0.29316 -0.236008,0.52917 -0.529166,0.52917 -0.293159,0 -0.529167,-0.23601 -0.529167,-0.52917 v -0.26458 c 0,-0.29315 0.236008,-0.52917 0.529167,-0.52917 z m 1.852083,0 c 0.293158,0 0.529167,0.23601 0.529167,0.52917 v 0.26458 c 0,0.29316 -0.236009,0.52917 -0.529167,0.52917 -0.293158,0 -0.529167,-0.23601 -0.529167,-0.52917 v -0.26458 c 0,-0.29316 0.236009,-0.52917 0.529167,-0.52917 z m 1.322917,0 c 0.293158,0 0.5291656,0.23601 0.5291656,0.52917 v 0.26458 c 0,0.29316 -0.2360076,0.52917 -0.5291656,0.52917 -0.293159,0 -0.529167,-0.23601 -0.529167,-0.52917 v -0.26458 c 0,-0.29316 0.236008,-0.52917 0.529167,-0.52917 z m -3.175,0.26458 c -0.146579,0 -0.264584,0.11801 -0.264584,0.26459 v 0.26458 c 0,0.14658 0.118005,0.26458 0.264584,0.26458 0.146579,0 0.264583,-0.118 0.264583,-0.26458 v -0.26458 c 0,-0.14658 -0.118004,-0.26459 -0.264583,-0.26459 z m 0.79375,0 h 0.264583 v 0.26459 h -0.264583 z m 1.058333,0 c -0.146579,0 -0.264583,0.11801 -0.264583,0.26459 v 0.26458 c 0,0.14658 0.118004,0.26458 0.264583,0.26458 0.146579,0 0.264583,-0.118 0.264583,-0.26458 v -0.26458 c 0,-0.14658 -0.118004,-0.26459 -0.264583,-0.26459 z m 1.322917,0 c -0.146579,0 -0.264584,0.11801 -0.264584,0.26459 v 0.26458 c 0,0.14658 0.118005,0.26458 0.264584,0.26458 0.146579,0 0.264583,-0.118 0.264583,-0.26458 v -0.26458 c 0,-0.14658 -0.118004,-0.26459 -0.264583,-0.26459 z m -14.5520833,0.52917 c 0.1465791,0 0.2645833,0.118 0.2645833,0.26458 0,0.14658 -0.1180042,0.26459 -0.2645833,0.26459 -0.1465792,0 -0.2645834,-0.11801 -0.2645834,-0.26459 0,-0.14658 0.1180042,-0.26458 0.2645834,-0.26458 z m 0.79375,0 c 0.1465791,0 0.2645833,0.118 0.2645833,0.26458 0,0.14658 -0.1180042,0.26459 -0.2645833,0.26459 -0.1465792,0 -0.2645834,-0.11801 -0.2645834,-0.26459 0,-0.14658 0.1180042,-0.26458 0.2645834,-0.26458 z m 11.3770833,0 h 0.264583 v 0.26458 h -0.264583 z"
         style="opacity:1;fill:#ddf3ff;fill-opacity:1;stroke:none;stroke-width:0.07937501;stroke-miterlimit:4;stroke-dasharray:none;stroke-opacity:1"
         inkscape:connector-curvature="0" />
    </g>
  </g>
</svg>
