<?xml version="1.0" encoding="UTF-8" standalone="no"?>
<!-- Created with Inkscape (http://www.inkscape.org/) -->

<svg
   xmlns:dc="http://purl.org/dc/elements/1.1/"
   xmlns:cc="http://creativecommons.org/ns#"
   xmlns:rdf="http://www.w3.org/1999/02/22-rdf-syntax-ns#"
   xmlns:svg="http://www.w3.org/2000/svg"
   xmlns="http://www.w3.org/2000/svg"
   xmlns:sodipodi="http://sodipodi.sourceforge.net/DTD/sodipodi-0.dtd"
   xmlns:inkscape="http://www.inkscape.org/namespaces/inkscape"
   width="48"
   height="48"
   viewBox="0 0 48 48"
   version="1.1"
   id="svg8"
   inkscape:version="0.92.4 5da689c313, 2019-01-14"
   sodipodi:docname="application-x-bittorrent.svg">
  <title
     id="title7895">Antu icon Theme</title>
  <defs
     id="defs2">
    <style
       type="text/css"
       id="current-color-scheme">
      .ColorScheme-Text {
        color:#122036;
      }
      </style>
    <style
       id="current-color-scheme-53"
       type="text/css">
      .ColorScheme-Text {
        color:#122036;
      }
      </style>
    <style
       type="text/css"
       id="current-color-scheme-5">
      .ColorScheme-Text {
        color:#122036;
      }
      </style>
    <style
       type="text/css"
       id="current-color-scheme-2">
      .ColorScheme-Text {
        color:#122036;
      }
      </style>
    <style
       type="text/css"
       id="current-color-scheme-1">
      .ColorScheme-Text {
        color:#122036;
      }
      </style>
    <style
       id="current-color-scheme-10"
       type="text/css">
      .ColorScheme-Text {
        color:#122036;
      }
      </style>
    <style
       type="text/css"
       id="current-color-scheme-0">
      .ColorScheme-Text {
        color:#122036;
      }
      </style>
    <style
       type="text/css"
       id="current-color-scheme-26">
      .ColorScheme-Text {
        color:#122036;
      }
      </style>
    <style
       type="text/css"
       id="current-color-scheme-7">
      .ColorScheme-Text {
        color:#122036;
      }
      </style>
  </defs>
  <sodipodi:namedview
     id="base"
     pagecolor="#ffffff"
     bordercolor="#666666"
     borderopacity="1.0"
     inkscape:pageopacity="0.0"
     inkscape:pageshadow="2"
     inkscape:zoom="8.0000004"
     inkscape:cx="43.689255"
     inkscape:cy="14.469685"
     inkscape:document-units="px"
     inkscape:current-layer="layer1"
     showgrid="true"
     units="px"
     inkscape:window-width="1920"
     inkscape:window-height="1049"
     inkscape:window-x="0"
     inkscape:window-y="0"
     inkscape:window-maximized="1"
     objecttolerance="10"
     gridtolerance="10"
     guidetolerance="10"
     inkscape:snap-bbox="true"
     inkscape:bbox-paths="true"
     inkscape:bbox-nodes="true"
     inkscape:snap-bbox-edge-midpoints="true"
     inkscape:snap-bbox-midpoints="true"
     inkscape:object-paths="true"
     inkscape:snap-intersection-paths="true">
    <inkscape:grid
       type="xygrid"
       id="grid7897"
       empspacing="4" />
  </sodipodi:namedview>
  <metadata
     id="metadata5">
    <rdf:RDF>
      <cc:Work
         rdf:about="">
        <dc:format>image/svg+xml</dc:format>
        <dc:type
           rdf:resource="http://purl.org/dc/dcmitype/StillImage" />
        <dc:title>Antu icon Theme</dc:title>
      </cc:Work>
    </rdf:RDF>
  </metadata>
  <g
     inkscape:label="Capa 1"
     inkscape:groupmode="layer"
     id="layer1"
     transform="translate(0,-266.64999)">
    <g
       transform="translate(35,14)"
       id="g1593">
      <path
         style="opacity:1;vector-effect:none;fill:#6e7cd4;fill-opacity:1;stroke:none;stroke-width:6;stroke-linecap:square;stroke-linejoin:round;stroke-miterlimit:18;stroke-dasharray:none;stroke-dashoffset:0;stroke-opacity:1;paint-order:markers stroke fill"
         d="M -27,254.64999 H 5.0000002 c 1.662,0 3,1.338 3,3 v 38 c 0,1.662 -1.338,3 -3,3 H -27 c -1.662,0 -3,-1.338 -3,-3 v -38 c 0,-1.662 1.338,-3 3,-3 z"
         id="rect6397-1-4"
         inkscape:connector-curvature="0" />
      <path
         style="opacity:1;vector-effect:none;fill:#93a0e6;fill-opacity:1;stroke:none;stroke-width:6;stroke-linecap:square;stroke-linejoin:round;stroke-miterlimit:18;stroke-dasharray:none;stroke-dashoffset:0;stroke-opacity:1;paint-order:markers stroke fill"
         d="M -27,255.64999 H 5.0000002 c 1.108,0 2,0.892 2,2 v 38 c 0,1.108 -0.892,2 -2,2 H -27 c -1.108,0 -2,-0.892 -2,-2 v -38 c 0,-1.108 0.892,-2 2,-2 z"
         id="rect6399-4-9"
         inkscape:connector-curvature="0"
         sodipodi:nodetypes="sssssssss" />
    </g>
    <path
       style="opacity:1;vector-effect:none;fill:#ebecf4;fill-opacity:1;stroke:none;stroke-width:2;stroke-linecap:round;stroke-linejoin:round;stroke-miterlimit:4;stroke-dasharray:none;stroke-dashoffset:0;stroke-opacity:1;paint-order:normal"
       d="M 24.144531 19.001953 A 10 10 0 0 0 16.927734 21.929688 A 10 10 0 0 0 14.759766 32.826172 A 10 10 0 0 0 23.998047 39 L 23.998047 37 A 8 8 0 0 1 23.199219 36.960938 A 8 8 0 0 1 22.408203 36.839844 A 8 8 0 0 1 21.634766 36.642578 A 8 8 0 0 1 20.882812 36.369141 A 8 8 0 0 1 20.162109 36.021484 A 8 8 0 0 1 19.480469 35.603516 A 8 8 0 0 1 18.84375 35.119141 A 8 8 0 0 1 18.259766 34.574219 A 8 8 0 0 1 17.730469 33.972656 A 8 8 0 0 1 17.265625 33.322266 A 8 8 0 0 1 16.869141 32.628906 A 8 8 0 0 1 16.607422 32.060547 A 8 8 0 0 1 16.337891 31.308594 A 8 8 0 0 1 16.146484 30.53125 A 8 8 0 0 1 16.033203 29.740234 A 8 8 0 0 1 15.998047 28.941406 A 8 8 0 0 1 16.044922 28.142578 A 8 8 0 0 1 16.169922 27.353516 A 8 8 0 0 1 16.373047 26.580078 A 8 8 0 0 1 16.652344 25.830078 A 8 8 0 0 1 17.005859 25.113281 A 8 8 0 0 1 17.427734 24.435547 A 8 8 0 0 1 17.917969 23.800781 A 8 8 0 0 1 18.341797 23.34375 A 8 8 0 0 1 18.933594 22.806641 A 8 8 0 0 1 19.578125 22.332031 A 8 8 0 0 1 20.265625 21.923828 A 8 8 0 0 1 20.990234 21.585938 A 8 8 0 0 1 21.746094 21.324219 A 8 8 0 0 1 22.523438 21.136719 A 8 8 0 0 1 23.316406 21.029297 A 8 8 0 0 1 24.115234 21 A 8 8 0 0 1 24.912109 21.052734 A 8 8 0 0 1 25.701172 21.183594 A 8 8 0 0 1 26.472656 21.392578 A 8 8 0 0 1 27.058594 21.609375 A 8 8 0 0 1 27.78125 21.951172 A 8 8 0 0 1 28.466797 22.365234 A 8 8 0 0 1 29.107422 22.84375 A 8 8 0 0 1 29.695312 23.384766 A 8 8 0 0 1 30.228516 23.982422 A 8 8 0 0 1 30.697266 24.628906 A 8 8 0 0 1 31.101562 25.318359 A 8 8 0 0 1 31.433594 26.046875 A 8 8 0 0 1 31.691406 26.804688 A 8 8 0 0 1 31.871094 27.582031 A 8 8 0 0 1 31.974609 28.375 A 8 8 0 0 1 31.998047 29 L 33.998047 29 A 10 10 0 0 0 27.824219 19.761719 A 10 10 0 0 0 24.144531 19.001953 z M 24.099609 22 A 7 7 0 0 0 19.048828 24.050781 A 7 7 0 0 0 17.53125 31.679688 A 7 7 0 0 0 23.998047 36 L 23.998047 34 A 5 5 0 0 1 23.498047 33.974609 A 5 5 0 0 1 23.003906 33.900391 A 5 5 0 0 1 22.519531 33.777344 A 5 5 0 0 1 22.050781 33.605469 A 5 5 0 0 1 21.601562 33.388672 A 5 5 0 0 1 21.175781 33.126953 A 5 5 0 0 1 20.777344 32.824219 A 5 5 0 0 1 20.412109 32.484375 A 5 5 0 0 1 20.082031 32.107422 A 5 5 0 0 1 19.791016 31.701172 A 5 5 0 0 1 19.542969 31.267578 A 5 5 0 0 1 19.378906 30.914062 A 5 5 0 0 1 19.210938 30.443359 A 5 5 0 0 1 19.089844 29.957031 A 5 5 0 0 1 19.019531 29.462891 A 5 5 0 0 1 18.998047 28.962891 A 5 5 0 0 1 19.027344 28.464844 A 5 5 0 0 1 19.105469 27.970703 A 5 5 0 0 1 19.232422 27.488281 A 5 5 0 0 1 19.40625 27.019531 A 5 5 0 0 1 19.626953 26.570312 A 5 5 0 0 1 19.892578 26.146484 A 5 5 0 0 1 20.197266 25.751953 A 5 5 0 0 1 20.462891 25.464844 A 5 5 0 0 1 20.833984 25.128906 A 5 5 0 0 1 21.236328 24.832031 A 5 5 0 0 1 21.666016 24.578125 A 5 5 0 0 1 22.119141 24.367188 A 5 5 0 0 1 22.589844 24.203125 A 5 5 0 0 1 23.076172 24.085938 A 5 5 0 0 1 23.572266 24.017578 A 5 5 0 0 1 24.070312 24 A 5 5 0 0 1 24.570312 24.033203 A 5 5 0 0 1 25.0625 24.115234 A 5 5 0 0 1 25.544922 24.246094 A 5 5 0 0 1 25.912109 24.380859 A 5 5 0 0 1 26.363281 24.59375 A 5 5 0 0 1 26.791016 24.853516 A 5 5 0 0 1 27.191406 25.152344 A 5 5 0 0 1 27.558594 25.490234 A 5 5 0 0 1 27.892578 25.863281 A 5 5 0 0 1 28.185547 26.267578 A 5 5 0 0 1 28.4375 26.699219 A 5 5 0 0 1 28.644531 27.154297 A 5 5 0 0 1 28.806641 27.626953 A 5 5 0 0 1 28.919922 28.113281 A 5 5 0 0 1 28.982422 28.609375 A 5 5 0 0 1 28.998047 29 L 30.998047 29 A 7 7 0 0 0 26.677734 22.533203 A 7 7 0 0 0 24.099609 22 z M 24.056641 25 A 4 4 0 0 0 21.169922 26.171875 A 4 4 0 0 0 20.302734 30.53125 A 4 4 0 0 0 23.998047 33 L 23.998047 31 A 2 2 0 0 1 23.798828 30.990234 A 2 2 0 0 1 23.601562 30.960938 A 2 2 0 0 1 23.40625 30.910156 A 2 2 0 0 1 23.21875 30.841797 A 2 2 0 0 1 23.039062 30.755859 A 2 2 0 0 1 22.869141 30.650391 A 2 2 0 0 1 22.708984 30.529297 A 2 2 0 0 1 22.5625 30.392578 A 2 2 0 0 1 22.431641 30.244141 A 2 2 0 0 1 22.314453 30.080078 A 2 2 0 0 1 22.214844 29.90625 A 2 2 0 0 1 22.150391 29.765625 A 2 2 0 0 1 22.083984 29.576172 A 2 2 0 0 1 22.035156 29.382812 A 2 2 0 0 1 22.005859 29.185547 A 2 2 0 0 1 21.998047 28.986328 A 2 2 0 0 1 22.009766 28.785156 A 2 2 0 0 1 22.041016 28.587891 A 2 2 0 0 1 22.091797 28.394531 A 2 2 0 0 1 22.162109 28.207031 A 2 2 0 0 1 22.25 28.029297 A 2 2 0 0 1 22.355469 27.859375 A 2 2 0 0 1 22.478516 27.701172 A 2 2 0 0 1 22.583984 27.585938 A 2 2 0 0 1 22.732422 27.451172 A 2 2 0 0 1 22.892578 27.333984 A 2 2 0 0 1 23.064453 27.230469 A 2 2 0 0 1 23.246094 27.146484 A 2 2 0 0 1 23.435547 27.080078 A 2 2 0 0 1 23.628906 27.035156 A 2 2 0 0 1 23.828125 27.007812 A 2 2 0 0 1 24.027344 27 A 2 2 0 0 1 24.226562 27.013672 A 2 2 0 0 1 24.423828 27.044922 A 2 2 0 0 1 24.617188 27.097656 A 2 2 0 0 1 24.763672 27.152344 A 2 2 0 0 1 24.943359 27.238281 A 2 2 0 0 1 25.115234 27.341797 A 2 2 0 0 1 25.275391 27.460938 A 2 2 0 0 1 25.421875 27.595703 A 2 2 0 0 1 25.554688 27.746094 A 2 2 0 0 1 25.673828 27.90625 A 2 2 0 0 1 25.773438 28.080078 A 2 2 0 0 1 25.857422 28.261719 A 2 2 0 0 1 25.921875 28.451172 A 2 2 0 0 1 25.966797 28.646484 A 2 2 0 0 1 25.992188 28.84375 A 2 2 0 0 1 26 29 L 28 29 A 4 4 0 0 0 25.53125 25.304688 A 4 4 0 0 0 24.058594 25 L 24.056641 25 z M 24 31 L 24 33 L 42 33 L 42 31 L 24 31 z M 24 34 L 24 36 L 42 36 L 42 34 L 24 34 z M 24 37 L 24 39 L 42 39 L 42 37 L 24 37 z "
       transform="translate(0,266.64999)"
       id="path835" />
    <ellipse
       style="opacity:1;vector-effect:none;fill:#7caee6;fill-opacity:0.43043482;stroke:none;stroke-width:0;stroke-linecap:round;stroke-linejoin:round;stroke-miterlimit:4;stroke-dasharray:none;stroke-dashoffset:0;stroke-opacity:1;paint-order:normal"
       id="path835-3-6"
       cx="-19.142857"
       cy="312.64999"
       rx="5"
       ry="0"
       transform="scale(-1,1)" />
  </g>
</svg>
