<?xml version="1.0" encoding="UTF-8" standalone="no"?>
<!-- Created with Inkscape (http://www.inkscape.org/) -->

<svg
   xmlns:dc="http://purl.org/dc/elements/1.1/"
   xmlns:cc="http://creativecommons.org/ns#"
   xmlns:rdf="http://www.w3.org/1999/02/22-rdf-syntax-ns#"
   xmlns:svg="http://www.w3.org/2000/svg"
   xmlns="http://www.w3.org/2000/svg"
   xmlns:sodipodi="http://sodipodi.sourceforge.net/DTD/sodipodi-0.dtd"
   xmlns:inkscape="http://www.inkscape.org/namespaces/inkscape"
   width="32"
   height="32"
   viewBox="0 0 8.4666665 8.4666669"
   version="1.1"
   id="svg8"
   inkscape:version="0.92.3 (2405546, 2018-03-11)"
   sodipodi:docname="document-open-recent.svg">
  <defs
     id="defs2" />
  <sodipodi:namedview
     id="base"
     pagecolor="#ffffff"
     bordercolor="#666666"
     borderopacity="1.0"
     inkscape:pageopacity="0.0"
     inkscape:pageshadow="2"
     inkscape:zoom="22.627417"
     inkscape:cx="7.217702"
     inkscape:cy="5.3121742"
     inkscape:document-units="px"
     inkscape:current-layer="layer1"
     showgrid="false"
     units="px"
     inkscape:showpageshadow="false"
     inkscape:snap-bbox="true"
     inkscape:bbox-paths="true"
     inkscape:bbox-nodes="true"
     inkscape:snap-bbox-edge-midpoints="true"
     inkscape:snap-bbox-midpoints="true"
     inkscape:object-paths="true"
     inkscape:snap-intersection-paths="true"
     inkscape:window-width="1874"
     inkscape:window-height="1141"
     inkscape:window-x="46"
     inkscape:window-y="30"
     inkscape:window-maximized="1">
    <inkscape:grid
       type="xygrid"
       id="grid815" />
  </sodipodi:namedview>
  <metadata
     id="metadata5">
    <rdf:RDF>
      <cc:Work
         rdf:about="">
        <dc:format>image/svg+xml</dc:format>
        <dc:type
           rdf:resource="http://purl.org/dc/dcmitype/StillImage" />
        <dc:title />
      </cc:Work>
    </rdf:RDF>
  </metadata>
  <g
     inkscape:label="Capa 1"
     inkscape:groupmode="layer"
     id="layer1"
     transform="translate(0,-288.53333)">
    <g
       id="g3754"
       transform="translate(4.7625,0.79375334)">
      <path
         id="rect827-0"
         d="m -3.96875,288.00416 h 5.8208333 c 0.2931584,0 0.5291667,0.23601 0.5291667,0.52917 v 6.87916 c 0,0.29316 -0.2360083,0.52917 -0.5291667,0.52917 H -3.96875 c -0.2931584,0 -0.5291667,-0.23601 -0.5291667,-0.52917 v -6.87916 c 0,-0.29316 0.2360083,-0.52917 0.5291667,-0.52917 z"
         style="opacity:1;fill:#a3b7cc;fill-opacity:1;stroke:none;stroke-width:0.52916664;stroke-linecap:round;stroke-linejoin:round;stroke-miterlimit:4;stroke-dasharray:none;stroke-opacity:1"
         inkscape:connector-curvature="0" />
      <path
         id="rect829-6"
         d="m -3.96875,288.26874 h 5.8208333 c 0.1465789,0 0.2645834,0.11801 0.2645834,0.26459 v 6.87916 c 0,0.14658 -0.1180045,0.26459 -0.2645834,0.26459 H -3.96875 c -0.1465789,0 -0.2645834,-0.11801 -0.2645834,-0.26459 v -6.87916 c 0,-0.14658 0.1180045,-0.26459 0.2645834,-0.26459 z"
         style="opacity:1;fill:#f1f1f1;fill-opacity:1;stroke:none;stroke-width:0.52916664;stroke-linecap:round;stroke-linejoin:round;stroke-miterlimit:4;stroke-dasharray:none;stroke-opacity:1"
         inkscape:connector-curvature="0" />
      <path
         id="rect1562-9-8-8-6-2"
         d="m -3.175,289.59166 v 0.52917 h 1.5875 v -0.52917 z m 2.1166666,0 v 0.52917 h 2.1166667 v -0.52917 z M -3.175,290.64999 v 0.52917 h 4.2333333 v -0.52917 z m 0,1.05834 v 0.52916 h 0.5291666 v -0.52916 z m 1.0583333,0 v 0.52916 h 1.58750002 1.58749998 v -0.52916 H -0.52916668 Z M -3.175,292.76666 v 0.52917 h 4.2333333 v -0.52917 z m 0,1.05833 v 0.52917 h 2.38125002 v -0.52917 z m 2.91041662,0 v 0.52917 H 1.0583333 v -0.52917 z"
         style="opacity:0.98000004;fill:#a3b7cc;fill-opacity:1;stroke:none;stroke-width:0.5291667;stroke-linecap:square;stroke-linejoin:miter;stroke-miterlimit:4;stroke-dasharray:none;stroke-opacity:1;paint-order:stroke markers fill"
         inkscape:connector-curvature="0" />
      <path
         inkscape:connector-curvature="0"
         style="opacity:1;fill:#36404d;fill-opacity:1;stroke:none;stroke-width:0.21378334;stroke-linecap:round;stroke-linejoin:round;stroke-miterlimit:4;stroke-dasharray:none;stroke-opacity:1;paint-order:stroke markers fill"
         d="m 1.190625,291.17916 c 1.3925021,0 2.5135417,1.12104 2.5135417,2.51354 0,1.3925 -1.1210396,2.51354 -2.5135417,2.51354 -1.39250208,0 -2.5135417,-1.12104 -2.5135417,-2.51354 0,-1.3925 1.12103962,-2.51354 2.5135417,-2.51354 z"
         id="rect1311" />
      <path
         inkscape:connector-curvature="0"
         style="opacity:1;fill:#4b6477;fill-opacity:1;stroke:none;stroke-width:0.21378334;stroke-linecap:round;stroke-linejoin:round;stroke-miterlimit:4;stroke-dasharray:none;stroke-opacity:1;paint-order:stroke markers fill"
         d="m 1.190625,291.44374 c 1.2459229,0 2.2489583,1.00304 2.2489583,2.24896 0,1.24592 -1.0030354,2.24896 -2.2489583,2.24896 -1.24592288,0 -2.2489584,-1.00304 -2.2489584,-2.24896 0,-1.24592 1.00303552,-2.24896 2.2489584,-2.24896 z"
         id="rect1313" />
      <path
         inkscape:connector-curvature="0"
         style="opacity:1;fill:#f1f1f1;fill-opacity:1;stroke:none;stroke-width:0.21378334;stroke-linecap:round;stroke-linejoin:round;stroke-miterlimit:4;stroke-dasharray:none;stroke-opacity:1;paint-order:stroke markers fill"
         d="m 1.190625,291.70833 v 0 c 1.0993437,0 1.984375,0.88503 1.984375,1.98437 0,1.09935 -0.8850313,1.98438 -1.984375,1.98438 v 0 c -1.09934378,0 -1.98437498,-0.88503 -1.98437498,-1.98438 0,-1.09934 0.8850312,-1.98437 1.98437498,-1.98437 z"
         id="rect1313-2" />
      <path
         style="opacity:1;fill:#f78f8f;fill-opacity:1;stroke:none;stroke-width:0.21378334;stroke-linecap:round;stroke-linejoin:round;stroke-miterlimit:4;stroke-dasharray:none;stroke-opacity:1;paint-order:stroke markers fill"
         d="m 1.190625,293.8007 c 0.07329,0 0.1322917,0.059 0.1322917,0.13229 v 1.05834 c 0,0.0733 -0.058999,0.13229 -0.1322917,0.13229 -0.07329,0 -0.1322917,-0.059 -0.1322917,-0.13229 v -1.05834 c 0,-0.0733 0.058999,-0.13229 0.1322917,-0.13229 z"
         id="rect4633-2"
         inkscape:connector-curvature="0" />
      <path
         id="rect4598-8"
         d="m 1.190625,292.2132 c -0.07329,0 -0.1322917,0.059 -0.1322917,0.1323 v 0.95033 c -0.15396628,0.0545 -0.26458328,0.19948 -0.26458328,0.37258 0,0.21987 0.1770062,0.39688 0.39687498,0.39688 0.1732227,0 0.318172,-0.11045 0.3725862,-0.26459 H 2.273763 c 0.05955,0 0.107487,-0.0479 0.107487,-0.10748 v -0.0496 c 0,-0.0596 -0.047937,-0.10749 -0.107487,-0.10749 H 1.5632112 c -0.03978,-0.11237 -0.127926,-0.20052 -0.2402945,-0.24029 v -0.95033 c 0,-0.0733 -0.059002,-0.1323 -0.1322917,-0.1323 z m 0,1.32292 c 0.07329,0 0.1322917,0.059 0.1322917,0.13229 0,0.0733 -0.059002,0.13229 -0.1322917,0.13229 -0.07329,0 -0.1322917,-0.059 -0.1322917,-0.13229 0,-0.0733 0.059002,-0.13229 0.1322917,-0.13229 z"
         style="opacity:1;fill:#36404d;fill-opacity:1;stroke:none;stroke-width:0.21378334;stroke-linecap:round;stroke-linejoin:round;stroke-miterlimit:4;stroke-dasharray:none;stroke-opacity:1;paint-order:stroke markers fill"
         inkscape:connector-curvature="0" />
    </g>
  </g>
</svg>
