<?xml version="1.0" encoding="UTF-8" standalone="no"?>
<!-- Created with Inkscape (http://www.inkscape.org/) -->

<svg
   xmlns:dc="http://purl.org/dc/elements/1.1/"
   xmlns:cc="http://creativecommons.org/ns#"
   xmlns:rdf="http://www.w3.org/1999/02/22-rdf-syntax-ns#"
   xmlns:svg="http://www.w3.org/2000/svg"
   xmlns="http://www.w3.org/2000/svg"
   xmlns:sodipodi="http://sodipodi.sourceforge.net/DTD/sodipodi-0.dtd"
   xmlns:inkscape="http://www.inkscape.org/namespaces/inkscape"
   width="32"
   height="32"
   viewBox="0 0 8.4666665 8.4666669"
   version="1.1"
   id="svg8"
   inkscape:version="0.92.3 (2405546, 2018-03-11)"
   sodipodi:docname="go-home.svg">
  <defs
     id="defs2" />
  <sodipodi:namedview
     id="base"
     pagecolor="#ffffff"
     bordercolor="#666666"
     borderopacity="1.0"
     inkscape:pageopacity="0.0"
     inkscape:pageshadow="2"
     inkscape:zoom="11.2"
     inkscape:cx="1.4498972"
     inkscape:cy="10.516688"
     inkscape:document-units="px"
     inkscape:current-layer="layer1"
     showgrid="true"
     units="px"
     inkscape:showpageshadow="false"
     inkscape:snap-bbox="true"
     inkscape:bbox-paths="true"
     inkscape:bbox-nodes="true"
     inkscape:snap-bbox-edge-midpoints="true"
     inkscape:snap-bbox-midpoints="true"
     inkscape:object-paths="true"
     inkscape:snap-intersection-paths="true"
     inkscape:window-width="1874"
     inkscape:window-height="1141"
     inkscape:window-x="46"
     inkscape:window-y="30"
     inkscape:window-maximized="1">
    <inkscape:grid
       type="xygrid"
       id="grid815" />
  </sodipodi:namedview>
  <metadata
     id="metadata5">
    <rdf:RDF>
      <cc:Work
         rdf:about="">
        <dc:format>image/svg+xml</dc:format>
        <dc:type
           rdf:resource="http://purl.org/dc/dcmitype/StillImage" />
        <dc:title></dc:title>
      </cc:Work>
    </rdf:RDF>
  </metadata>
  <g
     inkscape:label="Capa 1"
     inkscape:groupmode="layer"
     id="layer1"
     transform="translate(0,-288.53333)">
    <g
       id="g6461"
       transform="translate(4.2333333,-0.52916165)">
      <path
         style="opacity:1;fill:#36404d;fill-opacity:1;stroke:none;stroke-width:0.5291667;stroke-linecap:round;stroke-linejoin:round;stroke-miterlimit:4;stroke-dasharray:none;stroke-dashoffset:0;stroke-opacity:1"
         d="m 1.8520823,289.85624 h 0.7937521 c 0.1465786,0 0.2645823,0.118 0.2645823,0.26458 v 2.11667 c 0,0.14658 -0.1180037,0.26458 -0.2645823,0.26458 H 1.8520823 c -0.1465787,0 -0.2645823,-0.118 -0.2645823,-0.26458 v -2.11667 c 0,-0.14658 0.1180036,-0.26458 0.2645823,-0.26458 z"
         id="rect1437"
         inkscape:connector-curvature="0"
         sodipodi:nodetypes="sssssssss" />
      <path
         style="opacity:1;fill:#4b6477;fill-opacity:1;stroke:none;stroke-width:0.5291667;stroke-linecap:round;stroke-linejoin:round;stroke-miterlimit:4;stroke-dasharray:none;stroke-dashoffset:0;stroke-opacity:1"
         d="m 1.8520833,290.12082 h 0.79375 v 2.11667 h -0.79375 z"
         id="rect1439"
         inkscape:connector-curvature="0"
         sodipodi:nodetypes="ccccc" />
      <path
         style="opacity:1;fill:#c8c3b7;fill-opacity:1;stroke:none;stroke-width:0.5291667;stroke-linecap:round;stroke-linejoin:round;stroke-miterlimit:4;stroke-dasharray:none;stroke-dashoffset:0;stroke-opacity:1"
         d="M -2.6458343,292.23749 0,289.32707 2.6458344,292.23749 C 2.8430337,292.45441 3.175,292.4735 3.175,292.76665 v 3.96876 c 0,0.29316 -0.2360078,0.52917 -0.5291656,0.52917 h -5.2916687 c -0.2931577,0 -0.5291656,-0.23601 -0.5291656,-0.52917 v -3.96876 c 0,-0.29315 0.2360079,-0.52916 0.5291656,-0.52916 z"
         id="rect1076"
         inkscape:connector-curvature="0"
         sodipodi:nodetypes="scssssssss" />
      <path
         style="opacity:1;fill:#f2efe6;fill-opacity:1;stroke:none;stroke-width:0.5291667;stroke-linecap:round;stroke-linejoin:round;stroke-miterlimit:4;stroke-dasharray:none;stroke-dashoffset:0;stroke-opacity:1"
         d="M -2.6458343,292.50207 0,289.59165 l 2.6458344,2.91042 c 0.098599,0.10846 0.2645823,0.118 0.2645823,0.26458 v 3.96876 C 2.9104167,296.88199 2.792413,297 2.6458344,297 h -5.2916687 c -0.1465786,0 -0.2645823,-0.11801 -0.2645823,-0.26459 v -3.96876 c 0,-0.14658 0.1180037,-0.26458 0.2645823,-0.26458 z"
         id="rect1078"
         inkscape:connector-curvature="0"
         sodipodi:nodetypes="scssssssss" />
      <path
         sodipodi:nodetypes="sssssssss"
         inkscape:connector-curvature="0"
         style="opacity:1;fill:#967a44;fill-opacity:1;stroke:none;stroke-width:0.21378334;stroke-linecap:round;stroke-linejoin:round;stroke-miterlimit:4;stroke-dasharray:none;stroke-opacity:1;paint-order:stroke markers fill"
         d="m -1.8520832,293.82499 h 1.58749991 C -0.11800419,293.82499 0,293.94299 0,294.08957 v 2.38125 c 0,0.14658 -0.11800419,0.26458 -0.26458329,0.26458 H -1.8520832 c -0.1465792,0 -0.2645834,-0.118 -0.2645834,-0.26458 v -2.38125 c 0,-0.14658 0.1180042,-0.26458 0.2645834,-0.26458 z"
         id="rect963-2" />
      <path
         style="opacity:1;fill:#a3b7cc;fill-opacity:1;stroke:none;stroke-width:0.21378334;stroke-linecap:round;stroke-linejoin:round;stroke-miterlimit:4;stroke-dasharray:none;stroke-opacity:1;paint-order:stroke markers fill"
         d="m -2.1166666,296.47082 c -0.1465791,0 -0.2645833,0.118 -0.2645833,0.26458 v 0.26459 0.26458 H -2.1166666 0 0.26458331 v -0.26458 -0.26459 c 0,-0.14658 -0.1180039,-0.26458 -0.26458331,-0.26458 z"
         id="rect938-2"
         inkscape:connector-curvature="0"
         sodipodi:nodetypes="ssccccccsss" />
      <path
         sodipodi:nodetypes="ccccc"
         inkscape:connector-curvature="0"
         style="opacity:1;fill:#f5ce85;fill-opacity:1;stroke:none;stroke-width:0.21378334;stroke-linecap:round;stroke-linejoin:round;stroke-miterlimit:4;stroke-dasharray:none;stroke-opacity:1;paint-order:stroke markers fill"
         d="m -1.8520832,294.08957 h 1.58750011 v 2.38125 H -1.8520832 Z"
         id="rect965-8" />
      <path
         inkscape:connector-curvature="0"
         style="opacity:1;fill:#e8f6ff;fill-opacity:1;stroke:none;stroke-width:0.21378334;stroke-linecap:round;stroke-linejoin:round;stroke-miterlimit:4;stroke-dasharray:none;stroke-opacity:1;paint-order:stroke markers fill"
         d="M -2.1166666,296.7354 H 0 v 0.26459 h -2.1166666 z"
         id="rect945-0"
         sodipodi:nodetypes="ccccc" />
      <path
         inkscape:connector-curvature="0"
         style="opacity:1;fill:#967a44;fill-opacity:1;stroke:none;stroke-width:0.21378334;stroke-linecap:round;stroke-linejoin:round;stroke-miterlimit:4;stroke-dasharray:none;stroke-opacity:1;paint-order:stroke markers fill"
         d="m -0.79374999,295.1479 c 0.1465792,0 0.2645833,0.11801 0.2645833,0.26459 0,0.14658 -0.1180041,0.26458 -0.2645833,0.26458 -0.1465792,0 -0.26458331,-0.118 -0.26458331,-0.26458 0,-0.14658 0.11800411,-0.26459 0.26458331,-0.26459 z"
         id="rect985-7" />
      <path
         style="opacity:1;fill:#4f92db;fill-opacity:1;stroke:none;stroke-width:0.5291667;stroke-linecap:round;stroke-linejoin:round;stroke-miterlimit:4;stroke-dasharray:none;stroke-dashoffset:0;stroke-opacity:1"
         d="M 0.52916561,293.82499 H 2.1166677 c 0.1465787,0 0.2645823,0.118 0.2645823,0.26458 v 1.32292 c 0,0.14658 -0.1180036,0.26458 -0.2645823,0.26458 H 0.52916561 c -0.1465786,0 -0.2645823,-0.118 -0.2645823,-0.26458 v -1.32292 c 0,-0.14658 0.1180037,-0.26458 0.2645823,-0.26458 z"
         id="rect1372"
         inkscape:connector-curvature="0" />
      <path
         style="opacity:1;fill:#5ac0ff;fill-opacity:1;stroke:none;stroke-width:0.5291667;stroke-linecap:round;stroke-linejoin:round;stroke-miterlimit:4;stroke-dasharray:none;stroke-dashoffset:0;stroke-opacity:1"
         d="M 0.52916671,294.08957 H 2.1166667 v 1.32292 H 0.52916671 Z"
         id="rect1389"
         inkscape:connector-curvature="0" />
      <path
         style="fill:#36404d;fill-opacity:1;stroke:#363c4d;stroke-width:0.5291667;stroke-linecap:round;stroke-linejoin:round;stroke-miterlimit:4;stroke-dasharray:none;stroke-opacity:1"
         d="m -3.9687499,293.29582 h 0.79375 L 0,290.3854 3.175,293.29582 H 3.96875 L 0,289.59165 Z"
         id="path1415"
         inkscape:connector-curvature="0"
         sodipodi:nodetypes="ccccccc" />
      <path
         style="fill:#4b6477;fill-opacity:1;stroke:none;stroke-width:0.26458335px;stroke-linecap:butt;stroke-linejoin:miter;stroke-opacity:1"
         d="m -3.9687499,293.29582 h 0.79375 L 0,290.3854 3.175,293.29582 H 3.96875 L 0,289.59165 Z"
         id="path1435"
         inkscape:connector-curvature="0"
         sodipodi:nodetypes="ccccccc" />
    </g>
  </g>
</svg>
