<?xml version="1.0" encoding="UTF-8" standalone="no"?>
<!-- Created with Inkscape (http://www.inkscape.org/) -->

<svg
   xmlns:dc="http://purl.org/dc/elements/1.1/"
   xmlns:cc="http://creativecommons.org/ns#"
   xmlns:rdf="http://www.w3.org/1999/02/22-rdf-syntax-ns#"
   xmlns:svg="http://www.w3.org/2000/svg"
   xmlns="http://www.w3.org/2000/svg"
   xmlns:sodipodi="http://sodipodi.sourceforge.net/DTD/sodipodi-0.dtd"
   xmlns:inkscape="http://www.inkscape.org/namespaces/inkscape"
   width="32"
   height="32"
   viewBox="0 0 8.4666665 8.4666669"
   version="1.1"
   id="svg8"
   inkscape:version="0.92.3 (2405546, 2018-03-11)"
   sodipodi:docname="object-group.svg">
  <defs
     id="defs2" />
  <sodipodi:namedview
     id="base"
     pagecolor="#ffffff"
     bordercolor="#666666"
     borderopacity="1.0"
     inkscape:pageopacity="0.0"
     inkscape:pageshadow="2"
     inkscape:zoom="11.2"
     inkscape:cx="1.6814447"
     inkscape:cy="13.283898"
     inkscape:document-units="px"
     inkscape:current-layer="layer1"
     showgrid="true"
     units="px"
     inkscape:showpageshadow="false"
     inkscape:snap-bbox="true"
     inkscape:bbox-paths="true"
     inkscape:bbox-nodes="true"
     inkscape:snap-bbox-edge-midpoints="true"
     inkscape:snap-bbox-midpoints="true"
     inkscape:object-paths="true"
     inkscape:snap-intersection-paths="true"
     inkscape:window-width="1874"
     inkscape:window-height="1141"
     inkscape:window-x="46"
     inkscape:window-y="30"
     inkscape:window-maximized="1">
    <inkscape:grid
       type="xygrid"
       id="grid815" />
  </sodipodi:namedview>
  <metadata
     id="metadata5">
    <rdf:RDF>
      <cc:Work
         rdf:about="">
        <dc:format>image/svg+xml</dc:format>
        <dc:type
           rdf:resource="http://purl.org/dc/dcmitype/StillImage" />
        <dc:title></dc:title>
      </cc:Work>
    </rdf:RDF>
  </metadata>
  <g
     inkscape:label="Capa 1"
     inkscape:groupmode="layer"
     id="layer1"
     transform="translate(0,-288.53333)">
    <g
       id="g7213"
       transform="translate(4.7625,0.52916335)">
      <path
         style="opacity:1;fill:#a3b7cc;fill-opacity:1;stroke:none;stroke-width:0.63318539;stroke-linecap:round;stroke-linejoin:round;stroke-miterlimit:4;stroke-dasharray:none;stroke-opacity:1"
         d="m -3.96875,288.26875 h 6.8791667 c 0.2931583,0 0.5291666,0.23601 0.5291666,0.52917 v 6.87916 c 0,0.29316 -0.2360083,0.52917 -0.5291666,0.52917 H -3.96875 c -0.2931584,0 -0.5291667,-0.23601 -0.5291667,-0.52917 v -6.87916 c 0,-0.29316 0.2360083,-0.52917 0.5291667,-0.52917 z"
         id="rect843"
         inkscape:connector-curvature="0" />
      <path
         style="opacity:1;fill:#f1f1f1;fill-opacity:1;stroke:none;stroke-width:0.59097302;stroke-linecap:round;stroke-linejoin:round;stroke-miterlimit:4;stroke-dasharray:none;stroke-opacity:1"
         d="m -3.96875,288.53333 h 6.8791667 c 0.1465789,0 0.2645833,0.11801 0.2645833,0.26459 v 6.87916 c 0,0.14658 -0.1180044,0.26459 -0.2645833,0.26459 H -3.96875 c -0.1465792,0 -0.2645834,-0.11801 -0.2645834,-0.26459 v -6.87916 c 0,-0.14658 0.1180042,-0.26459 0.2645834,-0.26459 z"
         id="rect843-3"
         inkscape:connector-curvature="0" />
      <path
         style="opacity:1;fill:#2764c9;fill-opacity:1;stroke:none;stroke-width:0.5291667;stroke-linecap:round;stroke-linejoin:round;stroke-miterlimit:4;stroke-dasharray:none;stroke-dashoffset:0;stroke-opacity:1"
         d="m -1.984375,289.59167 c 0.6596062,0 1.19062502,0.53102 1.19062502,1.19062 0,0.65961 -0.53101882,1.19063 -1.19062502,1.19063 -0.6596063,0 -1.190625,-0.53102 -1.190625,-1.19063 0,-0.6596 0.5310187,-1.19062 1.190625,-1.19062 z"
         id="rect924"
         inkscape:connector-curvature="0" />
      <path
         style="opacity:1;fill:#363c4d;fill-opacity:1;stroke:none;stroke-width:0.5291667;stroke-linecap:round;stroke-linejoin:round;stroke-miterlimit:4;stroke-dasharray:none;stroke-dashoffset:0;stroke-opacity:1"
         d="m 0.92604172,289.59167 c 0.65960618,0 1.19062498,0.53102 1.19062498,1.19062 0,0.65961 -0.5310188,1.19063 -1.19062498,1.19063 -0.6596063,0 -1.1906251,-0.53102 -1.1906251,-1.19063 0,-0.6596 0.5310188,-1.19062 1.1906251,-1.19062 z"
         id="rect924-2"
         inkscape:connector-curvature="0" />
      <path
         style="opacity:1;fill:#363c4d;fill-opacity:1;stroke:none;stroke-width:0.5291667;stroke-linecap:round;stroke-linejoin:round;stroke-miterlimit:4;stroke-dasharray:none;stroke-dashoffset:0;stroke-opacity:1"
         d="m -1.984375,292.50208 c 0.6596062,0 1.19062502,0.53102 1.19062502,1.19063 0,0.6596 -0.53101882,1.19062 -1.19062502,1.19062 -0.6596063,0 -1.190625,-0.53102 -1.190625,-1.19062 0,-0.65961 0.5310187,-1.19063 1.190625,-1.19063 z"
         id="rect924-9"
         inkscape:connector-curvature="0" />
      <path
         style="opacity:1;fill:#2764c9;fill-opacity:1;stroke:none;stroke-width:0.5291667;stroke-linecap:round;stroke-linejoin:round;stroke-miterlimit:4;stroke-dasharray:none;stroke-dashoffset:0;stroke-opacity:1"
         d="m 0.92603772,292.50208 h 7.7e-6 c 0.65960408,0 1.19062128,0.53102 1.19062128,1.19063 0,0.6596 -0.5310172,1.19062 -1.19062108,1.19062 h -7.9e-6 c -0.6596039,0 -1.1906208,-0.53102 -1.1906208,-1.19062 0,-0.65961 0.5310167,-1.19063 1.1906208,-1.19063 z"
         id="rect924-2-1"
         inkscape:connector-curvature="0" />
      <path
         style="opacity:1;fill:#4f8df8;fill-opacity:1;stroke:none;stroke-width:0.5291667;stroke-linecap:round;stroke-linejoin:round;stroke-miterlimit:4;stroke-dasharray:none;stroke-dashoffset:0;stroke-opacity:1"
         d="m -1.984375,289.85625 c 0.5130271,0 0.9260416,0.41301 0.9260416,0.92604 0,0.51303 -0.4130145,0.92604 -0.9260416,0.92604 -0.5130271,0 -0.9260417,-0.41301 -0.9260417,-0.92604 0,-0.51303 0.4130146,-0.92604 0.9260417,-0.92604 z"
         id="rect964"
         inkscape:connector-curvature="0" />
      <path
         style="opacity:1;fill:#4b6477;fill-opacity:1;stroke:none;stroke-width:0.5291667;stroke-linecap:round;stroke-linejoin:round;stroke-miterlimit:4;stroke-dasharray:none;stroke-dashoffset:0;stroke-opacity:1"
         d="m -1.984375,292.76667 c 0.5130271,0 0.9260416,0.41301 0.9260416,0.92604 0,0.51303 -0.4130145,0.92604 -0.9260416,0.92604 -0.5130271,0 -0.9260417,-0.41301 -0.9260417,-0.92604 0,-0.51303 0.4130146,-0.92604 0.9260417,-0.92604 z"
         id="rect966"
         inkscape:connector-curvature="0" />
      <path
         style="opacity:1;fill:#4f8df8;fill-opacity:1;stroke:none;stroke-width:0.5291667;stroke-linecap:round;stroke-linejoin:round;stroke-miterlimit:4;stroke-dasharray:none;stroke-dashoffset:0;stroke-opacity:1"
         d="m 0.92604172,292.76667 c 0.51302698,0 0.92604158,0.41301 0.92604158,0.92604 0,0.51303 -0.4130146,0.92604 -0.92604158,0.92604 -0.5130271,0 -0.926041704374997,-0.41301 -0.926041704374997,-0.92604 0,-0.51303 0.413014604374997,-0.92604 0.926041704374997,-0.92604 z"
         id="rect968"
         inkscape:connector-curvature="0" />
      <path
         style="opacity:1;fill:#4b6477;fill-opacity:1;stroke:none;stroke-width:0.5291667;stroke-linecap:round;stroke-linejoin:round;stroke-miterlimit:4;stroke-dasharray:none;stroke-dashoffset:0;stroke-opacity:1"
         d="m 0.92604172,289.85625 c 0.51302698,0 0.92604158,0.41301 0.92604158,0.92604 0,0.51303 -0.4130146,0.92604 -0.92604158,0.92604 -0.5130271,0 -0.926041704374997,-0.41301 -0.926041704374997,-0.92604 0,-0.51303 0.413014604374997,-0.92604 0.926041704374997,-0.92604 z"
         id="rect970"
         inkscape:connector-curvature="0" />
    </g>
  </g>
</svg>
