<?xml version="1.0" encoding="UTF-8" standalone="no"?>
<!-- Created with Inkscape (http://www.inkscape.org/) -->

<svg
   xmlns:dc="http://purl.org/dc/elements/1.1/"
   xmlns:cc="http://creativecommons.org/ns#"
   xmlns:rdf="http://www.w3.org/1999/02/22-rdf-syntax-ns#"
   xmlns:svg="http://www.w3.org/2000/svg"
   xmlns="http://www.w3.org/2000/svg"
   xmlns:sodipodi="http://sodipodi.sourceforge.net/DTD/sodipodi-0.dtd"
   xmlns:inkscape="http://www.inkscape.org/namespaces/inkscape"
   width="32"
   height="32"
   viewBox="0 0 8.4666665 8.4666669"
   version="1.1"
   id="svg8"
   inkscape:version="0.92.3 (2405546, 2018-03-11)"
   sodipodi:docname="view-right-new.svg">
  <defs
     id="defs2" />
  <sodipodi:namedview
     id="base"
     pagecolor="#ffffff"
     bordercolor="#666666"
     borderopacity="1.0"
     inkscape:pageopacity="0.0"
     inkscape:pageshadow="2"
     inkscape:zoom="11.2"
     inkscape:cx="-13.22927"
     inkscape:cy="13.283898"
     inkscape:document-units="px"
     inkscape:current-layer="g13855"
     showgrid="true"
     units="px"
     inkscape:showpageshadow="false"
     inkscape:snap-bbox="true"
     inkscape:bbox-paths="true"
     inkscape:bbox-nodes="true"
     inkscape:snap-bbox-edge-midpoints="true"
     inkscape:snap-bbox-midpoints="true"
     inkscape:object-paths="true"
     inkscape:snap-intersection-paths="true"
     inkscape:window-width="1874"
     inkscape:window-height="1141"
     inkscape:window-x="46"
     inkscape:window-y="30"
     inkscape:window-maximized="1">
    <inkscape:grid
       type="xygrid"
       id="grid815" />
  </sodipodi:namedview>
  <metadata
     id="metadata5">
    <rdf:RDF>
      <cc:Work
         rdf:about="">
        <dc:format>image/svg+xml</dc:format>
        <dc:type
           rdf:resource="http://purl.org/dc/dcmitype/StillImage" />
        <dc:title />
      </cc:Work>
    </rdf:RDF>
  </metadata>
  <g
     inkscape:label="Capa 1"
     inkscape:groupmode="layer"
     id="layer1"
     transform="translate(0,-288.53333)">
    <g
       id="g13855"
       transform="translate(3.96875,-0.52916165)">
      <path
         id="path12329-6"
         d="m -3.7041667,289.59166 c -0.1465818,0 -0.2645833,0.118 -0.2645833,0.26458 v 6.87917 c 0,0.14658 0.1180015,0.26458 0.2645833,0.26458 h 7.9375001 c 0.1465818,0 0.2645833,-0.118 0.2645833,-0.26458 v -6.87917 c 0,-0.14658 -0.1180015,-0.26458 -0.2645833,-0.26458 h -3.70416672 -0.79375 z"
         style="fill:#a3b7cc;fill-opacity:1;stroke-width:0.26458338"
         inkscape:connector-curvature="0" />
      <path
         style="opacity:1;fill:#5e9c76;fill-opacity:1;stroke:none;stroke-width:0.5291667;stroke-linecap:round;stroke-linejoin:round;stroke-miterlimit:4;stroke-dasharray:none;stroke-dashoffset:0;stroke-opacity:1"
         d="m 0.26458328,290.64999 c -0.1465786,0 -0.264583295624998,0.11801 -0.264583295624998,0.26459 v 5.55625 0.26458 0.26458 H 0.26458328 4.2333334 c 0.1465786,0 0.2645833,-0.118 0.2645833,-0.26458 v -5.82083 c 0,-0.14658 -0.1180047,-0.26459 -0.2645833,-0.26459 z"
         id="rect1026-4"
         inkscape:connector-curvature="0" />
      <path
         style="fill:#f1f1f1;fill-opacity:1;stroke-width:0.26458338"
         d="m -3.7041667,291.44374 v 5.29167 H -1.5624998e-8 v -5.29167 z"
         id="path925-3"
         inkscape:connector-curvature="0"
         sodipodi:nodetypes="ccccc" />
      <path
         style="fill:#bae0bd;fill-opacity:1;stroke-width:0.26458338"
         d="m 0.26458328,291.44374 v 5.29167 H 4.2333334 v -5.29167 z"
         id="path13-5-2-9-4-2-6-6-3"
         inkscape:connector-curvature="0"
         sodipodi:nodetypes="ccccc" />
      <path
         id="rect1191-3"
         d="m -3.7041667,289.59166 c -0.1465791,0 -0.2645833,0.118 -0.2645833,0.26458 v 1.32292 0.26458 h 0.2645833 7.9375001 0.2645833 v -0.26458 -1.32292 c 0,-0.14658 -0.1180042,-0.26458 -0.2645833,-0.26458 z"
         style="opacity:1;fill:#36404d;fill-opacity:1;stroke:none;stroke-width:0.21378334;stroke-linecap:round;stroke-linejoin:round;stroke-miterlimit:4;stroke-dasharray:none;stroke-opacity:1;paint-order:stroke markers fill"
         inkscape:connector-curvature="0" />
      <path
         sodipodi:nodetypes="ccccc"
         id="rect4537-2-86"
         d="m -3.7041667,289.85624 v 1.32292 h 7.9375001 v -1.32292 z"
         style="fill:#4b6477;fill-opacity:1;stroke:none;stroke-width:0.10583334;stroke-linecap:round;stroke-linejoin:round;stroke-miterlimit:4;stroke-dasharray:none;stroke-opacity:1"
         inkscape:connector-curvature="0" />
      <path
         style="opacity:1;fill:#36404d;fill-opacity:1;stroke:none;stroke-width:0.5291667;stroke-linecap:round;stroke-linejoin:round;stroke-miterlimit:4;stroke-dasharray:none;stroke-dashoffset:0;stroke-opacity:1"
         d="m -2.6458344,291.97291 h 0.5291677 l 0.2645834,0.26458 h 0.793751 c 0.14657868,0 0.26458228,0.11801 0.26458228,0.26459 v 1.05833 c 0,0.14658 -0.1180036,0.26458 -0.26458228,0.26458 h -1.5875021 c -0.1465786,0 -0.2645823,-0.118 -0.2645823,-0.26458 v -1.32292 c 0,-0.14658 0.1180037,-0.26458 0.2645823,-0.26458 z"
         id="rect1104-8-0"
         inkscape:connector-curvature="0"
         sodipodi:nodetypes="sccssssssss" />
      <path
         style="opacity:1;fill:#4b6477;fill-opacity:1;stroke:none;stroke-width:0.5291667;stroke-linecap:round;stroke-linejoin:round;stroke-miterlimit:4;stroke-dasharray:none;stroke-dashoffset:0;stroke-opacity:1"
         d="m -2.6458333,292.76666 h 0.5291666 l 0.2645834,-0.26458 h 0.79375 v 1.05833 h -1.5875 z"
         id="rect1122-4"
         inkscape:connector-curvature="0"
         sodipodi:nodetypes="ccccccc" />
      <path
         style="opacity:1;fill:#36404d;fill-opacity:1;stroke:none;stroke-width:0.5291667;stroke-linecap:round;stroke-linejoin:round;stroke-miterlimit:4;stroke-dasharray:none;stroke-dashoffset:0;stroke-opacity:1"
         d="m -2.6458333,294.35416 h 0.5291677 l 0.2645833,0.26458 h 0.7937511 c 0.14657858,0 0.26458228,0.11801 0.26458228,0.26459 v 1.05833 c 0,0.14658 -0.1180037,0.26458 -0.26458228,0.26458 h -1.5875021 c -0.1465787,0 -0.2645823,-0.118 -0.2645823,-0.26458 v -1.32292 c 0,-0.14658 0.1180036,-0.26458 0.2645823,-0.26458 z"
         id="rect1104-8-2-8"
         inkscape:connector-curvature="0"
         sodipodi:nodetypes="sccssssssss" />
      <path
         style="opacity:1;fill:#4b6477;fill-opacity:1;stroke:none;stroke-width:0.5291667;stroke-linecap:round;stroke-linejoin:round;stroke-miterlimit:4;stroke-dasharray:none;stroke-dashoffset:0;stroke-opacity:1"
         d="m -2.6458323,295.14791 h 0.5291667 l 0.2645833,-0.26458 h 0.79375 v 1.05833 h -1.5875 z"
         id="rect1122-7-8"
         inkscape:connector-curvature="0"
         sodipodi:nodetypes="ccccccc" />
      <path
         inkscape:connector-curvature="0"
         id="rect1144-8"
         d="m 1.8520834,292.50208 c -0.1465792,0 -0.2645834,0.118 -0.2645834,0.26458 v 0.52917 H 1.0583334 c -0.14657872,0 -0.26458342,0.118 -0.26458342,0.26458 v 0.79375 c 0,0.14658 0.1180047,0.26458 0.26458342,0.26458 H 1.5875 v 0.52917 c 0,0.14658 0.1180042,0.26458 0.2645834,0.26458 h 0.79375 c 0.1465791,0 0.2645833,-0.118 0.2645833,-0.26458 v -0.52917 h 0.5291667 c 0.1465786,0 0.2645833,-0.118 0.2645833,-0.26458 v -0.79375 c 0,-0.14658 -0.1180047,-0.26458 -0.2645833,-0.26458 H 2.9104167 v -0.52917 c 0,-0.14658 -0.1180042,-0.26458 -0.2645833,-0.26458 z"
         style="opacity:1;fill:#5e9c76;fill-opacity:1;stroke:none;stroke-width:0.5291667;stroke-linecap:round;stroke-linejoin:round;stroke-miterlimit:4;stroke-dasharray:none;stroke-dashoffset:0;stroke-opacity:1" />
      <path
         inkscape:connector-curvature="0"
         id="rect1155-9"
         d="m 1.8520834,292.76666 v 0.79375 h -0.79375 v 0.79375 h 0.79375 v 0.79375 h 0.79375 v -0.79375 h 0.79375 v -0.79375 h -0.79375 v -0.79375 z"
         style="opacity:1;fill:#f0f5f5;fill-opacity:1;stroke:none;stroke-width:0.5291667;stroke-linecap:round;stroke-linejoin:round;stroke-miterlimit:4;stroke-dasharray:none;stroke-dashoffset:0;stroke-opacity:1" />
    </g>
  </g>
</svg>
