<?xml version="1.0" encoding="UTF-8" standalone="no"?>
<!-- Created with Inkscape (http://www.inkscape.org/) -->

<svg
   xmlns:dc="http://purl.org/dc/elements/1.1/"
   xmlns:cc="http://creativecommons.org/ns#"
   xmlns:rdf="http://www.w3.org/1999/02/22-rdf-syntax-ns#"
   xmlns:svg="http://www.w3.org/2000/svg"
   xmlns="http://www.w3.org/2000/svg"
   xmlns:sodipodi="http://sodipodi.sourceforge.net/DTD/sodipodi-0.dtd"
   xmlns:inkscape="http://www.inkscape.org/namespaces/inkscape"
   width="32"
   height="32"
   viewBox="0 0 8.4666665 8.4666669"
   version="1.1"
   id="svg8"
   inkscape:version="0.92.3 (2405546, 2018-03-11)"
   sodipodi:docname="view-list-icons.svg">
  <defs
     id="defs2" />
  <sodipodi:namedview
     id="base"
     pagecolor="#ffffff"
     bordercolor="#666666"
     borderopacity="1.0"
     inkscape:pageopacity="0.0"
     inkscape:pageshadow="2"
     inkscape:zoom="11.2"
     inkscape:cx="-13.22927"
     inkscape:cy="13.283898"
     inkscape:document-units="px"
     inkscape:current-layer="g10848"
     showgrid="true"
     units="px"
     inkscape:showpageshadow="false"
     inkscape:snap-bbox="true"
     inkscape:bbox-paths="true"
     inkscape:bbox-nodes="true"
     inkscape:snap-bbox-edge-midpoints="true"
     inkscape:snap-bbox-midpoints="true"
     inkscape:object-paths="true"
     inkscape:snap-intersection-paths="true"
     inkscape:window-width="1874"
     inkscape:window-height="1141"
     inkscape:window-x="46"
     inkscape:window-y="30"
     inkscape:window-maximized="1">
    <inkscape:grid
       type="xygrid"
       id="grid815" />
  </sodipodi:namedview>
  <metadata
     id="metadata5">
    <rdf:RDF>
      <cc:Work
         rdf:about="">
        <dc:format>image/svg+xml</dc:format>
        <dc:type
           rdf:resource="http://purl.org/dc/dcmitype/StillImage" />
        <dc:title />
      </cc:Work>
    </rdf:RDF>
  </metadata>
  <g
     inkscape:label="Capa 1"
     inkscape:groupmode="layer"
     id="layer1"
     transform="translate(0,-288.53333)">
    <g
       id="g10848"
       transform="translate(4.7625,1.0583383)">
      <path
         inkscape:connector-curvature="0"
         style="fill:#a3b7cc;fill-opacity:1;stroke-width:0.26458338"
         d="m -4.4979166,288.00416 c -0.1465819,0 -0.2645834,0.118 -0.2645834,0.26458 v 6.87917 c 0,0.14658 0.1180015,0.26458 0.2645834,0.26458 h 7.9375 c 0.1465818,0 0.2645833,-0.118 0.2645833,-0.26458 v -6.87917 c 0,-0.14658 -0.1180015,-0.26458 -0.2645833,-0.26458 H -0.26458327 -1.0583333 Z"
         id="path12329-7" />
      <path
         style="fill:#f1f1f1;fill-opacity:1;stroke-width:0.26458338"
         d="m -4.4979166,289.85624 v 5.29167 h 7.9375 v -5.29167 z"
         id="path13-5-2-9-4-2-6-6-3"
         inkscape:connector-curvature="0"
         sodipodi:nodetypes="ccccc" />
      <path
         inkscape:connector-curvature="0"
         style="opacity:1;fill:#36404d;fill-opacity:1;stroke:none;stroke-width:0.21378334;stroke-linecap:round;stroke-linejoin:round;stroke-miterlimit:4;stroke-dasharray:none;stroke-opacity:1;paint-order:stroke markers fill"
         d="m -4.4979166,288.00416 c -0.1465792,0 -0.2645834,0.118 -0.2645834,0.26458 v 1.32292 0.26458 h 0.2645834 7.9375 0.2645833 v -0.26458 -1.32292 c 0,-0.14658 -0.1180042,-0.26458 -0.2645833,-0.26458 z"
         id="rect1191-6" />
      <path
         inkscape:connector-curvature="0"
         style="fill:#4b6477;fill-opacity:1;stroke:none;stroke-width:0.10583334;stroke-linecap:round;stroke-linejoin:round;stroke-miterlimit:4;stroke-dasharray:none;stroke-opacity:1"
         d="m -4.4979166,288.26874 v 1.32292 h 7.9375 v -1.32292 z"
         id="rect4537-2-5"
         sodipodi:nodetypes="ccccc" />
      <path
         sodipodi:nodetypes="sccssssssss"
         inkscape:connector-curvature="0"
         id="rect1104-8-63"
         d="m -2.6458344,290.38541 h 0.5291677 l 0.2645834,0.26458 h 0.793751 c 0.14657873,0 0.26458233,0.11801 0.26458233,0.26459 v 1.05833 c 0,0.14658 -0.1180036,0.26458 -0.26458233,0.26458 h -1.5875021 c -0.1465786,0 -0.2645823,-0.118 -0.2645823,-0.26458 v -1.32292 c 0,-0.14658 0.1180037,-0.26458 0.2645823,-0.26458 z"
         style="opacity:1;fill:#36404d;fill-opacity:1;stroke:none;stroke-width:0.5291667;stroke-linecap:round;stroke-linejoin:round;stroke-miterlimit:4;stroke-dasharray:none;stroke-dashoffset:0;stroke-opacity:1" />
      <path
         sodipodi:nodetypes="ccccccc"
         inkscape:connector-curvature="0"
         id="rect1122-94"
         d="m -2.6458333,291.17916 h 0.5291666 l 0.2645834,-0.26458 h 0.79375 v 1.05833 h -1.5875 z"
         style="opacity:1;fill:#4b6477;fill-opacity:1;stroke:none;stroke-width:0.5291667;stroke-linecap:round;stroke-linejoin:round;stroke-miterlimit:4;stroke-dasharray:none;stroke-dashoffset:0;stroke-opacity:1" />
      <path
         sodipodi:nodetypes="sccssssssss"
         inkscape:connector-curvature="0"
         id="rect1104-81"
         d="M -9.70625e-7,290.38541 H 0.52916673 l 0.2645833,0.26458 H 1.5875011 c 0.1465786,0 0.2645823,0.11801 0.2645823,0.26459 v 1.05833 c 0,0.14658 -0.1180037,0.26458 -0.2645823,0.26458 H -9.70625e-7 c -0.146578699375,0 -0.264582299375,-0.118 -0.264582299375,-0.26458 v -1.32292 c 0,-0.14658 0.1180036,-0.26458 0.264582299375,-0.26458 z"
         style="opacity:1;fill:#4f92db;fill-opacity:1;stroke:none;stroke-width:0.5291667;stroke-linecap:round;stroke-linejoin:round;stroke-miterlimit:4;stroke-dasharray:none;stroke-dashoffset:0;stroke-opacity:1" />
      <path
         sodipodi:nodetypes="ccccccc"
         inkscape:connector-curvature="0"
         id="rect1122-9-2"
         d="M 2.9375002e-8,291.17916 H 0.52916673 l 0.2645833,-0.26458 H 1.5875 v 1.05833 H 2.9375002e-8 Z"
         style="opacity:1;fill:#5ac0ff;fill-opacity:1;stroke:none;stroke-width:0.5291667;stroke-linecap:round;stroke-linejoin:round;stroke-miterlimit:4;stroke-dasharray:none;stroke-dashoffset:0;stroke-opacity:1" />
      <path
         sodipodi:nodetypes="sccssssssss"
         inkscape:connector-curvature="0"
         id="rect1104-8-2-9"
         d="m -2.6458333,292.76666 h 0.5291677 l 0.2645833,0.26458 h 0.7937511 c 0.14657863,0 0.26458233,0.11801 0.26458233,0.26459 v 1.05833 c 0,0.14658 -0.1180037,0.26458 -0.26458233,0.26458 h -1.5875021 c -0.1465787,0 -0.2645823,-0.118 -0.2645823,-0.26458 v -1.32292 c 0,-0.14658 0.1180036,-0.26458 0.2645823,-0.26458 z"
         style="opacity:1;fill:#4f92db;fill-opacity:1;stroke:none;stroke-width:0.5291667;stroke-linecap:round;stroke-linejoin:round;stroke-miterlimit:4;stroke-dasharray:none;stroke-dashoffset:0;stroke-opacity:1" />
      <path
         sodipodi:nodetypes="ccccccc"
         inkscape:connector-curvature="0"
         id="rect1122-7-3"
         d="m -2.6458323,293.56041 h 0.5291667 l 0.2645833,-0.26458 h 0.79375 v 1.05833 h -1.5875 z"
         style="opacity:1;fill:#5ac0ff;fill-opacity:1;stroke:none;stroke-width:0.5291667;stroke-linecap:round;stroke-linejoin:round;stroke-miterlimit:4;stroke-dasharray:none;stroke-dashoffset:0;stroke-opacity:1" />
      <path
         sodipodi:nodetypes="sccssssssss"
         inkscape:connector-curvature="0"
         id="rect1104-8-6"
         d="M 2.9375002e-8,292.76666 H 0.52916773 l 0.2645834,0.26458 H 1.5875021 c 0.1465787,0 0.2645823,0.11801 0.2645823,0.26459 v 1.05833 c 0,0.14658 -0.1180036,0.26458 -0.2645823,0.26458 H 2.9375002e-8 C -0.14657857,294.61874 -0.26458227,294.50074 -0.26458227,294.35416 v -1.32292 c 0,-0.14658 0.1180037,-0.26458 0.264582299375002,-0.26458 z"
         style="opacity:1;fill:#36404d;fill-opacity:1;stroke:none;stroke-width:0.5291667;stroke-linecap:round;stroke-linejoin:round;stroke-miterlimit:4;stroke-dasharray:none;stroke-dashoffset:0;stroke-opacity:1" />
      <path
         sodipodi:nodetypes="ccccccc"
         inkscape:connector-curvature="0"
         id="rect1122-75"
         d="M 1.129375e-6,293.56041 H 0.52916773 l 0.2645834,-0.26458 H 1.5875011 v 1.05833 H 1.129375e-6 Z"
         style="opacity:1;fill:#4b6477;fill-opacity:1;stroke:none;stroke-width:0.5291667;stroke-linecap:round;stroke-linejoin:round;stroke-miterlimit:4;stroke-dasharray:none;stroke-dashoffset:0;stroke-opacity:1" />
    </g>
  </g>
</svg>
