<?xml version="1.0" encoding="UTF-8" standalone="no"?>
<!-- Created with Inkscape (http://www.inkscape.org/) -->

<svg
   xmlns:dc="http://purl.org/dc/elements/1.1/"
   xmlns:cc="http://creativecommons.org/ns#"
   xmlns:rdf="http://www.w3.org/1999/02/22-rdf-syntax-ns#"
   xmlns:svg="http://www.w3.org/2000/svg"
   xmlns="http://www.w3.org/2000/svg"
   xmlns:sodipodi="http://sodipodi.sourceforge.net/DTD/sodipodi-0.dtd"
   xmlns:inkscape="http://www.inkscape.org/namespaces/inkscape"
   width="32"
   height="32"
   viewBox="0 0 8.4666665 8.4666669"
   version="1.1"
   id="svg8"
   inkscape:version="0.92.3 (2405546, 2018-03-11)"
   sodipodi:docname="view-list-details.svg">
  <defs
     id="defs2" />
  <sodipodi:namedview
     id="base"
     pagecolor="#ffffff"
     bordercolor="#666666"
     borderopacity="1.0"
     inkscape:pageopacity="0.0"
     inkscape:pageshadow="2"
     inkscape:zoom="11.2"
     inkscape:cx="-13.22927"
     inkscape:cy="13.283898"
     inkscape:document-units="px"
     inkscape:current-layer="g10120"
     showgrid="true"
     units="px"
     inkscape:showpageshadow="false"
     inkscape:snap-bbox="true"
     inkscape:bbox-paths="true"
     inkscape:bbox-nodes="true"
     inkscape:snap-bbox-edge-midpoints="true"
     inkscape:snap-bbox-midpoints="true"
     inkscape:object-paths="true"
     inkscape:snap-intersection-paths="true"
     inkscape:window-width="1874"
     inkscape:window-height="1141"
     inkscape:window-x="46"
     inkscape:window-y="30"
     inkscape:window-maximized="1">
    <inkscape:grid
       type="xygrid"
       id="grid815" />
  </sodipodi:namedview>
  <metadata
     id="metadata5">
    <rdf:RDF>
      <cc:Work
         rdf:about="">
        <dc:format>image/svg+xml</dc:format>
        <dc:type
           rdf:resource="http://purl.org/dc/dcmitype/StillImage" />
        <dc:title />
      </cc:Work>
    </rdf:RDF>
  </metadata>
  <g
     inkscape:label="Capa 1"
     inkscape:groupmode="layer"
     id="layer1"
     transform="translate(0,-288.53333)">
    <g
       id="g10120"
       transform="translate(3.4395833,0.79375835)">
      <path
         id="path12329"
         d="m -3.175,288.26874 c -0.1465818,0 -0.2645833,0.118 -0.2645833,0.26458 v 6.87917 c 0,0.14658 0.1180015,0.26458 0.2645833,0.26458 h 7.9375001 c 0.1465818,0 0.2645833,-0.118 0.2645833,-0.26458 v -6.87917 c 0,-0.14658 -0.1180015,-0.26458 -0.2645833,-0.26458 H 1.0583334 0.26458335 Z"
         style="fill:#a3b7cc;fill-opacity:1;stroke-width:0.26458338"
         inkscape:connector-curvature="0" />
      <path
         sodipodi:nodetypes="ccccc"
         inkscape:connector-curvature="0"
         id="path13-5-2-9-4-2-6-6"
         d="m -3.175,290.12082 v 5.29167 h 7.9375001 v -5.29167 z"
         style="fill:#f1f1f1;fill-opacity:1;stroke-width:0.26458338" />
      <path
         id="rect1191"
         d="m -3.175,288.26874 c -0.1465792,0 -0.2645833,0.118 -0.2645833,0.26458 v 1.32292 0.26458 H -3.175 4.7625001 5.0270834 v -0.26458 -1.32292 c 0,-0.14658 -0.1180042,-0.26458 -0.2645833,-0.26458 z"
         style="opacity:1;fill:#363c4d;fill-opacity:1;stroke:none;stroke-width:0.21378334;stroke-linecap:round;stroke-linejoin:round;stroke-miterlimit:4;stroke-dasharray:none;stroke-opacity:1;paint-order:stroke markers fill"
         inkscape:connector-curvature="0" />
      <path
         sodipodi:nodetypes="ccccc"
         id="rect4537-2"
         d="m -3.175,288.53332 v 1.32292 h 7.9375001 v -1.32292 z"
         style="fill:#4b6477;fill-opacity:1;stroke:none;stroke-width:0.10583334;stroke-linecap:round;stroke-linejoin:round;stroke-miterlimit:4;stroke-dasharray:none;stroke-opacity:1"
         inkscape:connector-curvature="0" />
      <path
         style="opacity:1;fill:#36404d;fill-opacity:1;stroke:none;stroke-width:0.5291667;stroke-linecap:round;stroke-linejoin:round;stroke-miterlimit:4;stroke-dasharray:none;stroke-dashoffset:0;stroke-opacity:1"
         d="m -1.3229177,290.64999 h 0.52916765 l 0.2645834,0.26458 h 0.793751 c 0.1465787,0 0.2645823,0.11801 0.2645823,0.26459 v 1.05833 c 0,0.14658 -0.1180036,0.26458 -0.2645823,0.26458 H -1.3229177 c -0.1465786,0 -0.2645823,-0.118 -0.2645823,-0.26458 v -1.32292 c 0,-0.14658 0.1180037,-0.26458 0.2645823,-0.26458 z"
         id="rect1104-8-27"
         inkscape:connector-curvature="0"
         sodipodi:nodetypes="sccssssssss" />
      <path
         style="opacity:1;fill:#4b6477;fill-opacity:1;stroke:none;stroke-width:0.5291667;stroke-linecap:round;stroke-linejoin:round;stroke-miterlimit:4;stroke-dasharray:none;stroke-dashoffset:0;stroke-opacity:1"
         d="m -1.3229166,291.44374 h 0.52916655 l 0.2645834,-0.26458 h 0.79375 v 1.05833 H -1.3229166 Z"
         id="rect1122-2"
         inkscape:connector-curvature="0"
         sodipodi:nodetypes="ccccccc" />
      <path
         style="opacity:1;fill:#4f92db;fill-opacity:1;stroke:none;stroke-width:0.5291667;stroke-linecap:round;stroke-linejoin:round;stroke-miterlimit:4;stroke-dasharray:none;stroke-dashoffset:0;stroke-opacity:1"
         d="m -1.3229166,293.03124 h 0.52916765 l 0.2645833,0.26458 h 0.7937511 c 0.1465786,0 0.2645823,0.11801 0.2645823,0.26459 v 1.05833 c 0,0.14658 -0.1180037,0.26458 -0.2645823,0.26458 H -1.3229166 c -0.1465787,0 -0.2645823,-0.118 -0.2645823,-0.26458 v -1.32292 c 0,-0.14658 0.1180036,-0.26458 0.2645823,-0.26458 z"
         id="rect1104-8-2"
         inkscape:connector-curvature="0"
         sodipodi:nodetypes="sccssssssss" />
      <path
         style="opacity:1;fill:#5ac0ff;fill-opacity:1;stroke:none;stroke-width:0.5291667;stroke-linecap:round;stroke-linejoin:round;stroke-miterlimit:4;stroke-dasharray:none;stroke-dashoffset:0;stroke-opacity:1"
         d="m -1.3229156,293.82499 h 0.52916665 l 0.2645833,-0.26458 h 0.79375 v 1.05833 H -1.3229156 Z"
         id="rect1122-7"
         inkscape:connector-curvature="0"
         sodipodi:nodetypes="ccccccc" />
      <path
         style="opacity:1;fill:#36404d;fill-opacity:1;stroke:none;stroke-width:0.5291667;stroke-linecap:round;stroke-linejoin:round;stroke-miterlimit:4;stroke-dasharray:none;stroke-dashoffset:0;stroke-opacity:1"
         d="m 1.0583323,294.08957 h 2.1166688 c 0.1465787,0 0.2645823,0.11801 0.2645823,0.26459 v 0.26458 c 0,0.14658 -0.1180036,0.26458 -0.2645823,0.26458 H 1.0583323 c -0.14657865,0 -0.26458235,-0.118 -0.26458235,-0.26458 v -0.26458 c 0,-0.14658 0.1180037,-0.26459 0.26458235,-0.26459 z"
         id="rect912"
         inkscape:connector-curvature="0" />
      <path
         style="opacity:1;fill:#4b6477;fill-opacity:1;stroke:none;stroke-width:0.5291667;stroke-linecap:round;stroke-linejoin:round;stroke-miterlimit:4;stroke-dasharray:none;stroke-dashoffset:0;stroke-opacity:1"
         d="m 1.0583334,294.35416 h 2.1166667 v 0.26458 H 1.0583334 Z"
         id="rect914"
         inkscape:connector-curvature="0" />
      <path
         style="opacity:1;fill:#4f92db;fill-opacity:1;stroke:none;stroke-width:0.5291667;stroke-linecap:round;stroke-linejoin:round;stroke-miterlimit:4;stroke-dasharray:none;stroke-dashoffset:0;stroke-opacity:1"
         d="m 1.0583323,291.70832 h 2.1166688 c 0.1465787,0 0.2645823,0.11801 0.2645823,0.26459 v 0.26458 c 0,0.14658 -0.1180036,0.26458 -0.2645823,0.26458 H 1.0583323 c -0.14657865,0 -0.26458235,-0.118 -0.26458235,-0.26458 v -0.26458 c 0,-0.14658 0.1180037,-0.26459 0.26458235,-0.26459 z"
         id="rect912-3"
         inkscape:connector-curvature="0" />
      <path
         style="opacity:1;fill:#5ac0ff;fill-opacity:1;stroke:none;stroke-width:0.5291667;stroke-linecap:round;stroke-linejoin:round;stroke-miterlimit:4;stroke-dasharray:none;stroke-dashoffset:0;stroke-opacity:1"
         d="m 1.0583334,291.97291 h 2.1166667 v 0.26458 H 1.0583334 Z"
         id="rect914-5"
         inkscape:connector-curvature="0" />
      <path
         style="opacity:1;fill:#36404d;fill-opacity:1;stroke:none;stroke-width:0.5291667;stroke-linecap:round;stroke-linejoin:round;stroke-miterlimit:4;stroke-dasharray:none;stroke-dashoffset:0;stroke-opacity:1"
         d="m 1.0583323,293.03124 h 1.3229188 c 0.1465787,0 0.2645823,0.118 0.2645823,0.26458 v 0.26459 c 0,0.14658 -0.1180036,0.26458 -0.2645823,0.26458 H 1.0583323 c -0.14657865,0 -0.26458235,-0.118 -0.26458235,-0.26458 v -0.26459 c 0,-0.14658 0.1180037,-0.26458 0.26458235,-0.26458 z"
         id="rect912-3-6"
         inkscape:connector-curvature="0" />
      <path
         style="opacity:1;fill:#4b6477;fill-opacity:1;stroke:none;stroke-width:0.5291667;stroke-linecap:round;stroke-linejoin:round;stroke-miterlimit:4;stroke-dasharray:none;stroke-dashoffset:0;stroke-opacity:1"
         d="m 1.0583334,293.29582 h 1.3229167 v 0.26459 H 1.0583334 Z"
         id="rect914-5-2"
         inkscape:connector-curvature="0" />
      <path
         style="opacity:1;fill:#36404d;fill-opacity:1;stroke:none;stroke-width:0.5291667;stroke-linecap:round;stroke-linejoin:round;stroke-miterlimit:4;stroke-dasharray:none;stroke-dashoffset:0;stroke-opacity:1"
         d="m 1.0583323,290.64999 h 1.3229188 c 0.1465787,0 0.2645823,0.118 0.2645823,0.26458 v 0.26459 c 0,0.14658 -0.1180036,0.26458 -0.2645823,0.26458 H 1.0583323 c -0.14657865,0 -0.26458235,-0.118 -0.26458235,-0.26458 v -0.26459 c 0,-0.14658 0.1180037,-0.26458 0.26458235,-0.26458 z"
         id="rect912-3-6-9"
         inkscape:connector-curvature="0" />
      <path
         style="opacity:1;fill:#4b6477;fill-opacity:1;stroke:none;stroke-width:0.5291667;stroke-linecap:round;stroke-linejoin:round;stroke-miterlimit:4;stroke-dasharray:none;stroke-dashoffset:0;stroke-opacity:1"
         d="m 1.0583334,290.91457 h 1.3229167 v 0.26459 H 1.0583334 Z"
         id="rect914-5-2-1"
         inkscape:connector-curvature="0" />
    </g>
  </g>
</svg>
