<?xml version="1.0" encoding="UTF-8" standalone="no"?>
<!-- Created with Inkscape (http://www.inkscape.org/) -->

<svg
   xmlns:dc="http://purl.org/dc/elements/1.1/"
   xmlns:cc="http://creativecommons.org/ns#"
   xmlns:rdf="http://www.w3.org/1999/02/22-rdf-syntax-ns#"
   xmlns:svg="http://www.w3.org/2000/svg"
   xmlns="http://www.w3.org/2000/svg"
   xmlns:sodipodi="http://sodipodi.sourceforge.net/DTD/sodipodi-0.dtd"
   xmlns:inkscape="http://www.inkscape.org/namespaces/inkscape"
   width="32"
   height="32"
   viewBox="0 0 8.4666665 8.4666669"
   version="1.1"
   id="svg8"
   inkscape:version="0.92.3 (2405546, 2018-03-11)"
   sodipodi:docname="view-right-close.svg">
  <defs
     id="defs2" />
  <sodipodi:namedview
     id="base"
     pagecolor="#ffffff"
     bordercolor="#666666"
     borderopacity="1.0"
     inkscape:pageopacity="0.0"
     inkscape:pageshadow="2"
     inkscape:zoom="11.2"
     inkscape:cx="-13.22927"
     inkscape:cy="13.283898"
     inkscape:document-units="px"
     inkscape:current-layer="g13131"
     showgrid="true"
     units="px"
     inkscape:showpageshadow="false"
     inkscape:snap-bbox="true"
     inkscape:bbox-paths="true"
     inkscape:bbox-nodes="true"
     inkscape:snap-bbox-edge-midpoints="true"
     inkscape:snap-bbox-midpoints="true"
     inkscape:object-paths="true"
     inkscape:snap-intersection-paths="true"
     inkscape:window-width="1874"
     inkscape:window-height="1141"
     inkscape:window-x="46"
     inkscape:window-y="30"
     inkscape:window-maximized="1">
    <inkscape:grid
       type="xygrid"
       id="grid815" />
  </sodipodi:namedview>
  <metadata
     id="metadata5">
    <rdf:RDF>
      <cc:Work
         rdf:about="">
        <dc:format>image/svg+xml</dc:format>
        <dc:type
           rdf:resource="http://purl.org/dc/dcmitype/StillImage" />
        <dc:title />
      </cc:Work>
    </rdf:RDF>
  </metadata>
  <g
     inkscape:label="Capa 1"
     inkscape:groupmode="layer"
     id="layer1"
     transform="translate(0,-288.53333)">
    <g
       id="g13131"
       transform="translate(5.8208334,-1.3229116)">
      <path
         id="path12329-7"
         d="m -5.55625,290.38541 c -0.1465818,0 -0.2645834,0.118 -0.2645834,0.26458 v 6.87917 c 0,0.14658 0.1180016,0.26458 0.2645834,0.26458 h 7.9375 c 0.1465818,0 0.2645833,-0.118 0.2645833,-0.26458 v -6.87917 c 0,-0.14658 -0.1180015,-0.26458 -0.2645833,-0.26458 h -3.7041667 -0.79375 z"
         style="fill:#a3b7cc;fill-opacity:1;stroke-width:0.26458338"
         inkscape:connector-curvature="0" />
      <path
         style="fill:#f1f1f1;fill-opacity:1;stroke-width:0.26458338"
         d="m -5.55625,292.23749 v 5.29167 h 3.7041666 v -5.29167 z"
         id="path925"
         inkscape:connector-curvature="0"
         sodipodi:nodetypes="ccccc" />
      <path
         style="opacity:1;fill:#c64646;fill-opacity:1;stroke:none;stroke-width:0.5291667;stroke-linecap:round;stroke-linejoin:round;stroke-miterlimit:4;stroke-dasharray:none;stroke-dashoffset:0;stroke-opacity:1"
         d="m -1.5875001,291.44374 c -0.1465786,0 -0.2645833,0.11801 -0.2645833,0.26459 v 5.55625 0.26458 0.26458 H -1.5875001 2.38125 c 0.1465786,0 0.2645833,-0.118 0.2645833,-0.26458 v -5.82083 c 0,-0.14658 -0.1180047,-0.26459 -0.2645833,-0.26459 z"
         id="rect1026"
         inkscape:connector-curvature="0" />
      <path
         style="fill:#f68d8d;fill-opacity:1;stroke-width:0.26458338"
         d="m -1.5875001,292.23749 v 5.29167 H 2.38125 v -5.29167 z"
         id="path13-5-2-9-4-2-6-6-4"
         inkscape:connector-curvature="0"
         sodipodi:nodetypes="ccccc" />
      <path
         id="rect1191-1"
         d="m -5.55625,290.38541 c -0.1465792,0 -0.2645834,0.118 -0.2645834,0.26458 v 1.32292 0.26458 h 0.2645834 7.9375 0.2645833 v -0.26458 -1.32292 c 0,-0.14658 -0.1180042,-0.26458 -0.2645833,-0.26458 z"
         style="opacity:1;fill:#36404d;fill-opacity:1;stroke:none;stroke-width:0.21378334;stroke-linecap:round;stroke-linejoin:round;stroke-miterlimit:4;stroke-dasharray:none;stroke-opacity:1;paint-order:stroke markers fill"
         inkscape:connector-curvature="0" />
      <path
         sodipodi:nodetypes="ccccc"
         id="rect4537-2-8"
         d="m -5.55625,290.64999 v 1.32292 h 7.9375 v -1.32292 z"
         style="fill:#4b6477;fill-opacity:1;stroke:none;stroke-width:0.10583334;stroke-linecap:round;stroke-linejoin:round;stroke-miterlimit:4;stroke-dasharray:none;stroke-opacity:1"
         inkscape:connector-curvature="0" />
      <path
         style="opacity:1;fill:#36404d;fill-opacity:1;stroke:none;stroke-width:0.5291667;stroke-linecap:round;stroke-linejoin:round;stroke-miterlimit:4;stroke-dasharray:none;stroke-dashoffset:0;stroke-opacity:1"
         d="m -4.4979178,292.76666 h 0.5291677 l 0.2645834,0.26458 h 0.793751 c 0.1465787,0 0.2645823,0.11801 0.2645823,0.26459 v 1.05833 c 0,0.14658 -0.1180036,0.26458 -0.2645823,0.26458 h -1.5875021 c -0.1465786,0 -0.2645823,-0.118 -0.2645823,-0.26458 v -1.32292 c 0,-0.14658 0.1180037,-0.26458 0.2645823,-0.26458 z"
         id="rect1104-8-5"
         inkscape:connector-curvature="0"
         sodipodi:nodetypes="sccssssssss" />
      <path
         style="opacity:1;fill:#4b6477;fill-opacity:1;stroke:none;stroke-width:0.5291667;stroke-linecap:round;stroke-linejoin:round;stroke-miterlimit:4;stroke-dasharray:none;stroke-dashoffset:0;stroke-opacity:1"
         d="m -4.4979167,293.56041 h 0.5291666 l 0.2645834,-0.26458 h 0.79375 v 1.05833 h -1.5875 z"
         id="rect1122-97"
         inkscape:connector-curvature="0"
         sodipodi:nodetypes="ccccccc" />
      <path
         style="opacity:1;fill:#36404d;fill-opacity:1;stroke:none;stroke-width:0.5291667;stroke-linecap:round;stroke-linejoin:round;stroke-miterlimit:4;stroke-dasharray:none;stroke-dashoffset:0;stroke-opacity:1"
         d="m -4.4979167,295.14791 h 0.5291677 l 0.2645833,0.26458 h 0.7937511 c 0.1465786,0 0.2645823,0.11801 0.2645823,0.26459 v 1.05833 c 0,0.14658 -0.1180037,0.26458 -0.2645823,0.26458 h -1.5875021 c -0.1465787,0 -0.2645823,-0.118 -0.2645823,-0.26458 v -1.32292 c 0,-0.14658 0.1180036,-0.26458 0.2645823,-0.26458 z"
         id="rect1104-8-2"
         inkscape:connector-curvature="0"
         sodipodi:nodetypes="sccssssssss" />
      <path
         style="opacity:1;fill:#4b6477;fill-opacity:1;stroke:none;stroke-width:0.5291667;stroke-linecap:round;stroke-linejoin:round;stroke-miterlimit:4;stroke-dasharray:none;stroke-dashoffset:0;stroke-opacity:1"
         d="m -4.4979157,295.94166 h 0.5291667 l 0.2645833,-0.26458 h 0.79375 v 1.05833 h -1.5875 z"
         id="rect1122-7"
         inkscape:connector-curvature="0"
         sodipodi:nodetypes="ccccccc" />
      <path
         inkscape:connector-curvature="0"
         id="rect1144"
         d="M -0.79375106,294.08958 H 1.587501 c 0.1465787,0 0.2645823,0.118 0.2645823,0.26458 v 0.79375 c 0,0.14658 -0.1180036,0.26458 -0.2645823,0.26458 h -2.38125206 c -0.1465786,0 -0.26458234,-0.118 -0.26458234,-0.26458 v -0.79375 c 0,-0.14658 0.11800374,-0.26458 0.26458234,-0.26458 z"
         style="opacity:1;fill:#c64646;fill-opacity:1;stroke:none;stroke-width:0.5291667;stroke-linecap:round;stroke-linejoin:round;stroke-miterlimit:4;stroke-dasharray:none;stroke-dashoffset:0;stroke-opacity:1" />
      <path
         inkscape:connector-curvature="0"
         id="rect1155"
         d="M -0.79374996,294.35416 H 1.5875 v 0.79375 h -2.38124996 z"
         style="opacity:1;fill:#f0f5f5;fill-opacity:1;stroke:none;stroke-width:0.5291667;stroke-linecap:round;stroke-linejoin:round;stroke-miterlimit:4;stroke-dasharray:none;stroke-dashoffset:0;stroke-opacity:1" />
    </g>
  </g>
</svg>
