<?xml version="1.0" encoding="UTF-8" standalone="no"?>
<!-- Created with Inkscape (http://www.inkscape.org/) -->

<svg
   width="32"
   height="32"
   viewBox="0 0 32 32"
   version="1.1"
   id="svg8"
   inkscape:version="1.2.1 (9c6d41e410, 2022-07-14)"
   sodipodi:docname="application-x-firmware.svg"
   xml:space="preserve"
   xmlns:inkscape="http://www.inkscape.org/namespaces/inkscape"
   xmlns:sodipodi="http://sodipodi.sourceforge.net/DTD/sodipodi-0.dtd"
   xmlns="http://www.w3.org/2000/svg"
   xmlns:svg="http://www.w3.org/2000/svg"
   xmlns:rdf="http://www.w3.org/1999/02/22-rdf-syntax-ns#"
   xmlns:cc="http://creativecommons.org/ns#"
   xmlns:dc="http://purl.org/dc/elements/1.1/"><title
     id="title7895">Antu icon Theme</title><defs
     id="defs2"><style
       id="current-color-scheme"
       type="text/css">
      .ColorScheme-Text {
        color:#122036;
      }
      </style><style
       type="text/css"
       id="current-color-scheme-5">
      .ColorScheme-Text {
        color:#122036;
      }
      </style><style
       type="text/css"
       id="current-color-scheme-2">
      .ColorScheme-Text {
        color:#122036;
      }
      </style><style
       type="text/css"
       id="current-color-scheme-1">
      .ColorScheme-Text {
        color:#122036;
      }
      </style><style
       id="current-color-scheme-10"
       type="text/css">
      .ColorScheme-Text {
        color:#122036;
      }
      </style><style
       type="text/css"
       id="current-color-scheme-0">
      .ColorScheme-Text {
        color:#122036;
      }
      </style><style
       type="text/css"
       id="current-color-scheme-26">
      .ColorScheme-Text {
        color:#122036;
      }
      </style><style
       id="current-color-scheme-27"
       type="text/css">
      .ColorScheme-Text {
        color:#122036;
      }
      </style><style
       id="current-color-scheme-7"
       type="text/css">
      .ColorScheme-Text {
        color:#122036;
      }
      </style><style
       id="current-color-scheme-5-09"
       type="text/css">
      .ColorScheme-Text {
        color:#122036;
      }
      </style><style
       id="current-color-scheme-0-3"
       type="text/css">
      .ColorScheme-Text {
        color:#122036;
      }
      </style><style
       id="current-color-scheme-7-9"
       type="text/css">
      .ColorScheme-Text {
        color:#122036;
      }
      </style><style
       id="current-color-scheme-5-3"
       type="text/css">
      .ColorScheme-Text {
        color:#122036;
      }
      </style><style
       id="current-color-scheme-79"
       type="text/css">
      .ColorScheme-Text {
        color:#122036;
      }
      </style><style
       id="current-color-scheme-7-2"
       type="text/css">
      .ColorScheme-Text {
        color:#122036;
      }
      </style><style
       id="current-color-scheme-5-0"
       type="text/css">
      .ColorScheme-Text {
        color:#122036;
      }
      </style><style
       type="text/css"
       id="current-color-scheme-53">
      .ColorScheme-Text {
        color:#122036;
      }
      </style><style
       type="text/css"
       id="current-color-scheme-2-5">
      .ColorScheme-Text {
        color:#122036;
      }
      </style><style
       type="text/css"
       id="current-color-scheme-0-6">
      .ColorScheme-Text {
        color:#122036;
      }
      </style><style
       type="text/css"
       id="current-color-scheme-09">
      .ColorScheme-Text {
        color:#36404d;
      }
      </style><style
       type="text/css"
       id="current-color-scheme-67">
      .ColorScheme-Text {
        color:#122036;
      }
      </style><style
       type="text/css"
       id="current-color-scheme-7-3">
      .ColorScheme-Text {
        color:#122036;
      }
      </style><style
       type="text/css"
       id="current-color-scheme-5-6">
      .ColorScheme-Text {
        color:#122036;
      }
      </style><style
       type="text/css"
       id="current-color-scheme-6">
      .ColorScheme-Text {
        color:#122036;
      }
      </style><style
       type="text/css"
       id="current-color-scheme-1-0">
      .ColorScheme-Text {
        color:#122036;
      }
      </style><style
       id="current-color-scheme-10-6"
       type="text/css">
      .ColorScheme-Text {
        color:#122036;
      }
      </style><style
       id="current-color-scheme-5-7"
       type="text/css">
      .ColorScheme-Text {
        color:#122036;
      }
      </style><style
       id="current-color-scheme-1-2"
       type="text/css">
      .ColorScheme-Text {
        color:#122036;
      }
      </style><style
       type="text/css"
       id="current-color-scheme-10-9">
      .ColorScheme-Text {
        color:#122036;
      }
      </style><style
       type="text/css"
       id="current-color-scheme-70">
      .ColorScheme-Text {
        color:#36404d;
      }
      </style><style
       id="current-color-scheme-22"
       type="text/css">
      .ColorScheme-Text {
        color:#122036;
      }
      </style><style
       type="text/css"
       id="current-color-scheme-5-8">
      .ColorScheme-Text {
        color:#122036;
      }
      </style><style
       type="text/css"
       id="current-color-scheme-2-9">
      .ColorScheme-Text {
        color:#122036;
      }
      </style><style
       type="text/css"
       id="current-color-scheme-1-7">
      .ColorScheme-Text {
        color:#122036;
      }
      </style><style
       id="current-color-scheme-10-3"
       type="text/css">
      .ColorScheme-Text {
        color:#122036;
      }
      </style><style
       id="current-color-scheme-20"
       type="text/css">
      .ColorScheme-Text {
        color:#122036;
      }
      </style><style
       type="text/css"
       id="current-color-scheme-1-2-6">
      .ColorScheme-Text {
        color:#122036;
      }
      </style><style
       type="text/css"
       id="current-color-scheme-9">
      .ColorScheme-Text {
        color:#122036;
      }
      </style><style
       id="current-color-scheme-53-1"
       type="text/css">
      .ColorScheme-Text {
        color:#122036;
      }
      </style><style
       type="text/css"
       id="current-color-scheme-5-3-2">
      .ColorScheme-Text {
        color:#122036;
      }
      </style><style
       type="text/css"
       id="current-color-scheme-2-7">
      .ColorScheme-Text {
        color:#122036;
      }
      </style><style
       type="text/css"
       id="current-color-scheme-1-1">
      .ColorScheme-Text {
        color:#122036;
      }
      </style><style
       id="current-color-scheme-10-5"
       type="text/css">
      .ColorScheme-Text {
        color:#122036;
      }
      </style><style
       id="current-color-scheme-4"
       type="text/css">
      .ColorScheme-Text {
        color:#122036;
      }
      </style><style
       id="current-color-scheme-6-5"
       type="text/css">
      .ColorScheme-Text {
        color:#122036;
      }
      </style><style
       id="current-color-scheme-67-0"
       type="text/css">
      .ColorScheme-Text {
        color:#122036;
      }
      </style><style
       type="text/css"
       id="current-color-scheme-5-36">
      .ColorScheme-Text {
        color:#122036;
      }
      </style><style
       type="text/css"
       id="current-color-scheme-2-1">
      .ColorScheme-Text {
        color:#122036;
      }
      </style><style
       type="text/css"
       id="current-color-scheme-1-06">
      .ColorScheme-Text {
        color:#122036;
      }
      </style><style
       id="current-color-scheme-10-32"
       type="text/css">
      .ColorScheme-Text {
        color:#122036;
      }
      </style><style
       id="current-color-scheme-20-0"
       type="text/css">
      .ColorScheme-Text {
        color:#122036;
      }
      </style><style
       type="text/css"
       id="current-color-scheme-1-2-61">
      .ColorScheme-Text {
        color:#122036;
      }
      </style><style
       type="text/css"
       id="current-color-scheme-9-5">
      .ColorScheme-Text {
        color:#122036;
      }
      </style><style
       id="current-color-scheme-53-5"
       type="text/css">
      .ColorScheme-Text {
        color:#122036;
      }
      </style><style
       type="text/css"
       id="current-color-scheme-5-3-4">
      .ColorScheme-Text {
        color:#122036;
      }
      </style><style
       type="text/css"
       id="current-color-scheme-2-7-7">
      .ColorScheme-Text {
        color:#122036;
      }
      </style><style
       type="text/css"
       id="current-color-scheme-1-1-6">
      .ColorScheme-Text {
        color:#122036;
      }
      </style><style
       id="current-color-scheme-10-5-5"
       type="text/css">
      .ColorScheme-Text {
        color:#122036;
      }
      </style><style
       id="current-color-scheme-535"
       type="text/css">
      .ColorScheme-Text {
        color:#122036;
      }
      </style></defs><sodipodi:namedview
     id="base"
     pagecolor="#ffffff"
     bordercolor="#666666"
     borderopacity="1.0"
     inkscape:pageopacity="0.0"
     inkscape:pageshadow="2"
     inkscape:zoom="11.313709"
     inkscape:cx="21.345785"
     inkscape:cy="8.5294752"
     inkscape:document-units="px"
     inkscape:current-layer="g5329"
     showgrid="true"
     units="px"
     inkscape:window-width="2160"
     inkscape:window-height="1335"
     inkscape:window-x="0"
     inkscape:window-y="0"
     inkscape:window-maximized="1"
     objecttolerance="10"
     gridtolerance="10"
     guidetolerance="10"
     inkscape:snap-bbox="true"
     inkscape:bbox-nodes="true"
     inkscape:showpageshadow="false"
     inkscape:bbox-paths="true"
     inkscape:snap-bbox-edge-midpoints="true"
     inkscape:snap-bbox-midpoints="true"
     inkscape:object-paths="true"
     inkscape:snap-intersection-paths="true"
     inkscape:object-nodes="false"
     inkscape:snap-smooth-nodes="false"
     inkscape:snap-midpoints="false"
     inkscape:pagecheckerboard="0"
     inkscape:deskcolor="#d1d1d1"
     showguides="false"><inkscape:grid
       type="xygrid"
       id="grid7897"
       empspacing="4" /></sodipodi:namedview><metadata
     id="metadata5"><rdf:RDF><cc:Work
         rdf:about=""><dc:format>image/svg+xml</dc:format><dc:type
           rdf:resource="http://purl.org/dc/dcmitype/StillImage" /><dc:title>Antu icon Theme</dc:title></cc:Work></rdf:RDF></metadata><g
     inkscape:label="Capa 1"
     inkscape:groupmode="layer"
     id="layer1"
     transform="translate(0,-282.64999)"><g
       id="g5329"
       transform="translate(84,-4)"><path
         inkscape:connector-curvature="0"
         style="opacity:1;fill:#3b8691;fill-opacity:1;stroke:none;stroke-width:2;stroke-linecap:round;stroke-linejoin:round;stroke-miterlimit:4;stroke-dasharray:none;stroke-opacity:1"
         d="M -78.999999,287.64999 H -57 c 1.108,0 2,0.89202 2,2.00001 v 26.00001 c 0,1.10797 -0.892,1.99998 -2,1.99998 h -21.999999 c -1.108,0 -2,-0.89201 -2,-1.99998 v -26 c 0,-1.108 0.892,-2 2,-2.00002 z"
         id="rect827-8" /><path
         id="path9630"
         style="opacity:1;fill:#5bb1be;fill-opacity:1;stroke:none;stroke-width:2;stroke-linecap:round;stroke-linejoin:round;stroke-miterlimit:4;stroke-dasharray:none;stroke-opacity:1"
         d="M -79 288.64999 C -79.553998 288.64999 -80 289.096 -80 289.64999 L -80 302.64999 L -77 302.64999 L -77 307.64999 L -74.921875 307.64999 C -74.897275 307.57719 -74.867141 307.50622 -74.832031 307.43905 C -74.796911 307.37185 -74.757551 307.30818 -74.712891 307.24765 C -74.668231 307.18715 -74.617671 307.13063 -74.564453 307.07772 C -74.511233 307.02482 -74.45533 306.97553 -74.394531 306.93124 C -74.333731 306.88694 -74.268572 306.84684 -74.201172 306.8121 C -74.133772 306.7774 -74.063258 306.74831 -73.990234 306.72421 C -73.917214 306.70011 -73.841338 306.68212 -73.763672 306.66952 C -73.686002 306.65702 -73.606721 306.64999 -73.525391 306.64999 L -73.474609 306.64999 C -73.372497 306.64999 -73.271945 306.65999 -73.175781 306.67929 C -73.079621 306.69889 -72.988659 306.72802 -72.900391 306.76522 C -72.812121 306.80242 -72.726862 306.84902 -72.648438 306.90194 C -72.570008 306.95484 -72.498275 307.015 -72.431641 307.08163 C -72.365001 307.14823 -72.30485 307.22 -72.251953 307.29843 C -72.199053 307.37683 -72.152443 307.46211 -72.115234 307.55038 C -72.078024 307.63868 -72.048877 307.72961 -72.029297 307.82577 C -72.009717 307.92197 -72 308.02249 -72 308.1246 L -72 308.17538 C -72 308.27749 -72.009697 308.37804 -72.029297 308.47421 C -72.048877 308.57041 -72.078024 308.66133 -72.115234 308.7496 C -72.152444 308.8379 -72.199054 308.92313 -72.251953 309.00155 C -72.304853 309.07995 -72.365006 309.15171 -72.431641 309.21835 C -72.498271 309.28495 -72.570012 309.34514 -72.648438 309.39804 C -72.726857 309.45094 -72.812122 309.49754 -72.900391 309.53476 C -72.988661 309.57196 -73.079617 309.60109 -73.175781 309.62069 C -73.271941 309.64029 -73.372497 309.64999 -73.474609 309.64999 L -73.525391 309.64999 C -73.606721 309.64999 -73.686005 309.64296 -73.763672 309.63046 C -73.841342 309.61786 -73.917211 309.59987 -73.990234 309.57577 C -74.063254 309.55167 -74.133771 309.52258 -74.201172 309.48788 C -74.268572 309.45318 -74.333733 309.41298 -74.394531 309.36874 C -74.455331 309.32444 -74.511236 309.27514 -74.564453 309.22226 C -74.617673 309.16936 -74.668234 309.11286 -74.712891 309.05233 C -74.757551 308.99183 -74.796911 308.9281 -74.832031 308.86093 C -74.867151 308.79373 -74.897285 308.72281 -74.921875 308.64999 L -78 308.64999 L -78 307.64999 L -78 303.64999 L -80 303.64999 L -80 315.64999 C -80 316.204 -79.553998 316.64999 -79 316.64999 L -57 316.64999 C -56.446002 316.64999 -56 316.204 -56 315.64999 L -56 306.64999 L -60 306.64999 L -60 307.64999 L -60 308.64999 L -63.083984 308.64999 C -63.109594 308.72299 -63.141654 308.79366 -63.177734 308.86093 C -63.213814 308.92823 -63.253264 308.99177 -63.298828 309.05233 C -63.344388 309.11293 -63.395148 309.16936 -63.449219 309.22226 C -63.503289 309.27516 -63.56144 309.32449 -63.623047 309.36874 C -63.684657 309.41294 -63.750197 309.45324 -63.818359 309.48788 C -63.886519 309.52248 -63.95751 309.55167 -64.03125 309.57577 C -64.10499 309.59987 -64.181425 309.61796 -64.259766 309.63046 C -64.338106 309.64296 -64.418036 309.64999 -64.5 309.64999 C -64.603875 309.64999 -64.704912 309.63864 -64.802734 309.61874 C -64.900554 309.59884 -64.994195 309.5706 -65.083984 309.5328 C -65.173774 309.495 -65.260068 309.4479 -65.339844 309.39413 C -65.419614 309.34033 -65.494719 309.28027 -65.5625 309.21249 C -65.63028 309.14469 -65.690334 309.06961 -65.744141 308.98983 C -65.797951 308.91003 -65.844962 308.82376 -65.882812 308.73397 C -65.920662 308.64417 -65.94883 308.55055 -65.96875 308.45272 C -65.988664 308.35484 -66 308.25386 -66 308.14999 C -66 308.04612 -65.98867 307.94508 -65.96875 307.84726 C -65.94883 307.74946 -65.920662 307.65579 -65.882812 307.56601 C -65.844963 307.47621 -65.797942 307.38992 -65.744141 307.31015 C -65.690331 307.23035 -65.630281 307.15527 -65.5625 307.08749 C -65.49472 307.01969 -65.419619 306.95966 -65.339844 306.90585 C -65.260064 306.85205 -65.173773 306.80503 -65.083984 306.76718 C -64.994194 306.72938 -64.900556 306.70114 -64.802734 306.68124 C -64.704914 306.66134 -64.603875 306.64999 -64.5 306.64999 C -64.41804 306.64999 -64.338106 306.65702 -64.259766 306.66952 C -64.181426 306.68202 -64.10499 306.70011 -64.03125 306.72421 C -63.95751 306.74831 -63.886521 306.7774 -63.818359 306.8121 C -63.750199 306.8467 -63.684654 306.887 -63.623047 306.93124 C -63.561437 306.97544 -63.503293 307.02484 -63.449219 307.07772 C -63.395149 307.13062 -63.344393 307.18708 -63.298828 307.24765 C -63.253268 307.30825 -63.213808 307.37179 -63.177734 307.43905 C -63.141654 307.50635 -63.109594 307.57699 -63.083984 307.64999 L -61 307.64999 L -61 306.64999 L -61 305.64999 L -56 305.64999 L -56 302.14999 C -56 302.25386 -56.01133 302.3549 -56.03125 302.45272 C -56.05117 302.55052 -56.079338 302.64419 -56.117188 302.73397 C -56.155037 302.82377 -56.202058 302.91006 -56.255859 302.98983 C -56.309669 303.06963 -56.369719 303.14471 -56.4375 303.21249 C -56.50528 303.28029 -56.580381 303.34032 -56.660156 303.39413 C -56.739936 303.44793 -56.826227 303.49495 -56.916016 303.5328 C -57.005806 303.5706 -57.099444 303.59884 -57.197266 303.61874 C -57.295086 303.63864 -57.396125 303.64999 -57.5 303.64999 C -57.58196 303.64999 -57.661894 303.64296 -57.740234 303.63046 C -57.818574 303.61796 -57.89501 303.59987 -57.96875 303.57577 C -58.04249 303.55167 -58.113479 303.52258 -58.181641 303.48788 C -58.249801 303.45328 -58.315346 303.41298 -58.376953 303.36874 C -58.438563 303.32454 -58.496707 303.27514 -58.550781 303.22226 C -58.604851 303.16936 -58.655607 303.1129 -58.701172 303.05233 C -58.746732 302.99173 -58.786192 302.92819 -58.822266 302.86093 C -58.858346 302.79363 -58.890406 302.72299 -58.916016 302.64999 L -62 302.64999 L -62 301.64999 L -62 298.64999 L -63.083984 298.64999 C -63.109594 298.72299 -63.141654 298.79366 -63.177734 298.86093 C -63.213814 298.92823 -63.253264 298.99177 -63.298828 299.05233 C -63.344388 299.11293 -63.395148 299.16936 -63.449219 299.22226 C -63.503289 299.27516 -63.56144 299.32449 -63.623047 299.36874 C -63.684657 299.41294 -63.750197 299.45324 -63.818359 299.48788 C -63.886519 299.52248 -63.95751 299.55167 -64.03125 299.57577 C -64.10499 299.59987 -64.181425 299.61796 -64.259766 299.63046 C -64.338106 299.64296 -64.418036 299.64999 -64.5 299.64999 C -64.603875 299.64999 -64.704912 299.63864 -64.802734 299.61874 C -64.900554 299.59884 -64.994195 299.5706 -65.083984 299.5328 C -65.173774 299.495 -65.260068 299.4479 -65.339844 299.39413 C -65.419614 299.34033 -65.494719 299.28027 -65.5625 299.21249 C -65.63028 299.14469 -65.690334 299.06961 -65.744141 298.98983 C -65.797951 298.91003 -65.844962 298.82376 -65.882812 298.73397 C -65.920662 298.64417 -65.94883 298.55055 -65.96875 298.45272 C -65.988664 298.35482 -66 298.25386 -66 298.14999 C -66 298.04612 -65.98867 297.94508 -65.96875 297.84726 C -65.94883 297.74946 -65.920662 297.65579 -65.882812 297.56601 C -65.844963 297.47621 -65.797942 297.38992 -65.744141 297.31015 C -65.690331 297.23035 -65.630281 297.15527 -65.5625 297.08749 C -65.49472 297.01969 -65.419619 296.95966 -65.339844 296.90585 C -65.260064 296.85205 -65.173773 296.80503 -65.083984 296.76718 C -64.994194 296.72938 -64.900556 296.70114 -64.802734 296.68124 C -64.704914 296.66134 -64.603875 296.64999 -64.5 296.64999 C -64.41804 296.64999 -64.338106 296.65702 -64.259766 296.66952 C -64.181426 296.68202 -64.10499 296.70011 -64.03125 296.72421 C -63.95751 296.74831 -63.886521 296.7774 -63.818359 296.8121 C -63.750199 296.8467 -63.684654 296.887 -63.623047 296.93124 C -63.561437 296.97544 -63.503293 297.02484 -63.449219 297.07772 C -63.395149 297.13062 -63.344393 297.18708 -63.298828 297.24765 C -63.253268 297.30825 -63.213808 297.37179 -63.177734 297.43905 C -63.141654 297.50635 -63.109594 297.57699 -63.083984 297.64999 L -61 297.64999 L -61 301.64999 L -58.916016 301.64999 C -58.890406 301.57699 -58.858346 301.50632 -58.822266 301.43905 C -58.786186 301.37175 -58.746736 301.30821 -58.701172 301.24765 C -58.655612 301.18705 -58.604852 301.13062 -58.550781 301.07772 C -58.496711 301.02482 -58.43856 300.97549 -58.376953 300.93124 C -58.315343 300.88704 -58.249803 300.84674 -58.181641 300.8121 C -58.113481 300.7775 -58.04249 300.74831 -57.96875 300.72421 C -57.89501 300.70011 -57.818575 300.68202 -57.740234 300.66952 C -57.661894 300.65702 -57.581964 300.64999 -57.5 300.64999 C -57.396125 300.64999 -57.295088 300.66134 -57.197266 300.68124 C -57.099446 300.70114 -57.005805 300.72938 -56.916016 300.76718 C -56.826226 300.80498 -56.739932 300.85208 -56.660156 300.90585 C -56.580386 300.95965 -56.505281 301.01971 -56.4375 301.08749 C -56.36972 301.15529 -56.309666 301.23037 -56.255859 301.31015 C -56.202049 301.38995 -56.155038 301.47622 -56.117188 301.56601 C -56.079338 301.65581 -56.05117 301.74943 -56.03125 301.84726 C -56.01133 301.94506 -56 302.04612 -56 302.14999 L -56 299.64999 L -59 299.64999 L -59 298.64999 L -59 296.56601 C -59.073 296.54041 -59.143673 296.50826 -59.210938 296.47226 C -59.278197 296.43616 -59.341782 296.39676 -59.402344 296.35116 C -59.462904 296.30556 -59.519375 296.25486 -59.572266 296.20077 C -59.625156 296.14667 -59.6745 296.08855 -59.71875 296.02694 C -59.763 295.96534 -59.80325 295.89979 -59.837891 295.83163 C -59.872531 295.76343 -59.901721 295.69248 -59.925781 295.61874 C -59.949841 295.54504 -59.967949 295.46856 -59.980469 295.39022 C -59.992989 295.31192 -60 295.23195 -60 295.14999 C -60 295.04612 -59.98867 294.94508 -59.96875 294.84726 C -59.94883 294.74946 -59.920662 294.65579 -59.882812 294.56601 C -59.844963 294.47621 -59.797942 294.38992 -59.744141 294.31015 C -59.690331 294.23035 -59.630281 294.15527 -59.5625 294.08749 C -59.49472 294.01969 -59.419619 293.95966 -59.339844 293.90585 C -59.260064 293.85205 -59.173773 293.80503 -59.083984 293.76718 C -58.994194 293.72938 -58.900556 293.70114 -58.802734 293.68124 C -58.704914 293.66134 -58.603875 293.64999 -58.5 293.64999 C -58.396125 293.64999 -58.295088 293.66134 -58.197266 293.68124 C -58.099446 293.70114 -58.005805 293.72938 -57.916016 293.76718 C -57.826226 293.80498 -57.739932 293.85208 -57.660156 293.90585 C -57.580386 293.95965 -57.505281 294.01971 -57.4375 294.08749 C -57.36972 294.15529 -57.309666 294.23037 -57.255859 294.31015 C -57.202049 294.38995 -57.155038 294.47622 -57.117188 294.56601 C -57.079338 294.65581 -57.05117 294.74943 -57.03125 294.84726 C -57.01133 294.94506 -57 295.04612 -57 295.14999 C -57 295.23199 -57.007001 295.31188 -57.019531 295.39022 C -57.032051 295.46852 -57.050159 295.545 -57.074219 295.61874 C -57.098279 295.69244 -57.127469 295.76347 -57.162109 295.83163 C -57.196749 295.89983 -57.236999 295.96534 -57.28125 296.02694 C -57.3255 296.08854 -57.37484 296.1467 -57.427734 296.20077 C -57.480624 296.25487 -57.537094 296.3056 -57.597656 296.35116 C -57.658216 296.39676 -57.721799 296.43616 -57.789062 296.47226 C -57.856322 296.50836 -57.927002 296.54041 -58 296.56601 L -58 298.64999 L -56 298.64999 L -56 291.64999 L -60.083984 291.64999 C -60.109594 291.72299 -60.141654 291.79366 -60.177734 291.86093 C -60.213814 291.92823 -60.253264 291.99177 -60.298828 292.05233 C -60.344388 292.11293 -60.395148 292.16936 -60.449219 292.22226 C -60.503289 292.27516 -60.56144 292.32449 -60.623047 292.36874 C -60.684657 292.41294 -60.750197 292.45324 -60.818359 292.48788 C -60.886519 292.52248 -60.95751 292.55167 -61.03125 292.57577 C -61.10499 292.59987 -61.181425 292.61796 -61.259766 292.63046 C -61.338106 292.64296 -61.418036 292.64999 -61.5 292.64999 C -61.603875 292.64999 -61.704912 292.63864 -61.802734 292.61874 C -61.900554 292.59884 -61.994195 292.5706 -62.083984 292.5328 C -62.173774 292.495 -62.260068 292.4479 -62.339844 292.39413 C -62.419614 292.34033 -62.494719 292.28027 -62.5625 292.21249 C -62.63028 292.14469 -62.690334 292.06961 -62.744141 291.98983 C -62.797951 291.91003 -62.844962 291.82376 -62.882812 291.73397 C -62.920662 291.64417 -62.94883 291.55055 -62.96875 291.45272 C -62.988668 291.35482 -63 291.25386 -63 291.14999 C -63 291.04612 -62.98867 290.94508 -62.96875 290.84726 C -62.94883 290.74946 -62.920662 290.65579 -62.882812 290.56601 C -62.844963 290.47621 -62.797942 290.38992 -62.744141 290.31015 C -62.690331 290.23035 -62.630281 290.15527 -62.5625 290.08749 C -62.49472 290.01969 -62.419619 289.95966 -62.339844 289.90585 C -62.260064 289.85205 -62.173773 289.80503 -62.083984 289.76718 C -61.994194 289.72938 -61.900556 289.70114 -61.802734 289.68124 C -61.704914 289.66134 -61.603875 289.64999 -61.5 289.64999 C -61.41804 289.64999 -61.338106 289.65702 -61.259766 289.66952 C -61.181426 289.68202 -61.10499 289.70011 -61.03125 289.72421 C -60.95751 289.74831 -60.886521 289.7774 -60.818359 289.8121 C -60.750199 289.8467 -60.684654 289.887 -60.623047 289.93124 C -60.561437 289.97544 -60.503293 290.02484 -60.449219 290.07772 C -60.395149 290.13062 -60.344393 290.18708 -60.298828 290.24765 C -60.253268 290.30825 -60.213808 290.37179 -60.177734 290.43905 C -60.141654 290.50635 -60.109594 290.57699 -60.083984 290.64999 L -56 290.64999 L -56 289.64999 C -56 289.09598 -56.446002 288.64999 -57 288.64999 L -73 288.64999 L -73 290.64999 L -69.916016 290.64999 C -69.890406 290.57699 -69.858346 290.50632 -69.822266 290.43905 C -69.786186 290.37175 -69.746736 290.30821 -69.701172 290.24765 C -69.655612 290.18705 -69.604852 290.13062 -69.550781 290.07772 C -69.496711 290.02482 -69.43856 289.97549 -69.376953 289.93124 C -69.315343 289.88704 -69.249803 289.84674 -69.181641 289.8121 C -69.113481 289.7775 -69.04249 289.74831 -68.96875 289.72421 C -68.89501 289.70011 -68.818575 289.68202 -68.740234 289.66952 C -68.661894 289.65702 -68.581964 289.64999 -68.5 289.64999 C -68.396125 289.64999 -68.295088 289.66134 -68.197266 289.68124 C -68.099446 289.70114 -68.005805 289.72938 -67.916016 289.76718 C -67.826226 289.80498 -67.739932 289.85208 -67.660156 289.90585 C -67.580386 289.95965 -67.505281 290.01971 -67.4375 290.08749 C -67.36972 290.15529 -67.309666 290.23037 -67.255859 290.31015 C -67.202049 290.38995 -67.155038 290.47622 -67.117188 290.56601 C -67.079338 290.65581 -67.05117 290.74943 -67.03125 290.84726 C -67.01133 290.94506 -67 291.04612 -67 291.14999 C -67 291.25386 -67.01133 291.3549 -67.03125 291.45272 C -67.05117 291.55052 -67.079338 291.64419 -67.117188 291.73397 C -67.155037 291.82377 -67.202058 291.91006 -67.255859 291.98983 C -67.309669 292.06963 -67.369719 292.14471 -67.4375 292.21249 C -67.50528 292.28029 -67.580381 292.34032 -67.660156 292.39413 C -67.739936 292.44793 -67.826227 292.49495 -67.916016 292.5328 C -68.005806 292.5706 -68.099444 292.59884 -68.197266 292.61874 C -68.295086 292.63864 -68.396125 292.64999 -68.5 292.64999 C -68.58196 292.64999 -68.661894 292.64296 -68.740234 292.63046 C -68.818574 292.61796 -68.89501 292.59987 -68.96875 292.57577 C -69.04249 292.55167 -69.113479 292.52258 -69.181641 292.48788 C -69.249801 292.45328 -69.315346 292.41298 -69.376953 292.36874 C -69.438563 292.32454 -69.496707 292.27514 -69.550781 292.22226 C -69.604851 292.16936 -69.655607 292.1129 -69.701172 292.05233 C -69.746732 291.99173 -69.786192 291.92819 -69.822266 291.86093 C -69.858346 291.79363 -69.890406 291.72299 -69.916016 291.64999 L -73 291.64999 L -74 291.64999 L -74 290.64999 L -74 288.64999 L -79 288.64999 z M -77.5 289.64999 C -77.396125 289.64999 -77.295088 289.66134 -77.197266 289.68124 C -77.099446 289.70114 -77.005805 289.72938 -76.916016 289.76718 C -76.826226 289.80498 -76.739932 289.85208 -76.660156 289.90585 C -76.580386 289.95965 -76.505281 290.01971 -76.4375 290.08749 C -76.36972 290.15529 -76.309666 290.23037 -76.255859 290.31015 C -76.202049 290.38995 -76.155038 290.47622 -76.117188 290.56601 C -76.079338 290.65581 -76.05117 290.74943 -76.03125 290.84726 C -76.01133 290.94506 -76 291.04612 -76 291.14999 C -76 291.23199 -76.007001 291.31188 -76.019531 291.39022 C -76.032051 291.46852 -76.050159 291.545 -76.074219 291.61874 C -76.098279 291.69244 -76.127469 291.76347 -76.162109 291.83163 C -76.196749 291.89983 -76.236999 291.96534 -76.28125 292.02694 C -76.3255 292.08854 -76.37484 292.1467 -76.427734 292.20077 C -76.480624 292.25487 -76.537094 292.3056 -76.597656 292.35116 C -76.658216 292.39676 -76.721799 292.43616 -76.789062 292.47226 C -76.856322 292.50836 -76.927002 292.54041 -77 292.56601 L -77 297.73397 C -76.927 297.75957 -76.856327 297.79172 -76.789062 297.82772 C -76.721803 297.86382 -76.658218 297.90322 -76.597656 297.94882 C -76.537096 297.99442 -76.480625 298.04512 -76.427734 298.09921 C -76.374844 298.15331 -76.3255 298.21143 -76.28125 298.27304 C -76.237 298.33464 -76.19675 298.40019 -76.162109 298.46835 C -76.127469 298.53655 -76.098279 298.6075 -76.074219 298.68124 C -76.050159 298.75494 -76.032051 298.83142 -76.019531 298.90976 C -76.007011 298.98806 -76 299.06803 -76 299.14999 C -76 299.25386 -76.01133 299.3549 -76.03125 299.45272 C -76.05117 299.55052 -76.079338 299.64419 -76.117188 299.73397 C -76.155037 299.82377 -76.202058 299.91006 -76.255859 299.98983 C -76.309669 300.06963 -76.369719 300.14471 -76.4375 300.21249 C -76.50528 300.28029 -76.580381 300.34032 -76.660156 300.39413 C -76.739936 300.44793 -76.826227 300.49495 -76.916016 300.5328 C -77.005806 300.5706 -77.099444 300.59884 -77.197266 300.61874 C -77.295086 300.63864 -77.396125 300.64999 -77.5 300.64999 C -77.603875 300.64999 -77.704912 300.63864 -77.802734 300.61874 C -77.900554 300.59884 -77.994195 300.5706 -78.083984 300.5328 C -78.173774 300.495 -78.260068 300.4479 -78.339844 300.39413 C -78.419614 300.34033 -78.494719 300.28027 -78.5625 300.21249 C -78.63028 300.14469 -78.690334 300.06961 -78.744141 299.98983 C -78.797951 299.91003 -78.844962 299.82376 -78.882812 299.73397 C -78.920662 299.64417 -78.94883 299.55055 -78.96875 299.45272 C -78.988664 299.35509 -79 299.25386 -79 299.14999 C -79 299.06799 -78.992999 298.9881 -78.980469 298.90976 C -78.967949 298.83146 -78.949841 298.75498 -78.925781 298.68124 C -78.901721 298.60754 -78.872531 298.53651 -78.837891 298.46835 C -78.803251 298.40015 -78.763001 298.33464 -78.71875 298.27304 C -78.6745 298.21144 -78.62516 298.15328 -78.572266 298.09921 C -78.519376 298.04511 -78.462906 297.99438 -78.402344 297.94882 C -78.341784 297.90322 -78.278201 297.86382 -78.210938 297.82772 C -78.143678 297.79162 -78.072998 297.75957 -78 297.73397 L -78 292.56601 C -78.073 292.54041 -78.143673 292.50826 -78.210938 292.47226 C -78.278197 292.43616 -78.341782 292.39676 -78.402344 292.35116 C -78.462904 292.30556 -78.519375 292.25486 -78.572266 292.20077 C -78.625156 292.14667 -78.6745 292.08855 -78.71875 292.02694 C -78.763 291.96534 -78.80325 291.89979 -78.837891 291.83163 C -78.872531 291.76343 -78.901721 291.69248 -78.925781 291.61874 C -78.949841 291.54504 -78.967949 291.46856 -78.980469 291.39022 C -78.992989 291.31192 -79 291.23195 -79 291.14999 C -79 291.04612 -78.98867 290.94508 -78.96875 290.84726 C -78.94883 290.74946 -78.920662 290.65579 -78.882812 290.56601 C -78.844963 290.47621 -78.797942 290.38992 -78.744141 290.31015 C -78.690331 290.23035 -78.630281 290.15527 -78.5625 290.08749 C -78.49472 290.01969 -78.419619 289.95966 -78.339844 289.90585 C -78.260064 289.85205 -78.173773 289.80503 -78.083984 289.76718 C -77.994194 289.72938 -77.900556 289.70114 -77.802734 289.68124 C -77.704914 289.66134 -77.603875 289.64999 -77.5 289.64999 z M -77.525391 290.64999 C -77.790304 290.66333 -78 290.88165 -78 291.14999 C -78 291.42699 -77.777 291.64999 -77.5 291.64999 C -77.223 291.64999 -77 291.42699 -77 291.14999 C -77 290.87299 -77.223 290.64999 -77.5 290.64999 C -77.508656 290.64999 -77.516845 290.64956 -77.525391 290.64999 z M -68.525391 290.64999 C -68.790304 290.66333 -69 290.88165 -69 291.14999 C -69 291.42699 -68.777 291.64999 -68.5 291.64999 C -68.223 291.64999 -68 291.42699 -68 291.14999 C -68 290.87299 -68.223 290.64999 -68.5 290.64999 C -68.508656 290.64999 -68.516845 290.64956 -68.525391 290.64999 z M -61.525391 290.64999 C -61.790304 290.66333 -62 290.88165 -62 291.14999 C -62 291.42699 -61.777 291.64999 -61.5 291.64999 C -61.223 291.64999 -61 291.42699 -61 291.14999 C -61 290.87299 -61.223 290.64999 -61.5 290.64999 C -61.508656 290.64999 -61.516845 290.64956 -61.525391 290.64999 z M -58.525391 294.64999 C -58.790304 294.66333 -59 294.88165 -59 295.14999 C -59 295.42699 -58.777 295.64999 -58.5 295.64999 C -58.223 295.64999 -58 295.42699 -58 295.14999 C -58 294.87299 -58.223 294.64999 -58.5 294.64999 C -58.508656 294.64999 -58.516845 294.64956 -58.525391 294.64999 z M -64.525391 297.64999 C -64.790304 297.66333 -65 297.88165 -65 298.14999 C -65 298.42699 -64.777 298.64999 -64.5 298.64999 C -64.223 298.64999 -64 298.42699 -64 298.14999 C -64 297.87299 -64.223 297.64999 -64.5 297.64999 C -64.508656 297.64999 -64.516845 297.64956 -64.525391 297.64999 z M -77.525391 298.64999 C -77.790304 298.66333 -78 298.88165 -78 299.14999 C -78 299.42699 -77.777 299.64999 -77.5 299.64999 C -77.223 299.64999 -77 299.42699 -77 299.14999 C -77 298.87299 -77.223 298.64999 -77.5 298.64999 C -77.508656 298.64999 -77.516845 298.64956 -77.525391 298.64999 z M -57.525391 301.64999 C -57.790304 301.66333 -58 301.88165 -58 302.14999 C -58 302.42699 -57.777 302.64999 -57.5 302.64999 C -57.223 302.64999 -57 302.42699 -57 302.14999 C -57 301.87299 -57.223 301.64999 -57.5 301.64999 C -57.508656 301.64999 -57.516845 301.64956 -57.525391 301.64999 z M -73.525391 307.64999 C -73.790304 307.66333 -74 307.88165 -74 308.14999 C -74 308.42699 -73.777 308.64999 -73.5 308.64999 C -73.223 308.64999 -73 308.42699 -73 308.14999 C -73 307.87299 -73.223 307.64999 -73.5 307.64999 C -73.508656 307.64999 -73.516845 307.64956 -73.525391 307.64999 z M -64.525391 307.64999 C -64.790304 307.66333 -65 307.88165 -65 308.14999 C -65 308.42699 -64.777 308.64999 -64.5 308.64999 C -64.223 308.64999 -64 308.42699 -64 308.14999 C -64 307.87299 -64.223 307.64999 -64.5 307.64999 C -64.508656 307.64999 -64.516845 307.64956 -64.525391 307.64999 z M -65.5 311.64999 C -65.41804 311.64999 -65.338106 311.65702 -65.259766 311.66952 C -65.181426 311.68202 -65.10499 311.70011 -65.03125 311.72421 C -64.95751 311.74831 -64.886521 311.7774 -64.818359 311.8121 C -64.750199 311.8467 -64.684654 311.887 -64.623047 311.93124 C -64.561437 311.97544 -64.503293 312.02484 -64.449219 312.07772 C -64.395149 312.13062 -64.344393 312.18708 -64.298828 312.24765 C -64.253268 312.30825 -64.213808 312.37179 -64.177734 312.43905 C -64.141654 312.50635 -64.109594 312.57699 -64.083984 312.64999 L -60.916016 312.64999 C -60.890406 312.57699 -60.858346 312.50632 -60.822266 312.43905 C -60.786186 312.37175 -60.746736 312.30821 -60.701172 312.24765 C -60.655612 312.18705 -60.604852 312.13062 -60.550781 312.07772 C -60.496711 312.02482 -60.43856 311.97549 -60.376953 311.93124 C -60.315343 311.88704 -60.249803 311.84674 -60.181641 311.8121 C -60.113481 311.7775 -60.04249 311.74831 -59.96875 311.72421 C -59.89501 311.70011 -59.818575 311.68202 -59.740234 311.66952 C -59.661894 311.65702 -59.581964 311.64999 -59.5 311.64999 C -59.396125 311.64999 -59.295088 311.66134 -59.197266 311.68124 C -59.099446 311.70114 -59.005805 311.72938 -58.916016 311.76718 C -58.826226 311.80498 -58.739932 311.85208 -58.660156 311.90585 C -58.580386 311.95965 -58.505281 312.01971 -58.4375 312.08749 C -58.36972 312.15529 -58.309666 312.23037 -58.255859 312.31015 C -58.202049 312.38995 -58.155038 312.47622 -58.117188 312.56601 C -58.079338 312.65581 -58.05117 312.74943 -58.03125 312.84726 C -58.01133 312.94506 -58 313.04612 -58 313.14999 C -58 313.25386 -58.01133 313.3549 -58.03125 313.45272 C -58.05117 313.55052 -58.079338 313.64419 -58.117188 313.73397 C -58.155037 313.82377 -58.202058 313.91006 -58.255859 313.98983 C -58.309669 314.06963 -58.369719 314.14471 -58.4375 314.21249 C -58.50528 314.28029 -58.580381 314.34032 -58.660156 314.39413 C -58.739936 314.44793 -58.826227 314.49495 -58.916016 314.5328 C -59.005806 314.5706 -59.099444 314.59884 -59.197266 314.61874 C -59.295086 314.63864 -59.396125 314.64999 -59.5 314.64999 C -59.58196 314.64999 -59.661894 314.64296 -59.740234 314.63046 C -59.818574 314.61796 -59.89501 314.59987 -59.96875 314.57577 C -60.04249 314.55167 -60.113479 314.52258 -60.181641 314.48788 C -60.249801 314.45328 -60.315346 314.41298 -60.376953 314.36874 C -60.438563 314.32454 -60.496707 314.27514 -60.550781 314.22226 C -60.604851 314.16936 -60.655607 314.1129 -60.701172 314.05233 C -60.746732 313.99173 -60.786192 313.92819 -60.822266 313.86093 C -60.858346 313.79363 -60.890406 313.72299 -60.916016 313.64999 L -64.083984 313.64999 C -64.109594 313.72299 -64.141654 313.79366 -64.177734 313.86093 C -64.213814 313.92823 -64.253264 313.99177 -64.298828 314.05233 C -64.344388 314.11293 -64.395148 314.16936 -64.449219 314.22226 C -64.503289 314.27516 -64.56144 314.32449 -64.623047 314.36874 C -64.684657 314.41294 -64.750197 314.45324 -64.818359 314.48788 C -64.886519 314.52248 -64.95751 314.55167 -65.03125 314.57577 C -65.10499 314.59987 -65.181425 314.61796 -65.259766 314.63046 C -65.338106 314.64296 -65.418036 314.64999 -65.5 314.64999 C -65.603875 314.64999 -65.704912 314.63864 -65.802734 314.61874 C -65.900554 314.59884 -65.994195 314.5706 -66.083984 314.5328 C -66.173774 314.495 -66.260068 314.4479 -66.339844 314.39413 C -66.419614 314.34033 -66.494719 314.28027 -66.5625 314.21249 C -66.63028 314.14469 -66.690334 314.06961 -66.744141 313.98983 C -66.797951 313.91003 -66.844962 313.82376 -66.882812 313.73397 C -66.920662 313.64417 -66.94883 313.55055 -66.96875 313.45272 C -66.988664 313.35499 -67 313.25386 -67 313.14999 C -67 313.04612 -66.98867 312.94508 -66.96875 312.84726 C -66.94883 312.74946 -66.920662 312.65579 -66.882812 312.56601 C -66.844963 312.47621 -66.797942 312.38992 -66.744141 312.31015 C -66.690331 312.23035 -66.630281 312.15527 -66.5625 312.08749 C -66.49472 312.01969 -66.419619 311.95966 -66.339844 311.90585 C -66.260064 311.85205 -66.173773 311.80503 -66.083984 311.76718 C -65.994194 311.72938 -65.900556 311.70114 -65.802734 311.68124 C -65.704914 311.66134 -65.603875 311.64999 -65.5 311.64999 z M -77.5 312.64999 C -77.41804 312.64999 -77.338106 312.65702 -77.259766 312.66952 C -77.181426 312.68202 -77.10499 312.70011 -77.03125 312.72421 C -76.95751 312.74831 -76.886521 312.7774 -76.818359 312.8121 C -76.750199 312.8467 -76.684654 312.887 -76.623047 312.93124 C -76.561437 312.97544 -76.503293 313.02484 -76.449219 313.07772 C -76.395149 313.13062 -76.344393 313.18708 -76.298828 313.24765 C -76.253268 313.30825 -76.213808 313.37179 -76.177734 313.43905 C -76.141654 313.50635 -76.109594 313.57699 -76.083984 313.64999 L -71.916016 313.64999 C -71.890406 313.57699 -71.858346 313.50632 -71.822266 313.43905 C -71.786186 313.37175 -71.746736 313.30821 -71.701172 313.24765 C -71.655612 313.18705 -71.604852 313.13062 -71.550781 313.07772 C -71.496711 313.02482 -71.43856 312.97549 -71.376953 312.93124 C -71.315343 312.88704 -71.249803 312.84674 -71.181641 312.8121 C -71.113481 312.7775 -71.04249 312.74831 -70.96875 312.72421 C -70.89501 312.70011 -70.818575 312.68202 -70.740234 312.66952 C -70.661894 312.65702 -70.581964 312.64999 -70.5 312.64999 C -70.396125 312.64999 -70.295088 312.66134 -70.197266 312.68124 C -70.099446 312.70114 -70.005805 312.72938 -69.916016 312.76718 C -69.826226 312.80498 -69.739932 312.85208 -69.660156 312.90585 C -69.580386 312.95965 -69.505281 313.01971 -69.4375 313.08749 C -69.36972 313.15529 -69.309666 313.23037 -69.255859 313.31015 C -69.202049 313.38995 -69.155038 313.47622 -69.117188 313.56601 C -69.079338 313.65581 -69.05117 313.74943 -69.03125 313.84726 C -69.01133 313.94506 -69 314.04612 -69 314.14999 C -69 314.25386 -69.01133 314.3549 -69.03125 314.45272 C -69.05117 314.55052 -69.079338 314.64419 -69.117188 314.73397 C -69.155037 314.82377 -69.202058 314.91006 -69.255859 314.98983 C -69.309669 315.06963 -69.369719 315.14471 -69.4375 315.21249 C -69.50528 315.28029 -69.580381 315.34032 -69.660156 315.39413 C -69.739936 315.44793 -69.826227 315.49495 -69.916016 315.5328 C -70.005806 315.5706 -70.099444 315.59884 -70.197266 315.61874 C -70.295086 315.63864 -70.396125 315.64999 -70.5 315.64999 C -70.58196 315.64999 -70.661894 315.64296 -70.740234 315.63046 C -70.818574 315.61796 -70.89501 315.59987 -70.96875 315.57577 C -71.04249 315.55167 -71.113479 315.52258 -71.181641 315.48788 C -71.249801 315.45328 -71.315346 315.41298 -71.376953 315.36874 C -71.438563 315.32454 -71.496707 315.27514 -71.550781 315.22226 C -71.604851 315.16936 -71.655607 315.1129 -71.701172 315.05233 C -71.746732 314.99173 -71.786192 314.92819 -71.822266 314.86093 C -71.858346 314.79363 -71.890406 314.72299 -71.916016 314.64999 L -76.083984 314.64999 C -76.109594 314.72299 -76.141654 314.79366 -76.177734 314.86093 C -76.213814 314.92823 -76.253264 314.99177 -76.298828 315.05233 C -76.344388 315.11293 -76.395148 315.16936 -76.449219 315.22226 C -76.503289 315.27516 -76.56144 315.32449 -76.623047 315.36874 C -76.684657 315.41294 -76.750197 315.45324 -76.818359 315.48788 C -76.886519 315.52248 -76.95751 315.55167 -77.03125 315.57577 C -77.10499 315.59987 -77.181425 315.61796 -77.259766 315.63046 C -77.338106 315.64296 -77.418036 315.64999 -77.5 315.64999 C -77.603875 315.64999 -77.704912 315.63864 -77.802734 315.61874 C -77.900554 315.59884 -77.994195 315.5706 -78.083984 315.5328 C -78.173774 315.495 -78.260068 315.4479 -78.339844 315.39413 C -78.419614 315.34033 -78.494719 315.28027 -78.5625 315.21249 C -78.63028 315.14469 -78.690334 315.06961 -78.744141 314.98983 C -78.797951 314.91003 -78.844962 314.82376 -78.882812 314.73397 C -78.920662 314.64417 -78.94883 314.55055 -78.96875 314.45272 C -78.988664 314.35499 -79 314.25386 -79 314.14999 C -79 314.04612 -78.98867 313.94508 -78.96875 313.84726 C -78.94883 313.74946 -78.920662 313.65579 -78.882812 313.56601 C -78.844963 313.47621 -78.797942 313.38992 -78.744141 313.31015 C -78.690331 313.23035 -78.630281 313.15527 -78.5625 313.08749 C -78.49472 313.01969 -78.419619 312.95966 -78.339844 312.90585 C -78.260064 312.85205 -78.173773 312.80503 -78.083984 312.76718 C -77.994194 312.72938 -77.900556 312.70114 -77.802734 312.68124 C -77.704914 312.66134 -77.603875 312.64999 -77.5 312.64999 z M -65.525391 312.64999 C -65.790304 312.66333 -66 312.88165 -66 313.14999 C -66 313.42699 -65.777 313.64999 -65.5 313.64999 C -65.223 313.64999 -65 313.42699 -65 313.14999 C -65 312.87299 -65.223 312.64999 -65.5 312.64999 C -65.508656 312.64999 -65.516845 312.64956 -65.525391 312.64999 z M -59.525391 312.64999 C -59.790304 312.66333 -60 312.88165 -60 313.14999 C -60 313.42699 -59.777 313.64999 -59.5 313.64999 C -59.223 313.64999 -59 313.42699 -59 313.14999 C -59 312.87299 -59.223 312.64999 -59.5 312.64999 C -59.508656 312.64999 -59.516845 312.64956 -59.525391 312.64999 z M -77.525391 313.64999 C -77.790304 313.66333 -78 313.88165 -78 314.14999 C -78 314.42699 -77.777 314.64999 -77.5 314.64999 C -77.223 314.64999 -77 314.42699 -77 314.14999 C -77 313.87299 -77.223 313.64999 -77.5 313.64999 C -77.508656 313.64999 -77.516845 313.64956 -77.525391 313.64999 z M -70.525391 313.64999 C -70.790304 313.66333 -71 313.88165 -71 314.14999 C -71 314.42699 -70.777 314.64999 -70.5 314.64999 C -70.223 314.64999 -70 314.42699 -70 314.14999 C -70 313.87299 -70.223 313.64999 -70.5 313.64999 C -70.508656 313.64999 -70.516845 313.64956 -70.525391 313.64999 z " /><g
         id="g9099"
         transform="translate(-20)"><g
           id="g9104"
           transform="translate(20)"><rect
             style="fill:#3b4857;fill-opacity:1;stroke:none;stroke-width:1;stroke-linecap:round;stroke-linejoin:round;stroke-miterlimit:1.8;stroke-dasharray:none;stroke-opacity:1;paint-order:stroke markers fill;stop-color:#000000"
             id="rect7514"
             width="14.000001"
             height="18"
             x="-75"
             y="293.64999"
             ry="1" /><rect
             style="fill:#4b6477;fill-opacity:1;stroke:none;stroke-width:1;stroke-linecap:round;stroke-linejoin:round;stroke-miterlimit:1.8;stroke-dasharray:none;stroke-opacity:1;paint-order:stroke markers fill;stop-color:#000000"
             id="rect8065"
             width="12"
             height="16"
             x="-74"
             y="294.64999" /><path
             id="path14092"
             style="fill:#dbe5ec;fill-opacity:1;stroke-width:2;stroke-linecap:round;stroke-linejoin:round;stroke-miterlimit:1.8;paint-order:fill markers stroke;stop-color:#000000"
             d="M -71 295.64999 L -71 296.64999 L -70 296.64999 L -70 295.64999 L -71 295.64999 z M -70 296.64999 L -70 297.64999 L -69 297.64999 L -69 296.64999 L -70 296.64999 z M -69 296.64999 L -68 296.64999 L -68 295.64999 L -69 295.64999 L -69 296.64999 z M -68 296.64999 L -68 297.64999 L -67 297.64999 L -67 296.64999 L -68 296.64999 z M -67 296.64999 L -66 296.64999 L -66 295.64999 L -67 295.64999 L -67 296.64999 z M -66 296.64999 L -66 297.64999 L -65 297.64999 L -65 296.64999 L -66 296.64999 z M -65 296.64999 L -64 296.64999 L -64 295.64999 L -65 295.64999 L -65 296.64999 z M -64 296.64999 L -64 297.64999 L -63 297.64999 L -63 296.64999 L -64 296.64999 z M -73 297.64999 L -73 298.64999 L -72 298.64999 L -72 297.64999 L -73 297.64999 z M -72 298.64999 L -72 299.64999 L -71 299.64999 L -71 298.64999 L -72 298.64999 z M -72 299.64999 L -73 299.64999 L -73 300.64999 L -72 300.64999 L -72 299.64999 z M -72 300.64999 L -72 301.64999 L -71 301.64999 L -71 300.64999 L -72 300.64999 z M -72 301.64999 L -73 301.64999 L -73 302.64999 L -72 302.64999 L -72 301.64999 z M -72 302.64999 L -72 303.64999 L -71 303.64999 L -71 302.64999 L -72 302.64999 z M -72 303.64999 L -73 303.64999 L -73 304.64999 L -72 304.64999 L -72 303.64999 z M -73 305.64999 L -73 309.64999 L -69 309.64999 L -71 307.64999 L -73 305.64999 z M -67 307.64999 L -67 308.64999 L -66 308.64999 L -66 307.64999 L -67 307.64999 z M -66 308.64999 L -66 309.64999 L -65 309.64999 L -65 308.64999 L -66 308.64999 z M -65 308.64999 L -64 308.64999 L -64 307.64999 L -65 307.64999 L -65 308.64999 z M -64 308.64999 L -64 309.64999 L -63 309.64999 L -63 308.64999 L -64 308.64999 z M -67 308.64999 L -68 308.64999 L -68 309.64999 L -67 309.64999 L -67 308.64999 z " /></g></g></g></g></svg>
