<?xml version="1.0" encoding="UTF-8" standalone="no"?>
<!-- Created with Inkscape (http://www.inkscape.org/) -->

<svg
   xmlns:dc="http://purl.org/dc/elements/1.1/"
   xmlns:cc="http://creativecommons.org/ns#"
   xmlns:rdf="http://www.w3.org/1999/02/22-rdf-syntax-ns#"
   xmlns:svg="http://www.w3.org/2000/svg"
   xmlns="http://www.w3.org/2000/svg"
   xmlns:sodipodi="http://sodipodi.sourceforge.net/DTD/sodipodi-0.dtd"
   xmlns:inkscape="http://www.inkscape.org/namespaces/inkscape"
   width="32"
   height="32"
   viewBox="0 0 32 32"
   version="1.1"
   id="svg8"
   inkscape:version="0.92.3 (2405546, 2018-03-11)"
   sodipodi:docname="application-x-java-archive.svg">
  <title
     id="title7895">Antu icon Theme</title>
  <defs
     id="defs2" />
  <sodipodi:namedview
     id="base"
     pagecolor="#ffffff"
     bordercolor="#666666"
     borderopacity="1.0"
     inkscape:pageopacity="0.0"
     inkscape:pageshadow="2"
     inkscape:zoom="32"
     inkscape:cx="16.850524"
     inkscape:cy="23.442991"
     inkscape:document-units="px"
     inkscape:current-layer="g5515"
     showgrid="true"
     units="px"
     inkscape:window-width="1874"
     inkscape:window-height="1141"
     inkscape:window-x="46"
     inkscape:window-y="30"
     inkscape:window-maximized="1"
     objecttolerance="10"
     gridtolerance="10"
     guidetolerance="10">
    <inkscape:grid
       type="xygrid"
       id="grid7897"
       empspacing="4" />
  </sodipodi:namedview>
  <metadata
     id="metadata5">
    <rdf:RDF>
      <cc:Work
         rdf:about="">
        <dc:format>image/svg+xml</dc:format>
        <dc:type
           rdf:resource="http://purl.org/dc/dcmitype/StillImage" />
        <dc:title>Antu icon Theme</dc:title>
      </cc:Work>
    </rdf:RDF>
  </metadata>
  <g
     inkscape:label="Capa 1"
     inkscape:groupmode="layer"
     id="layer1"
     transform="translate(0,-282.64999)">
    <g
       id="g5515"
       transform="translate(26.125,17.500005)">
      <path
         inkscape:connector-curvature="0"
         style="opacity:1;fill:#d16040;fill-opacity:1;stroke:none;stroke-width:1.99999988;stroke-linecap:round;stroke-linejoin:round;stroke-miterlimit:4;stroke-dasharray:none;stroke-opacity:1"
         d="M -21.125,266.15001 H 0.87499937 c 1.10800003,0 2.00000003,0.89202 2.00000003,2.00001 v 26.00001 c 0,1.10797 -0.892,1.99998 -2.00000003,1.99998 H -21.125 c -1.108,0 -2,-0.89201 -2,-1.99998 v -26 c 0,-1.108 0.892,-2.00001 2,-2.00002 z"
         id="rect827-8" />
      <path
         inkscape:connector-curvature="0"
         style="opacity:1;fill:#ff8f64;fill-opacity:1;stroke:none;stroke-width:1.99999988;stroke-linecap:round;stroke-linejoin:round;stroke-miterlimit:4;stroke-dasharray:none;stroke-opacity:1"
         d="M -21.125,267.15003 H 0.87499937 c 0.55400003,0 1.00000003,0.44599 1.00000003,1 v 26 c 0,0.55401 -0.446,1 -1.00000003,1 H -21.125 c -0.554,0 -1,-0.44599 -1,-1 v -26 c 0,-0.554 0.446,-1 1,-1 z"
         id="rect829-6" />
      <path
         sodipodi:nodetypes="cccsssccccccc"
         inkscape:connector-curvature="0"
         style="fill:#36404d;fill-opacity:1;stroke:none;stroke-width:1.00157475;stroke-linecap:round;stroke-linejoin:round;stroke-miterlimit:4;stroke-dasharray:none;stroke-opacity:1"
         d="m -13.125,266.14996 v 5 1 13.00008 c 0,1.66202 1.338,3 3,3 1.6620004,0 3.0000004,-1.33798 3.0000004,-3 v -13.00008 -1 -5 h -1 -2.0000004 -2 z"
         id="rect4856" />
      <path
         style="fill:#4b6477;fill-opacity:1;stroke:none;stroke-width:1.00157475;stroke-linecap:round;stroke-linejoin:round;stroke-miterlimit:4;stroke-dasharray:none;stroke-opacity:1"
         d="m -12.125,267.14993 v 2.99997 15.00008 c 0,1.108 0.892,2.00002 2,2.00002 1.1080004,0 2.0000004,-0.89202 2.0000004,-2.00002 V 270.1499 267.14993 H -10.125 Z"
         id="rect4917"
         inkscape:connector-curvature="0"
         sodipodi:nodetypes="ccssscccc" />
      <path
         id="path904"
         d="m -10.125,267.15001 v 1 h 1.0000004 v -1 z m 0,1 h -1 v 1 h 1 z m 0,1 v 1 h 1.0000004 v -1 z m 0,1 h -1 v 1 h 1 z m 0,1 v 1 h 1.0000004 v -1 z m 0,1 h -1 v 1 h 1 z m 0,1 v 1 h 1.0000004 v -1 z m 0,1 h -1 v 1 h 1 z m 0,1 v 1 h 1.0000004 v -1 z m 0,1 h -1 v 1 h 1 z m 0,1 v 1 h 1.0000004 v -1 z m 0,1 h -1 v 1 h 1 z m 0,1 v 1 h 1.0000004 v -1 z m 0,1 h -1 v 1 h 1 z m 0,1 v 1 h 1.0000004 v -1 z m 0,1 h -1 v 1 h 1 z m 0,1 v 1 h 1.0000004 v -1 z m 0,1 h -1 v 1 h 1 z m 0,1 v 1 h 1.0000004 v -1 z"
         style="fill:#eff2f3;fill-opacity:1;stroke:none;stroke-width:1.00157475;stroke-linecap:round;stroke-linejoin:round;stroke-miterlimit:4;stroke-dasharray:none;stroke-opacity:1"
         inkscape:connector-curvature="0" />
    </g>
  </g>
</svg>
