<?xml version="1.0" encoding="UTF-8" standalone="no"?>
<!-- Created with Inkscape (http://www.inkscape.org/) -->

<svg
   width="32"
   height="32"
   viewBox="0 0 32 32"
   version="1.1"
   id="svg8"
   inkscape:version="1.2.1 (9c6d41e410, 2022-07-14)"
   sodipodi:docname="image-x-xcf.svg"
   xml:space="preserve"
   xmlns:inkscape="http://www.inkscape.org/namespaces/inkscape"
   xmlns:sodipodi="http://sodipodi.sourceforge.net/DTD/sodipodi-0.dtd"
   xmlns="http://www.w3.org/2000/svg"
   xmlns:svg="http://www.w3.org/2000/svg"
   xmlns:rdf="http://www.w3.org/1999/02/22-rdf-syntax-ns#"
   xmlns:cc="http://creativecommons.org/ns#"
   xmlns:dc="http://purl.org/dc/elements/1.1/"><title
     id="title7895">Antu icon Theme</title><defs
     id="defs2"><style
       id="current-color-scheme"
       type="text/css">
      .ColorScheme-Text {
        color:#122036;
      }
      </style><style
       type="text/css"
       id="current-color-scheme-5">
      .ColorScheme-Text {
        color:#122036;
      }
      </style><style
       type="text/css"
       id="current-color-scheme-2">
      .ColorScheme-Text {
        color:#122036;
      }
      </style><style
       type="text/css"
       id="current-color-scheme-1">
      .ColorScheme-Text {
        color:#122036;
      }
      </style><style
       id="current-color-scheme-10"
       type="text/css">
      .ColorScheme-Text {
        color:#122036;
      }
      </style><style
       type="text/css"
       id="current-color-scheme-0">
      .ColorScheme-Text {
        color:#122036;
      }
      </style><style
       type="text/css"
       id="current-color-scheme-26">
      .ColorScheme-Text {
        color:#122036;
      }
      </style><style
       id="current-color-scheme-27"
       type="text/css">
      .ColorScheme-Text {
        color:#122036;
      }
      </style><style
       id="current-color-scheme-7"
       type="text/css">
      .ColorScheme-Text {
        color:#122036;
      }
      </style><style
       id="current-color-scheme-5-09"
       type="text/css">
      .ColorScheme-Text {
        color:#122036;
      }
      </style><style
       id="current-color-scheme-0-3"
       type="text/css">
      .ColorScheme-Text {
        color:#122036;
      }
      </style><style
       id="current-color-scheme-7-9"
       type="text/css">
      .ColorScheme-Text {
        color:#122036;
      }
      </style><style
       id="current-color-scheme-5-3"
       type="text/css">
      .ColorScheme-Text {
        color:#122036;
      }
      </style><style
       id="current-color-scheme-79"
       type="text/css">
      .ColorScheme-Text {
        color:#122036;
      }
      </style><style
       id="current-color-scheme-7-2"
       type="text/css">
      .ColorScheme-Text {
        color:#122036;
      }
      </style><style
       id="current-color-scheme-5-0"
       type="text/css">
      .ColorScheme-Text {
        color:#122036;
      }
      </style></defs><sodipodi:namedview
     id="base"
     pagecolor="#ffffff"
     bordercolor="#666666"
     borderopacity="1.0"
     inkscape:pageopacity="0.0"
     inkscape:pageshadow="2"
     inkscape:zoom="48.78125"
     inkscape:cx="13.663037"
     inkscape:cy="19.361947"
     inkscape:document-units="px"
     inkscape:current-layer="g5329"
     showgrid="true"
     units="px"
     inkscape:window-width="2160"
     inkscape:window-height="1335"
     inkscape:window-x="0"
     inkscape:window-y="0"
     inkscape:window-maximized="1"
     objecttolerance="10"
     gridtolerance="10"
     guidetolerance="10"
     inkscape:snap-bbox="true"
     inkscape:bbox-nodes="true"
     inkscape:showpageshadow="false"
     inkscape:bbox-paths="true"
     inkscape:snap-bbox-edge-midpoints="true"
     inkscape:snap-bbox-midpoints="true"
     inkscape:object-paths="true"
     inkscape:snap-intersection-paths="true"
     inkscape:object-nodes="false"
     inkscape:snap-smooth-nodes="false"
     inkscape:snap-midpoints="false"
     inkscape:pagecheckerboard="0"
     inkscape:deskcolor="#d1d1d1"><inkscape:grid
       type="xygrid"
       id="grid7897"
       empspacing="4" /></sodipodi:namedview><metadata
     id="metadata5"><rdf:RDF><cc:Work
         rdf:about=""><dc:format>image/svg+xml</dc:format><dc:type
           rdf:resource="http://purl.org/dc/dcmitype/StillImage" /><dc:title>Antu icon Theme</dc:title></cc:Work></rdf:RDF></metadata><g
     inkscape:label="Capa 1"
     inkscape:groupmode="layer"
     id="layer1"
     transform="translate(0,-282.64999)"><g
       id="g5329"
       transform="translate(84,-4)"><path
         inkscape:connector-curvature="0"
         style="opacity:1;fill:#a3b7cc;fill-opacity:1;stroke:none;stroke-width:1.99999988;stroke-linecap:round;stroke-linejoin:round;stroke-miterlimit:4;stroke-dasharray:none;stroke-opacity:1"
         d="m -78.999999,287.64999 21.999999,0 c 1.108,0 2,0.89202 2,2.00001 l 0,26.00001 c 0,1.10797 -0.892,1.99998 -2,1.99998 l -21.999999,0 c -1.108,0 -2,-0.89201 -2,-1.99998 l 0,-26 c 0,-1.108 0.892,-2 2,-2.00002 z"
         id="rect827-8" /><path
         inkscape:connector-curvature="0"
         style="opacity:1;fill:#fafafa;fill-opacity:1;stroke:none;stroke-width:1.99999988;stroke-linecap:round;stroke-linejoin:round;stroke-miterlimit:4;stroke-dasharray:none;stroke-opacity:1"
         d="m -78.999999,288.65001 21.999999,0 c 0.554,0 1,0.44599 1,1 l 0,26 c 0,0.55401 -0.446,1 -1,1 l -21.999999,0 c -0.554,0 -1,-0.44599 -1,-1 l 0,-26 c 0,-0.55399 0.446,-1 1,-1 z"
         id="rect829-6" /><g
         id="g4522"
         transform="matrix(3.7795277,0,0,3.7795277,-80.190752,-816.19796)"><path
           id="rect859-6-5"
           style="vector-effect:none;fill:#a3b7cc;fill-opacity:0.56648773;stroke:none;stroke-width:0.529167;stroke-linecap:round;stroke-linejoin:round;stroke-miterlimit:4;stroke-dasharray:none;stroke-dashoffset:0;stroke-opacity:1;paint-order:normal"
           d="M 0.31505312 292.32434 C 0.16848787 292.32434 0.050469798 292.44237 0.050469798 292.58893 L 0.050469798 293.11809 L 0.050469798 293.38268 L 0.31505312 293.38268 L 0.84421977 293.38268 L 1.1088031 293.38268 L 1.1088031 293.11809 L 1.1088031 292.58893 L 1.1088031 292.32434 L 0.84421977 292.32434 L 0.31505312 292.32434 z M 1.1088031 293.38268 L 1.1088031 294.44101 L 2.1671364 294.44101 L 2.1671364 293.38268 L 1.1088031 293.38268 z M 2.1671364 293.38268 L 3.2254697 293.38268 L 3.2254697 292.32434 L 2.1671364 292.32434 L 2.1671364 293.38268 z M 3.2254697 293.38268 L 3.2254697 294.44101 L 4.283803 294.44101 L 4.283803 293.38268 L 3.2254697 293.38268 z M 4.283803 293.38268 L 5.3421363 293.38268 L 5.3421363 292.32434 L 4.283803 292.32434 L 4.283803 293.38268 z M 5.3421363 293.38268 L 5.3421363 294.44101 L 6.4004696 294.44101 L 6.4004696 293.38268 L 5.3421363 293.38268 z M 5.3421363 294.44101 L 4.283803 294.44101 L 4.283803 295.49934 L 5.3421363 295.49934 L 5.3421363 294.44101 z M 5.3421363 295.49934 L 5.3421363 296.55768 L 6.4004696 296.55768 L 6.4004696 295.49934 L 5.3421363 295.49934 z M 5.3421363 296.55768 L 4.283803 296.55768 L 4.283803 297.61601 L 5.3421363 297.61601 L 5.3421363 296.55768 z M 5.3421363 297.61601 L 5.3421363 297.88059 L 5.3421363 298.40976 L 5.3421363 298.67434 L 6.1358862 298.67434 L 6.4004696 298.67434 L 6.4004696 298.40976 L 6.4004696 297.61601 L 5.3421363 297.61601 z M 5.3421363 298.67434 L 4.283803 298.67434 L 4.283803 299.73268 L 5.3421363 299.73268 L 5.3421363 298.67434 z M 4.283803 298.67434 L 4.283803 297.61601 L 3.2254697 297.61601 L 3.2254697 298.67434 L 4.283803 298.67434 z M 3.2254697 298.67434 L 2.1671364 298.67434 L 2.1671364 299.73268 L 3.2254697 299.73268 L 3.2254697 298.67434 z M 2.1671364 298.67434 L 2.1671364 297.61601 L 1.1088031 297.61601 L 1.1088031 298.67434 L 2.1671364 298.67434 z M 1.1088031 298.67434 L 0.050469798 298.67434 L 0.050469798 299.73268 L 1.1088031 299.73268 L 1.1088031 298.67434 z M 1.1088031 297.61601 L 1.1088031 296.55768 L 0.050469798 296.55768 L 0.050469798 297.61601 L 1.1088031 297.61601 z M 1.1088031 296.55768 L 2.1671364 296.55768 L 2.1671364 295.49934 L 1.1088031 295.49934 L 1.1088031 296.55768 z M 1.1088031 295.49934 L 1.1088031 294.44101 L 0.050469798 294.44101 L 0.050469798 295.49934 L 1.1088031 295.49934 z M 2.1671364 295.49934 L 3.2254697 295.49934 L 3.2254697 294.44101 L 2.1671364 294.44101 L 2.1671364 295.49934 z M 3.2254697 295.49934 L 3.2254697 296.55768 L 4.283803 296.55768 L 4.283803 295.49934 L 3.2254697 295.49934 z M 3.2254697 296.55768 L 2.1671364 296.55768 L 2.1671364 297.61601 L 3.2254697 297.61601 L 3.2254697 296.55768 z " /></g><g
         id="g3062"
         transform="translate(-40.999993,2.999841)"><g
           id="path2484-0"><path
             style="color:#000000;fill:#8c613b;stroke-linecap:round;stroke-linejoin:round;-inkscape-stroke:none;paint-order:stroke markers fill"
             d="m -17.65625,291.71094 c -0.392115,-0.14345 -0.83208,-0.0282 -1.103516,0.28906 -2.119742,2.47862 -4.22976,4.19565 -6.291015,4.56836 -2.061255,0.37271 -4.321825,-0.40937 -7.208985,-3.58984 -0.500331,-0.55134 -1.406136,-0.38223 -1.673828,0.3125 0,0 -2.434394,6.31459 -0.01563,13.67187 0.107071,0.32622 0.373997,0.57471 0.707032,0.6582 4.172526,1.03773 7.279634,1.29128 9.677734,0.86328 2.3981,-0.42799 4.091097,-1.62862 5.082031,-3.27343 1.981868,-3.28962 1.507561,-7.92174 1.482422,-12.56641 -0.0023,-0.41771 -0.263998,-0.78998 -0.65625,-0.93359 z"
             id="path869"
             sodipodi:nodetypes="ccscccccsccc" /><path
             style="color:#000000;fill:#cc8e54;stroke-width:2;stroke-linecap:round;stroke-linejoin:round;-inkscape-stroke:none;paint-order:stroke markers fill"
             d="m -33,293.64998 c 6.030299,6.64293 10.641031,4.09696 15,-1 0.05077,9.3804 1.379042,18.07354 -15,14.00001 -2.304192,-7.00877 0,-13.00001 0,-13.00001 z"
             id="path871" /></g><rect
           style="opacity:1;fill:#a3b7cc;fill-opacity:1;stroke:none;stroke-width:2.4;stroke-linecap:round;stroke-linejoin:round;stroke-miterlimit:1.8;stroke-dasharray:none;stroke-opacity:1;paint-order:stroke markers fill;stop-color:#000000"
           id="rect2527"
           width="6"
           height="6"
           x="-36"
           y="295.64999"
           ry="3" /><rect
           style="fill:#a3b7cc;fill-opacity:1;stroke:none;stroke-width:2.8;stroke-linecap:round;stroke-linejoin:round;stroke-miterlimit:1.8;stroke-dasharray:none;stroke-opacity:1;paint-order:stroke markers fill;stop-color:#000000"
           id="rect2527-6"
           width="7"
           height="7"
           x="-31"
           y="295.64999"
           ry="3.5" /><rect
           style="opacity:1;fill:#f1f1f1;fill-opacity:1;stroke:none;stroke-width:4;stroke-linecap:round;stroke-linejoin:round;stroke-miterlimit:1.8;stroke-dasharray:none;stroke-opacity:1;paint-order:stroke markers fill;stop-color:#000000"
           id="rect2473"
           width="4"
           height="4"
           x="-35"
           y="296.64999"
           ry="2" /><rect
           style="fill:#f1f1f1;fill-opacity:1;stroke:none;stroke-width:5;stroke-linecap:round;stroke-linejoin:round;stroke-miterlimit:1.8;stroke-dasharray:none;stroke-opacity:1;paint-order:stroke markers fill;stop-color:#000000"
           id="rect2473-1"
           width="5"
           height="5"
           x="-30"
           y="296.64999"
           ry="2.5" /><rect
           style="fill:#36404d;fill-opacity:1;stroke:none;stroke-width:2;stroke-linecap:round;stroke-linejoin:round;stroke-miterlimit:1.8;stroke-dasharray:none;stroke-opacity:1;paint-order:stroke markers fill;stop-color:#000000"
           id="rect2473-2"
           width="2"
           height="2"
           x="-33"
           y="297.64999"
           ry="1" /><rect
           style="fill:#36404d;fill-opacity:1;stroke:none;stroke-width:3;stroke-linecap:round;stroke-linejoin:round;stroke-miterlimit:1.8;stroke-dasharray:none;stroke-opacity:1;paint-order:stroke markers fill;stop-color:#000000"
           id="rect2473-2-8"
           width="3"
           height="3"
           x="-28"
           y="297.64999"
           ry="1.5" /><g
           id="path2415"
           transform="rotate(41.810415)"><path
             style="color:#000000;fill:#36404d;stroke-linecap:round;stroke-linejoin:round;stroke-miterlimit:1.8;-inkscape-stroke:none;paint-order:stroke markers fill"
             d="m 177.12305,246.62695 c -1.00858,0 -1.93756,0.26176 -2.67578,0.75391 -0.73823,0.49215 -1.32422,1.28848 -1.32422,2.24609 0,0.95762 0.58599,1.75395 1.32422,2.2461 0.73822,0.49215 1.6672,0.7539 2.67578,0.7539 1.00857,0 1.93755,-0.26175 2.67578,-0.7539 0.73822,-0.49215 1.32422,-1.28848 1.32422,-2.2461 0,-0.95761 -0.586,-1.75394 -1.32422,-2.24609 -0.73823,-0.49215 -1.66721,-0.75391 -2.67578,-0.75391 z"
             id="path1650"
             sodipodi:nodetypes="scscscscs" /><path
             style="color:#000000;fill:#4b6477;stroke-width:2;stroke-linecap:round;stroke-linejoin:round;stroke-miterlimit:1.8;-inkscape-stroke:none;paint-order:stroke markers fill"
             d="m 180.12267,249.62735 a 3,2.0000038 0 0 1 -3,2 3,2.0000038 0 0 1 -3,-2 3,2.0000038 0 0 1 3,-2 3,2.0000038 0 0 1 3,2 z"
             id="path1652" /></g></g></g></g></svg>
