<?xml version="1.0" encoding="UTF-8" standalone="no"?>
<!-- Created with Inkscape (http://www.inkscape.org/) -->

<svg
   width="32"
   height="32"
   viewBox="0 0 32 32"
   version="1.1"
   id="svg8"
   inkscape:version="1.2.1 (9c6d41e410, 2022-07-14)"
   sodipodi:docname="image-svg+xml-compressed.svg"
   xml:space="preserve"
   xmlns:inkscape="http://www.inkscape.org/namespaces/inkscape"
   xmlns:sodipodi="http://sodipodi.sourceforge.net/DTD/sodipodi-0.dtd"
   xmlns="http://www.w3.org/2000/svg"
   xmlns:svg="http://www.w3.org/2000/svg"
   xmlns:rdf="http://www.w3.org/1999/02/22-rdf-syntax-ns#"
   xmlns:cc="http://creativecommons.org/ns#"
   xmlns:dc="http://purl.org/dc/elements/1.1/"><title
     id="title7895">Antu icon Theme</title><defs
     id="defs2"><style
       id="current-color-scheme"
       type="text/css">
      .ColorScheme-Text {
        color:#122036;
      }
      </style><style
       type="text/css"
       id="current-color-scheme-5">
      .ColorScheme-Text {
        color:#122036;
      }
      </style><style
       type="text/css"
       id="current-color-scheme-2">
      .ColorScheme-Text {
        color:#122036;
      }
      </style><style
       type="text/css"
       id="current-color-scheme-1">
      .ColorScheme-Text {
        color:#122036;
      }
      </style><style
       id="current-color-scheme-10"
       type="text/css">
      .ColorScheme-Text {
        color:#122036;
      }
      </style><style
       type="text/css"
       id="current-color-scheme-0">
      .ColorScheme-Text {
        color:#122036;
      }
      </style><style
       type="text/css"
       id="current-color-scheme-26">
      .ColorScheme-Text {
        color:#122036;
      }
      </style><style
       id="current-color-scheme-27"
       type="text/css">
      .ColorScheme-Text {
        color:#122036;
      }
      </style><style
       id="current-color-scheme-7"
       type="text/css">
      .ColorScheme-Text {
        color:#122036;
      }
      </style><style
       id="current-color-scheme-5-09"
       type="text/css">
      .ColorScheme-Text {
        color:#122036;
      }
      </style><style
       id="current-color-scheme-0-3"
       type="text/css">
      .ColorScheme-Text {
        color:#122036;
      }
      </style><style
       id="current-color-scheme-7-9"
       type="text/css">
      .ColorScheme-Text {
        color:#122036;
      }
      </style><style
       id="current-color-scheme-5-3"
       type="text/css">
      .ColorScheme-Text {
        color:#122036;
      }
      </style><style
       id="current-color-scheme-79"
       type="text/css">
      .ColorScheme-Text {
        color:#122036;
      }
      </style><style
       id="current-color-scheme-7-2"
       type="text/css">
      .ColorScheme-Text {
        color:#122036;
      }
      </style><style
       id="current-color-scheme-5-0"
       type="text/css">
      .ColorScheme-Text {
        color:#122036;
      }
      </style><style
       type="text/css"
       id="current-color-scheme-53">
      .ColorScheme-Text {
        color:#122036;
      }
      </style><style
       type="text/css"
       id="current-color-scheme-2-5">
      .ColorScheme-Text {
        color:#122036;
      }
      </style><style
       type="text/css"
       id="current-color-scheme-0-6">
      .ColorScheme-Text {
        color:#122036;
      }
      </style><style
       type="text/css"
       id="current-color-scheme-09">
      .ColorScheme-Text {
        color:#36404d;
      }
      </style><style
       type="text/css"
       id="current-color-scheme-67">
      .ColorScheme-Text {
        color:#122036;
      }
      </style><style
       type="text/css"
       id="current-color-scheme-7-3">
      .ColorScheme-Text {
        color:#122036;
      }
      </style><style
       type="text/css"
       id="current-color-scheme-5-6">
      .ColorScheme-Text {
        color:#122036;
      }
      </style><style
       type="text/css"
       id="current-color-scheme-6">
      .ColorScheme-Text {
        color:#122036;
      }
      </style><style
       type="text/css"
       id="current-color-scheme-1-0">
      .ColorScheme-Text {
        color:#122036;
      }
      </style><style
       id="current-color-scheme-10-6"
       type="text/css">
      .ColorScheme-Text {
        color:#122036;
      }
      </style><style
       id="current-color-scheme-5-7"
       type="text/css">
      .ColorScheme-Text {
        color:#122036;
      }
      </style><style
       id="current-color-scheme-1-2"
       type="text/css">
      .ColorScheme-Text {
        color:#122036;
      }
      </style><style
       type="text/css"
       id="current-color-scheme-10-9">
      .ColorScheme-Text {
        color:#122036;
      }
      </style></defs><sodipodi:namedview
     id="base"
     pagecolor="#ffffff"
     bordercolor="#666666"
     borderopacity="1.0"
     inkscape:pageopacity="0.0"
     inkscape:pageshadow="2"
     inkscape:zoom="16"
     inkscape:cx="5.71875"
     inkscape:cy="15.84375"
     inkscape:document-units="px"
     inkscape:current-layer="g5329"
     showgrid="true"
     units="px"
     inkscape:window-width="2160"
     inkscape:window-height="1335"
     inkscape:window-x="0"
     inkscape:window-y="0"
     inkscape:window-maximized="1"
     objecttolerance="10"
     gridtolerance="10"
     guidetolerance="10"
     inkscape:snap-bbox="true"
     inkscape:bbox-nodes="true"
     inkscape:showpageshadow="false"
     inkscape:bbox-paths="true"
     inkscape:snap-bbox-edge-midpoints="true"
     inkscape:snap-bbox-midpoints="true"
     inkscape:object-paths="true"
     inkscape:snap-intersection-paths="true"
     inkscape:object-nodes="false"
     inkscape:snap-smooth-nodes="false"
     inkscape:snap-midpoints="false"
     inkscape:pagecheckerboard="0"
     inkscape:deskcolor="#d1d1d1"><inkscape:grid
       type="xygrid"
       id="grid7897"
       empspacing="4" /></sodipodi:namedview><metadata
     id="metadata5"><rdf:RDF><cc:Work
         rdf:about=""><dc:format>image/svg+xml</dc:format><dc:type
           rdf:resource="http://purl.org/dc/dcmitype/StillImage" /><dc:title>Antu icon Theme</dc:title></cc:Work></rdf:RDF></metadata><g
     inkscape:label="Capa 1"
     inkscape:groupmode="layer"
     id="layer1"
     transform="translate(0,-282.64999)"><g
       id="g5329"
       transform="translate(84,-4)"><path
         inkscape:connector-curvature="0"
         style="opacity:1;fill:#0685c6;fill-opacity:1;stroke:none;stroke-width:2;stroke-linecap:round;stroke-linejoin:round;stroke-miterlimit:4;stroke-dasharray:none;stroke-opacity:1"
         d="m -79,287.64997 h 21.999999 c 1.108,0 2,0.89202 2,2.00001 v 26.00001 c 0,1.10797 -0.892,1.99998 -2,1.99998 H -79 c -1.108,0 -2,-0.89201 -2,-1.99998 v -26 c 0,-1.108 0.892,-2 2,-2.00002 z"
         id="rect827-8" /><path
         inkscape:connector-curvature="0"
         style="opacity:1;fill:#50c1f9;fill-opacity:1;stroke:none;stroke-width:1.99999988;stroke-linecap:round;stroke-linejoin:round;stroke-miterlimit:4;stroke-dasharray:none;stroke-opacity:1"
         d="m -78.999999,288.65001 21.999999,0 c 0.554,0 1,0.44599 1,1 l 0,26 c 0,0.55401 -0.446,1 -1,1 l -21.999999,0 c -0.554,0 -1,-0.44599 -1,-1 l 0,-26 c 0,-0.55399 0.446,-1 1,-1 z"
         id="rect829-6" /><path
         id="rect3690"
         style="opacity:1;fill:#b9e6fd;fill-opacity:1;stroke:none;stroke-width:2;stroke-linecap:round;stroke-linejoin:round;stroke-miterlimit:1.8;paint-order:fill markers stroke;stop-color:#000000"
         d="M -76 288.64999 L -76 291.64999 L -80 291.64999 L -80 292.64999 L -76 292.64999 L -76 295.64999 L -80 295.64999 L -80 296.64999 L -76 296.64999 L -76 299.64999 L -80 299.64999 L -80 300.64999 L -76 300.64999 L -76 304.64999 L -80 304.64999 L -80 305.64999 L -76 305.64999 L -76 308.64999 L -80 308.64999 L -80 309.64999 L -76 309.64999 L -76 312.64999 L -80 312.64999 L -80 313.64999 L -76 313.64999 L -76 316.64999 L -75 316.64999 L -75 313.64999 L -71 313.64999 L -71 316.64999 L -70 316.64999 L -70 313.64999 L -66 313.64999 L -66 316.64999 L -65 316.64999 L -65 313.64999 L -61 313.64999 L -61 316.64999 L -60 316.64999 L -60 313.64999 L -56 313.64999 L -56 312.64999 L -60 312.64999 L -60 309.64999 L -56 309.64999 L -56 308.64999 L -60 308.64999 L -60 305.64999 L -56 305.64999 L -56 304.64999 L -60 304.64999 L -60 300.64999 L -56 300.64999 L -56 299.64999 L -60 299.64999 L -60 296.64999 L -56 296.64999 L -56 295.64999 L -60 295.64999 L -60 292.64999 L -56 292.64999 L -56 291.64999 L -60 291.64999 L -60 288.64999 L -61 288.64999 L -61 291.64999 L -65 291.64999 L -65 288.64999 L -66 288.64999 L -66 291.64999 L -70 291.64999 L -70 288.64999 L -71 288.64999 L -71 291.64999 L -75 291.64999 L -75 288.64999 L -76 288.64999 z M -75 292.64999 L -71 292.64999 L -71 295.64999 L -75 295.64999 L -75 292.64999 z M -70 292.64999 L -66 292.64999 L -66 295.64999 L -70 295.64999 L -70 292.64999 z M -65 292.64999 L -61 292.64999 L -61 295.64999 L -65 295.64999 L -65 292.64999 z M -75 296.64999 L -71 296.64999 L -71 299.64999 L -75 299.64999 L -75 296.64999 z M -70 296.64999 L -66 296.64999 L -66 299.64999 L -70 299.64999 L -70 296.64999 z M -65 296.64999 L -61 296.64999 L -61 299.64999 L -65 299.64999 L -65 296.64999 z M -75 300.64999 L -71 300.64999 L -71 304.64999 L -75 304.64999 L -75 300.64999 z M -70 300.64999 L -66 300.64999 L -66 304.64999 L -70 304.64999 L -70 300.64999 z M -65 300.64999 L -61 300.64999 L -61 304.64999 L -65 304.64999 L -65 300.64999 z M -75 305.64999 L -71 305.64999 L -71 308.64999 L -75 308.64999 L -75 305.64999 z M -70 305.64999 L -66 305.64999 L -66 308.64999 L -70 308.64999 L -70 305.64999 z M -65 305.64999 L -61 305.64999 L -61 308.64999 L -65 308.64999 L -65 305.64999 z M -75 309.64999 L -71 309.64999 L -71 312.64999 L -75 312.64999 L -75 309.64999 z M -70 309.64999 L -66 309.64999 L -66 312.64999 L -70 312.64999 L -70 309.64999 z M -65 309.64999 L -61 309.64999 L -61 312.64999 L -65 312.64999 L -65 309.64999 z " /><path
         sodipodi:nodetypes="cccccccccc"
         inkscape:connector-curvature="0"
         id="path4318"
         d="m -67.990234,294.65039 c -0.311688,-0.003 -0.607063,0.13903 -0.798828,0.38477 l -7,9 c -0.349099,0.44831 -0.255028,1.09704 0.207031,1.42773 l 7,5 c 0.348048,0.24908 0.816014,0.24908 1.164062,0 l 7,-5 c 0.462059,-0.33069 0.556129,-0.97942 0.207031,-1.42773 l -7,-9 c -0.187548,-0.24032 -0.474465,-0.38199 -0.779296,-0.38477 z"
         style="color:#000000;font-style:normal;font-variant:normal;font-weight:normal;font-stretch:normal;font-size:medium;line-height:normal;font-family:sans-serif;text-indent:0;text-align:start;text-decoration:none;text-decoration-line:none;text-decoration-style:solid;text-decoration-color:#000000;letter-spacing:normal;word-spacing:normal;text-transform:none;direction:ltr;block-progression:tb;writing-mode:lr-tb;baseline-shift:baseline;text-anchor:start;white-space:normal;clip-rule:nonzero;display:inline;overflow:visible;visibility:visible;opacity:1;isolation:auto;mix-blend-mode:normal;color-interpolation:sRGB;color-interpolation-filters:linearRGB;solid-color:#000000;solid-opacity:1;fill:#36404d;fill-opacity:1;fill-rule:evenodd;stroke:none;stroke-width:2;stroke-linecap:round;stroke-linejoin:round;stroke-miterlimit:4;stroke-dasharray:none;stroke-dashoffset:0;stroke-opacity:1;color-rendering:auto;image-rendering:auto;shape-rendering:auto;text-rendering:auto;enable-background:accumulate" /><path
         inkscape:connector-curvature="0"
         id="path4344"
         d="m -75,304.64999 7,5 c 0,0 7,-5 7,-5 l -7,-9 z"
         style="fill:#4b6477;fill-opacity:1;fill-rule:evenodd;stroke:none;stroke-width:1px;stroke-linecap:butt;stroke-linejoin:miter;stroke-opacity:1" /><path
         sodipodi:nodetypes="ccccccc"
         inkscape:connector-curvature="0"
         id="path4399"
         d="m -68,297.64999 -4,5 2,0 2,1.43631 2,-1.43631 2,0 z"
         style="fill:#f1f1f1;fill-opacity:1;fill-rule:evenodd;stroke:none;stroke-width:1px;stroke-linecap:butt;stroke-linejoin:miter;stroke-opacity:1" /></g></g></svg>
