<?xml version="1.0" encoding="UTF-8" standalone="no"?>
<!-- Created with Inkscape (http://www.inkscape.org/) -->

<svg
   xmlns:dc="http://purl.org/dc/elements/1.1/"
   xmlns:cc="http://creativecommons.org/ns#"
   xmlns:rdf="http://www.w3.org/1999/02/22-rdf-syntax-ns#"
   xmlns:svg="http://www.w3.org/2000/svg"
   xmlns="http://www.w3.org/2000/svg"
   xmlns:sodipodi="http://sodipodi.sourceforge.net/DTD/sodipodi-0.dtd"
   xmlns:inkscape="http://www.inkscape.org/namespaces/inkscape"
   width="22"
   height="22"
   viewBox="0 0 5.8208332 5.8208335"
   version="1.1"
   id="svg8"
   inkscape:version="0.92.3 (2405546, 2018-03-11)"
   sodipodi:docname="drive-harddisk.svg">
  <defs
     id="defs2" />
  <sodipodi:namedview
     id="base"
     pagecolor="#ffffff"
     bordercolor="#666666"
     borderopacity="1.0"
     inkscape:pageopacity="0.0"
     inkscape:pageshadow="2"
     inkscape:zoom="31.678384"
     inkscape:cx="5.6229524"
     inkscape:cy="13.819495"
     inkscape:document-units="px"
     inkscape:current-layer="g2369"
     showgrid="true"
     units="px"
     inkscape:showpageshadow="false"
     inkscape:snap-bbox="true"
     inkscape:bbox-paths="true"
     inkscape:bbox-nodes="true"
     inkscape:snap-bbox-edge-midpoints="true"
     inkscape:snap-bbox-midpoints="true"
     inkscape:object-paths="true"
     inkscape:snap-intersection-paths="true"
     inkscape:window-width="1874"
     inkscape:window-height="1141"
     inkscape:window-x="46"
     inkscape:window-y="30"
     inkscape:window-maximized="1">
    <inkscape:grid
       type="xygrid"
       id="grid815" />
  </sodipodi:namedview>
  <metadata
     id="metadata5">
    <rdf:RDF>
      <cc:Work
         rdf:about="">
        <dc:format>image/svg+xml</dc:format>
        <dc:type
           rdf:resource="http://purl.org/dc/dcmitype/StillImage" />
        <dc:title />
      </cc:Work>
    </rdf:RDF>
  </metadata>
  <g
     inkscape:label="Capa 1"
     inkscape:groupmode="layer"
     id="layer1"
     transform="translate(0,-291.17916)">
    <g
       id="g2369"
       transform="translate(-11.906269,-1.3229133)">
      <path
         sodipodi:nodetypes="sssssssss"
         inkscape:connector-curvature="0"
         id="rect1607"
         d="m 12.964606,296.73541 3.704175,0 c 0.14658,0 0.26458,0.118 0.26458,0.26458 v 0.79375 c 0,0.14658 -0.118,0.26458 -0.26458,0.26458 l -3.704175,0 c -0.14658,0 -0.26458,-0.118 -0.26458,-0.26458 v -0.79375 c 0,-0.14658 0.118,-0.26458 0.26458,-0.26458 z"
         style="opacity:1;fill:#36404d;fill-opacity:1;stroke:none;stroke-width:1.05833328;stroke-linecap:round;stroke-linejoin:round;stroke-miterlimit:4;stroke-dasharray:none;stroke-opacity:1;paint-order:fill markers stroke" />
      <path
         sodipodi:nodetypes="ccccccccccccc"
         inkscape:connector-curvature="0"
         id="rect1609"
         d="m 12.964602,296.99999 v 0.79375 l 0.264584,0 v -0.26458 l 1.852052,0 v 0.26458 h 0.264614 v -0.26458 l 1.058334,0 v 0.26458 l 0.264583,0 v -0.79375 z"
         style="opacity:1;fill:#4b6477;fill-opacity:1;stroke:none;stroke-width:1.05833328;stroke-linecap:round;stroke-linejoin:round;stroke-miterlimit:4;stroke-dasharray:none;stroke-opacity:1;paint-order:fill markers stroke" />
      <path
         sodipodi:nodetypes="sssssssss"
         inkscape:connector-curvature="0"
         id="rect1611"
         d="m 12.964606,293.03124 3.704175,0 c 0.14658,0 0.26458,0.118 0.26458,0.26458 v 3.70417 c 0,0.14658 -0.118,0.26458 -0.26458,0.26458 l -3.704175,0 c -0.14658,0 -0.26458,-0.118 -0.26458,-0.26458 v -3.70417 c 0,-0.14658 0.118,-0.26458 0.26458,-0.26458 z"
         style="opacity:1;fill:#a3b7cc;fill-opacity:1;stroke:none;stroke-width:1.05833328;stroke-linecap:round;stroke-linejoin:round;stroke-miterlimit:4;stroke-dasharray:none;stroke-opacity:1;paint-order:fill markers stroke" />
      <path
         sodipodi:nodetypes="cccccssssssssssssssscccccsssssssssssssss"
         inkscape:connector-curvature="0"
         id="rect1613"
         d="m 12.964602,293.29582 v 3.70417 l 3.704167,0 v -3.70417 z m 0.529167,0.26459 c 0.146579,0 0.264583,0.118 0.264583,0.26458 0,0.14658 -0.118004,0.26458 -0.264583,0.26458 -0.146579,0 -0.264584,-0.118 -0.264584,-0.26458 0,-0.14658 0.118005,-0.26458 0.264584,-0.26458 z m 2.645833,0 c 0.146579,0 0.264584,0.118 0.264584,0.26458 0,0.14658 -0.118005,0.26458 -0.264584,0.26458 -0.146579,0 -0.264583,-0.118 -0.264583,-0.26458 0,-0.14658 0.118004,-0.26458 0.264583,-0.26458 z m -2.645833,1.32291 c 0.146579,0 0.264583,0.11801 0.264583,0.26459 0,0.14658 -0.118004,0.26458 -0.264583,0.26458 -0.146579,0 -0.264584,-0.118 -0.264584,-0.26458 0,-0.14658 0.118005,-0.26459 0.264584,-0.26459 z m 0.529169,0 h 1.587479 v 1.5875 h -1.587479 z m 2.116664,0 c 0.146579,0 0.264584,0.11801 0.264584,0.26459 0,0.14658 -0.118005,0.26458 -0.264584,0.26458 -0.146579,0 -0.264583,-0.118 -0.264583,-0.26458 0,-0.14658 0.118004,-0.26459 0.264583,-0.26459 z m -2.645833,1.32292 c 0.146579,0 0.264583,0.118 0.264583,0.26458 0,0.14658 -0.118004,0.26459 -0.264583,0.26459 -0.146579,0 -0.264584,-0.11801 -0.264584,-0.26459 0,-0.14658 0.118005,-0.26458 0.264584,-0.26458 z m 2.645833,0 c 0.146579,0 0.264584,0.118 0.264584,0.26458 0,0.14658 -0.118005,0.26459 -0.264584,0.26459 -0.146579,0 -0.264583,-0.11801 -0.264583,-0.26459 0,-0.14658 0.118004,-0.26458 0.264583,-0.26458 z"
         style="opacity:1;fill:#e1ebf2;fill-opacity:1;stroke:none;stroke-width:1.05833328;stroke-linecap:round;stroke-linejoin:round;stroke-miterlimit:4;stroke-dasharray:none;stroke-opacity:1;paint-order:fill markers stroke" />
      <path
         sodipodi:nodetypes="cccccccccccccccccccc"
         inkscape:connector-curvature="0"
         id="rect1662"
         d="m 13.493738,297.52916 v 0.26458 h 0.264583 v -0.26458 z m 0.529167,0 v 0.26458 h 0.264583 v -0.26458 z m 0.529166,0 v 0.26458 h 0.264584 v -0.26458 z m 1.058365,0 v 0.26458 l 0.529166,0 v -0.26458 z"
         style="opacity:1;fill:#fdd837;fill-opacity:1;stroke:none;stroke-width:1.05833328;stroke-linecap:round;stroke-linejoin:round;stroke-miterlimit:4;stroke-dasharray:none;stroke-opacity:1;paint-order:fill markers stroke" />
      <path
         sodipodi:nodetypes="ccccc"
         inkscape:connector-curvature="0"
         id="rect1670"
         d="m 14.022969,293.82499 1.587473,0 v 0.79375 l -1.587473,0 z"
         style="opacity:1;fill:#394450;fill-opacity:1;stroke:none;stroke-width:1.05833328;stroke-linecap:round;stroke-linejoin:round;stroke-miterlimit:4;stroke-dasharray:none;stroke-opacity:1;paint-order:fill markers stroke" />
      <path
         sodipodi:nodetypes="ccccc"
         inkscape:connector-curvature="0"
         id="rect1672"
         d="m 14.287519,294.08957 1.058333,0 v 0.26459 l -1.058333,0 z"
         style="opacity:1;fill:#4b6377;fill-opacity:1;stroke:none;stroke-width:1.05833328;stroke-linecap:round;stroke-linejoin:round;stroke-miterlimit:4;stroke-dasharray:none;stroke-opacity:1;paint-order:fill markers stroke" />
      <path
         sodipodi:nodetypes="ccccc"
         inkscape:connector-curvature="0"
         id="rect1676"
         d="m 14.287519,295.14791 1.058333,0 v 1.05833 l -1.058333,0 z"
         style="opacity:1;fill:#f5f7fa;fill-opacity:1;stroke:none;stroke-width:1.05833328;stroke-linecap:round;stroke-linejoin:round;stroke-miterlimit:4;stroke-dasharray:none;stroke-opacity:1;paint-order:fill markers stroke" />
    </g>
  </g>
</svg>
