<?xml version="1.0" encoding="UTF-8" standalone="no"?>
<!-- Created with Inkscape (http://www.inkscape.org/) -->

<svg
   xmlns:dc="http://purl.org/dc/elements/1.1/"
   xmlns:cc="http://creativecommons.org/ns#"
   xmlns:rdf="http://www.w3.org/1999/02/22-rdf-syntax-ns#"
   xmlns:svg="http://www.w3.org/2000/svg"
   xmlns="http://www.w3.org/2000/svg"
   xmlns:sodipodi="http://sodipodi.sourceforge.net/DTD/sodipodi-0.dtd"
   xmlns:inkscape="http://www.inkscape.org/namespaces/inkscape"
   width="48"
   height="48"
   viewBox="0 0 12.7 12.7"
   version="1.1"
   id="svg8"
   inkscape:version="0.92.3 (2405546, 2018-03-11)"
   sodipodi:docname="anbox-48.svg">
  <defs
     id="defs2">
    <style
       id="current-color-scheme"
       type="text/css">
      .ColorScheme-Text {
        color:#122036;
      }
      </style>
    <style
       type="text/css"
       id="current-color-scheme-1">
      .ColorScheme-Text {
        color:#122036;
      }
      </style>
  </defs>
  <sodipodi:namedview
     id="base"
     pagecolor="#ffffff"
     bordercolor="#666666"
     borderopacity="1.0"
     inkscape:pageopacity="0.0"
     inkscape:pageshadow="2"
     inkscape:zoom="15.839192"
     inkscape:cx="36.394693"
     inkscape:cy="19.918223"
     inkscape:document-units="px"
     inkscape:current-layer="g19473"
     showgrid="true"
     units="px"
     inkscape:showpageshadow="false"
     inkscape:snap-bbox="true"
     inkscape:bbox-paths="true"
     inkscape:bbox-nodes="true"
     inkscape:snap-bbox-edge-midpoints="true"
     inkscape:snap-bbox-midpoints="true"
     inkscape:object-paths="true"
     inkscape:snap-intersection-paths="true"
     inkscape:window-width="1874"
     inkscape:window-height="1141"
     inkscape:window-x="46"
     inkscape:window-y="30"
     inkscape:window-maximized="1">
    <inkscape:grid
       type="xygrid"
       id="grid815" />
  </sodipodi:namedview>
  <metadata
     id="metadata5">
    <rdf:RDF>
      <cc:Work
         rdf:about="">
        <dc:format>image/svg+xml</dc:format>
        <dc:type
           rdf:resource="http://purl.org/dc/dcmitype/StillImage" />
        <dc:title></dc:title>
      </cc:Work>
    </rdf:RDF>
  </metadata>
  <g
     inkscape:label="Capa 1"
     inkscape:groupmode="layer"
     id="layer1"
     transform="translate(0,-284.29999)">
    <g
       transform="matrix(0.26458333,0,0,0.26458333,7.9999999e-8,213.74885)"
       id="layer1-9"
       inkscape:label="Capa 1">
      <g
         transform="translate(56,8)"
         id="g19473">
        <path
           inkscape:connector-curvature="0"
           style="opacity:1;vector-effect:none;fill:#363c4d;fill-opacity:1;stroke:none;stroke-width:2;stroke-linecap:round;stroke-linejoin:round;stroke-miterlimit:4;stroke-dasharray:none;stroke-dashoffset:0;stroke-opacity:1;paint-order:markers stroke fill"
           d="m -51,260.64999 h 38 c 1.662,0 3,1.338 3,3 v 38 c 0,1.662 -1.338,3 -3,3 h -38 c -1.662,0 -3,-1.338 -3,-3 v -38 c 0,-1.662 1.338,-3 3,-3 z"
           id="rect18678-7" />
        <path
           inkscape:connector-curvature="0"
           style="opacity:1;vector-effect:none;fill:#4b6477;fill-opacity:1;stroke:none;stroke-width:2;stroke-linecap:round;stroke-linejoin:round;stroke-miterlimit:4;stroke-dasharray:none;stroke-dashoffset:0;stroke-opacity:1;paint-order:markers stroke fill"
           d="m -51,261.64999 h 38 c 1.108,0 2,0.892 2,2 v 38 c 0,1.108 -0.892,2 -2,2 h -38 c -1.108,0 -2,-0.892 -2,-2 v -38 c 0,-1.108 0.892,-2 2,-2 z"
           id="rect18695" />
        <path
           inkscape:connector-curvature="0"
           style="opacity:1;vector-effect:none;fill:#363c4d;fill-opacity:1;stroke:none;stroke-width:2;stroke-linecap:round;stroke-linejoin:round;stroke-miterlimit:4;stroke-dasharray:none;stroke-dashoffset:0;stroke-opacity:1;paint-order:markers stroke fill"
           d="m -50.000004,263.64999 h 36.000008 c 0.553998,0 0.999996,0.446 0.999996,1 l 0,36 c 0,0.554 -0.445998,0.99999 -0.999996,0.99999 H -50.000004 C -50.554002,301.64998 -51,301.20399 -51,300.64999 l 0,-36 c 0,-0.554 0.445998,-1 0.999996,-1 z"
           id="rect18678"
           sodipodi:nodetypes="sssssssss" />
        <path
           inkscape:connector-curvature="0"
           style="opacity:1;vector-effect:none;fill:#4db6ac;fill-opacity:1;stroke:none;stroke-width:2;stroke-linecap:round;stroke-linejoin:round;stroke-miterlimit:4;stroke-dasharray:none;stroke-dashoffset:0;stroke-opacity:1;paint-order:markers stroke fill"
           d="m -50,264.64999 h 36 l 0,35.99999 h -36 z"
           id="rect18676"
           sodipodi:nodetypes="ccccc" />
        <g
           transform="matrix(3.7795276,0,0,3.7795276,-110,-813.86968)"
           id="layer1-8"
           inkscape:label="Capa 1">
          <g
             transform="translate(5.5562498,0.53372065)"
             id="g1616">
            <g
               id="g2860"
               transform="translate(14.2875,4.4933634)">
              <path
                 id="path908"
                 d="m 4.5273722,284.55579 a 0.79382938,0.79382938 0 0 0 -0.664559,0.32608 l -0.9730671,1.29759 a 4.2333333,4.2333333 0 0 0 -4.1919922,-5.2e-4 l -0.9730671,-1.29707 a 0.79382938,0.79382938 0 0 0 -0.6087486,-0.32556 0.79382938,0.79382938 0 0 0 -0.6614582,1.27796 l 1.0361125,1.38131 a 4.2333333,4.2333333 0 0 0 -0.9301758,2.64066 H 0.79374997 5.0270834 a 4.2333333,4.2333333 0 0 0 -0.9296591,-2.64066 l 1.0355959,-1.38131 a 0.79382938,0.79382938 0 0 0 -0.605648,-1.27848 z"
                 style="opacity:1;vector-effect:none;fill:#009688;fill-opacity:1;stroke:none;stroke-width:1.91732252;stroke-linecap:round;stroke-linejoin:round;stroke-miterlimit:4;stroke-dasharray:none;stroke-dashoffset:0;stroke-opacity:1"
                 inkscape:connector-curvature="0" />
              <path
                 id="path908-6"
                 d="m -2.8928467,284.82348 a 0.52921958,0.52921958 0 0 0 -0.4408,0.85214 l 1.1616864,1.54874 A 3.96875,3.96875 0 0 0 -3.175,289.85624 H 0.79374997 4.7625 a 3.96875,3.96875 0 0 0 -1.0030396,-2.63188 l 1.1616862,-1.54874 a 0.52921958,0.52921958 0 0 0 -0.4035928,-0.85214 0.52921958,0.52921958 0 0 0 -0.442867,0.21704 l -1.1172446,1.48983 a 3.96875,3.96875 0 0 0 -0.1793172,-0.11111 3.96875,3.96875 0 0 0 -3.96875,0 3.96875,3.96875 0 0 0 -0.1767334,0.11421 l -1.1198284,-1.49293 a 0.52921958,0.52921958 0 0 0 -0.4056599,-0.21704 z m 2.09909667,2.9161 c 0.2931581,0 0.5291667,0.236 0.5291667,0.52916 0,0.29316 -0.2360086,0.52917 -0.5291667,0.52917 -0.29315797,0 -0.52916657,-0.23601 -0.52916657,-0.52917 0,-0.29316 0.2360086,-0.52916 0.52916657,-0.52916 z m 2.91041673,0 c 0.2931581,0 0.5291667,0.236 0.5291667,0.52916 0,0.29316 -0.2360086,0.52917 -0.5291667,0.52917 -0.2931581,0 -0.5291667,-0.23601 -0.5291667,-0.52917 0,-0.29316 0.2360086,-0.52916 0.5291667,-0.52916 z"
                 style="opacity:1;vector-effect:none;fill:#b2dfdb;fill-opacity:1;stroke:none;stroke-width:1.79748988;stroke-linecap:round;stroke-linejoin:round;stroke-miterlimit:4;stroke-dasharray:none;stroke-dashoffset:0;stroke-opacity:1"
                 inkscape:connector-curvature="0" />
            </g>
          </g>
        </g>
      </g>
    </g>
  </g>
</svg>
