<?xml version="1.0" encoding="UTF-8" standalone="no"?>
<!-- Created with Inkscape (http://www.inkscape.org/) -->

<svg
   xmlns:dc="http://purl.org/dc/elements/1.1/"
   xmlns:cc="http://creativecommons.org/ns#"
   xmlns:rdf="http://www.w3.org/1999/02/22-rdf-syntax-ns#"
   xmlns:svg="http://www.w3.org/2000/svg"
   xmlns="http://www.w3.org/2000/svg"
   xmlns:sodipodi="http://sodipodi.sourceforge.net/DTD/sodipodi-0.dtd"
   xmlns:inkscape="http://www.inkscape.org/namespaces/inkscape"
   width="48"
   height="48"
   viewBox="0 0 48 48"
   version="1.1"
   id="svg8"
   inkscape:version="0.92.3 (2405546, 2018-03-11)"
   sodipodi:docname="chromium.svg">
  <title
     id="title7895">Antu icon Theme</title>
  <defs
     id="defs2" />
  <sodipodi:namedview
     id="base"
     pagecolor="#ffffff"
     bordercolor="#666666"
     borderopacity="1.0"
     inkscape:pageopacity="0.0"
     inkscape:pageshadow="2"
     inkscape:zoom="11.313708"
     inkscape:cx="51.745913"
     inkscape:cy="18.110717"
     inkscape:document-units="px"
     inkscape:current-layer="g1535"
     showgrid="false"
     units="px"
     inkscape:window-width="1874"
     inkscape:window-height="1141"
     inkscape:window-x="46"
     inkscape:window-y="30"
     inkscape:window-maximized="1"
     objecttolerance="10"
     gridtolerance="10"
     guidetolerance="10"
     inkscape:snap-bbox="true"
     inkscape:bbox-nodes="true"
     inkscape:bbox-paths="true"
     inkscape:snap-bbox-edge-midpoints="true"
     inkscape:snap-bbox-midpoints="true"
     inkscape:object-paths="true"
     inkscape:snap-intersection-paths="true"
     inkscape:object-nodes="true"
     inkscape:snap-smooth-nodes="false"
     inkscape:snap-midpoints="false"
     inkscape:showpageshadow="false">
    <inkscape:grid
       type="xygrid"
       id="grid7897"
       empspacing="4" />
  </sodipodi:namedview>
  <metadata
     id="metadata5">
    <rdf:RDF>
      <cc:Work
         rdf:about="">
        <dc:format>image/svg+xml</dc:format>
        <dc:type
           rdf:resource="http://purl.org/dc/dcmitype/StillImage" />
        <dc:title>Antu icon Theme</dc:title>
      </cc:Work>
    </rdf:RDF>
  </metadata>
  <g
     inkscape:label="Capa 1"
     inkscape:groupmode="layer"
     id="layer1"
     transform="translate(0,-266.64999)">
    <g
       id="g1535"
       transform="translate(35,-15.000005)">
      <g
         id="g911"
         transform="translate(-35,15)">
        <path
           style="opacity:1;fill:#96b2cb;fill-opacity:0.98039216;stroke:none;stroke-width:14.09127808;stroke-linecap:round;stroke-linejoin:round;stroke-miterlimit:4;stroke-dasharray:none;stroke-opacity:1"
           d="m 43.424847,280.32162 a 22,22 0 0 1 -2.207467,24.0237 22,22 0 0 1 -22.911399,7.55504 L 24,290.64999 Z"
           id="path1246" />
        <path
           style="opacity:1;fill:#c8dded;fill-opacity:1;stroke:none;stroke-width:13.45076561;stroke-linecap:round;stroke-linejoin:round;stroke-miterlimit:4;stroke-dasharray:none;stroke-opacity:1"
           d="M 42.541016 14.140625 L 39.044922 16 L 30 16 L 30 20.808594 L 24 24 L 18.564453 44.285156 A 21 21 0 0 0 40.435547 37.072266 A 21 21 0 0 0 42.541016 14.140625 z "
           transform="translate(0,266.64999)"
           id="path1246-8" />
        <path
           style="opacity:1;fill:#71a3d5;fill-opacity:0.98039216;stroke:none;stroke-width:19.55555534;stroke-linecap:round;stroke-linejoin:round;stroke-miterlimit:4;stroke-dasharray:none;stroke-opacity:1"
           d="M 21.700373,312.52948 A 22,22 0 0 1 3.9019998,299.5982 22,22 0 0 1 6.2016263,277.71872 L 24,290.64999 Z"
           id="path1215" />
        <path
           style="opacity:1;fill:#90bde4;fill-opacity:1;stroke:none;stroke-width:18.66666603;stroke-linecap:round;stroke-linejoin:round;stroke-miterlimit:4;stroke-dasharray:none;stroke-opacity:1"
           d="M 21.804902,311.53495 A 21,21 0 0 1 4.8155452,299.19146 21,21 0 0 1 7.0106433,278.3065 L 24,290.64999 Z"
           id="path1215-2" />
        <path
           style="opacity:1;fill:#5581ab;fill-opacity:0.98039216;stroke:none;stroke-width:8.58792019;stroke-linecap:round;stroke-linejoin:round;stroke-miterlimit:4;stroke-dasharray:none;stroke-opacity:1"
           d="M 23.263672 2.0117188 C 16.012188 2.2531721 9.2599095 6.0746269 5.34375 12.341797 L 20 33 L 29 16.65625 L 43.673828 16.65625 L 43.794922 17 L 44.859375 17.005859 L 44.738281 16.65625 C 41.919003 8.69486 34.79017 3.0503294 26.394531 2.1308594 C 25.345076 2.0159256 24.299598 1.9772254 23.263672 2.0117188 z "
           transform="translate(0,266.64999)"
           id="path1194" />
        <path
           style="opacity:1;fill:#6b9aca;fill-opacity:1;stroke:none;stroke-width:8.19756031;stroke-linecap:round;stroke-linejoin:round;stroke-miterlimit:4;stroke-dasharray:none;stroke-opacity:1"
           d="M 24.324219 3.0019531 C 16.820149 2.872441 9.8244078 6.6895375 5.9726562 13.228516 L 20 33 L 29 16.646484 L 30 16.646484 L 30 17 L 43 17 L 43.669922 17 L 43.794922 17 L 43.669922 16.646484 C 40.834985 9.0641044 33.894294 3.7856081 25.830078 3.0800781 C 25.326065 3.0359825 24.82449 3.0105873 24.324219 3.0019531 z "
           transform="translate(0,266.64999)"
           id="path1194-2" />
        <g
           id="g1192">
          <path
             inkscape:connector-curvature="0"
             id="path1108-9-0"
             d="M 34,290.65004 A 10.000001,10.000001 0 0 1 23.999998,300.65002 10.000001,10.000001 0 0 1 14,290.65004 10.000001,10.000001 0 0 1 23.999998,280.64997 10.000001,10.000001 0 0 1 34,290.65004 Z"
             style="opacity:1;fill:#a3b7cc;fill-opacity:1;stroke:none;stroke-width:2.66666698;stroke-linecap:square;stroke-linejoin:miter;stroke-miterlimit:4;stroke-dasharray:none;stroke-opacity:1;paint-order:stroke markers fill" />
          <path
             inkscape:connector-curvature="0"
             id="path1108-2-7-2"
             d="m 33,290.65 a 9.0000001,9.0000001 0 0 1 -9.000002,9 9.0000001,9.0000001 0 0 1 -8.999998,-9 9.0000001,9.0000001 0 0 1 8.999998,-9 9.0000001,9.0000001 0 0 1 9.000002,9 z"
             style="opacity:0.98000004;fill:#e6f5fe;fill-opacity:1;stroke:none;stroke-width:2.40000033;stroke-linecap:square;stroke-linejoin:miter;stroke-miterlimit:4;stroke-dasharray:none;stroke-opacity:1;paint-order:stroke markers fill" />
          <path
             id="path1108-2-0-3-3"
             d="M 31,290.65004 A 6.9999986,6.9999986 0 0 1 23.999994,297.65001 6.9999986,6.9999986 0 0 1 17,290.65004 6.9999986,6.9999986 0 0 1 23.999994,283.64998 6.9999986,6.9999986 0 0 1 31,290.65004 Z"
             style="opacity:0.98000004;fill:#568bc6;fill-opacity:1;stroke:none;stroke-width:1.86666632;stroke-linecap:square;stroke-linejoin:miter;stroke-miterlimit:4;stroke-dasharray:none;stroke-opacity:1;paint-order:stroke markers fill"
             inkscape:connector-curvature="0" />
          <path
             id="path1108-2-0-2-6-7"
             d="m 30,290.65 a 5.9999998,5.9999998 0 0 1 -6,6 5.9999998,5.9999998 0 0 1 -6,-6 5.9999998,5.9999998 0 0 1 6,-6 5.9999998,5.9999998 0 0 1 6,6 z"
             style="opacity:0.98000004;fill:#86afda;fill-opacity:1;stroke:none;stroke-width:1.60000002;stroke-linecap:square;stroke-linejoin:miter;stroke-miterlimit:4;stroke-dasharray:none;stroke-opacity:1;paint-order:stroke markers fill"
             inkscape:connector-curvature="0" />
        </g>
        <path
           style="opacity:1;fill:#99a8d3;fill-opacity:0.69791669;stroke:none;stroke-width:10.31066132;stroke-linecap:round;stroke-linejoin:round;stroke-miterlimit:4;stroke-dasharray:none;stroke-opacity:1"
           id="path1063-5"
           r="22"
           cy="290.64999"
           cx="24"
           d=""
           inkscape:connector-curvature="0" />
      </g>
    </g>
  </g>
</svg>
