<?xml version="1.0" encoding="UTF-8" standalone="no"?>
<!-- Created with Inkscape (http://www.inkscape.org/) -->

<svg
   xmlns:dc="http://purl.org/dc/elements/1.1/"
   xmlns:cc="http://creativecommons.org/ns#"
   xmlns:rdf="http://www.w3.org/1999/02/22-rdf-syntax-ns#"
   xmlns:svg="http://www.w3.org/2000/svg"
   xmlns="http://www.w3.org/2000/svg"
   xmlns:sodipodi="http://sodipodi.sourceforge.net/DTD/sodipodi-0.dtd"
   xmlns:inkscape="http://www.inkscape.org/namespaces/inkscape"
   width="48"
   height="48"
   viewBox="0 0 48 48"
   version="1.1"
   id="svg8"
   inkscape:version="0.92.3 (2405546, 2018-03-11)"
   sodipodi:docname="plasmavault.svg">
  <title
     id="title7895">Antu icon Theme</title>
  <defs
     id="defs2">
    <style
       id="current-color-scheme"
       type="text/css">
      .ColorScheme-Text {
        color:#122036;
      }
      </style>
    <style
       id="current-color-scheme-7"
       type="text/css">
      .ColorScheme-Text {
        color:#122036;
      }
      </style>
    <style
       id="current-color-scheme-5"
       type="text/css">
      .ColorScheme-Text {
        color:#122036;
      }
      </style>
    <style
       type="text/css"
       id="current-color-scheme-9">
      .ColorScheme-Text {
        color:#122036;
      }
      </style>
    <style
       type="text/css"
       id="current-color-scheme-1">
      .ColorScheme-Text {
        color:#122036;
      }
      </style>
    <style
       id="current-color-scheme-10"
       type="text/css">
      .ColorScheme-Text {
        color:#122036;
      }
      </style>
    <style
       type="text/css"
       id="current-color-scheme-6">
      .ColorScheme-Text {
        color:#122036;
      }
      </style>
    <style
       type="text/css"
       id="current-color-scheme-7-1">
      .ColorScheme-Text {
        color:#122036;
      }
      </style>
    <style
       type="text/css"
       id="current-color-scheme-5-2">
      .ColorScheme-Text {
        color:#122036;
      }
      </style>
    <style
       type="text/css"
       id="current-color-scheme-59">
      .ColorScheme-Text {
        color:#122036;
      }
      </style>
    <style
       type="text/css"
       id="current-color-scheme-7-2">
      .ColorScheme-Text {
        color:#122036;
      }
      </style>
    <style
       type="text/css"
       id="current-color-scheme-5-28">
      .ColorScheme-Text {
        color:#122036;
      }
      </style>
    <style
       id="current-color-scheme-9-9"
       type="text/css">
      .ColorScheme-Text {
        color:#122036;
      }
      </style>
    <style
       id="current-color-scheme-1-7"
       type="text/css">
      .ColorScheme-Text {
        color:#122036;
      }
      </style>
    <style
       type="text/css"
       id="current-color-scheme-10-3">
      .ColorScheme-Text {
        color:#122036;
      }
      </style>
    <style
       id="current-color-scheme-6-6"
       type="text/css">
      .ColorScheme-Text {
        color:#122036;
      }
      </style>
    <style
       id="current-color-scheme-7-1-1"
       type="text/css">
      .ColorScheme-Text {
        color:#122036;
      }
      </style>
    <style
       id="current-color-scheme-5-2-2"
       type="text/css">
      .ColorScheme-Text {
        color:#122036;
      }
      </style>
    <style
       id="current-color-scheme-91"
       type="text/css">
      .ColorScheme-Text {
        color:#122036;
      }
      </style>
    <style
       id="current-color-scheme-7-27"
       type="text/css">
      .ColorScheme-Text {
        color:#122036;
      }
      </style>
    <style
       id="current-color-scheme-5-0"
       type="text/css">
      .ColorScheme-Text {
        color:#122036;
      }
      </style>
    <style
       type="text/css"
       id="current-color-scheme-9-93">
      .ColorScheme-Text {
        color:#122036;
      }
      </style>
    <style
       type="text/css"
       id="current-color-scheme-1-6">
      .ColorScheme-Text {
        color:#122036;
      }
      </style>
    <style
       id="current-color-scheme-10-0"
       type="text/css">
      .ColorScheme-Text {
        color:#122036;
      }
      </style>
    <style
       type="text/css"
       id="current-color-scheme-6-62">
      .ColorScheme-Text {
        color:#122036;
      }
      </style>
    <style
       type="text/css"
       id="current-color-scheme-7-1-6">
      .ColorScheme-Text {
        color:#122036;
      }
      </style>
    <style
       type="text/css"
       id="current-color-scheme-5-2-1">
      .ColorScheme-Text {
        color:#122036;
      }
      </style>
    <style
       id="current-color-scheme-53"
       type="text/css">
      .ColorScheme-Text {
        color:#122036;
      }
      </style>
    <style
       id="current-color-scheme-7-5"
       type="text/css">
      .ColorScheme-Text {
        color:#122036;
      }
      </style>
    <style
       id="current-color-scheme-5-6"
       type="text/css">
      .ColorScheme-Text {
        color:#122036;
      }
      </style>
    <style
       type="text/css"
       id="current-color-scheme-9-2">
      .ColorScheme-Text {
        color:#122036;
      }
      </style>
    <style
       type="text/css"
       id="current-color-scheme-1-9">
      .ColorScheme-Text {
        color:#122036;
      }
      </style>
    <style
       id="current-color-scheme-10-1"
       type="text/css">
      .ColorScheme-Text {
        color:#122036;
      }
      </style>
    <style
       type="text/css"
       id="current-color-scheme-6-2">
      .ColorScheme-Text {
        color:#122036;
      }
      </style>
    <style
       type="text/css"
       id="current-color-scheme-7-1-7">
      .ColorScheme-Text {
        color:#122036;
      }
      </style>
    <style
       type="text/css"
       id="current-color-scheme-5-2-0">
      .ColorScheme-Text {
        color:#122036;
      }
      </style>
    <style
       type="text/css"
       id="current-color-scheme-59-9">
      .ColorScheme-Text {
        color:#122036;
      }
      </style>
    <style
       type="text/css"
       id="current-color-scheme-7-2-3">
      .ColorScheme-Text {
        color:#122036;
      }
      </style>
    <style
       type="text/css"
       id="current-color-scheme-5-28-6">
      .ColorScheme-Text {
        color:#122036;
      }
      </style>
    <style
       id="current-color-scheme-9-9-0"
       type="text/css">
      .ColorScheme-Text {
        color:#122036;
      }
      </style>
    <style
       id="current-color-scheme-1-7-6"
       type="text/css">
      .ColorScheme-Text {
        color:#122036;
      }
      </style>
    <style
       type="text/css"
       id="current-color-scheme-10-3-2">
      .ColorScheme-Text {
        color:#122036;
      }
      </style>
    <style
       id="current-color-scheme-6-6-6"
       type="text/css">
      .ColorScheme-Text {
        color:#122036;
      }
      </style>
    <style
       id="current-color-scheme-7-1-1-1"
       type="text/css">
      .ColorScheme-Text {
        color:#122036;
      }
      </style>
    <style
       id="current-color-scheme-5-2-2-8"
       type="text/css">
      .ColorScheme-Text {
        color:#122036;
      }
      </style>
    <style
       id="current-color-scheme-91-7"
       type="text/css">
      .ColorScheme-Text {
        color:#122036;
      }
      </style>
    <style
       id="current-color-scheme-7-27-9"
       type="text/css">
      .ColorScheme-Text {
        color:#122036;
      }
      </style>
    <style
       id="current-color-scheme-5-0-2"
       type="text/css">
      .ColorScheme-Text {
        color:#122036;
      }
      </style>
    <style
       type="text/css"
       id="current-color-scheme-9-93-0">
      .ColorScheme-Text {
        color:#122036;
      }
      </style>
    <style
       type="text/css"
       id="current-color-scheme-1-6-2">
      .ColorScheme-Text {
        color:#122036;
      }
      </style>
    <style
       id="current-color-scheme-10-0-3"
       type="text/css">
      .ColorScheme-Text {
        color:#122036;
      }
      </style>
    <style
       type="text/css"
       id="current-color-scheme-6-62-7">
      .ColorScheme-Text {
        color:#122036;
      }
      </style>
    <style
       type="text/css"
       id="current-color-scheme-7-1-6-5">
      .ColorScheme-Text {
        color:#122036;
      }
      </style>
    <style
       type="text/css"
       id="current-color-scheme-5-2-1-9">
      .ColorScheme-Text {
        color:#122036;
      }
      </style>
  </defs>
  <sodipodi:namedview
     id="base"
     pagecolor="#ffffff"
     bordercolor="#666666"
     borderopacity="1.0"
     inkscape:pageopacity="0.0"
     inkscape:pageshadow="2"
     inkscape:zoom="16"
     inkscape:cx="0.231573"
     inkscape:cy="18.966168"
     inkscape:document-units="px"
     inkscape:current-layer="layer1"
     showgrid="true"
     units="px"
     inkscape:window-width="1874"
     inkscape:window-height="1141"
     inkscape:window-x="46"
     inkscape:window-y="30"
     inkscape:window-maximized="1"
     objecttolerance="10"
     gridtolerance="10"
     guidetolerance="10"
     inkscape:snap-bbox="true"
     inkscape:bbox-paths="true"
     inkscape:bbox-nodes="true"
     inkscape:snap-bbox-edge-midpoints="true"
     inkscape:snap-bbox-midpoints="true"
     inkscape:object-paths="true"
     inkscape:snap-intersection-paths="true">
    <inkscape:grid
       type="xygrid"
       id="grid7897"
       empspacing="4" />
  </sodipodi:namedview>
  <metadata
     id="metadata5">
    <rdf:RDF>
      <cc:Work
         rdf:about="">
        <dc:format>image/svg+xml</dc:format>
        <dc:type
           rdf:resource="http://purl.org/dc/dcmitype/StillImage" />
        <dc:title>Antu icon Theme</dc:title>
      </cc:Work>
    </rdf:RDF>
  </metadata>
  <g
     inkscape:label="Capa 1"
     inkscape:groupmode="layer"
     id="layer1"
     transform="translate(0,-266.64999)">
    <g
       id="g2973"
       transform="translate(44,8)">
      <path
         id="path1233"
         d="m -40.999999,260.64999 c -1.644707,0 -3,1.3553 -3,3 v 39 c 0,1.6447 1.355293,3 3,3 h 42 c 1.644705,0 3,-1.3553 3,-3 v -33 c 0,-1.6447 -1.355295,-3 -3,-3 h -21.998047 c -0.505981,0 -0.774153,-0.16677 -1.154297,-0.59766 -0.380145,-0.43089 -0.765928,-1.12884 -1.195312,-1.89257 -0.429386,-0.76373 -0.909713,-1.5975 -1.638672,-2.29297 -0.72896,-0.69549 -1.763671,-1.2168 -3.013672,-1.2168 z"
         style="color:#000000;font-style:normal;font-variant:normal;font-weight:normal;font-stretch:normal;font-size:medium;line-height:normal;font-family:sans-serif;font-variant-ligatures:normal;font-variant-position:normal;font-variant-caps:normal;font-variant-numeric:normal;font-variant-alternates:normal;font-feature-settings:normal;text-indent:0;text-align:start;text-decoration:none;text-decoration-line:none;text-decoration-style:solid;text-decoration-color:#000000;letter-spacing:normal;word-spacing:normal;text-transform:none;writing-mode:lr-tb;direction:ltr;text-orientation:mixed;dominant-baseline:auto;baseline-shift:baseline;text-anchor:start;white-space:normal;shape-padding:0;clip-rule:nonzero;display:inline;overflow:visible;visibility:visible;opacity:1;isolation:auto;mix-blend-mode:normal;color-interpolation:sRGB;color-interpolation-filters:linearRGB;solid-color:#000000;solid-opacity:1;vector-effect:none;fill:#36404d;fill-opacity:1;fill-rule:nonzero;stroke:none;stroke-width:1.99999988;stroke-linecap:round;stroke-linejoin:round;stroke-miterlimit:4;stroke-dasharray:none;stroke-dashoffset:0;stroke-opacity:1;color-rendering:auto;image-rendering:auto;shape-rendering:auto;text-rendering:auto;enable-background:accumulate"
         inkscape:connector-curvature="0" />
      <path
         sodipodi:nodetypes="sccssssssss"
         inkscape:connector-curvature="0"
         id="rect993"
         d="m -41,261.65195 h 12.999997 c 4,0 3.746593,6 7,6 H 0.999996 c 1.108,0 2.000001,0.892 2.000001,1.99999 v 33 c 0,1.10801 -0.892001,2.00001 -2.000001,2.00001 H -41 c -1.108,0 -1.999999,-0.892 -1.999999,-2.00001 v -39 c 0,-1.10799 0.891999,-1.99999 1.999999,-1.99999 z"
         style="opacity:1;vector-effect:none;fill:#4b6477;fill-opacity:1;stroke:none;stroke-width:1.99999988;stroke-linecap:round;stroke-linejoin:round;stroke-miterlimit:4;stroke-dasharray:none;stroke-dashoffset:0;stroke-opacity:1" />
      <path
         id="path1270"
         d="m -21,266.64999 c -1.120722,0 -2.041934,0.58127 -2.654297,1.27539 -0.612363,0.69411 -1.02356,1.49811 -1.4375,2.23437 -0.413939,0.73627 -0.825195,1.39861 -1.275391,1.82813 -0.450195,0.42951 -0.882812,0.66211 -1.632812,0.66211 h -13 c -1.644709,0 -3,1.3553 -3,3 v 27 c 0,1.6447 1.355291,3 3,3 H 1 c 1.644709,0 3,-1.3553 3,-3 v -33 c 0,-1.6447 -1.355291,-3 -3,-3 z"
         style="color:#000000;font-style:normal;font-variant:normal;font-weight:normal;font-stretch:normal;font-size:medium;line-height:normal;font-family:sans-serif;font-variant-ligatures:normal;font-variant-position:normal;font-variant-caps:normal;font-variant-numeric:normal;font-variant-alternates:normal;font-feature-settings:normal;text-indent:0;text-align:start;text-decoration:none;text-decoration-line:none;text-decoration-style:solid;text-decoration-color:#000000;letter-spacing:normal;word-spacing:normal;text-transform:none;writing-mode:lr-tb;direction:ltr;text-orientation:mixed;dominant-baseline:auto;baseline-shift:baseline;text-anchor:start;white-space:normal;shape-padding:0;clip-rule:nonzero;display:inline;overflow:visible;visibility:visible;opacity:1;isolation:auto;mix-blend-mode:normal;color-interpolation:sRGB;color-interpolation-filters:linearRGB;solid-color:#000000;solid-opacity:1;vector-effect:none;fill:#36404d;fill-opacity:1;fill-rule:nonzero;stroke:none;stroke-width:1.99999988;stroke-linecap:round;stroke-linejoin:round;stroke-miterlimit:4;stroke-dasharray:none;stroke-dashoffset:0;stroke-opacity:1;color-rendering:auto;image-rendering:auto;shape-rendering:auto;text-rendering:auto;enable-background:accumulate"
         inkscape:connector-curvature="0" />
      <path
         sodipodi:nodetypes="sccssssssss"
         inkscape:connector-curvature="0"
         id="rect993-6"
         d="M -40.999997,273.65194 H -28 c 4,0 3.746593,-6 7,-6 H 0.999999 c 1.108,0 2.000001,0.89202 2.000001,2 v 33 c 0,1.108 -0.892001,2.00001 -2.000001,2.00001 h -41.999996 c -1.108,0 -1.999999,-0.89201 -1.999999,-2.00001 v -27 c 0,-1.10798 0.891999,-2 1.999999,-2 z"
         style="opacity:1;vector-effect:none;fill:#4b6477;fill-opacity:1;stroke:none;stroke-width:1.99999988;stroke-linecap:round;stroke-linejoin:round;stroke-miterlimit:4;stroke-dasharray:none;stroke-dashoffset:0;stroke-opacity:1" />
      <path
         id="rect995-9"
         d="m -20,276.64999 c -3.324,0 -6,2.676 -6,6 v 1 c -0.554,0 -1,0.446 -1,1 v 10 c 0,0.554 0.446,1 1,1 h 12 c 0.554,0 1,-0.446 1,-1 v -10 c 0,-0.554 -0.446,-1 -1,-1 v -1 c 0,-3.324 -2.676,-6 -6,-6 z m 0,3 c 1.662,0 3,1.338 3,3 v 1 h -6 v -1 c 0,-1.662 1.338,-3 3,-3 z m 0,7 c 1.108,0 2,0.892 2,2 0,0.74107 -0.4042,1.37905 -1,1.72461 v 2.27539 c 0,0.554 -0.446,1 -1,1 -0.554,0 -1,-0.446 -1,-1 v -2.27539 c -0.5958,-0.34556 -1,-0.98354 -1,-1.72461 0,-1.108 0.892,-2 2,-2 z"
         style="opacity:0.98999999;vector-effect:none;fill:#dbdfe4;fill-opacity:1;stroke:none;stroke-width:2;stroke-linecap:round;stroke-linejoin:round;stroke-miterlimit:4;stroke-dasharray:none;stroke-dashoffset:0;stroke-opacity:1"
         inkscape:connector-curvature="0" />
      <path
         inkscape:connector-curvature="0"
         style="opacity:1;vector-effect:none;fill:#36404d;fill-opacity:1;stroke:none;stroke-width:2;stroke-linecap:round;stroke-linejoin:round;stroke-miterlimit:4;stroke-dasharray:none;stroke-dashoffset:0;stroke-opacity:1"
         d="m -21,267.64999 v 3 h 3 v -3 z m 3,3 v 3 h 3 v -3 z m 3,0 h 3 v -3 h -3 z m 3,0 v 3 h 3 v -3 z m 3,0 h 3 v -3 h -3 z m 3,0 v 3 h 3 v -3 z m 3,0 h 3 v -3 h -3 z m 3,0 v 3 h 3 v -3 z m -21,0 h -2 -2 v 1 h -1 v 1 h -2 v 1 h 5 2 z m -19,28 v 3 h 3 v -3 z m 3,3 v 3 h 3 v -3 z m 3,0 h 3 v -3 h -3 z m 3,0 v 3 h 3 v -3 z m 3,0 h 3 v -3 h -3 z m 3,0 v 3 h 3 v -3 z m 3,0 h 3 v -3 h -3 z m 3,0 v 3 h 3 v -3 z m 3,0 h 3 v -3 h -3 z m 3,0 v 3 h 3 v -3 z m 3,0 h 3 v -3 h -3 z m 3,0 v 3 h 3 v -3 z m 3,0 h 3 v -3 h -3 z m 3,0 v 3 h 3 v -3 z m 3,0 h 2 v -3 H 2 Z m -42,0 h -3 v 3 h 3 z"
         id="rect2068" />
    </g>
  </g>
</svg>
