<?xml version="1.0" encoding="UTF-8" standalone="no"?>
<!-- Created with Inkscape (http://www.inkscape.org/) -->

<svg
   xmlns:dc="http://purl.org/dc/elements/1.1/"
   xmlns:cc="http://creativecommons.org/ns#"
   xmlns:rdf="http://www.w3.org/1999/02/22-rdf-syntax-ns#"
   xmlns:svg="http://www.w3.org/2000/svg"
   xmlns="http://www.w3.org/2000/svg"
   xmlns:sodipodi="http://sodipodi.sourceforge.net/DTD/sodipodi-0.dtd"
   xmlns:inkscape="http://www.inkscape.org/namespaces/inkscape"
   width="48"
   height="48"
   viewBox="0 0 48 48"
   version="1.1"
   id="svg8"
   inkscape:version="0.92.3 (2405546, 2018-03-11)"
   sodipodi:docname="yast-sw_single.svg">
  <title
     id="title7895">Antu icon Theme</title>
  <defs
     id="defs2" />
  <sodipodi:namedview
     id="base"
     pagecolor="#ffffff"
     bordercolor="#666666"
     borderopacity="1.0"
     inkscape:pageopacity="0.0"
     inkscape:pageshadow="2"
     inkscape:zoom="11.313708"
     inkscape:cx="50.803708"
     inkscape:cy="15.559353"
     inkscape:document-units="px"
     inkscape:current-layer="layer1"
     showgrid="false"
     units="px"
     inkscape:window-width="1874"
     inkscape:window-height="1141"
     inkscape:window-x="46"
     inkscape:window-y="30"
     inkscape:window-maximized="1"
     objecttolerance="10"
     gridtolerance="10"
     guidetolerance="10"
     inkscape:snap-bbox="true"
     inkscape:bbox-nodes="true"
     inkscape:bbox-paths="true"
     inkscape:snap-bbox-edge-midpoints="true"
     inkscape:snap-bbox-midpoints="true"
     inkscape:object-paths="true"
     inkscape:snap-intersection-paths="true"
     inkscape:object-nodes="true"
     inkscape:snap-smooth-nodes="false"
     inkscape:snap-midpoints="false"
     inkscape:showpageshadow="false"
     showborder="true">
    <inkscape:grid
       type="xygrid"
       id="grid7897"
       empspacing="4" />
  </sodipodi:namedview>
  <metadata
     id="metadata5">
    <rdf:RDF>
      <cc:Work
         rdf:about="">
        <dc:format>image/svg+xml</dc:format>
        <dc:type
           rdf:resource="http://purl.org/dc/dcmitype/StillImage" />
        <dc:title>Antu icon Theme</dc:title>
      </cc:Work>
    </rdf:RDF>
  </metadata>
  <g
     inkscape:label="Capa 1"
     inkscape:groupmode="layer"
     id="layer1"
     transform="translate(0,-266.64999)">
    <g
       id="g1603">
      <g
         id="g1470">
        <g
           id="g5422"
           transform="translate(-24,-4.000005)">
          <g
             transform="matrix(5.5433071,0,0,5.5433071,24.533333,-1328.2455)"
             id="layer1-3-2"
             inkscape:label="Capa 1" />
          <path
             sodipodi:nodetypes="sssssssss"
             style="opacity:1;fill:#c8c3b7;fill-opacity:1;stroke:none;stroke-width:3.88529491;stroke-linecap:round;stroke-linejoin:round;stroke-miterlimit:4;stroke-dasharray:none;stroke-opacity:1"
             d="m 30,272.64999 h 36 c 1.662,0 3,1.338 3,3 v 38 c 0,1.662 -1.338,3 -3,3 H 30 c -1.662,0 -3,-1.338 -3,-3 v -38 c 0,-1.662 1.338,-3 3,-3 z"
             id="rect854"
             inkscape:connector-curvature="0" />
          <path
             sodipodi:nodetypes="sssssssss"
             style="opacity:1;fill:#f2efe6;fill-opacity:1;stroke:none;stroke-width:3.70869064;stroke-linecap:round;stroke-linejoin:round;stroke-miterlimit:4;stroke-dasharray:none;stroke-opacity:1"
             d="m 30,273.64999 h 36 c 1.108,0 2,0.892 2,2 v 38 c 0,1.108 -0.892,2 -2,2 H 30 c -1.108,0 -2,-0.892 -2,-2 v -38 c 0,-1.108 0.892,-2 2,-2 z"
             id="rect854-2"
             inkscape:connector-curvature="0" />
        </g>
      </g>
      <path
         style="opacity:1;fill:#4f92db;fill-opacity:1;stroke:none;stroke-width:1.99999988;stroke-linecap:round;stroke-linejoin:round;stroke-miterlimit:4;stroke-dasharray:none;stroke-opacity:1"
         d="m 11,290.64999 h 10.000003 c 1.107999,0 1.999997,0.892 1.999997,2.00001 v 16 c 0,1.10799 -0.891998,1.99999 -1.999997,1.99999 H 11 c -1.1079995,0 -1.9999991,-0.892 -1.9999991,-1.99999 v -16 c 0,-1.10801 0.8919996,-2.00001 1.9999991,-2.00001 z"
         id="rect1146"
         inkscape:connector-curvature="0" />
      <path
         style="opacity:1;fill:#5ac0ff;fill-opacity:1;stroke:none;stroke-width:1.99999988;stroke-linecap:round;stroke-linejoin:round;stroke-miterlimit:4;stroke-dasharray:none;stroke-opacity:1"
         d="m 10.999986,291.65 h 10.000028 c 0.553993,0 0.999987,0.44599 0.999987,1 v 16.00003 c 0,0.55398 -0.445994,0.99998 -0.999987,0.99998 H 10.999986 c -0.553992,0 -0.9999861,-0.446 -0.9999861,-0.99998 V 292.65 c 0,-0.55401 0.4459941,-1 0.9999861,-1 z"
         id="rect1148"
         inkscape:connector-curvature="0" />
      <path
         id="rect1150"
         d="m 27.999986,289.64996 h 12.000028 c 0.553992,0 0.999986,0.446 0.999986,0.99999 v 12.00003 c 0,0.55399 -0.445994,0.99998 -0.999986,0.99998 H 27.999986 C 27.445994,303.64996 27,303.20397 27,302.64998 v -12.00003 c 0,-0.55399 0.445994,-0.99999 0.999986,-0.99999 z"
         style="opacity:1;fill:#4f92db;fill-opacity:1;stroke:none;stroke-width:1.99999988;stroke-linecap:round;stroke-linejoin:round;stroke-miterlimit:4;stroke-dasharray:none;stroke-opacity:1" />
      <path
         id="rect1152"
         d="m 28.000002,290.64999 h 11.999999 v 12 H 28.000002 Z"
         style="opacity:1;fill:#5ac0ff;fill-opacity:1;stroke:none;stroke-width:1.99999988;stroke-linecap:round;stroke-linejoin:round;stroke-miterlimit:4;stroke-dasharray:none;stroke-opacity:1" />
      <path
         id="rect1154"
         d="m 29,291.64999 h 10 v 10 H 29 Z"
         style="opacity:1;fill:#0e72ac;fill-opacity:1;stroke:none;stroke-width:1.99999988;stroke-linecap:round;stroke-linejoin:round;stroke-miterlimit:4;stroke-dasharray:none;stroke-opacity:1" />
      <path
         id="rect1282"
         transform="translate(0,266.64999)"
         d="M 11 2 L 11 6.5 L 11 9 L 11 13.5 C 11 15.993 13.007 18 15.5 18 C 17.993 18 20 15.993 20 13.5 L 20 9 L 20 6.5 L 20 2 L 15.5 2 L 11 2 z M 29 2 L 29 9 L 29 13.5 C 29 15.993 31.007 18 33.5 18 C 35.993 18 38 15.993 38 13.5 L 38 6.5 L 38 2 L 29 2 z "
         style="opacity:1;fill:#a3b7cc;fill-opacity:1;stroke:none;stroke-width:1.99999988;stroke-linecap:round;stroke-linejoin:round;stroke-miterlimit:4;stroke-dasharray:none;stroke-opacity:1" />
      <path
         id="rect1156"
         d="m 30,292.64996 h 8 v 8 h -8 z"
         style="opacity:1;fill:#2594d1;fill-opacity:1;stroke:none;stroke-width:1.99999988;stroke-linecap:round;stroke-linejoin:round;stroke-miterlimit:4;stroke-dasharray:none;stroke-opacity:1" />
      <path
         style="opacity:1;fill:#a3b7cc;fill-opacity:1;stroke:none;stroke-width:1.99999988;stroke-linecap:round;stroke-linejoin:round;stroke-miterlimit:4;stroke-dasharray:none;stroke-opacity:1"
         d="m 9,308.64999 c -0.5539939,0 -1,0.44601 -1,1 v 1 0.94922 1.05078 h 16 v -1.05078 -0.94922 -1 c 0,-0.55399 -0.446006,-1 -1,-1 z"
         id="rect1140"
         inkscape:connector-curvature="0" />
      <path
         style="opacity:1;fill:#e8f6ff;fill-opacity:1;stroke:none;stroke-width:1.99999988;stroke-linecap:round;stroke-linejoin:round;stroke-miterlimit:4;stroke-dasharray:none;stroke-opacity:1"
         d="M 9.0000009,309.64996 H 23 v 2.00002 H 9.0000009 Z"
         id="rect1144"
         inkscape:connector-curvature="0" />
      <path
         id="rect1286"
         transform="translate(0,266.64999)"
         d="M 12 3 L 12 6.5 L 12 9 L 12 13.5 C 12 15.439 13.561 17 15.5 17 C 17.439 17 19 15.439 19 13.5 L 19 9 L 19 6.5 L 19 3 L 15.5 3 L 12 3 z "
         style="opacity:1;fill:#e8f6ff;fill-opacity:1;stroke:none;stroke-width:1.99999988;stroke-linecap:round;stroke-linejoin:round;stroke-miterlimit:4;stroke-dasharray:none;stroke-opacity:1" />
      <path
         id="rect1282-1"
         transform="translate(0,266.64999)"
         d="M 20 2 L 20 9 L 20 13.5 C 20 15.993 22.007 18 24.5 18 C 26.993 18 29 15.993 29 13.5 L 29 6.5 L 29 2 L 20 2 z M 38 2 L 38 6.5 L 38 13.5 C 38 15.993 40.007 18 42.5 18 C 44.993 18 47 15.993 47 13.5 L 47 7 L 47 6.5 L 47 4 C 47 2.892 46.108 2 45 2 L 38 2 z "
         style="opacity:1;fill:#d72f4a;fill-opacity:1;stroke:none;stroke-width:1.99999988;stroke-linecap:round;stroke-linejoin:round;stroke-miterlimit:4;stroke-dasharray:none;stroke-opacity:1" />
      <path
         id="rect1286-4"
         transform="translate(0,266.64999)"
         d="M 21 3 L 21 6.5 L 21 9 L 21 13.5 C 21 15.439 22.561 17 24.5 17 C 26.439 17 28 15.439 28 13.5 L 28 9 L 28 6.5 L 28 3 L 24.5 3 L 21 3 z "
         style="opacity:1;fill:#ff778a;fill-opacity:1;stroke:none;stroke-width:1.99999988;stroke-linecap:round;stroke-linejoin:round;stroke-miterlimit:4;stroke-dasharray:none;stroke-opacity:1" />
      <path
         id="rect1286-5"
         transform="translate(0,266.64999)"
         d="M 30 3 L 30 6.5 L 30 9 L 30 13.5 C 30 15.439 31.561 17 33.5 17 C 35.439 17 37 15.439 37 13.5 L 37 9 L 37 6.5 L 37 3 L 33.5 3 L 30 3 z "
         style="opacity:1;fill:#e8f6ff;fill-opacity:1;stroke:none;stroke-width:1.99999988;stroke-linecap:round;stroke-linejoin:round;stroke-miterlimit:4;stroke-dasharray:none;stroke-opacity:1" />
      <path
         id="rect1282-1-3-6"
         transform="translate(0,266.64999)"
         d="M 4 2 C 2.8920001 2 2 2.8920001 2 4 L 2 6.5 L 2 7 L 2 13.5 C 2 15.993 4.007 18 6.5 18 C 8.993 18 11 15.993 11 13.5 L 11 6.5 L 11 2 L 4 2 z "
         style="opacity:1;fill:#d72f4a;fill-opacity:1;stroke:none;stroke-width:1.99999988;stroke-linecap:round;stroke-linejoin:round;stroke-miterlimit:4;stroke-dasharray:none;stroke-opacity:1" />
      <path
         id="rect1286-4-1-2"
         transform="translate(0,266.64999)"
         d="M 4 3 C 3.4459982 3 3 3.4459982 3 4 L 3 6.5 L 3 11 L 3 13.5 C 3 15.439 4.561 17 6.5 17 C 8.439 17 10 15.439 10 13.5 L 10 6.5 L 10 3 L 5 3 L 4.5 3 L 4 3 z "
         style="opacity:1;fill:#ff778a;fill-opacity:1;stroke:none;stroke-width:1.99999988;stroke-linecap:round;stroke-linejoin:round;stroke-miterlimit:4;stroke-dasharray:none;stroke-opacity:1" />
      <path
         style="opacity:1;fill:#4f92db;fill-opacity:1;stroke:none;stroke-width:1.99999988;stroke-linecap:round;stroke-linejoin:round;stroke-miterlimit:4;stroke-dasharray:none;stroke-opacity:1"
         d="m 18.5,299.64997 c 0.831001,0 1.5,0.66901 1.5,1.5 0,0.831 -0.668999,1.50001 -1.5,1.50001 -0.830999,0 -1.5,-0.66901 -1.5,-1.50001 0,-0.83099 0.669001,-1.5 1.5,-1.5 z"
         id="rect1280"
         inkscape:connector-curvature="0" />
      <path
         id="rect1286-4-1-2-7"
         d="m 45,269.64999 c 0.554002,0 1,0.446 1,1 v 2.5 4.5 2.5 c 0,1.939 -1.561,3.5 -3.5,3.5 -1.939,0 -3.5,-1.561 -3.5,-3.5 v -7 -3.5 h 5 0.5 z"
         style="opacity:1;fill:#ff778a;fill-opacity:1;stroke:none;stroke-width:1.99999988;stroke-linecap:round;stroke-linejoin:round;stroke-miterlimit:4;stroke-dasharray:none;stroke-opacity:1"
         inkscape:connector-curvature="0" />
    </g>
  </g>
</svg>
