<?xml version="1.0" encoding="UTF-8" standalone="no"?>
<!-- Created with Inkscape (http://www.inkscape.org/) -->

<svg
   xmlns:dc="http://purl.org/dc/elements/1.1/"
   xmlns:cc="http://creativecommons.org/ns#"
   xmlns:rdf="http://www.w3.org/1999/02/22-rdf-syntax-ns#"
   xmlns:svg="http://www.w3.org/2000/svg"
   xmlns="http://www.w3.org/2000/svg"
   xmlns:sodipodi="http://sodipodi.sourceforge.net/DTD/sodipodi-0.dtd"
   xmlns:inkscape="http://www.inkscape.org/namespaces/inkscape"
   width="48"
   height="48"
   viewBox="0 0 48 48"
   version="1.1"
   id="svg8"
   inkscape:version="0.92.3 (2405546, 2018-03-11)"
   sodipodi:docname="plasma.svg">
  <title
     id="title7895">Antu icon Theme</title>
  <defs
     id="defs2" />
  <sodipodi:namedview
     id="base"
     pagecolor="#ffffff"
     bordercolor="#666666"
     borderopacity="1.0"
     inkscape:pageopacity="0.0"
     inkscape:pageshadow="2"
     inkscape:zoom="11.313708"
     inkscape:cx="26.888438"
     inkscape:cy="10.238374"
     inkscape:document-units="px"
     inkscape:current-layer="layer1"
     showgrid="true"
     units="px"
     inkscape:window-width="1874"
     inkscape:window-height="1141"
     inkscape:window-x="46"
     inkscape:window-y="30"
     inkscape:window-maximized="1"
     objecttolerance="10"
     gridtolerance="10"
     guidetolerance="10"
     inkscape:snap-bbox="true"
     inkscape:bbox-paths="true"
     inkscape:bbox-nodes="true"
     inkscape:snap-bbox-edge-midpoints="true"
     inkscape:snap-bbox-midpoints="true"
     inkscape:object-paths="true"
     inkscape:snap-intersection-paths="true">
    <inkscape:grid
       type="xygrid"
       id="grid7897"
       empspacing="4" />
  </sodipodi:namedview>
  <metadata
     id="metadata5">
    <rdf:RDF>
      <cc:Work
         rdf:about="">
        <dc:format>image/svg+xml</dc:format>
        <dc:type
           rdf:resource="http://purl.org/dc/dcmitype/StillImage" />
        <dc:title>Antu icon Theme</dc:title>
      </cc:Work>
    </rdf:RDF>
  </metadata>
  <g
     inkscape:label="Capa 1"
     inkscape:groupmode="layer"
     id="layer1"
     transform="translate(0,-266.64999)">
    <g
       id="layer1-7"
       inkscape:label="Capa 1">
      <g
         transform="translate(35.071428,-3.99999)"
         id="g8335">
        <path
           style="opacity:1;fill:#1d86d9;fill-opacity:1;stroke:none;stroke-width:0.99999994;stroke-opacity:1"
           d="m -33.071417,273.65 h 17.975774 5.024239 21.000002 c 1.107968,0 1.999975,0.89197 1.999975,1.99997 v 37.99998 c 0,1.10801 -0.892007,2.00001 -2.000013,2.00001 h -43.999977 c -1.108006,0 -2.000012,-0.892 -2.000012,-2.00001 v -37.99998 c 0,-1.108 0.892006,-1.99997 2.000012,-1.99997 z"
           id="rect9183-4-4"
           inkscape:connector-curvature="0"
           sodipodi:nodetypes="sccssssssss" />
        <path
           inkscape:connector-curvature="0"
           style="opacity:0.98999999;fill:#44acff;fill-opacity:1;stroke:none;stroke-width:0.99999994;stroke-opacity:1"
           d="m -33.071424,274.64999 c -0.554004,-0.003 -0.999999,0.44602 -0.999999,0.99998 l -4e-6,33 h 46.000001 l 4e-6,-33 c 0,-0.55396 -0.446,-0.99998 -1.000003,-0.99998 h -22 -3.999999 z"
           id="rect9179-4-3"
           sodipodi:nodetypes="csccssccc" />
        <path
           style="opacity:0.98999999;fill:#d1ebff;fill-opacity:1;stroke:none;stroke-width:0.30000001;stroke-miterlimit:4;stroke-dasharray:none;stroke-opacity:1"
           d="M 26.986328 10 A 1.0001 1.0001 0 0 0 26.292969 10.292969 L 24.292969 12.292969 A 1.0001 1.0001 0 0 0 24.292969 13.707031 L 28.585938 18 L 24.292969 22.292969 A 1.0001 1.0001 0 0 0 24.292969 23.707031 L 26.292969 25.707031 A 1.0001 1.0001 0 0 0 27.707031 25.707031 L 34.707031 18.707031 A 1.0001 1.0001 0 0 0 34.707031 17.292969 L 27.707031 10.292969 A 1.0001 1.0001 0 0 0 26.986328 10 z M 18 12 C 16.891999 12 16 12.89199 16 14 C 16 15.108 16.891999 16 18 16 C 19.108 16 20 15.108 20 14 C 20 12.89199 19.108 12 18 12 z M 16 18 C 14.338006 18 13 19.338 13 21 C 13 22.66198 14.338006 24 16 24 C 17.661995 24 19 22.66198 19 21 C 19 19.338 17.661995 18 16 18 z M 20 25 C 17.784001 25 16 26.784 16 29 C 16 31.216 17.784001 33 20 33 C 22.216001 33 24 31.216 24 29 C 24 26.78399 22.216001 25 20 25 z M 1 38 L 1 40 L 1 42 L 1 43 C 1 43.554 1.446001 44 2 44 L 46 44 C 46.554003 44 47 43.554 47 43 L 47 42 L 47 40 L 47 38 L 46 38 L 2 38 L 1 38 z "
           transform="translate(-35.071428,270.64998)"
           id="rect4523" />
      </g>
    </g>
  </g>
</svg>
