<?xml version="1.0" encoding="UTF-8" standalone="no"?>
<!-- Created with Inkscape (http://www.inkscape.org/) -->

<svg
   xmlns:dc="http://purl.org/dc/elements/1.1/"
   xmlns:cc="http://creativecommons.org/ns#"
   xmlns:rdf="http://www.w3.org/1999/02/22-rdf-syntax-ns#"
   xmlns:svg="http://www.w3.org/2000/svg"
   xmlns="http://www.w3.org/2000/svg"
   xmlns:sodipodi="http://sodipodi.sourceforge.net/DTD/sodipodi-0.dtd"
   xmlns:inkscape="http://www.inkscape.org/namespaces/inkscape"
   width="48"
   height="48"
   viewBox="0 0 12.7 12.7"
   version="1.1"
   id="svg8"
   inkscape:version="0.92.3 (2405546, 2018-03-11)"
   sodipodi:docname="playonlinux.svg">
  <defs
     id="defs2" />
  <sodipodi:namedview
     id="base"
     pagecolor="#ffffff"
     bordercolor="#666666"
     borderopacity="1.0"
     inkscape:pageopacity="0.0"
     inkscape:pageshadow="2"
     inkscape:zoom="15.839192"
     inkscape:cx="5.6604779"
     inkscape:cy="23.438386"
     inkscape:document-units="px"
     inkscape:current-layer="layer1"
     showgrid="true"
     units="px"
     inkscape:showpageshadow="false"
     inkscape:snap-bbox="true"
     inkscape:bbox-paths="true"
     inkscape:bbox-nodes="true"
     inkscape:snap-bbox-edge-midpoints="true"
     inkscape:snap-bbox-midpoints="true"
     inkscape:object-paths="true"
     inkscape:snap-intersection-paths="true"
     inkscape:window-width="1874"
     inkscape:window-height="1141"
     inkscape:window-x="46"
     inkscape:window-y="30"
     inkscape:window-maximized="1">
    <inkscape:grid
       type="xygrid"
       id="grid815" />
  </sodipodi:namedview>
  <metadata
     id="metadata5">
    <rdf:RDF>
      <cc:Work
         rdf:about="">
        <dc:format>image/svg+xml</dc:format>
        <dc:type
           rdf:resource="http://purl.org/dc/dcmitype/StillImage" />
        <dc:title></dc:title>
      </cc:Work>
    </rdf:RDF>
  </metadata>
  <g
     inkscape:label="Capa 1"
     inkscape:groupmode="layer"
     id="layer1"
     transform="translate(0,-284.29999)">
    <g
       id="g3033"
       transform="translate(5.822385,0.529165)">
      <path
         style="opacity:1;fill:#5e9c76;fill-opacity:1;stroke:none;stroke-width:0.13693488;stroke-linecap:round;stroke-linejoin:round;stroke-miterlimit:4;stroke-dasharray:none;stroke-opacity:1;paint-order:fill markers stroke"
         d="m -1.4552084,284.29999 c -1.0567963,0 -1.9132851,0.8184 -1.9781737,1.85828 -1.0398831,0.0649 -1.8582846,0.92138 -1.8582846,1.97818 0,1.09044 0.8710592,1.96866 1.9580201,1.98282 v 0.002 h 3.86281324 v -3.83646 -0.0263 h -0.00156 c -0.014155,-1.08696 -0.8923676,-1.95802 -1.98281404,-1.95802 z"
         id="rect1185"
         inkscape:connector-curvature="0" />
      <path
         style="opacity:1;fill:#bae0bd;fill-opacity:1;stroke:none;stroke-width:0.1186769;stroke-linecap:round;stroke-linejoin:round;stroke-miterlimit:4;stroke-dasharray:none;stroke-opacity:1;paint-order:fill markers stroke"
         d="m -1.4552084,284.56457 c -0.9527638,0 -1.7197916,0.76703 -1.7197916,1.71979 0,0.047 0.00306,0.093 0.00672,0.13901 -0.045998,-0.004 -0.092039,-0.007 -0.1390094,-0.007 -0.9527638,0 -1.7197916,0.76703 -1.7197916,1.71979 0,0.95277 0.7670278,1.7198 1.7197916,1.7198 0.00891,0 0.017478,-10e-4 0.026355,-0.002 v 0.002 h 3.54551994 v -3.54552 h -0.00156 c 1.444e-4,-0.009 0.00156,-0.0174 0.00156,-0.0263 0,-0.95277 -0.7670279,-1.7198 -1.71979174,-1.7198 z"
         id="rect1185-7"
         inkscape:connector-curvature="0" />
      <path
         inkscape:connector-curvature="0"
         style="opacity:1;fill:#c74343;fill-opacity:1;stroke:none;stroke-width:0.13693488;stroke-linecap:round;stroke-linejoin:round;stroke-miterlimit:4;stroke-dasharray:none;stroke-opacity:1;paint-order:fill markers stroke"
         d="m 2.5104397,284.29998 c 1.0567963,0 1.9132851,0.8184 1.9781739,1.85829 1.0398829,0.0649 1.8582839,0.92137 1.8582839,1.97817 0,1.09044 -0.871059,1.96866 -1.9580199,1.98282 v 0.002 H 0.52606444 v -3.83646 -0.0263 h 0.00156 c 0.014155,-1.08697 0.89236736,-1.95802 1.98281396,-1.95802 z"
         id="rect1185-6" />
      <path
         inkscape:connector-curvature="0"
         style="opacity:1;fill:#f78f8f;fill-opacity:1;stroke:none;stroke-width:0.1186769;stroke-linecap:round;stroke-linejoin:round;stroke-miterlimit:4;stroke-dasharray:none;stroke-opacity:1;paint-order:fill markers stroke"
         d="m 2.5104397,284.56456 c 0.9527637,0 1.7197916,0.76703 1.7197916,1.7198 0,0.047 -0.00307,0.093 -0.00672,0.139 0.045999,-0.003 0.092038,-0.007 0.1390098,-0.007 0.9527644,0 1.7197914,0.76703 1.7197914,1.71979 0,0.95277 -0.767027,1.71979 -1.7197914,1.71979 -0.00891,0 -0.017478,-0.002 -0.026358,-0.002 v 0.002 H 0.79064564 v -3.54552 h 0.00156 c -1.444e-4,-0.009 -0.00156,-0.0174 -0.00156,-0.0263 0,-0.95276 0.76702786,-1.71979 1.71979166,-1.71979 z"
         id="rect1185-7-1" />
      <path
         inkscape:connector-curvature="0"
         style="opacity:1;fill:#287bc2;fill-opacity:1;stroke:none;stroke-width:0.13693488;stroke-linecap:round;stroke-linejoin:round;stroke-miterlimit:4;stroke-dasharray:none;stroke-opacity:1;paint-order:fill markers stroke"
         d="m -1.4552092,295.94166 c -1.0567963,0 -1.9132854,-0.8184 -1.9781739,-1.85829 -1.0398831,-0.0649 -1.8582844,-0.92138 -1.8582844,-1.97817 0,-1.09045 0.8710589,-1.96866 1.9580204,-1.98283 v -0.002 h 3.86281324 v 3.83647 0.0264 h -0.00156 c -0.014155,1.08695 -0.8923677,1.95802 -1.98281434,1.95802 z"
         id="rect1185-5" />
      <path
         inkscape:connector-curvature="0"
         style="opacity:1;fill:#78c1ff;fill-opacity:1;stroke:none;stroke-width:0.1186769;stroke-linecap:round;stroke-linejoin:round;stroke-miterlimit:4;stroke-dasharray:none;stroke-opacity:1;paint-order:fill markers stroke"
         d="m -1.4552092,295.67707 c -0.9527638,0 -1.7197916,-0.76702 -1.7197916,-1.71979 0,-0.047 0.00307,-0.093 0.00672,-0.13901 -0.045999,0.003 -0.092038,0.007 -0.1390097,0.007 -0.9527638,0 -1.7197919,-0.76702 -1.7197919,-1.71979 0,-0.95276 0.7670281,-1.71979 1.7197919,-1.71979 0.00891,0 0.017478,0.002 0.026358,0.002 v -0.002 h 3.54551834 v 3.54552 h -0.00156 c 1.444e-4,0.009 0.00156,0.0174 0.00156,0.0263 0,0.95277 -0.7670279,1.7198 -1.71979174,1.7198 z"
         id="rect1185-7-5" />
      <path
         inkscape:connector-curvature="0"
         style="opacity:1;fill:#ffb851;fill-opacity:0.96078431;stroke:none;stroke-width:0.13693488;stroke-linecap:round;stroke-linejoin:round;stroke-miterlimit:4;stroke-dasharray:none;stroke-opacity:1;paint-order:fill markers stroke"
         d="m 2.5104389,295.94167 c 1.0567963,0 1.9132849,-0.81841 1.9781739,-1.85829 1.0398827,-0.0649 1.8582847,-0.92138 1.8582847,-1.97817 0,-1.09045 -0.871059,-1.96866 -1.9580204,-1.98283 v -0.002 H 0.52606364 v 3.83646 0.0263 h 0.00156 c 0.014155,1.08696 0.89236706,1.95802 1.98281366,1.95802 z"
         id="rect1185-6-4" />
      <path
         inkscape:connector-curvature="0"
         style="opacity:1;fill:#ffeea3;fill-opacity:1;stroke:none;stroke-width:0.1186769;stroke-linecap:round;stroke-linejoin:round;stroke-miterlimit:4;stroke-dasharray:none;stroke-opacity:1;paint-order:fill markers stroke"
         d="m 2.5104389,295.67708 c 0.9527637,0 1.7197916,-0.76703 1.7197916,-1.71979 0,-0.047 -0.00307,-0.093 -0.00672,-0.13901 0.045999,0.003 0.092038,0.007 0.1390097,0.007 0.9527633,0 1.7197913,-0.76703 1.7197913,-1.71979 0,-0.95276 -0.767028,-1.71979 -1.7197913,-1.71979 -0.00891,0 -0.017478,0.002 -0.026358,0.002 v -0.002 H 0.79064804 v 3.54552 h 0.00156 c -1.447e-4,0.009 -0.00156,0.0174 -0.00156,0.0263 0,0.95277 0.76702806,1.71979 1.71979166,1.71979 z"
         id="rect1185-7-1-7" />
    </g>
  </g>
</svg>
