<?xml version="1.0" encoding="UTF-8" standalone="no"?>
<!-- Created with Inkscape (http://www.inkscape.org/) -->

<svg
   xmlns:dc="http://purl.org/dc/elements/1.1/"
   xmlns:cc="http://creativecommons.org/ns#"
   xmlns:rdf="http://www.w3.org/1999/02/22-rdf-syntax-ns#"
   xmlns:svg="http://www.w3.org/2000/svg"
   xmlns="http://www.w3.org/2000/svg"
   xmlns:sodipodi="http://sodipodi.sourceforge.net/DTD/sodipodi-0.dtd"
   xmlns:inkscape="http://www.inkscape.org/namespaces/inkscape"
   width="48"
   height="48"
   viewBox="0 0 48 48"
   version="1.1"
   id="svg8"
   inkscape:version="0.92.4 5da689c313, 2019-01-14"
   sodipodi:docname="preferences-desktop-gestures-screenedges.svg">
  <title
     id="title7895">Antu icon Theme</title>
  <defs
     id="defs2">
    <style
       type="text/css"
       id="current-color-scheme">
      .ColorScheme-Text {
        color:#36404d;
      }
      </style>
    <style
       id="current-color-scheme-6"
       type="text/css">
      .ColorScheme-Text {
        color:#36404d;
      }
      </style>
  </defs>
  <sodipodi:namedview
     id="base"
     pagecolor="#ffffff"
     bordercolor="#666666"
     borderopacity="1.0"
     inkscape:pageopacity="0.0"
     inkscape:pageshadow="2"
     inkscape:zoom="11.313708"
     inkscape:cx="42.14434"
     inkscape:cy="19.127704"
     inkscape:document-units="px"
     inkscape:current-layer="layer1"
     showgrid="true"
     units="px"
     inkscape:window-width="1920"
     inkscape:window-height="999"
     inkscape:window-x="0"
     inkscape:window-y="0"
     inkscape:window-maximized="1"
     objecttolerance="10"
     gridtolerance="10"
     guidetolerance="10"
     inkscape:snap-bbox="true"
     inkscape:bbox-paths="true"
     inkscape:bbox-nodes="true"
     inkscape:snap-bbox-edge-midpoints="true"
     inkscape:snap-bbox-midpoints="true"
     inkscape:object-paths="true"
     inkscape:snap-intersection-paths="true">
    <inkscape:grid
       type="xygrid"
       id="grid7897"
       empspacing="4" />
  </sodipodi:namedview>
  <metadata
     id="metadata5">
    <rdf:RDF>
      <cc:Work
         rdf:about="">
        <dc:format>image/svg+xml</dc:format>
        <dc:type
           rdf:resource="http://purl.org/dc/dcmitype/StillImage" />
        <dc:title>Antu icon Theme</dc:title>
      </cc:Work>
    </rdf:RDF>
  </metadata>
  <g
     inkscape:label="Capa 1"
     inkscape:groupmode="layer"
     id="layer1"
     transform="translate(0,-266.64999)">
    <g
       id="layer1-7"
       inkscape:label="Capa 1">
      <g
         transform="translate(35.071428,-3.99999)"
         id="g8335">
        <path
           style="opacity:1;fill:#4a73c6;fill-opacity:1;stroke:none;stroke-width:0.99999994;stroke-opacity:1"
           d="m -33.071417,273.65 h 17.975774 5.024239 21.000002 c 1.107968,0 1.999975,0.89197 1.999975,1.99997 v 37.99998 c 0,1.10801 -0.892007,2.00001 -2.000013,2.00001 h -43.999977 c -1.108006,0 -2.000012,-0.892 -2.000012,-2.00001 v -37.99998 c 0,-1.108 0.892006,-1.99997 2.000012,-1.99997 z"
           id="rect9183-4-4"
           inkscape:connector-curvature="0"
           sodipodi:nodetypes="sccssssssss" />
        <path
           style="opacity:0.98999999;fill:#5ca5ff;fill-opacity:1;stroke:none;stroke-width:0.99999994;stroke-opacity:1"
           d="M 12 4 A 11 11 0 0 1 11.945312 5.0976562 A 11 11 0 0 1 11.78125 6.1855469 A 11 11 0 0 1 11.507812 7.25 A 11 11 0 0 1 11.130859 8.2832031 A 11 11 0 0 1 10.654297 9.2734375 A 11 11 0 0 1 10.078125 10.210938 A 11 11 0 0 1 9.4140625 11.085938 A 11 11 0 0 1 8.6640625 11.890625 A 11 11 0 0 1 7.8378906 12.617188 A 11 11 0 0 1 6.9433594 13.255859 A 11 11 0 0 1 5.9902344 13.802734 A 11 11 0 0 1 4.9863281 14.251953 A 11 11 0 0 1 3.9433594 14.599609 A 11 11 0 0 1 2.8691406 14.839844 A 11 11 0 0 1 1.7773438 14.972656 A 11 11 0 0 1 1 15 L 1 38 L 37.792969 38 A 11 11 0 0 1 37.921875 37.789062 A 11 11 0 0 1 38.585938 36.914062 A 11 11 0 0 1 39.335938 36.109375 A 11 11 0 0 1 40.162109 35.382812 A 11 11 0 0 1 41.056641 34.744141 A 11 11 0 0 1 42.009766 34.197266 A 11 11 0 0 1 43.013672 33.748047 A 11 11 0 0 1 44.056641 33.400391 A 11 11 0 0 1 45.130859 33.160156 A 11 11 0 0 1 46.222656 33.027344 A 11 11 0 0 1 47 33 L 47 5 C 47 4.44604 46.554003 4 46 4 L 24 4 L 20 4 L 12 4 z "
           id="path931"
           transform="translate(-35.071428,270.64998)" />
        <path
           style="opacity:0.98999999;fill:#ebf2fa;fill-opacity:1;stroke:none;stroke-width:0.30000001;stroke-miterlimit:4;stroke-dasharray:none;stroke-opacity:1"
           d="M 2 4 C 1.4460021 4 1 4.4460021 1 5 L 1 13 L 1 14 A 10 10 0 0 0 1.7070312 13.974609 A 10 10 0 0 0 2.6992188 13.855469 A 10 10 0 0 0 3.6757812 13.634766 A 10 10 0 0 0 4.6230469 13.320312 A 10 10 0 0 0 5.5351562 12.912109 A 10 10 0 0 0 6.4023438 12.414062 A 10 10 0 0 0 7.2167969 11.833984 A 10 10 0 0 0 7.9667969 11.173828 A 10 10 0 0 0 8.6484375 10.441406 A 10 10 0 0 0 9.2539062 9.6464844 A 10 10 0 0 0 9.7753906 8.7949219 A 10 10 0 0 0 10.210938 7.8945312 A 10 10 0 0 0 10.552734 6.9550781 A 10 10 0 0 0 10.800781 5.9863281 A 10 10 0 0 0 10.949219 4.9980469 A 10 10 0 0 0 11 4 L 10 4 L 9 4 L 2 4 z M 47 34 A 10 10 0 0 0 46.292969 34.025391 A 10 10 0 0 0 45.300781 34.144531 A 10 10 0 0 0 44.324219 34.365234 A 10 10 0 0 0 43.376953 34.679688 A 10 10 0 0 0 42.464844 35.087891 A 10 10 0 0 0 41.597656 35.585938 A 10 10 0 0 0 40.783203 36.166016 A 10 10 0 0 0 40.033203 36.826172 A 10 10 0 0 0 39.351562 37.558594 A 10 10 0 0 0 38.746094 38.353516 A 10 10 0 0 0 38.224609 39.205078 A 10 10 0 0 0 37.789062 40.105469 A 10 10 0 0 0 37.447266 41.044922 A 10 10 0 0 0 37.199219 42.013672 A 10 10 0 0 0 37.050781 43.001953 A 10 10 0 0 0 37 44 L 38 44 L 39 44 L 46 44 C 46.553998 44 47.000001 43.554 47 43 L 47 35 L 47 34 z M 1 38 L 1 40 L 1 42 L 1 43 C 1 43.554 1.446001 44 2 44 L 36 44 A 11 11 0 0 1 36.054688 42.902344 A 11 11 0 0 1 36.21875 41.814453 A 11 11 0 0 1 36.492188 40.75 A 11 11 0 0 1 36.869141 39.716797 A 11 11 0 0 1 37.345703 38.726562 A 11 11 0 0 1 37.792969 38 L 2 38 L 1 38 z "
           transform="translate(-35.071428,270.64998)"
           id="path957" />
        <path
           style="opacity:0.98999999;fill:#ebf2fa;fill-opacity:1;stroke:none;stroke-width:0.30000001;stroke-miterlimit:4;stroke-dasharray:none;stroke-opacity:1"
           d="M 20 25 C 17.784001 25 16 26.784 16 29 C 16 31.216 17.784001 33 20 33 C 22.216001 33 24 31.216 24 29 C 24 26.78399 22.216001 25 20 25 z "
           id="path953"
           transform="translate(-35.071428,270.64998)" />
        <path
           style="opacity:0.98999999;fill:#ebf2fa;fill-opacity:1;stroke:none;stroke-width:0.30000001;stroke-miterlimit:4;stroke-dasharray:none;stroke-opacity:1"
           d="M 16 18 C 14.338006 18 13 19.338 13 21 C 13 22.66198 14.338006 24 16 24 C 17.661995 24 19 22.66198 19 21 C 19 19.338 17.661995 18 16 18 z "
           id="path951"
           transform="translate(-35.071428,270.64998)" />
        <path
           style="opacity:0.98999999;fill:#ebf2fa;fill-opacity:1;stroke:none;stroke-width:0.30000001;stroke-miterlimit:4;stroke-dasharray:none;stroke-opacity:1"
           d="M 18 12 C 16.891999 12 16 12.89199 16 14 C 16 15.108 16.891999 16 18 16 C 19.108 16 20 15.108 20 14 C 20 12.89199 19.108 12 18 12 z "
           id="path949"
           transform="translate(-35.071428,270.64998)" />
        <path
           style="opacity:0.98999999;fill:#ebf2fa;fill-opacity:1;stroke:none;stroke-width:0.30000001;stroke-miterlimit:4;stroke-dasharray:none;stroke-opacity:1"
           d="M 26.986328 10 A 1.0001 1.0001 0 0 0 26.292969 10.292969 L 24.292969 12.292969 A 1.0001 1.0001 0 0 0 24.292969 13.707031 L 28.585938 18 L 24.292969 22.292969 A 1.0001 1.0001 0 0 0 24.292969 23.707031 L 26.292969 25.707031 A 1.0001 1.0001 0 0 0 27.707031 25.707031 L 34.707031 18.707031 A 1.0001 1.0001 0 0 0 34.707031 17.292969 L 27.707031 10.292969 A 1.0001 1.0001 0 0 0 26.986328 10 z "
           id="rect4523"
           transform="translate(-35.071428,270.64998)" />
      </g>
    </g>
  </g>
</svg>
