<?xml version="1.0" encoding="UTF-8" standalone="no"?>
<!-- Created with Inkscape (http://www.inkscape.org/) -->

<svg
   xmlns:dc="http://purl.org/dc/elements/1.1/"
   xmlns:cc="http://creativecommons.org/ns#"
   xmlns:rdf="http://www.w3.org/1999/02/22-rdf-syntax-ns#"
   xmlns:svg="http://www.w3.org/2000/svg"
   xmlns="http://www.w3.org/2000/svg"
   xmlns:sodipodi="http://sodipodi.sourceforge.net/DTD/sodipodi-0.dtd"
   xmlns:inkscape="http://www.inkscape.org/namespaces/inkscape"
   width="48"
   height="48"
   viewBox="0 0 12.7 12.7"
   version="1.1"
   id="svg1399"
   inkscape:version="0.92.4 5da689c313, 2019-01-14"
   sodipodi:docname="preferences-system-network-server-boot.svg">
  <defs
     id="defs1393">
    <style
       id="current-color-scheme"
       type="text/css">
      .ColorScheme-Text {
        color:#36404d;
      }
      </style>
    <style
       type="text/css"
       id="current-color-scheme-3">
      .ColorScheme-Text {
        color:#122036;
      }
      </style>
    <style
       id="current-color-scheme-5"
       type="text/css">
      .ColorScheme-Text {
        color:#122036;
      }
      </style>
    <style
       id="current-color-scheme-2"
       type="text/css">
      .ColorScheme-Text {
        color:#122036;
      }
      </style>
    <style
       id="current-color-scheme-1"
       type="text/css">
      .ColorScheme-Text {
        color:#122036;
      }
      </style>
    <style
       type="text/css"
       id="current-color-scheme-10">
      .ColorScheme-Text {
        color:#122036;
      }
      </style>
    <style
       id="current-color-scheme-0"
       type="text/css">
      .ColorScheme-Text {
        color:#122036;
      }
      </style>
    <style
       id="current-color-scheme-26"
       type="text/css">
      .ColorScheme-Text {
        color:#122036;
      }
      </style>
  </defs>
  <sodipodi:namedview
     id="base"
     pagecolor="#ffffff"
     bordercolor="#666666"
     borderopacity="1.0"
     inkscape:pageopacity="0.0"
     inkscape:pageshadow="2"
     inkscape:zoom="11.2"
     inkscape:cx="-22.837959"
     inkscape:cy="6.0351604"
     inkscape:document-units="px"
     inkscape:current-layer="layer1"
     showgrid="false"
     inkscape:showpageshadow="false"
     units="px"
     inkscape:window-width="1920"
     inkscape:window-height="999"
     inkscape:window-x="0"
     inkscape:window-y="0"
     inkscape:window-maximized="1" />
  <metadata
     id="metadata1396">
    <rdf:RDF>
      <cc:Work
         rdf:about="">
        <dc:format>image/svg+xml</dc:format>
        <dc:type
           rdf:resource="http://purl.org/dc/dcmitype/StillImage" />
        <dc:title />
      </cc:Work>
    </rdf:RDF>
  </metadata>
  <g
     inkscape:label="Capa 1"
     inkscape:groupmode="layer"
     id="layer1"
     transform="translate(0,-284.30005)">
    <g
       id="g2585"
       transform="translate(19.643974,0.89699)">
      <path
         inkscape:connector-curvature="0"
         id="rect4544-5-5-9-9"
         d="m -13.293976,283.93221 h 7e-6 c 3.22474,0 5.8208295,2.59609 5.8208295,5.82083 0,3.22474 -2.5960895,5.82083 -5.8208295,5.82083 h -7e-6 c -3.224741,0 -5.820831,-2.59609 -5.820831,-5.82083 0,-3.22474 2.59609,-5.82083 5.820831,-5.82083 z"
         style="opacity:1;fill:#4972c5;fill-opacity:1;stroke:none;stroke-width:0.08315477;stroke-miterlimit:4;stroke-dasharray:none;stroke-opacity:1" />
      <path
         inkscape:connector-curvature="0"
         id="rect4544-5-5-9"
         d="m -13.293973,284.1968 h 6e-6 c 3.078162,0 5.5562475,2.47808 5.5562475,5.55624 0,3.07817 -2.4780855,5.55625 -5.5562475,5.55625 h -6e-6 c -3.078161,0 -5.556247,-2.47808 -5.556247,-5.55625 0,-3.07816 2.478086,-5.55624 5.556247,-5.55624 z"
         style="opacity:1;fill:#5ca5ff;fill-opacity:1;stroke:none;stroke-width:0.07937501;stroke-miterlimit:4;stroke-dasharray:none;stroke-opacity:1" />
      <path
         id="path1818"
         d="m -12.905366,284.23607 c -0.115687,-0.008 -0.226071,-0.0337 -0.343648,-0.0346 -0.287528,0.27023 -0.609117,0.53952 -0.847494,0.8108 -0.03913,-0.0128 -0.07997,-0.0217 -0.123506,-0.0217 -0.219869,0 -0.396876,0.17701 -0.396876,0.39688 0,0.072 0.02052,0.13829 0.05374,0.19637 -0.524214,0.69199 -0.896843,1.38209 -1.147216,2.06241 -0.03191,-0.005 -0.0639,-0.01 -0.09715,-0.01 -0.227306,0 -0.426731,0.11366 -0.545703,0.28732 -0.532403,-0.25434 -1.089131,-0.63791 -1.655713,-1.08831 -0.04684,0.0757 -0.08389,0.15752 -0.127124,0.23565 0.571771,0.44978 1.136202,0.83521 1.680517,1.09347 -0.0087,0.043 -0.01344,0.0877 -0.01344,0.13333 0,0.2836 0.177599,0.52262 0.427364,0.61701 -0.09328,0.59801 -0.09889,1.18305 -0.02946,1.74718 0.03408,0.27692 0.08531,0.54891 0.151413,0.81494 -0.644355,0.30451 -1.32511,0.7652 -2.025717,1.31103 0.01569,0.0241 0.02529,0.0522 0.04134,0.076 0.03332,0.0494 0.07831,0.0892 0.113171,0.13746 0.675481,-0.52729 1.328976,-0.972 1.943035,-1.26659 0.190184,0.65941 0.470818,1.27984 0.806152,1.85208 -0.06437,0.0705 -0.104386,0.16374 -0.104386,0.26717 0,0.21986 0.177006,0.39687 0.396875,0.39687 0.04353,0 0.08437,-0.009 0.123507,-0.0217 0.261891,0.37336 0.545587,0.71268 0.836641,1.03043 0.155878,0.0139 0.306205,0.0457 0.465604,0.0465 -0.376441,-0.38145 -0.758725,-0.76295 -1.091406,-1.2392 0.03914,-0.0615 0.06253,-0.13427 0.06253,-0.2129 0,-0.21987 -0.177006,-0.39688 -0.396875,-0.39688 -0.01915,0 -0.0374,0.003 -0.05581,0.006 -0.334589,-0.56933 -0.613774,-1.18594 -0.798918,-1.83968 0.725535,-0.31807 1.411071,-0.48231 2.065508,-0.52451 0.06964,0.29085 0.328507,0.50643 0.641304,0.50643 0.286489,0 0.527271,-0.18132 0.619601,-0.43512 0.470038,0.0852 0.926442,0.23173 1.372009,0.4315 -0.243736,1.03308 -0.109779,2.13247 0.258382,3.01274 0.07813,-0.0425 0.158825,-0.0805 0.234611,-0.12661 -0.328904,-0.80814 -0.457224,-1.82478 -0.24908,-2.76986 0.645924,0.3194 1.2657389,0.76996 1.8774045,1.26814 0.03075,-0.0429 0.07071,-0.0782 0.100252,-0.12195 0.01996,-0.0296 0.03176,-0.0646 0.05116,-0.0946 -0.6339649,-0.51521 -1.2800361,-0.98303 -1.9611205,-1.31362 0.131846,-0.45204 0.344579,-0.88061 0.6521565,-1.25832 0.1063291,0.0527 0.2247669,0.0848 0.3519164,0.0848 0.041133,0 0.080476,-0.006 0.1198894,-0.0119 0.00132,0.002 0.0023,0.004 0.00362,0.006 0.3111611,0.43562 0.8284852,0.79503 1.4603762,1.10381 0.0254,-0.083 0.0549,-0.16392 0.07648,-0.24857 -0.549106,-0.27412 -0.999977,-0.58483 -1.2764081,-0.95136 0.2436851,-0.1352 0.4097951,-0.39192 0.4097951,-0.69143 0,-0.0647 -0.0098,-0.12643 -0.02429,-0.18655 0.290318,-0.14824 0.633464,-0.25781 1.002523,-0.34727 -0.01242,-0.0863 -0.01004,-0.17708 -0.02635,-0.262 -0.394354,0.0944 -0.762576,0.21137 -1.07642,0.37156 -0.140469,-0.22178 -0.3861797,-0.36949 -0.6692096,-0.36949 -0.059912,0 -0.1175819,0.008 -0.1736328,0.0202 -0.014822,-0.13814 -0.024805,-0.27718 -0.024805,-0.41702 0,-0.87413 0.2637994,-1.68707 0.5183145,-2.36678 -0.032951,-0.0347 -0.057631,-0.0768 -0.091466,-0.11059 -0.055394,-0.0554 -0.1236888,-0.0963 -0.1813843,-0.14935 -0.6247313,1.15233 -1.6802063,2.20697 -3.0628623,2.6324 -0.761314,0.23425 -1.61766,0.27932 -2.546098,0.0532 0.0017,-0.0197 0.0057,-0.0388 0.0057,-0.0589 0,-0.24102 -0.128766,-0.44923 -0.320394,-0.56483 0.238831,-0.64977 0.595477,-1.31104 1.099675,-1.97714 0.04549,0.0181 0.09468,0.0284 0.146761,0.0284 0.219869,0 0.396875,-0.177 0.396875,-0.39687 0,-0.0797 -0.02393,-0.15343 -0.06408,-0.21549 0.275731,-0.31165 0.637311,-0.62378 0.981852,-0.93586 z m 3.1264245,2.33629 c -0.1540293,0.53435 -0.2733685,1.12569 -0.2733685,1.72548 0,0.17396 0.01463,0.34833 0.03721,0.52193 -0.221231,0.14057 -0.368453,0.38607 -0.368453,0.66869 0,0.21882 0.0877,0.41635 0.22996,0.55966 -0.317921,0.39127 -0.541729,0.83247 -0.682128,1.29501 -0.453851,-0.20021 -0.920645,-0.3483 -1.403533,-0.43512 -0.01876,-0.3494 -0.303597,-0.6258 -0.657841,-0.6258 -0.329134,0 -0.598727,0.23844 -0.650606,0.55242 -0.677328,0.0435 -1.383561,0.21185 -2.124935,0.53227 -0.05845,-0.24156 -0.105144,-0.48694 -0.135909,-0.73691 -0.0665,-0.54033 -0.06047,-1.10031 0.02739,-1.67328 0.242379,-0.01 0.448493,-0.14795 0.555523,-0.34933 0.978638,0.24132 1.888468,0.19845 2.698026,-0.0506 1.142958,-0.35168 2.080747,-1.09816 2.7486692,-1.98438 z"
         style="opacity:1;vector-effect:none;fill:#e6f9ff;fill-opacity:1;stroke:none;stroke-width:0.26458332;stroke-linecap:round;stroke-linejoin:round;stroke-miterlimit:4;stroke-dasharray:none;stroke-dashoffset:0;stroke-opacity:1"
         inkscape:connector-curvature="0" />
      <path
         id="rect4496-2-5"
         d="m -10.912723,288.16558 c 2.1986885,0 3.9687505,1.77002 3.9687505,3.96873 0,2.19867 -1.770062,3.96875 -3.9687505,3.96875 -2.198687,0 -3.968749,-1.77008 -3.968749,-3.96875 0,-2.19871 1.770062,-3.96873 3.968749,-3.96873 z"
         style="fill:#353f4c;fill-opacity:0.99607843;stroke:none;stroke-width:0.38884729;stroke-linecap:round;stroke-linejoin:round;stroke-miterlimit:4;stroke-dasharray:none;stroke-opacity:1"
         inkscape:connector-curvature="0" />
      <path
         id="rect4570-9-6-3-6"
         d="m -10.912723,288.43015 c 2.0521085,0 3.7041675,1.65204 3.7041675,3.70416 0,2.05212 -1.652059,3.70419 -3.7041675,3.70419 -2.052108,0 -3.704166,-1.65207 -3.704166,-3.70419 0,-2.05212 1.652058,-3.70416 3.704166,-3.70416 z"
         style="fill:#4b6477;fill-opacity:1;stroke:none;stroke-width:0.37100008;stroke-linecap:round;stroke-linejoin:round;stroke-miterlimit:4;stroke-dasharray:none;stroke-opacity:1"
         inkscape:connector-curvature="0" />
      <path
         inkscape:connector-curvature="0"
         id="path18776-9-9"
         d="m -11.44189,288.69473 v 2.38125 h 1.058333 v -2.38125 z m 1.322917,0.64027 v 0.83871 a 2.1166667,2.1166667 0 0 1 1.3229165,1.9606 2.1166667,2.1166667 0 0 1 -2.1166665,2.11667 2.1166667,2.1166667 0 0 1 -2.116667,-2.11667 2.1166667,2.1166667 0 0 1 1.322917,-1.96112 v -0.83612 a 2.9104167,2.9104167 0 0 0 -2.116667,2.79724 2.9104167,2.9104167 0 0 0 2.910417,2.91042 2.9104167,2.9104167 0 0 0 2.9104165,-2.91042 2.9104167,2.9104167 0 0 0 -2.1166665,-2.79931 z"
         style="opacity:1;vector-effect:none;fill:#e1ebf2;fill-opacity:1;stroke:none;stroke-width:0.54161936;stroke-linecap:round;stroke-linejoin:round;stroke-miterlimit:4;stroke-dasharray:none;stroke-dashoffset:0;stroke-opacity:1;paint-order:markers stroke fill" />
    </g>
  </g>
</svg>
