<?xml version="1.0" encoding="UTF-8" standalone="no"?>
<!-- Created with Inkscape (http://www.inkscape.org/) -->

<svg
   xmlns:dc="http://purl.org/dc/elements/1.1/"
   xmlns:cc="http://creativecommons.org/ns#"
   xmlns:rdf="http://www.w3.org/1999/02/22-rdf-syntax-ns#"
   xmlns:svg="http://www.w3.org/2000/svg"
   xmlns="http://www.w3.org/2000/svg"
   xmlns:sodipodi="http://sodipodi.sourceforge.net/DTD/sodipodi-0.dtd"
   xmlns:inkscape="http://www.inkscape.org/namespaces/inkscape"
   width="48"
   height="48"
   viewBox="0 0 48 48"
   version="1.1"
   id="svg8"
   inkscape:version="0.92.4 5da689c313, 2019-01-14"
   sodipodi:docname="preferences-system-backup.svg">
  <title
     id="title7895">Antu icon Theme</title>
  <defs
     id="defs2">
    <style
       id="current-color-scheme"
       type="text/css">
      .ColorScheme-Text {
        color:#122036;
      }
      </style>
    <style
       type="text/css"
       id="current-color-scheme-5">
      .ColorScheme-Text {
        color:#122036;
      }
      </style>
    <style
       type="text/css"
       id="current-color-scheme-53">
      .ColorScheme-Text {
        color:#122036;
      }
      </style>
    <style
       type="text/css"
       id="current-color-scheme-535">
      .ColorScheme-Text {
        color:#122036;
      }
      </style>
    <style
       id="current-color-scheme-5-6"
       type="text/css">
      .ColorScheme-Text {
        color:#122036;
      }
      </style>
    <style
       type="text/css"
       id="current-color-scheme-6">
      .ColorScheme-Text {
        color:#122036;
      }
      </style>
    <style
       id="current-color-scheme-53-2"
       type="text/css">
      .ColorScheme-Text {
        color:#122036;
      }
      </style>
    <style
       type="text/css"
       id="current-color-scheme-5-7">
      .ColorScheme-Text {
        color:#122036;
      }
      </style>
    <style
       type="text/css"
       id="current-color-scheme-2">
      .ColorScheme-Text {
        color:#122036;
      }
      </style>
    <style
       type="text/css"
       id="current-color-scheme-1">
      .ColorScheme-Text {
        color:#122036;
      }
      </style>
    <style
       id="current-color-scheme-10"
       type="text/css">
      .ColorScheme-Text {
        color:#122036;
      }
      </style>
    <style
       type="text/css"
       id="current-color-scheme-0">
      .ColorScheme-Text {
        color:#122036;
      }
      </style>
    <style
       id="current-color-scheme-29"
       type="text/css">
      .ColorScheme-Text {
        color:#122036;
      }
      </style>
    <style
       type="text/css"
       id="current-color-scheme-5-1">
      .ColorScheme-Text {
        color:#122036;
      }
      </style>
    <style
       id="current-color-scheme-70"
       type="text/css">
      .ColorScheme-Text {
        color:#122036;
      }
      </style>
    <style
       type="text/css"
       id="current-color-scheme-5-9">
      .ColorScheme-Text {
        color:#122036;
      }
      </style>
    <style
       type="text/css"
       id="current-color-scheme-2-2">
      .ColorScheme-Text {
        color:#122036;
      }
      </style>
    <style
       type="text/css"
       id="current-color-scheme-1-7">
      .ColorScheme-Text {
        color:#122036;
      }
      </style>
    <style
       id="current-color-scheme-10-0"
       type="text/css">
      .ColorScheme-Text {
        color:#122036;
      }
      </style>
    <style
       type="text/css"
       id="current-color-scheme-0-9">
      .ColorScheme-Text {
        color:#122036;
      }
      </style>
    <style
       type="text/css"
       id="current-color-scheme-26">
      .ColorScheme-Text {
        color:#122036;
      }
      </style>
    <style
       type="text/css"
       id="current-color-scheme-7">
      .ColorScheme-Text {
        color:#122036;
      }
      </style>
  </defs>
  <sodipodi:namedview
     id="base"
     pagecolor="#ffffff"
     bordercolor="#666666"
     borderopacity="1.0"
     inkscape:pageopacity="0.0"
     inkscape:pageshadow="2"
     inkscape:zoom="5.6568545"
     inkscape:cx="75.15342"
     inkscape:cy="-19.666507"
     inkscape:document-units="px"
     inkscape:current-layer="g6532"
     showgrid="true"
     units="px"
     inkscape:window-width="1920"
     inkscape:window-height="999"
     inkscape:window-x="0"
     inkscape:window-y="0"
     inkscape:window-maximized="1"
     objecttolerance="10"
     gridtolerance="10"
     guidetolerance="10"
     inkscape:snap-bbox="true"
     inkscape:bbox-paths="true"
     inkscape:bbox-nodes="true"
     inkscape:snap-bbox-edge-midpoints="true"
     inkscape:snap-bbox-midpoints="true"
     inkscape:object-paths="true"
     inkscape:snap-intersection-paths="true">
    <inkscape:grid
       type="xygrid"
       id="grid7897"
       empspacing="4" />
  </sodipodi:namedview>
  <metadata
     id="metadata5">
    <rdf:RDF>
      <cc:Work
         rdf:about="">
        <dc:format>image/svg+xml</dc:format>
        <dc:type
           rdf:resource="http://purl.org/dc/dcmitype/StillImage" />
        <dc:title>Antu icon Theme</dc:title>
      </cc:Work>
    </rdf:RDF>
  </metadata>
  <g
     inkscape:label="Capa 1"
     inkscape:groupmode="layer"
     id="layer1"
     transform="translate(0,-266.64999)">
    <g
       id="g6532"
       transform="translate(38,13)">
      <path
         style="opacity:1;fill:#36404d;fill-opacity:1;stroke:none;stroke-width:2;stroke-linecap:round;stroke-linejoin:round;stroke-miterlimit:4;stroke-dasharray:none;stroke-opacity:1"
         d="m -33,290.64999 v 2 1 3 c 0,1.108 0.892,2 2,2 H 3 c 1.108,0 2,-0.892 2,-2 v -3 -1 -2 H 3 -31 Z"
         id="rect979-6"
         inkscape:connector-curvature="0"
         sodipodi:nodetypes="cccsssscccccc" />
      <path
         inkscape:connector-curvature="0"
         style="opacity:1;fill:#4b6477;fill-opacity:1;stroke:none;stroke-width:2;stroke-linecap:round;stroke-linejoin:round;stroke-miterlimit:4;stroke-dasharray:none;stroke-opacity:1"
         d="m -32,290.64999 v 1 3 2 c 0,0.554 0.446,1 1,1 h 1 v -2 c 0,-0.277 0.112218,-0.52628 0.292968,-0.70704 0.18075,-0.18075 0.430032,-0.29296 0.707032,-0.29296 h 26 c 0.277,0 0.526281,0.11221 0.707031,0.29296 C -2.112219,295.12371 -2,295.37299 -2,295.64999 v 2 h 5 c 0.554,0 1,-0.446 1,-1 v -2 -3 -1 H 3 -31 Z"
         id="rect981-0" />
      <path
         style="opacity:1;fill:#a7bbcf;fill-opacity:1;stroke:none;stroke-width:2;stroke-linecap:round;stroke-linejoin:round;stroke-miterlimit:4;stroke-dasharray:none;stroke-opacity:1"
         d="M -30,256.64999 H 2 c 1.662,0 3,1.338 3,3 v 31 c 0,1.662 -1.338,3 -3,3 h -32 c -1.662,0 -3,-1.338 -3,-3 v -31 c 0,-1.662 1.338,-3 3,-3 z"
         id="rect975-6"
         inkscape:connector-curvature="0"
         sodipodi:nodetypes="sssssssss" />
      <path
         style="opacity:1;fill:#e1ebf2;fill-opacity:1;stroke:none;stroke-width:2;stroke-linecap:round;stroke-linejoin:round;stroke-miterlimit:4;stroke-dasharray:none;stroke-opacity:1"
         d="m -30,257.64999 c -1.108,0 -2,0.892 -2,2 v 31 c 0,1.108 0.892,2 2,2 H 2 c 1.108,0 2,-0.892 2,-2 v -31 c 0,-1.108 -0.892,-2 -2,-2 z"
         id="rect977-2"
         inkscape:connector-curvature="0"
         sodipodi:nodetypes="sssssssss" />
      <path
         style="opacity:1;fill:#52d089;fill-opacity:1;stroke:none;stroke-width:2;stroke-linecap:round;stroke-linejoin:round;stroke-miterlimit:4;stroke-dasharray:none;stroke-opacity:1"
         d="m 0,294.64999 h 1.022098 c 0.547879,0 0.988951,0.44108 0.988951,0.98896 v 0.0221 c 0,0.54788 -0.441072,0.98894 -0.988951,0.98894 H 0 c -0.547879,0 -0.988951,-0.44106 -0.988951,-0.98895 v -0.0221 c 0,-0.54788 0.441072,-0.98896 0.988951,-0.98895 z"
         id="rect885-9"
         inkscape:connector-curvature="0" />
      <path
         style="opacity:1;fill:#4b6477;fill-opacity:1;stroke:none;stroke-width:2;stroke-linecap:round;stroke-linejoin:round;stroke-miterlimit:4;stroke-dasharray:none;stroke-opacity:1"
         d="m -29,295.64999 v 2 h 1 v -1 h 1 15 v 1 h 1 v -1 -1 h -1 -15 -1 z"
         id="rect1029"
         inkscape:connector-curvature="0" />
      <path
         inkscape:connector-curvature="0"
         style="opacity:1;fill:#4b6477;fill-opacity:1;stroke:none;stroke-width:2;stroke-linecap:round;stroke-linejoin:round;stroke-miterlimit:4;stroke-dasharray:none;stroke-opacity:1"
         d="m -10,295.64999 v 1 1 h 1 v -1 h 1 v 1 h 1 v -1 h 1 v 1 h 1 v -1 h 1 v 1 h 1 v -1 -1 z"
         id="rect1043" />
      <path
         inkscape:connector-curvature="0"
         style="opacity:1;fill:#fdd837;fill-opacity:1;stroke:none;stroke-width:2;stroke-linecap:round;stroke-linejoin:round;stroke-miterlimit:4;stroke-dasharray:none;stroke-opacity:1"
         d="m -27,296.64999 h 2 v 1 h -2 z"
         id="rect1045" />
      <path
         inkscape:connector-curvature="0"
         style="opacity:1;fill:#fdd837;fill-opacity:1;stroke:none;stroke-width:2;stroke-linecap:round;stroke-linejoin:round;stroke-miterlimit:4;stroke-dasharray:none;stroke-opacity:1"
         d="m -23,296.64999 h 2 v 1 h -2 z"
         id="rect1045-7" />
      <path
         inkscape:connector-curvature="0"
         style="opacity:1;fill:#fdd837;fill-opacity:1;stroke:none;stroke-width:2;stroke-linecap:round;stroke-linejoin:round;stroke-miterlimit:4;stroke-dasharray:none;stroke-opacity:1"
         d="m -19,296.64999 h 2 v 1 h -2 z"
         id="rect1045-0" />
      <path
         inkscape:connector-curvature="0"
         style="opacity:1;fill:#fdd837;fill-opacity:1;stroke:none;stroke-width:2;stroke-linecap:round;stroke-linejoin:round;stroke-miterlimit:4;stroke-dasharray:none;stroke-opacity:1"
         d="m -15,296.64999 h 2 v 1 h -2 z"
         id="rect1045-06" />
      <path
         inkscape:connector-curvature="0"
         style="opacity:1;fill:#fdd837;fill-opacity:1;stroke:none;stroke-width:2;stroke-linecap:round;stroke-linejoin:round;stroke-miterlimit:4;stroke-dasharray:none;stroke-opacity:1"
         d="m -9,296.64999 h 1 V 297.65 h -1 z"
         id="rect1045-06-5" />
      <path
         inkscape:connector-curvature="0"
         style="opacity:1;fill:#fdd837;fill-opacity:1;stroke:none;stroke-width:2;stroke-linecap:round;stroke-linejoin:round;stroke-miterlimit:4;stroke-dasharray:none;stroke-opacity:1"
         d="m -7,296.64999 h 1 V 297.65 h -1 z"
         id="rect1045-06-5-2" />
      <path
         inkscape:connector-curvature="0"
         style="opacity:1;fill:#fdd837;fill-opacity:1;stroke:none;stroke-width:2;stroke-linecap:round;stroke-linejoin:round;stroke-miterlimit:4;stroke-dasharray:none;stroke-opacity:1"
         d="m -5,296.64999 h 1 V 297.65 h -1 z"
         id="rect1045-06-5-7" />
      <path
         style="opacity:1;fill:#a7bbcf;fill-opacity:1;stroke:none;stroke-width:2;stroke-linecap:round;stroke-linejoin:round;stroke-miterlimit:4;stroke-dasharray:none;stroke-opacity:1"
         d="m -28.5,259.64999 c 0.831,0 1.5,0.669 1.5,1.5 0,0.831 -0.669,1.5 -1.5,1.5 -0.831,0 -1.5,-0.669 -1.5,-1.5 0,-0.831 0.669,-1.5 1.5,-1.5 z"
         id="path950"
         inkscape:connector-curvature="0" />
      <path
         style="opacity:1;fill:#a7bbcf;fill-opacity:1;stroke:none;stroke-width:2;stroke-linecap:round;stroke-linejoin:round;stroke-miterlimit:4;stroke-dasharray:none;stroke-opacity:1"
         d="m 0.5,259.64999 c 0.831,0 1.5,0.669 1.5,1.5 0,0.831 -0.669,1.5 -1.5,1.5 -0.831,0 -1.5,-0.669 -1.5,-1.5 0,-0.831 0.669,-1.5 1.5,-1.5 z"
         id="path948"
         inkscape:connector-curvature="0" />
      <path
         style="opacity:1;fill:#a7bbcf;fill-opacity:1;stroke:none;stroke-width:2;stroke-linecap:round;stroke-linejoin:round;stroke-miterlimit:4;stroke-dasharray:none;stroke-opacity:1"
         d="m -28.5,287.64999 c 0.831,0 1.5,0.669 1.5,1.5 0,0.831 -0.669,1.5 -1.5,1.5 -0.831,0 -1.5,-0.669 -1.5,-1.5 0,-0.831 0.669,-1.5 1.5,-1.5 z"
         id="path942"
         inkscape:connector-curvature="0" />
      <path
         style="opacity:1;fill:#a7bbcf;fill-opacity:1;stroke:none;stroke-width:2;stroke-linecap:round;stroke-linejoin:round;stroke-miterlimit:4;stroke-dasharray:none;stroke-opacity:1"
         d="m 0.5,287.64999 c 0.831,0 1.5,0.669 1.5,1.5 0,0.831 -0.669,1.5 -1.5,1.5 -0.831,0 -1.5,-0.669 -1.5,-1.5 0,-0.831 0.669,-1.5 1.5,-1.5 z"
         id="rect977-4"
         inkscape:connector-curvature="0" />
      <g
         transform="translate(-30,-23.00004)"
         id="layer1-5"
         inkscape:label="Capa 1">
        <g
           id="g6308">
          <g
             id="g1091"
             transform="translate(0,-2.00003)">
            <path
               id="rect4496"
               d="m 16,286.65006 c 7.756,0 14,6.24386 14,13.99993 0,7.75594 -6.244,14 -14,14 -7.7559991,0 -14,-6.24406 -14,-14 0,-7.75607 6.2440009,-13.99993 14,-13.99993 z"
               style="fill:#36404d;fill-opacity:1;stroke:none;stroke-width:1.37168181;stroke-linecap:round;stroke-linejoin:round;stroke-miterlimit:4;stroke-dasharray:none;stroke-opacity:1"
               inkscape:connector-curvature="0" />
            <path
               id="rect4570-9-6"
               d="M 16.000001,287.65 C 23.202,287.65 29,293.44794 29,300.64998 29,307.85202 23.202,313.65006 16.000001,313.65006 8.798,313.65006 3,307.85202 3,300.64998 3,293.44794 8.798,287.65 16.000001,287.65 Z"
               style="fill:#4b6477;fill-opacity:1;stroke:none;stroke-width:1.30204737;stroke-linecap:round;stroke-linejoin:round;stroke-miterlimit:4;stroke-dasharray:none;stroke-opacity:1"
               inkscape:connector-curvature="0" />
            <path
               id="rect4570-9-6-2"
               d="M 16.000001,289.65 C 22.094,289.65 27,294.55595 27,300.64999 27,306.74401 22.094,311.65005 16.000001,311.65005 9.9059996,311.65005 5,306.74401 5,300.64999 5,294.55595 9.9059996,289.65 16.000001,289.65 Z"
               style="fill:#f1f1f1;fill-opacity:1;stroke:none;stroke-width:1.10173249;stroke-linecap:round;stroke-linejoin:round;stroke-miterlimit:4;stroke-dasharray:none;stroke-opacity:1"
               inkscape:connector-curvature="0" />
            <path
               id="rect5668"
               d="m 16,302.65008 c 0.554,0 1,0.44598 1,0.99998 v 6 c 0,0.55401 -0.446,1.00003 -1,1.00003 -0.554,0 -1,-0.44602 -1,-1.00003 v -6 c 0,-0.554 0.446,-0.99998 1,-0.99998 z"
               style="opacity:1;fill:#f78f8f;fill-opacity:1;stroke:none;stroke-width:0.80800003;stroke-linecap:round;stroke-linejoin:round;stroke-miterlimit:4;stroke-dasharray:none;stroke-opacity:1;paint-order:stroke markers fill"
               inkscape:connector-curvature="0" />
            <path
               id="rect5658"
               d="m 16,290.65004 c -0.554,0 -0.999999,0.44599 -0.999999,0.99999 v 6.18164 C 13.835312,298.24323 13,299.34095 13,300.65003 c 0,1.66201 1.338,3 3,3 1.309083,0 2.406799,-0.83531 2.818359,-1.99998 H 23 c 0.554,0 1,-0.44602 1,-1.00002 0,-0.554 -0.446,-0.99999 -1,-0.99999 H 18.818359 C 18.517751,298.79935 17.850699,298.1323 17,297.83167 v -6.18164 c 0,-0.554 -0.445999,-0.99999 -1,-0.99999 z m 0,9 c 0.554001,0 1,0.44599 1,0.99999 0,0.554 -0.445999,1.00002 -1,1.00002 -0.554,0 -0.999999,-0.44602 -0.999999,-1.00002 0,-0.554 0.445999,-0.99999 0.999999,-0.99999 z"
               style="opacity:1;fill:#36404d;fill-opacity:1;stroke:none;stroke-width:0.80800003;stroke-linecap:round;stroke-linejoin:round;stroke-miterlimit:4;stroke-dasharray:none;stroke-opacity:1;paint-order:stroke markers fill"
               inkscape:connector-curvature="0" />
          </g>
        </g>
      </g>
    </g>
  </g>
</svg>
