<?xml version="1.0" encoding="UTF-8" standalone="no"?>
<!-- Created with Inkscape (http://www.inkscape.org/) -->

<svg
   xmlns:dc="http://purl.org/dc/elements/1.1/"
   xmlns:cc="http://creativecommons.org/ns#"
   xmlns:rdf="http://www.w3.org/1999/02/22-rdf-syntax-ns#"
   xmlns:svg="http://www.w3.org/2000/svg"
   xmlns="http://www.w3.org/2000/svg"
   xmlns:sodipodi="http://sodipodi.sourceforge.net/DTD/sodipodi-0.dtd"
   xmlns:inkscape="http://www.inkscape.org/namespaces/inkscape"
   width="48"
   height="48"
   viewBox="0 0 12.7 12.7"
   version="1.1"
   id="svg1399"
   inkscape:version="0.92.4 5da689c313, 2019-01-14"
   sodipodi:docname="preferences-system-network-server-web.svg">
  <defs
     id="defs1393">
    <style
       id="current-color-scheme"
       type="text/css">
      .ColorScheme-Text {
        color:#36404d;
      }
      </style>
  </defs>
  <sodipodi:namedview
     id="base"
     pagecolor="#ffffff"
     bordercolor="#666666"
     borderopacity="1.0"
     inkscape:pageopacity="0.0"
     inkscape:pageshadow="2"
     inkscape:zoom="3.959798"
     inkscape:cx="25.303775"
     inkscape:cy="6.1350522"
     inkscape:document-units="mm"
     inkscape:current-layer="layer1"
     showgrid="true"
     inkscape:showpageshadow="false"
     units="px"
     inkscape:window-width="1920"
     inkscape:window-height="999"
     inkscape:window-x="0"
     inkscape:window-y="0"
     inkscape:window-maximized="1">
    <inkscape:grid
       type="xygrid"
       id="grid2326" />
  </sodipodi:namedview>
  <metadata
     id="metadata1396">
    <rdf:RDF>
      <cc:Work
         rdf:about="">
        <dc:format>image/svg+xml</dc:format>
        <dc:type
           rdf:resource="http://purl.org/dc/dcmitype/StillImage" />
        <dc:title></dc:title>
      </cc:Work>
    </rdf:RDF>
  </metadata>
  <g
     inkscape:label="Capa 1"
     inkscape:groupmode="layer"
     id="layer1"
     transform="translate(0,-284.30005)">
    <g
       id="g2324"
       transform="translate(15.300844,-4.41499)">
      <path
         style="opacity:1;fill:#4972c5;fill-opacity:1;stroke:none;stroke-width:0.08315476;stroke-miterlimit:4;stroke-dasharray:none;stroke-opacity:1"
         d="m -8.9508463,289.24419 h 6.6e-6 c 3.2247404,0 5.82083,2.59609 5.82083,5.82083 0,3.22474 -2.5960896,5.82083 -5.82083,5.82083 h -6.6e-6 c -3.2247407,0 -5.8208307,-2.59609 -5.8208307,-5.82083 0,-3.22474 2.59609,-5.82083 5.8208307,-5.82083 z"
         id="rect4544-5-5-9-9"
         inkscape:connector-curvature="0" />
      <path
         style="opacity:1;fill:#5ca5ff;fill-opacity:1;stroke:none;stroke-width:0.079375;stroke-miterlimit:4;stroke-dasharray:none;stroke-opacity:1"
         d="m -8.9508431,289.50878 h 6.1e-6 c 3.0781617,0 5.5562473,2.47808 5.5562473,5.55624 0,3.07817 -2.4780856,5.55625 -5.5562473,5.55625 h -6.1e-6 c -3.0781619,0 -5.5562469,-2.47808 -5.5562469,-5.55625 0,-3.07816 2.478085,-5.55624 5.5562469,-5.55624 z"
         id="rect4544-5-5-9"
         inkscape:connector-curvature="0" />
      <path
         inkscape:connector-curvature="0"
         style="opacity:1;vector-effect:none;fill:#e6f9ff;fill-opacity:1;stroke:none;stroke-width:0.26458332;stroke-linecap:round;stroke-linejoin:round;stroke-miterlimit:4;stroke-dasharray:none;stroke-dashoffset:0;stroke-opacity:1"
         d="m -8.5622363,289.54805 c -0.1156867,-0.008 -0.2260709,-0.0337 -0.3436483,-0.0346 -0.287528,0.27023 -0.6091171,0.53952 -0.8474935,0.8108 -0.039132,-0.0128 -0.079973,-0.0217 -0.1235067,-0.0217 -0.2198682,0 -0.3968752,0.17701 -0.3968752,0.39688 0,0.072 0.02052,0.13829 0.05374,0.19637 -0.524214,0.69199 -0.896843,1.38209 -1.147216,2.06241 -0.03191,-0.005 -0.0639,-0.01 -0.09715,-0.01 -0.227307,0 -0.426731,0.11366 -0.545703,0.28732 -0.532403,-0.25434 -1.089131,-0.63791 -1.655713,-1.08831 -0.04684,0.0757 -0.08389,0.15752 -0.127124,0.23565 0.571771,0.44978 1.136202,0.83521 1.680517,1.09347 -0.0087,0.043 -0.01344,0.0877 -0.01344,0.13333 0,0.2836 0.177599,0.52262 0.427364,0.61701 -0.09328,0.59801 -0.09889,1.18305 -0.02946,1.74718 0.03408,0.27692 0.08531,0.54891 0.151412,0.81494 -0.644354,0.30451 -1.325109,0.7652 -2.025716,1.31103 0.01569,0.0241 0.02529,0.0522 0.04134,0.076 0.03332,0.0494 0.07831,0.0892 0.113171,0.13746 0.675481,-0.52729 1.328976,-0.972 1.943034,-1.26659 0.190185,0.65941 0.470819,1.27984 0.806153,1.85208 -0.06437,0.0705 -0.104387,0.16374 -0.104387,0.26717 0,0.21986 0.177006,0.39687 0.396875,0.39687 0.04353,0 0.08437,-0.009 0.123507,-0.0217 0.261891,0.37336 0.5455873,0.71268 0.8366412,1.03043 0.1558779,0.0139 0.3062052,0.0457 0.4656047,0.0465 -0.3764409,-0.38145 -0.758725,-0.76295 -1.0914059,-1.2392 0.03914,-0.0615 0.06253,-0.13427 0.06253,-0.2129 0,-0.21987 -0.177006,-0.39688 -0.396875,-0.39688 -0.01915,0 -0.0374,0.003 -0.05581,0.006 -0.33459,-0.56933 -0.613774,-1.18594 -0.798918,-1.83968 0.725535,-0.31807 1.4110707,-0.48231 2.0655073,-0.52451 0.069645,0.29085 0.3285069,0.50643 0.6413045,0.50643 0.2864887,0 0.5272712,-0.18132 0.6196004,-0.43512 0.4700384,0.0852 0.9264423,0.23173 1.3720093,0.4315 -0.243736,1.03308 -0.1097788,2.13247 0.2583821,3.01274 0.078133,-0.0425 0.1588246,-0.0805 0.234611,-0.12661 -0.3289043,-0.80814 -0.4572238,-1.82478 -0.2490803,-2.76986 0.6459246,0.3194 1.2657391,0.76996 1.877405,1.26814 0.03075,-0.0429 0.07071,-0.0782 0.100252,-0.12195 0.01996,-0.0296 0.03176,-0.0646 0.05116,-0.0946 -0.6339652,-0.51521 -1.2800364,-0.98303 -1.961121,-1.31362 0.1318459,-0.45204 0.3445788,-0.88061 0.6521567,-1.25832 0.1063291,0.0527 0.2247669,0.0848 0.3519164,0.0848 0.041133,0 0.080476,-0.006 0.1198894,-0.0119 0.00132,0.002 0.0023,0.004 0.00362,0.006 0.3111611,0.43562 0.8284855,0.79503 1.4603765,1.10381 0.0254,-0.083 0.0549,-0.16392 0.07648,-0.24857 -0.549106,-0.27412 -0.999977,-0.58483 -1.2764083,-0.95136 0.2436853,-0.1352 0.4097953,-0.39192 0.4097953,-0.69143 0,-0.0647 -0.0098,-0.12643 -0.02429,-0.18655 0.290318,-0.14824 0.633464,-0.25781 1.002523,-0.34727 -0.01242,-0.0863 -0.01004,-0.17708 -0.02635,-0.262 -0.394354,0.0944 -0.762576,0.21137 -1.07642,0.37156 -0.140469,-0.22178 -0.3861799,-0.36949 -0.6692097,-0.36949 -0.059912,0 -0.1175819,0.008 -0.1736328,0.0202 -0.014822,-0.13814 -0.024805,-0.27718 -0.024805,-0.41702 0,-0.87413 0.2637994,-1.68707 0.5183145,-2.36678 -0.032952,-0.0347 -0.057632,-0.0768 -0.091467,-0.11059 -0.055394,-0.0554 -0.1236887,-0.0963 -0.1813843,-0.14935 -0.624731,1.15233 -1.6802063,2.20697 -3.0628622,2.6324 -0.7613145,0.23425 -1.6176604,0.27932 -2.5460978,0.0532 0.0017,-0.0197 0.0057,-0.0388 0.0057,-0.0589 0,-0.24102 -0.128766,-0.44923 -0.320394,-0.56483 0.238831,-0.64977 0.595477,-1.31104 1.099675,-1.97714 0.045489,0.0181 0.094679,0.0284 0.1467608,0.0284 0.2198688,0 0.396875,-0.177 0.396875,-0.39687 0,-0.0797 -0.023926,-0.15343 -0.064079,-0.21549 0.2757308,-0.31165 0.6373112,-0.62378 0.9818524,-0.93586 z m 3.1264241,2.33629 c -0.1540293,0.53435 -0.2733683,1.12569 -0.2733683,1.72548 0,0.17396 0.014626,0.34833 0.037207,0.52193 -0.2212316,0.14057 -0.3684529,0.38607 -0.3684529,0.66869 0,0.21882 0.087701,0.41635 0.2299602,0.55966 -0.3179215,0.39127 -0.5417291,0.83247 -0.6821289,1.29501 -0.4538509,-0.20021 -0.9206447,-0.3483 -1.4035321,-0.43512 -0.018756,-0.3494 -0.3035974,-0.6258 -0.6578409,-0.6258 -0.3291343,0 -0.598727,0.23844 -0.6506062,0.55242 -0.6773278,0.0435 -1.3835617,0.21185 -2.1249347,0.53227 -0.05845,-0.24156 -0.105144,-0.48694 -0.135909,-0.73691 -0.0665,-0.54033 -0.06047,-1.10031 0.02739,-1.67328 0.242378,-0.01 0.448492,-0.14795 0.555522,-0.34933 0.9786383,0.24132 1.8884685,0.19845 2.698026,-0.0506 1.1429582,-0.35168 2.0807476,-1.09816 2.7486695,-1.98438 z"
         id="path1818" />
      <path
         inkscape:connector-curvature="0"
         style="fill:#36404d;fill-opacity:1;stroke:none;stroke-width:0.38884729;stroke-linecap:round;stroke-linejoin:round;stroke-miterlimit:4;stroke-dasharray:none;stroke-opacity:1"
         d="m -6.5695931,293.47756 c 2.1986884,0 3.9687504,1.77002 3.9687504,3.96873 0,2.19867 -1.770062,3.96875 -3.9687504,3.96875 -2.1986872,0 -3.9687499,-1.77008 -3.9687499,-3.96875 0,-2.19871 1.7700627,-3.96873 3.9687499,-3.96873 z"
         id="rect4496-2-5" />
      <path
         inkscape:connector-curvature="0"
         style="fill:#4b6477;fill-opacity:1;stroke:none;stroke-width:0.37100008;stroke-linecap:round;stroke-linejoin:round;stroke-miterlimit:4;stroke-dasharray:none;stroke-opacity:1"
         d="m -6.5695931,293.74213 c 2.0521084,0 3.7041674,1.65204 3.7041674,3.70416 0,2.05212 -1.652059,3.70419 -3.7041674,3.70419 -2.0521081,0 -3.7041659,-1.65207 -3.7041659,-3.70419 0,-2.05212 1.6520578,-3.70416 3.7041659,-3.70416 z"
         id="rect4570-9-6-3-6" />
    </g>
    <path
       id="path908"
       class="ColorScheme-Text"
       style="color:#36404d;fill:#e1ebf2;fill-opacity:1;stroke:none;stroke-width:0.26458332"
       d="m 8.739001,290.65005 c -0.09573,-0.003 -0.185453,0.0465 -0.234611,0.12868 l -0.79375,1.32291 c -0.1055071,0.1763 0.0214,0.40034 0.22686,0.4005 h 0.264583 v 0.52916 c 0,0.29316 0.236008,0.52917 0.529167,0.52917 0.293158,0 0.529166,-0.23601 0.529166,-0.52917 v -0.52916 H 9.525 c 0.205458,-1.6e-4 0.332366,-0.2242 0.226859,-0.4005 l -0.79375,-1.32291 c -0.04632,-0.0774 -0.128909,-0.12595 -0.219108,-0.12868 z m -1.5952511,2.11667 c -0.146579,0 -0.264584,0.118 -0.264584,0.26458 v 1.85209 c 0,0.14658 0.118005,0.26458 0.264584,0.26458 H 10.31875 c 0.146578,0 0.264583,-0.118 0.264583,-0.26458 v -1.85209 c 0,-0.14658 -0.118005,-0.26458 -0.264583,-0.26458 H 9.525 v 0.79375 h 0.264583 v 0.79375 H 7.672916 v -0.79375 H 7.9375 v -0.79375 z"
       inkscape:connector-curvature="0" />
  </g>
</svg>
