<?xml version="1.0" encoding="UTF-8" standalone="no"?>
<!-- Created with Inkscape (http://www.inkscape.org/) -->

<svg
   xmlns:dc="http://purl.org/dc/elements/1.1/"
   xmlns:cc="http://creativecommons.org/ns#"
   xmlns:rdf="http://www.w3.org/1999/02/22-rdf-syntax-ns#"
   xmlns:svg="http://www.w3.org/2000/svg"
   xmlns="http://www.w3.org/2000/svg"
   xmlns:sodipodi="http://sodipodi.sourceforge.net/DTD/sodipodi-0.dtd"
   xmlns:inkscape="http://www.inkscape.org/namespaces/inkscape"
   width="48"
   height="48"
   viewBox="0 0 48 48"
   version="1.1"
   id="svg8"
   inkscape:version="0.92.3 (2405546, 2018-03-11)"
   sodipodi:docname="preferences-desktop-peripherals.svg">
  <title
     id="title7895">Antu icon Theme</title>
  <defs
     id="defs2" />
  <sodipodi:namedview
     id="base"
     pagecolor="#ffffff"
     bordercolor="#666666"
     borderopacity="1.0"
     inkscape:pageopacity="0.0"
     inkscape:pageshadow="2"
     inkscape:zoom="16"
     inkscape:cx="14.158184"
     inkscape:cy="18.13064"
     inkscape:document-units="px"
     inkscape:current-layer="g1473"
     showgrid="true"
     units="px"
     inkscape:window-width="1874"
     inkscape:window-height="1141"
     inkscape:window-x="46"
     inkscape:window-y="30"
     inkscape:window-maximized="1"
     objecttolerance="10"
     gridtolerance="10"
     guidetolerance="10"
     inkscape:snap-bbox="true"
     inkscape:bbox-paths="true"
     inkscape:bbox-nodes="true"
     inkscape:snap-bbox-edge-midpoints="true"
     inkscape:snap-bbox-midpoints="true"
     inkscape:object-paths="true"
     inkscape:snap-intersection-paths="true">
    <inkscape:grid
       type="xygrid"
       id="grid7897"
       empspacing="4" />
  </sodipodi:namedview>
  <metadata
     id="metadata5">
    <rdf:RDF>
      <cc:Work
         rdf:about="">
        <dc:format>image/svg+xml</dc:format>
        <dc:type
           rdf:resource="http://purl.org/dc/dcmitype/StillImage" />
        <dc:title>Antu icon Theme</dc:title>
      </cc:Work>
    </rdf:RDF>
  </metadata>
  <g
     inkscape:label="Capa 1"
     inkscape:groupmode="layer"
     id="layer1"
     transform="translate(0,-266.64999)">
    <g
       transform="translate(1,-1)"
       id="layer1-0"
       inkscape:label="Capa 1">
      <g
         transform="translate(22,-8)"
         id="g1473">
        <path
           inkscape:connector-curvature="0"
           style="opacity:1;fill:#36404d;fill-opacity:1;stroke:none;stroke-width:2.39314151;stroke-linecap:round;stroke-linejoin:round;stroke-miterlimit:4;stroke-dasharray:none;stroke-opacity:1"
           d="M -19,291.64999 H 7 c 1.108,0 2,0.892 2,2 v 26 c 0,1.108 -0.892,2 -2,2 h -26 c -1.108,0 -2,-0.892 -2,-2 v -26 c 0,-1.108 0.892,-2 2,-2 z"
           id="rect843" />
        <path
           inkscape:connector-curvature="0"
           style="opacity:1;fill:#4b6477;fill-opacity:1;stroke:none;stroke-width:2.23359871;stroke-linecap:round;stroke-linejoin:round;stroke-miterlimit:4;stroke-dasharray:none;stroke-opacity:1"
           d="M -19,292.64999 H 7 c 0.553999,0 1,0.446 1,1 v 26 c 0,0.554 -0.446001,1 -1,1 h -26 c -0.554,0 -1,-0.446 -1,-1 v -26 c 0,-0.554 0.446,-1 1,-1 z"
           id="rect843-3" />
        <path
           inkscape:connector-curvature="0"
           style="fill:#e1ebf2;fill-opacity:1;stroke:none;stroke-width:0.40000001;stroke-linecap:round;stroke-linejoin:round;stroke-miterlimit:4;stroke-dasharray:none;stroke-opacity:1"
           d="m -11,298.64997 c -1.662,0 -3,1.33802 -3,3 0,1.662 1.338,2.99999 3,2.99999 h 1 v 4.00003 h -1 c -1.662,0 -3,1.33799 -3,3 0,1.66197 1.338,3 3,3 1.662,0 3,-1.33803 3,-3 v -1.00003 h 4 v 1.00003 c 0,1.66197 1.338,3 3,3 1.662,0 3.000002,-1.33803 3.000002,-3 0,-1.66201 -1.338002,-3 -3.000002,-3 h -1 v -4.00003 h 1 c 1.662,0 3.000002,-1.33799 3.000002,-2.99999 0,-1.66198 -1.338002,-3 -3.000002,-3 -1.662,0 -3,1.33802 -3,3 v 1.00002 h -4 v -1.00002 c 0,-1.66198 -1.338,-3 -3,-3 z m 0,2.00001 c 0.554,0 1,0.44598 1,0.99999 v 1.00002 h -1 c -0.554,0 -1,-0.44602 -1,-1.00002 0,-0.55401 0.446,-0.99999 1,-0.99999 z m 10,0 c 0.554,0 1.000001,0.44598 1.000001,0.99999 0,0.554 -0.446001,1.00002 -1.000001,1.00002 h -1 v -1.00002 c 0,-0.55401 0.446,-0.99999 1,-0.99999 z m -7,3.99998 h 4 v 4.00003 h -4 z m -3,6 h 1 v 1.00003 c 0,0.554 -0.446,0.99999 -1,0.99999 -0.554,0 -1,-0.44599 -1,-0.99999 0,-0.554 0.446,-1.00003 1,-1.00003 z m 9,0 h 1 c 0.554,0 1.000001,0.44603 1.000001,1.00003 0,0.554 -0.446001,0.99999 -1.000001,0.99999 -0.554,0 -1,-0.44599 -1,-0.99999 z"
           id="rect4510" />
      </g>
    </g>
    <g
       transform="translate(20,-14)"
       id="layer1-1"
       inkscape:label="Capa 1">
      <g
         id="g979">
        <path
           style="opacity:1;fill:#abc2ce;fill-opacity:1;stroke:none;stroke-width:0.80800003;stroke-linecap:round;stroke-linejoin:round;stroke-miterlimit:4;stroke-dasharray:none;stroke-opacity:1;paint-order:stroke markers fill"
           d="m 16,283.64999 c 5.54,0 10,4.46 10,10 v 10 c 0,5.54 -4.46,10 -10,10 -5.54,0 -10,-4.46 -10,-10 v -10 c 0,-5.54 4.46,-10 10,-10 z"
           id="rect937"
           inkscape:connector-curvature="0" />
        <path
           style="opacity:1;fill:#fbffff;fill-opacity:1;stroke:none;stroke-width:0.80800003;stroke-linecap:round;stroke-linejoin:round;stroke-miterlimit:4;stroke-dasharray:none;stroke-opacity:1;paint-order:stroke markers fill"
           d="m 16,284.64999 c 4.986,0 9,4.014 9,9 V 303.65 c 0,4.986 -4.014,9 -9,9 -4.986,0 -9,-4.014 -9,-9 v -10.00001 c 0,-4.986 4.014,-9 9,-9 z"
           id="rect939"
           inkscape:connector-curvature="0" />
        <path
           style="opacity:1;fill:#5f6a86;fill-opacity:1;stroke:none;stroke-width:0.80800003;stroke-linecap:round;stroke-linejoin:round;stroke-miterlimit:4;stroke-dasharray:none;stroke-opacity:1;paint-order:stroke markers fill"
           d="m 15.999998,290.64999 h 4e-6 c 1.107999,0 1.999998,0.892 1.999998,2 0,1.108 -0.891999,2 -1.999998,2 h -4e-6 c -1.107999,0 -1.999998,-0.892 -1.999998,-2 0,-1.108 0.891999,-2 1.999998,-2 z"
           id="rect941"
           inkscape:connector-curvature="0" />
      </g>
    </g>
  </g>
</svg>
