<?xml version="1.0" encoding="UTF-8" standalone="no"?>
<!-- Created with Inkscape (http://www.inkscape.org/) -->

<svg
   xmlns:dc="http://purl.org/dc/elements/1.1/"
   xmlns:cc="http://creativecommons.org/ns#"
   xmlns:rdf="http://www.w3.org/1999/02/22-rdf-syntax-ns#"
   xmlns:svg="http://www.w3.org/2000/svg"
   xmlns="http://www.w3.org/2000/svg"
   xmlns:sodipodi="http://sodipodi.sourceforge.net/DTD/sodipodi-0.dtd"
   xmlns:inkscape="http://www.inkscape.org/namespaces/inkscape"
   width="48"
   height="48"
   viewBox="0 0 12.7 12.7"
   version="1.1"
   id="svg1399"
   inkscape:version="0.92.4 5da689c313, 2019-01-14"
   sodipodi:docname="preferences-virtualization-container.svg">
  <defs
     id="defs1393">
    <style
       type="text/css"
       id="current-color-scheme">
      .ColorScheme-Text {
        color:#122036;
      }
      </style>
    <style
       id="current-color-scheme-1"
       type="text/css">
      .ColorScheme-Text {
        color:#122036;
      }
      </style>
    <style
       id="current-color-scheme-72"
       type="text/css">
      .ColorScheme-Text {
        color:#36404d;
      }
      </style>
    <style
       id="current-color-scheme-0"
       type="text/css">
      .ColorScheme-Text {
        color:#122036;
      }
      </style>
    <style
       type="text/css"
       id="current-color-scheme-1-2">
      .ColorScheme-Text {
        color:#122036;
      }
      </style>
    <style
       type="text/css"
       id="current-color-scheme-3">
      .ColorScheme-Text {
        color:#122036;
      }
      </style>
    <style
       id="current-color-scheme-1-7"
       type="text/css">
      .ColorScheme-Text {
        color:#122036;
      }
      </style>
    <style
       id="current-color-scheme-06"
       type="text/css">
      .ColorScheme-Text {
        color:#122036;
      }
      </style>
    <style
       type="text/css"
       id="current-color-scheme-1-1">
      .ColorScheme-Text {
        color:#122036;
      }
      </style>
    <style
       type="text/css"
       id="current-color-scheme-56">
      .ColorScheme-Text {
        color:#36404d;
      }
      </style>
    <style
       type="text/css"
       id="current-color-scheme-0-2">
      .ColorScheme-Text {
        color:#122036;
      }
      </style>
    <style
       id="current-color-scheme-1-9"
       type="text/css">
      .ColorScheme-Text {
        color:#122036;
      }
      </style>
    <style
       id="current-color-scheme-3-1"
       type="text/css">
      .ColorScheme-Text {
        color:#122036;
      }
      </style>
    <style
       type="text/css"
       id="current-color-scheme-1-7-2">
      .ColorScheme-Text {
        color:#122036;
      }
      </style>
    <style
       type="text/css"
       id="current-color-scheme-06-7">
      .ColorScheme-Text {
        color:#122036;
      }
      </style>
    <style
       id="current-color-scheme-1-1-0"
       type="text/css">
      .ColorScheme-Text {
        color:#122036;
      }
      </style>
    <style
       id="current-color-scheme-5"
       type="text/css">
      .ColorScheme-Text {
        color:#36404d;
      }
      </style>
    <style
       type="text/css"
       id="current-color-scheme-3-6">
      .ColorScheme-Text {
        color:#36404d;
      }
      </style>
    <style
       id="current-color-scheme-9"
       type="text/css">
      .ColorScheme-Text {
        color:#36404d;
      }
      </style>
    <style
       type="text/css"
       id="current-color-scheme-4">
      .ColorScheme-Text {
        color:#122036;
      }
      </style>
    <style
       id="current-color-scheme-7"
       type="text/css">
      .ColorScheme-Text {
        color:#36404d;
      }
      </style>
    <style
       type="text/css"
       id="current-color-scheme-91">
      .ColorScheme-Text {
        color:#122036;
      }
      </style>
    <style
       type="text/css"
       id="current-color-scheme-7-27">
      .ColorScheme-Text {
        color:#122036;
      }
      </style>
    <style
       type="text/css"
       id="current-color-scheme-5-09">
      .ColorScheme-Text {
        color:#122036;
      }
      </style>
    <style
       type="text/css"
       id="current-color-scheme-0-3">
      .ColorScheme-Text {
        color:#122036;
      }
      </style>
    <style
       type="text/css"
       id="current-color-scheme-7-9">
      .ColorScheme-Text {
        color:#122036;
      }
      </style>
    <style
       type="text/css"
       id="current-color-scheme-5-3">
      .ColorScheme-Text {
        color:#122036;
      }
      </style>
    <style
       type="text/css"
       id="current-color-scheme-79">
      .ColorScheme-Text {
        color:#122036;
      }
      </style>
    <style
       type="text/css"
       id="current-color-scheme-7-2">
      .ColorScheme-Text {
        color:#122036;
      }
      </style>
    <style
       type="text/css"
       id="current-color-scheme-5-0">
      .ColorScheme-Text {
        color:#122036;
      }
      </style>
    <style
       type="text/css"
       id="current-color-scheme-062">
      .ColorScheme-Text {
        color:#122036;
      }
      </style>
    <style
       id="current-color-scheme-1-6"
       type="text/css">
      .ColorScheme-Text {
        color:#122036;
      }
      </style>
    <style
       type="text/css"
       id="current-color-scheme-37">
      .ColorScheme-Text {
        color:#122036;
      }
      </style>
    <style
       id="current-color-scheme-1-5"
       type="text/css">
      .ColorScheme-Text {
        color:#122036;
      }
      </style>
    <style
       type="text/css"
       id="current-color-scheme-19">
      .ColorScheme-Text {
        color:#122036;
      }
      </style>
    <style
       id="current-color-scheme-5-4"
       type="text/css">
      .ColorScheme-Text {
        color:#122036;
      }
      </style>
    <style
       id="current-color-scheme-2"
       type="text/css">
      .ColorScheme-Text {
        color:#122036;
      }
      </style>
    <style
       id="current-color-scheme-1-78"
       type="text/css">
      .ColorScheme-Text {
        color:#122036;
      }
      </style>
    <style
       type="text/css"
       id="current-color-scheme-10">
      .ColorScheme-Text {
        color:#122036;
      }
      </style>
    <style
       id="current-color-scheme-0-4"
       type="text/css">
      .ColorScheme-Text {
        color:#122036;
      }
      </style>
  </defs>
  <sodipodi:namedview
     id="base"
     pagecolor="#ffffff"
     bordercolor="#666666"
     borderopacity="1.0"
     inkscape:pageopacity="0.0"
     inkscape:pageshadow="2"
     inkscape:zoom="11.2"
     inkscape:cx="-5.2825486"
     inkscape:cy="22.661865"
     inkscape:document-units="px"
     inkscape:current-layer="g1921"
     showgrid="true"
     inkscape:showpageshadow="false"
     units="px"
     inkscape:window-width="1920"
     inkscape:window-height="999"
     inkscape:window-x="0"
     inkscape:window-y="0"
     inkscape:window-maximized="1">
    <inkscape:grid
       type="xygrid"
       id="grid1923" />
  </sodipodi:namedview>
  <metadata
     id="metadata1396">
    <rdf:RDF>
      <cc:Work
         rdf:about="">
        <dc:format>image/svg+xml</dc:format>
        <dc:type
           rdf:resource="http://purl.org/dc/dcmitype/StillImage" />
        <dc:title></dc:title>
      </cc:Work>
    </rdf:RDF>
  </metadata>
  <g
     inkscape:label="Capa 1"
     inkscape:groupmode="layer"
     id="layer1"
     transform="translate(0,-284.30005)">
    <g
       id="g1921"
       transform="translate(13.931087,-2.07637)">
      <path
         inkscape:connector-curvature="0"
         id="rect18678-7"
         d="m -12.60817,286.90559 h 10.0541666 c 0.439737,0 0.79375,0.35401 0.79375,0.79375 v 10.05417 c 0,0.43973 -0.354013,0.79375 -0.79375,0.79375 H -12.60817 c -0.439738,0 -0.79375,-0.35402 -0.79375,-0.79375 v -10.05417 c 0,-0.43974 0.354012,-0.79375 0.79375,-0.79375 z"
         style="opacity:1;vector-effect:none;fill:#363c4d;fill-opacity:1;stroke:none;stroke-width:0.52916664;stroke-linecap:round;stroke-linejoin:round;stroke-miterlimit:4;stroke-dasharray:none;stroke-dashoffset:0;stroke-opacity:1;paint-order:markers stroke fill" />
      <path
         inkscape:connector-curvature="0"
         id="rect18695"
         d="m -12.60817,287.17017 h 10.0541666 c 0.293158,0 0.529166,0.23601 0.529166,0.52917 v 10.05417 c 0,0.29315 -0.236008,0.52916 -0.529166,0.52916 H -12.60817 c -0.293159,0 -0.529167,-0.23601 -0.529167,-0.52916 v -10.05417 c 0,-0.29316 0.236008,-0.52917 0.529167,-0.52917 z"
         style="opacity:1;vector-effect:none;fill:#4b6477;fill-opacity:1;stroke:none;stroke-width:0.52916664;stroke-linecap:round;stroke-linejoin:round;stroke-miterlimit:4;stroke-dasharray:none;stroke-dashoffset:0;stroke-opacity:1;paint-order:markers stroke fill" />
      <path
         inkscape:connector-curvature="0"
         id="rect18678"
         d="m -12.343588,287.69934 h 9.5250016 c 0.146579,0 0.264583,0.118 0.264583,0.26458 v 7.93751 c 0,0.14658 -0.118004,0.26458 -0.264583,0.26458 h -9.5250016 c -0.146579,0 -0.264582,-0.118 -0.264582,-0.26458 v -7.93751 c 0,-0.14658 0.118003,-0.26458 0.264582,-0.26458 z"
         style="opacity:1;vector-effect:none;fill:#363c4d;fill-opacity:1;stroke:none;stroke-width:0.52916664;stroke-linecap:round;stroke-linejoin:round;stroke-miterlimit:4;stroke-dasharray:none;stroke-dashoffset:0;stroke-opacity:1;paint-order:markers stroke fill" />
      <path
         inkscape:connector-curvature="0"
         id="rect18676"
         d="m -12.343587,287.96392 h 9.5249996 v 7.9375 h -9.5249996 z"
         style="opacity:1;vector-effect:none;fill:#f1f1f1;fill-opacity:1;stroke:none;stroke-width:0.52916664;stroke-linecap:round;stroke-linejoin:round;stroke-miterlimit:4;stroke-dasharray:none;stroke-dashoffset:0;stroke-opacity:1;paint-order:markers stroke fill" />
      <path
         inkscape:connector-curvature="0"
         style="opacity:1;vector-effect:none;fill:#363c4d;fill-opacity:1;stroke:none;stroke-width:0.52916664;stroke-linecap:round;stroke-linejoin:round;stroke-miterlimit:4;stroke-dasharray:none;stroke-dashoffset:0;stroke-opacity:1;paint-order:markers stroke fill"
         d="m -11.285254,296.69517 h 0.79375 c 0.293159,0 0.5291669,0.23601 0.5291669,0.52917 0,0.29316 -0.2360079,0.52917 -0.5291669,0.52917 h -0.79375 c -0.293158,0 -0.529166,-0.23601 -0.529166,-0.52917 0,-0.29316 0.236008,-0.52917 0.529166,-0.52917 z"
         id="rect19838" />
      <path
         inkscape:connector-curvature="0"
         style="opacity:1;vector-effect:none;fill:#53d18a;fill-opacity:1;stroke:none;stroke-width:0.52916664;stroke-linecap:round;stroke-linejoin:round;stroke-miterlimit:4;stroke-dasharray:none;stroke-dashoffset:0;stroke-opacity:1;paint-order:markers stroke fill"
         d="m -11.285254,296.95976 h 0.79375 c 0.146579,0 0.264584,0.118 0.264584,0.26458 0,0.14658 -0.118005,0.26458 -0.264584,0.26458 h -0.79375 c -0.146579,0 -0.264583,-0.118 -0.264583,-0.26458 0,-0.14658 0.118004,-0.26458 0.264583,-0.26458 z"
         id="rect19840" />
      <path
         inkscape:connector-curvature="0"
         style="opacity:1;vector-effect:none;fill:#363c4d;fill-opacity:1;stroke:none;stroke-width:0.52916664;stroke-linecap:round;stroke-linejoin:round;stroke-miterlimit:4;stroke-dasharray:none;stroke-dashoffset:0;stroke-opacity:1;paint-order:markers stroke fill"
         d="m -11.285254,296.69517 c 0.293159,0 0.529167,0.23601 0.529167,0.52917 0,0.29316 -0.236008,0.52917 -0.529167,0.52917 -0.293158,0 -0.529166,-0.23601 -0.529166,-0.52917 0,-0.29316 0.236008,-0.52917 0.529166,-0.52917 z"
         id="rect19842" />
      <path
         inkscape:connector-curvature="0"
         style="opacity:1;vector-effect:none;fill:#4b6477;fill-opacity:1;stroke:none;stroke-width:0.52916664;stroke-linecap:round;stroke-linejoin:round;stroke-miterlimit:4;stroke-dasharray:none;stroke-dashoffset:0;stroke-opacity:1;paint-order:markers stroke fill"
         d="m -11.285254,296.95976 c 0.146579,0 0.264584,0.118 0.264584,0.26458 0,0.14658 -0.118005,0.26458 -0.264584,0.26458 -0.146579,0 -0.264583,-0.118 -0.264583,-0.26458 0,-0.14658 0.118004,-0.26458 0.264583,-0.26458 z"
         id="rect19844" />
      <g
         transform="matrix(0.26458333,0,0,0.26458333,-13.931087,215.82528)"
         id="layer1-9"
         inkscape:label="Capa 1">
        <g
           transform="translate(36,12)"
           id="g1985">
          <path
             style="opacity:1;vector-effect:none;fill:#363c4d;fill-opacity:1;stroke:none;stroke-width:2;stroke-linecap:round;stroke-linejoin:round;stroke-miterlimit:4;stroke-dasharray:none;stroke-dashoffset:0;stroke-opacity:1;paint-order:markers stroke fill"
             d="m -10,293.64999 c -1.108,0 -2,0.892 -2,2 0,1.108 0.892,2 2,2 1.108,0 2,-0.892 2,-2 0,-1.108 -0.892,-2 -2,-2 z m 6,0 c -0.1385,0 -0.273867,0.0145 -0.404297,0.041 -0.913008,0.1859 -1.595703,0.9895 -1.595703,1.959 0,1.108 0.892,2 2,2 1.108,0 2,-0.892 2,-2 0,-1.108 -0.892,-2 -2,-2 z m 6,0 c -1.108,0 -2,0.892 -2,2 0,1.108 0.892,2 2,2 1.108,0 2,-0.892 2,-2 0,-1.108 -0.892,-2 -2,-2 z"
             id="rect18709"
             inkscape:connector-curvature="0" />
          <path
             style="opacity:1;vector-effect:none;fill:#53d18a;fill-opacity:1;stroke:none;stroke-width:2;stroke-linecap:round;stroke-linejoin:round;stroke-miterlimit:4;stroke-dasharray:none;stroke-dashoffset:0;stroke-opacity:1;paint-order:markers stroke fill"
             d="m -10,294.64999 c -0.554,0 -1,0.446 -1,1 0,0.554 0.446,1 1,1 0.554,0 1,-0.446 1,-1 0,-0.554 -0.446,-1 -1,-1 z m 6,0 c -0.1385,0 -0.270906,0.0277 -0.390625,0.0781 C -4.749781,294.87952 -5,295.23449 -5,295.64999 c 0,0.554 0.446,1 1,1 0.554,0 1,-0.446 1,-1 0,-0.554 -0.446,-1 -1,-1 z m 6,0 c -0.554,0 -1,0.446 -1,1 0,0.554 0.446,1 1,1 0.554,0 1,-0.446 1,-1 0,-0.554 -0.446,-1 -1,-1 z"
             id="rect18711"
             inkscape:connector-curvature="0" />
        </g>
      </g>
      <path
         inkscape:connector-curvature="0"
         id="rect925-7"
         d="m -11.285254,288.49308 v 0.52917 h -0.529167 v 0.52916 h 0.529167 v 0.52917 h -0.529167 v 0.52917 h 0.529167 v 0.52916 h 0.529166 v -0.52916 h 0.529167 v 0.52916 h 0.5291674 v -0.52916 h 0.529167 v -0.52917 h -0.529167 v -0.52917 h 0.529167 v -0.52916 h -0.529167 v -0.52917 h -0.5291674 v 0.52917 h -0.529167 v -0.52917 z m 0.529166,1.05833 h 0.529167 v 0.52917 h -0.529167 z"
         style="opacity:1;fill:#36404d;fill-opacity:1;stroke:none;stroke-width:1.05833328;stroke-linecap:round;stroke-linejoin:round;stroke-miterlimit:4;stroke-dasharray:none;stroke-opacity:1" />
      <path
         style="fill:#36404d;fill-opacity:1;stroke:none;stroke-width:0.52916664;stroke-linecap:round;stroke-linejoin:round;stroke-miterlimit:4;stroke-dasharray:none;stroke-opacity:1"
         d="m -11.81442,291.66808 v 0.52917 h 1.5875 v -0.52917 z m 1.8520827,0 v 0.52917 l 0.529167,1e-5 v -0.52917 z m 0.793751,1e-5 v 0.52917 h 0.529166 v -0.52917 z m 0.79375,0 v 0.52917 l 0.7937493,0 v -0.52917 z m -3.4395837,1.05832 v 0.52917 h 0.79375 v -0.52917 z m 1.058333,0 v 0.52917 h 0.529167 0.5291667 0.264583 l 0.529167,10e-6 v -0.52917 l -0.529167,-1e-5 h -0.264583 -0.5291667 z m 2.1166667,1e-5 v 0.52917 l 1.0583333,0 v -0.52917 z m -3.1749997,1.05833 v 0.52916 h 1.322917 v -0.52916 z m 1.5875,0 v 0.52916 h 0.2645827 0.264584 0.264583 l 0.79375,10e-6 0.2645833,0 v -0.52916 l -0.2645833,0 -0.79375,-1e-5 h -0.264583 -0.264584 z m 2.1166663,1e-5 v 0.52916 h 0.5291667 v -0.52916 z m -3.7041663,1.05832 v 0.52917 h 0.529167 v -0.52917 z m 0.79375,0 v 0.52917 h 0.529167 v -0.52917 z m 0.79375,0 v 0.52917 l 0.7937497,10e-6 h 0.264584 0.529166 v -0.52917 h -0.529166 -0.264584 z m 1.8520837,1e-5 v 0.52917 l 0.7937493,0 v -0.52917 z"
         id="rect969"
         inkscape:connector-curvature="0"
         sodipodi:nodetypes="cccccccccccccccccccccccccccccccccccccccccccccccccccccccccccccccccccccccccccccccccccccccc" />
      <path
         style="opacity:1;fill:#347cd0;fill-opacity:1;stroke:none;stroke-width:0.52916664;stroke-linecap:round;stroke-linejoin:round;stroke-miterlimit:4;stroke-dasharray:none;stroke-opacity:1"
         d="m -6.5227539,288.75765 h 2.9104166 l -10e-8,6.35001 H -6.522754 Z"
         id="rect2514"
         inkscape:connector-curvature="0"
         sodipodi:nodetypes="ccccc" />
      <path
         style="opacity:1;fill:#6bb1ff;fill-opacity:1;stroke:none;stroke-width:0.52916664;stroke-linecap:round;stroke-linejoin:round;stroke-miterlimit:4;stroke-dasharray:none;stroke-opacity:1"
         d="m -6.2581702,289.02225 h 2.3812499 l -10e-8,5.82084 h -2.3812499 z"
         id="rect2516"
         inkscape:connector-curvature="0"
         sodipodi:nodetypes="ccccc" />
      <rect
         style="opacity:1;fill:#363c4d;fill-opacity:1;stroke:none;stroke-width:0.52916664;stroke-linecap:round;stroke-linejoin:round;stroke-miterlimit:4;stroke-dasharray:none;stroke-opacity:1"
         id="rect2520"
         width="3.96875"
         height="1.0583333"
         x="-7.0519204"
         y="289.55142" />
      <rect
         style="opacity:1;fill:#4b6477;fill-opacity:1;stroke:none;stroke-width:0.52916664;stroke-linecap:round;stroke-linejoin:round;stroke-miterlimit:4;stroke-dasharray:none;stroke-opacity:1"
         id="rect2520-1"
         width="3.4395831"
         height="0.52916455"
         x="-6.7873368"
         y="289.81601" />
      <rect
         style="opacity:1;fill:#363c4d;fill-opacity:1;stroke:none;stroke-width:0.52916664;stroke-linecap:round;stroke-linejoin:round;stroke-miterlimit:4;stroke-dasharray:none;stroke-opacity:1"
         id="rect2520-0"
         width="3.96875"
         height="1.0583333"
         x="-7.0519204"
         y="293.25558" />
      <rect
         style="opacity:1;fill:#4b6477;fill-opacity:1;stroke:none;stroke-width:0.52916664;stroke-linecap:round;stroke-linejoin:round;stroke-miterlimit:4;stroke-dasharray:none;stroke-opacity:1"
         id="rect2520-1-6"
         width="3.4395831"
         height="0.52916455"
         x="-6.7873368"
         y="293.52017" />
      <rect
         style="opacity:1;fill:#363c4d;fill-opacity:1;stroke:none;stroke-width:0.52916664;stroke-linecap:round;stroke-linejoin:round;stroke-miterlimit:4;stroke-dasharray:none;stroke-opacity:1"
         id="rect2520-0-1"
         width="3.96875"
         height="1.0583333"
         x="-7.0519204"
         y="291.4035" />
      <rect
         style="opacity:1;fill:#4b6477;fill-opacity:1;stroke:none;stroke-width:0.52916664;stroke-linecap:round;stroke-linejoin:round;stroke-miterlimit:4;stroke-dasharray:none;stroke-opacity:1"
         id="rect2520-1-6-5"
         width="3.4395831"
         height="0.52916455"
         x="-6.7873368"
         y="291.66809" />
    </g>
  </g>
</svg>
