<?xml version="1.0" encoding="UTF-8" standalone="no"?>
<!-- Created with Inkscape (http://www.inkscape.org/) -->

<svg
   xmlns:dc="http://purl.org/dc/elements/1.1/"
   xmlns:cc="http://creativecommons.org/ns#"
   xmlns:rdf="http://www.w3.org/1999/02/22-rdf-syntax-ns#"
   xmlns:svg="http://www.w3.org/2000/svg"
   xmlns="http://www.w3.org/2000/svg"
   xmlns:sodipodi="http://sodipodi.sourceforge.net/DTD/sodipodi-0.dtd"
   xmlns:inkscape="http://www.inkscape.org/namespaces/inkscape"
   width="48"
   height="48"
   viewBox="0 0 48 48"
   version="1.1"
   id="svg8"
   inkscape:version="0.92.3 (2405546, 2018-03-11)"
   sodipodi:docname="preferences-desktop-filetype-association.svg">
  <title
     id="title7895">Antu icon Theme</title>
  <defs
     id="defs2">
    <style
       type="text/css"
       id="current-color-scheme">
      .ColorScheme-Text {
        color:#122036;
      }
      </style>
    <style
       type="text/css"
       id="current-color-scheme-2">
      .ColorScheme-Text {
        color:#122036;
      }
      </style>
    <style
       type="text/css"
       id="current-color-scheme-0">
      .ColorScheme-Text {
        color:#122036;
      }
      </style>
  </defs>
  <sodipodi:namedview
     id="base"
     pagecolor="#ffffff"
     bordercolor="#666666"
     borderopacity="1.0"
     inkscape:pageopacity="0.0"
     inkscape:pageshadow="2"
     inkscape:zoom="11.313709"
     inkscape:cx="-2.1574305"
     inkscape:cy="25.902465"
     inkscape:document-units="px"
     inkscape:current-layer="layer1"
     showgrid="true"
     units="px"
     inkscape:window-width="1874"
     inkscape:window-height="1141"
     inkscape:window-x="46"
     inkscape:window-y="30"
     inkscape:window-maximized="1"
     objecttolerance="10"
     gridtolerance="10"
     guidetolerance="10"
     inkscape:snap-bbox="true"
     inkscape:bbox-paths="true"
     inkscape:bbox-nodes="true"
     inkscape:snap-bbox-edge-midpoints="true"
     inkscape:snap-bbox-midpoints="true"
     inkscape:object-paths="true"
     inkscape:snap-intersection-paths="true">
    <inkscape:grid
       type="xygrid"
       id="grid7897"
       empspacing="4" />
  </sodipodi:namedview>
  <metadata
     id="metadata5">
    <rdf:RDF>
      <cc:Work
         rdf:about="">
        <dc:format>image/svg+xml</dc:format>
        <dc:type
           rdf:resource="http://purl.org/dc/dcmitype/StillImage" />
        <dc:title>Antu icon Theme</dc:title>
      </cc:Work>
    </rdf:RDF>
  </metadata>
  <g
     inkscape:label="Capa 1"
     inkscape:groupmode="layer"
     id="layer1"
     transform="translate(0,-266.64999)">
    <g
       id="g7684"
       transform="translate(7.9999999,-4)">
      <path
         inkscape:connector-curvature="0"
         id="rect6397"
         d="M -4.9999997,274.64999 H 27 c 1.662,0 3,1.338 3,3 v 38 c 0,1.662 -1.338,3 -3,3 H -4.9999997 c -1.662,0 -3,-1.338 -3,-3 v -38 c 0,-1.662 1.338,-3 3,-3 z"
         style="opacity:1;vector-effect:none;fill:#d72f47;fill-opacity:0.98039216;stroke:none;stroke-width:6;stroke-linecap:square;stroke-linejoin:round;stroke-miterlimit:18;stroke-dasharray:none;stroke-dashoffset:0;stroke-opacity:1;paint-order:markers stroke fill" />
      <path
         sodipodi:nodetypes="sssssssss"
         inkscape:connector-curvature="0"
         id="rect6399"
         d="M -4.9999997,275.64999 H 27 c 1.108,0 2,0.892 2,2 v 38 c 0,1.108 -0.892,2 -2,2 H -4.9999997 c -1.108,0 -2,-0.892 -2,-2 v -38 c 0,-1.108 0.892,-2 2,-2 z"
         style="opacity:1;vector-effect:none;fill:#fe7688;fill-opacity:1;stroke:none;stroke-width:6;stroke-linecap:square;stroke-linejoin:round;stroke-miterlimit:18;stroke-dasharray:none;stroke-dashoffset:0;stroke-opacity:1;paint-order:markers stroke fill" />
      <path
         sodipodi:nodetypes="ccccccccccccccccc"
         inkscape:connector-curvature="0"
         id="path965"
         d="m 23,275.64999 c -6,13 -16.9999997,21 -30,25 v 3 1 2 1 c 5,0 8,5 8,10 h 3.0000003 c 0,-6 -3.0000003,-12 -8.0000003,-13 6,-1 11.0000003,-3 16,-6 -2.9999997,4 -3.9999997,16 -3.9999997,19 H 22 c -6,-13 -4,-24 7,-34 v -3 c -1,0 -5,3 -6,4 -0.01336,-2.0457 1.725629,-6.26542 4,-9 z"
         style="fill:#ffe8eb;fill-opacity:1;stroke:none;stroke-width:1px;stroke-linecap:butt;stroke-linejoin:miter;stroke-opacity:1" />
      <path
         inkscape:connector-curvature="0"
         id="rect6397-1"
         d="M 5.0000003,270.64999 H 37 c 1.662,0 3,1.338 3,3 v 38 c 0,1.662 -1.338,3 -3,3 H 5.0000003 c -1.662,0 -3.0000003,-1.338 -3.0000003,-3 v -38 c 0,-1.662 1.3380003,-3 3.0000003,-3 z"
         style="opacity:1;vector-effect:none;fill:#4f92db;fill-opacity:1;stroke:none;stroke-width:6;stroke-linecap:square;stroke-linejoin:round;stroke-miterlimit:18;stroke-dasharray:none;stroke-dashoffset:0;stroke-opacity:1;paint-order:markers stroke fill" />
      <path
         sodipodi:nodetypes="sssssssss"
         inkscape:connector-curvature="0"
         id="rect6399-4"
         d="M 5.0000003,271.64999 H 37 c 1.108,0 2,0.892 2,2 v 38 c 0,1.108 -0.892,2 -2,2 H 5.0000003 c -1.108,0 -2,-0.892 -2,-2 v -38 c 0,-1.108 0.892,-2 2,-2 z"
         style="opacity:1;vector-effect:none;fill:#5ac0ff;fill-opacity:1;stroke:none;stroke-width:6;stroke-linecap:square;stroke-linejoin:round;stroke-miterlimit:18;stroke-dasharray:none;stroke-dashoffset:0;stroke-opacity:1;paint-order:markers stroke fill" />
      <path
         inkscape:connector-curvature="0"
         style="opacity:1;vector-effect:none;fill:#e1f2fc;fill-opacity:1;stroke:none;stroke-width:2;stroke-linecap:round;stroke-linejoin:round;stroke-miterlimit:4;stroke-dasharray:none;stroke-dashoffset:0;stroke-opacity:1"
         d="m 10,282.64999 v 3 h 22 v -3 z m 0,6 v 3 h 22 v -3 z m 0,6 v 3 h 13 v -3 z m 0,6 v 3 h 22 v -3 z"
         id="rect3682-3" />
    </g>
  </g>
</svg>
