<?xml version="1.0" encoding="UTF-8" standalone="no"?>
<!-- Created with Inkscape (http://www.inkscape.org/) -->

<svg
   xmlns:dc="http://purl.org/dc/elements/1.1/"
   xmlns:cc="http://creativecommons.org/ns#"
   xmlns:rdf="http://www.w3.org/1999/02/22-rdf-syntax-ns#"
   xmlns:svg="http://www.w3.org/2000/svg"
   xmlns="http://www.w3.org/2000/svg"
   xmlns:sodipodi="http://sodipodi.sourceforge.net/DTD/sodipodi-0.dtd"
   xmlns:inkscape="http://www.inkscape.org/namespaces/inkscape"
   width="48"
   height="48"
   viewBox="0 0 12.7 12.7"
   version="1.1"
   id="svg1399"
   inkscape:version="0.92.4 5da689c313, 2019-01-14"
   sodipodi:docname="preferences-system-network-remote.svg">
  <defs
     id="defs1393" />
  <sodipodi:namedview
     id="base"
     pagecolor="#ffffff"
     bordercolor="#666666"
     borderopacity="1.0"
     inkscape:pageopacity="0.0"
     inkscape:pageshadow="2"
     inkscape:zoom="7.9195959"
     inkscape:cx="-15.98796"
     inkscape:cy="-0.67020984"
     inkscape:document-units="mm"
     inkscape:current-layer="layer1"
     showgrid="false"
     inkscape:showpageshadow="false"
     units="px"
     inkscape:window-width="1920"
     inkscape:window-height="999"
     inkscape:window-x="0"
     inkscape:window-y="0"
     inkscape:window-maximized="1" />
  <metadata
     id="metadata1396">
    <rdf:RDF>
      <cc:Work
         rdf:about="">
        <dc:format>image/svg+xml</dc:format>
        <dc:type
           rdf:resource="http://purl.org/dc/dcmitype/StillImage" />
        <dc:title></dc:title>
      </cc:Work>
    </rdf:RDF>
  </metadata>
  <g
     inkscape:label="Capa 1"
     inkscape:groupmode="layer"
     id="layer1"
     transform="translate(0,-284.30005)">
    <g
       transform="matrix(0.26458333,0,0,0.26458333,7.5942082e-5,213.74891)"
       id="g2189">
      <g
         transform="translate(79.767925,-10.587574)"
         inkscape:label="Capa 1"
         id="layer1-4">
        <g
           id="g6256"
           transform="translate(12,-6)">
          <g
             transform="translate(-79.768212,10.587574)"
             id="g971">
            <path
               style="opacity:1;vector-effect:none;fill:#a3b7cc;fill-opacity:1;stroke:none;stroke-width:6;stroke-linecap:square;stroke-linejoin:round;stroke-miterlimit:18;stroke-dasharray:none;stroke-dashoffset:0;stroke-opacity:1;paint-order:markers stroke fill"
               d="m 8,307.64999 c -0.554,0 -1,0.446 -1,1 v 4 c 0,0 0,1 -1,1 H 4 c -0.554,0 -1,0.446 -1,1 v 2 c 0,0.554 0.446,1 1,1 h 4 7 4 c 0.554,0 1,-0.446 1,-1 v -2 c 0,-0.554 -0.446,-1 -1,-1 h -2 c 0,0 -1,0.004 -1,-1 v -4 c 0,-0.554 -0.446,-1 -1,-1 z"
               id="rect5395"
               inkscape:connector-curvature="0"
               sodipodi:nodetypes="ssccssssccssssccsss" />
            <path
               style="opacity:1;vector-effect:none;fill:#e1ebf2;fill-opacity:1;stroke:none;stroke-width:6;stroke-linecap:square;stroke-linejoin:round;stroke-miterlimit:18;stroke-dasharray:none;stroke-dashoffset:0;stroke-opacity:1;paint-order:markers stroke fill"
               d="m 8.000287,308.64999 v 4 c 0,0 0.0074,2 -2,2 h -2 v 2 h 4 7 4 v -2 h -2 c 0,0 -2,0.007 -2,-2 v -4 z"
               id="rect5401"
               inkscape:connector-curvature="0"
               sodipodi:nodetypes="ccccccccccccc" />
            <path
               inkscape:connector-curvature="0"
               style="opacity:1;vector-effect:none;fill:#36404d;fill-opacity:1;stroke:none;stroke-width:6;stroke-linecap:square;stroke-linejoin:round;stroke-miterlimit:18;stroke-dasharray:none;stroke-dashoffset:0;stroke-opacity:1;paint-order:markers stroke fill"
               d="M -7.9999986,275.64999 H 31.999999 c 1.108,0 2.000001,0.892 2.000001,2 v 30 c 0,1.108 -0.892001,2 -2.000001,2 H -7.9999986 c -1.1080008,0 -2.0000014,-0.892 -2.0000014,-2 v -30 c 0,-1.108 0.8920006,-2 2.0000014,-2 z"
               id="rect5391" />
            <path
               inkscape:connector-curvature="0"
               style="opacity:1;vector-effect:none;fill:#5ca5ff;fill-opacity:1;stroke:none;stroke-width:6;stroke-linecap:square;stroke-linejoin:round;stroke-miterlimit:18;stroke-dasharray:none;stroke-dashoffset:0;stroke-opacity:1;paint-order:markers stroke fill"
               d="m -7,277.64999 h 38 c 0.554,0 1,0.446 1,1 v 28 c 0,0.554 -0.446,1 -1,1 H -7 c -0.554,0 -1,-0.446 -1,-1 v -28 c 0,-0.554 0.446,-1 1,-1 z"
               id="rect5393" />
          </g>
        </g>
      </g>
      <path
         inkscape:connector-curvature="0"
         id="path2130"
         d="m -28,282.64515 c -2.77,0 -5,2.23 -5,5 0,2.77 2.23,5 5,5 2.77,0 5,-2.23 5,-5 0,-2.77 -2.23,-5 -5,-5 z m 0,12 a 8,8 0 0 0 -8,8 h 8 8 a 8,8 0 0 0 -8,-8 z m -12,10 v 4 h 24 v -4 z"
         style="color:#36404d;fill:#e3f7ff;fill-opacity:1;stroke:none"
         transform="translate(52,-8.99516)" />
      <path
         inkscape:connector-curvature="0"
         id="rect2145"
         d="m -38,305.64515 v 2 h 2 v -2 z m 4,0 v 2 h 4 v -2 z m 6,0 v 2 h 5 v -2 z m 7,0 v 2 h 3 v -2 z"
         style="opacity:1;fill:#4972c5;fill-opacity:1;stroke:none;stroke-width:2;stroke-linecap:round;stroke-linejoin:round;stroke-miterlimit:4;stroke-dasharray:none;stroke-opacity:1"
         transform="translate(52,-8.99516)" />
      <g
         inkscape:label="Capa 1"
         id="layer1-6"
         transform="translate(17,1)">
        <g
           id="g2206"
           transform="translate(19,-11)">
          <path
             inkscape:connector-curvature="0"
             style="opacity:1;fill:#a3b7cc;fill-opacity:1;stroke:none;stroke-width:2.39314151;stroke-linecap:round;stroke-linejoin:round;stroke-miterlimit:4;stroke-dasharray:none;stroke-opacity:1"
             d="M -16,294.64999 H 9.999999 C 11.108,294.64999 12,295.542 12,296.65 v 25.99998 c 0,1.108 -0.892,2.00001 -2.000001,2.00001 H -16 c -1.108,0 -2,-0.89201 -2,-2.00001 V 296.65 c 0,-1.108 0.892,-2.00001 2,-2.00001 z"
             id="rect843" />
          <path
             inkscape:connector-curvature="0"
             style="opacity:1;fill:#f1f1f1;fill-opacity:1;stroke:none;stroke-width:2.23359871;stroke-linecap:round;stroke-linejoin:round;stroke-miterlimit:4;stroke-dasharray:none;stroke-opacity:1"
             d="M -16,295.65002 H 9.999999 C 10.554,295.65002 11,296.096 11,296.65 v 26.00001 C 11,323.20398 10.554,323.65 9.999999,323.65 H -16 c -0.554,0 -1,-0.44602 -1,-0.99999 V 296.65 c 0,-0.554 0.446,-0.99998 1,-0.99998 z"
             id="rect843-3" />
          <path
             id="rect6007-7-5"
             d="m -12,300.64999 c -0.554,0 -1,0.446 -1,1 v 2 c -0.554,0 -1,0.446 -1,1 v 1 c 0,0.554 0.446,1 1,1 v 3 c -0.554,0 -1,0.446 -1,1 v 1 c 0,0.554 0.446,1 1,1 v 4 c 0,0.554 0.446,1 1,1 h 4 v 1 c 0,0.554 0.446002,1 1,1 h 2 c 0,0.554 0.446,1 1,1 h 2 c 0.554,0 1,-0.446 1,-1 h 2 c 0.553998,0 1,-0.446 1,-1 v -1 h 4 c 0.554,0 1,-0.446 1,-1 v -4 c 0.554,0 1,-0.446 1,-1 v -1 c 0,-0.554 -0.446,-1 -1,-1 v -3 c 0.554,0 1,-0.446 1,-1 v -1 c 0,-0.554 -0.446,-1 -1,-1 v -2 c 0,-0.554 -0.446,-1 -1,-1 z"
             style="opacity:1;fill:#363c4d;fill-opacity:1;stroke:none;stroke-width:0.99999994;stroke-linecap:round;stroke-linejoin:bevel;stroke-miterlimit:4;stroke-dasharray:none;stroke-opacity:1"
             inkscape:connector-curvature="0" />
          <path
             id="rect1352"
             d="m -9,303.64999 c -0.554,0 -1,0.446 -1,1 v 5 c 0,0.554 0.446,1 1,1 0.554,0 1,-0.446 1,-1 v -5 c 0,-0.554 -0.446,-1 -1,-1 z m 4,0 c -0.554,0 -1,0.446 -1,1 v 5 c 0,0.554 0.446,1 1,1 0.554,0 1,-0.446 1,-1 v -5 c 0,-0.554 -0.446,-1 -1,-1 z m 4,0 c -0.554,0 -1,0.446 -1,1 v 5 c 0,0.554 0.446,1 1,1 0.554,0 1,-0.446 1,-1 v -5 c 0,-0.554 -0.446,-1 -1,-1 z m 4,0 c -0.554,0 -1,0.446 -1,1 v 5 c 0,0.554 0.446,1 1,1 0.554,0 1,-0.446 1,-1 v -5 c 0,-0.554 -0.446,-1 -1,-1 z"
             style="opacity:1;fill:#ffd84d;fill-opacity:1;stroke:none;stroke-width:2;stroke-linecap:round;stroke-linejoin:round;stroke-miterlimit:4;stroke-dasharray:none;stroke-opacity:1"
             inkscape:connector-curvature="0" />
        </g>
      </g>
    </g>
  </g>
</svg>
