<?xml version="1.0" encoding="UTF-8" standalone="no"?>
<!-- Created with Inkscape (http://www.inkscape.org/) -->

<svg
   xmlns:dc="http://purl.org/dc/elements/1.1/"
   xmlns:cc="http://creativecommons.org/ns#"
   xmlns:rdf="http://www.w3.org/1999/02/22-rdf-syntax-ns#"
   xmlns:svg="http://www.w3.org/2000/svg"
   xmlns="http://www.w3.org/2000/svg"
   xmlns:sodipodi="http://sodipodi.sourceforge.net/DTD/sodipodi-0.dtd"
   xmlns:inkscape="http://www.inkscape.org/namespaces/inkscape"
   width="48"
   height="48"
   viewBox="0 0 12.7 12.7"
   version="1.1"
   id="svg1399"
   inkscape:version="0.92.4 5da689c313, 2019-01-14"
   sodipodi:docname="preferences-system-network-server-ldap.svg">
  <defs
     id="defs1393" />
  <sodipodi:namedview
     id="base"
     pagecolor="#ffffff"
     bordercolor="#666666"
     borderopacity="1.0"
     inkscape:pageopacity="0.0"
     inkscape:pageshadow="2"
     inkscape:zoom="7.9195959"
     inkscape:cx="30.848874"
     inkscape:cy="9.2405487"
     inkscape:document-units="mm"
     inkscape:current-layer="layer1"
     showgrid="true"
     inkscape:showpageshadow="false"
     units="px"
     inkscape:window-width="1920"
     inkscape:window-height="999"
     inkscape:window-x="0"
     inkscape:window-y="0"
     inkscape:window-maximized="1">
    <inkscape:grid
       type="xygrid"
       id="grid1530" />
  </sodipodi:namedview>
  <metadata
     id="metadata1396">
    <rdf:RDF>
      <cc:Work
         rdf:about="">
        <dc:format>image/svg+xml</dc:format>
        <dc:type
           rdf:resource="http://purl.org/dc/dcmitype/StillImage" />
        <dc:title></dc:title>
      </cc:Work>
    </rdf:RDF>
  </metadata>
  <g
     inkscape:label="Capa 1"
     inkscape:groupmode="layer"
     id="layer1"
     transform="translate(0,-284.30005)">
    <g
       id="g1528"
       transform="translate(17.007372,-2.407775)">
      <path
         inkscape:connector-curvature="0"
         id="rect942"
         d="m -6.6886236,287.76616 h 1.3229191 c 0.146578,0 0.264582,0.118 0.264582,0.26458 v 2.11667 c 0,0.14658 -0.118004,0.26458 -0.264582,0.26458 h -1.3229191 c -0.1465786,0 -0.2645822,-0.118 -0.2645822,-0.26458 v -2.11667 c 0,-0.14658 0.1180036,-0.26458 0.2645822,-0.26458 z"
         style="opacity:1;fill:#d72f4a;fill-opacity:0.98039216;stroke:none;stroke-width:0.52916664;stroke-linecap:round;stroke-linejoin:round;stroke-miterlimit:4;stroke-dasharray:none;stroke-opacity:1" />
      <path
         inkscape:connector-curvature="0"
         id="rect944"
         d="m -6.6886225,288.03074 h 1.322917 v 2.11667 h -1.322917 z"
         style="opacity:1;fill:#fe7688;fill-opacity:1;stroke:none;stroke-width:0.52916664;stroke-linecap:round;stroke-linejoin:round;stroke-miterlimit:4;stroke-dasharray:none;stroke-opacity:1" />
      <path
         inkscape:connector-curvature="0"
         id="rect942-5"
         d="m -6.6886236,290.41199 h 1.3229191 c 0.146578,0 0.264582,0.118 0.264582,0.26458 v 2.11667 c 0,0.14658 -0.118004,0.26458 -0.264582,0.26458 h -1.3229191 c -0.1465786,0 -0.2645822,-0.118 -0.2645822,-0.26458 v -2.11667 c 0,-0.14658 0.1180036,-0.26458 0.2645822,-0.26458 z"
         style="opacity:1;fill:#287bc2;fill-opacity:0.98039216;stroke:none;stroke-width:0.52916664;stroke-linecap:round;stroke-linejoin:round;stroke-miterlimit:4;stroke-dasharray:none;stroke-opacity:1" />
      <path
         inkscape:connector-curvature="0"
         id="rect944-9"
         d="m -6.6886225,290.67657 h 1.322917 v 2.11667 h -1.322917 z"
         style="opacity:1;fill:#77bffe;fill-opacity:1;stroke:none;stroke-width:0.52916664;stroke-linecap:round;stroke-linejoin:round;stroke-miterlimit:4;stroke-dasharray:none;stroke-opacity:1" />
      <path
         inkscape:connector-curvature="0"
         id="rect942-2"
         d="m -6.6886236,293.05782 h 1.3229191 c 0.146578,0 0.264582,0.11801 0.264582,0.26459 v 2.11666 c 0,0.14658 -0.118004,0.26459 -0.264582,0.26459 h -1.3229191 c -0.1465786,0 -0.2645822,-0.11801 -0.2645822,-0.26459 v -2.11666 c 0,-0.14658 0.1180036,-0.26459 0.2645822,-0.26459 z"
         style="opacity:1;fill:#60963f;fill-opacity:0.98039216;stroke:none;stroke-width:0.52916664;stroke-linecap:round;stroke-linejoin:round;stroke-miterlimit:4;stroke-dasharray:none;stroke-opacity:1" />
      <path
         inkscape:connector-curvature="0"
         id="rect944-2"
         d="m -6.6886225,293.32241 h 1.322917 v 2.11666 h -1.322917 z"
         style="opacity:1;fill:#9fd47e;fill-opacity:1;stroke:none;stroke-width:0.52916664;stroke-linecap:round;stroke-linejoin:round;stroke-miterlimit:4;stroke-dasharray:none;stroke-opacity:1" />
      <path
         inkscape:connector-curvature="0"
         id="rect942-8"
         d="m -6.6886236,295.70366 h 1.3229191 c 0.146578,0 0.264582,0.118 0.264582,0.26458 v 2.11667 c 0,0.14658 -0.118004,0.26458 -0.264582,0.26458 h -1.3229191 c -0.1465786,0 -0.2645822,-0.118 -0.2645822,-0.26458 v -2.11667 c 0,-0.14658 0.1180036,-0.26458 0.2645822,-0.26458 z"
         style="opacity:1;fill:#f37d5c;fill-opacity:0.98039216;stroke:none;stroke-width:0.52916664;stroke-linecap:round;stroke-linejoin:round;stroke-miterlimit:4;stroke-dasharray:none;stroke-opacity:1" />
      <path
         inkscape:connector-curvature="0"
         id="rect944-97"
         d="m -6.6886225,295.96824 h 1.322917 v 2.11667 h -1.322917 z"
         style="opacity:1;fill:#ffb6a2;fill-opacity:1;stroke:none;stroke-width:0.52916664;stroke-linecap:round;stroke-linejoin:round;stroke-miterlimit:4;stroke-dasharray:none;stroke-opacity:1" />
      <path
         inkscape:connector-curvature="0"
         id="rect1032"
         d="m -5.8948725,288.55991 h 0.264583 v 1.05833 h -0.264583 z"
         style="opacity:1;fill:#d72f4a;fill-opacity:0.98039216;stroke:none;stroke-width:0.52916664;stroke-linecap:round;stroke-linejoin:round;stroke-miterlimit:4;stroke-dasharray:none;stroke-opacity:1" />
      <path
         id="rect1032-3"
         d="m -5.8948725,291.20574 h 0.264583 v 1.05833 h -0.264583 z"
         style="opacity:1;fill:#287bc2;fill-opacity:0.98039216;stroke:none;stroke-width:0.52916664;stroke-linecap:round;stroke-linejoin:round;stroke-miterlimit:4;stroke-dasharray:none;stroke-opacity:1"
         inkscape:connector-curvature="0" />
      <path
         id="rect1032-6"
         d="m -5.8948725,293.85157 h 0.264583 v 1.05834 h -0.264583 z"
         style="opacity:1;fill:#60963f;fill-opacity:0.98039216;stroke:none;stroke-width:0.52916664;stroke-linecap:round;stroke-linejoin:round;stroke-miterlimit:4;stroke-dasharray:none;stroke-opacity:1"
         inkscape:connector-curvature="0" />
      <path
         id="rect1032-1"
         d="m -5.8948725,296.49741 h 0.264583 v 1.05833 h -0.264583 z"
         style="opacity:1;fill:#f37d5c;fill-opacity:0.98039216;stroke:none;stroke-width:0.52916664;stroke-linecap:round;stroke-linejoin:round;stroke-miterlimit:4;stroke-dasharray:none;stroke-opacity:1"
         inkscape:connector-curvature="0" />
      <path
         style="opacity:1;fill:#36404d;fill-opacity:1;stroke:none;stroke-width:0.26458332;stroke-linecap:round;stroke-linejoin:round;stroke-miterlimit:4;stroke-dasharray:none;stroke-opacity:1"
         d="m -15.419872,287.23699 c -0.439738,0 -0.79375,0.35401 -0.79375,0.79375 v 2.64583 0.79375 6.61459 c 0,0.43973 0.354012,0.79375 0.79375,0.79375 h 8.4666662 c 0.4397375,0 0.7937503,-0.35402 0.7937503,-0.79375 v -5.82084 -0.79375 -0.79375 -2.64583 c 0,-0.43974 -0.3540128,-0.79375 -0.7937503,-0.79375 z"
         id="rect900"
         inkscape:connector-curvature="0" />
      <path
         inkscape:connector-curvature="0"
         style="opacity:1;fill:#4b6477;fill-opacity:1;stroke:none;stroke-width:0.25255683;stroke-linecap:round;stroke-linejoin:round;stroke-miterlimit:4;stroke-dasharray:none;stroke-opacity:1"
         d="m -14.626122,287.50157 v 11.1125 h 7.6729162 c 0.2931583,0 0.5291666,-0.23601 0.5291666,-0.52916 v -5.29167 -1.32292 -0.79375 -0.26458 -2.38125 c 0,-0.29316 -0.2360083,-0.52917 -0.5291666,-0.52917 z"
         id="rect900-3" />
      <path
         inkscape:connector-curvature="0"
         style="opacity:1;fill:#edeeee;fill-opacity:1;stroke:none;stroke-width:0.4881728;stroke-linecap:round;stroke-linejoin:round;stroke-miterlimit:4;stroke-dasharray:none;stroke-opacity:1"
         d="m -10.657372,290.41199 c -0.732896,0 -1.322917,0.59002 -1.322917,1.32292 0,0.73289 0.590021,1.32291 1.322917,1.32291 0.7328953,0 1.3229162,-0.59002 1.3229162,-1.32291 0,-0.7329 -0.5900209,-1.32292 -1.3229162,-1.32292 z m 0,3.175 c -1.169003,0 -2.116667,0.94766 -2.116667,2.11667 1.610526,0.35535 2.667556,0.35021 4.2333332,0 0,-1.16901 -0.947664,-2.11667 -2.1166662,-2.11667 z"
         id="path906" />
    </g>
  </g>
</svg>
