<?xml version="1.0" encoding="UTF-8" standalone="no"?>
<!-- Created with Inkscape (http://www.inkscape.org/) -->

<svg
   xmlns:dc="http://purl.org/dc/elements/1.1/"
   xmlns:cc="http://creativecommons.org/ns#"
   xmlns:rdf="http://www.w3.org/1999/02/22-rdf-syntax-ns#"
   xmlns:svg="http://www.w3.org/2000/svg"
   xmlns="http://www.w3.org/2000/svg"
   xmlns:sodipodi="http://sodipodi.sourceforge.net/DTD/sodipodi-0.dtd"
   xmlns:inkscape="http://www.inkscape.org/namespaces/inkscape"
   width="48"
   height="48"
   viewBox="0 0 12.7 12.7"
   version="1.1"
   id="svg1399"
   inkscape:version="0.92.4 5da689c313, 2019-01-14"
   sodipodi:docname="preferences-system-network-vpn.svg">
  <defs
     id="defs1393" />
  <sodipodi:namedview
     id="base"
     pagecolor="#ffffff"
     bordercolor="#666666"
     borderopacity="1.0"
     inkscape:pageopacity="0.0"
     inkscape:pageshadow="2"
     inkscape:zoom="7.9195959"
     inkscape:cx="-15.98796"
     inkscape:cy="-0.67020984"
     inkscape:document-units="px"
     inkscape:current-layer="layer1"
     showgrid="false"
     inkscape:showpageshadow="false"
     units="px"
     inkscape:window-width="1920"
     inkscape:window-height="999"
     inkscape:window-x="0"
     inkscape:window-y="0"
     inkscape:window-maximized="1" />
  <metadata
     id="metadata1396">
    <rdf:RDF>
      <cc:Work
         rdf:about="">
        <dc:format>image/svg+xml</dc:format>
        <dc:type
           rdf:resource="http://purl.org/dc/dcmitype/StillImage" />
        <dc:title></dc:title>
      </cc:Work>
    </rdf:RDF>
  </metadata>
  <g
     inkscape:label="Capa 1"
     inkscape:groupmode="layer"
     id="layer1"
     transform="translate(0,-284.30005)">
    <g
       id="g4139"
       transform="translate(11.458844,-5.1834)">
      <path
         inkscape:connector-curvature="0"
         id="rect4544-5-5-9-9"
         d="m -5.108846,290.01259 h 6.6e-6 c 3.2247406,0 5.82082969,2.59609 5.82082969,5.82083 0,3.22474 -2.59608909,5.82083 -5.82082969,5.82083 h -6.6e-6 c -3.2247407,0 -5.820831,-2.59609 -5.820831,-5.82083 0,-3.22474 2.5960903,-5.82083 5.820831,-5.82083 z"
         style="opacity:1;fill:#36404d;fill-opacity:0.99259255;stroke:none;stroke-width:0.08315477;stroke-miterlimit:4;stroke-dasharray:none;stroke-opacity:1" />
      <path
         inkscape:connector-curvature="0"
         id="rect4544-5-5-9"
         d="m -5.1088428,290.27718 h 6e-6 c 3.078162,0 5.55624709,2.47808 5.55624709,5.55624 0,3.07817 -2.47808509,5.55625 -5.55624709,5.55625 h -6e-6 c -3.0781617,0 -5.5562472,-2.47808 -5.5562472,-5.55625 0,-3.07816 2.4780855,-5.55624 5.5562472,-5.55624 z"
         style="opacity:1;fill:#4b6477;fill-opacity:1;stroke:none;stroke-width:0.07937501;stroke-miterlimit:4;stroke-dasharray:none;stroke-opacity:1" />
      <path
         id="path1818"
         d="m -4.7202358,290.31645 c -0.1156869,-0.008 -0.2260711,-0.0337 -0.3436485,-0.0346 -0.287528,0.27023 -0.6091171,0.53952 -0.8474935,0.8108 -0.039132,-0.0128 -0.079973,-0.0217 -0.1235067,-0.0217 -0.2198682,0 -0.3968753,0.17701 -0.3968753,0.39688 0,0.072 0.020521,0.13829 0.05374,0.19637 -0.524214,0.69199 -0.8968431,1.38209 -1.1472159,2.06241 -0.03191,-0.005 -0.0639,-0.01 -0.09715,-0.01 -0.2273069,0 -0.4267311,0.11366 -0.5457031,0.28732 -0.532403,-0.25434 -1.089131,-0.63791 -1.655713,-1.08831 -0.04684,0.0757 -0.08389,0.15752 -0.127124,0.23565 0.571771,0.44978 1.136202,0.83521 1.6805171,1.09347 -0.0087,0.043 -0.01344,0.0877 -0.01344,0.13333 0,0.2836 0.177599,0.52262 0.427364,0.61701 -0.09328,0.59801 -0.09889,1.18305 -0.02946,1.74718 0.03408,0.27692 0.08531,0.54891 0.1514121,0.81494 -0.6443541,0.30451 -1.3251091,0.7652 -2.0257161,1.31103 0.01569,0.0241 0.02529,0.0522 0.04134,0.076 0.03332,0.0494 0.07831,0.0892 0.113171,0.13746 0.675481,-0.52729 1.3289759,-0.972 1.9430341,-1.26659 0.1901849,0.65941 0.4708189,1.27984 0.8061529,1.85208 -0.06437,0.0705 -0.1043868,0.16374 -0.1043868,0.26717 0,0.21986 0.1770059,0.39687 0.396875,0.39687 0.04353,0 0.08437,-0.009 0.1235069,-0.0217 0.261891,0.37336 0.5455873,0.71268 0.8366411,1.03043 0.1558779,0.0139 0.3062052,0.0457 0.4656048,0.0465 -0.376441,-0.38145 -0.758725,-0.76295 -1.091406,-1.2392 0.03914,-0.0615 0.06253,-0.13427 0.06253,-0.2129 0,-0.21987 -0.177006,-0.39688 -0.396875,-0.39688 -0.019151,0 -0.0374,0.003 -0.05581,0.006 -0.3345899,-0.56933 -0.613774,-1.18594 -0.7989181,-1.83968 0.7255351,-0.31807 1.4110708,-0.48231 2.0655074,-0.52451 0.069645,0.29085 0.3285069,0.50643 0.6413045,0.50643 0.2864887,0 0.5272712,-0.18132 0.6196004,-0.43512 0.4700384,0.0852 0.9264423,0.23173 1.3720093,0.4315 -0.243736,1.03308 -0.1097788,2.13247 0.2583821,3.01274 0.078133,-0.0425 0.1588246,-0.0805 0.234611,-0.12661 -0.3289043,-0.80814 -0.4572238,-1.82478 -0.2490803,-2.76986 0.6459246,0.3194 1.2657391,0.76996 1.87740469,1.26814 0.03075,-0.0429 0.07071,-0.0782 0.100252,-0.12195 0.01996,-0.0296 0.03176,-0.0646 0.05116,-0.0946 -0.63396489,-0.51521 -1.28003609,-0.98303 -1.96112069,-1.31362 0.1318459,-0.45204 0.3445788,-0.88061 0.6521567,-1.25832 0.1063291,0.0527 0.2247669,0.0848 0.3519164,0.0848 0.041133,0 0.080476,-0.006 0.1198894,-0.0119 0.00132,0.002 0.0023,0.004 0.00362,0.006 0.31116109,0.43562 0.82848519,0.79503 1.46037619,1.10381 0.0254,-0.083 0.0549,-0.16392 0.07648,-0.24857 -0.549106,-0.27412 -0.999977,-0.58483 -1.27640809,-0.95136 0.24368509,-0.1352 0.40979509,-0.39192 0.40979509,-0.69143 0,-0.0647 -0.0098,-0.12643 -0.02429,-0.18655 0.290318,-0.14824 0.633464,-0.25781 1.002523,-0.34727 -0.01242,-0.0863 -0.01004,-0.17708 -0.02635,-0.262 -0.394354,0.0944 -0.762576,0.21137 -1.07642,0.37156 -0.140469,-0.22178 -0.38617969,-0.36949 -0.66920959,-0.36949 -0.059912,0 -0.1175819,0.008 -0.1736328,0.0202 -0.014822,-0.13814 -0.024805,-0.27718 -0.024805,-0.41702 0,-0.87413 0.2637994,-1.68707 0.5183145,-2.36678 -0.032951,-0.0347 -0.057631,-0.0768 -0.091466,-0.11059 -0.055394,-0.0554 -0.1236888,-0.0963 -0.1813843,-0.14935 -0.624731,1.15233 -1.6802063,2.20697 -3.0628622,2.6324 -0.7613145,0.23425 -1.6176604,0.27932 -2.5460979,0.0532 0.00169,-0.0197 0.0057,-0.0388 0.0057,-0.0589 0,-0.24102 -0.1287659,-0.44923 -0.320394,-0.56483 0.2388311,-0.64977 0.595477,-1.31104 1.099675,-1.97714 0.045489,0.0181 0.094679,0.0284 0.1467609,0.0284 0.2198688,0 0.396875,-0.177 0.396875,-0.39687 0,-0.0797 -0.023926,-0.15343 -0.064079,-0.21549 0.2757308,-0.31165 0.6373111,-0.62378 0.9818523,-0.93586 z m 3.1264241,2.33629 c -0.1540293,0.53435 -0.2733683,1.12569 -0.2733683,1.72548 0,0.17396 0.014626,0.34833 0.037207,0.52193 -0.2212316,0.14057 -0.3684529,0.38607 -0.3684529,0.66869 0,0.21882 0.087701,0.41635 0.2299602,0.55966 -0.3179217,0.39127 -0.5417293,0.83247 -0.6821289,1.29501 -0.4538509,-0.20021 -0.920645,-0.3483 -1.4035323,-0.43512 -0.018756,-0.3494 -0.3035975,-0.6258 -0.6578409,-0.6258 -0.3291343,0 -0.598727,0.23844 -0.6506062,0.55242 -0.6773278,0.0435 -1.3835616,0.21185 -2.1249347,0.53227 -0.05845,-0.24156 -0.105144,-0.48694 -0.135909,-0.73691 -0.0665,-0.54033 -0.06047,-1.10031 0.02739,-1.67328 0.2423782,-0.01 0.4484921,-0.14795 0.5555221,-0.34933 0.9786385,0.24132 1.8884686,0.19845 2.6980261,-0.0506 1.1429582,-0.35168 2.0807476,-1.09816 2.7486695,-1.98438 z"
         style="opacity:1;vector-effect:none;fill:#e1ebf2;fill-opacity:1;stroke:none;stroke-width:0.26458332;stroke-linecap:round;stroke-linejoin:round;stroke-miterlimit:4;stroke-dasharray:none;stroke-dashoffset:0;stroke-opacity:1"
         inkscape:connector-curvature="0" />
      <path
         id="rect4496-2-5"
         d="m -6.6963436,294.24595 v 3.96875 c 0,2.19867 1.7700627,3.96875 3.96875,3.96875 2.19868789,0 3.9687499,-1.77008 3.9687499,-3.96875 v -3.96875 h -3.9687499 z"
         style="fill:#f4aa3d;fill-opacity:1;stroke:none;stroke-width:0.38884729;stroke-linecap:round;stroke-linejoin:round;stroke-miterlimit:4;stroke-dasharray:none;stroke-opacity:1"
         inkscape:connector-curvature="0" />
      <path
         id="rect4570-9-6-3-6"
         d="m -6.4317603,294.51053 v 3.70417 c 0,2.05212 1.6520586,3.70417 3.7041667,3.70417 2.05210789,0 3.70416689,-1.65205 3.70416689,-3.70417 v -3.70417 H -2.7275936 Z"
         style="fill:#ffd94c;fill-opacity:1;stroke:none;stroke-width:0.37100008;stroke-linecap:round;stroke-linejoin:round;stroke-miterlimit:4;stroke-dasharray:none;stroke-opacity:1"
         inkscape:connector-curvature="0" />
      <path
         id="rect3500"
         d="m -6.4317603,294.51053 v 3.70417 h 3.7041667 v -3.70417 z m 3.7041667,3.70417 v 3.70417 c 0.2565135,0 0.506708,-0.0257 0.7482747,-0.0749 0.2415667,-0.0492 0.4743524,-0.12202 0.6960815,-0.21549 0.2217293,-0.0935 0.43241769,-0.20768 0.62941869,-0.34055 0.197001,-0.13287 0.380388,-0.28427 0.54777,-0.45165 0.167382,-0.16739 0.31878,-0.35077 0.451652,-0.54777 0.132873,-0.19701 0.247076,-0.40769 0.340548,-0.62942 0.09347,-0.22173 0.166309,-0.45452 0.215491,-0.69609 0.04918,-0.24156 0.07493,-0.49175 0.07493,-0.74827 z"
         style="opacity:1;fill:#ffeeb0;fill-opacity:1;stroke:none;stroke-width:0.52916664;stroke-linecap:round;stroke-linejoin:round;stroke-miterlimit:4;stroke-dasharray:none;stroke-opacity:1"
         inkscape:connector-curvature="0" />
    </g>
  </g>
</svg>
