<?xml version="1.0" encoding="UTF-8" standalone="no"?>
<!-- Created with Inkscape (http://www.inkscape.org/) -->

<svg
   xmlns:dc="http://purl.org/dc/elements/1.1/"
   xmlns:cc="http://creativecommons.org/ns#"
   xmlns:rdf="http://www.w3.org/1999/02/22-rdf-syntax-ns#"
   xmlns:svg="http://www.w3.org/2000/svg"
   xmlns="http://www.w3.org/2000/svg"
   xmlns:sodipodi="http://sodipodi.sourceforge.net/DTD/sodipodi-0.dtd"
   xmlns:inkscape="http://www.inkscape.org/namespaces/inkscape"
   width="48"
   height="48"
   viewBox="0 0 12.7 12.7"
   version="1.1"
   id="svg1399"
   inkscape:version="0.92.4 5da689c313, 2019-01-14"
   sodipodi:docname="preferences-system-windows-move.svg">
  <defs
     id="defs1393" />
  <sodipodi:namedview
     id="base"
     pagecolor="#ffffff"
     bordercolor="#666666"
     borderopacity="1.0"
     inkscape:pageopacity="0.0"
     inkscape:pageshadow="2"
     inkscape:zoom="44.8"
     inkscape:cx="23.442639"
     inkscape:cy="21.405835"
     inkscape:document-units="px"
     inkscape:current-layer="layer1"
     showgrid="true"
     inkscape:showpageshadow="false"
     units="px"
     inkscape:window-width="1920"
     inkscape:window-height="999"
     inkscape:window-x="0"
     inkscape:window-y="0"
     inkscape:window-maximized="1">
    <inkscape:grid
       type="xygrid"
       id="grid822" />
  </sodipodi:namedview>
  <metadata
     id="metadata1396">
    <rdf:RDF>
      <cc:Work
         rdf:about="">
        <dc:format>image/svg+xml</dc:format>
        <dc:type
           rdf:resource="http://purl.org/dc/dcmitype/StillImage" />
        <dc:title />
      </cc:Work>
    </rdf:RDF>
  </metadata>
  <g
     inkscape:label="Capa 1"
     inkscape:groupmode="layer"
     id="layer1"
     transform="translate(0,-284.30005)">
    <g
       id="g2151"
       transform="translate(12.664243,-5.180695)">
      <path
         sodipodi:nodetypes="sccssssssss"
         inkscape:connector-curvature="0"
         id="rect9183-4-4"
         d="m -12.135073,290.80367 h 4.7560899 1.3293299 5.55625008 c 0.29315,0 0.529161,0.236 0.529161,0.52916 v 9.525 c 0,0.29316 -0.236011,0.52916 -0.529171,0.52916 H -12.135073 c -0.29316,0 -0.52917,-0.236 -0.52917,-0.52916 v -9.525 c 0,-0.29316 0.23601,-0.52916 0.52917,-0.52916 z"
         style="opacity:1;fill:#a3b7cc;fill-opacity:1;stroke:none;stroke-width:0.26458332;stroke-opacity:1" />
      <path
         sodipodi:nodetypes="csccssccc"
         id="rect9179-4-3"
         d="m -12.135075,301.12241 c -0.14658,8e-4 -0.264583,-0.11801 -0.264583,-0.26458 l -10e-7,-8.20208 h 12.17083288 l 2e-6,8.20208 c 0,0.14657 -0.118005,0.26458 -0.264585,0.26458 H -6.314242 -7.3725751 Z"
         style="opacity:0.98999999;fill:#f1f1f1;fill-opacity:1;stroke:none;stroke-width:0.26458332;stroke-opacity:1"
         inkscape:connector-curvature="0" />
      <path
         style="opacity:1;vector-effect:none;fill:#36404d;fill-opacity:1;stroke:none;stroke-width:0.52916664;stroke-linecap:round;stroke-linejoin:round;stroke-miterlimit:4;stroke-dasharray:none;stroke-dashoffset:0;stroke-opacity:1;paint-order:markers stroke fill"
         d="m -12.135076,290.2745 c -0.293156,0 -0.529167,0.23601 -0.529167,0.52917 v 1.32291 0.26459 0.52916 h 0.529167 11.64166688 0.529166 v -0.52916 -0.26459 -1.32291 c 0,-0.29316 -0.23601,-0.52917 -0.529166,-0.52917 z"
         id="rect14800"
         inkscape:connector-curvature="0"
         sodipodi:nodetypes="ssccccccccsss" />
      <path
         sodipodi:nodetypes="cccsssscccccc"
         id="rect4523"
         d="m -12.399659,292.65575 v -0.52917 -1.05833 -0.26459 c 0,-0.14658 0.118004,-0.26458 0.264583,-0.26458 h 11.64166688 c 0.14658,0 0.264583,0.118 0.264583,0.26458 v 0.26459 1.05833 0.52917 h -0.264583 -11.64166688 z"
         style="opacity:0.98999999;fill:#4b6477;fill-opacity:1;stroke:none;stroke-width:0.07937501;stroke-miterlimit:4;stroke-dasharray:none;stroke-opacity:1"
         inkscape:connector-curvature="0" />
      <path
         inkscape:connector-curvature="0"
         id="path883"
         d="m -7.9167291,291.59788 c -0.1401352,0.008 -0.2496709,0.1237 -0.2495971,0.26406 v 5.29115 c 1.405e-4,0.17567 0.1680041,0.30243 0.3369305,0.25425 l 1.7022215,-0.48576 0.9487794,0.94775 c 0.1666306,0.1656 0.4508733,0.0484 0.451652,-0.18655 v -1.46038 l 1.2236979,-0.97927 c 0.1345216,-0.1082 0.1308245,-0.3139 -0.00723,-0.41754 l -4.2328177,-3.175 c -0.049856,-0.0375 -0.1113515,-0.0562 -0.1736328,-0.0527 z m 4.5129029,3.96823 v 0.26458 h 2.1166671 v -0.26458 z m -0.79375,0.52917 v 0.26458 h 2.3812501 v -0.26458 z m -0.2645833,0.52916 v 0.26459 h 1.8520834 v -0.26459 z m 0,0.52917 v 0.26458 h 1.3229167 v -0.26458 z m 0,0.52917 v 0.26458 h 2.3812504 v -0.26458 z"
         style="color:#000000;font-style:normal;font-variant:normal;font-weight:normal;font-stretch:normal;font-size:medium;line-height:normal;font-family:sans-serif;font-variant-ligatures:normal;font-variant-position:normal;font-variant-caps:normal;font-variant-numeric:normal;font-variant-alternates:normal;font-feature-settings:normal;text-indent:0;text-align:start;text-decoration:none;text-decoration-line:none;text-decoration-style:solid;text-decoration-color:#000000;letter-spacing:normal;word-spacing:normal;text-transform:none;writing-mode:lr-tb;direction:ltr;text-orientation:mixed;dominant-baseline:auto;baseline-shift:baseline;text-anchor:start;white-space:normal;shape-padding:0;clip-rule:nonzero;display:inline;overflow:visible;visibility:visible;opacity:1;isolation:auto;mix-blend-mode:normal;color-interpolation:sRGB;color-interpolation-filters:linearRGB;solid-color:#000000;solid-opacity:1;vector-effect:none;fill:#2f2f2f;fill-opacity:1;fill-rule:nonzero;stroke:none;stroke-width:0.52916664;stroke-linecap:round;stroke-linejoin:round;stroke-miterlimit:4;stroke-dasharray:none;stroke-dashoffset:0;stroke-opacity:1;color-rendering:auto;image-rendering:auto;shape-rendering:auto;text-rendering:auto;enable-background:accumulate" />
      <path
         sodipodi:nodetypes="ccccccc"
         inkscape:connector-curvature="0"
         id="path883-7"
         d="m -7.9017426,291.86194 v 5.29167 l 1.8520831,-0.52917 1.0583333,1.05834 v -1.5875 l 1.3229167,-1.05834 z"
         style="fill:#f9f9f9;fill-opacity:1;stroke:none;stroke-width:0.52916664;stroke-linecap:round;stroke-linejoin:round;stroke-miterlimit:4;stroke-dasharray:none;stroke-opacity:1" />
    </g>
  </g>
</svg>
