<?xml version="1.0" encoding="UTF-8" standalone="no"?>
<!-- Created with Inkscape (http://www.inkscape.org/) -->

<svg
   xmlns:dc="http://purl.org/dc/elements/1.1/"
   xmlns:cc="http://creativecommons.org/ns#"
   xmlns:rdf="http://www.w3.org/1999/02/22-rdf-syntax-ns#"
   xmlns:svg="http://www.w3.org/2000/svg"
   xmlns="http://www.w3.org/2000/svg"
   xmlns:sodipodi="http://sodipodi.sourceforge.net/DTD/sodipodi-0.dtd"
   xmlns:inkscape="http://www.inkscape.org/namespaces/inkscape"
   width="48"
   height="48"
   viewBox="0 0 12.7 12.7"
   version="1.1"
   id="svg1399"
   inkscape:version="0.92.4 5da689c313, 2019-01-14"
   sodipodi:docname="preferences-system-linux.svg">
  <defs
     id="defs1393" />
  <sodipodi:namedview
     id="base"
     pagecolor="#ffffff"
     bordercolor="#666666"
     borderopacity="1.0"
     inkscape:pageopacity="0.0"
     inkscape:pageshadow="2"
     inkscape:zoom="7.9195959"
     inkscape:cx="-15.98796"
     inkscape:cy="-0.67020984"
     inkscape:document-units="mm"
     inkscape:current-layer="layer1"
     showgrid="false"
     inkscape:showpageshadow="false"
     units="px"
     inkscape:window-width="1920"
     inkscape:window-height="999"
     inkscape:window-x="0"
     inkscape:window-y="0"
     inkscape:window-maximized="1" />
  <metadata
     id="metadata1396">
    <rdf:RDF>
      <cc:Work
         rdf:about="">
        <dc:format>image/svg+xml</dc:format>
        <dc:type
           rdf:resource="http://purl.org/dc/dcmitype/StillImage" />
        <dc:title></dc:title>
      </cc:Work>
    </rdf:RDF>
  </metadata>
  <g
     inkscape:label="Capa 1"
     inkscape:groupmode="layer"
     id="layer1"
     transform="translate(0,-284.30005)">
    <g
       id="g3386"
       transform="translate(12.697647,4.0721667)">
      <path
         id="rect2547-4"
         d="m -6.3476515,280.75707 a 5.8208333,4.6645983 0 0 0 -5.8022295,4.36201 0.52921958,0.52921958 0 0 0 -0.0186,0.13591 v 0.13229 0.0346 0.89142 c 0,3.47474 2.5837456,6.35 5.8208335,6.35 3.237088,0 5.82083368,-2.87526 5.82083368,-6.35 v -0.89142 -0.16691 a 0.52921958,0.52921958 0 0 0 -0.01189,-0.11007 5.8208333,4.6645983 0 0 0 -5.80894768,-4.38785 z m -4.7625005,4.66483 h 4.7625005 4.7624997 v 0.89142 c 0,2.95477 -2.154574,5.29167 -4.7624997,5.29167 -2.6079257,0 -4.7625005,-2.3369 -4.7625005,-5.29167 z"
         style="color:#000000;font-style:normal;font-variant:normal;font-weight:normal;font-stretch:normal;font-size:medium;line-height:normal;font-family:sans-serif;font-variant-ligatures:normal;font-variant-position:normal;font-variant-caps:normal;font-variant-numeric:normal;font-variant-alternates:normal;font-feature-settings:normal;text-indent:0;text-align:start;text-decoration:none;text-decoration-line:none;text-decoration-style:solid;text-decoration-color:#000000;letter-spacing:normal;word-spacing:normal;text-transform:none;writing-mode:lr-tb;direction:ltr;text-orientation:mixed;dominant-baseline:auto;baseline-shift:baseline;text-anchor:start;white-space:normal;shape-padding:0;clip-rule:nonzero;display:inline;overflow:visible;visibility:visible;opacity:1;isolation:auto;mix-blend-mode:normal;color-interpolation:sRGB;color-interpolation-filters:linearRGB;solid-color:#000000;solid-opacity:1;vector-effect:none;fill:#242428;fill-opacity:1;fill-rule:nonzero;stroke:none;stroke-width:1.05833328;stroke-linecap:round;stroke-linejoin:round;stroke-miterlimit:4;stroke-dasharray:none;stroke-dashoffset:0;stroke-opacity:1;color-rendering:auto;image-rendering:auto;shape-rendering:auto;text-rendering:auto;enable-background:accumulate"
         inkscape:connector-curvature="0" />
      <path
         id="rect2547"
         d="m -8.5966098,282.34457 c -1.6410042,0 -2.9666972,1.28706 -3.0359902,2.91042 h -0.0067 v 0.13229 0.92604 a 5.2916667,5.8208333 0 0 0 5.2916665,5.82083 5.2916667,5.8208333 0 0 0 5.2916667,-5.82083 v -1.05833 h -0.0067 c -0.06929,-1.62336 -1.394986,-2.91042 -3.0359903,-2.91042 -0.8941189,0 -1.6932315,0.38412 -2.2489584,0.99425 -0.5557268,-0.61013 -1.3548394,-0.99425 -2.2489583,-0.99425 z"
         style="opacity:1;fill:#353d4b;fill-opacity:1;stroke:none;stroke-width:2.64583325;stroke-linecap:round;stroke-linejoin:round;stroke-miterlimit:4;stroke-dasharray:none;stroke-opacity:1"
         inkscape:connector-curvature="0" />
      <path
         inkscape:connector-curvature="0"
         id="rect1825"
         d="m -4.2309848,283.13832 c -0.952967,0 -1.7690875,0.55564 -2.1502563,1.36064 -0.4053724,-0.73187 -1.1839498,-1.22576 -2.083077,-1.22576 -1.2736224,0 -2.3045919,0.99084 -2.3745319,2.24637 h -0.0067 v 0.13488 1.18804 0.0796 h 0.0041 a 4.4979167,4.4979167 0 0 0 4.4937824,4.41833 4.4979167,4.4979167 0 0 0 4.4948158,-4.41833 h 0.0031 v -0.0796 -1.32292 c 0,-1.31921 -1.0620376,-2.38125 -2.3812501,-2.38125 z"
         style="opacity:1;fill:#ececff;fill-opacity:1;stroke:none;stroke-width:0.53744572;stroke-linecap:round;stroke-linejoin:round;stroke-miterlimit:4;stroke-dasharray:none;stroke-opacity:1" />
      <path
         inkscape:connector-curvature="0"
         id="rect2711"
         d="m -8.7289015,284.9904 c -0.4397375,0 -0.79375,0.35402 -0.79375,0.79375 0,0.43974 0.3540125,0.79375 0.79375,0.79375 0.4397375,0 0.79375,-0.35401 0.79375,-0.79375 0,-0.43973 -0.3540125,-0.79375 -0.79375,-0.79375 z m 4.7625,0 c -0.4397375,0 -0.79375,0.35402 -0.79375,0.79375 0,0.43974 0.3540125,0.79375 0.79375,0.79375 0.4397375,0 0.79375,-0.35401 0.79375,-0.79375 0,-0.43973 -0.3540125,-0.79375 -0.79375,-0.79375 z"
         style="opacity:1;fill:#242428;fill-opacity:1;stroke:none;stroke-width:1.05833328;stroke-linecap:round;stroke-linejoin:round;stroke-miterlimit:4;stroke-dasharray:none;stroke-opacity:1" />
      <path
         inkscape:connector-curvature="0"
         id="rect2711-2"
         d="m -8.7289015,285.25499 c -0.2931583,0 -0.5291666,0.236 -0.5291666,0.52916 0,0.29316 0.2360083,0.52917 0.5291666,0.52917 0.2931584,0 0.5291667,-0.23601 0.5291667,-0.52917 0,-0.29316 -0.2360083,-0.52916 -0.5291667,-0.52916 z m 4.7625,0 c -0.2931583,0 -0.5291666,0.236 -0.5291666,0.52916 0,0.29316 0.2360083,0.52917 0.5291666,0.52917 0.2931584,0 0.5291667,-0.23601 0.5291667,-0.52917 0,-0.29316 -0.2360083,-0.52916 -0.5291667,-0.52916 z"
         style="opacity:1;fill:#353d4b;fill-opacity:1;stroke:none;stroke-width:0.70555556;stroke-linecap:round;stroke-linejoin:round;stroke-miterlimit:4;stroke-dasharray:none;stroke-opacity:1" />
      <path
         inkscape:connector-curvature="0"
         id="path2760"
         d="m -6.3367993,287.37176 a 0.26460979,0.26460979 0 0 0 -0.1467612,0.0377 l -1.3229167,0.79375 a 0.26460979,0.26460979 0 0 0 0,0.45372 l 1.3229167,0.79375 a 0.26460979,0.26460979 0 0 0 0.2718181,0 l 1.3229166,-0.79375 a 0.26460979,0.26460979 0 0 0 0,-0.45372 l -1.3229166,-0.79375 a 0.26460979,0.26460979 0 0 0 -0.1250569,-0.0377 z m -0.010852,0.57309 0.8087363,0.48524 -0.8087363,0.48525 -0.8087362,-0.48525 z"
         style="color:#000000;font-style:normal;font-variant:normal;font-weight:normal;font-stretch:normal;font-size:medium;line-height:normal;font-family:sans-serif;font-variant-ligatures:normal;font-variant-position:normal;font-variant-caps:normal;font-variant-numeric:normal;font-variant-alternates:normal;font-feature-settings:normal;text-indent:0;text-align:start;text-decoration:none;text-decoration-line:none;text-decoration-style:solid;text-decoration-color:#000000;letter-spacing:normal;word-spacing:normal;text-transform:none;writing-mode:lr-tb;direction:ltr;text-orientation:mixed;dominant-baseline:auto;baseline-shift:baseline;text-anchor:start;white-space:normal;shape-padding:0;clip-rule:nonzero;display:inline;overflow:visible;visibility:visible;opacity:1;isolation:auto;mix-blend-mode:normal;color-interpolation:sRGB;color-interpolation-filters:linearRGB;solid-color:#000000;solid-opacity:1;vector-effect:none;fill:#e69318;fill-opacity:1;fill-rule:nonzero;stroke:none;stroke-width:0.52916664;stroke-linecap:round;stroke-linejoin:round;stroke-miterlimit:4;stroke-dasharray:none;stroke-dashoffset:0;stroke-opacity:1;color-rendering:auto;image-rendering:auto;shape-rendering:auto;text-rendering:auto;enable-background:accumulate" />
      <path
         sodipodi:nodetypes="ccccc"
         inkscape:connector-curvature="0"
         id="path2760-4"
         d="m -6.3476515,289.22374 1.3229167,-0.79375 -1.3229167,-0.79375 -1.3229166,0.79375 z"
         style="fill:#ffd84d;fill-opacity:1;stroke:none;stroke-width:0.52916664;stroke-linecap:round;stroke-linejoin:round;stroke-miterlimit:4;stroke-dasharray:none;stroke-opacity:1" />
    </g>
  </g>
</svg>
