<?xml version="1.0" encoding="UTF-8" standalone="no"?>
<!-- Created with Inkscape (http://www.inkscape.org/) -->

<svg
   xmlns:dc="http://purl.org/dc/elements/1.1/"
   xmlns:cc="http://creativecommons.org/ns#"
   xmlns:rdf="http://www.w3.org/1999/02/22-rdf-syntax-ns#"
   xmlns:svg="http://www.w3.org/2000/svg"
   xmlns="http://www.w3.org/2000/svg"
   xmlns:sodipodi="http://sodipodi.sourceforge.net/DTD/sodipodi-0.dtd"
   xmlns:inkscape="http://www.inkscape.org/namespaces/inkscape"
   width="48"
   height="48"
   viewBox="0 0 12.7 12.7"
   version="1.1"
   id="svg1399"
   inkscape:version="0.92.4 5da689c313, 2019-01-14"
   sodipodi:docname="preferences-system-startup.svg">
  <defs
     id="defs1393" />
  <sodipodi:namedview
     id="base"
     pagecolor="#ffffff"
     bordercolor="#666666"
     borderopacity="1.0"
     inkscape:pageopacity="0.0"
     inkscape:pageshadow="2"
     inkscape:zoom="7.9195959"
     inkscape:cx="-15.98796"
     inkscape:cy="-0.67020984"
     inkscape:document-units="px"
     inkscape:current-layer="layer1"
     showgrid="false"
     inkscape:showpageshadow="false"
     units="px"
     inkscape:window-width="1920"
     inkscape:window-height="999"
     inkscape:window-x="0"
     inkscape:window-y="0"
     inkscape:window-maximized="1" />
  <metadata
     id="metadata1396">
    <rdf:RDF>
      <cc:Work
         rdf:about="">
        <dc:format>image/svg+xml</dc:format>
        <dc:type
           rdf:resource="http://purl.org/dc/dcmitype/StillImage" />
        <dc:title></dc:title>
      </cc:Work>
    </rdf:RDF>
  </metadata>
  <g
     inkscape:label="Capa 1"
     inkscape:groupmode="layer"
     id="layer1"
     transform="translate(0,-284.30005)">
    <g
       id="g1710"
       transform="translate(9.6908691,-1.238475)">
      <path
         style="opacity:1;vector-effect:none;fill:#363c4d;fill-opacity:1;stroke:none;stroke-width:0.52916664;stroke-linecap:round;stroke-linejoin:round;stroke-miterlimit:4;stroke-dasharray:none;stroke-dashoffset:0;stroke-opacity:1;paint-order:markers stroke fill"
         d="m -8.3679526,286.06769 h 10.054167 c 0.439737,0 0.79375,0.35401 0.79375,0.79375 v 10.05417 c 0,0.43973 -0.354013,0.79375 -0.79375,0.79375 h -10.054167 c -0.439738,0 -0.79375,-0.35402 -0.79375,-0.79375 v -10.05417 c 0,-0.43974 0.354012,-0.79375 0.79375,-0.79375 z"
         id="rect18678-7"
         inkscape:connector-curvature="0" />
      <path
         style="opacity:1;vector-effect:none;fill:#4b6477;fill-opacity:1;stroke:none;stroke-width:0.52916664;stroke-linecap:round;stroke-linejoin:round;stroke-miterlimit:4;stroke-dasharray:none;stroke-dashoffset:0;stroke-opacity:1;paint-order:markers stroke fill"
         d="m -8.3679526,286.33227 h 10.054167 c 0.293158,0 0.529166,0.23601 0.529166,0.52917 v 10.05417 c 0,0.29315 -0.236008,0.52916 -0.529166,0.52916 h -10.054167 c -0.293159,0 -0.529167,-0.23601 -0.529167,-0.52916 v -10.05417 c 0,-0.29316 0.236008,-0.52917 0.529167,-0.52917 z"
         id="rect18695"
         inkscape:connector-curvature="0" />
      <path
         style="opacity:1;vector-effect:none;fill:#363c4d;fill-opacity:1;stroke:none;stroke-width:0.52916664;stroke-linecap:round;stroke-linejoin:round;stroke-miterlimit:4;stroke-dasharray:none;stroke-dashoffset:0;stroke-opacity:1;paint-order:markers stroke fill"
         d="m -8.1033706,286.86144 h 9.525002 c 0.146579,0 0.264583,0.118 0.264583,0.26458 v 7.93751 c 0,0.14658 -0.118004,0.26458 -0.264583,0.26458 h -9.525002 c -0.146579,0 -0.264582,-0.118 -0.264582,-0.26458 v -7.93751 c 0,-0.14658 0.118003,-0.26458 0.264582,-0.26458 z"
         id="rect18678"
         inkscape:connector-curvature="0" />
      <path
         style="opacity:1;vector-effect:none;fill:#3c4f5e;fill-opacity:1;stroke:none;stroke-width:0.52916664;stroke-linecap:round;stroke-linejoin:round;stroke-miterlimit:4;stroke-dasharray:none;stroke-dashoffset:0;stroke-opacity:1;paint-order:markers stroke fill"
         d="m -8.1033696,287.12602 h 9.525 v 7.9375 h -9.525 z"
         id="rect18676"
         inkscape:connector-curvature="0" />
      <path
         id="rect19838"
         d="m -7.0450366,295.85727 h 0.7937501 c 0.2931589,0 0.529167,0.23601 0.529167,0.52917 0,0.29316 -0.2360081,0.52917 -0.529167,0.52917 h -0.7937501 c -0.293158,0 -0.529166,-0.23601 -0.529166,-0.52917 0,-0.29316 0.236008,-0.52917 0.529166,-0.52917 z"
         style="opacity:1;vector-effect:none;fill:#363c4d;fill-opacity:1;stroke:none;stroke-width:0.52916664;stroke-linecap:round;stroke-linejoin:round;stroke-miterlimit:4;stroke-dasharray:none;stroke-dashoffset:0;stroke-opacity:1;paint-order:markers stroke fill"
         inkscape:connector-curvature="0" />
      <path
         id="rect19840"
         d="m -7.0450366,296.12186 h 0.7937501 c 0.1465789,0 0.2645839,0.118 0.2645839,0.26458 0,0.14658 -0.118005,0.26458 -0.2645839,0.26458 h -0.7937501 c -0.146579,0 -0.264583,-0.118 -0.264583,-0.26458 0,-0.14658 0.118004,-0.26458 0.264583,-0.26458 z"
         style="opacity:1;vector-effect:none;fill:#53d18a;fill-opacity:1;stroke:none;stroke-width:0.52916664;stroke-linecap:round;stroke-linejoin:round;stroke-miterlimit:4;stroke-dasharray:none;stroke-dashoffset:0;stroke-opacity:1;paint-order:markers stroke fill"
         inkscape:connector-curvature="0" />
      <path
         id="rect19842"
         d="m -7.0450366,295.85727 c 0.293159,0 0.529167,0.23601 0.529167,0.52917 0,0.29316 -0.236008,0.52917 -0.529167,0.52917 -0.293158,0 -0.529166,-0.23601 -0.529166,-0.52917 0,-0.29316 0.236008,-0.52917 0.529166,-0.52917 z"
         style="opacity:1;vector-effect:none;fill:#363c4d;fill-opacity:1;stroke:none;stroke-width:0.52916664;stroke-linecap:round;stroke-linejoin:round;stroke-miterlimit:4;stroke-dasharray:none;stroke-dashoffset:0;stroke-opacity:1;paint-order:markers stroke fill"
         inkscape:connector-curvature="0" />
      <path
         id="rect19844"
         d="m -7.0450366,296.12186 c 0.146579,0 0.264584,0.118 0.264584,0.26458 0,0.14658 -0.118005,0.26458 -0.264584,0.26458 -0.146579,0 -0.264583,-0.118 -0.264583,-0.26458 0,-0.14658 0.118004,-0.26458 0.264583,-0.26458 z"
         style="opacity:1;vector-effect:none;fill:#4b6477;fill-opacity:1;stroke:none;stroke-width:0.52916664;stroke-linecap:round;stroke-linejoin:round;stroke-miterlimit:4;stroke-dasharray:none;stroke-dashoffset:0;stroke-opacity:1;paint-order:markers stroke fill"
         inkscape:connector-curvature="0" />
      <g
         inkscape:label="Capa 1"
         id="layer1-9"
         transform="matrix(0.26458333,0,0,0.26458333,-9.6908694,214.98738)">
        <g
           id="g1985"
           transform="translate(36,12)">
          <path
             inkscape:connector-curvature="0"
             id="rect18709"
             d="m -10,293.64999 c -1.108,0 -2,0.892 -2,2 0,1.108 0.892,2 2,2 1.108,0 2,-0.892 2,-2 0,-1.108 -0.892,-2 -2,-2 z m 6,0 c -0.1385,0 -0.273867,0.0145 -0.404297,0.041 -0.913008,0.1859 -1.595703,0.9895 -1.595703,1.959 0,1.108 0.892,2 2,2 1.108,0 2,-0.892 2,-2 0,-1.108 -0.892,-2 -2,-2 z m 6,0 c -1.108,0 -2,0.892 -2,2 0,1.108 0.892,2 2,2 1.108,0 2,-0.892 2,-2 0,-1.108 -0.892,-2 -2,-2 z"
             style="opacity:1;vector-effect:none;fill:#363c4d;fill-opacity:1;stroke:none;stroke-width:2;stroke-linecap:round;stroke-linejoin:round;stroke-miterlimit:4;stroke-dasharray:none;stroke-dashoffset:0;stroke-opacity:1;paint-order:markers stroke fill" />
          <path
             inkscape:connector-curvature="0"
             id="rect18711"
             d="m -10,294.64999 c -0.554,0 -1,0.446 -1,1 0,0.554 0.446,1 1,1 0.554,0 1,-0.446 1,-1 0,-0.554 -0.446,-1 -1,-1 z m 6,0 c -0.1385,0 -0.270906,0.0277 -0.390625,0.0781 C -4.749781,294.87952 -5,295.23449 -5,295.64999 c 0,0.554 0.446,1 1,1 0.554,0 1,-0.446 1,-1 0,-0.554 -0.446,-1 -1,-1 z m 6,0 c -0.554,0 -1,0.446 -1,1 0,0.554 0.446,1 1,1 0.554,0 1,-0.446 1,-1 0,-0.554 -0.446,-1 -1,-1 z"
             style="opacity:1;vector-effect:none;fill:#53d18a;fill-opacity:1;stroke:none;stroke-width:2;stroke-linecap:round;stroke-linejoin:round;stroke-miterlimit:4;stroke-dasharray:none;stroke-dashoffset:0;stroke-opacity:1;paint-order:markers stroke fill" />
        </g>
      </g>
      <g
         inkscape:label="Capa 1"
         id="layer1-2"
         transform="matrix(0.26458333,0,0,0.26458333,7.6124844,213.88724)">
        <path
           id="path954"
           transform="translate(-65.398502,270.80799)"
           d="m 8,8 v 1 h 4 V 8 Z m 0,3 v 1 h 4 v -1 z m 0,3 v 1 h 4 v -1 z m 0,3 v 1 h 4 v -1 z m 0,3 v 1 h 4 v -1 z m 0,3 v 1 h 4 v -1 z m 0,3 v 1 h 4 v -1 z m 0,3 v 1 h 4 v -1 z m 0,3 v 1 h 4 v -1 z"
           style="opacity:1;fill:#7dff55;fill-opacity:1;stroke:none;stroke-width:8;stroke-linecap:round;stroke-linejoin:round;stroke-miterlimit:4;stroke-dasharray:none;stroke-dashoffset:0;stroke-opacity:1"
           inkscape:connector-curvature="0" />
        <path
           id="rect1045-9-7-3"
           transform="translate(-65.398502,270.80799)"
           d="m 14,8 v 1 h 2 V 8 Z m 4,0 V 9 H 30 V 8 Z m -4,3 v 1 h 2 v -1 z m 4,0 v 1 h 12 v -1 z m -4,3 v 1 h 2 v -1 z m 4,0 v 1 h 12 v -1 z m -4,3 v 1 h 2 v -1 z m 4,0 v 1 h 12 v -1 z m -4,3 v 1 h 2 v -1 z m 4,0 v 1 h 12 v -1 z m -4,3 v 1 h 2 v -1 z m 4,0 v 1 h 12 v -1 z m -4,3 v 1 h 2 v -1 z m 4,0 v 1 h 12 v -1 z m -4,3 v 1 h 2 v -1 z m 4,0 v 1 h 12 v -1 z m -4,3 v 1 h 2 v -1 z m 4,0 v 1 h 12 v -1 z"
           style="opacity:1;fill:#ffffff;fill-opacity:1;stroke:none;stroke-width:8;stroke-linecap:round;stroke-linejoin:round;stroke-miterlimit:4;stroke-dasharray:none;stroke-dashoffset:0;stroke-opacity:1"
           inkscape:connector-curvature="0" />
      </g>
    </g>
  </g>
</svg>
