<?xml version="1.0" encoding="UTF-8" standalone="no"?>
<!-- Created with Inkscape (http://www.inkscape.org/) -->

<svg
   xmlns:dc="http://purl.org/dc/elements/1.1/"
   xmlns:cc="http://creativecommons.org/ns#"
   xmlns:rdf="http://www.w3.org/1999/02/22-rdf-syntax-ns#"
   xmlns:svg="http://www.w3.org/2000/svg"
   xmlns="http://www.w3.org/2000/svg"
   xmlns:sodipodi="http://sodipodi.sourceforge.net/DTD/sodipodi-0.dtd"
   xmlns:inkscape="http://www.inkscape.org/namespaces/inkscape"
   width="48"
   height="48"
   viewBox="0 0 48 48"
   version="1.1"
   id="svg8"
   inkscape:version="0.92.3 (2405546, 2018-03-11)"
   sodipodi:docname="kdeconnect.svg">
  <title
     id="title7895">Antu icon Theme</title>
  <defs
     id="defs2" />
  <sodipodi:namedview
     id="base"
     pagecolor="#ffffff"
     bordercolor="#666666"
     borderopacity="1.0"
     inkscape:pageopacity="0.0"
     inkscape:pageshadow="2"
     inkscape:zoom="16.000001"
     inkscape:cx="33.491339"
     inkscape:cy="9.8546909"
     inkscape:document-units="px"
     inkscape:current-layer="layer1"
     showgrid="true"
     units="px"
     inkscape:window-width="1874"
     inkscape:window-height="1141"
     inkscape:window-x="46"
     inkscape:window-y="30"
     inkscape:window-maximized="1"
     objecttolerance="10"
     gridtolerance="10"
     guidetolerance="10"
     inkscape:snap-bbox="true"
     inkscape:bbox-paths="true"
     inkscape:bbox-nodes="true"
     inkscape:snap-bbox-edge-midpoints="true"
     inkscape:snap-bbox-midpoints="true"
     inkscape:object-paths="true"
     inkscape:snap-intersection-paths="true">
    <inkscape:grid
       type="xygrid"
       id="grid7897"
       empspacing="4" />
  </sodipodi:namedview>
  <metadata
     id="metadata5">
    <rdf:RDF>
      <cc:Work
         rdf:about="">
        <dc:format>image/svg+xml</dc:format>
        <dc:type
           rdf:resource="http://purl.org/dc/dcmitype/StillImage" />
        <dc:title>Antu icon Theme</dc:title>
      </cc:Work>
    </rdf:RDF>
  </metadata>
  <g
     inkscape:label="Capa 1"
     inkscape:groupmode="layer"
     id="layer1"
     transform="translate(0,-266.64999)">
    <g
       id="g1817"
       transform="translate(36,12)">
      <path
         inkscape:connector-curvature="0"
         style="opacity:1;vector-effect:none;fill:#363c4d;fill-opacity:1;stroke:none;stroke-width:2;stroke-linecap:round;stroke-linejoin:round;stroke-miterlimit:4;stroke-dasharray:none;stroke-dashoffset:0;stroke-opacity:1"
         d="m -22,256.64999 c -2.216001,0 -4,1.784 -4,4 v 36 c 0,2.216 1.783999,4 4,4 h 20 c 2.216001,0 4,-1.784 4,-4 v -36 c 0,-2.216 -1.783999,-4 -4,-4 h -2 -16 z"
         id="rect978" />
      <path
         id="rect1046"
         d="m -22,257.64999 c -1.662,0 -3,1.338 -3,3 v 36 c 0,1.66199 1.338,3 3,3 h 20 c 1.662,0 3,-1.33801 3,-3 v -36 c 0,-1.662 -1.338,-3 -3,-3 h -2 c -0.25,0 -0.4375,0.1875 -0.601562,0.46875 -0.164063,0.28125 -0.304688,0.65625 -0.460938,1.03125 -0.15625,0.375 -0.328125,0.75 -0.554688,1.03125 C -5.84375,260.46249 -6.125,260.64999 -6.5,260.64999 h -11 c -0.375,0 -0.65625,-0.1875 -0.882812,-0.46875 -0.226563,-0.28125 -0.398438,-0.65625 -0.554688,-1.03125 -0.15625,-0.375 -0.296875,-0.75 -0.460938,-1.03125 C -19.562499,257.83749 -19.75,257.64999 -20,257.64999 Z m 6.5,0 c -0.277,0 -0.5,0.223 -0.5,0.5 0,0.277 0.223,0.5 0.5,0.5 0.277,0 0.5,-0.223 0.5,-0.5 0,-0.277 -0.223,-0.5 -0.5,-0.5 z m 1.984375,0 c -0.268343,0 -0.484375,0.21603 -0.484375,0.48437 v 0.0312 c 0,0.26835 0.216032,0.48438 0.484375,0.48438 h 3.03125 C -10.216031,258.64999 -10,258.43396 -10,258.16561 v -0.0312 c 0,-0.26834 -0.216031,-0.48437 -0.484375,-0.48437 z m 5.015625,0 c -0.277,0 -0.5,0.223 -0.5,0.5 0,0.277 0.223,0.5 0.5,0.5 0.277,0 0.5,-0.223 0.5,-0.5 0,-0.277 -0.223,-0.5 -0.5,-0.5 z m -9,38 h 11 c 0.277,0 0.5,0.223 0.5,0.5 0,0.277 -0.223,0.5 -0.5,0.5 h -11 c -0.277,0 -0.5,-0.223 -0.5,-0.5 0,-0.277 0.223,-0.5 0.5,-0.5 z"
         style="opacity:1;vector-effect:none;fill:#4b6377;fill-opacity:1;stroke:none;stroke-width:2;stroke-linecap:round;stroke-linejoin:round;stroke-miterlimit:4;stroke-dasharray:none;stroke-dashoffset:0;stroke-opacity:1"
         inkscape:connector-curvature="0" />
      <path
         inkscape:connector-curvature="0"
         style="opacity:1;vector-effect:none;fill:#44acff;fill-opacity:1;stroke:none;stroke-width:2;stroke-linecap:round;stroke-linejoin:round;stroke-miterlimit:4;stroke-dasharray:none;stroke-dashoffset:0;stroke-opacity:1"
         d="m -22,258.64999 c -1.108,0 -2,0.89199 -2,2 v 36 c 0,1.108 0.892,2 2,2 h 20 c 1.108,0 2,-0.892 2,-2 v -36 c 0,-1.10801 -0.892,-2 -2,-2 h -2.839844 c -0.07282,0.17104 -0.146945,0.31829 -0.222656,0.5 -0.15625,0.375 -0.328125,0.75 -0.554688,1.03125 C -5.84375,260.46249 -6.125,260.64999 -6.5,260.64999 h -11 c -0.375,0 -0.65625,-0.1875 -0.882812,-0.46875 -0.226563,-0.28125 -0.398438,-0.65625 -0.554688,-1.03125 -0.07571,-0.18171 -0.149839,-0.32896 -0.222656,-0.5 z m 4.5,37 h 11 c 0.277,0 0.5,0.223 0.5,0.5 0,0.277 -0.223,0.5 -0.5,0.5 h -11 c -0.277,0 -0.5,-0.223 -0.5,-0.5 0,-0.277 0.223,-0.5 0.5,-0.5 z"
         id="path1115" />
    </g>
  </g>
</svg>
