<?xml version="1.0" encoding="UTF-8" standalone="no"?>
<!-- Created with Inkscape (http://www.inkscape.org/) -->

<svg
   xmlns:dc="http://purl.org/dc/elements/1.1/"
   xmlns:cc="http://creativecommons.org/ns#"
   xmlns:rdf="http://www.w3.org/1999/02/22-rdf-syntax-ns#"
   xmlns:svg="http://www.w3.org/2000/svg"
   xmlns="http://www.w3.org/2000/svg"
   xmlns:sodipodi="http://sodipodi.sourceforge.net/DTD/sodipodi-0.dtd"
   xmlns:inkscape="http://www.inkscape.org/namespaces/inkscape"
   width="48"
   height="48"
   viewBox="0 0 12.7 12.7"
   version="1.1"
   id="svg1399"
   inkscape:version="0.92.4 5da689c313, 2019-01-14"
   sodipodi:docname="preferences-virtualization-vm-migrate.svg">
  <defs
     id="defs1393" />
  <sodipodi:namedview
     id="base"
     pagecolor="#ffffff"
     bordercolor="#666666"
     borderopacity="1.0"
     inkscape:pageopacity="0.0"
     inkscape:pageshadow="2"
     inkscape:zoom="15.839192"
     inkscape:cx="25.857218"
     inkscape:cy="11.111791"
     inkscape:document-units="px"
     inkscape:current-layer="layer1"
     showgrid="true"
     inkscape:showpageshadow="false"
     units="px"
     inkscape:window-width="1920"
     inkscape:window-height="999"
     inkscape:window-x="0"
     inkscape:window-y="0"
     inkscape:window-maximized="1">
    <inkscape:grid
       type="xygrid"
       id="grid1923" />
  </sodipodi:namedview>
  <metadata
     id="metadata1396">
    <rdf:RDF>
      <cc:Work
         rdf:about="">
        <dc:format>image/svg+xml</dc:format>
        <dc:type
           rdf:resource="http://purl.org/dc/dcmitype/StillImage" />
        <dc:title></dc:title>
      </cc:Work>
    </rdf:RDF>
  </metadata>
  <g
     inkscape:label="Capa 1"
     inkscape:groupmode="layer"
     id="layer1"
     transform="translate(0,-284.30005)">
    <g
       id="g1921"
       transform="translate(13.931087,-2.07637)">
      <path
         inkscape:connector-curvature="0"
         id="rect18678-7"
         d="m -12.60817,286.90559 h 10.0541666 c 0.439737,0 0.79375,0.35401 0.79375,0.79375 v 10.05417 c 0,0.43973 -0.354013,0.79375 -0.79375,0.79375 H -12.60817 c -0.439738,0 -0.79375,-0.35402 -0.79375,-0.79375 v -10.05417 c 0,-0.43974 0.354012,-0.79375 0.79375,-0.79375 z"
         style="opacity:1;vector-effect:none;fill:#363c4d;fill-opacity:1;stroke:none;stroke-width:0.52916664;stroke-linecap:round;stroke-linejoin:round;stroke-miterlimit:4;stroke-dasharray:none;stroke-dashoffset:0;stroke-opacity:1;paint-order:markers stroke fill" />
      <path
         inkscape:connector-curvature="0"
         id="rect18695"
         d="m -12.60817,287.17017 h 10.0541666 c 0.293158,0 0.529166,0.23601 0.529166,0.52917 v 10.05417 c 0,0.29315 -0.236008,0.52916 -0.529166,0.52916 H -12.60817 c -0.293159,0 -0.529167,-0.23601 -0.529167,-0.52916 v -10.05417 c 0,-0.29316 0.236008,-0.52917 0.529167,-0.52917 z"
         style="opacity:1;vector-effect:none;fill:#4b6477;fill-opacity:1;stroke:none;stroke-width:0.52916664;stroke-linecap:round;stroke-linejoin:round;stroke-miterlimit:4;stroke-dasharray:none;stroke-dashoffset:0;stroke-opacity:1;paint-order:markers stroke fill" />
      <path
         inkscape:connector-curvature="0"
         id="rect18678"
         d="m -12.343588,287.69934 h 9.5250016 c 0.146579,0 0.264583,0.118 0.264583,0.26458 v 7.93751 c 0,0.14658 -0.118004,0.26458 -0.264583,0.26458 h -9.5250016 c -0.146579,0 -0.264582,-0.118 -0.264582,-0.26458 v -7.93751 c 0,-0.14658 0.118003,-0.26458 0.264582,-0.26458 z"
         style="opacity:1;vector-effect:none;fill:#363c4d;fill-opacity:1;stroke:none;stroke-width:0.52916664;stroke-linecap:round;stroke-linejoin:round;stroke-miterlimit:4;stroke-dasharray:none;stroke-dashoffset:0;stroke-opacity:1;paint-order:markers stroke fill" />
      <path
         inkscape:connector-curvature="0"
         id="rect18676"
         d="m -12.343587,287.96392 h 9.5249996 v 7.9375 h -9.5249996 z"
         style="opacity:1;vector-effect:none;fill:#f1f1f1;fill-opacity:1;stroke:none;stroke-width:0.52916664;stroke-linecap:round;stroke-linejoin:round;stroke-miterlimit:4;stroke-dasharray:none;stroke-dashoffset:0;stroke-opacity:1;paint-order:markers stroke fill" />
      <path
         inkscape:connector-curvature="0"
         style="opacity:1;vector-effect:none;fill:#363c4d;fill-opacity:1;stroke:none;stroke-width:0.52916664;stroke-linecap:round;stroke-linejoin:round;stroke-miterlimit:4;stroke-dasharray:none;stroke-dashoffset:0;stroke-opacity:1;paint-order:markers stroke fill"
         d="m -11.285254,296.69517 h 0.79375 c 0.293159,0 0.5291669,0.23601 0.5291669,0.52917 0,0.29316 -0.2360079,0.52917 -0.5291669,0.52917 h -0.79375 c -0.293158,0 -0.529166,-0.23601 -0.529166,-0.52917 0,-0.29316 0.236008,-0.52917 0.529166,-0.52917 z"
         id="rect19838" />
      <path
         inkscape:connector-curvature="0"
         style="opacity:1;vector-effect:none;fill:#53d18a;fill-opacity:1;stroke:none;stroke-width:0.52916664;stroke-linecap:round;stroke-linejoin:round;stroke-miterlimit:4;stroke-dasharray:none;stroke-dashoffset:0;stroke-opacity:1;paint-order:markers stroke fill"
         d="m -11.285254,296.95976 h 0.79375 c 0.146579,0 0.264584,0.118 0.264584,0.26458 0,0.14658 -0.118005,0.26458 -0.264584,0.26458 h -0.79375 c -0.146579,0 -0.264583,-0.118 -0.264583,-0.26458 0,-0.14658 0.118004,-0.26458 0.264583,-0.26458 z"
         id="rect19840" />
      <path
         inkscape:connector-curvature="0"
         style="opacity:1;vector-effect:none;fill:#363c4d;fill-opacity:1;stroke:none;stroke-width:0.52916664;stroke-linecap:round;stroke-linejoin:round;stroke-miterlimit:4;stroke-dasharray:none;stroke-dashoffset:0;stroke-opacity:1;paint-order:markers stroke fill"
         d="m -11.285254,296.69517 c 0.293159,0 0.529167,0.23601 0.529167,0.52917 0,0.29316 -0.236008,0.52917 -0.529167,0.52917 -0.293158,0 -0.529166,-0.23601 -0.529166,-0.52917 0,-0.29316 0.236008,-0.52917 0.529166,-0.52917 z"
         id="rect19842" />
      <path
         inkscape:connector-curvature="0"
         style="opacity:1;vector-effect:none;fill:#4b6477;fill-opacity:1;stroke:none;stroke-width:0.52916664;stroke-linecap:round;stroke-linejoin:round;stroke-miterlimit:4;stroke-dasharray:none;stroke-dashoffset:0;stroke-opacity:1;paint-order:markers stroke fill"
         d="m -11.285254,296.95976 c 0.146579,0 0.264584,0.118 0.264584,0.26458 0,0.14658 -0.118005,0.26458 -0.264584,0.26458 -0.146579,0 -0.264583,-0.118 -0.264583,-0.26458 0,-0.14658 0.118004,-0.26458 0.264583,-0.26458 z"
         id="rect19844" />
      <path
         id="rect1104-8-27-4"
         d="m -11.549837,288.49309 c -0.146579,0 -0.264583,0.11801 -0.264583,0.26459 v 1.32291 c 0,0.14658 0.118004,0.26459 0.264583,0.26459 h 1.5874999 c 0.1465787,0 0.2645834,-0.11801 0.2645834,-0.26459 v -1.05833 c 0,-0.14658 -0.1180047,-0.26458 -0.2645834,-0.26458 h -0.7937499 l -0.264583,-0.26459 z m 0,2.38125 c -0.146579,0 -0.264583,0.11801 -0.264583,0.26459 v 1.32291 c 0,0.14658 0.118004,0.26459 0.264583,0.26459 h 1.5874999 c 0.1465787,0 0.2645834,-0.11801 0.2645834,-0.26459 v -1.05833 c 0,-0.14658 -0.1180047,-0.26458 -0.2645834,-0.26458 h -0.7937499 l -0.264583,-0.26459 z m 0,2.38125 c -0.146579,0 -0.264583,0.11801 -0.264583,0.26459 v 1.32291 c 0,0.14658 0.118004,0.26459 0.264583,0.26459 h 1.5874999 c 0.1465787,0 0.2645834,-0.11801 0.2645834,-0.26459 v -1.05833 c 0,-0.14658 -0.1180047,-0.26458 -0.2645834,-0.26458 h -0.7937499 l -0.264583,-0.26459 z"
         style="opacity:1;fill:#36404d;fill-opacity:1;stroke:none;stroke-width:0.52916676;stroke-linecap:round;stroke-linejoin:round;stroke-miterlimit:4;stroke-dasharray:none;stroke-dashoffset:0;stroke-opacity:1"
         inkscape:connector-curvature="0" />
      <path
         id="rect1122-2-5"
         d="m -10.756087,289.02226 -0.264583,0.26458 h -0.529167 v 0.79375 h 1.5874999 v -1.05833 z m 0,2.38125 -0.264583,0.26458 h -0.529167 v 0.79375 h 1.5874999 v -1.05833 z m 0,2.38125 -0.264583,0.26458 h -0.529167 v 0.79375 h 1.5874999 v -1.05833 z"
         style="opacity:1;fill:#4b6477;fill-opacity:1;stroke:none;stroke-width:0.52916676;stroke-linecap:round;stroke-linejoin:round;stroke-miterlimit:4;stroke-dasharray:none;stroke-dashoffset:0;stroke-opacity:1"
         inkscape:connector-curvature="0" />
      <path
         id="rect912-4"
         d="m -9.1685871,288.49309 c -0.1465786,0 -0.2645833,0.11801 -0.2645833,0.26459 v 0.26458 c 0,0.14658 0.1180047,0.26458 0.2645833,0.26458 h 1.3229167 c 0.1465786,0 0.2645833,-0.118 0.2645833,-0.26458 v -0.26458 c 0,-0.14658 -0.1180047,-0.26459 -0.2645833,-0.26459 z m 0,1.05834 c -0.1465786,0 -0.2645833,0.118 -0.2645833,0.26458 v 0.26458 c 0,0.14658 0.1180047,0.26459 0.2645833,0.26459 h 2.1166667 c 0.1465786,0 0.2645833,-0.11801 0.2645833,-0.26459 v -0.26458 c 0,-0.14658 -0.1180047,-0.26458 -0.2645833,-0.26458 z m 0,1.32291 c -0.1465786,0 -0.2645833,0.11801 -0.2645833,0.26459 v 0.26458 c 0,0.14658 0.1180047,0.26458 0.2645833,0.26458 h 3.96875 c 0.1465787,0 0.2645834,-0.118 0.2645834,-0.26458 v -0.26458 c 0,-0.14658 -0.1180047,-0.26459 -0.2645834,-0.26459 z m 0,1.05834 c -0.1465786,0 -0.2645833,0.118 -0.2645833,0.26458 v 0.26458 c 0,0.14658 0.1180047,0.26459 0.2645833,0.26459 h 2.1166667 c 0.1465786,0 0.2645833,-0.11801 0.2645833,-0.26459 v -0.26458 c 0,-0.14658 -0.1180047,-0.26458 -0.2645833,-0.26458 z m 0,1.32291 c -0.1465786,0 -0.2645833,0.11801 -0.2645833,0.26459 v 0.26458 c 0,0.14658 0.1180047,0.26458 0.2645833,0.26458 h 1.3229167 c 0.1465786,0 0.2645833,-0.118 0.2645833,-0.26458 v -0.26458 c 0,-0.14658 -0.1180047,-0.26459 -0.2645833,-0.26459 z m 0,1.05834 c -0.1465786,0 -0.2645833,0.118 -0.2645833,0.26458 v 0.26458 c 0,0.14658 0.1180047,0.26459 0.2645833,0.26459 h 2.1166667 c 0.1465786,0 0.2645833,-0.11801 0.2645833,-0.26459 v -0.26458 c 0,-0.14658 -0.1180047,-0.26458 -0.2645833,-0.26458 z"
         style="opacity:1;fill:#36404d;fill-opacity:1;stroke:none;stroke-width:0.52916676;stroke-linecap:round;stroke-linejoin:round;stroke-miterlimit:4;stroke-dasharray:none;stroke-dashoffset:0;stroke-opacity:1"
         inkscape:connector-curvature="0" />
      <path
         id="rect914-7"
         d="m -9.1685871,288.75768 v 0.26458 h 1.3229167 v -0.26458 z m 0,1.05833 v 0.26458 h 2.1166667 v -0.26458 z m 0,1.32292 v 0.26458 h 3.96875 v -0.26458 z m 0,1.05833 v 0.26458 h 2.1166667 v -0.26458 z m 0,1.32292 v 0.26458 h 1.3229167 v -0.26458 z m 0,1.05833 v 0.26458 h 2.1166667 v -0.26458 z"
         style="opacity:1;fill:#4b6477;fill-opacity:1;stroke:none;stroke-width:0.52916676;stroke-linecap:round;stroke-linejoin:round;stroke-miterlimit:4;stroke-dasharray:none;stroke-dashoffset:0;stroke-opacity:1"
         inkscape:connector-curvature="0" />
      <path
         inkscape:connector-curvature="0"
         style="fill:#3079cf;fill-opacity:0.98039216;stroke:none;stroke-width:0.38884729;stroke-linecap:round;stroke-linejoin:round;stroke-miterlimit:4;stroke-dasharray:none;stroke-opacity:1"
         d="m -5.1998371,291.13895 c 2.1986887,0 3.9687507,1.77002 3.9687507,3.96873 0,2.19867 -1.770062,3.96875 -3.9687507,3.96875 -2.1986872,0 -3.9687502,-1.77008 -3.9687502,-3.96875 0,-2.19871 1.770063,-3.96873 3.9687502,-3.96873 z"
         id="rect4496-2-5" />
      <path
         inkscape:connector-curvature="0"
         style="fill:#6bb1ff;fill-opacity:1;stroke:none;stroke-width:0.37100008;stroke-linecap:round;stroke-linejoin:round;stroke-miterlimit:4;stroke-dasharray:none;stroke-opacity:1"
         d="m -5.1998371,291.40352 c 2.0521087,0 3.7041677,1.65204 3.7041677,3.70416 0,2.05212 -1.652059,3.70419 -3.7041677,3.70419 -2.052108,0 -3.7041661,-1.65207 -3.7041661,-3.70419 0,-2.05212 1.6520581,-3.70416 3.7041661,-3.70416 z"
         id="rect4570-9-6-3-6" />
    </g>
    <path
       id="path7212-4-6-3-5"
       d="m 6.35,293.0313 c 0,1.31921 1.06204,2.38125 2.38125,2.38125 1.31921,0 2.38125,-1.06204 2.38125,-2.38125 0,-1.31921 -1.06204,-2.38125 -2.38125,-2.38125 -1.31921,0 -2.38125,1.06204 -2.38125,2.38125 z m 1.05833,0 c 0,-0.29316 0.23601,-0.52917 0.52917,-0.52917 h 0.79375 v -0.26458 a 0.26460979,0.26460979 0 0 1 0.45165,-0.18707 l 0.79375,0.79375 a 0.26460979,0.26460979 0 0 1 0,0.37414 l -0.79375,0.79375 a 0.26460979,0.26460979 0 0 1 -0.45165,-0.18707 v -0.26458 H 7.9375 c -0.29316,0 -0.52917,-0.23601 -0.52917,-0.52917 z"
       style="opacity:1;fill:#dcedff;fill-opacity:1;stroke:none;stroke-width:0.26458332;stroke-opacity:1"
       inkscape:connector-curvature="0" />
  </g>
</svg>
