<?xml version="1.0" encoding="UTF-8" standalone="no"?>
<!-- Created with Inkscape (http://www.inkscape.org/) -->

<svg
   xmlns:dc="http://purl.org/dc/elements/1.1/"
   xmlns:cc="http://creativecommons.org/ns#"
   xmlns:rdf="http://www.w3.org/1999/02/22-rdf-syntax-ns#"
   xmlns:svg="http://www.w3.org/2000/svg"
   xmlns="http://www.w3.org/2000/svg"
   xmlns:sodipodi="http://sodipodi.sourceforge.net/DTD/sodipodi-0.dtd"
   xmlns:inkscape="http://www.inkscape.org/namespaces/inkscape"
   width="48"
   height="48"
   viewBox="0 0 48 48"
   version="1.1"
   id="svg8"
   inkscape:version="0.92.4 5da689c313, 2019-01-14"
   sodipodi:docname="system-help.svg">
  <title
     id="title7895">Antu icon Theme</title>
  <defs
     id="defs2">
    <style
       type="text/css"
       id="current-color-scheme">
      .ColorScheme-Text {
        color:#122036;
      }
      </style>
    <style
       id="current-color-scheme-53"
       type="text/css">
      .ColorScheme-Text {
        color:#122036;
      }
      </style>
    <style
       type="text/css"
       id="current-color-scheme-5">
      .ColorScheme-Text {
        color:#122036;
      }
      </style>
    <style
       type="text/css"
       id="current-color-scheme-2">
      .ColorScheme-Text {
        color:#122036;
      }
      </style>
    <style
       type="text/css"
       id="current-color-scheme-1">
      .ColorScheme-Text {
        color:#122036;
      }
      </style>
    <style
       id="current-color-scheme-10"
       type="text/css">
      .ColorScheme-Text {
        color:#122036;
      }
      </style>
    <style
       type="text/css"
       id="current-color-scheme-0">
      .ColorScheme-Text {
        color:#122036;
      }
      </style>
    <style
       type="text/css"
       id="current-color-scheme-26">
      .ColorScheme-Text {
        color:#122036;
      }
      </style>
    <style
       type="text/css"
       id="current-color-scheme-7">
      .ColorScheme-Text {
        color:#122036;
      }
      </style>
    <style
       type="text/css"
       id="current-color-scheme-3">
      .ColorScheme-Text {
        color:#36404d;
      }
      </style>
  </defs>
  <sodipodi:namedview
     id="base"
     pagecolor="#ffffff"
     bordercolor="#666666"
     borderopacity="1.0"
     inkscape:pageopacity="0.0"
     inkscape:pageshadow="2"
     inkscape:zoom="15.999999"
     inkscape:cx="31.570199"
     inkscape:cy="20.392172"
     inkscape:document-units="px"
     inkscape:current-layer="g5422"
     showgrid="true"
     units="px"
     inkscape:window-width="1920"
     inkscape:window-height="991"
     inkscape:window-x="0"
     inkscape:window-y="0"
     inkscape:window-maximized="1"
     objecttolerance="10"
     gridtolerance="10"
     guidetolerance="10"
     inkscape:snap-bbox="true"
     inkscape:bbox-nodes="true"
     inkscape:bbox-paths="true"
     inkscape:snap-bbox-edge-midpoints="true"
     inkscape:snap-bbox-midpoints="true"
     inkscape:object-paths="true"
     inkscape:snap-intersection-paths="true"
     inkscape:object-nodes="false"
     inkscape:snap-smooth-nodes="false"
     inkscape:snap-midpoints="false"
     inkscape:showpageshadow="false">
    <inkscape:grid
       type="xygrid"
       id="grid7897"
       empspacing="4" />
  </sodipodi:namedview>
  <metadata
     id="metadata5">
    <rdf:RDF>
      <cc:Work
         rdf:about="">
        <dc:format>image/svg+xml</dc:format>
        <dc:type
           rdf:resource="http://purl.org/dc/dcmitype/StillImage" />
        <dc:title>Antu icon Theme</dc:title>
      </cc:Work>
    </rdf:RDF>
  </metadata>
  <g
     inkscape:label="Capa 1"
     inkscape:groupmode="layer"
     id="layer1"
     transform="translate(0,-266.64999)">
    <g
       id="g1535"
       transform="translate(35,-15.000005)">
      <g
         id="g911"
         transform="translate(-35,15)">
        <g
           id="g5422"
           transform="translate(-24,-4)">
          <path
             inkscape:connector-curvature="0"
             id="rect4544"
             d="m 47.999976,272.65002 4.7e-5,0 C 60.187999,272.65002 70,282.462 70,294.65 c 0,12.18797 -9.812001,21.99997 -21.999977,21.99997 l -4.7e-5,0 c -12.188,0 -21.999977,-9.812 -21.999977,-21.99997 0,-12.188 9.811977,-21.99998 21.999977,-21.99998 z"
             style="opacity:1;fill:#6e7cd4;fill-opacity:1;stroke:none;stroke-width:0.30000001;stroke-miterlimit:4;stroke-dasharray:none;stroke-opacity:1" />
          <path
             inkscape:connector-curvature="0"
             id="rect4544-5"
             d="m 47.999976,273.64998 2.3e-5,0 c 11.633999,0 20.999992,9.36599 20.999992,20.99999 0,11.63401 -9.365993,21 -20.999992,21 l -2.3e-5,0 c -11.633999,0 -20.999992,-9.36599 -20.999992,-21 0,-11.634 9.365993,-20.99999 20.999992,-20.99999 z"
             style="opacity:1;fill:#93a0e6;fill-opacity:1;stroke:none;stroke-width:0.30000001;stroke-miterlimit:4;stroke-dasharray:none;stroke-opacity:1" />
          <g
             transform="matrix(3.7795277,0,0,3.7795277,71.462836,-810.49732)"
             id="layer1-7"
             inkscape:label="Capa 1">
            <path
               style="color:#000000;font-style:normal;font-variant:normal;font-weight:normal;font-stretch:normal;font-size:medium;line-height:normal;font-family:sans-serif;font-variant-ligatures:normal;font-variant-position:normal;font-variant-caps:normal;font-variant-numeric:normal;font-variant-alternates:normal;font-feature-settings:normal;text-indent:0;text-align:start;text-decoration:none;text-decoration-line:none;text-decoration-style:solid;text-decoration-color:#000000;letter-spacing:normal;word-spacing:normal;text-transform:none;writing-mode:lr-tb;direction:ltr;text-orientation:mixed;dominant-baseline:auto;baseline-shift:baseline;text-anchor:start;white-space:normal;shape-padding:0;clip-rule:nonzero;display:inline;overflow:visible;visibility:visible;opacity:1;isolation:auto;mix-blend-mode:normal;color-interpolation:sRGB;color-interpolation-filters:linearRGB;solid-color:#000000;solid-opacity:1;vector-effect:none;fill:#ebedfa;fill-opacity:1;fill-rule:nonzero;stroke:none;stroke-width:2;stroke-linecap:round;stroke-linejoin:round;stroke-miterlimit:4;stroke-dasharray:none;stroke-dashoffset:0;stroke-opacity:1;paint-order:markers fill stroke;color-rendering:auto;image-rendering:auto;shape-rendering:auto;text-rendering:auto;enable-background:accumulate"
               d="m 24,10 c -5.999999,0 -8.754551,4.980699 -9,9 4.1e-5,0.552265 0.447728,0.999962 1,1 h 4 c 0.552272,-3.8e-5 0.999959,-0.447735 1,-1 -9e-5,-0.09978 0.0058,-0.199427 0.01563,-0.298828 l -0.002,0.002 c 0.01017,-0.09978 0.02676,-0.198607 0.04687,-0.296875 9e-6,-0.0025 9e-6,-0.004 0,-0.0078 0.01931,-0.09638 0.0436,-0.191424 0.07227,-0.285157 l 0.002,-0.0039 c 0.02963,-0.09449 0.06276,-0.186257 0.101562,-0.277344 v -0.002 c 0.03897,-0.09184 0.08295,-0.181846 0.13086,-0.269531 0.04794,-0.08731 0.09978,-0.171513 0.15625,-0.253906 v -0.002 c 0.05653,-0.08277 0.11715,-0.161557 0.18164,-0.238282 l 0.002,-0.002 c 0.063,-0.07521 0.131122,-0.148009 0.201172,-0.216797 l 0.002,-0.002 0.002,-0.002 c 0.07067,-0.06841 0.145653,-0.134084 0.222657,-0.195312 h 0.002 c 0.07738,-0.06161 0.157141,-0.120159 0.240234,-0.173829 l 0.002,-0.002 c 0.08368,-0.05367 0.171208,-0.103461 0.259766,-0.148437 h 0.002 c 0.0879,-0.04498 0.177643,-0.08519 0.269531,-0.121094 l 0.0039,-0.002 c 0.09184,-0.03402 0.186403,-0.06572 0.28125,-0.0918 l 0.002,-0.002 c 0.09647,-0.02646 0.194247,-0.04744 0.292968,-0.06445 l 0.002,-0.002 c 0.09783,-0.0189 0.195936,-0.02564 0.294921,-0.0332 C 23.858104,16.004033 23.927547,16 23.998047,16 H 24 c 0.09913,-7.6e-5 0.198192,0.0043 0.296875,0.01563 0.09981,0.01134 0.198566,0.02647 0.296875,0.04687 h 0.0059 c 0.09784,0.0189 0.193705,0.04512 0.289063,0.07422 0.09444,0.03024 0.186189,0.06263 0.277344,0.101562 h 0.002 c 0.09191,0.03893 0.181895,0.08286 0.269531,0.13086 0.08755,0.048 0.171622,0.09956 0.253906,0.15625 h 0.002 c 0.08257,0.05632 0.161769,0.117388 0.238282,0.18164 l 0.002,0.002 c 0.07659,0.06425 0.150903,0.133267 0.220703,0.205078 0.06824,0.07068 0.134341,0.145554 0.195312,0.222657 v 0.002 c 0.06211,0.07824 0.121753,0.158282 0.175782,0.242187 0.05358,0.08353 0.103427,0.171325 0.148437,0.259766 v 0.002 c 0.04557,0.0892 0.08663,0.180461 0.123047,0.273438 0.0353,0.09184 0.06567,0.186383 0.0918,0.28125 h 0.002 c 0.02683,0.09638 0.04738,0.194323 0.06445,0.292968 l 0.002,0.002 c 0.01716,0.09865 0.02794,0.197473 0.03516,0.296874 0.0049,0.0703 0.0079,0.139064 0.0078,0.208985 V 19 c 9e-5,0.09978 -0.0038,0.199427 -0.01367,0.298828 -0.01017,0.09902 -0.02691,0.19741 -0.04687,0.294922 -9e-6,0.0025 -9e-6,0.004 0,0.0078 -0.01958,0.09789 -0.04501,0.193441 -0.07422,0.289063 -0.02963,0.09449 -0.06276,0.186257 -0.101562,0.277344 v 0.002 c -0.03897,0.09184 -0.08295,0.181846 -0.13086,0.269531 -0.04794,0.08731 -0.09978,0.171513 -0.15625,0.253906 v 0.002 c -0.05653,0.08277 -0.11715,0.161935 -0.18164,0.238282 l -0.002,0.002 c -0.06065,0.07257 -0.126171,0.142465 -0.19336,0.208984 -0.02527,0.02269 -0.05195,0.04546 -0.07813,0.06836 -0.225177,0.138018 -5.021483,3.126455 -5.021484,7.789062 6.2e-5,0.552265 0.447743,0.999962 1,1 h 5 c 0.552257,-3.8e-5 0.999938,-0.447735 1,-1 0,-1.083364 0.234883,-1.62505 0.582031,-2.087891 0.34715,-0.462878 0.886226,-0.855467 1.542969,-1.380859 1.313485,-1.050784 2.875001,-2.793146 2.875,-6.53125 0,-4.958702 -4.041282,-9 -9,-9 z m 0.5,22 C 22.561,32 21,33.561 21,35.5 21,37.439 22.561,39 24.5,39 26.439,39 28,37.439 28,35.5 28,33.561 26.439,32 24.5,32 Z"
               transform="matrix(0.26458332,0,0,0.26458332,-12.557875,286.05355)"
               id="path887"
               inkscape:connector-curvature="0"
               sodipodi:nodetypes="ccccccccccccccccccccccccccccccccccsccccccccccccccccccccccccccccccccccccccccccccssccsssss" />
          </g>
        </g>
      </g>
    </g>
  </g>
</svg>
