<?xml version="1.0" encoding="UTF-8" standalone="no"?>
<!-- Created with Inkscape (http://www.inkscape.org/) -->

<svg
   xmlns:dc="http://purl.org/dc/elements/1.1/"
   xmlns:cc="http://creativecommons.org/ns#"
   xmlns:rdf="http://www.w3.org/1999/02/22-rdf-syntax-ns#"
   xmlns:svg="http://www.w3.org/2000/svg"
   xmlns="http://www.w3.org/2000/svg"
   xmlns:sodipodi="http://sodipodi.sourceforge.net/DTD/sodipodi-0.dtd"
   xmlns:inkscape="http://www.inkscape.org/namespaces/inkscape"
   width="48"
   height="48"
   viewBox="0 0 12.7 12.7"
   version="1.1"
   id="svg8"
   inkscape:version="0.92.3 (2405546, 2018-03-11)"
   sodipodi:docname="wine.svg">
  <defs
     id="defs2" />
  <sodipodi:namedview
     id="base"
     pagecolor="#ffffff"
     bordercolor="#666666"
     borderopacity="1.0"
     inkscape:pageopacity="0.0"
     inkscape:pageshadow="2"
     inkscape:zoom="1"
     inkscape:cx="129.88394"
     inkscape:cy="133.20332"
     inkscape:document-units="px"
     inkscape:current-layer="layer1"
     showgrid="true"
     units="px"
     inkscape:showpageshadow="false"
     inkscape:snap-bbox="true"
     inkscape:bbox-paths="true"
     inkscape:bbox-nodes="true"
     inkscape:snap-bbox-edge-midpoints="true"
     inkscape:snap-bbox-midpoints="true"
     inkscape:object-paths="true"
     inkscape:snap-intersection-paths="true"
     inkscape:window-width="1874"
     inkscape:window-height="1141"
     inkscape:window-x="46"
     inkscape:window-y="30"
     inkscape:window-maximized="1">
    <inkscape:grid
       type="xygrid"
       id="grid815" />
  </sodipodi:namedview>
  <metadata
     id="metadata5">
    <rdf:RDF>
      <cc:Work
         rdf:about="">
        <dc:format>image/svg+xml</dc:format>
        <dc:type
           rdf:resource="http://purl.org/dc/dcmitype/StillImage" />
        <dc:title></dc:title>
      </cc:Work>
    </rdf:RDF>
  </metadata>
  <g
     inkscape:label="Capa 1"
     inkscape:groupmode="layer"
     id="layer1"
     transform="translate(0,-284.29999)">
    <g
       id="g1838"
       transform="matrix(1.4666667,0,0,1.4666667,6.3500001,-135.63668)">
      <g
         transform="matrix(0.26458333,0,0,0.26458333,-4.2333332,211.63219)"
         inkscape:label="Capa 1"
         id="layer1-87">
        <path
           inkscape:connector-curvature="0"
           style="opacity:1;fill:#287bc2;fill-opacity:1;stroke:none;stroke-width:1.36363637;stroke-linecap:round;stroke-linejoin:round;stroke-miterlimit:4;stroke-dasharray:none;stroke-opacity:1;paint-order:fill markers stroke"
           d="m 2.363636,313.64998 c -0.7554545,0 -1.36363634,-0.60818 -1.36363634,-1.36364 v -12.27273 -1.36363 H 2.363636 14.636363 c 0.755454,0 1.363636,0.60818 1.363636,1.36363 v 12.27273 1.36364 h -1.363636 z"
           id="rect2538-2-1" />
        <path
           inkscape:connector-curvature="0"
           style="opacity:1;fill:#78c1ff;fill-opacity:1;stroke:none;stroke-width:1.36363637;stroke-linecap:round;stroke-linejoin:round;stroke-miterlimit:4;stroke-dasharray:none;stroke-opacity:1;paint-order:fill markers stroke"
           d="m 2.363636,312.96816 c -0.3777273,0 -0.6818182,-0.30409 -0.6818182,-0.68182 V 300.01361 299.3318 H 2.363636 14.636363 c 0.377727,0 0.681818,0.30409 0.681818,0.68181 v 12.27273 0.68182 h -0.681818 z"
           id="rect2549-6-8" />
        <path
           inkscape:connector-curvature="0"
           style="opacity:1;fill:#5e9c76;fill-opacity:1;stroke:none;stroke-width:1.36363637;stroke-linecap:round;stroke-linejoin:round;stroke-miterlimit:4;stroke-dasharray:none;stroke-opacity:1;paint-order:fill markers stroke"
           d="m 29.636363,283.64997 c 0.755454,0 1.363636,0.60818 1.363636,1.36364 v 12.27273 1.36363 H 29.636363 17.363635 C 16.608182,298.64997 16,298.04179 16,297.28634 v -12.27273 -1.36364 h 1.363635 z"
           id="rect2538-2-7" />
        <path
           inkscape:connector-curvature="0"
           style="opacity:1;fill:#bae0bd;fill-opacity:1;stroke:none;stroke-width:1.36363637;stroke-linecap:round;stroke-linejoin:round;stroke-miterlimit:4;stroke-dasharray:none;stroke-opacity:1;paint-order:fill markers stroke"
           d="m 29.636363,284.33179 c 0.377727,0 0.681818,0.30409 0.681818,0.68182 v 12.27273 0.68181 H 29.636363 17.363635 c -0.377726,0 -0.681817,-0.30409 -0.681817,-0.68181 v -12.27273 -0.68182 h 0.681817 z"
           id="rect2549-6-9" />
        <path
           inkscape:connector-curvature="0"
           style="opacity:1;fill:#ffb851;fill-opacity:0.96078432;stroke:none;stroke-width:1.36363637;stroke-linecap:round;stroke-linejoin:round;stroke-miterlimit:4;stroke-dasharray:none;stroke-opacity:1;paint-order:fill markers stroke"
           d="m 29.636363,313.64998 c 0.755454,0 1.363636,-0.60818 1.363636,-1.36364 v -12.27273 -1.36363 H 29.636363 17.363635 C 16.608182,298.64998 16,299.25816 16,300.01361 v 12.27273 1.36364 h 1.363635 z"
           id="rect2538-2-1-2" />
        <path
           inkscape:connector-curvature="0"
           style="opacity:1;fill:#ffeea3;fill-opacity:1;stroke:none;stroke-width:1.36363637;stroke-linecap:round;stroke-linejoin:round;stroke-miterlimit:4;stroke-dasharray:none;stroke-opacity:1;paint-order:fill markers stroke"
           d="m 29.636363,312.96816 c 0.377727,0 0.681818,-0.30409 0.681818,-0.68182 V 300.01361 299.3318 H 29.636363 17.363635 c -0.377726,0 -0.681817,0.30409 -0.681817,0.68181 v 12.27273 0.68182 h 0.681817 z"
           id="rect2549-6-8-0" />
        <path
           style="opacity:1;fill:#c74343;fill-opacity:1;stroke:none;stroke-width:2;stroke-linecap:round;stroke-linejoin:round;stroke-miterlimit:4;stroke-dasharray:none;stroke-opacity:1;paint-order:fill markers stroke"
           d="M 4 2 C 2.892 2 2 2.892 2 4 L 2 22 L 2 24 L 4 24 L 22 24 C 23.108 24 24 23.108 24 22 L 24 4 L 24 2 L 22 2 L 4 2 z "
           transform="matrix(0.68181817,0,0,0.68181817,-0.36363676,282.28634)"
           id="rect2538-2" />
        <path
           style="opacity:1;fill:#f78f8f;fill-opacity:1;stroke:none;stroke-width:2;stroke-linecap:round;stroke-linejoin:round;stroke-miterlimit:4;stroke-dasharray:none;stroke-opacity:1;paint-order:fill markers stroke"
           d="M 4 3 C 3.446 3 3 3.446 3 4 L 3 22 L 3 23 L 4 23 L 22 23 C 22.554 23 23 22.554 23 22 L 23 4 L 23 3 L 22 3 L 4 3 z "
           transform="matrix(0.68181817,0,0,0.68181817,-0.36363676,282.28634)"
           id="rect2549-6" />
        <rect
           style="opacity:1;fill:#36404d;fill-opacity:1;stroke:none;stroke-width:1.36363637;stroke-linecap:round;stroke-linejoin:round;stroke-miterlimit:4;stroke-dasharray:none;stroke-opacity:1;paint-order:fill markers stroke"
           id="rect2538"
           width="17.727272"
           height="17.727272"
           x="7.136363"
           y="289.78635"
           ry="1.3636364" />
        <rect
           style="opacity:1;fill:#4b6477;fill-opacity:1;stroke:none;stroke-width:1.36363637;stroke-linecap:round;stroke-linejoin:round;stroke-miterlimit:4;stroke-dasharray:none;stroke-opacity:1;paint-order:fill markers stroke"
           id="rect2549"
           width="16.363636"
           height="16.363636"
           x="7.8181815"
           y="290.46817"
           ry="0.68181819" />
      </g>
      <path
         style="fill:#e5f3ff;fill-opacity:1;stroke-width:0.25635439;enable-background:new"
         d="m 1.0823862,289.38721 -1.26278406,0.1804 v 0.90199 H 1.0823862 Z m -1.44318178,0.1804 -0.90198852,0.1804 v 0.72159 h 0.90198852 z M -1.2627841,290.65 v 0.72159 l 0.90198852,0.18039 V 290.65 Z m 1.08238624,0 v 0.90198 l 1.26278406,0.1804 V 290.65 Z"
         id="path2699"
         inkscape:connector-curvature="0" />
    </g>
  </g>
</svg>
