<?xml version="1.0" encoding="UTF-8" standalone="no"?>
<!-- Created with Inkscape (http://www.inkscape.org/) -->

<svg
   xmlns:dc="http://purl.org/dc/elements/1.1/"
   xmlns:cc="http://creativecommons.org/ns#"
   xmlns:rdf="http://www.w3.org/1999/02/22-rdf-syntax-ns#"
   xmlns:svg="http://www.w3.org/2000/svg"
   xmlns="http://www.w3.org/2000/svg"
   xmlns:sodipodi="http://sodipodi.sourceforge.net/DTD/sodipodi-0.dtd"
   xmlns:inkscape="http://www.inkscape.org/namespaces/inkscape"
   width="48"
   height="48"
   viewBox="0 0 48 48"
   version="1.1"
   id="svg8"
   inkscape:version="0.92.3 (2405546, 2018-03-11)"
   sodipodi:docname="yast-inetd.svg">
  <title
     id="title7895">Antu icon Theme</title>
  <defs
     id="defs2">
    <style
       type="text/css"
       id="current-color-scheme">
      .ColorScheme-Text {
        color:#122036;
      }
      </style>
    <style
       id="current-color-scheme-23"
       type="text/css">
      .ColorScheme-Text {
        color:#122036;
      }
      </style>
    <style
       type="text/css"
       id="current-color-scheme-5">
      .ColorScheme-Text {
        color:#122036;
      }
      </style>
    <style
       type="text/css"
       id="current-color-scheme-2">
      .ColorScheme-Text {
        color:#122036;
      }
      </style>
    <style
       type="text/css"
       id="current-color-scheme-1">
      .ColorScheme-Text {
        color:#122036;
      }
      </style>
    <style
       id="current-color-scheme-10"
       type="text/css">
      .ColorScheme-Text {
        color:#122036;
      }
      </style>
    <style
       type="text/css"
       id="current-color-scheme-0">
      .ColorScheme-Text {
        color:#122036;
      }
      </style>
    <style
       type="text/css"
       id="current-color-scheme-26">
      .ColorScheme-Text {
        color:#122036;
      }
      </style>
    <style
       id="current-color-scheme-27"
       type="text/css">
      .ColorScheme-Text {
        color:#122036;
      }
      </style>
    <style
       type="text/css"
       id="current-color-scheme-5-0">
      .ColorScheme-Text {
        color:#122036;
      }
      </style>
    <style
       type="text/css"
       id="current-color-scheme-2-9">
      .ColorScheme-Text {
        color:#122036;
      }
      </style>
    <style
       type="text/css"
       id="current-color-scheme-1-3">
      .ColorScheme-Text {
        color:#122036;
      }
      </style>
    <style
       id="current-color-scheme-10-6"
       type="text/css">
      .ColorScheme-Text {
        color:#122036;
      }
      </style>
    <style
       type="text/css"
       id="current-color-scheme-0-0">
      .ColorScheme-Text {
        color:#122036;
      }
      </style>
    <style
       type="text/css"
       id="current-color-scheme-26-6">
      .ColorScheme-Text {
        color:#122036;
      }
      </style>
  </defs>
  <sodipodi:namedview
     id="base"
     pagecolor="#ffffff"
     bordercolor="#666666"
     borderopacity="1.0"
     inkscape:pageopacity="0.0"
     inkscape:pageshadow="2"
     inkscape:zoom="15.999999"
     inkscape:cx="10.951357"
     inkscape:cy="19.019255"
     inkscape:document-units="px"
     inkscape:current-layer="g1185"
     showgrid="true"
     units="px"
     inkscape:window-width="1874"
     inkscape:window-height="1141"
     inkscape:window-x="46"
     inkscape:window-y="30"
     inkscape:window-maximized="1"
     objecttolerance="10"
     gridtolerance="10"
     guidetolerance="10"
     inkscape:snap-bbox="true"
     inkscape:bbox-nodes="true"
     inkscape:bbox-paths="true"
     inkscape:snap-bbox-edge-midpoints="true"
     inkscape:snap-bbox-midpoints="true"
     inkscape:object-paths="true"
     inkscape:snap-intersection-paths="true"
     inkscape:object-nodes="true"
     inkscape:snap-smooth-nodes="false"
     inkscape:snap-midpoints="false"
     inkscape:showpageshadow="false">
    <inkscape:grid
       type="xygrid"
       id="grid7897"
       empspacing="4" />
  </sodipodi:namedview>
  <metadata
     id="metadata5">
    <rdf:RDF>
      <cc:Work
         rdf:about="">
        <dc:format>image/svg+xml</dc:format>
        <dc:type
           rdf:resource="http://purl.org/dc/dcmitype/StillImage" />
        <dc:title>Antu icon Theme</dc:title>
      </cc:Work>
    </rdf:RDF>
  </metadata>
  <g
     inkscape:label="Capa 1"
     inkscape:groupmode="layer"
     id="layer1"
     transform="translate(0,-266.64999)">
    <g
       id="g1535"
       transform="translate(35,-15.000005)">
      <g
         id="g911"
         transform="translate(-35,15)">
        <g
           transform="matrix(1.4666667,0,0,1.4666667,-8.4666672,-148.63667)"
           id="layer1-6-0"
           inkscape:label="Capa 1" />
        <g
           id="g1185">
          <g
             transform="translate(-24,-4)"
             id="g5422">
            <path
               style="opacity:1;fill:#8aa3bc;fill-opacity:0.72941178;stroke:none;stroke-width:0.30000001;stroke-miterlimit:4;stroke-dasharray:none;stroke-opacity:1"
               d="m 47.999976,272.65002 4.7e-5,0 C 60.187999,272.65002 70,282.462 70,294.65 c 0,12.18797 -9.812001,21.99997 -21.999977,21.99997 l -4.7e-5,0 c -12.188,0 -21.999977,-9.812 -21.999977,-21.99997 0,-12.188 9.811977,-21.99998 21.999977,-21.99998 z"
               id="rect4544"
               inkscape:connector-curvature="0" />
            <path
               style="opacity:1;fill:#e1ebf2;fill-opacity:1;stroke:none;stroke-width:0.30000001;stroke-miterlimit:4;stroke-dasharray:none;stroke-opacity:1"
               d="m 47.999976,273.64998 2.3e-5,0 c 11.633999,0 20.999992,9.36599 20.999992,20.99999 0,11.63401 -9.365993,21 -20.999992,21 l -2.3e-5,0 c -11.633999,0 -20.999992,-9.36599 -20.999992,-21 0,-11.634 9.365993,-20.99999 20.999992,-20.99999 z"
               id="rect4544-5"
               inkscape:connector-curvature="0" />
            <path
               style="opacity:1;fill:#007042;fill-opacity:1;stroke:none;stroke-width:0.27272728;stroke-miterlimit:4;stroke-dasharray:none;stroke-opacity:1"
               d="m 47.999979,274.65002 h 4.2e-5 C 59.079999,274.65002 68,283.57 68,294.65 c 0,11.07997 -8.920001,19.99997 -19.999979,19.99997 h -4.2e-5 C 36.919979,314.64997 28,305.72997 28,294.65 c 0,-11.08 8.919979,-19.99998 19.999979,-19.99998 z"
               id="rect4544-59"
               inkscape:connector-curvature="0" />
            <path
               style="opacity:1;fill:#24b17a;fill-opacity:1;stroke:none;stroke-width:0.27142853;stroke-miterlimit:4;stroke-dasharray:none;stroke-opacity:1"
               d="m 47.99999,275.65 h 2e-5 C 58.526008,275.65 67,284.12398 67,294.64998 c 0,10.52601 -8.473992,19 -18.99999,19 h -2e-5 C 37.473992,313.64998 29,305.17599 29,294.64998 29,284.12398 37.473992,275.65 47.99999,275.65 Z"
               id="rect4544-5-2"
               inkscape:connector-curvature="0"
               sodipodi:nodetypes="sssssss" />
          </g>
          <path
             id="path1140"
             d="m 24,273.64999 c -1.108,0 -2,0.892 -2,2 0,1.108 0.892,2 2,2 1.108,0 2,-0.892 2,-2 0,-1.108 -0.892,-2 -2,-2 z"
             style="opacity:1;fill:#d8eee5;fill-opacity:1;stroke:none;stroke-width:2;stroke-linecap:round;stroke-linejoin:round;stroke-miterlimit:4;stroke-dasharray:none;stroke-opacity:1"
             inkscape:connector-curvature="0" />
          <path
             sodipodi:nodetypes="ccccc"
             inkscape:connector-curvature="0"
             id="path1138"
             d="m 24,290.64999 -3,-3 -6,13 12,-7 z"
             style="opacity:1;fill:#dcf1e9;fill-opacity:1;stroke:none;stroke-width:2;stroke-linecap:round;stroke-linejoin:round;stroke-miterlimit:4;stroke-dasharray:none;stroke-opacity:1" />
          <path
             id="path1136"
             d="m 9,287.64999 c -1.108,0 -2,0.892 -2,2 0,1.108 0.892,2 2,2 1.108,0 2,-0.892 2,-2 0,-1.108 -0.892,-2 -2,-2 z"
             style="opacity:1;fill:#d8eee5;fill-opacity:1;stroke:none;stroke-width:2;stroke-linecap:round;stroke-linejoin:round;stroke-miterlimit:4;stroke-dasharray:none;stroke-opacity:1" />
          <path
             id="path1134"
             d="m 39,287.64999 c -1.108,0 -2,0.892 -2,2 0,1.108 0.892,2 2,2 1.108,0 2,-0.892 2,-2 0,-1.108 -0.892,-2 -2,-2 z"
             style="opacity:1;fill:#d8eee5;fill-opacity:1;stroke:none;stroke-width:2;stroke-linecap:round;stroke-linejoin:round;stroke-miterlimit:4;stroke-dasharray:none;stroke-opacity:1" />
          <path
             id="rect1085-9"
             d="m 24,303.64999 c -1.108,0 -2,0.892 -2,2 0,1.108 0.892,2 2,2 1.108,0 2,-0.892 2,-2 0,-1.108 -0.892,-2 -2,-2 z"
             style="opacity:1;fill:#d8eee5;fill-opacity:1;stroke:none;stroke-width:2;stroke-linecap:round;stroke-linejoin:round;stroke-miterlimit:4;stroke-dasharray:none;stroke-opacity:1"
             inkscape:connector-curvature="0" />
          <path
             sodipodi:nodetypes="ccccc"
             inkscape:connector-curvature="0"
             id="path1138-3"
             d="m 24,290.64999 3,3 6,-13 -12,7 z"
             style="opacity:1;fill:#007042;fill-opacity:1;stroke:none;stroke-width:2;stroke-linecap:round;stroke-linejoin:round;stroke-miterlimit:4;stroke-dasharray:none;stroke-opacity:1" />
        </g>
      </g>
    </g>
  </g>
</svg>
