<?xml version="1.0" encoding="UTF-8" standalone="no"?>
<!-- Created with Inkscape (http://www.inkscape.org/) -->

<svg
   xmlns:dc="http://purl.org/dc/elements/1.1/"
   xmlns:cc="http://creativecommons.org/ns#"
   xmlns:rdf="http://www.w3.org/1999/02/22-rdf-syntax-ns#"
   xmlns:svg="http://www.w3.org/2000/svg"
   xmlns="http://www.w3.org/2000/svg"
   xmlns:sodipodi="http://sodipodi.sourceforge.net/DTD/sodipodi-0.dtd"
   xmlns:inkscape="http://www.inkscape.org/namespaces/inkscape"
   width="48"
   height="48"
   viewBox="0 0 12.7 12.7"
   version="1.1"
   id="svg1399"
   inkscape:version="0.92.4 5da689c313, 2019-01-14"
   sodipodi:docname="yast-nis-server.svg">
  <defs
     id="defs1393" />
  <sodipodi:namedview
     id="base"
     pagecolor="#ffffff"
     bordercolor="#666666"
     borderopacity="1.0"
     inkscape:pageopacity="0.0"
     inkscape:pageshadow="2"
     inkscape:zoom="15.839192"
     inkscape:cx="16.37892"
     inkscape:cy="26.944161"
     inkscape:document-units="mm"
     inkscape:current-layer="layer1"
     showgrid="true"
     inkscape:showpageshadow="false"
     units="px"
     inkscape:window-width="1920"
     inkscape:window-height="999"
     inkscape:window-x="0"
     inkscape:window-y="0"
     inkscape:window-maximized="1">
    <inkscape:grid
       type="xygrid"
       id="grid1556" />
  </sodipodi:namedview>
  <metadata
     id="metadata1396">
    <rdf:RDF>
      <cc:Work
         rdf:about="">
        <dc:format>image/svg+xml</dc:format>
        <dc:type
           rdf:resource="http://purl.org/dc/dcmitype/StillImage" />
        <dc:title></dc:title>
      </cc:Work>
    </rdf:RDF>
  </metadata>
  <g
     inkscape:label="Capa 1"
     inkscape:groupmode="layer"
     id="layer1"
     transform="translate(0,-284.30005)">
    <g
       id="g1554"
       transform="translate(6.3807229,-15.907587)">
      <path
         style="opacity:1;fill:#4972c5;fill-opacity:1;stroke:none;stroke-width:0.08315476;stroke-miterlimit:4;stroke-dasharray:none;stroke-opacity:1"
         d="m -0.03072576,300.73678 h 6.6e-6 c 3.22474036,0 5.82082996,2.59609 5.82082996,5.82083 0,3.22474 -2.5960896,5.82083 -5.82082996,5.82083 h -6.6e-6 c -3.22474094,0 -5.82083044,-2.59609 -5.82083044,-5.82083 0,-3.22474 2.5960895,-5.82083 5.82083044,-5.82083 z"
         id="rect4544-5-5-9-9"
         inkscape:connector-curvature="0" />
      <path
         style="opacity:1;fill:#5ca5ff;fill-opacity:1;stroke:none;stroke-width:0.079375;stroke-miterlimit:4;stroke-dasharray:none;stroke-opacity:1"
         d="m -0.03072256,301.00137 h 6.1e-6 c 3.07816166,0 5.55624726,2.47808 5.55624726,5.55624 0,3.07817 -2.4780856,5.55625 -5.55624726,5.55625 h -6.1e-6 c -3.07816174,0 -5.55624714,-2.47808 -5.55624714,-5.55625 0,-3.07816 2.4780854,-5.55624 5.55624714,-5.55624 z"
         id="rect4544-5-5-9"
         inkscape:connector-curvature="0" />
      <path
         inkscape:connector-curvature="0"
         style="opacity:1;vector-effect:none;fill:#e6f9ff;fill-opacity:1;stroke:none;stroke-width:0.26458332;stroke-linecap:round;stroke-linejoin:round;stroke-miterlimit:4;stroke-dasharray:none;stroke-dashoffset:0;stroke-opacity:1"
         d="m 0.35788424,301.04064 c -0.1156867,-0.008 -0.2260709,-0.0337 -0.3436483,-0.0346 -0.287528,0.27023 -0.6091171,0.53952 -0.8474935,0.8108 -0.039132,-0.0128 -0.079973,-0.0217 -0.1235067,-0.0217 -0.21986874,0 -0.39687504,0.17701 -0.39687504,0.39688 0,0.072 0.020519,0.13829 0.053744,0.19637 -0.5242144,0.69199 -0.896843,1.38209 -1.1472166,2.06241 -0.031908,-0.005 -0.063901,-0.01 -0.097152,-0.01 -0.227307,0 -0.4267308,0.11366 -0.5457031,0.28732 -0.5324021,-0.25434 -1.0891301,-0.63791 -1.6557128,-1.08831 -0.046837,0.0757 -0.083886,0.15752 -0.1271241,0.23565 0.5717709,0.44978 1.136202,0.83521 1.6805175,1.09347 -0.00872,0.043 -0.013435,0.0877 -0.013435,0.13333 0,0.2836 0.1775991,0.52262 0.427364,0.61701 -0.093281,0.59801 -0.098887,1.18305 -0.029456,1.74718 0.034082,0.27692 0.085315,0.54891 0.1514121,0.81494 -0.6443542,0.30451 -1.3251091,0.7652 -2.0257163,1.31103 0.015695,0.0241 0.025286,0.0522 0.041341,0.076 0.033324,0.0494 0.078315,0.0892 0.1131713,0.13746 0.675481,-0.52729 1.3289759,-0.972 1.9430339,-1.26659 0.1901849,0.65941 0.4708186,1.27984 0.8061524,1.85208 -0.064374,0.0705 -0.1043864,0.16374 -0.1043864,0.26717 0,0.21986 0.1770063,0.39687 0.396875,0.39687 0.043533,0 0.084375,-0.009 0.1235067,-0.0217 0.2618915,0.37336 0.54558754,0.71268 0.83664144,1.03043 0.1558779,0.0139 0.3062052,0.0457 0.4656047,0.0465 -0.3764409,-0.38145 -0.758725,-0.76295 -1.09140624,-1.2392 0.039141,-0.0615 0.062528,-0.13427 0.062528,-0.2129 0,-0.21987 -0.1770062,-0.39688 -0.396875,-0.39688 -0.019148,0 -0.037402,0.003 -0.055811,0.006 -0.3345902,-0.56933 -0.6137738,-1.18594 -0.7989175,-1.83968 0.7255343,-0.31807 1.41107054,-0.48231 2.06550714,-0.52451 0.069645,0.29085 0.3285069,0.50643 0.6413045,0.50643 0.2864887,0 0.5272712,-0.18132 0.6196004,-0.43512 0.47003836,0.0852 0.92644226,0.23173 1.37200926,0.4315 -0.243736,1.03308 -0.1097788,2.13247 0.2583821,3.01274 0.078133,-0.0425 0.1588246,-0.0805 0.234611,-0.12661 -0.3289043,-0.80814 -0.4572238,-1.82478 -0.2490803,-2.76986 0.6459246,0.3194 1.2657391,0.76996 1.877405,1.26814 0.03075,-0.0429 0.07071,-0.0782 0.100252,-0.12195 0.01996,-0.0296 0.03176,-0.0646 0.05116,-0.0946 -0.6339652,-0.51521 -1.2800364,-0.98303 -1.961121,-1.31362 0.1318459,-0.45204 0.3445788,-0.88061 0.6521567,-1.25832 0.1063291,0.0527 0.2247669,0.0848 0.3519164,0.0848 0.041133,0 0.080476,-0.006 0.1198894,-0.0119 0.00132,0.002 0.0023,0.004 0.00362,0.006 0.3111611,0.43562 0.8284855,0.79503 1.4603765,1.10381 0.0254,-0.083 0.0549,-0.16392 0.07648,-0.24857 -0.549106,-0.27412 -0.999977,-0.58483 -1.2764083,-0.95136 0.2436853,-0.1352 0.4097953,-0.39192 0.4097953,-0.69143 0,-0.0647 -0.0098,-0.12643 -0.02429,-0.18655 0.290318,-0.14824 0.633464,-0.25781 1.002523,-0.34727 -0.01242,-0.0863 -0.01004,-0.17708 -0.02635,-0.262 -0.394354,0.0944 -0.762576,0.21137 -1.07642,0.37156 -0.140469,-0.22178 -0.3861799,-0.36949 -0.6692097,-0.36949 -0.059912,0 -0.1175819,0.008 -0.1736328,0.0202 -0.014822,-0.13814 -0.024805,-0.27718 -0.024805,-0.41702 0,-0.87413 0.2637994,-1.68707 0.5183145,-2.36678 -0.032952,-0.0347 -0.057632,-0.0768 -0.091467,-0.11059 -0.055394,-0.0554 -0.1236887,-0.0963 -0.1813843,-0.14935 -0.624731,1.15233 -1.6802063,2.20697 -3.06286216,2.6324 -0.7613145,0.23425 -1.6176604,0.27932 -2.54609764,0.0532 0.00175,-0.0197 0.00568,-0.0388 0.00568,-0.0589 0,-0.24102 -0.1287664,-0.44923 -0.320394,-0.56483 0.2388311,-0.64977 0.5954765,-1.31104 1.0996744,-1.97714 0.045489,0.0181 0.094679,0.0284 0.14676124,0.0284 0.2198688,0 0.396875,-0.177 0.396875,-0.39687 0,-0.0797 -0.023926,-0.15343 -0.064079,-0.21549 0.2757308,-0.31165 0.6373112,-0.62378 0.9818524,-0.93586 z m 3.12642406,2.33629 c -0.1540293,0.53435 -0.2733683,1.12569 -0.2733683,1.72548 0,0.17396 0.014626,0.34833 0.037207,0.52193 -0.2212316,0.14057 -0.3684529,0.38607 -0.3684529,0.66869 0,0.21882 0.087701,0.41635 0.2299602,0.55966 -0.3179215,0.39127 -0.5417291,0.83247 -0.6821289,1.29501 -0.4538509,-0.20021 -0.9206447,-0.3483 -1.4035321,-0.43512 -0.018756,-0.3494 -0.30359736,-0.6258 -0.65784086,-0.6258 -0.3291343,0 -0.598727,0.23844 -0.6506062,0.55242 -0.6773278,0.0435 -1.38356184,0.21185 -2.12493494,0.53227 -0.058447,-0.24156 -0.1051438,-0.48694 -0.135909,-0.73691 -0.066503,-0.54033 -0.060474,-1.10031 0.027388,-1.67328 0.2423785,-0.01 0.4484918,-0.14795 0.5555218,-0.34933 0.97863874,0.24132 1.88846894,0.19845 2.69802644,-0.0506 1.14295816,-0.35168 2.08074756,-1.09816 2.74866946,-1.98438 z"
         id="path1818" />
      <path
         inkscape:connector-curvature="0"
         style="fill:#36404d;fill-opacity:1;stroke:none;stroke-width:0.38884729;stroke-linecap:round;stroke-linejoin:round;stroke-miterlimit:4;stroke-dasharray:none;stroke-opacity:1"
         d="m 2.3505274,304.97015 c 2.1986884,0 3.9687504,1.77002 3.9687504,3.96873 0,2.19867 -1.770062,3.96875 -3.9687504,3.96875 -2.19868716,0 -3.9687503,-1.77008 -3.9687503,-3.96875 0,-2.19871 1.77006314,-3.96873 3.9687503,-3.96873 z"
         id="rect4496-2-5" />
      <path
         inkscape:connector-curvature="0"
         style="fill:#4b6477;fill-opacity:1;stroke:none;stroke-width:0.37100008;stroke-linecap:round;stroke-linejoin:round;stroke-miterlimit:4;stroke-dasharray:none;stroke-opacity:1"
         d="m 2.3505274,305.23472 c 2.0521084,0 3.7041674,1.65204 3.7041674,3.70416 0,2.05212 -1.652059,3.70419 -3.7041674,3.70419 -2.05210806,0 -3.7041661,-1.65207 -3.7041661,-3.70419 0,-2.05212 1.65205804,-3.70416 3.7041661,-3.70416 z"
         id="rect4570-9-6-3-6" />
      <path
         inkscape:connector-curvature="0"
         d="m 2.3505274,306.29306 c -0.7328958,0 -1.3229167,0.59002 -1.3229167,1.32291 0,0.7329 0.5900209,1.32292 1.3229167,1.32292 0.7328958,0 1.3229167,-0.59002 1.3229167,-1.32292 0,-0.73289 -0.5900209,-1.32291 -1.3229167,-1.32291 z m 0,3.175 c -0.9728367,0 -1.85208326,0.52916 -2.11666666,1.32291 0.5291667,0.52917 1.30187856,0.79375 2.11666666,0.79375 0.8147881,0 1.5875,-0.26458 2.1166664,-0.79375 -0.264583,-0.79375 -1.1438297,-1.32291 -2.1166664,-1.32291 z"
         style="color:#36404d;fill:#e1ebf2;fill-opacity:1;stroke:none;stroke-width:0.26458332"
         class="ColorScheme-Text"
         id="path913" />
    </g>
  </g>
</svg>
