<?xml version="1.0" encoding="UTF-8" standalone="no"?>
<!-- Created with Inkscape (http://www.inkscape.org/) -->

<svg
   xmlns:dc="http://purl.org/dc/elements/1.1/"
   xmlns:cc="http://creativecommons.org/ns#"
   xmlns:rdf="http://www.w3.org/1999/02/22-rdf-syntax-ns#"
   xmlns:svg="http://www.w3.org/2000/svg"
   xmlns="http://www.w3.org/2000/svg"
   xmlns:sodipodi="http://sodipodi.sourceforge.net/DTD/sodipodi-0.dtd"
   xmlns:inkscape="http://www.inkscape.org/namespaces/inkscape"
   width="48"
   height="48"
   viewBox="0 0 48 48"
   version="1.1"
   id="svg8"
   inkscape:version="0.92.3 (2405546, 2018-03-11)"
   sodipodi:docname="yast-language.svg">
  <title
     id="title7895">Antu icon Theme</title>
  <defs
     id="defs2" />
  <sodipodi:namedview
     id="base"
     pagecolor="#ffffff"
     bordercolor="#666666"
     borderopacity="1.0"
     inkscape:pageopacity="0.0"
     inkscape:pageshadow="2"
     inkscape:zoom="11.313708"
     inkscape:cx="37.136445"
     inkscape:cy="5.7263127"
     inkscape:document-units="px"
     inkscape:current-layer="layer1"
     showgrid="false"
     units="px"
     inkscape:window-width="1874"
     inkscape:window-height="1141"
     inkscape:window-x="46"
     inkscape:window-y="30"
     inkscape:window-maximized="1"
     objecttolerance="10"
     gridtolerance="10"
     guidetolerance="10">
    <inkscape:grid
       type="xygrid"
       id="grid7897"
       empspacing="4" />
  </sodipodi:namedview>
  <metadata
     id="metadata5">
    <rdf:RDF>
      <cc:Work
         rdf:about="">
        <dc:format>image/svg+xml</dc:format>
        <dc:type
           rdf:resource="http://purl.org/dc/dcmitype/StillImage" />
        <dc:title>Antu icon Theme</dc:title>
      </cc:Work>
    </rdf:RDF>
  </metadata>
  <g
     inkscape:label="Capa 1"
     inkscape:groupmode="layer"
     id="layer1"
     transform="translate(0,-266.64999)">
    <g
       id="g1221">
      <path
         inkscape:connector-curvature="0"
         id="rect927-1"
         d="m 17.999997,282.65 h 26.000002 c 1.108,0 2,0.89204 2,2.00001 v 26 c 0,1.10802 -0.892,2.00001 -2,2.00001 H 17.999997 c -1.107999,0 -1.999999,-0.89199 -1.999999,-2.00001 v -26 c 0,-1.10797 0.892,-2.00001 1.999999,-2.00001 z"
         style="opacity:1;fill:#8ba3bc;fill-opacity:1;stroke:none;stroke-width:4.00222683;stroke-linecap:round;stroke-linejoin:round;stroke-miterlimit:4;stroke-dasharray:none;stroke-opacity:1" />
      <path
         inkscape:connector-curvature="0"
         id="rect927-6-8"
         d="m 17.999998,283.64998 h 26 c 0.554001,0 1.000001,0.44589 1.000001,0.99998 v 26 c 0,0.55403 -0.445999,1.00003 -1.000001,1.00003 h -26 c -0.554,0 -1,-0.44589 -1,-1.00003 v -26 c 0,-0.55399 0.445999,-0.99998 1,-0.99998 z"
         style="opacity:1;fill:#e1ebf2;fill-opacity:1;stroke:none;stroke-width:3.73541164;stroke-linecap:round;stroke-linejoin:round;stroke-miterlimit:4;stroke-dasharray:none;stroke-opacity:1" />
      <g
         style="fill:#666666;fill-opacity:1"
         inkscape:label="Capa 1"
         id="layer1-3-3-1"
         transform="matrix(5.1968504,0,0,5.1968504,2.0000003,-1230.8145)">
        <path
           inkscape:connector-curvature="0"
           id="rect1107-2"
           transform="matrix(0.19242424,0,0,0.19242424,-0.38484847,288.14847)"
           d="m 28,19 v 2 h -4 v 14 h 12 v 3 h -2 v -2 h -2 v 2 h -2 v -2 h -2 v 2 h -2 v -2 h -2 v 2 2 1 h 2 v -1 h 10 v 1 h -2 v 2 h 4 V 41 34 33 H 26 V 31 H 38 V 21 h -7 v -2 z m -2,4 h 10 v 2 H 26 Z m 0,4 h 10 v 2 H 26 Z"
           style="opacity:1;fill:#8ba3bc;fill-opacity:1;stroke:none;stroke-width:4;stroke-linecap:round;stroke-linejoin:round;stroke-miterlimit:4;stroke-dasharray:none;stroke-opacity:1" />
      </g>
      <path
         inkscape:connector-curvature="0"
         id="rect927"
         d="M 3.9999999,268.65005 H 30.000001 c 1.108,0 2,0.89199 2,1.99996 v 26 c 0,1.10802 -0.892,2 -2,2 H 3.9999999 C 2.892,298.65001 2,297.75803 2,296.65001 v -26 c 0,-1.10797 0.892,-1.99996 1.9999999,-1.99996 z"
         style="opacity:1;fill:#287bc2;fill-opacity:1;stroke:none;stroke-width:4.00222683;stroke-linecap:round;stroke-linejoin:round;stroke-miterlimit:4;stroke-dasharray:none;stroke-opacity:1" />
      <path
         inkscape:connector-curvature="0"
         id="rect927-6"
         d="m 4,269.64998 h 26.000001 c 0.554,0 1,0.44589 1,0.99998 v 25.99999 c 0,0.55404 -0.445999,1.00003 -1,1.00003 H 4 c -0.554,0 -1,-0.44589 -1,-1.00003 v -25.99999 c 0,-0.55399 0.446,-0.99998 1,-0.99998 z"
         style="opacity:1;fill:#78c1ff;fill-opacity:1;stroke:none;stroke-width:3.73541164;stroke-linecap:round;stroke-linejoin:round;stroke-miterlimit:4;stroke-dasharray:none;stroke-opacity:1" />
      <g
         inkscape:label="Capa 1"
         id="layer1-6-5"
         transform="matrix(1.4666667,0,0,1.4666667,-5.733334,-155.37001)">
        <path
           sodipodi:nodetypes="ccccccccccccc"
           inkscape:connector-curvature="0"
           id="path1022"
           transform="matrix(0.68181817,0,0,0.68181817,-0.86363596,282.28636)"
           d="m 21,15 -8,16.999996 5,2 L 20,29 h 8 l 2,5 5,-2 -8,-17 z m 3,4 3,6 h -6 z"
           style="fill:#287bc2;fill-opacity:1;stroke:none;stroke-width:1px;stroke-linecap:butt;stroke-linejoin:miter;stroke-opacity:1" />
      </g>
    </g>
  </g>
</svg>
