<?xml version="1.0" encoding="UTF-8" standalone="no"?>
<!-- Created with Inkscape (http://www.inkscape.org/) -->

<svg
   width="48"
   height="48"
   viewBox="0 0 48 48"
   version="1.1"
   id="svg8"
   inkscape:version="1.2 (dc2aedaf03, 2022-05-15)"
   sodipodi:docname="octopi.svg"
   xml:space="preserve"
   xmlns:inkscape="http://www.inkscape.org/namespaces/inkscape"
   xmlns:sodipodi="http://sodipodi.sourceforge.net/DTD/sodipodi-0.dtd"
   xmlns="http://www.w3.org/2000/svg"
   xmlns:svg="http://www.w3.org/2000/svg"
   xmlns:rdf="http://www.w3.org/1999/02/22-rdf-syntax-ns#"
   xmlns:cc="http://creativecommons.org/ns#"
   xmlns:dc="http://purl.org/dc/elements/1.1/"><title
     id="title7895">Antu icon Theme</title><defs
     id="defs2"><linearGradient
       y2="518.14001"
       x2="0"
       y1="545.14001"
       gradientUnits="userSpaceOnUse"
       id="0-5-6"><stop
         id="stop4164-3-7"
         stop-color="#00a661" /><stop
         id="stop4166-5-5"
         stop-color="#37ce97"
         offset="1" /></linearGradient><style
       type="text/css"
       id="current-color-scheme">
      .ColorScheme-Text {
        color:#122036;
      }
      </style><style
       type="text/css"
       id="current-color-scheme-2">
      .ColorScheme-Text {
        color:#122036;
      }
      </style><style
       id="current-color-scheme-60"
       type="text/css">
      .ColorScheme-Text {
        color:#122036;
      }
      </style><style
       type="text/css"
       id="current-color-scheme-6">
      .ColorScheme-Text {
        color:#122036;
      }
      </style><style
       type="text/css"
       id="current-color-scheme-2-6">
      .ColorScheme-Text {
        color:#122036;
      }
      </style></defs><sodipodi:namedview
     id="base"
     pagecolor="#ffffff"
     bordercolor="#666666"
     borderopacity="1.0"
     inkscape:pageopacity="0.0"
     inkscape:pageshadow="2"
     inkscape:zoom="22.627418"
     inkscape:cx="15.09231"
     inkscape:cy="35.33324"
     inkscape:document-units="px"
     inkscape:current-layer="g2383"
     showgrid="true"
     units="px"
     inkscape:window-width="2160"
     inkscape:window-height="1335"
     inkscape:window-x="0"
     inkscape:window-y="0"
     inkscape:window-maximized="1"
     objecttolerance="10"
     gridtolerance="10"
     guidetolerance="10"
     inkscape:snap-bbox="true"
     inkscape:bbox-paths="true"
     inkscape:bbox-nodes="true"
     inkscape:snap-bbox-edge-midpoints="true"
     inkscape:snap-bbox-midpoints="true"
     inkscape:object-paths="true"
     inkscape:snap-intersection-paths="true"
     inkscape:showpageshadow="2"
     inkscape:pagecheckerboard="0"
     inkscape:deskcolor="#d1d1d1"><inkscape:grid
       type="xygrid"
       id="grid7897"
       empspacing="4" /></sodipodi:namedview><metadata
     id="metadata5"><rdf:RDF><cc:Work
         rdf:about=""><dc:format>image/svg+xml</dc:format><dc:type
           rdf:resource="http://purl.org/dc/dcmitype/StillImage" /><dc:title>Antu icon Theme</dc:title></cc:Work></rdf:RDF></metadata><g
     inkscape:label="Capa 1"
     inkscape:groupmode="layer"
     id="layer1"
     transform="translate(0,-266.64999)"><g
       id="g2383"
       transform="translate(32,20)"><path
         id="rect1491"
         d="M -29.000004,258.64999 H 1.000004 c 1.661998,0 2.999996,1.338 2.999996,3 V 291.65 c 0,1.662 -1.337998,2.99999 -2.999996,2.99999 H -29.000004 C -30.662002,294.64999 -32,293.312 -32,291.65 v -30.00001 c 0,-1.662 1.337998,-3 2.999996,-3 z"
         style="opacity:1;vector-effect:none;fill:#a36c4c;fill-opacity:1;stroke:none;stroke-width:2;stroke-linecap:round;stroke-linejoin:round;stroke-miterlimit:4;stroke-dasharray:none;stroke-dashoffset:0;stroke-opacity:1"
         inkscape:connector-curvature="0" /><path
         style="opacity:1;vector-effect:none;fill:#ffc49c;fill-opacity:1;stroke:none;stroke-width:2;stroke-linecap:round;stroke-linejoin:round;stroke-miterlimit:4;stroke-dasharray:none;stroke-dashoffset:0;stroke-opacity:1"
         d="M 3 13 C 1.892 13 1 13.892 1 15 L 1 25 L 5 25 L 5 36 L 1 36 L 1 45 C 1 46.108 1.892 47 3 47 L 33 47 C 34.108 47 35 46.108 35 45 L 35 15 C 35 13.892 34.108 13 33 13 L 3 13 z "
         transform="translate(-32,246.64999)"
         id="rect1502" /><path
         id="rect1504"
         d="m -25,263.64999 h 22 c 1.108,0 2,0.892 2,2 v 22 c 0,1.108 -0.892,2 -2,2 h -22 c -1.108,0 -2,-0.892 -2,-2 v -22 c 0,-1.108 0.892,-2 2,-2 z"
         style="opacity:1;vector-effect:none;fill:#ffffff;fill-opacity:1;stroke:none;stroke-width:2;stroke-linecap:round;stroke-linejoin:round;stroke-miterlimit:4;stroke-dasharray:none;stroke-dashoffset:0;stroke-opacity:1"
         inkscape:connector-curvature="0" /><path
         id="rect1510"
         d="m -25,283.64999 v 4 h 2 v -4 z m 9,1 v 3 h 3 v -3 z m 4,0 v 3 h 3 v -3 z m 4,0 v 3 h 2 v -3 z m 3,0 v 3 h 2 v -3 z m -17,1 v 2 h 2 v -2 z m 3,0 v 2 h 2 v -2 z"
         style="opacity:1;vector-effect:none;fill:#363c4d;fill-opacity:1;stroke:none;stroke-width:2;stroke-linecap:round;stroke-linejoin:round;stroke-miterlimit:4;stroke-dasharray:none;stroke-dashoffset:0;stroke-opacity:1"
         inkscape:connector-curvature="0"
         sodipodi:nodetypes="ccccccccccccccccccccccccccccccccccc" /><path
         id="rect1564"
         d="m -25,265.64999 v 7 h 10 v -7 z m 1,1 h 6 v 2 h -6 z m 0,3 h 4 v 2 h -4 z"
         style="opacity:1;vector-effect:none;fill:#363c4d;fill-opacity:1;stroke:none;stroke-width:2;stroke-linecap:round;stroke-linejoin:round;stroke-miterlimit:4;stroke-dasharray:none;stroke-dashoffset:0;stroke-opacity:1"
         inkscape:connector-curvature="0" /><path
         id="rect1564-3"
         d="m -14,276.64999 v 7 h 10 v -7 z m 2,1 h 6 v 2 h -6 z m 1,3 h 4 v 2 h -4 z"
         style="vector-effect:none;fill:#23a79b;fill-opacity:1;stroke:none;stroke-width:2;stroke-linecap:round;stroke-linejoin:round;stroke-miterlimit:4;stroke-dasharray:none;stroke-dashoffset:0;stroke-opacity:1"
         inkscape:connector-curvature="0"
         sodipodi:nodetypes="ccccccccccccccc" /><path
         id="path904-0-3"
         d="m -19.5,273.64999 c -0.831,0 -1.5,0.669 -1.5,1.5 v 0.5 1.5 1.5 h -1.5 c -1.336023,4.8e-4 -2.004983,1.61557 -1.060547,2.56055 l 3,3 c 0.585794,0.58557 1.5353,0.58557 2.121094,0 l 3,-3 c 0.944407,-0.94498 0.275458,-2.56006 -1.060547,-2.56055 H -18 v -1.5 -1.5 -0.5 c 0,-0.831 -0.669,-1.5 -1.5,-1.5 z"
         style="color:#122036;fill:#363c4d;fill-opacity:1;stroke:none;stroke-width:1.5"
         inkscape:connector-curvature="0" /><path
         id="rect1627"
         d="m -2.5,255.64997 c 1.385002,0 2.500001,1.11502 2.500001,2.50001 0,1.385 -1.114999,2.50001 -2.500001,2.50001 -1.384999,0 -2.499998,-1.11501 -2.499998,-2.50001 0,-1.38499 1.114999,-2.50001 2.499998,-2.50001 z"
         style="opacity:1;vector-effect:none;fill:#30a86d;fill-opacity:1;stroke:none;stroke-width:2;stroke-linecap:round;stroke-linejoin:round;stroke-miterlimit:4;stroke-dasharray:none;stroke-dashoffset:0;stroke-opacity:1"
         inkscape:connector-curvature="0" /><path
         id="rect1627-6"
         d="m 7.499997,255.64997 c 1.385,0 2.5,1.11502 2.5,2.50001 0,1.385 -1.115,2.50001 -2.5,2.50001 -1.385,0 -2.499999,-1.11501 -2.499999,-2.50001 0,-1.38499 1.114999,-2.50001 2.499999,-2.50001 z"
         style="opacity:1;vector-effect:none;fill:#30a86d;fill-opacity:1;stroke:none;stroke-width:2;stroke-linecap:round;stroke-linejoin:round;stroke-miterlimit:4;stroke-dasharray:none;stroke-dashoffset:0;stroke-opacity:1"
         inkscape:connector-curvature="0" /><g
         id="g831"
         transform="matrix(3.7795275,0,0,3.7795275,-39.999998,-864.86966)"><path
           inkscape:connector-curvature="0"
           id="rect903-0"
           d="m 10.847917,294.08958 c 2.198687,0 3.96875,1.77006 3.96875,3.96875 0,2.19869 -1.770063,3.96875 -3.96875,3.96875 -2.1986878,0 -3.9687503,-1.77006 -3.9687503,-3.96875 0,-2.19869 1.7700625,-3.96875 3.9687503,-3.96875 z"
           style="opacity:1;fill:#28596c;fill-opacity:1;stroke:none;stroke-width:0.523042;stroke-linecap:round;stroke-linejoin:round;stroke-miterlimit:4;stroke-dasharray:none;stroke-opacity:1" /><path
           inkscape:connector-curvature="0"
           id="rect903-2-3"
           d="m 10.847917,294.35416 c 2.052108,0 3.704166,1.65206 3.704166,3.70417 0,2.05211 -1.652058,3.70417 -3.704166,3.70417 -2.0521086,0 -3.704167,-1.65206 -3.704167,-3.70417 0,-2.05211 1.6520584,-3.70417 3.704167,-3.70417 z"
           style="opacity:1;fill:#23a79b;fill-opacity:1;stroke:none;stroke-width:0.488173;stroke-linecap:round;stroke-linejoin:round;stroke-miterlimit:4;stroke-dasharray:none;stroke-opacity:1" /><path
           sodipodi:nodetypes="ccccccccssssssssssccccccccccccccccccccccccccccccccccccccccccccccccccccccccccccccccc"
           inkscape:connector-curvature="0"
           id="path828-3"
           d="m 9.525,295.41251 v 0.52916 l -0.79375,-0.26458 c -0.6981806,1.57809 -0.7128986,3.16539 0,4.7625 1.4352,-0.95549 4.3162,0.86965 5.027083,-1.85208 -0.782482,0.58784 -2.502668,1.15554 -3.9687496,-1.05834 1.5874996,1.5875 3.1903186,1.08799 3.9687496,0.52917 -0.371845,-2.29838 -2.148094,-2.68267 -4.233333,-2.64583 z m 2.248958,0.52916 c 0.659605,0 1.190625,0.53102 1.190625,1.19063 0,0.6596 -0.53102,1.19062 -1.190625,1.19062 -0.659604,0 -1.190625,-0.53102 -1.190625,-1.19062 0,-0.65961 0.531021,-1.19063 1.190625,-1.19063 z m 0,0.26459 c -0.513025,0 -0.926041,0.41301 -0.926041,0.92604 0,0.51302 0.413016,0.92604 0.926041,0.92604 0.513026,0 0.926042,-0.41302 0.926042,-0.92604 0,-0.51303 -0.413016,-0.92604 -0.926042,-0.92604 z m 0.264584,0.52916 c 0.0133,7e-5 0.02658,5.8e-4 0.03979,0.002 0.01317,7.7e-4 0.02628,0.002 0.03927,0.004 0.01291,0.002 0.02567,0.004 0.03824,0.007 0.01261,0.003 0.02503,0.005 0.03721,0.009 0.01218,0.004 0.02408,0.008 0.03566,0.0119 0.0117,0.004 0.02308,0.009 0.03411,0.0134 0.0109,0.005 0.02142,0.0103 0.03152,0.016 0.01009,0.006 0.01975,0.0117 0.02894,0.0181 0.0093,0.006 0.01808,0.0131 0.02636,0.0202 0.0081,0.007 0.01568,0.0139 0.02274,0.0212 0.0071,0.008 0.01368,0.0153 0.01964,0.0233 0.0061,0.008 0.01162,0.0157 0.01654,0.0238 0.0048,0.008 0.0089,0.0167 0.0124,0.0253 0.0036,0.008 0.0065,0.0171 0.0088,0.0258 0.0022,0.009 0.0038,0.0175 0.0046,0.0263 6.61e-4,0.006 10e-4,0.0124 10e-4,0.0186 -3.1e-5,0.009 -7.15e-4,0.0176 -0.0021,0.0264 -0.0012,0.009 -0.0031,0.0176 -0.0057,0.0263 -0.0027,0.009 -0.0059,0.017 -0.0098,0.0253 -0.004,0.008 -0.0087,0.0167 -0.01395,0.0248 -0.0051,0.008 -0.01078,0.016 -0.01705,0.0238 -0.0063,0.008 -0.01321,0.0154 -0.02067,0.0227 -0.0076,0.007 -0.01566,0.0144 -0.02429,0.0212 -0.0085,0.007 -0.01745,0.0131 -0.02687,0.0191 -0.0095,0.006 -0.01954,0.012 -0.02997,0.0176 -0.01029,0.006 -0.02098,0.0107 -0.03204,0.0155 -0.01121,0.005 -0.02276,0.009 -0.03462,0.0129 -0.01178,0.004 -0.02385,0.008 -0.03617,0.0109 -0.01236,0.003 -0.02495,0.006 -0.03772,0.008 -0.01259,0.002 -0.02535,0.005 -0.03824,0.006 -0.01318,10e-4 -0.02646,0.003 -0.03979,0.003 -0.0093,4e-4 -0.0186,5.6e-4 -0.02791,5.3e-4 -0.01329,-7e-5 -0.02657,-5.8e-4 -0.03979,-0.002 -0.01317,-7.7e-4 -0.02628,-0.002 -0.03927,-0.004 -0.01291,-0.002 -0.02567,-0.004 -0.03824,-0.007 -0.01261,-0.003 -0.02503,-0.005 -0.03721,-0.009 -0.01218,-0.004 -0.02408,-0.008 -0.03566,-0.0119 -0.0117,-0.004 -0.02308,-0.009 -0.03411,-0.0134 -0.0109,-0.005 -0.02142,-0.0103 -0.03152,-0.016 -0.01009,-0.006 -0.01975,-0.0117 -0.02894,-0.0181 -0.0093,-0.006 -0.01808,-0.0131 -0.02635,-0.0202 -0.0081,-0.007 -0.01568,-0.0139 -0.02274,-0.0212 -0.0071,-0.008 -0.01368,-0.0153 -0.01964,-0.0232 -0.0061,-0.008 -0.01162,-0.0157 -0.01654,-0.0238 -0.0048,-0.008 -0.0089,-0.0168 -0.0124,-0.0253 -0.0036,-0.009 -0.0065,-0.0171 -0.0088,-0.0258 -0.0022,-0.009 -0.0038,-0.0175 -0.0046,-0.0264 -6.62e-4,-0.006 -10e-4,-0.0124 -10e-4,-0.0186 3.1e-5,-0.009 7.14e-4,-0.0176 0.0021,-0.0263 0.0012,-0.009 0.0031,-0.0176 0.0057,-0.0264 0.0026,-0.009 0.0059,-0.017 0.0098,-0.0253 0.004,-0.008 0.0087,-0.0167 0.01395,-0.0248 0.0051,-0.008 0.01078,-0.0161 0.01705,-0.0238 0.0063,-0.008 0.01321,-0.0154 0.02067,-0.0227 0.0076,-0.007 0.01566,-0.0144 0.02429,-0.0212 0.0085,-0.007 0.01745,-0.013 0.02687,-0.0191 0.0095,-0.006 0.01955,-0.012 0.02997,-0.0176 0.01029,-0.006 0.02098,-0.0107 0.03204,-0.0155 0.01121,-0.005 0.02277,-0.009 0.03462,-0.0129 0.01178,-0.004 0.02385,-0.008 0.03617,-0.0109 0.01236,-0.003 0.02495,-0.006 0.03772,-0.008 0.01259,-0.002 0.02535,-0.005 0.03824,-0.006 0.01318,-10e-4 0.02646,-0.003 0.03979,-0.003 0.0093,-4e-4 0.0186,-5.5e-4 0.02791,-5.3e-4 z"
           style="fill:#e1fff9;fill-opacity:1;stroke:none;stroke-width:0.529167;stroke-linecap:round;stroke-linejoin:round;stroke-miterlimit:4;stroke-dasharray:none;stroke-opacity:1" /></g></g></g></svg>
