<?xml version="1.0" encoding="UTF-8" standalone="no"?>
<!-- Created with Inkscape (http://www.inkscape.org/) -->

<svg
   xmlns:dc="http://purl.org/dc/elements/1.1/"
   xmlns:cc="http://creativecommons.org/ns#"
   xmlns:rdf="http://www.w3.org/1999/02/22-rdf-syntax-ns#"
   xmlns:svg="http://www.w3.org/2000/svg"
   xmlns="http://www.w3.org/2000/svg"
   xmlns:sodipodi="http://sodipodi.sourceforge.net/DTD/sodipodi-0.dtd"
   xmlns:inkscape="http://www.inkscape.org/namespaces/inkscape"
   width="64"
   height="64"
   viewBox="0 0 64 64"
   version="1.1"
   id="svg8"
   inkscape:version="0.92.3 (2405546, 2018-03-11)"
   sodipodi:docname="anbox-64.svg">
  <title
     id="title7895">Antu icon Theme</title>
  <defs
     id="defs2">
    <style
       type="text/css"
       id="current-color-scheme">
      .ColorScheme-Text {
        color:#122036;
      }
      </style>
    <style
       id="current-color-scheme-1"
       type="text/css">
      .ColorScheme-Text {
        color:#122036;
      }
      </style>
  </defs>
  <sodipodi:namedview
     id="base"
     pagecolor="#ffffff"
     bordercolor="#666666"
     borderopacity="1.0"
     inkscape:pageopacity="0.0"
     inkscape:pageshadow="2"
     inkscape:zoom="3.9999998"
     inkscape:cx="81.866442"
     inkscape:cy="58.16791"
     inkscape:document-units="px"
     inkscape:current-layer="layer1"
     showgrid="true"
     units="px"
     inkscape:window-width="1874"
     inkscape:window-height="1141"
     inkscape:window-x="46"
     inkscape:window-y="30"
     inkscape:window-maximized="1"
     objecttolerance="10"
     gridtolerance="10"
     guidetolerance="10"
     inkscape:snap-bbox="true"
     inkscape:bbox-paths="true"
     inkscape:bbox-nodes="true"
     inkscape:snap-bbox-edge-midpoints="true"
     inkscape:snap-bbox-midpoints="true"
     inkscape:object-paths="true"
     inkscape:snap-intersection-paths="true"
     inkscape:showpageshadow="false">
    <inkscape:grid
       type="xygrid"
       id="grid7897"
       empspacing="4" />
  </sodipodi:namedview>
  <metadata
     id="metadata5">
    <rdf:RDF>
      <cc:Work
         rdf:about="">
        <dc:format>image/svg+xml</dc:format>
        <dc:type
           rdf:resource="http://purl.org/dc/dcmitype/StillImage" />
        <dc:title>Antu icon Theme</dc:title>
      </cc:Work>
    </rdf:RDF>
  </metadata>
  <g
     inkscape:label="Capa 1"
     inkscape:groupmode="layer"
     id="layer1"
     transform="translate(0,-250.64999)">
    <path
       style="opacity:1;vector-effect:none;fill:#363c4d;fill-opacity:1;stroke:none;stroke-width:2.28937817;stroke-linecap:round;stroke-linejoin:round;stroke-miterlimit:4;stroke-dasharray:none;stroke-dashoffset:0;stroke-opacity:1"
       d="m 5,251.64999 h 54 c 2.216,0 4,1.784 4,4 v 54 c 0,2.216 -1.784,4 -4,4 H 5 c -2.216,0 -4,-1.784 -4,-4 v -54 c 0,-2.216 1.784,-4 4,-4 z"
       id="rect863" />
    <path
       style="opacity:1;vector-effect:none;fill:#4b6477;fill-opacity:1;stroke:none;stroke-width:2.2155273;stroke-linecap:round;stroke-linejoin:round;stroke-miterlimit:4;stroke-dasharray:none;stroke-dashoffset:0;stroke-opacity:1"
       d="m 5,252.64999 h 54 c 1.662,0 3,1.338 3,3 v 54 c 0,1.662 -1.338,3 -3,3 H 5 c -1.662,0 -3,-1.338 -3,-3 v -54 c 0,-1.662 1.338,-3 3,-3 z"
       id="rect863-9" />
    <path
       style="opacity:1;fill:#363c4d;fill-opacity:1;stroke:none;stroke-width:1.86666667;stroke-linecap:round;stroke-linejoin:round;stroke-miterlimit:4;stroke-dasharray:none;stroke-opacity:1;paint-order:fill markers stroke"
       d="m 6,254.64999 h 52 c 1.108,0 2,0.892 2,2 v 52 c 0,1.108 -0.892,2 -2,2 H 6 c -1.108,0 -2,-0.892 -2,-2 v -52 c 0,-1.108 0.892,-2 2,-2 z"
       id="rect895" />
    <rect
       style="opacity:1;fill:#4db6ac;fill-opacity:1;stroke:none;stroke-width:1.79999995;stroke-linecap:round;stroke-linejoin:round;stroke-miterlimit:4;stroke-dasharray:none;stroke-opacity:1;paint-order:fill markers stroke"
       id="rect895-2"
       width="54"
       height="54"
       x="5"
       y="255.64999"
       ry="1" />
    <g
       transform="matrix(3.7795276,0,0,3.7795276,-109.9961,-813.86968)"
       id="layer1-1"
       inkscape:label="Capa 1">
      <g
         transform="translate(1.8520835,-2.9058582)"
         id="g1846">
        <g
           id="g893"
           transform="translate(29.10365,9.5250044)">
          <path
             transform="matrix(0.26458333,0,0,0.26458333,8.4666664,286.67668)"
             id="path1051-2"
             d="m -28.029297,-12.015625 a 3.0003,3.0003 0 0 0 -2.292969,4.9316406 l 5.837891,7.13671877 C -27.919075,4.0659613 -29.993686,9.2803789 -29.998047,15 H 15.998047 C 15.993686,9.2803789 13.919077,4.0659613 10.484375,0.05273437 l 5.837891,-7.13671877 a 3.0003,3.0003 0 0 0 -2.382813,-4.9316406 3.0003,3.0003 0 0 0 -2.261719,1.132813 L 6.0175781,-3.9648438 C 2.3202825,-6.499206 -2.1596531,-7.9824219 -7,-7.9824219 c -4.840347,0 -9.320281,1.4832159 -13.017578,4.0175781 l -5.660156,-6.9179682 a 3.0003,3.0003 0 0 0 -2.351563,-1.132813 z"
             style="color:#000000;font-style:normal;font-variant:normal;font-weight:normal;font-stretch:normal;font-size:medium;line-height:normal;font-family:sans-serif;font-variant-ligatures:normal;font-variant-position:normal;font-variant-caps:normal;font-variant-numeric:normal;font-variant-alternates:normal;font-feature-settings:normal;text-indent:0;text-align:start;text-decoration:none;text-decoration-line:none;text-decoration-style:solid;text-decoration-color:#000000;letter-spacing:normal;word-spacing:normal;text-transform:none;writing-mode:lr-tb;direction:ltr;text-orientation:mixed;dominant-baseline:auto;baseline-shift:baseline;text-anchor:start;white-space:normal;shape-padding:0;clip-rule:nonzero;display:inline;overflow:visible;visibility:visible;opacity:1;isolation:auto;mix-blend-mode:normal;color-interpolation:sRGB;color-interpolation-filters:linearRGB;solid-color:#000000;solid-opacity:1;vector-effect:none;fill:#009688;fill-opacity:1;fill-rule:nonzero;stroke:none;stroke-width:6;stroke-linecap:round;stroke-linejoin:round;stroke-miterlimit:4;stroke-dasharray:none;stroke-dashoffset:0;stroke-opacity:1;color-rendering:auto;image-rendering:auto;shape-rendering:auto;text-rendering:auto;enable-background:accumulate"
             inkscape:connector-curvature="0" />
          <path
             transform="matrix(0.26458333,0,0,0.26458333,8.4666664,286.67668)"
             id="rect1034-2"
             d="m -28.019531,-11.005859 a 2.0002,2.0002 0 0 0 -1.529297,3.2890621 l 6.376953,7.7949219 C -26.787819,3.9920887 -28.993449,9.2277168 -28.998047,15 H 14.998047 C 14.993449,9.2277168 12.787816,3.9920887 9.171875,0.078125 l 6.376953,-7.7949219 A 2.0002,2.0002 0 0 0 13.958984,-11.003906 2.0002,2.0002 0 0 0 12.451172,-10.25 l -6.2519532,7.6425781 c -3.6719763,-2.7492284 -8.2388209,-4.375 -13.1992188,-4.375 -4.960398,0 -9.527241,1.6257716 -13.199219,4.375 L -26.451172,-10.25 a 2.0002,2.0002 0 0 0 -1.568359,-0.755859 z"
             style="opacity:1;fill:#b2dfdb;fill-opacity:1;stroke:none;stroke-width:2.11844397;stroke-linecap:round;stroke-linejoin:round;stroke-miterlimit:4;stroke-dasharray:none;stroke-opacity:1;paint-order:fill markers stroke"
             inkscape:connector-curvature="0" />
          <path
             sodipodi:nodetypes="ssssssssssssssssss"
             inkscape:connector-curvature="0"
             id="rect1111"
             d="m 4.3614908,287.73958 c -0.3640344,0 -0.6573242,0.29329 -0.6573242,0.65732 v 0.008 c 0,0.36403 0.2932898,0.65732 0.6573242,0.65732 h 0.00827 c 0.3640344,0 0.6573242,-0.29329 0.6573242,-0.65732 v -0.008 c 0,-0.36403 -0.2932898,-0.65732 -0.6573242,-0.65732 z m 4.4979166,0 c -0.3640344,0 -0.6573242,0.29329 -0.6573242,0.65732 v 0.008 c 0,0.36403 0.2932898,0.65732 0.6573242,0.65732 h 0.00827 c 0.3640346,0 0.6573246,-0.29329 0.6573246,-0.65732 v -0.008 c 0,-0.36403 -0.29329,-0.65732 -0.6573246,-0.65732 z"
             style="opacity:1;fill:#009688;fill-opacity:1;stroke:none;stroke-width:1.58749998;stroke-linecap:round;stroke-linejoin:round;stroke-miterlimit:4;stroke-dasharray:none;stroke-opacity:1;paint-order:fill markers stroke" />
        </g>
      </g>
    </g>
  </g>
</svg>
