<?xml version="1.0" encoding="UTF-8" standalone="no"?>
<!-- Created with Inkscape (http://www.inkscape.org/) -->

<svg
   xmlns:dc="http://purl.org/dc/elements/1.1/"
   xmlns:cc="http://creativecommons.org/ns#"
   xmlns:rdf="http://www.w3.org/1999/02/22-rdf-syntax-ns#"
   xmlns:svg="http://www.w3.org/2000/svg"
   xmlns="http://www.w3.org/2000/svg"
   xmlns:sodipodi="http://sodipodi.sourceforge.net/DTD/sodipodi-0.dtd"
   xmlns:inkscape="http://www.inkscape.org/namespaces/inkscape"
   width="64"
   height="64"
   viewBox="0 0 16.933333 16.933333"
   version="1.1"
   id="svg8"
   inkscape:version="0.92.3 (2405546, 2018-03-11)"
   sodipodi:docname="atom-beta.svg">
  <defs
     id="defs2" />
  <sodipodi:namedview
     id="base"
     pagecolor="#ffffff"
     bordercolor="#666666"
     borderopacity="1.0"
     inkscape:pageopacity="0.0"
     inkscape:pageshadow="2"
     inkscape:zoom="11.2"
     inkscape:cx="32.264246"
     inkscape:cy="29.80837"
     inkscape:document-units="px"
     inkscape:current-layer="g3837"
     showgrid="true"
     units="px"
     inkscape:showpageshadow="false"
     inkscape:snap-bbox="true"
     inkscape:bbox-paths="true"
     inkscape:bbox-nodes="true"
     inkscape:snap-bbox-edge-midpoints="true"
     inkscape:snap-bbox-midpoints="true"
     inkscape:object-paths="true"
     inkscape:snap-intersection-paths="true"
     inkscape:window-width="1874"
     inkscape:window-height="1141"
     inkscape:window-x="46"
     inkscape:window-y="30"
     inkscape:window-maximized="1">
    <inkscape:grid
       type="xygrid"
       id="grid815" />
  </sodipodi:namedview>
  <metadata
     id="metadata5">
    <rdf:RDF>
      <cc:Work
         rdf:about="">
        <dc:format>image/svg+xml</dc:format>
        <dc:type
           rdf:resource="http://purl.org/dc/dcmitype/StillImage" />
        <dc:title></dc:title>
      </cc:Work>
    </rdf:RDF>
  </metadata>
  <g
     inkscape:label="Capa 1"
     inkscape:groupmode="layer"
     id="layer1"
     transform="translate(0,-280.06666)">
    <g
       id="g3837"
       transform="translate(7.1437502,-0.2315135)">
      <path
         inkscape:connector-curvature="0"
         style="opacity:1;fill:#ffb851;fill-opacity:0.96078431;stroke:none;stroke-width:0.11906253;stroke-miterlimit:4;stroke-dasharray:none;stroke-opacity:1"
         d="m 1.3229164,280.82734 c 4.3973744,0 7.9374994,3.54012 7.9374994,7.9375 0,4.39737 -3.540125,7.9375 -7.9374994,7.9375 -4.3973747,0 -7.9374996,-3.54013 -7.9374996,-7.9375 0,-4.39738 3.5401249,-7.9375 7.9374996,-7.9375 z"
         id="rect4593" />
      <path
         inkscape:connector-curvature="0"
         style="opacity:1;fill:#ffd84d;fill-opacity:1;stroke:none;stroke-width:0.11509378;stroke-miterlimit:4;stroke-dasharray:none;stroke-opacity:1"
         d="m 1.3229164,281.09192 c 4.2507954,0 7.6729164,3.42212 7.6729164,7.67292 0,4.2508 -3.422121,7.67292 -7.6729164,7.67292 -4.2507958,0 -7.6729165,-3.42212 -7.6729165,-7.67292 0,-4.2508 3.4221207,-7.67292 7.6729165,-7.67292 z"
         id="rect4593-5" />
      <path
         style="opacity:1;fill:#8f7815;fill-opacity:1;stroke:none;stroke-width:1.08655572;stroke-linecap:round;stroke-linejoin:round;stroke-miterlimit:4;stroke-dasharray:none;stroke-opacity:0.96078431;paint-order:fill markers stroke"
         d="m -0.27132354,284.24271 c -0.62482014,-0.0197 -1.10078806,0.20284 -1.35650626,0.61133 -0.2922498,0.46685 -0.3070432,1.09084 -0.1870689,1.78335 0.00323,0.0186 0.00897,0.0386 0.012402,0.0574 -0.2607722,0.0773 -0.5067699,0.16724 -0.7276041,0.27441 -0.4865264,0.23611 -0.8747305,0.55162 -1.0624675,0.9803 -0.1877369,0.42869 -0.140613,0.94665 0.1565797,1.47278 a 0.26502865,0.26502865 0 1 0 0.4604371,-0.26149 c -0.2407234,-0.42616 -0.2493324,-0.73231 -0.1328086,-0.99839 0.1165241,-0.26607 0.3935677,-0.51582 0.8108034,-0.7183 0.1801395,-0.0874 0.3886023,-0.1626 0.611849,-0.22944 0.1254045,0.47249 0.3068277,0.97015 0.5245155,1.47071 -0.3262177,0.64111 -0.5674907,1.27797 -0.677478,1.85622 -0.109196,0.57409 -0.093006,1.10578 0.1565796,1.52342 0.2495857,0.41764 0.73586761,0.66116 1.38441162,0.66611 a 0.26466122,0.26466122 0 1 0 0.006201,-0.52917 c -0.53096556,-0.004 -0.78754152,-0.16005 -0.93586032,-0.40824 -0.1483185,-0.24818 -0.1855713,-0.6495 -0.089917,-1.15239 0.075882,-0.39894 0.2344555,-0.85294 0.44855128,-1.3255 0.31063009,0.62731 0.66850709,1.24432 1.04748117,1.80558 0.46648184,0.69085 0.95908865,1.29571 1.43557145,1.72857 0.4764829,0.43287 0.9368724,0.72755 1.4143839,0.67025 0.2387558,-0.0287 0.4594077,-0.17324 0.6051309,-0.39068 0.1457233,-0.21744 0.2340571,-0.50109 0.2816366,-0.86351 0.095159,-0.72483 0.026587,-1.7796 -0.2464964,-3.28714 a 0.26460979,0.26460979 0 1 0 -0.5193483,0.0956 c 0.2679261,1.47907 0.3222189,2.49932 0.2402954,3.12333 -0.040962,0.31201 -0.1172324,0.52218 -0.1953369,0.63872 -0.078104,0.11655 -0.13961,0.14723 -0.2304769,0.15813 -0.1817336,0.0218 -0.5631926,-0.1472 -0.9921875,-0.53692 -0.4289946,-0.38973 -0.9061749,-0.96758 -1.35547284,-1.63298 -0.43842437,-0.64929 -0.85107303,-1.38446 -1.18494041,-2.11305 0.28502371,-0.53127 0.6258716,-1.0679 0.99942225,-1.56476 0.0616625,-0.082 0.12582631,-0.16012 0.18913554,-0.23978 0.20374928,-10e-4 0.40831426,9.7e-4 0.61339946,0.0114 1.3423791,0.0681 2.679198,0.39348 3.4866087,0.92191 0.4037055,0.26421 0.6685981,0.57096 0.7751463,0.9064 0.1065488,0.33543 0.070979,0.72188 -0.2010211,1.21078 a 0.26460979,0.26460979 0 1 0 0.4630208,0.2558 c 0.323414,-0.58131 0.3964348,-1.14009 0.2418456,-1.62677 -0.1545881,-0.48674 -0.5188117,-0.87914 -0.9901195,-1.1876 -0.942616,-0.61691 -2.3409936,-0.93682 -3.7480917,-1.0082 -0.067316,-0.003 -0.1342525,-0.003 -0.2015379,-0.006 0.6966371,-0.77376 1.4277105,-1.3592 1.9714557,-1.53324 0.3556939,-0.11385 0.5791874,-0.0805 0.7730794,0.11937 0.1938922,0.19987 0.3690744,0.64501 0.4004924,1.41956 a 0.26460979,0.26460979 0 1 0 0.5270997,-0.0212 c -0.034104,-0.84076 -0.2047595,-1.41532 -0.5467366,-1.76785 -0.3419774,-0.35254 -0.8445262,-0.4047 -1.3161989,-0.25373 -0.8220606,0.26313 -1.707362,1.05091 -2.51147443,2.03398 -0.57501366,0.0157 -1.13461481,0.0742 -1.64692807,0.1819 -9.387e-4,-0.005 -0.0027,-0.0112 -0.00362,-0.0165 -0.1086181,-0.62696 -0.063476,-1.13014 0.1131715,-1.41232 0.1766467,-0.28218 0.47403252,-0.43026 1.11517746,-0.34365 a 0.26511414,0.26511414 0 1 0 0.07027968,-0.52555 c -0.09514628,-0.0129 -0.18720884,-0.0205 -0.27646868,-0.0233 z m 0.20153789,2.69286 c -0.27489441,0.37301 -0.53272054,0.76239 -0.76429419,1.15755 -0.13798841,-0.34843 -0.25129696,-0.68824 -0.33796396,-1.01028 0.34304528,-0.071 0.71609137,-0.11866 1.10225815,-0.14727 z m 1.49499925,1.03301 c -0.51302595,0 -0.92604164,0.41301 -0.92604164,0.92604 0,0.51303 0.41301569,0.92604 0.92604164,0.92604 0.513026,0 0.9260417,-0.41301 0.9260417,-0.92604 0,-0.51303 -0.4130157,-0.92604 -0.9260417,-0.92604 z"
         id="rect942-7-4"
         inkscape:connector-curvature="0" />
    </g>
  </g>
</svg>
