<?xml version="1.0" encoding="UTF-8" standalone="no"?>
<!-- Created with Inkscape (http://www.inkscape.org/) -->

<svg
   xmlns:dc="http://purl.org/dc/elements/1.1/"
   xmlns:cc="http://creativecommons.org/ns#"
   xmlns:rdf="http://www.w3.org/1999/02/22-rdf-syntax-ns#"
   xmlns:svg="http://www.w3.org/2000/svg"
   xmlns="http://www.w3.org/2000/svg"
   xmlns:sodipodi="http://sodipodi.sourceforge.net/DTD/sodipodi-0.dtd"
   xmlns:inkscape="http://www.inkscape.org/namespaces/inkscape"
   width="64"
   height="64"
   viewBox="0 0 64 64"
   version="1.1"
   id="svg8"
   inkscape:version="0.92.3 (2405546, 2018-03-11)"
   sodipodi:docname="linguist.svg">
  <title
     id="title7895">Antu icon Theme</title>
  <defs
     id="defs2">
    <style
       type="text/css"
       id="current-color-scheme">
      .ColorScheme-Text {
        color:#122036;
      }
      </style>
    <style
       id="current-color-scheme-1"
       type="text/css">
      .ColorScheme-Text {
        color:#122036;
      }
      </style>
    <style
       type="text/css"
       id="current-color-scheme-5">
      .ColorScheme-Text {
        color:#122036;
      }
      </style>
    <style
       id="current-color-scheme-1-6"
       type="text/css">
      .ColorScheme-Text {
        color:#122036;
      }
      </style>
    <style
       type="text/css"
       id="current-color-scheme-3">
      .ColorScheme-Text {
        color:#122036;
      }
      </style>
    <style
       type="text/css"
       id="current-color-scheme-2">
      .ColorScheme-Text {
        color:#122036;
      }
      </style>
    <style
       id="current-color-scheme-1-0"
       type="text/css">
      .ColorScheme-Text {
        color:#122036;
      }
      </style>
    <style
       type="text/css"
       id="current-color-scheme-3-2">
      .ColorScheme-Text {
        color:#122036;
      }
      </style>
    <style
       type="text/css"
       id="current-color-scheme-53">
      .ColorScheme-Text {
        color:#122036;
      }
      </style>
    <style
       id="current-color-scheme-1-5"
       type="text/css">
      .ColorScheme-Text {
        color:#122036;
      }
      </style>
    <style
       type="text/css"
       id="current-color-scheme-3-6">
      .ColorScheme-Text {
        color:#122036;
      }
      </style>
    <style
       type="text/css"
       id="current-color-scheme-5-2">
      .ColorScheme-Text {
        color:#122036;
      }
      </style>
  </defs>
  <sodipodi:namedview
     id="base"
     pagecolor="#ffffff"
     bordercolor="#666666"
     borderopacity="1.0"
     inkscape:pageopacity="0.0"
     inkscape:pageshadow="2"
     inkscape:zoom="11.313708"
     inkscape:cx="-7.1810234"
     inkscape:cy="27.336733"
     inkscape:document-units="px"
     inkscape:current-layer="layer1"
     showgrid="true"
     units="px"
     inkscape:window-width="1874"
     inkscape:window-height="1141"
     inkscape:window-x="46"
     inkscape:window-y="30"
     inkscape:window-maximized="1"
     objecttolerance="10"
     gridtolerance="10"
     guidetolerance="10">
    <inkscape:grid
       type="xygrid"
       id="grid7897"
       empspacing="4" />
  </sodipodi:namedview>
  <metadata
     id="metadata5">
    <rdf:RDF>
      <cc:Work
         rdf:about="">
        <dc:format>image/svg+xml</dc:format>
        <dc:type
           rdf:resource="http://purl.org/dc/dcmitype/StillImage" />
        <dc:title>Antu icon Theme</dc:title>
      </cc:Work>
    </rdf:RDF>
  </metadata>
  <g
     inkscape:label="Capa 1"
     inkscape:groupmode="layer"
     id="layer1"
     transform="translate(0,-250.64999)">
    <path
       style="opacity:1;fill:#36404d;fill-opacity:1;stroke:none;stroke-width:2.4440403;stroke-linecap:round;stroke-linejoin:round;stroke-miterlimit:4;stroke-dasharray:none;stroke-opacity:1"
       d="m 2,254.64999 h 60 c 1.108,0 2,0.892 2,2 v 52 c 0,1.108 -0.892,2 -2,2 H 2 c -1.108,0 -2,-0.892 -2,-2 v -52 c 0,-1.108 0.892,-2 2,-2 z"
       id="rect891" />
    <path
       style="opacity:1;vector-effect:none;fill:#4b6477;fill-opacity:1;stroke:none;stroke-width:2;stroke-linecap:round;stroke-linejoin:round;stroke-miterlimit:4;stroke-dasharray:none;stroke-dashoffset:0;stroke-opacity:1"
       d="M 2 5 C 1.446 5 1 5.446 1 6 L 1 58 C 1 58.554 1.446 59 2 59 L 28 59 L 28 5 L 2 5 z "
       id="rect910"
       transform="translate(0,250.64999)" />
    <path
       inkscape:connector-curvature="0"
       style="opacity:1;vector-effect:none;fill:#bae0bd;fill-opacity:1;stroke:none;stroke-width:2;stroke-linecap:round;stroke-linejoin:round;stroke-miterlimit:4;stroke-dasharray:none;stroke-dashoffset:0;stroke-opacity:1"
       d="m 29,255.64999 h 33 c 0.554,0 1,0.446 1,1 v 52 c 0,0.554 -0.446,1 -1,1 H 29 v -1 -52 z"
       id="rect910-0"
       sodipodi:nodetypes="csssscccc" />
    <path
       style="opacity:1;fill:#e1ebf2;fill-opacity:1;stroke:none;stroke-width:4;stroke-linecap:round;stroke-linejoin:round;stroke-miterlimit:4;stroke-dasharray:none;stroke-opacity:1"
       d="m 5.9999995,258.64999 v 2 H 4 v 2 h 1.9999995 v 2 H 4 v 2 h 1.9999995 v 2 h 2.000001 v -2 H 10 v 2 h 2 v -2 h 2.000002 v -2 H 12 v -2 h 2.000002 v -2 H 12 v -2 h -2 v 2 H 8.0000005 v -2 z m 2.000001,4 H 10 v 2 H 8.0000005 Z"
       id="rect925-7-6"
       inkscape:connector-curvature="0" />
    <g
       id="layer1-2"
       inkscape:label="Capa 1"
       transform="translate(73,1.999995)" />
    <g
       transform="matrix(1.3333333,0,0,1.3333333,-85,-112.88333)"
       id="layer1-9"
       inkscape:label="Capa 1">
      <g
         id="g1094"
         transform="translate(0,0.74999775)">
        <path
           sodipodi:nodetypes="sscccssssssscccsss"
           inkscape:connector-curvature="0"
           id="rect1029-7-6"
           d="m 93.375002,283.9 c -2.70075,0 -4.875,2.17425 -4.875,4.875 0,1.38668 0.57666,2.63103 1.5,3.51709 V 295.9 l 4.199707,-2.25 h 2.925293 C 99.825747,293.65 102,291.47575 102,288.775 102,286.07425 99.825747,283.9 97.125002,283.9 Z m 7.499998,12.75 c -2.70075,0 -4.874998,2.17425 -4.874998,4.875 0,2.70075 2.174248,4.875 4.874998,4.875 h 1.4253 l 4.1997,2.25 v -3.60791 c 0.92334,-0.88606 1.5,-2.13041 1.5,-3.51709 0,-2.70075 -2.17425,-4.875 -4.875,-4.875 z"
           style="opacity:1;vector-effect:none;fill:#609d78;fill-opacity:1;stroke:none;stroke-width:1.5;stroke-linecap:round;stroke-linejoin:round;stroke-miterlimit:4;stroke-dasharray:none;stroke-dashoffset:0;stroke-opacity:1" />
      </g>
    </g>
  </g>
</svg>
