<?xml version="1.0" encoding="UTF-8" standalone="no"?>
<!-- Created with Inkscape (http://www.inkscape.org/) -->

<svg
   xmlns:dc="http://purl.org/dc/elements/1.1/"
   xmlns:cc="http://creativecommons.org/ns#"
   xmlns:rdf="http://www.w3.org/1999/02/22-rdf-syntax-ns#"
   xmlns:svg="http://www.w3.org/2000/svg"
   xmlns="http://www.w3.org/2000/svg"
   xmlns:sodipodi="http://sodipodi.sourceforge.net/DTD/sodipodi-0.dtd"
   xmlns:inkscape="http://www.inkscape.org/namespaces/inkscape"
   width="64"
   height="64"
   viewBox="0 0 64 64"
   version="1.1"
   id="svg8"
   inkscape:version="0.92.3 (2405546, 2018-03-11)"
   sodipodi:docname="deepin-screen-recorder.svg">
  <title
     id="title7895">Antu icon Theme</title>
  <defs
     id="defs2">
    <style
       id="current-color-scheme"
       type="text/css">
      .ColorScheme-Text {
        color:#122036;
      }
      </style>
    <style
       type="text/css"
       id="current-color-scheme-53">
      .ColorScheme-Text {
        color:#122036;
      }
      </style>
    <style
       id="current-color-scheme-5"
       type="text/css">
      .ColorScheme-Text {
        color:#122036;
      }
      </style>
    <style
       id="current-color-scheme-2"
       type="text/css">
      .ColorScheme-Text {
        color:#122036;
      }
      </style>
    <style
       id="current-color-scheme-1"
       type="text/css">
      .ColorScheme-Text {
        color:#122036;
      }
      </style>
    <style
       type="text/css"
       id="current-color-scheme-10">
      .ColorScheme-Text {
        color:#122036;
      }
      </style>
    <style
       id="current-color-scheme-0"
       type="text/css">
      .ColorScheme-Text {
        color:#122036;
      }
      </style>
    <style
       id="current-color-scheme-26"
       type="text/css">
      .ColorScheme-Text {
        color:#122036;
      }
      </style>
  </defs>
  <sodipodi:namedview
     id="base"
     pagecolor="#ffffff"
     bordercolor="#666666"
     borderopacity="1.0"
     inkscape:pageopacity="0.0"
     inkscape:pageshadow="2"
     inkscape:zoom="11.2"
     inkscape:cx="39.419638"
     inkscape:cy="32.780312"
     inkscape:document-units="px"
     inkscape:current-layer="g3655"
     showgrid="true"
     units="px"
     inkscape:window-width="1874"
     inkscape:window-height="1141"
     inkscape:window-x="46"
     inkscape:window-y="30"
     inkscape:window-maximized="1"
     objecttolerance="10"
     gridtolerance="10"
     guidetolerance="10"
     inkscape:snap-bbox="true"
     inkscape:bbox-paths="true"
     inkscape:bbox-nodes="true"
     inkscape:snap-bbox-edge-midpoints="true"
     inkscape:snap-bbox-midpoints="true"
     inkscape:object-paths="true"
     inkscape:snap-intersection-paths="true"
     inkscape:showpageshadow="false">
    <inkscape:grid
       type="xygrid"
       id="grid7897"
       empspacing="4" />
  </sodipodi:namedview>
  <metadata
     id="metadata5">
    <rdf:RDF>
      <cc:Work
         rdf:about="">
        <dc:format>image/svg+xml</dc:format>
        <dc:type
           rdf:resource="http://purl.org/dc/dcmitype/StillImage" />
        <dc:title>Antu icon Theme</dc:title>
      </cc:Work>
    </rdf:RDF>
  </metadata>
  <g
     inkscape:label="Capa 1"
     inkscape:groupmode="layer"
     id="layer1"
     transform="translate(0,-250.64999)">
    <g
       id="g3655"
       transform="translate(36,-4)">
      <path
         id="rect2786"
         d="m -33,258.64999 h 58 c 1.662,0 3,1.338 3,3 v 50 c 0,1.662 -1.338,3 -3,3 h -58 c -1.662,0 -3,-1.338 -3,-3 v -50 c 0,-1.662 1.338,-3 3,-3 z"
         style="opacity:1;vector-effect:none;fill:#d72f4a;fill-opacity:1;stroke:none;stroke-width:4;stroke-linecap:round;stroke-linejoin:round;stroke-miterlimit:4;stroke-dasharray:none;stroke-dashoffset:0;stroke-opacity:1"
         inkscape:connector-curvature="0" />
      <path
         id="rect2788"
         d="m -33,259.64999 h 58 c 1.108,0 2,0.892 2,2 v 50 c 0,1.108 -0.892,2 -2,2 h -58 c -1.108,0 -2,-0.892 -2,-2 v -50 c 0,-1.108 0.892,-2 2,-2 z"
         style="opacity:1;vector-effect:none;fill:#ff778a;fill-opacity:1;stroke:none;stroke-width:4;stroke-linecap:round;stroke-linejoin:round;stroke-miterlimit:4;stroke-dasharray:none;stroke-dashoffset:0;stroke-opacity:1"
         inkscape:connector-curvature="0" />
      <path
         style="opacity:1;vector-effect:none;fill:#ffe8eb;fill-opacity:1;stroke:none;stroke-width:4;stroke-linecap:round;stroke-linejoin:round;stroke-miterlimit:4;stroke-dasharray:none;stroke-dashoffset:0;stroke-opacity:1"
         d="M 3 7 L 3 10 L 3 14 L 6 14 L 6 10 L 10 10 L 10 7 L 6 7 L 3 7 z M 57.5 7 C 55.561 7 54 8.561 54 10.5 C 54 12.439 55.561 14 57.5 14 C 59.439 14 61 12.439 61 10.5 C 61 8.561 59.439 7 57.5 7 z M 20 22.998047 C 18.892 22.998047 18 23.890047 18 24.998047 L 18 38.998047 C 18 40.106047 18.892 40.998047 20 40.998047 L 34 40.998047 C 35.108 40.998047 36 40.106047 36 38.998047 L 36 34.224609 L 43.335938 40.746094 C 43.981093 41.318844 45.000127 40.860757 45 39.998047 L 45 23.998047 C 45.000184 23.434137 44.534369 22.981577 43.970703 22.998047 C 43.736106 23.005047 43.511408 23.09415 43.335938 23.25 L 36 29.771484 L 36 24.998047 C 36 23.890047 35.108 22.998047 34 22.998047 L 20 22.998047 z M 3 50 L 3 54 L 3 57 L 6 57 L 10 57 L 10 54 L 6 54 L 6 50 L 3 50 z M 58 50 L 58 54 L 54 54 L 54 57 L 58 57 L 61 57 L 61 54 L 61 50 L 58 50 z "
         transform="translate(-36,254.64999)"
         id="rect2812" />
    </g>
  </g>
</svg>
