<?xml version="1.0" encoding="UTF-8" standalone="no"?>
<!-- Created with Inkscape (http://www.inkscape.org/) -->

<svg
   xmlns:dc="http://purl.org/dc/elements/1.1/"
   xmlns:cc="http://creativecommons.org/ns#"
   xmlns:rdf="http://www.w3.org/1999/02/22-rdf-syntax-ns#"
   xmlns:svg="http://www.w3.org/2000/svg"
   xmlns="http://www.w3.org/2000/svg"
   xmlns:sodipodi="http://sodipodi.sourceforge.net/DTD/sodipodi-0.dtd"
   xmlns:inkscape="http://www.inkscape.org/namespaces/inkscape"
   width="64"
   height="64"
   viewBox="0 0 16.933333 16.933333"
   version="1.1"
   id="svg8"
   inkscape:version="0.92.3 (2405546, 2018-03-11)"
   sodipodi:docname="user-trash.svg">
  <defs
     id="defs2" />
  <sodipodi:namedview
     id="base"
     pagecolor="#ffffff"
     bordercolor="#666666"
     borderopacity="1.0"
     inkscape:pageopacity="0.0"
     inkscape:pageshadow="2"
     inkscape:zoom="11.2"
     inkscape:cx="11.774357"
     inkscape:cy="29.512999"
     inkscape:document-units="px"
     inkscape:current-layer="layer1"
     showgrid="true"
     units="px"
     inkscape:showpageshadow="false"
     inkscape:snap-bbox="true"
     inkscape:bbox-paths="true"
     inkscape:bbox-nodes="true"
     inkscape:snap-bbox-edge-midpoints="true"
     inkscape:snap-bbox-midpoints="true"
     inkscape:object-paths="true"
     inkscape:snap-intersection-paths="true"
     inkscape:window-width="1874"
     inkscape:window-height="1141"
     inkscape:window-x="46"
     inkscape:window-y="30"
     inkscape:window-maximized="1">
    <inkscape:grid
       type="xygrid"
       id="grid815" />
  </sodipodi:namedview>
  <metadata
     id="metadata5">
    <rdf:RDF>
      <cc:Work
         rdf:about="">
        <dc:format>image/svg+xml</dc:format>
        <dc:type
           rdf:resource="http://purl.org/dc/dcmitype/StillImage" />
        <dc:title></dc:title>
      </cc:Work>
    </rdf:RDF>
  </metadata>
  <g
     inkscape:label="Capa 1"
     inkscape:groupmode="layer"
     id="layer1"
     transform="translate(0,-280.06666)">
    <g
       id="g3672"
       transform="translate(1.4026925,0.78525969)">
      <path
         style="opacity:1;fill:#b1c2d5;fill-opacity:1;stroke:none;stroke-width:0.52916664;stroke-linecap:round;stroke-linejoin:round;stroke-miterlimit:4;stroke-dasharray:none;stroke-opacity:1"
         d="m 5.476474,280.60432 c -0.5863243,0 -1.0583333,0.47201 -1.0583333,1.05833 v 0.79375 H 2.5660574 c -0.5863232,0 -1.0583333,0.47201 -1.0583333,1.05834 v 0.26458 0.26458 1.05834 h 0.5291667 v 1.32291 3.43959 3.70416 c 0,0.87948 0.7080218,1.5875 1.5874999,1.5875 h 6.8791663 c 0.879478,0 1.5875,-0.70802 1.5875,-1.5875 v -3.70416 -3.43959 -1.32291 h 0.529167 v -1.05834 -0.26458 -0.26458 c 0,-0.58633 -0.47201,-1.05834 -1.058334,-1.05834 H 9.7098073 v -0.79375 c 0,-0.58632 -0.472009,-1.05833 -1.0583333,-1.05833 z m 0,1.05833 h 3.175 v 0.79375 h -3.175 z"
         id="rect5510"
         inkscape:connector-curvature="0"
         sodipodi:nodetypes="sscssccccccssssccccccsscsssccccc" />
      <path
         id="rect5526"
         d="m 5.4766682,280.86867 c -0.4397375,0 -0.79375,0.35401 -0.79375,0.79375 v 0.79375 h 0.5291667 v -0.26458 -0.26458 -0.26459 c 0,-0.14658 0.1180042,-0.26458 0.2645833,-0.26458 h 3.175 c 0.1465791,0 0.2645833,0.118 0.2645833,0.26458 v 0.26459 0.26458 0.26458 h 0.5291666 v -0.79375 c 0,-0.43974 -0.3540124,-0.79375 -0.7937499,-0.79375 z m -2.9104166,1.85209 c -0.4397374,0 -0.79375,0.35401 -0.79375,0.79375 v 0.26458 0.26458 0.79375 h 0.79375 8.9958334 0.79375 v -0.79375 -0.26458 -0.26458 c 0,-0.43974 -0.354013,-0.79375 -0.79375,-0.79375 z m -0.2645833,2.38125 v 1.32291 4.49792 2.64583 c 0,0.7329 0.5900208,1.32292 1.3229166,1.32292 h 6.8791671 c 0.732895,0 1.322916,-0.59002 1.322916,-1.32292 v -2.64583 -4.49792 -1.32291 H 10.503752 3.6245849 Z m 2.3812499,1.32291 c 0.2931584,0 0.5291667,0.23601 0.5291667,0.52917 v 5.55625 c 0,0.29316 -0.2360083,0.52917 -0.5291667,0.52917 -0.2931583,0 -0.5291666,-0.23601 -0.5291666,-0.52917 v -5.55625 c 0,-0.29316 0.2360083,-0.52917 0.5291666,-0.52917 z m 2.38125,0 c 0.2931581,0 0.5291667,0.23601 0.5291667,0.52917 v 5.55625 c 0,0.29316 -0.2360086,0.52917 -0.5291667,0.52917 -0.2931586,0 -0.5291667,-0.23601 -0.5291667,-0.52917 v -5.55625 c 0,-0.29316 0.2360081,-0.52917 0.5291667,-0.52917 z m 2.3812499,0 c 0.2931578,0 0.5291667,0.23601 0.5291667,0.52917 v 5.55625 c 0,0.29316 -0.2360089,0.52917 -0.5291667,0.52917 -0.293158,0 -0.5291666,-0.23601 -0.5291666,-0.52917 v -5.55625 c 0,-0.29316 0.2360086,-0.52917 0.5291666,-0.52917 z"
         style="opacity:1;fill:#dfe9f2;fill-opacity:1;stroke:none;stroke-width:0.52916664;stroke-linecap:round;stroke-linejoin:round;stroke-miterlimit:4;stroke-dasharray:none;stroke-opacity:1"
         inkscape:connector-curvature="0" />
    </g>
  </g>
</svg>
