<?xml version="1.0" encoding="UTF-8" standalone="no"?>
<svg
   xmlns:dc="http://purl.org/dc/elements/1.1/"
   xmlns:cc="http://creativecommons.org/ns#"
   xmlns:rdf="http://www.w3.org/1999/02/22-rdf-syntax-ns#"
   xmlns:svg="http://www.w3.org/2000/svg"
   xmlns="http://www.w3.org/2000/svg"
   xmlns:sodipodi="http://sodipodi.sourceforge.net/DTD/sodipodi-0.dtd"
   xmlns:inkscape="http://www.inkscape.org/namespaces/inkscape"
   height="22"
   viewBox="0 0 22 22"
   width="22"
   id="svg2"
   version="1.1"
   inkscape:version="0.92.3 (2405546, 2018-03-11)"
   sodipodi:docname="system-restart.svg">
  <metadata
     id="metadata10">
    <rdf:RDF>
      <cc:Work
         rdf:about="">
        <dc:format>image/svg+xml</dc:format>
        <dc:type
           rdf:resource="http://purl.org/dc/dcmitype/StillImage" />
        <dc:title />
      </cc:Work>
    </rdf:RDF>
  </metadata>
  <sodipodi:namedview
     pagecolor="#ffffff"
     bordercolor="#666666"
     borderopacity="1"
     objecttolerance="10"
     gridtolerance="10"
     guidetolerance="10"
     inkscape:pageopacity="0"
     inkscape:pageshadow="2"
     inkscape:window-width="1874"
     inkscape:window-height="1141"
     id="namedview8"
     showgrid="true"
     inkscape:zoom="21.454546"
     inkscape:cx="10.663926"
     inkscape:cy="6.3700346"
     inkscape:window-x="46"
     inkscape:window-y="30"
     inkscape:window-maximized="1"
     inkscape:current-layer="g1466"
     inkscape:snap-bbox="true"
     inkscape:bbox-paths="true"
     inkscape:bbox-nodes="true"
     inkscape:snap-bbox-edge-midpoints="true"
     inkscape:snap-bbox-midpoints="true"
     inkscape:object-paths="true"
     inkscape:snap-intersection-paths="true"
     inkscape:snap-smooth-nodes="true">
    <inkscape:grid
       type="xygrid"
       id="grid816" />
  </sodipodi:namedview>
  <defs
     id="defs2">
    <style
       type="text/css"
       id="current-color-scheme">
      .ColorScheme-Text {
        color:#122036;
      }
      </style>
    <style
       id="current-color-scheme-53"
       type="text/css">
      .ColorScheme-Text {
        color:#122036;
      }
      </style>
    <style
       type="text/css"
       id="current-color-scheme-5">
      .ColorScheme-Text {
        color:#122036;
      }
      </style>
    <style
       type="text/css"
       id="current-color-scheme-2">
      .ColorScheme-Text {
        color:#122036;
      }
      </style>
    <style
       type="text/css"
       id="current-color-scheme-1">
      .ColorScheme-Text {
        color:#122036;
      }
      </style>
    <style
       id="current-color-scheme-10"
       type="text/css">
      .ColorScheme-Text {
        color:#122036;
      }
      </style>
    <style
       type="text/css"
       id="current-color-scheme-0">
      .ColorScheme-Text {
        color:#122036;
      }
      </style>
  </defs>
  <g
     id="g1466"
     transform="translate(4,-3)">
    <path
       inkscape:connector-curvature="0"
       id="rect843"
       d="M 7,4 C 12.54,4 17,8.46 17,14 17,19.54 12.54,24 7,24 1.46,24 -3,19.54 -3,14 -3,8.46 1.46,4 7,4 Z"
       style="opacity:1;vector-effect:none;fill:#317ad0;fill-opacity:1;stroke:none;stroke-width:2.48461246;stroke-linecap:round;stroke-linejoin:round;stroke-miterlimit:4;stroke-dasharray:none;stroke-dashoffset:0;stroke-opacity:1" />
    <path
       inkscape:connector-curvature="0"
       id="rect843-6"
       d="m 7,5 c 4.986,0 9,4.014 9,9 0,4.986 -4.014,9 -9,9 -4.986,0 -9,-4.014 -9,-9 0,-4.986 4.014,-9 9,-9 z"
       style="opacity:1;vector-effect:none;fill:#6bb1ff;fill-opacity:1;stroke:none;stroke-width:2.23615122;stroke-linecap:round;stroke-linejoin:round;stroke-miterlimit:4;stroke-dasharray:none;stroke-dashoffset:0;stroke-opacity:1" />
    <path
       id="path956"
       d="M 6.9707031,8 C 6.7832901,8.00563 6.6012349,8.0638359 6.4453125,8.1679688 l -3,2.0000002 c -0.5935879,0.395883 -0.5935879,1.268179 0,1.664062 l 3,2 C 7.109866,14.274873 7.999829,13.798587 8,13 v -0.824219 a 3,3 0 0 1 1.771484,1.675782 3,3 0 0 1 -0.65039,3.269531 3,3 0 0 1 -3.2695315,0.65039 A 3,3 0 0 1 4,15 C 4,14.446 3.554,14 3,14 2.446,14 2,14.446 2,15 A 5,5 0 0 0 5.0859375,19.619141 5,5 0 0 0 10.535156,18.535156 5,5 0 0 0 11.619141,13.085938 5,5 0 0 0 8,10.105469 V 9 C 8.000184,8.4360933 7.53437,7.9835373 6.9707031,8 Z"
       style="color:#000000;font-style:normal;font-variant:normal;font-weight:normal;font-stretch:normal;font-size:medium;line-height:normal;font-family:sans-serif;font-variant-ligatures:normal;font-variant-position:normal;font-variant-caps:normal;font-variant-numeric:normal;font-variant-alternates:normal;font-feature-settings:normal;text-indent:0;text-align:start;text-decoration:none;text-decoration-line:none;text-decoration-style:solid;text-decoration-color:#000000;letter-spacing:normal;word-spacing:normal;text-transform:none;writing-mode:lr-tb;direction:ltr;text-orientation:mixed;dominant-baseline:auto;baseline-shift:baseline;text-anchor:start;white-space:normal;shape-padding:0;clip-rule:nonzero;display:inline;overflow:visible;visibility:visible;opacity:1;isolation:auto;mix-blend-mode:normal;color-interpolation:sRGB;color-interpolation-filters:linearRGB;solid-color:#000000;solid-opacity:1;vector-effect:none;fill:#e9f3ff;fill-opacity:1;fill-rule:nonzero;stroke:none;stroke-width:2;stroke-linecap:round;stroke-linejoin:round;stroke-miterlimit:4;stroke-dasharray:none;stroke-dashoffset:0;stroke-opacity:1;color-rendering:auto;image-rendering:auto;shape-rendering:auto;text-rendering:auto;enable-background:accumulate"
       inkscape:connector-curvature="0" />
  </g>
</svg>
