<?xml version="1.0" encoding="UTF-8" standalone="no"?>
<!-- Created with Inkscape (http://www.inkscape.org/) -->

<svg
   xmlns:dc="http://purl.org/dc/elements/1.1/"
   xmlns:cc="http://creativecommons.org/ns#"
   xmlns:rdf="http://www.w3.org/1999/02/22-rdf-syntax-ns#"
   xmlns:svg="http://www.w3.org/2000/svg"
   xmlns="http://www.w3.org/2000/svg"
   xmlns:sodipodi="http://sodipodi.sourceforge.net/DTD/sodipodi-0.dtd"
   xmlns:inkscape="http://www.inkscape.org/namespaces/inkscape"
   width="32"
   height="32"
   viewBox="0 0 8.4666665 8.4666669"
   version="1.1"
   id="svg8"
   inkscape:version="0.92.3 (2405546, 2018-03-11)"
   sodipodi:docname="preferences-desktop-color.svg">
  <defs
     id="defs2" />
  <sodipodi:namedview
     id="base"
     pagecolor="#ffffff"
     bordercolor="#666666"
     borderopacity="1.0"
     inkscape:pageopacity="0.0"
     inkscape:pageshadow="2"
     inkscape:zoom="11.2"
     inkscape:cx="-28.139984"
     inkscape:cy="13.283898"
     inkscape:document-units="px"
     inkscape:current-layer="g1582"
     showgrid="true"
     units="px"
     inkscape:showpageshadow="false"
     inkscape:snap-bbox="true"
     inkscape:bbox-paths="true"
     inkscape:bbox-nodes="true"
     inkscape:snap-bbox-edge-midpoints="true"
     inkscape:snap-bbox-midpoints="true"
     inkscape:object-paths="true"
     inkscape:snap-intersection-paths="true"
     inkscape:window-width="1874"
     inkscape:window-height="1141"
     inkscape:window-x="46"
     inkscape:window-y="30"
     inkscape:window-maximized="1">
    <inkscape:grid
       type="xygrid"
       id="grid815" />
  </sodipodi:namedview>
  <metadata
     id="metadata5">
    <rdf:RDF>
      <cc:Work
         rdf:about="">
        <dc:format>image/svg+xml</dc:format>
        <dc:type
           rdf:resource="http://purl.org/dc/dcmitype/StillImage" />
        <dc:title></dc:title>
      </cc:Work>
    </rdf:RDF>
  </metadata>
  <g
     inkscape:label="Capa 1"
     inkscape:groupmode="layer"
     id="layer1"
     transform="translate(0,-288.53333)">
    <g
       id="g1582"
       transform="translate(4.4979167,0.79374835)">
      <path
         inkscape:connector-curvature="0"
         style="fill:#5e9c76;fill-opacity:1;stroke:none;stroke-width:0.20738518;stroke-linecap:round;stroke-linejoin:round;stroke-miterlimit:4;stroke-dasharray:none;stroke-opacity:1"
         d="m 1.8520834,287.73958 c 1.1726341,0 2.1166667,0.94402 2.1166667,2.11665 0,1.17264 -0.9440326,2.11668 -2.1166667,2.11668 -1.17263328,0 -2.11666638,-0.94404 -2.11666638,-2.11668 0,-1.17263 0.9440331,-2.11665 2.11666638,-2.11665 z"
         id="rect4496-7" />
      <path
         inkscape:connector-curvature="0"
         style="fill:#bae0bd;fill-opacity:1;stroke:none;stroke-width:0.18549937;stroke-linecap:round;stroke-linejoin:round;stroke-miterlimit:4;stroke-dasharray:none;stroke-opacity:1"
         d="m 1.8520831,288.00416 c 1.026051,0 1.8520778,0.82604 1.8520778,1.85209 0,1.02605 -0.8260268,1.85208 -1.8520778,1.85208 -1.02605068,0 -1.852076984375,-0.82603 -1.852076984375,-1.85208 0,-1.02605 0.826026304375,-1.85209 1.852076984375,-1.85209 z"
         id="rect4570" />
      <path
         inkscape:connector-curvature="0"
         style="fill:#ffb851;fill-opacity:0.96078432;stroke:none;stroke-width:0.20738523;stroke-linecap:round;stroke-linejoin:round;stroke-miterlimit:4;stroke-dasharray:none;stroke-opacity:1"
         d="m -2.3812504,287.73958 c 1.1726335,0 2.11666682,0.94402 2.11666682,2.11665 0,1.17264 -0.94403332,2.11668 -2.11666682,2.11668 -1.1726333,0 -2.1166665,-0.94404 -2.1166665,-2.11668 0,-1.17263 0.9440332,-2.11665 2.1166665,-2.11665 z"
         id="rect4496-7-5" />
      <path
         inkscape:connector-curvature="0"
         style="fill:#ffeea3;fill-opacity:1;stroke:none;stroke-width:0.18550001;stroke-linecap:round;stroke-linejoin:round;stroke-miterlimit:4;stroke-dasharray:none;stroke-opacity:1"
         d="m -2.3812501,288.00416 c 1.026054,0 1.85208322,0.82602 1.85208322,1.85208 0,1.02606 -0.82602922,1.85209 -1.85208322,1.85209 -1.0260544,0 -1.8520835,-0.82603 -1.8520835,-1.85209 0,-1.02606 0.8260291,-1.85208 1.8520835,-1.85208 z"
         id="rect4570-9" />
      <path
         inkscape:connector-curvature="0"
         style="fill:#287bc2;fill-opacity:1;stroke:none;stroke-width:0.20738523;stroke-linecap:round;stroke-linejoin:round;stroke-miterlimit:4;stroke-dasharray:none;stroke-opacity:1"
         d="m 1.8520831,291.97293 c 1.1726334,0 2.1166667,0.94401 2.1166667,2.11665 0,1.17263 -0.9440333,2.11667 -2.1166667,2.11667 -1.17263328,0 -2.11666668,-0.94404 -2.11666668,-2.11667 0,-1.17264 0.9440334,-2.11665 2.11666668,-2.11665 z"
         id="rect4496" />
      <path
         inkscape:connector-curvature="0"
         style="fill:#78c1ff;fill-opacity:1;stroke:none;stroke-width:0.18550001;stroke-linecap:round;stroke-linejoin:round;stroke-miterlimit:4;stroke-dasharray:none;stroke-opacity:1"
         d="m 1.8520831,292.2375 c 1.0260542,0 1.8520834,0.82602 1.8520834,1.85208 0,1.02606 -0.8260292,1.8521 -1.8520834,1.8521 -1.02605408,0 -1.852083284375,-0.82604 -1.852083284375,-1.8521 0,-1.02606 0.826029204375,-1.85208 1.852083284375,-1.85208 z"
         id="rect4570-9-6" />
      <path
         inkscape:connector-curvature="0"
         style="fill:#c74343;fill-opacity:1;stroke:none;stroke-width:0.20738523;stroke-linecap:round;stroke-linejoin:round;stroke-miterlimit:4;stroke-dasharray:none;stroke-opacity:1"
         d="m -2.3812501,291.97293 c 1.1726335,0 2.11666652,0.94401 2.11666652,2.11665 0,1.17263 -0.94403302,2.11667 -2.11666652,2.11667 -1.1726334,0 -2.1166666,-0.94404 -2.1166666,-2.11667 0,-1.17264 0.9440332,-2.11665 2.1166666,-2.11665 z"
         id="rect4496-3" />
      <path
         inkscape:connector-curvature="0"
         style="fill:#f78f8f;fill-opacity:1;stroke:none;stroke-width:0.18550001;stroke-linecap:round;stroke-linejoin:round;stroke-miterlimit:4;stroke-dasharray:none;stroke-opacity:1"
         d="m -2.3812501,292.2375 c 1.026054,0 1.85208322,0.82603 1.85208322,1.85209 0,1.02606 -0.82602922,1.85209 -1.85208322,1.85209 -1.0260543,0 -1.8520834,-0.82603 -1.8520834,-1.85209 0,-1.02606 0.8260291,-1.85209 1.8520834,-1.85209 z"
         id="rect4570-9-6-5" />
      <path
         inkscape:connector-curvature="0"
         style="fill:#b1c1d4;fill-opacity:1;stroke:none;stroke-width:0.20738523;stroke-linecap:round;stroke-linejoin:round;stroke-miterlimit:4;stroke-dasharray:none;stroke-opacity:1"
         d="m -0.26458328,289.85625 c 1.1726331,0 2.11666638,0.94401 2.11666638,2.11665 0,1.17263 -0.94403328,2.11667 -2.11666638,2.11667 -1.17263362,0 -2.11666682,-0.94404 -2.11666682,-2.11667 0,-1.17264 0.9440332,-2.11665 2.11666682,-2.11665 z"
         id="rect4496-1" />
      <path
         inkscape:connector-curvature="0"
         style="fill:#ecf6ff;fill-opacity:1;stroke:none;stroke-width:0.1855;stroke-linecap:round;stroke-linejoin:round;stroke-miterlimit:4;stroke-dasharray:none;stroke-opacity:1"
         d="m -0.26458328,290.12082 c 1.0260539,0 1.85208308,0.82603 1.85208308,1.85209 0,1.02606 -0.82602918,1.85209 -1.85208308,1.85209 -1.02605442,0 -1.85208352,-0.82603 -1.85208352,-1.85209 0,-1.02606 0.8260291,-1.85209 1.85208352,-1.85209 z"
         id="rect4570-9-6-2" />
      <path
         style="fill:#4b6477;fill-opacity:1;stroke-width:0.00463516"
         d="m -0.26458328,290.91458 c 0,0 -0.4997815,0.6686 -0.6356202,0.86971 -0.092108,0.13637 -0.15878812,0.29381 -0.15812982,0.47026 0.00161,0.43042 0.35699122,0.77828 0.79375002,0.77669 0.4367586,0.002 0.792139,-0.34627 0.7937498,-0.77669 6.614e-4,-0.17645 -0.066022,-0.33389 -0.1581296,-0.47026 -0.097949,-0.14501 -0.6356202,-0.86971 -0.6356202,-0.86971 z"
         id="path4823-3"
         inkscape:connector-curvature="0"
         sodipodi:nodetypes="ccccccc" />
    </g>
  </g>
</svg>
