<?xml version="1.0" encoding="UTF-8" standalone="no"?>
<!-- Created with Inkscape (http://www.inkscape.org/) -->

<svg
   xmlns:dc="http://purl.org/dc/elements/1.1/"
   xmlns:cc="http://creativecommons.org/ns#"
   xmlns:rdf="http://www.w3.org/1999/02/22-rdf-syntax-ns#"
   xmlns:svg="http://www.w3.org/2000/svg"
   xmlns="http://www.w3.org/2000/svg"
   xmlns:sodipodi="http://sodipodi.sourceforge.net/DTD/sodipodi-0.dtd"
   xmlns:inkscape="http://www.inkscape.org/namespaces/inkscape"
   width="32"
   height="32"
   viewBox="0 0 8.4666665 8.4666669"
   version="1.1"
   id="svg8"
   inkscape:version="0.92.4 5da689c313, 2019-01-14"
   sodipodi:docname="preferences-system-network-nis.svg">
  <defs
     id="defs2">
    <style
       id="current-color-scheme"
       type="text/css">
      .ColorScheme-Text {
        color:#36404d;
      }
      </style>
    <style
       type="text/css"
       id="current-color-scheme-3">
      .ColorScheme-Text {
        color:#122036;
      }
      </style>
    <style
       id="current-color-scheme-5"
       type="text/css">
      .ColorScheme-Text {
        color:#122036;
      }
      </style>
    <style
       id="current-color-scheme-2"
       type="text/css">
      .ColorScheme-Text {
        color:#122036;
      }
      </style>
    <style
       id="current-color-scheme-1"
       type="text/css">
      .ColorScheme-Text {
        color:#122036;
      }
      </style>
    <style
       type="text/css"
       id="current-color-scheme-10">
      .ColorScheme-Text {
        color:#122036;
      }
      </style>
    <style
       id="current-color-scheme-0"
       type="text/css">
      .ColorScheme-Text {
        color:#122036;
      }
      </style>
    <style
       id="current-color-scheme-26"
       type="text/css">
      .ColorScheme-Text {
        color:#122036;
      }
      </style>
  </defs>
  <sodipodi:namedview
     id="base"
     pagecolor="#ffffff"
     bordercolor="#666666"
     borderopacity="1.0"
     inkscape:pageopacity="0.0"
     inkscape:pageshadow="2"
     inkscape:zoom="32"
     inkscape:cx="22.740219"
     inkscape:cy="15.842366"
     inkscape:document-units="px"
     inkscape:current-layer="layer1"
     showgrid="true"
     units="px"
     inkscape:showpageshadow="false"
     inkscape:snap-bbox="true"
     inkscape:bbox-paths="true"
     inkscape:bbox-nodes="true"
     inkscape:snap-bbox-edge-midpoints="true"
     inkscape:snap-bbox-midpoints="true"
     inkscape:object-paths="true"
     inkscape:snap-intersection-paths="true"
     inkscape:window-width="1870"
     inkscape:window-height="1141"
     inkscape:window-x="50"
     inkscape:window-y="30"
     inkscape:window-maximized="1"
     showguides="false">
    <inkscape:grid
       type="xygrid"
       id="grid815" />
  </sodipodi:namedview>
  <metadata
     id="metadata5">
    <rdf:RDF>
      <cc:Work
         rdf:about="">
        <dc:format>image/svg+xml</dc:format>
        <dc:type
           rdf:resource="http://purl.org/dc/dcmitype/StillImage" />
        <dc:title></dc:title>
      </cc:Work>
    </rdf:RDF>
  </metadata>
  <g
     inkscape:label="Capa 1"
     inkscape:groupmode="layer"
     id="layer1"
     transform="translate(0,-288.53333)">
    <g
       id="g1658"
       transform="translate(5.2916667,3.3499999e-6)">
      <path
         id="rect868-2"
         d="M 1.8520833,290.91458 H 2.38125 c 0.1465791,0 0.2645833,0.118 0.2645833,0.26458 v 1.32292 c 0,0.14658 -0.1180042,0.26458 -0.2645833,0.26458 H 1.8520833 c -0.1465792,0 -0.2645833,-0.118 -0.2645833,-0.26458 v -1.32292 c 0,-0.14658 0.1180041,-0.26458 0.2645833,-0.26458 z"
         style="opacity:0.98000004;fill:#287bc2;fill-opacity:1;stroke:none;stroke-width:0.5291667;stroke-linecap:round;stroke-linejoin:round;stroke-miterlimit:4;stroke-dasharray:none;stroke-dashoffset:0;stroke-opacity:1"
         inkscape:connector-curvature="0" />
      <path
         style="opacity:0.98000004;fill:#d72f4a;fill-opacity:1;stroke:none;stroke-width:0.5291667;stroke-linecap:round;stroke-linejoin:round;stroke-miterlimit:4;stroke-dasharray:none;stroke-dashoffset:0;stroke-opacity:1"
         d="M 1.8520833,289.06249 H 2.38125 c 0.1465791,0 0.2645833,0.11801 0.2645833,0.26459 v 1.32291 c 0,0.14658 -0.1180042,0.26459 -0.2645833,0.26459 H 1.8520833 c -0.1465792,0 -0.2645833,-0.11801 -0.2645833,-0.26459 v -1.32291 c 0,-0.14658 0.1180041,-0.26459 0.2645833,-0.26459 z"
         id="rect868"
         inkscape:connector-curvature="0" />
      <path
         style="opacity:0.98000004;fill:#ff778a;fill-opacity:1;stroke:none;stroke-width:0.5291667;stroke-linecap:round;stroke-linejoin:round;stroke-miterlimit:4;stroke-dasharray:none;stroke-dashoffset:0;stroke-opacity:1"
         d="M 1.8520833,289.32708 H 2.38125 v 1.32291 H 1.8520833 Z"
         id="rect870"
         inkscape:connector-curvature="0" />
      <path
         style="opacity:0.98000004;fill:#78c1ff;fill-opacity:1;stroke:none;stroke-width:0.5291667;stroke-linecap:round;stroke-linejoin:round;stroke-miterlimit:4;stroke-dasharray:none;stroke-dashoffset:0;stroke-opacity:1"
         d="M 1.8520833,291.17916 H 2.38125 v 1.32292 H 1.8520833 Z"
         id="rect870-9"
         inkscape:connector-curvature="0" />
      <path
         style="opacity:0.98000004;fill:#60963f;fill-opacity:1;stroke:none;stroke-width:0.5291667;stroke-linecap:round;stroke-linejoin:round;stroke-miterlimit:4;stroke-dasharray:none;stroke-dashoffset:0;stroke-opacity:1"
         d="M 1.8520833,292.76666 H 2.38125 c 0.1465791,0 0.2645833,0.118 0.2645833,0.26458 v 1.32292 c 0,0.14658 -0.1180042,0.26458 -0.2645833,0.26458 H 1.8520833 c -0.1465792,0 -0.2645833,-0.118 -0.2645833,-0.26458 v -1.32292 c 0,-0.14658 0.1180041,-0.26458 0.2645833,-0.26458 z"
         id="rect868-2-1"
         inkscape:connector-curvature="0" />
      <path
         style="opacity:0.98000004;fill:#a0d580;fill-opacity:1;stroke:none;stroke-width:0.5291667;stroke-linecap:round;stroke-linejoin:round;stroke-miterlimit:4;stroke-dasharray:none;stroke-dashoffset:0;stroke-opacity:1"
         d="M 1.8520833,293.03124 H 2.38125 v 1.32292 H 1.8520833 Z"
         id="rect870-9-2"
         inkscape:connector-curvature="0" />
      <path
         style="opacity:0.98000004;fill:#f37d5c;fill-opacity:1;stroke:none;stroke-width:0.5291667;stroke-linecap:round;stroke-linejoin:round;stroke-miterlimit:4;stroke-dasharray:none;stroke-dashoffset:0;stroke-opacity:1"
         d="M 1.8520833,294.61874 H 2.38125 c 0.1465791,0 0.2645833,0.11801 0.2645833,0.26459 v 1.32291 c 0,0.14658 -0.1180042,0.26459 -0.2645833,0.26459 H 1.8520833 c -0.1465792,0 -0.2645833,-0.11801 -0.2645833,-0.26459 v -1.32291 c 0,-0.14658 0.1180041,-0.26459 0.2645833,-0.26459 z"
         id="rect868-2-7"
         inkscape:connector-curvature="0" />
      <path
         id="rect843"
         d="m -4.4979167,288.79791 h 5.8208333 c 0.2931584,0 0.5291667,0.23601 0.5291667,0.52917 v 6.87916 c 0,0.29316 -0.2360083,0.52917 -0.5291667,0.52917 h -5.8208333 c -0.2931583,0 -0.5291667,-0.23601 -0.5291667,-0.52917 v -6.87916 c 0,-0.29316 0.2360084,-0.52917 0.5291667,-0.52917 z"
         style="opacity:1;fill:#4972c5;fill-opacity:1;stroke:none;stroke-width:0.63318539;stroke-linecap:round;stroke-linejoin:round;stroke-miterlimit:4;stroke-dasharray:none;stroke-opacity:1"
         inkscape:connector-curvature="0"
         sodipodi:nodetypes="sssssssss" />
      <path
         id="rect843-3"
         d="m -3.9687501,289.06249 v 7.40834 h 5.2916667 c 0.1465789,0 0.2645834,-0.11801 0.2645834,-0.26459 v -6.87916 c 0,-0.14658 -0.1180045,-0.26459 -0.2645834,-0.26459 z"
         style="opacity:1;fill:#5ca5ff;fill-opacity:1;stroke:none;stroke-width:0.59097302;stroke-linecap:round;stroke-linejoin:round;stroke-miterlimit:4;stroke-dasharray:none;stroke-opacity:1"
         inkscape:connector-curvature="0" />
      <path
         style="opacity:0.98000004;fill:#ffb8a3;fill-opacity:1;stroke:none;stroke-width:0.5291667;stroke-linecap:round;stroke-linejoin:round;stroke-miterlimit:4;stroke-dasharray:none;stroke-dashoffset:0;stroke-opacity:1"
         d="M 1.8520833,294.88333 H 2.38125 v 1.32291 H 1.8520833 Z"
         id="rect870-9-0"
         inkscape:connector-curvature="0" />
      <path
         style="opacity:0.98000004;fill:#e6f9ff;fill-opacity:1;stroke:none;stroke-width:2;stroke-linecap:round;stroke-linejoin:round;stroke-miterlimit:4;stroke-dasharray:none;stroke-dashoffset:0;stroke-opacity:1"
         d="M 15 10 C 13.338 10 12 11.337991 12 13 C 12 14.662009 13.338 16 15 16 C 16.662 16 18 14.662009 18 13 C 18 11.337991 16.662 10 15 10 z M 15 17 C 12.238576 17 10 19.238564 10 22 C 11.956974 22.759201 13.957436 23.054135 16 22.900391 L 16 22 C 16 21.722989 16.112222 21.473716 16.292969 21.292969 C 16.473716 21.112222 16.722989 21 17 21 L 17.041016 21 A 3.4999998 3.4999998 0 0 1 17.070312 20.804688 A 3.4999998 3.4999998 0 0 1 17.15625 20.464844 A 3.4999998 3.4999998 0 0 1 17.275391 20.136719 A 3.4999998 3.4999998 0 0 1 17.427734 19.822266 A 3.4999998 3.4999998 0 0 1 17.611328 19.523438 A 3.4999998 3.4999998 0 0 1 17.822266 19.246094 A 3.4999998 3.4999998 0 0 1 18.0625 18.988281 A 3.4999998 3.4999998 0 0 1 18.201172 18.865234 L 18.203125 18.863281 L 18.205078 18.863281 A 3.4999998 3.4999998 0 0 1 18.324219 18.757812 A 3.4999998 3.4999998 0 0 1 18.558594 18.591797 C 17.650877 17.63926 16.420001 17 15 17 z M 20.5 19 C 19.115 19 18 20.11503 18 21.5 L 18 22 C 17.445994 22 17 22.445997 17 23 L 17 27 C 17 27.554003 17.445994 28 18 28 L 23 28 C 23.554006 28 24 27.554003 24 27 L 24 23 C 24 22.445997 23.554006 22 23 22 L 23 21.5 C 23 20.11503 21.885 19 20.5 19 z M 20.5 21 C 20.777002 21 21 21.222998 21 21.5 L 21 22 L 20 22 L 20 21.5 C 20 21.222961 20.223 21 20.5 21 z M 19 24 L 22 24 L 22 26 L 19 26 L 19 24 z "
         transform="matrix(0.26458333,0,0,0.26458333,-5.2916667,288.53333)"
         id="path977" />
    </g>
  </g>
</svg>
