<?xml version="1.0" encoding="UTF-8" standalone="no"?>
<svg
   xmlns:dc="http://purl.org/dc/elements/1.1/"
   xmlns:cc="http://creativecommons.org/ns#"
   xmlns:rdf="http://www.w3.org/1999/02/22-rdf-syntax-ns#"
   xmlns:svg="http://www.w3.org/2000/svg"
   xmlns="http://www.w3.org/2000/svg"
   xmlns:sodipodi="http://sodipodi.sourceforge.net/DTD/sodipodi-0.dtd"
   xmlns:inkscape="http://www.inkscape.org/namespaces/inkscape"
   height="32"
   viewBox="0 0 8.4666664 8.4666669"
   width="32"
   version="1.1"
   id="svg6"
   sodipodi:docname="preferences-system-network-server-ftp.svg"
   inkscape:version="0.92.4 5da689c313, 2019-01-14">
  <metadata
     id="metadata10">
    <rdf:RDF>
      <cc:Work
         rdf:about="">
        <dc:format>image/svg+xml</dc:format>
        <dc:type
           rdf:resource="http://purl.org/dc/dcmitype/StillImage" />
        <dc:title></dc:title>
      </cc:Work>
    </rdf:RDF>
  </metadata>
  <sodipodi:namedview
     pagecolor="#ffffff"
     bordercolor="#666666"
     borderopacity="1"
     objecttolerance="10"
     gridtolerance="10"
     guidetolerance="10"
     inkscape:pageopacity="0"
     inkscape:pageshadow="2"
     inkscape:window-width="1870"
     inkscape:window-height="1141"
     id="namedview8"
     showgrid="true"
     inkscape:zoom="20.85965"
     inkscape:cx="15.938291"
     inkscape:cy="4.1591998"
     inkscape:window-x="50"
     inkscape:window-y="30"
     inkscape:window-maximized="1"
     inkscape:current-layer="svg6">
    <inkscape:grid
       type="xygrid"
       id="grid3304" />
  </sodipodi:namedview>
  <defs
     id="defs2">
    <style
       type="text/css"
       id="current-color-scheme">
      .ColorScheme-Text {
        color:#36404d;
      }
      </style>
  </defs>
  <g
     id="g3302"
     transform="translate(9.1909074,-1.338607)">
    <path
       inkscape:connector-curvature="0"
       style="fill:#4972c5;fill-opacity:1;stroke:none;stroke-width:0.38884729;stroke-linecap:round;stroke-linejoin:round;stroke-miterlimit:4;stroke-dasharray:none;stroke-opacity:1"
       d="m -4.9575741,1.6032009 c 2.1986875,0 3.96874997,1.7700202 3.96874997,3.9687288 0,2.1986716 -1.77006247,3.96875 -3.96874997,3.96875 -2.1986873,0 -3.96875,-1.7700784 -3.96875,-3.96875 0,-2.1987086 1.7700627,-3.9687288 3.96875,-3.9687288 z"
       id="rect4496-6-6" />
    <path
       inkscape:connector-curvature="0"
       style="fill:#5ca5ff;fill-opacity:1;stroke:none;stroke-width:0.37100005;stroke-linecap:round;stroke-linejoin:round;stroke-miterlimit:4;stroke-dasharray:none;stroke-opacity:1"
       d="m -4.9575738,1.867771 c 2.052108,0 3.7041664,1.6520398 3.7041664,3.7041587 0,2.0521216 -1.6520584,3.7041905 -3.7041664,3.7041905 -2.0521087,0 -3.704167,-1.6520689 -3.704167,-3.7041905 0,-2.0521189 1.6520583,-3.7041587 3.704167,-3.7041587 z"
       id="rect4570-9-6-0-5" />
    <path
       id="path4538-6"
       d="m -4.4346087,1.998515 a 0.13230489,0.13230489 0 0 0 -0.07028,0.025838 c -0.191113,0.1337787 -0.3688022,0.2736343 -0.5358844,0.4180624 -0.054564,-0.02816 -0.1155237,-0.045475 -0.1813843,-0.045475 -0.2198688,0 -0.396875,0.1770063 -0.396875,0.396875 0,0.062772 0.015608,0.1214869 0.041341,0.1741496 -0.4316595,0.4833294 -0.7428738,1.0077135 -0.9312092,1.5518434 -0.012384,-0.00117 -0.023458,-0.0062 -0.036174,-0.0062 -0.1147187,0 -0.2170604,0.048769 -0.289388,0.1260903 C -7.2944744,4.4779658 -7.70993,4.2195009 -8.0380062,3.8914227 a 0.13264298,0.13264298 0 1 0 -0.1875855,0.1875855 c 0.353041,0.3530415 0.7957628,0.6310802 1.2862264,0.8061524 -5.45e-4,0.00855 -0.00259,0.016642 -0.00259,0.025321 0,0.1694561 0.1058812,0.3123663 0.2547648,0.3694864 -0.00793,0.06064 -0.017803,0.1210347 -0.022737,0.181901 -0.028619,0.3529671 -0.00306,0.708156 0.07028,1.0604005 -0.4797485,0.2325012 -0.9297944,0.5738692 -1.3280798,1.0252601 a 0.13284082,0.13284082 0 1 0 0.1989553,0.1757005 c 0.362851,-0.4112324 0.7663856,-0.7203295 1.1937256,-0.9363768 0.1050314,0.3721198 0.2646011,0.7395964 0.4842082,1.0955403 -0.035596,0.059542 -0.057361,0.1283938 -0.057361,0.2030884 0,0.2198687 0.1770062,0.396875 0.396875,0.396875 0.029389,0 0.057729,-0.00381 0.085266,-0.00982 0.1830075,0.2193052 0.3893069,0.4325212 0.6201172,0.6376871 a 0.13230489,0.13230489 0 1 0 0.1757,-0.1974027 C -5.0824397,8.7242025 -5.2719446,8.5295269 -5.4407488,8.3304279 c 0.053259,-0.067535 0.0863,-0.1518735 0.0863,-0.2449459 0,-0.2198688 -0.1770063,-0.396875 -0.396875,-0.396875 -0.048096,0 -0.093319,0.00979 -0.1359091,0.025321 -0.2053582,-0.3383983 -0.3523551,-0.685725 -0.4464846,-1.0361127 0.4105283,-0.169576 0.8392961,-0.258899 1.2758912,-0.258899 0.00532,0 0.010697,0.00103 0.01602,0.00103 0.066728,0.1248011 0.1968704,0.2103255 0.348815,0.2103255 0.1225373,0 0.2306524,-0.055888 0.3033406,-0.1426268 0.2707936,0.052937 0.5416476,0.1397215 0.8097697,0.2568319 -0.2661862,0.6726528 -0.2773997,1.4472856 0.096635,2.0706744 A 0.13230952,0.13230952 0 0 0 -3.2569028,8.6782105 C -3.5763181,8.1458559 -3.5733929,7.4627311 -3.3401018,6.8592001 -2.9266486,7.071392 -2.5222327,7.3593367 -2.1396582,7.7309816 A 0.13258861,0.13258861 0 1 0 -1.95414,7.5418458 C -2.3573841,7.1501222 -2.7880085,6.8440586 -3.2310644,6.6178713 c 0.0042,-0.00824 0.00707,-0.017124 0.011369,-0.025321 0.1102606,-0.2104964 0.2510878,-0.4006152 0.4118613,-0.5663737 0.064638,0.046474 0.1435211,0.074489 0.2294435,0.074931 0.2628686,0.2878508 0.5951077,0.5192799 0.9916705,0.6537068 a 0.13230488,0.13230488 0 1 0 0.085783,-0.2501136 c -0.3166456,-0.107337 -0.5845915,-0.2877577 -0.8056361,-0.5100473 0.077942,-0.072377 0.1271241,-0.175177 0.1271241,-0.2904215 0,-0.039245 -0.00757,-0.076387 -0.018087,-0.1121378 0.2108422,-0.09451 0.4378301,-0.1519288 0.6790282,-0.1519288 a 0.13281501,0.13281501 0 1 0 0,-0.2656168 c -0.3018877,0 -0.5837594,0.073824 -0.8402587,0.1979207 -0.062449,-0.04092 -0.1370056,-0.065112 -0.2175575,-0.065112 -0.065286,0 -0.1256176,0.017251 -0.1798341,0.044958 -0.2759909,-0.5830774 -0.3161057,-1.2659924 -0.07338,-1.8205602 0.1275864,-0.1649176 0.250788,-0.342532 0.3674195,-0.5369182 a 0.13230489,0.13230489 0 0 0 0.0093,-0.01757 0.13230488,0.13230488 0 0 0 0.00259,-0.0062 0.13230489,0.13230489 0 0 0 -0.131258,-0.179834 0.13230489,0.13230489 0 0 0 -0.00362,5.159e-4 0.13230489,0.13230489 0 0 0 -0.1023194,0.061495 c -0.15746,0.1620413 -0.2809572,0.3451218 -0.3725782,0.5420849 -0.7147745,0.9147322 -1.571798,1.3352015 -2.4060547,1.4159343 -0.2365306,0.022886 -0.4710181,0.016756 -0.7002155,-0.012401 -0.018828,-0.06418 -0.056333,-0.1185934 -0.1018027,-0.1648479 0.1735603,-0.5157509 0.4652301,-1.0161127 0.8790162,-1.4810466 0.05088,0.023653 0.1069023,0.037723 0.166904,0.037723 0.2198687,0 0.396875,-0.1770062 0.396875,-0.396875 0,-0.056203 -0.011665,-0.1092526 -0.032556,-0.1576131 0.1577877,-0.1357364 0.3243231,-0.2685759 0.5053952,-0.3953246 A 0.13230489,0.13230489 0 0 0 -4.4346087,1.998515 Z m 1.197343,1.9962605 c -0.077012,0.5278196 0.026487,1.092224 0.2873211,1.5812989 -0.013835,0.040463 -0.023255,0.082893 -0.023255,0.1281576 0,0.034231 0.00536,0.067055 0.013435,0.098702 -0.1963005,0.1939592 -0.3651872,0.4196763 -0.4945423,0.6666259 -0.00579,0.01106 -0.00985,0.022966 -0.015502,0.034106 -0.2726506,-0.1197299 -0.5489164,-0.2110077 -0.8263069,-0.2687171 2.1e-6,-5.291e-4 0,-0.00103 0,-0.00156 0,-0.2198608 -0.1770097,-0.396875 -0.396875,-0.396875 -0.1929085,0 -0.352294,0.1364073 -0.3886067,0.3183268 -0.4483,0.00297 -0.8891998,0.094541 -1.3115478,0.2630332 -0.059472,-0.3115469 -0.078402,-0.6243317 -0.053227,-0.9348279 0.00531,-0.065458 0.015766,-0.1305833 0.024805,-0.1958536 0.1100765,-0.035834 0.1988172,-0.1176621 0.2428793,-0.2237589 0.2415945,0.029025 0.4887965,0.035523 0.738456,0.011369 0.7562596,-0.073182 1.5281895,-0.4097128 2.2029664,-1.0800376 z"
       style="color:#000000;font-style:normal;font-variant:normal;font-weight:normal;font-stretch:normal;font-size:medium;line-height:normal;font-family:sans-serif;font-variant-ligatures:normal;font-variant-position:normal;font-variant-caps:normal;font-variant-numeric:normal;font-variant-alternates:normal;font-feature-settings:normal;text-indent:0;text-align:start;text-decoration:none;text-decoration-line:none;text-decoration-style:solid;text-decoration-color:#000000;letter-spacing:normal;word-spacing:normal;text-transform:none;writing-mode:lr-tb;direction:ltr;text-orientation:mixed;dominant-baseline:auto;baseline-shift:baseline;text-anchor:start;white-space:normal;shape-padding:0;clip-rule:nonzero;display:inline;overflow:visible;visibility:visible;opacity:1;isolation:auto;mix-blend-mode:normal;color-interpolation:sRGB;color-interpolation-filters:linearRGB;solid-color:#000000;solid-opacity:1;vector-effect:none;fill:#e6f9ff;fill-opacity:1;fill-rule:nonzero;stroke:none;stroke-width:0.26458332;stroke-linecap:round;stroke-linejoin:miter;stroke-miterlimit:4;stroke-dasharray:none;stroke-dashoffset:0;stroke-opacity:1;color-rendering:auto;image-rendering:auto;shape-rendering:auto;text-rendering:auto;enable-background:accumulate"
       inkscape:connector-curvature="0" />
    <path
       id="rect843"
       d="m -3.1054908,5.0427736 c 1.3192125,0 2.38124997,1.0620375 2.38124997,2.38125 0,1.3192125 -1.06203747,2.38125 -2.38124997,2.38125 -1.3192125,0 -2.38125,-1.0620375 -2.38125,-2.38125 0,-1.3192125 1.0620375,-2.38125 2.38125,-2.38125 z"
       style="opacity:1;vector-effect:none;fill:#36404d;fill-opacity:1;stroke:none;stroke-width:0.59164834;stroke-linecap:round;stroke-linejoin:round;stroke-miterlimit:4;stroke-dasharray:none;stroke-dashoffset:0;stroke-opacity:1"
       inkscape:connector-curvature="0" />
    <path
       id="rect843-6"
       d="m -3.1054908,5.307357 c 1.1726334,0 2.11666667,0.9440333 2.11666667,2.1166666 0,1.1726334 -0.94403327,2.1166667 -2.11666667,2.1166667 -1.1726333,0 -2.1166666,-0.9440333 -2.1166666,-2.1166667 0,-1.1726333 0.9440333,-2.1166666 2.1166666,-2.1166666 z"
       style="opacity:1;vector-effect:none;fill:#4b6477;fill-opacity:1;stroke:none;stroke-width:0.52590966;stroke-linecap:round;stroke-linejoin:round;stroke-miterlimit:4;stroke-dasharray:none;stroke-dashoffset:0;stroke-opacity:1"
       inkscape:connector-curvature="0" />
    <path
       id="path2664"
       d="m -4.1638241,6.101107 c 0,0 -0.2645833,-0.00106 -0.2645833,0.2645833 V 8.482357 c 0,0 0,0.2645833 0.2645833,0.2645833 h 2.1166667 c 0.2645833,0 0.2645833,-0.2645833 0.2645833,-0.2645833 v -1.5875 c 0,0 9.789e-4,-0.2645834 -0.2645833,-0.2645834 h -0.79375 c -0.5291667,0 -0.2645834,-0.5291666 -0.79375,-0.5291666 z m 1.3229167,0.79375 h 0.79375 v 1.5875 H -4.1638241 V 7.1594403 h 0.5291667 c 0.5291666,0 0.2645833,-0.2645833 0.79375,-0.2645833 z"
       style="fill:#e1ebf2;fill-opacity:1;stroke:none;stroke-width:0.26458332px;stroke-linecap:butt;stroke-linejoin:miter;stroke-opacity:1"
       inkscape:connector-curvature="0" />
  </g>
</svg>
