<?xml version="1.0" encoding="UTF-8" standalone="no"?>
<svg
   xmlns:dc="http://purl.org/dc/elements/1.1/"
   xmlns:cc="http://creativecommons.org/ns#"
   xmlns:rdf="http://www.w3.org/1999/02/22-rdf-syntax-ns#"
   xmlns:svg="http://www.w3.org/2000/svg"
   xmlns="http://www.w3.org/2000/svg"
   xmlns:sodipodi="http://sodipodi.sourceforge.net/DTD/sodipodi-0.dtd"
   xmlns:inkscape="http://www.inkscape.org/namespaces/inkscape"
   height="32"
   viewBox="0 0 8.4666664 8.4666669"
   width="32"
   version="1.1"
   id="svg6"
   sodipodi:docname="preferences-system-linux.svg"
   inkscape:version="0.92.4 5da689c313, 2019-01-14">
  <metadata
     id="metadata10">
    <rdf:RDF>
      <cc:Work
         rdf:about="">
        <dc:format>image/svg+xml</dc:format>
        <dc:type
           rdf:resource="http://purl.org/dc/dcmitype/StillImage" />
        <dc:title />
      </cc:Work>
    </rdf:RDF>
  </metadata>
  <sodipodi:namedview
     pagecolor="#ffffff"
     bordercolor="#666666"
     borderopacity="1"
     objecttolerance="10"
     gridtolerance="10"
     guidetolerance="10"
     inkscape:pageopacity="0"
     inkscape:pageshadow="2"
     inkscape:window-width="1870"
     inkscape:window-height="1141"
     id="namedview8"
     showgrid="false"
     inkscape:zoom="1.3037281"
     inkscape:cx="142.46863"
     inkscape:cy="-7.229407"
     inkscape:window-x="50"
     inkscape:window-y="30"
     inkscape:window-maximized="1"
     inkscape:current-layer="g1558" />
  <defs
     id="defs2">
    <style
       type="text/css"
       id="current-color-scheme">
      .ColorScheme-Text {
        color:#36404d;
      }
      </style>
    <style
       id="current-color-scheme-3"
       type="text/css">
      .ColorScheme-Text {
        color:#36404d;
      }
      </style>
  </defs>
  <g
     id="g1558"
     transform="translate(8.9509887,-1.5787898)">
    <path
       id="rect889"
       d="m -4.7186889,1.8428556 c -1.3366459,0 -2.5103379,0.6258144 -3.2850708,1.5875 h 0.00723 C -8.422505,3.8815412 -8.6864054,4.4869625 -8.6864054,5.1501473 v 0.661975 c -3.22e-5,1.4166575 0.7575137,2.7291877 1.984375,3.4375164 1.2268335,0.7083126 2.7419165,0.7083126 3.96875,0 1.2268613,-0.7083287 1.98440734,-2.0208589 1.98437504,-3.4375164 v -0.661975 c 0,-0.6631848 -0.26441694,-1.2686061 -0.69039714,-1.7197917 h 0.00568 C -2.208351,2.46867 -3.382043,1.8428556 -4.7186889,1.8428556 Z"
       style="fill:#242428;fill-opacity:1;stroke:none;stroke-width:1.05833328;stroke-linecap:round;stroke-linejoin:round;stroke-miterlimit:4;stroke-dasharray:none;stroke-opacity:1"
       inkscape:connector-curvature="0" />
    <path
       id="path940"
       d="m -6.1728638,2.9017057 c -1.2367697,0 -2.2499917,1.0116717 -2.2499917,2.2484416 v 0.661975 c -3.01e-5,1.3225531 0.7062021,2.5457629 1.8515665,3.2070395 1.1453385,0.6612615 2.5598618,0.6612615 3.7052002,0 1.1453646,-0.6612766 1.8515968,-1.8844864 1.8515666,-3.2070395 v -0.661975 c 0,-1.2367699 -1.0116717,-2.2484416 -2.2484416,-2.2484416 -0.5754582,0 -1.0561841,0.2676644 -1.4546916,0.6252848 C -5.1162872,3.1688034 -5.5968939,2.9017057 -6.1728638,2.9017057 Z"
       style="color:#000000;font-style:normal;font-variant:normal;font-weight:normal;font-stretch:normal;font-size:medium;line-height:normal;font-family:sans-serif;font-variant-ligatures:normal;font-variant-position:normal;font-variant-caps:normal;font-variant-numeric:normal;font-variant-alternates:normal;font-feature-settings:normal;text-indent:0;text-align:start;text-decoration:none;text-decoration-line:none;text-decoration-style:solid;text-decoration-color:#000000;letter-spacing:normal;word-spacing:normal;text-transform:none;writing-mode:lr-tb;direction:ltr;text-orientation:mixed;dominant-baseline:auto;baseline-shift:baseline;text-anchor:start;white-space:normal;shape-padding:0;clip-rule:nonzero;display:inline;overflow:visible;visibility:visible;opacity:1;isolation:auto;mix-blend-mode:normal;color-interpolation:sRGB;color-interpolation-filters:linearRGB;solid-color:#000000;solid-opacity:1;vector-effect:none;fill:#353d4b;fill-opacity:1;fill-rule:nonzero;stroke:none;stroke-width:1.05833328;stroke-linecap:round;stroke-linejoin:round;stroke-miterlimit:4;stroke-dasharray:none;stroke-dashoffset:0;stroke-opacity:1;color-rendering:auto;image-rendering:auto;shape-rendering:auto;text-rendering:auto;enable-background:accumulate"
       inkscape:connector-curvature="0" />
    <path
       inkscape:connector-curvature="0"
       id="rect837"
       d="m -6.1738972,3.6949389 c -0.9527646,0 -1.7197917,0.7670271 -1.7197917,1.7197917 v 0.6614583 a 3.175,3.175 0 0 0 1.5875,2.7497029 3.175,3.175 0 0 0 3.175,0 3.175,3.175 0 0 0 1.5875,-2.7497029 V 5.4147306 c 0,-0.9527646 -0.7670271,-1.7197917 -1.7197916,-1.7197917 -0.615242,0 -1.1513873,0.3209286 -1.4552084,0.8040852 -0.303821,-0.4831566 -0.8399663,-0.8040852 -1.4552083,-0.8040852 z"
       style="fill:#ececff;fill-opacity:1;stroke:none;stroke-width:0.52916664;stroke-linecap:round;stroke-linejoin:round;stroke-miterlimit:4;stroke-dasharray:none;stroke-opacity:1" />
    <path
       id="rect842"
       d="m -6.3061891,5.0178553 h 2e-7 c 0.2931584,0 0.5291667,0.2360084 0.5291667,0.5291667 0,0.2931583 -0.2360083,0.5291667 -0.5291667,0.5291667 h -2e-7 c -0.2931583,0 -0.5291666,-0.2360084 -0.5291666,-0.5291667 0,-0.2931583 0.2360083,-0.5291667 0.5291666,-0.5291667 z"
       style="fill:#242428;fill-opacity:1;stroke:none;stroke-width:0.52916664;stroke-linecap:round;stroke-linejoin:round;stroke-miterlimit:4;stroke-dasharray:none;stroke-opacity:1"
       inkscape:connector-curvature="0" />
    <path
       id="rect842-3"
       d="m -3.1311889,5.0178553 h 3e-7 c 0.2931583,0 0.5291667,0.2360084 0.5291667,0.5291667 0,0.2931586 -0.2360084,0.5291669 -0.5291667,0.5291669 h -3e-7 c -0.2931583,0 -0.5291666,-0.2360083 -0.5291666,-0.5291669 0,-0.2931583 0.2360083,-0.5291667 0.5291666,-0.5291667 z"
       style="fill:#242428;fill-opacity:1;stroke:none;stroke-width:0.52916664;stroke-linecap:round;stroke-linejoin:round;stroke-miterlimit:4;stroke-dasharray:none;stroke-opacity:1"
       inkscape:connector-curvature="0" />
    <path
       inkscape:connector-curvature="0"
       id="path927"
       d="m -4.7217895,6.6058723 a 0.26460982,0.26460982 0 0 0 -0.144694,0.042891 l -0.7927166,0.5296838 a 0.26460982,0.26460982 0 0 0 0,0.4413165 l 0.7927166,0.5291669 a 0.26460982,0.26460982 0 0 0 0.2950726,0 l 0.7932332,-0.5291666 a 0.26460982,0.26460982 0 0 0 0,-0.4413166 L -4.5714109,6.6487637 a 0.26460982,0.26460982 0 0 0 -0.1503786,-0.042891 z"
       style="color:#000000;font-style:normal;font-variant:normal;font-weight:normal;font-stretch:normal;font-size:medium;line-height:normal;font-family:sans-serif;font-variant-ligatures:normal;font-variant-position:normal;font-variant-caps:normal;font-variant-numeric:normal;font-variant-alternates:normal;font-feature-settings:normal;text-indent:0;text-align:start;text-decoration:none;text-decoration-line:none;text-decoration-style:solid;text-decoration-color:#000000;letter-spacing:normal;word-spacing:normal;text-transform:none;writing-mode:lr-tb;direction:ltr;text-orientation:mixed;dominant-baseline:auto;baseline-shift:baseline;text-anchor:start;white-space:normal;shape-padding:0;clip-rule:nonzero;display:inline;overflow:visible;visibility:visible;opacity:1;isolation:auto;mix-blend-mode:normal;color-interpolation:sRGB;color-interpolation-filters:linearRGB;solid-color:#000000;solid-opacity:1;vector-effect:none;fill:#e69318;fill-opacity:1;fill-rule:nonzero;stroke:none;stroke-width:0.52916676;stroke-linecap:round;stroke-linejoin:round;stroke-miterlimit:4;stroke-dasharray:none;stroke-dashoffset:0;stroke-opacity:1;color-rendering:auto;image-rendering:auto;shape-rendering:auto;text-rendering:auto;enable-background:accumulate" />
    <path
       id="path906"
       d="M -6.0416057,5.547022 A 0.26458332,0.26458332 0 0 1 -6.3061891,5.8116053 0.26458332,0.26458332 0 0 1 -6.5707723,5.547022 0.26458332,0.26458332 0 0 1 -6.3061891,5.2824387 0.26458332,0.26458332 0 0 1 -6.0416057,5.547022 Z"
       style="fill:#353d4b;fill-opacity:1;stroke:none;stroke-width:1.05833328;stroke-linecap:round;stroke-linejoin:round;stroke-miterlimit:4;stroke-dasharray:none;stroke-opacity:1"
       inkscape:connector-curvature="0" />
    <path
       id="path908"
       d="M -2.8666058,5.547022 A 0.26458332,0.26458332 0 0 1 -3.1311891,5.8116053 0.26458332,0.26458332 0 0 1 -3.3957725,5.547022 0.26458332,0.26458332 0 0 1 -3.1311891,5.2824387 0.26458332,0.26458332 0 0 1 -2.8666058,5.547022 Z"
       style="fill:#353d4b;fill-opacity:1;stroke:none;stroke-width:1.05833328;stroke-linecap:round;stroke-linejoin:round;stroke-miterlimit:4;stroke-dasharray:none;stroke-opacity:1"
       inkscape:connector-curvature="0" />
    <path
       inkscape:connector-curvature="0"
       id="path904"
       d="m -4.7186889,6.8699389 0.79375,0.5291667 -0.79375,0.5291667 -0.79375,-0.5291667 z"
       style="fill:#ffd84d;fill-opacity:1;stroke:none;stroke-width:0.52916682;stroke-linecap:round;stroke-linejoin:round;stroke-miterlimit:4;stroke-dasharray:none;stroke-opacity:1" />
  </g>
</svg>
