<svg height="32" viewBox="0 0 8.4666665 8.4666666" width="32" xmlns="http://www.w3.org/2000/svg"><g transform="translate(2.060498 .821687)"><path d="m-.73758165-.55710409h5.82083325c.5863167 0 1.0583333.47201666 1.0583333 1.05833332v5.82083327c0 .5863166-.4720166 1.0583333-1.0583333 1.0583333h-5.82083325c-.58631665 0-1.05833335-.4720167-1.05833335-1.0583333v-5.82083327c0-.58631666.4720167-1.05833332 1.05833335-1.05833332z" fill="#2381cc"/><path d="m-.73758165-.29252076h5.82083325c.4397375 0 .79375.35401249.79375.79374999v5.82083327c0 .4397375-.3540125.79375-.79375.79375h-5.82083325c-.43973745 0-.79374995-.3540125-.79374995-.79375v-5.82083327c0-.4397375.3540125-.79374999.79374995-.79374999z" fill="#6fb8f1"/></g><path d="m3.1750014 2.1166666c-.724507 0-1.3085889.5768948-1.3218832 1.2981119-.0007408.00826-.00109.016536-.00103.024792 0 .051379.00366.1015868.0093.1514104.044324.5607077.3260942 1.0884535.7100342 1.5683812.4183753.5229702.9628119.9966378 1.5032676 1.4019795.094035.070445.2232583.070445.3172931 0 .5404555-.4053422 1.084892-.8790098 1.5032673-1.40198.3839401-.4799277.6657105-1.0076735.7100343-1.5683812.00564-.04981.0093-.1000177.0093-.1513972-.0000778-.00881-.0005821-.017595-.00156-.026353-.014114-.7204731-.5973814-1.296561-1.3213566-1.296561-.4357901 0-.8175804.2116323-1.0583333.5348499-.2407518-.3232176-.6225421-.5348499-1.0583323-.5348499z" fill="#ecf6fd" opacity=".99"/></svg>