<?xml version="1.0" encoding="UTF-8" standalone="no"?>
<!-- Created with Inkscape (http://www.inkscape.org/) -->

<svg
   xmlns:dc="http://purl.org/dc/elements/1.1/"
   xmlns:cc="http://creativecommons.org/ns#"
   xmlns:rdf="http://www.w3.org/1999/02/22-rdf-syntax-ns#"
   xmlns:svg="http://www.w3.org/2000/svg"
   xmlns="http://www.w3.org/2000/svg"
   xmlns:sodipodi="http://sodipodi.sourceforge.net/DTD/sodipodi-0.dtd"
   xmlns:inkscape="http://www.inkscape.org/namespaces/inkscape"
   width="32"
   height="32"
   viewBox="0 0 32 32"
   version="1.1"
   id="svg8"
   inkscape:version="0.92.4 5da689c313, 2019-01-14"
   sodipodi:docname="preferences-system-windows-move.svg">
  <title
     id="title7895">Antu icon Theme</title>
  <defs
     id="defs2">
    <style
       type="text/css"
       id="current-color-scheme">
      .ColorScheme-Text {
        color:#122036;
      }
      </style>
    <style
       id="current-color-scheme-1"
       type="text/css">
      .ColorScheme-Text {
        color:#122036;
      }
      </style>
    <style
       id="current-color-scheme-6"
       type="text/css">
      .ColorScheme-Text {
        color:#36404d;
      }
      </style>
    <style
       id="current-color-scheme-5"
       type="text/css">
      .ColorScheme-Text {
        color:#36404d;
      }
      </style>
    <style
       id="current-color-scheme-60"
       type="text/css">
      .ColorScheme-Text {
        color:#36404d;
      }
      </style>
    <style
       id="current-color-scheme-53"
       type="text/css">
      .ColorScheme-Text {
        color:#122036;
      }
      </style>
    <style
       type="text/css"
       id="current-color-scheme-1-5">
      .ColorScheme-Text {
        color:#122036;
      }
      </style>
  </defs>
  <sodipodi:namedview
     id="base"
     pagecolor="#ffffff"
     bordercolor="#666666"
     borderopacity="1.0"
     inkscape:pageopacity="0.0"
     inkscape:pageshadow="2"
     inkscape:zoom="32"
     inkscape:cx="12.379257"
     inkscape:cy="14.770027"
     inkscape:document-units="px"
     inkscape:current-layer="g871"
     showgrid="true"
     units="px"
     inkscape:window-width="1920"
     inkscape:window-height="1003"
     inkscape:window-x="0"
     inkscape:window-y="0"
     inkscape:window-maximized="1"
     objecttolerance="10"
     gridtolerance="10"
     guidetolerance="10">
    <inkscape:grid
       type="xygrid"
       id="grid7897"
       empspacing="4" />
  </sodipodi:namedview>
  <metadata
     id="metadata5">
    <rdf:RDF>
      <cc:Work
         rdf:about="">
        <dc:format>image/svg+xml</dc:format>
        <dc:type
           rdf:resource="http://purl.org/dc/dcmitype/StillImage" />
        <dc:title>Antu icon Theme</dc:title>
      </cc:Work>
    </rdf:RDF>
  </metadata>
  <g
     inkscape:label="Capa 1"
     inkscape:groupmode="layer"
     id="layer1"
     transform="translate(0,-282.64999)">
    <g
       id="g2924"
       transform="translate(26,-5)">
      <path
         inkscape:connector-curvature="0"
         style="fill:#a3b7cc;fill-opacity:1;stroke-width:1.00000012"
         d="m -25,289.64999 c -0.55401,0 -1,0.446 -1,1 v 26 c 0,0.554 0.44599,1 1,1 H 5 c 0.55401,0 1,-0.446 1,-1 v -26 c 0,-0.554 -0.44599,-1 -1,-1 h -14 -3 z"
         id="path12329" />
      <path
         style="fill:#f1f1f1;fill-opacity:1;stroke-width:1.00000012"
         d="m -25,296.64999 v 20 H 5 v -20 z"
         id="path13-5-2-9-4-2-6-6"
         inkscape:connector-curvature="0"
         sodipodi:nodetypes="ccccc" />
      <path
         inkscape:connector-curvature="0"
         style="opacity:1;fill:#36404d;fill-opacity:1;stroke:none;stroke-width:0.80800003;stroke-linecap:round;stroke-linejoin:round;stroke-miterlimit:4;stroke-dasharray:none;stroke-opacity:1;paint-order:stroke markers fill"
         d="m -25,289.64999 c -0.554,0 -1,0.446 -1,1 v 5 1 h 1 30 1 v -1 -5 c 0,-0.554 -0.446,-1 -1,-1 z"
         id="rect1191" />
      <path
         inkscape:connector-curvature="0"
         style="fill:#4b6477;fill-opacity:1;stroke:none;stroke-width:0.40000001;stroke-linecap:round;stroke-linejoin:round;stroke-miterlimit:4;stroke-dasharray:none;stroke-opacity:1"
         d="m -25,290.64999 v 5 H 5 v -5 z"
         id="rect4537-2"
         sodipodi:nodetypes="ccccc" />
    </g>
    <path
       sodipodi:nodetypes="ccccccc"
       style="fill:#f1f1f1;fill-opacity:1;stroke:none;stroke-width:0.50000072px;stroke-linecap:butt;stroke-linejoin:miter;stroke-opacity:1"
       d="m 14.999999,306.64999 4.000005,-5 -2.000004,-1 v -4 l -4.000005,5 2.000005,1 z"
       id="path4614-7-4"
       inkscape:connector-curvature="0" />
    <g
       transform="matrix(3.7795276,0,0,3.7795276,39.525423,284.08433)"
       id="g4208">
      <path
         style="fill:#f1f1f1;fill-opacity:1;stroke:none;stroke-width:0.52916664;stroke-linecap:round;stroke-linejoin:round;stroke-miterlimit:4;stroke-dasharray:none;stroke-opacity:1"
         d="m -5.430685,2.5292479 c -0.1465791,0 -0.2645833,0.1180041 -0.2645833,0.2645833 v 1.5875 c -0.093376,0 -0.1815068,0.018706 -0.2645833,0.048059 V 3.3229979 c 0,-0.1465792 -0.1180042,-0.2645834 -0.2645834,-0.2645834 -0.1465791,0 -0.2645833,0.1180042 -0.2645833,0.2645834 V 5.3301112 L -6.8311164,4.9880129 a 0.26460979,0.26460979 0 0 0 -0.1896525,-0.0801 0.26460979,0.26460979 0 0 0 -0.1844847,0.4542367 l 0.7286376,0.7286386 c 0.055134,0.3573225 0.3451538,0.6315896 0.7095175,0.6645593 a 0.26460979,0.26460979 0 0 0 0.1193726,0.00722 h 1.2753743 c 0.4397367,0 0.79375,-0.3540125 0.79375,-0.79375 v -0.79375 -1.5875 c 0,-0.146576 -0.1180042,-0.2645802 -0.2645834,-0.2645802 -0.1465791,0 -0.2645833,0.1180042 -0.2645833,0.2645833 V 4.4293795 C -4.1908448,4.400024 -4.2789757,4.3813206 -4.3723516,4.3813206 V 3.058404 c 0,-0.1465792 -0.1180042,-0.2645834 -0.2645834,-0.2645834 -0.1465791,0 -0.2645833,0.1180042 -0.2645833,0.2645834 v 1.3229166 h -0.2645833 v -1.5875 c 0,-0.1465791 -0.1180042,-0.2645833 -0.2645834,-0.2645833 z m -0.396875,2.38125 c 0.07329,0 0.1322917,0.059002 0.1322917,0.1322916 v 0.5291667 c 0,0.07329 -0.059002,0.1322917 -0.1322917,0.1322917 -0.07329,0 -0.1322916,-0.059002 -0.1322916,-0.1322917 V 5.0427895 c 0,-0.073289 0.059002,-0.1322916 0.1322916,-0.1322916 z m 0.5291667,0 c 0.07329,0 0.1322917,0.059002 0.1322917,0.1322916 v 0.5291667 c 0,0.07329 -0.059002,0.1322917 -0.1322917,0.1322917 -0.07329,0 -0.1322917,-0.059002 -0.1322917,-0.1322917 V 5.0427895 c 0,-0.073289 0.059002,-0.1322916 0.1322917,-0.1322916 z m 0.5291667,0 c 0.073289,0 0.1322916,0.059002 0.1322916,0.1322916 v 0.5291667 c 0,0.07329 -0.059002,0.1322917 -0.1322916,0.1322917 -0.07329,0 -0.1322917,-0.059002 -0.1322917,-0.1322917 V 5.0427895 c 0,-0.073289 0.059002,-0.1322916 0.1322917,-0.1322916 z m 0.5291666,0 c 0.07329,0 0.1322917,0.059002 0.1322917,0.1322916 v 0.5291667 c 0,0.07329 -0.059002,0.1322917 -0.1322917,0.1322917 -0.07329,0 -0.1322916,-0.059002 -0.1322916,-0.1322917 V 5.0427895 c 0,-0.073289 0.059002,-0.1322916 0.1322916,-0.1322916 z"
         id="rect3266-4"
         inkscape:connector-curvature="0" />
      <g
         id="g871"
         transform="translate(-6.3495379)">
        <path
           style="color:#000000;font-style:normal;font-variant:normal;font-weight:normal;font-stretch:normal;font-size:medium;line-height:normal;font-family:sans-serif;font-variant-ligatures:normal;font-variant-position:normal;font-variant-caps:normal;font-variant-numeric:normal;font-variant-alternates:normal;font-feature-settings:normal;text-indent:0;text-align:start;text-decoration:none;text-decoration-line:none;text-decoration-style:solid;text-decoration-color:#000000;letter-spacing:normal;word-spacing:normal;text-transform:none;writing-mode:lr-tb;direction:ltr;text-orientation:mixed;dominant-baseline:auto;baseline-shift:baseline;text-anchor:start;white-space:normal;shape-padding:0;clip-rule:nonzero;display:inline;overflow:visible;visibility:visible;opacity:1;isolation:auto;mix-blend-mode:normal;color-interpolation:sRGB;color-interpolation-filters:linearRGB;solid-color:#000000;solid-opacity:1;vector-effect:none;fill:#36404d;fill-opacity:1;fill-rule:nonzero;stroke:none;stroke-width:1.99999988;stroke-linecap:round;stroke-linejoin:round;stroke-miterlimit:4;stroke-dasharray:none;stroke-dashoffset:0;stroke-opacity:1;color-rendering:auto;image-rendering:auto;shape-rendering:auto;text-rendering:auto;enable-background:accumulate"
           d="M 11.978516 3.9980469 C 11.431843 4.0080626 10.993904 4.4551927 10.996094 5.0019531 L 10.996094 18 C 10.997383 18.651897 11.612511 19.13004 12.244141 18.96875 L 15.691406 18.103516 L 18.289062 20.708984 C 18.919196 21.348752 20.008121 20.899912 20.001953 20.001953 L 20.001953 15.859375 L 22.623047 13.785156 C 23.126066 13.384765 23.126066 12.621094 22.623047 12.220703 L 12.626953 4.21875 C 12.443317 4.070619 12.214394 3.9929286 11.978516 3.9980469 z M 23 14 L 23 15 L 28 15 L 28 14 L 23 14 z M 21 16 L 21 17 L 26 17 L 26 16 L 21 16 z M 21 18 L 21 19 L 24 19 L 24 18 L 21 18 z M 21 20 L 21 21 L 27 21 L 27 20 L 21 20 z "
           transform="matrix(0.26458333,0,0,0.26458333,-4.1082302,-0.37950245)"
           id="path835" />
        <path
           sodipodi:nodetypes="ccccccc"
           inkscape:connector-curvature="0"
           id="path835-6"
           d="m -0.93323019,0.9434142 v 3.4395833 l 1.05833347,-0.2645833 0.7937501,0.79375 V 3.6884663 L 1.7126035,3.0600808 Z"
           style="fill:#f1f1f1;fill-opacity:1;stroke:none;stroke-width:0.52916664;stroke-linecap:round;stroke-linejoin:round;stroke-miterlimit:4;stroke-dasharray:none;stroke-opacity:1" />
      </g>
    </g>
  </g>
</svg>
