<?xml version="1.0" encoding="UTF-8" standalone="no"?>
<svg
   xmlns:dc="http://purl.org/dc/elements/1.1/"
   xmlns:cc="http://creativecommons.org/ns#"
   xmlns:rdf="http://www.w3.org/1999/02/22-rdf-syntax-ns#"
   xmlns:svg="http://www.w3.org/2000/svg"
   xmlns="http://www.w3.org/2000/svg"
   xmlns:sodipodi="http://sodipodi.sourceforge.net/DTD/sodipodi-0.dtd"
   xmlns:inkscape="http://www.inkscape.org/namespaces/inkscape"
   height="32"
   viewBox="0 0 8.4666664 8.4666669"
   width="32"
   version="1.1"
   id="svg6"
   sodipodi:docname="preferences-system-network-server-slp.svg"
   inkscape:version="0.92.4 5da689c313, 2019-01-14">
  <metadata
     id="metadata10">
    <rdf:RDF>
      <cc:Work
         rdf:about="">
        <dc:format>image/svg+xml</dc:format>
        <dc:type
           rdf:resource="http://purl.org/dc/dcmitype/StillImage" />
        <dc:title></dc:title>
      </cc:Work>
    </rdf:RDF>
  </metadata>
  <sodipodi:namedview
     pagecolor="#ffffff"
     bordercolor="#666666"
     borderopacity="1"
     objecttolerance="10"
     gridtolerance="10"
     guidetolerance="10"
     inkscape:pageopacity="0"
     inkscape:pageshadow="2"
     inkscape:window-width="1870"
     inkscape:window-height="1141"
     id="namedview8"
     showgrid="true"
     inkscape:zoom="10.429825"
     inkscape:cx="24.017498"
     inkscape:cy="9.7020716"
     inkscape:window-x="50"
     inkscape:window-y="30"
     inkscape:window-maximized="1"
     inkscape:current-layer="svg6">
    <inkscape:grid
       type="xygrid"
       id="grid2211" />
  </sodipodi:namedview>
  <defs
     id="defs2">
    <style
       type="text/css"
       id="current-color-scheme">
      .ColorScheme-Text {
        color:#36404d;
      }
      </style>
  </defs>
  <g
     id="g2209"
     transform="translate(9.119156,-1.4103584)">
    <path
       id="rect4496-6-6"
       d="m -4.8858227,1.6749523 c 2.1986875,0 3.96874999,1.7700202 3.96874999,3.9687288 0,2.1986716 -1.77006249,3.96875 -3.96874999,3.96875 -2.1986873,0 -3.96875,-1.7700784 -3.96875,-3.96875 0,-2.1987086 1.7700627,-3.9687288 3.96875,-3.9687288 z"
       style="fill:#4972c5;fill-opacity:1;stroke:none;stroke-width:0.38884729;stroke-linecap:round;stroke-linejoin:round;stroke-miterlimit:4;stroke-dasharray:none;stroke-opacity:1"
       inkscape:connector-curvature="0" />
    <path
       id="rect4570-9-6-0-5"
       d="m -4.8858224,1.9395224 c 2.052108,0 3.7041664,1.6520398 3.7041664,3.7041587 0,2.0521216 -1.6520584,3.7041905 -3.7041664,3.7041905 -2.0521087,0 -3.704167,-1.6520689 -3.704167,-3.7041905 0,-2.0521189 1.6520583,-3.7041587 3.704167,-3.7041587 z"
       style="fill:#5ca5ff;fill-opacity:1;stroke:none;stroke-width:0.37100008;stroke-linecap:round;stroke-linejoin:round;stroke-miterlimit:4;stroke-dasharray:none;stroke-opacity:1"
       inkscape:connector-curvature="0" />
    <path
       inkscape:connector-curvature="0"
       style="color:#000000;font-style:normal;font-variant:normal;font-weight:normal;font-stretch:normal;font-size:medium;line-height:normal;font-family:sans-serif;font-variant-ligatures:normal;font-variant-position:normal;font-variant-caps:normal;font-variant-numeric:normal;font-variant-alternates:normal;font-feature-settings:normal;text-indent:0;text-align:start;text-decoration:none;text-decoration-line:none;text-decoration-style:solid;text-decoration-color:#000000;letter-spacing:normal;word-spacing:normal;text-transform:none;writing-mode:lr-tb;direction:ltr;text-orientation:mixed;dominant-baseline:auto;baseline-shift:baseline;text-anchor:start;white-space:normal;shape-padding:0;clip-rule:nonzero;display:inline;overflow:visible;visibility:visible;opacity:1;isolation:auto;mix-blend-mode:normal;color-interpolation:sRGB;color-interpolation-filters:linearRGB;solid-color:#000000;solid-opacity:1;vector-effect:none;fill:#e6f9ff;fill-opacity:1;fill-rule:nonzero;stroke:none;stroke-width:0.26458332;stroke-linecap:round;stroke-linejoin:miter;stroke-miterlimit:4;stroke-dasharray:none;stroke-dashoffset:0;stroke-opacity:1;color-rendering:auto;image-rendering:auto;shape-rendering:auto;text-rendering:auto;enable-background:accumulate"
       d="m -4.3628573,2.0702665 a 0.13230489,0.13230489 0 0 0 -0.07028,0.025838 c -0.191113,0.1337786 -0.3688022,0.2736342 -0.5358844,0.4180624 -0.054564,-0.02816 -0.1155237,-0.045475 -0.1813843,-0.045475 -0.2198688,0 -0.396875,0.1770062 -0.396875,0.3968749 0,0.062772 0.015608,0.1214869 0.041341,0.1741496 -0.4316595,0.4833294 -0.7428739,1.0077135 -0.9312093,1.5518435 -0.012384,-0.00116 -0.023458,-0.0062 -0.036174,-0.0062 -0.1147187,0 -0.2170604,0.048769 -0.289388,0.1260903 C -7.222723,4.5497172 -7.6381786,4.2912523 -7.9662548,3.9631741 a 0.13264299,0.13264299 0 1 0 -0.1875855,0.1875855 c 0.353041,0.3530415 0.7957628,0.6310802 1.2862264,0.8061524 -5.45e-4,0.00855 -0.00259,0.016642 -0.00259,0.025321 0,0.1694561 0.1058813,0.3123663 0.2547648,0.3694864 -0.00793,0.06064 -0.017803,0.1210347 -0.022737,0.181901 -0.028619,0.3529669 -0.00306,0.708156 0.07028,1.0604005 -0.4797485,0.2325012 -0.9297944,0.5738692 -1.3280798,1.0252601 a 0.13284082,0.13284082 0 1 0 0.1989553,0.1757005 c 0.362851,-0.4112324 0.7663856,-0.7203295 1.1937256,-0.9363768 0.1050314,0.3721198 0.2646011,0.7395964 0.4842082,1.0955403 -0.035596,0.059542 -0.057361,0.1283938 -0.057361,0.2030884 0,0.2198687 0.1770062,0.396875 0.396875,0.396875 0.029389,0 0.057729,-0.00381 0.085266,-0.00982 0.1830076,0.2193052 0.3893069,0.4325213 0.6201172,0.6376871 a 0.13230489,0.13230489 0 1 0 0.1757,-0.1974027 C -5.0106883,8.7959526 -5.2001932,8.601277 -5.3689974,8.402178 c 0.053259,-0.067535 0.0863,-0.1518735 0.0863,-0.244946 0,-0.2198687 -0.1770063,-0.396875 -0.396875,-0.396875 -0.048096,0 -0.093319,0.00979 -0.1359091,0.025321 -0.2053582,-0.3383987 -0.3523551,-0.6857254 -0.4464846,-1.0361132 0.4105283,-0.1695759 0.8392961,-0.258899 1.2758912,-0.258899 0.00532,0 0.010697,0.00103 0.01602,0.00103 0.066728,0.124801 0.1968704,0.2103255 0.348815,0.2103255 0.1225373,0 0.2306524,-0.055888 0.3033406,-0.1426268 0.2707936,0.052937 0.5416476,0.1397217 0.8097697,0.2568321 -0.2661862,0.6726526 -0.2773997,1.4472853 0.096635,2.0706744 A 0.13230952,0.13230952 0 0 0 -3.1851509,8.7499619 C -3.5045662,8.2176073 -3.501641,7.5344825 -3.2683499,6.9309515 -2.8548967,7.1431434 -2.4504808,7.4310881 -2.0679062,7.802733 A 0.13258861,0.13258861 0 1 0 -1.8823881,7.6135972 C -2.2856321,7.2218736 -2.7162566,6.91581 -3.1593125,6.6896227 c 0.0042,-0.00824 0.00707,-0.017124 0.011369,-0.025321 0.1102608,-0.210496 0.2510879,-0.4006148 0.4118614,-0.5663733 0.064638,0.046474 0.1435211,0.074489 0.2294435,0.074931 0.2628686,0.2878508 0.5951077,0.5192797 0.9916705,0.6537066 a 0.13230488,0.13230488 0 1 0 0.085783,-0.2501135 c -0.3166462,-0.1073373 -0.5845921,-0.287758 -0.8056367,-0.5100476 0.077943,-0.072377 0.1271241,-0.175177 0.1271241,-0.2904215 0,-0.039245 -0.00757,-0.076387 -0.018087,-0.1121378 0.2108422,-0.09451 0.4378301,-0.1519288 0.6790282,-0.1519288 a 0.13281501,0.13281501 0 1 0 0,-0.2656168 c -0.3018877,0 -0.5837594,0.073824 -0.8402587,0.1979207 -0.062449,-0.04092 -0.1370056,-0.065112 -0.2175575,-0.065112 -0.065286,0 -0.1256176,0.017251 -0.1798341,0.044958 -0.2759909,-0.5830773 -0.3161057,-1.2659923 -0.07338,-1.8205601 0.1275863,-0.1649176 0.2507879,-0.342532 0.3674194,-0.5369182 a 0.13230489,0.13230489 0 0 0 0.0093,-0.01757 0.13230488,0.13230488 0 0 0 0.00259,-0.0062 0.13230489,0.13230489 0 0 0 -0.131258,-0.179834 0.13230489,0.13230489 0 0 0 -0.00362,5.159e-4 0.13230489,0.13230489 0 0 0 -0.1023194,0.061495 c -0.1574563,0.1620414 -0.2809535,0.3451219 -0.3725744,0.5420851 -0.7147746,0.9147323 -1.5717981,1.3352012 -2.406055,1.4159341 -0.2365303,0.022886 -0.4710178,0.016756 -0.7002153,-0.012401 -0.018828,-0.06418 -0.056333,-0.1185931 -0.1018026,-0.1648478 0.17356,-0.5157507 0.4652301,-1.0161126 0.8790162,-1.4810465 0.05088,0.023653 0.1069022,0.037723 0.1669039,0.037723 0.2198687,0 0.396875,-0.1770063 0.396875,-0.3968751 0,-0.056203 -0.011666,-0.1092526 -0.032556,-0.1576131 0.1577875,-0.1357363 0.3243231,-0.2685758 0.5053952,-0.3953244 a 0.13230489,0.13230489 0 0 0 -0.08217,-0.2423631 z m 1.197343,1.9962604 c -0.077012,0.5278196 0.026487,1.092224 0.2873211,1.5812989 -0.013835,0.040463 -0.023254,0.082893 -0.023254,0.1281576 0,0.034231 0.00536,0.067055 0.013435,0.098702 -0.1963005,0.1939592 -0.3651872,0.4196763 -0.4945422,0.6666259 -0.00579,0.01106 -0.00985,0.022966 -0.015502,0.034106 -0.2726507,-0.11973 -0.5489165,-0.2110078 -0.826307,-0.2687172 2.2e-6,-5.291e-4 0,-0.00103 0,-0.00156 0,-0.2198608 -0.1770096,-0.396875 -0.396875,-0.396875 -0.1929085,0 -0.352294,0.1364073 -0.3886067,0.3183268 -0.4483,0.00297 -0.8891998,0.094541 -1.3115478,0.2630332 -0.059472,-0.3115478 -0.078402,-0.6243327 -0.053227,-0.9348289 0.00531,-0.065458 0.015766,-0.1305832 0.024805,-0.1958536 0.1100765,-0.035834 0.1988174,-0.117662 0.2428792,-0.2237589 0.2415948,0.029025 0.4887966,0.035523 0.7384561,0.011369 C -4.61222,5.0733707 -3.84029,4.7368398 -3.165513,4.066515 Z"
       id="path4538-6" />
    <path
       inkscape:connector-curvature="0"
       style="opacity:1;vector-effect:none;fill:#36404d;fill-opacity:1;stroke:none;stroke-width:0.59164834;stroke-linecap:round;stroke-linejoin:round;stroke-miterlimit:4;stroke-dasharray:none;stroke-dashoffset:0;stroke-opacity:1"
       d="m -3.0337394,5.114525 c 1.3192125,0 2.38124999,1.0620375 2.38124999,2.38125 0,1.3192125 -1.06203749,2.38125 -2.38124999,2.38125 -1.3192125,0 -2.38125,-1.0620375 -2.38125,-2.38125 0,-1.3192125 1.0620375,-2.38125 2.38125,-2.38125 z"
       id="rect843" />
    <path
       inkscape:connector-curvature="0"
       style="opacity:1;vector-effect:none;fill:#4b6477;fill-opacity:1;stroke:none;stroke-width:0.52590966;stroke-linecap:round;stroke-linejoin:round;stroke-miterlimit:4;stroke-dasharray:none;stroke-dashoffset:0;stroke-opacity:1"
       d="m -3.0337394,5.3791084 c 1.1726334,0 2.11666669,0.9440333 2.11666669,2.1166666 0,1.1726334 -0.94403329,2.1166667 -2.11666669,2.1166667 -1.1726333,0 -2.1166666,-0.9440333 -2.1166666,-2.1166667 0,-1.1726333 0.9440333,-2.1166666 2.1166666,-2.1166666 z"
       id="rect843-6" />
    <path
       id="path1566"
       d="m -3.0337394,5.908275 c -0.1461254,0 -0.2645833,0.118458 -0.2645833,0.2645834 h 0.5291667 c 0,-0.1461254 -0.118458,-0.2645834 -0.2645834,-0.2645834 z m 0,0.5291667 c -0.7306267,0 -1.3229166,0.5922899 -1.3229166,1.3229167 h 1.3229166 1.3229167 c 0,-0.7306268 -0.5922899,-1.3229167 -1.3229167,-1.3229167 z m -1.3229166,1.5875 c -0.1465792,0 -0.2645834,0.1180042 -0.2645834,0.2645833 0,0.1465792 0.1180042,0.2645834 0.2645834,0.2645834 h 2.6458333 c 0.1465792,0 0.2645833,-0.1180042 0.2645833,-0.2645834 0,-0.1465791 -0.1180041,-0.2645833 -0.2645833,-0.2645833 z"
       style="fill:#e1ebf2;fill-opacity:1;stroke-width:0.26458332"
       inkscape:connector-curvature="0" />
  </g>
</svg>
