<?xml version="1.0" encoding="UTF-8" standalone="no"?>
<svg
   height="32"
   viewBox="0 0 8.4666664 8.4666669"
   width="32"
   version="1.1"
   id="svg6"
   sodipodi:docname="preferences-desktop-gestures-screenedges.svg"
   inkscape:version="1.2 (dc2aedaf03, 2022-05-15)"
   xmlns:inkscape="http://www.inkscape.org/namespaces/inkscape"
   xmlns:sodipodi="http://sodipodi.sourceforge.net/DTD/sodipodi-0.dtd"
   xmlns="http://www.w3.org/2000/svg"
   xmlns:svg="http://www.w3.org/2000/svg"
   xmlns:rdf="http://www.w3.org/1999/02/22-rdf-syntax-ns#"
   xmlns:cc="http://creativecommons.org/ns#"
   xmlns:dc="http://purl.org/dc/elements/1.1/">
  <metadata
     id="metadata10">
    <rdf:RDF>
      <cc:Work
         rdf:about="">
        <dc:format>image/svg+xml</dc:format>
        <dc:type
           rdf:resource="http://purl.org/dc/dcmitype/StillImage" />
        <dc:title />
      </cc:Work>
    </rdf:RDF>
  </metadata>
  <sodipodi:namedview
     pagecolor="#ffffff"
     bordercolor="#666666"
     borderopacity="1"
     objecttolerance="10"
     gridtolerance="10"
     guidetolerance="10"
     inkscape:pageopacity="0"
     inkscape:pageshadow="2"
     inkscape:window-width="2160"
     inkscape:window-height="1335"
     id="namedview8"
     showgrid="true"
     inkscape:zoom="5.2149125"
     inkscape:cx="-24.832631"
     inkscape:cy="30.201849"
     inkscape:window-x="0"
     inkscape:window-y="0"
     inkscape:window-maximized="1"
     inkscape:current-layer="svg6"
     inkscape:showpageshadow="2"
     inkscape:pagecheckerboard="0"
     inkscape:deskcolor="#d1d1d1">
    <inkscape:grid
       type="xygrid"
       id="grid396" />
  </sodipodi:namedview>
  <defs
     id="defs2">
    <style
       type="text/css"
       id="current-color-scheme">
      .ColorScheme-Text {
        color:#36404d;
      }
      </style>
  </defs>
  <g
     id="g889"
     transform="translate(4.0539548,1.7220339)">
    <path
       inkscape:connector-curvature="0"
       style="fill:#4a73c6;fill-opacity:1;stroke-width:0.26458341"
       d="m -3.7893715,-1.1928672 c -0.1465818,0 -0.2645833,0.1180042 -0.2645833,0.26458339 V 5.9508828 c 0,0.1465792 0.1180015,0.2645833 0.2645833,0.2645833 h 7.9375 c 0.1465816,0 0.2645833,-0.1180041 0.2645833,-0.2645833 v -6.87916661 c 0,-0.14657919 -0.118002,-0.26458339 -0.2645833,-0.26458339 h -3.70416657 -0.79375 z"
       id="path12329-7-3" />
    <path
       id="path1821"
       style="fill:#5ca5ff;fill-opacity:1;stroke-width:0.264583"
       d="M -3.7893715,-0.9282839 V 1.1883827 1.4529661 3.3050494 4.627966 4.8925494 5.9508827 H 4.1481284 V 3.834216 3.3050494 -0.9282839 H 0.17937844 -0.34978822 -1.4081216 -1.6727049 Z" />
    <path
       inkscape:connector-curvature="0"
       style="fill:#ebf2fa;fill-opacity:1;stroke-width:0.264583"
       d="m -0.87895482,0.65921604 c -0.14657918,0 -0.26458328,0.1180041 -0.26458328,0.2645833 0,0.14657916 0.1180041,0.26458326 0.26458328,0.26458326 0.1465792,0 0.2645833,-0.1180041 0.2645833,-0.26458326 0,-0.1465792 -0.1180041,-0.2645833 -0.2645833,-0.2645833 z m 1.5875,0 -0.5291667,0.52916656 0.79375,0.7937502 -0.79375,0.79375 0.5291667,0.5291666 L 1.5022952,2.5112994 2.0314619,1.9821328 1.5022952,1.4529661 Z M -1.2758298,1.9821328 c -0.2198689,0 -0.3968751,0.1770062 -0.3968751,0.396875 0,0.2198687 0.1770062,0.396875 0.3968751,0.396875 0.2198687,0 0.39687498,-0.1770063 0.39687498,-0.396875 0,-0.2198688 -0.17700628,-0.396875 -0.39687498,-0.396875 z m 0.92604165,1.3229166 c -0.2931584,0 -0.52916669,0.2360084 -0.52916669,0.5291667 0,0.2931583 0.23600829,0.5291667 0.52916669,0.5291667 0.2931583,0 0.5291666,-0.2360084 0.5291666,-0.5291667 0,-0.2931583 -0.2360083,-0.5291667 -0.5291666,-0.5291667 z"
       id="path4783-5-3-5"
       sodipodi:nodetypes="ssssscccccccccssssssssss" />
    <path
       id="rect466-35"
       style="fill:#ecf6fd;stroke-width:1.05833;stroke-linecap:round;stroke-linejoin:round;stroke-miterlimit:1.8;paint-order:fill markers stroke;stop-color:#000000"
       d="m -3.8835452,4.0987994 0.79375,0.79375 0.79375,0.79375 0,0 H -3.3543785 -3.8835452 V 5.1571328 4.0987994 Z"
       transform="scale(-1,1)"
       sodipodi:nodetypes="ccccccccc" />
    <path
       id="rect466-35-9"
       style="fill:#ecf6fd;stroke-width:1.05833;stroke-linecap:round;stroke-linejoin:round;stroke-miterlimit:1.8;paint-order:fill markers stroke;stop-color:#000000"
       d="m -1.9372881,5.6862994 -0.79375,-0.79375 -0.79375,-0.79375 v 0 1.0583333 0.5291667 h 0.5291666 z"
       sodipodi:nodetypes="ccccccccc" />
    <path
       id="rect466-35-1"
       style="fill:#ecf6fd;stroke-width:1.05833;stroke-linecap:round;stroke-linejoin:round;stroke-miterlimit:1.8;paint-order:fill markers stroke;stop-color:#000000"
       d="m 3.8835452,0.9237994 -0.79375,-0.79375 -0.79375,-0.79375 v 0 h 1.0583333 0.5291667 v 0.5291666 z"
       sodipodi:nodetypes="ccccccccc" />
    <path
       id="rect466-35-9-2"
       style="fill:#ecf6fd;stroke-width:1.05833;stroke-linecap:round;stroke-linejoin:round;stroke-miterlimit:1.8;paint-order:fill markers stroke;stop-color:#000000"
       d="m -1.9372881,-0.6637006 -0.79375,0.79375 -0.79375,0.79375 v 0 -1.0583333 -0.5291667 h 0.5291666 z"
       sodipodi:nodetypes="ccccccccc" />
  </g>
</svg>
