<?xml version="1.0" encoding="UTF-8" standalone="no"?>
<!-- Created with Inkscape (http://www.inkscape.org/) -->

<svg
   width="32"
   height="32"
   viewBox="0 0 32 32"
   version="1.1"
   id="svg8"
   inkscape:version="1.2 (dc2aedaf03, 2022-05-15)"
   sodipodi:docname="preferences-system-windows.svg"
   xml:space="preserve"
   xmlns:inkscape="http://www.inkscape.org/namespaces/inkscape"
   xmlns:sodipodi="http://sodipodi.sourceforge.net/DTD/sodipodi-0.dtd"
   xmlns="http://www.w3.org/2000/svg"
   xmlns:svg="http://www.w3.org/2000/svg"
   xmlns:rdf="http://www.w3.org/1999/02/22-rdf-syntax-ns#"
   xmlns:cc="http://creativecommons.org/ns#"
   xmlns:dc="http://purl.org/dc/elements/1.1/"><title
     id="title7895">Antu icon Theme</title><defs
     id="defs2"><style
       id="current-color-scheme"
       type="text/css">
      .ColorScheme-Text {
        color:#122036;
      }
      </style><style
       type="text/css"
       id="current-color-scheme-1">
      .ColorScheme-Text {
        color:#122036;
      }
      </style><style
       type="text/css"
       id="current-color-scheme-6">
      .ColorScheme-Text {
        color:#36404d;
      }
      </style><style
       type="text/css"
       id="current-color-scheme-7">
      .ColorScheme-Text {
        color:#36404d;
      }
      </style></defs><sodipodi:namedview
     id="base"
     pagecolor="#ffffff"
     bordercolor="#666666"
     borderopacity="1.0"
     inkscape:pageopacity="0.0"
     inkscape:pageshadow="2"
     inkscape:zoom="11.2"
     inkscape:cx="48.660714"
     inkscape:cy="34.419643"
     inkscape:document-units="px"
     inkscape:current-layer="g6129"
     showgrid="true"
     units="px"
     inkscape:window-width="2160"
     inkscape:window-height="1335"
     inkscape:window-x="0"
     inkscape:window-y="0"
     inkscape:window-maximized="1"
     objecttolerance="10"
     gridtolerance="10"
     guidetolerance="10"
     inkscape:showpageshadow="2"
     inkscape:pagecheckerboard="0"
     inkscape:deskcolor="#d1d1d1"
     showguides="true"><inkscape:grid
       type="xygrid"
       id="grid7897"
       empspacing="4" /><sodipodi:guide
       position="102,-24"
       orientation="0,-1"
       id="guide4222"
       inkscape:locked="false" /></sodipodi:namedview><metadata
     id="metadata5"><rdf:RDF><cc:Work
         rdf:about=""><dc:format>image/svg+xml</dc:format><dc:type
           rdf:resource="http://purl.org/dc/dcmitype/StillImage" /><dc:title>Antu icon Theme</dc:title></cc:Work></rdf:RDF></metadata><g
     inkscape:label="Capa 1"
     inkscape:groupmode="layer"
     id="layer1"
     transform="translate(0,-282.64999)"><g
       id="g1796"
       transform="translate(26,-7)"><g
         id="g6129"
         transform="matrix(3.7795276,0,0,3.7795276,15,288.63304)"><g
           id="g4234"
           transform="translate(-8.73125)"><path
             inkscape:connector-curvature="0"
             style="opacity:1;fill:#a3b7cc;fill-opacity:1;stroke:none;stroke-width:0.213783;stroke-linecap:round;stroke-linejoin:round;stroke-miterlimit:4;stroke-dasharray:none;stroke-opacity:1;paint-order:stroke markers fill"
             d="M -1.587501,1.8565678 H 5.8208344 C 6.1139922,1.8565678 6.35,2.0925761 6.35,2.3857344 v 5.2916694 c 0,0.2931583 -0.2360078,0.529164 -0.5291656,0.529164 H -1.587501 c -0.2931578,0 -0.5291656,-0.2360057 -0.5291656,-0.529164 V 2.3857344 c 0,-0.2931583 0.2360078,-0.5291666 0.5291656,-0.5291666 z"
             id="rect941-7"
             sodipodi:nodetypes="sssssssss" /><path
             inkscape:connector-curvature="0"
             style="opacity:1;fill:#e6f5fe;fill-opacity:1;stroke:none;stroke-width:0.213783;stroke-linecap:round;stroke-linejoin:round;stroke-miterlimit:4;stroke-dasharray:none;stroke-opacity:1;paint-order:stroke markers fill"
             d="m -1.5875,2.1211511 h 7.4083334 c 0.1465792,0 0.2645833,0.1180042 0.2645833,0.2645833 v 5.2916668 c 0,0.1465791 -0.1180041,0.2645833 -0.2645833,0.2645833 H -1.5875 c -0.1465791,0 -0.2645833,-0.1180042 -0.2645833,-0.2645833 V 2.3857344 c 0,-0.1465791 0.1180042,-0.2645833 0.2645833,-0.2645833 z"
             id="rect943-5"
             sodipodi:nodetypes="sssssssss" /><path
             sodipodi:nodetypes="cccccccccccssccc"
             id="rect5465-6"
             d="M 2.1166666,0.79823468 V 1.3274013 2.9149014 3.444068 H 1.5875 l -0.79374994,-2e-7 H 0.26458336 -1.5875 -2.1166666 V 2.9149012 2.3857345 1.3274011 c 0,-0.2931583 0.2360088,-0.52916663 0.5291666,-0.52916663 h 2.38125006 l 0.79374994,2.1e-7 z"
             style="fill:#a3b7cc;fill-opacity:1;stroke:none;stroke-width:0.529167;stroke-linecap:round;stroke-linejoin:round;stroke-miterlimit:4;stroke-dasharray:none;stroke-opacity:1"
             inkscape:connector-curvature="0" /><path
             sodipodi:nodetypes="ssccccccs"
             inkscape:connector-curvature="0"
             id="path5448"
             d="m -1.5875,1.0628178 c -0.1465786,0 -0.2645833,0.1180042 -0.2645833,0.2645833 V 2.6503178 2.9149012 3.1794845 H -1.5875 l 3.4395833,2e-7 V 1.062818 Z"
             style="opacity:1;fill:#e6f5fe;fill-opacity:1;stroke:none;stroke-width:0.213783;stroke-linecap:round;stroke-linejoin:round;stroke-miterlimit:4;stroke-dasharray:none;stroke-opacity:1;paint-order:stroke markers fill" /><path
             sodipodi:nodetypes="cccccccccccssccc"
             inkscape:connector-curvature="0"
             id="rect5465"
             d="M 2.1166667,0.79823447 V 1.3274011 2.9149012 3.4440678 H 2.6458334 3.4395834 3.9687501 5.8208334 6.35 V 2.9149012 2.3857345 1.3274011 C 6.35,1.0342434 6.1139912,0.79823447 5.8208334,0.79823447 h -2.38125 -0.79375 z"
             style="fill:#36404d;fill-opacity:1;stroke:none;stroke-width:0.529167;stroke-linecap:round;stroke-linejoin:round;stroke-miterlimit:4;stroke-dasharray:none;stroke-opacity:1" /><path
             sodipodi:nodetypes="ccccccssc"
             inkscape:connector-curvature="0"
             id="rect868-3"
             d="M 2.3812501,1.0628178 V 3.1794845 H 5.8208334 6.0854167 V 2.9149012 2.6503178 1.3274011 c 0,-0.1465791 -0.1180047,-0.2645833 -0.2645833,-0.2645833 z"
             style="opacity:1;fill:#4b6477;fill-opacity:1;stroke:none;stroke-width:0.213783;stroke-linecap:round;stroke-linejoin:round;stroke-miterlimit:4;stroke-dasharray:none;stroke-opacity:1;paint-order:stroke markers fill" /><path
             inkscape:connector-curvature="0"
             style="opacity:1;fill:#36404d;fill-opacity:1;stroke:none;stroke-width:0.142522;stroke-linecap:round;stroke-linejoin:round;stroke-miterlimit:4;stroke-dasharray:none;stroke-opacity:1;paint-order:stroke markers fill"
             d="m 5.0270829,1.3274011 h 8e-7 c 0.4397375,0 0.7937497,0.3540125 0.7937497,0.7937501 0,0.4397375 -0.3540122,0.79375 -0.7937497,0.79375 h -8e-7 c -0.4397372,0 -0.7937495,-0.3540125 -0.7937495,-0.79375 0,-0.4397376 0.3540123,-0.7937501 0.7937495,-0.7937501 z"
             id="rect836-56" /><path
             inkscape:connector-curvature="0"
             style="opacity:1;fill:#a3b7cc;fill-opacity:1;stroke:none;stroke-width:0.142522;stroke-linecap:round;stroke-linejoin:round;stroke-miterlimit:4;stroke-dasharray:none;stroke-opacity:1;paint-order:stroke markers fill"
             d="m 0.79374941,1.3274012 h 8e-7 c 0.43973749,0 0.79374979,0.3540125 0.79374979,0.7937501 0,0.4397375 -0.3540123,0.79375 -0.79374979,0.79375 h -8e-7 C 0.35401213,2.9149013 -6.766493e-8,2.5608888 -6.766493e-8,2.1211513 -6.766493e-8,1.6814137 0.35401213,1.3274012 0.79374941,1.3274012 Z"
             id="rect836-5-2" /><path
             inkscape:connector-curvature="0"
             style="opacity:1;fill:#e6f5fe;fill-opacity:1;stroke:none;stroke-width:0.142522;stroke-linecap:round;stroke-linejoin:round;stroke-miterlimit:4;stroke-dasharray:none;stroke-opacity:1;paint-order:stroke markers fill"
             d="m 0.79374991,1.5919846 c 0.29315829,0 0.52916679,0.2360083 0.52916679,0.5291667 0,0.2931583 -0.2360085,0.5291666 -0.52916679,0.5291666 -0.29315828,0 -0.52916668,-0.2360083 -0.52916668,-0.5291666 0,-0.2931584 0.2360084,-0.5291667 0.52916668,-0.5291667 z"
             id="rect880-9" /><path
             inkscape:connector-curvature="0"
             style="opacity:1;fill:#f1f1f1;fill-opacity:1;stroke:none;stroke-width:0.142522;stroke-linecap:round;stroke-linejoin:round;stroke-miterlimit:4;stroke-dasharray:none;stroke-opacity:1;paint-order:stroke markers fill"
             d="m 5.0270834,1.5919845 c 0.2931583,0 0.5291667,0.2360083 0.5291667,0.5291667 0,0.2931583 -0.2360084,0.5291666 -0.5291667,0.5291666 -0.2931583,0 -0.5291666,-0.2360083 -0.5291666,-0.5291666 0,-0.2931584 0.2360083,-0.5291667 0.5291666,-0.5291667 z"
             id="rect880-3-1" /></g></g></g></g></svg>
