<?xml version="1.0" encoding="UTF-8" standalone="no"?>
<svg
   xmlns:dc="http://purl.org/dc/elements/1.1/"
   xmlns:cc="http://creativecommons.org/ns#"
   xmlns:rdf="http://www.w3.org/1999/02/22-rdf-syntax-ns#"
   xmlns:svg="http://www.w3.org/2000/svg"
   xmlns="http://www.w3.org/2000/svg"
   xmlns:sodipodi="http://sodipodi.sourceforge.net/DTD/sodipodi-0.dtd"
   xmlns:inkscape="http://www.inkscape.org/namespaces/inkscape"
   height="32"
   viewBox="0 0 8.4666664 8.4666669"
   width="32"
   version="1.1"
   id="svg6"
   sodipodi:docname="preferences-desktop-user-password.svg"
   inkscape:version="0.92.4 5da689c313, 2019-01-14">
  <metadata
     id="metadata10">
    <rdf:RDF>
      <cc:Work
         rdf:about="">
        <dc:format>image/svg+xml</dc:format>
        <dc:type
           rdf:resource="http://purl.org/dc/dcmitype/StillImage" />
        <dc:title />
      </cc:Work>
    </rdf:RDF>
  </metadata>
  <sodipodi:namedview
     pagecolor="#ffffff"
     bordercolor="#666666"
     borderopacity="1"
     objecttolerance="10"
     gridtolerance="10"
     guidetolerance="10"
     inkscape:pageopacity="0"
     inkscape:pageshadow="2"
     inkscape:window-width="1870"
     inkscape:window-height="1141"
     id="namedview8"
     showgrid="true"
     inkscape:zoom="29.5"
     inkscape:cx="24.384375"
     inkscape:cy="12.231405"
     inkscape:window-x="50"
     inkscape:window-y="30"
     inkscape:window-maximized="1"
     inkscape:current-layer="svg6">
    <inkscape:grid
       type="xygrid"
       id="grid820" />
  </sodipodi:namedview>
  <defs
     id="defs2">
    <style
       type="text/css"
       id="current-color-scheme">
      .ColorScheme-Text {
        color:#36404d;
      }
      </style>
  </defs>
  <g
     id="g3484"
     transform="translate(8.8971751,-1.6144068)">
    <path
       inkscape:connector-curvature="0"
       style="opacity:1;vector-effect:none;fill:#3079cf;fill-opacity:0.98039216;stroke:none;stroke-width:0.52916664;stroke-linecap:round;stroke-linejoin:round;stroke-miterlimit:4;stroke-dasharray:none;stroke-dashoffset:0;stroke-opacity:1"
       d="m -8.3680082,2.1435752 h 7.40833285 c 0.293158,0 0.5291666,0.23601 0.5291666,0.52917 V 9.022745 c 0,0.2931502 -0.2360086,0.5291601 -0.5291666,0.5291601 H -8.3680082 c -0.2931583,0 -0.5291666,-0.2360099 -0.5291666,-0.5291601 V 2.6727452 c 0,-0.29316 0.2360083,-0.52917 0.5291666,-0.52917 z"
       id="rect2581-4" />
    <path
       inkscape:connector-curvature="0"
       style="opacity:1;vector-effect:none;fill:#6bb1ff;fill-opacity:1;stroke:none;stroke-width:0.52916664;stroke-linecap:round;stroke-linejoin:round;stroke-miterlimit:4;stroke-dasharray:none;stroke-dashoffset:0;stroke-opacity:1"
       d="m -8.3680082,2.4081352 h 7.40833335 c 0.1465789,0 0.2645831,0.1179999 0.2645831,0.26458 v 6.3499999 c 0,0.14658 -0.1180042,0.2645799 -0.2645831,0.2645799 H -8.3680082 c -0.1465791,0 -0.2645833,-0.1179999 -0.2645833,-0.2645799 V 2.6727152 c 0,-0.1465801 0.1180042,-0.26458 0.2645833,-0.26458 z"
       id="rect2579-8" />
    <path
       inkscape:connector-curvature="0"
       style="opacity:1;vector-effect:none;fill:#3079cf;fill-opacity:0.98039216;stroke:none;stroke-width:0.52916664;stroke-linecap:round;stroke-linejoin:round;stroke-miterlimit:4;stroke-dasharray:none;stroke-dashoffset:0;stroke-opacity:1"
       d="m -8.1034248,2.9373052 h 6.8791664 V 8.758145 h -6.8791664 z"
       id="rect2577-71" />
    <path
       inkscape:connector-curvature="0"
       style="opacity:1;vector-effect:none;fill:#ececec;fill-opacity:1;stroke:none;stroke-width:0.52916664;stroke-linecap:round;stroke-linejoin:round;stroke-miterlimit:4;stroke-dasharray:none;stroke-dashoffset:0;stroke-opacity:1"
       d="m -7.8388414,3.2018952 h 6.3499997 v 5.2916699 h -6.3499997 z"
       id="rect2577-7-7" />
    <path
       inkscape:connector-curvature="0"
       style="opacity:1;vector-effect:none;fill:#363f4d;fill-opacity:1;stroke:none;stroke-width:0.52916664;stroke-linecap:round;stroke-linejoin:round;stroke-miterlimit:4;stroke-dasharray:none;stroke-dashoffset:0;stroke-opacity:1"
       d="m -7.0450915,7.170645 h 4.7624998 v 0.79375 h -4.7624998 z"
       id="rect2598-2" />
    <path
       inkscape:connector-curvature="0"
       style="opacity:1;vector-effect:none;fill:#ececec;fill-opacity:1;stroke:none;stroke-width:0.52916664;stroke-linecap:round;stroke-linejoin:round;stroke-miterlimit:4;stroke-dasharray:none;stroke-dashoffset:0;stroke-opacity:1"
       d="m -6.7805081,7.4352252 v 0.2645799 h 0.5291665 V 7.4352252 Z m 0.79375,0 v 0.2645799 h 1.3229166 V 7.4352252 Z m 1.5875,0 v 0.2645799 h 0.2645833 V 7.4352252 Z m 0.5291666,0 v 0.2645799 h 0.79375 V 7.4352252 Z m 1.0583334,0 v 0.2645799 h 0.2645833 V 7.4352252 Z"
       id="rect2759-2" />
  </g>
  <path
     style="fill:#363f4d;fill-opacity:1;stroke:none;stroke-width:1.99999988;stroke-linecap:round;stroke-linejoin:round;stroke-miterlimit:4;stroke-dasharray:none;stroke-opacity:1"
     d="M 16 8 A 3 3 0 0 0 13 11 A 3 3 0 0 0 16 14 A 3 3 0 0 0 19 11 A 3 3 0 0 0 16 8 z M 15.882812 15.001953 A 4.9999999 4.9999999 0 0 0 13.5 15.669922 A 4.9999999 4.9999999 0 0 0 11 20 L 16 20 L 21 20 A 4.9999999 4.9999999 0 0 0 18.5 15.669922 A 4.9999999 4.9999999 0 0 0 15.882812 15.001953 z "
     transform="scale(0.26458333)"
     id="path822" />
</svg>
