<?xml version="1.0" encoding="UTF-8" standalone="no"?>
<svg
   xmlns:dc="http://purl.org/dc/elements/1.1/"
   xmlns:cc="http://creativecommons.org/ns#"
   xmlns:rdf="http://www.w3.org/1999/02/22-rdf-syntax-ns#"
   xmlns:svg="http://www.w3.org/2000/svg"
   xmlns="http://www.w3.org/2000/svg"
   xmlns:sodipodi="http://sodipodi.sourceforge.net/DTD/sodipodi-0.dtd"
   xmlns:inkscape="http://www.inkscape.org/namespaces/inkscape"
   height="32"
   viewBox="0 0 8.4666664 8.4666669"
   width="32"
   version="1.1"
   id="svg6"
   sodipodi:docname="yast-vm-group.svg"
   inkscape:version="0.92.4 5da689c313, 2019-01-14">
  <metadata
     id="metadata10">
    <rdf:RDF>
      <cc:Work
         rdf:about="">
        <dc:format>image/svg+xml</dc:format>
        <dc:type
           rdf:resource="http://purl.org/dc/dcmitype/StillImage" />
        <dc:title></dc:title>
      </cc:Work>
    </rdf:RDF>
  </metadata>
  <sodipodi:namedview
     pagecolor="#ffffff"
     bordercolor="#666666"
     borderopacity="1"
     objecttolerance="10"
     gridtolerance="10"
     guidetolerance="10"
     inkscape:pageopacity="0"
     inkscape:pageshadow="2"
     inkscape:window-width="1870"
     inkscape:window-height="1141"
     id="namedview8"
     showgrid="false"
     inkscape:zoom="14.75"
     inkscape:cx="-14.644068"
     inkscape:cy="8"
     inkscape:window-x="50"
     inkscape:window-y="30"
     inkscape:window-maximized="1"
     inkscape:current-layer="svg6" />
  <defs
     id="defs2">
    <style
       type="text/css"
       id="current-color-scheme">
      .ColorScheme-Text {
        color:#36404d;
      }
      </style>
  </defs>
  <g
     id="g1615"
     transform="translate(8.789548,-1.5605932)">
    <path
       inkscape:connector-curvature="0"
       style="opacity:1;fill:#a3b7cc;fill-opacity:1;stroke:none;stroke-width:0.63318533;stroke-linecap:round;stroke-linejoin:round;stroke-miterlimit:4;stroke-dasharray:none;stroke-opacity:1"
       d="m -7.995798,1.8251765 h 6.8791666 c 0.29315842,0 0.52916672,0.2360084 0.52916672,0.5291667 v 6.8791666 c 0,0.2931584 -0.2360083,0.5291667 -0.52916672,0.5291667 H -7.995798 c -0.2931584,0 -0.5291667,-0.2360083 -0.5291667,-0.5291667 V 2.3543432 c 0,-0.2931583 0.2360083,-0.5291667 0.5291667,-0.5291667 z"
       id="rect843" />
    <path
       inkscape:connector-curvature="0"
       style="opacity:1;fill:#f1f1f1;fill-opacity:1;stroke:none;stroke-width:0.59097302;stroke-linecap:round;stroke-linejoin:round;stroke-miterlimit:4;stroke-dasharray:none;stroke-opacity:1"
       d="m -7.995798,2.0897599 h 6.8791666 c 0.14657892,0 0.26458342,0.1180041 0.26458342,0.2645833 v 6.8791666 c 0,0.1465792 -0.1180045,0.2645834 -0.26458342,0.2645834 H -7.995798 c -0.1465792,0 -0.2645834,-0.1180042 -0.2645834,-0.2645834 V 2.3543432 c 0,-0.1465792 0.1180042,-0.2645833 0.2645834,-0.2645833 z"
       id="rect843-3" />
    <path
       inkscape:connector-curvature="0"
       style="opacity:1;fill:#28596c;fill-opacity:1;stroke:none;stroke-width:0.52916664;stroke-linecap:round;stroke-linejoin:round;stroke-miterlimit:4;stroke-dasharray:none;stroke-opacity:1;paint-order:stroke markers fill"
       d="m -7.7312157,2.3543432 h 6.350002 c 0.1465787,0 0.2645823,0.1180042 0.2645823,0.2645833 v 5.0270833 c 0,0.1465792 -0.1180036,0.2645834 -0.2645823,0.2645834 h -6.350002 c -0.1465787,0 -0.2645823,-0.1180042 -0.2645823,-0.2645834 V 2.6189265 c 0,-0.1465791 0.1180036,-0.2645833 0.2645823,-0.2645833 z"
       id="rect834"
       sodipodi:nodetypes="sssssssss" />
    <path
       inkscape:connector-curvature="0"
       style="opacity:1;fill:#23a79b;fill-opacity:1;stroke:none;stroke-width:0.52916664;stroke-linecap:round;stroke-linejoin:round;stroke-miterlimit:4;stroke-dasharray:none;stroke-opacity:1;paint-order:stroke markers fill"
       d="m -7.728291,2.6130819 h 6.3499999 l -0.00585,5.0329279 H -7.734141 Z"
       id="rect836"
       sodipodi:nodetypes="ccccc" />
    <path
       id="rect1584"
       d="m -1.7663967,8.4397598 c 0.2198687,0 0.396875,0.1770063 0.396875,0.396875 0,0.2198688 -0.1770063,0.396875 -0.396875,0.396875 -0.2198688,0 -0.396875,-0.1770062 -0.396875,-0.396875 0,-0.2198687 0.1770062,-0.396875 0.396875,-0.396875 z"
       style="opacity:1;fill:#28596c;fill-opacity:1;stroke:none;stroke-width:0.52916664;stroke-linecap:round;stroke-linejoin:round;stroke-miterlimit:4;stroke-dasharray:none;stroke-opacity:1;paint-order:stroke markers fill"
       inkscape:connector-curvature="0" />
    <path
       id="rect1586"
       d="m -1.7663967,8.7043432 c 0.07329,0 0.1322916,0.059002 0.1322916,0.1322916 0,0.07329 -0.059002,0.1322917 -0.1322916,0.1322917 -0.07329,0 -0.1322917,-0.059002 -0.1322917,-0.1322917 0,-0.07329 0.059002,-0.1322916 0.1322917,-0.1322916 z"
       style="opacity:1;fill:#23a79b;fill-opacity:1;stroke:none;stroke-width:0.52916664;stroke-linecap:round;stroke-linejoin:round;stroke-miterlimit:4;stroke-dasharray:none;stroke-opacity:1;paint-order:stroke markers fill"
       inkscape:connector-curvature="0" />
    <path
       id="rect1584-6"
       d="m -2.82473,8.4397598 c 0.2198687,0 0.396875,0.1770063 0.396875,0.396875 0,0.2198688 -0.1770063,0.396875 -0.396875,0.396875 -0.2198688,0 -0.396875,-0.1770062 -0.396875,-0.396875 0,-0.2198687 0.1770062,-0.396875 0.396875,-0.396875 z"
       style="opacity:1;fill:#28596c;fill-opacity:1;stroke:none;stroke-width:0.52916664;stroke-linecap:round;stroke-linejoin:round;stroke-miterlimit:4;stroke-dasharray:none;stroke-opacity:1;paint-order:stroke markers fill"
       inkscape:connector-curvature="0" />
    <path
       id="rect1586-7"
       d="m -2.82473,8.7043432 c 0.073289,0 0.1322916,0.059002 0.1322916,0.1322916 0,0.07329 -0.059002,0.1322917 -0.1322916,0.1322917 -0.07329,0 -0.1322917,-0.059002 -0.1322917,-0.1322917 0,-0.07329 0.059002,-0.1322916 0.1322917,-0.1322916 z"
       style="opacity:1;fill:#23a79b;fill-opacity:1;stroke:none;stroke-width:0.52916664;stroke-linecap:round;stroke-linejoin:round;stroke-miterlimit:4;stroke-dasharray:none;stroke-opacity:1;paint-order:stroke markers fill"
       inkscape:connector-curvature="0" />
    <path
       id="rect1584-8"
       d="m -3.8830634,8.4314916 c 0.2198688,0 0.396875,0.1770062 0.396875,0.396875 0,0.2198687 -0.1770062,0.396875 -0.396875,0.396875 -0.2198687,0 -0.396875,-0.1770063 -0.396875,-0.396875 0,-0.2198688 0.1770063,-0.396875 0.396875,-0.396875 z"
       style="opacity:1;fill:#28596c;fill-opacity:1;stroke:none;stroke-width:0.52916664;stroke-linecap:round;stroke-linejoin:round;stroke-miterlimit:4;stroke-dasharray:none;stroke-opacity:1;paint-order:stroke markers fill"
       inkscape:connector-curvature="0" />
    <path
       id="rect1586-4"
       d="m -3.8830634,8.6960749 c 0.07329,0 0.1322917,0.059002 0.1322917,0.1322917 0,0.07329 -0.059002,0.1322917 -0.1322917,0.1322917 -0.07329,0 -0.1322916,-0.059002 -0.1322916,-0.1322917 0,-0.07329 0.059002,-0.1322917 0.1322916,-0.1322917 z"
       style="opacity:1;fill:#23a79b;fill-opacity:1;stroke:none;stroke-width:0.52916664;stroke-linecap:round;stroke-linejoin:round;stroke-miterlimit:4;stroke-dasharray:none;stroke-opacity:1;paint-order:stroke markers fill"
       inkscape:connector-curvature="0" />
    <path
       id="rect4881"
       d="m -7.202048,8.1751765 h 0.79375 c 0.2931583,0 0.5291666,0.2360083 0.5291666,0.5291667 0,0.2931583 -0.2360083,0.5291666 -0.5291666,0.5291666 h -0.79375 c -0.2931584,0 -0.5291667,-0.2360083 -0.5291667,-0.5291666 0,-0.2931584 0.2360083,-0.5291667 0.5291667,-0.5291667 z"
       style="opacity:1;fill:#28596c;fill-opacity:1;stroke:none;stroke-width:1.05833328;stroke-linecap:round;stroke-linejoin:round;stroke-miterlimit:4;stroke-dasharray:none;stroke-dashoffset:0;stroke-opacity:1"
       inkscape:connector-curvature="0" />
    <rect
       ry="0.26458332"
       y="8.4397612"
       x="6.1437149"
       height="0.52916664"
       width="1.3229166"
       id="rect4445-3-5-7"
       style="opacity:1;fill:#23a79b;fill-opacity:1;stroke:none;stroke-width:0.52916664;stroke-linecap:round;stroke-linejoin:round;stroke-miterlimit:4;stroke-dasharray:none;stroke-opacity:1"
       transform="scale(-1,1)" />
    <path
       id="rect4898"
       d="m -7.202048,8.1751765 c 0.2931583,0 0.5291666,0.2360083 0.5291666,0.5291667 0,0.2931583 -0.2360083,0.5291666 -0.5291666,0.5291666 -0.2931584,0 -0.5291667,-0.2360083 -0.5291667,-0.5291666 0,-0.2931584 0.2360083,-0.5291667 0.5291667,-0.5291667 z"
       style="opacity:1;fill:#28596c;fill-opacity:1;stroke:none;stroke-width:1.05833328;stroke-linecap:round;stroke-linejoin:round;stroke-miterlimit:4;stroke-dasharray:none;stroke-dashoffset:0;stroke-opacity:1"
       inkscape:connector-curvature="0" />
    <path
       id="path4472-6-4"
       d="M -7.4666314,8.7043432 A 0.26458333,0.26458333 0 0 0 -7.202048,8.9689265 0.26458333,0.26458333 0 0 0 -6.9374647,8.7043432 0.26458333,0.26458333 0 0 0 -7.202048,8.4397598 0.26458333,0.26458333 0 0 0 -7.4666314,8.7043432 Z"
       style="opacity:1;fill:#f1f1f1;fill-opacity:1;stroke:none;stroke-width:0.52916664;stroke-linecap:round;stroke-linejoin:round;stroke-miterlimit:4;stroke-dasharray:none;stroke-opacity:1"
       inkscape:connector-curvature="0" />
    <path
       sodipodi:nodetypes="scccccccssssssssssssssss"
       inkscape:connector-curvature="0"
       id="path929"
       d="m -5.4719212,2.8793757 c -0.1321409,-0.00179 -0.2678115,-3.936e-4 -0.4072102,0.00413 V 3.4126765 L -6.408298,3.1480932 c -0.7372848,1.3890868 -0.6909962,2.8221445 0.00827,4.2333333 1.7533837,-1.3163709 3.1255763,0.4237567 4.2250651,-1.5875 C -4.6139542,6.6519623 -5.614548,5.2647598 -5.614548,4.7355932 -4.4534471,6.194929 -3.1035194,5.917098 -2.1749647,5.2647598 -2.3301344,3.6485757 -3.4898081,2.906172 -5.4719212,2.8793757 Z m 1.5771648,0.5333008 c 0.5130271,0 0.9260417,0.4130146 0.9260417,0.9260417 0,0.513027 -0.4130146,0.9260416 -0.9260417,0.9260416 -0.5130271,0 -0.9260416,-0.4130146 -0.9260416,-0.9260416 0,-0.5130271 0.4130145,-0.9260417 0.9260416,-0.9260417 z m 0,0.2645833 c -0.3664479,0 -0.6614583,0.2950104 -0.6614583,0.6614584 0,0.3664479 0.2950104,0.6614583 0.6614583,0.6614583 0.3664479,0 0.6614584,-0.2950104 0.6614584,-0.6614583 0,-0.366448 -0.2950105,-0.6614584 -0.6614584,-0.6614584 z m 0.1322917,0.2645834 c 0.1461254,0 0.2645833,0.118458 0.2645833,0.2645833 0,0.1461254 -0.1184579,0.2645833 -0.2645833,0.2645833 -0.1461254,0 -0.2645833,-0.1184579 -0.2645833,-0.2645833 0,-0.1461253 0.1184579,-0.2645833 0.2645833,-0.2645833 z"
       style="fill:#cff7f1;fill-opacity:1;stroke:none;stroke-width:0.26458332px;stroke-linecap:butt;stroke-linejoin:miter;stroke-opacity:1" />
  </g>
</svg>
