<?xml version="1.0" encoding="UTF-8" standalone="no"?>
<!-- Created with Inkscape (http://www.inkscape.org/) -->

<svg
   xmlns:dc="http://purl.org/dc/elements/1.1/"
   xmlns:cc="http://creativecommons.org/ns#"
   xmlns:rdf="http://www.w3.org/1999/02/22-rdf-syntax-ns#"
   xmlns:svg="http://www.w3.org/2000/svg"
   xmlns="http://www.w3.org/2000/svg"
   xmlns:sodipodi="http://sodipodi.sourceforge.net/DTD/sodipodi-0.dtd"
   xmlns:inkscape="http://www.inkscape.org/namespaces/inkscape"
   width="16"
   height="16"
   viewBox="0 0 4.2333332 4.2333335"
   version="1.1"
   id="svg8"
   inkscape:version="0.92.4 5da689c313, 2019-01-14"
   sodipodi:docname="folder-public.svg">
  <defs
     id="defs2">
    <linearGradient
       id="1">
      <stop
         id="stop4778"
         stop-color="#289bf7" />
      <stop
         id="stop4780"
         stop-color="#71b9f1"
         offset="1" />
    </linearGradient>
  </defs>
  <sodipodi:namedview
     id="base"
     pagecolor="#ffffff"
     bordercolor="#666666"
     borderopacity="1.0"
     inkscape:pageopacity="0.0"
     inkscape:pageshadow="2"
     inkscape:zoom="15.839192"
     inkscape:cx="-7.7335888"
     inkscape:cy="7.5756065"
     inkscape:document-units="px"
     inkscape:current-layer="layer1"
     showgrid="true"
     units="px"
     inkscape:showpageshadow="false"
     inkscape:snap-bbox="true"
     inkscape:bbox-paths="true"
     inkscape:bbox-nodes="true"
     inkscape:snap-bbox-edge-midpoints="true"
     inkscape:snap-bbox-midpoints="true"
     inkscape:object-paths="true"
     inkscape:snap-intersection-paths="true"
     inkscape:window-width="1920"
     inkscape:window-height="1049"
     inkscape:window-x="0"
     inkscape:window-y="0"
     inkscape:window-maximized="1">
    <inkscape:grid
       type="xygrid"
       id="grid815" />
  </sodipodi:namedview>
  <metadata
     id="metadata5">
    <rdf:RDF>
      <cc:Work
         rdf:about="">
        <dc:format>image/svg+xml</dc:format>
        <dc:type
           rdf:resource="http://purl.org/dc/dcmitype/StillImage" />
        <dc:title />
      </cc:Work>
    </rdf:RDF>
  </metadata>
  <g
     inkscape:label="Capa 1"
     inkscape:groupmode="layer"
     id="layer1"
     transform="translate(0,-292.76666)">
    <path
       inkscape:connector-curvature="0"
       style="color:#122036;fill:#2381cc;fill-opacity:1;stroke:none;stroke-width:0.26458335"
       d="m 2.1120158,293.29585 c -0.08681,0.002 -0.1673405,0.0456 -0.2154907,0.11782 l -0.5291666,0.79375 c -0.1171687,0.17583 0.00885,0.4113 0.2201415,0.41135 h 0.2645834 c 0,0 0.5291666,-2e-5 0.5291666,0 h 0.2645834 c 0.2112928,-5e-5 0.3373101,-0.23552 0.2201415,-0.41135 l -0.5291666,-0.79375 c -0.049978,-0.075 -0.134687,-0.11939 -0.2247925,-0.11782 z m -1.31826584,1.5875 c -0.14657913,0 -0.2645833,0.118 -0.2645833,0.26458 v 0.26459 1.05833 c 0,0.14658 0.11800417,0.26458 0.2645833,0.26458 H 1.0583334 3.175 3.4395834 c 0.1465791,0 0.2645833,-0.118 0.2645833,-0.26458 v -1.05833 -0.26459 c 0,-0.14658 -0.1180042,-0.26458 -0.2645833,-0.26458 H 3.175 2.9104167 c -0.1465792,0 -0.2645833,0.118 -0.2645833,0.26458 v 0.26459 c 0,0.14658 0.1180041,0.26458 0.2645833,0.26458 v 0.26458 h -1.5875 v -0.26458 c 0.1465792,0 0.2645833,-0.118 0.2645833,-0.26458 v -0.26459 c 0,-0.14658 -0.1180041,-0.26458 -0.2645833,-0.26458 H 1.0583334 Z"
       id="path4" />
    <path
       inkscape:connector-curvature="0"
       style="opacity:1;fill:#6fb8f1;fill-opacity:1;stroke:none;stroke-width:0.5291667;stroke-linecap:round;stroke-linejoin:round;stroke-miterlimit:4;stroke-dasharray:none;stroke-opacity:1;paint-order:fill markers stroke"
       d="M 2.1166667,293.56041 1.5875,294.35416 h 1.0583334 z m -1.32291674,1.5875 v 0.26459 1.05833 H 1.0583334 3.175 3.4395834 v -0.26458 -0.79375 -0.26459 H 3.175 2.9104167 v 0.26459 H 3.175 v 0.79375 H 1.0583334 v -0.79375 h 0.2645833 v -0.26459 z"
       id="rect830" />
  </g>
</svg>
