<?xml version="1.0" encoding="UTF-8" standalone="no"?>
<!-- Created with Inkscape (http://www.inkscape.org/) -->

<svg
   xmlns:dc="http://purl.org/dc/elements/1.1/"
   xmlns:cc="http://creativecommons.org/ns#"
   xmlns:rdf="http://www.w3.org/1999/02/22-rdf-syntax-ns#"
   xmlns:svg="http://www.w3.org/2000/svg"
   xmlns="http://www.w3.org/2000/svg"
   xmlns:sodipodi="http://sodipodi.sourceforge.net/DTD/sodipodi-0.dtd"
   xmlns:inkscape="http://www.inkscape.org/namespaces/inkscape"
   width="16"
   height="16"
   viewBox="0 0 4.2333331 4.2333332"
   version="1.1"
   id="svg1399"
   inkscape:version="0.92.4 5da689c313, 2019-01-14"
   sodipodi:docname="alt-torrents.svg">
  <defs
     id="defs1393" />
  <sodipodi:namedview
     id="base"
     pagecolor="#ffffff"
     bordercolor="#666666"
     borderopacity="1.0"
     inkscape:pageopacity="0.0"
     inkscape:pageshadow="2"
     inkscape:zoom="44.8"
     inkscape:cx="6.216056"
     inkscape:cy="11.290887"
     inkscape:document-units="px"
     inkscape:current-layer="g1485"
     showgrid="false"
     inkscape:showpageshadow="false"
     units="px"
     inkscape:window-width="1920"
     inkscape:window-height="1049"
     inkscape:window-x="0"
     inkscape:window-y="0"
     inkscape:window-maximized="1" />
  <metadata
     id="metadata1396">
    <rdf:RDF>
      <cc:Work
         rdf:about="">
        <dc:format>image/svg+xml</dc:format>
        <dc:type
           rdf:resource="http://purl.org/dc/dcmitype/StillImage" />
        <dc:title />
      </cc:Work>
    </rdf:RDF>
  </metadata>
  <g
     inkscape:label="Capa 1"
     inkscape:groupmode="layer"
     id="layer1"
     transform="translate(0,-292.76671)">
    <g
       id="g1485"
       transform="translate(15.880818,-2.2833569)">
      <path
         sodipodi:nodetypes="ccccccccccccccc"
         inkscape:connector-curvature="0"
         id="path4-6"
         d="m -13.735839,295.05097 c -0.571854,-0.008 -1.121089,0.21659 -1.525391,0.6211 -0.603874,0.60484 -0.786122,1.51691 -0.458984,2.30664 0.327399,0.7901 1.099832,1.30469 1.955078,1.30469 h 2.115234 v -0.52735 -0.26562 -0.26367 -0.26563 -0.5293 h 0.002 v -0.26367 c -3e-6,-0.85524 -0.516545,-1.62768 -1.306645,-1.95508 -0.24732,-0.10256 -0.511583,-0.15815 -0.779297,-0.16211 z"
         style="color:#36404d;font-style:normal;font-variant:normal;font-weight:normal;font-stretch:normal;font-size:medium;line-height:normal;font-family:sans-serif;font-variant-ligatures:normal;font-variant-position:normal;font-variant-caps:normal;font-variant-numeric:normal;font-variant-alternates:normal;font-feature-settings:normal;text-indent:0;text-align:start;text-decoration:none;text-decoration-line:none;text-decoration-style:solid;text-decoration-color:#000000;letter-spacing:normal;word-spacing:normal;text-transform:none;writing-mode:lr-tb;direction:ltr;text-orientation:mixed;dominant-baseline:auto;baseline-shift:baseline;text-anchor:start;white-space:normal;shape-padding:0;clip-rule:nonzero;display:inline;overflow:visible;visibility:visible;opacity:1;isolation:auto;mix-blend-mode:normal;color-interpolation:sRGB;color-interpolation-filters:linearRGB;solid-color:#000000;solid-opacity:1;vector-effect:none;fill:#4b5799;fill-opacity:1;fill-rule:nonzero;stroke:none;stroke-width:0.52916664;stroke-linecap:butt;stroke-linejoin:miter;stroke-miterlimit:4;stroke-dasharray:none;stroke-dashoffset:0;stroke-opacity:1;color-rendering:auto;image-rendering:auto;shape-rendering:auto;text-rendering:auto;enable-background:accumulate" />
      <path
         id="path4"
         class="ColorScheme-Text"
         style="fill:#e5e7f0;fill-opacity:1;stroke:none;stroke-width:0.26458332"
         d="m -13.738785,295.31556 a 1.8520833,1.8520833 0 0 0 -1.336352,0.5426 1.8520833,1.8520833 0 0 0 -0.401526,2.01848 1.8520833,1.8520833 0 0 0 1.711006,1.14309 h 2.116667 v -0.26459 h -2.116667 a 1.5874999,1.5874999 0 0 1 -0.158646,-0.008 1.5874999,1.5874999 0 0 1 -0.15658,-0.0238 1.5874999,1.5874999 0 0 1 -0.153996,-0.0393 1.5874999,1.5874999 0 0 1 -0.148828,-0.0548 1.5874999,1.5874999 0 0 1 -0.143143,-0.0687 1.5874999,1.5874999 0 0 1 -0.135393,-0.0832 1.5874999,1.5874999 0 0 1 -0.12609,-0.0956 1.5874999,1.5874999 0 0 1 -0.116272,-0.10852 1.5874999,1.5874999 0 0 1 -0.104387,-0.11886 1.5874999,1.5874999 0 0 1 -0.0925,-0.12919 1.5874999,1.5874999 0 0 1 -0.07906,-0.13798 1.5874999,1.5874999 0 0 1 -0.05168,-0.11213 1.5874999,1.5874999 0 0 1 -0.05323,-0.14986 1.5874999,1.5874999 0 0 1 -0.03824,-0.154 1.5874999,1.5874999 0 0 1 -0.02274,-0.1571 1.5874999,1.5874999 0 0 1 -0.0067,-0.15813 1.5874999,1.5874999 0 0 1 0.0093,-0.15864 1.5874999,1.5874999 0 0 1 0.0248,-0.15658 1.5874999,1.5874999 0 0 1 0.04031,-0.15348 1.5874999,1.5874999 0 0 1 0.05529,-0.14883 1.5874999,1.5874999 0 0 1 0.07028,-0.14211 1.5874999,1.5874999 0 0 1 0.08372,-0.13488 1.5874999,1.5874999 0 0 1 0.09715,-0.12557 1.5874999,1.5874999 0 0 1 0.08423,-0.0909 1.5874999,1.5874999 0 0 1 0.117306,-0.10645 1.5874999,1.5874999 0 0 1 0.128157,-0.094 1.5874999,1.5874999 0 0 1 0.136426,-0.0811 1.5874999,1.5874999 0 0 1 0.143661,-0.0672 1.5874999,1.5874999 0 0 1 0.149861,-0.0522 1.5874999,1.5874999 0 0 1 0.154513,-0.0367 1.5874999,1.5874999 0 0 1 0.157096,-0.0217 1.5874999,1.5874999 0 0 1 0.158647,-0.006 1.5874999,1.5874999 0 0 1 0.15813,0.0103 1.5874999,1.5874999 0 0 1 0.156579,0.0258 1.5874999,1.5874999 0 0 1 0.153479,0.0419 1.5874999,1.5874999 0 0 1 0.116272,0.0429 1.5874999,1.5874999 0 0 1 0.143144,0.0677 1.5874999,1.5874999 0 0 1 0.135909,0.0822 1.5874999,1.5874999 0 0 1 0.127124,0.0951 1.5874999,1.5874999 0 0 1 0.116789,0.10749 1.5874999,1.5874999 0 0 1 0.10542,0.11834 1.5874999,1.5874999 0 0 1 0.09353,0.12815 1.5874999,1.5874999 0 0 1 0.0801,0.13746 1.5874999,1.5874999 0 0 1 0.06563,0.14418 1.5874999,1.5874999 0 0 1 0.05116,0.15038 1.5874999,1.5874999 0 0 1 0.03566,0.15451 1.5874999,1.5874999 0 0 1 0.02067,0.1571 1.5874999,1.5874999 0 0 1 0.0046,0.12402 h 0.264585 a 1.8520833,1.8520833 0 0 0 -1.143085,-1.711 1.8520833,1.8520833 0 0 0 -0.682129,-0.14108 z m -0.0077,0.52917 a 1.3229166,1.3229166 0 0 0 -0.954464,0.38757 1.3229166,1.3229166 0 0 0 -0.286804,1.44177 1.3229166,1.3229166 0 0 0 1.222148,0.81649 h 2.116667 v -0.26458 h -2.116669 a 1.0583333,1.0583333 0 0 1 -0.10542,-0.005 1.0583333,1.0583333 0 0 1 -0.104903,-0.016 1.0583333,1.0583333 0 0 1 -0.102319,-0.0258 1.0583333,1.0583333 0 0 1 -0.09974,-0.0367 1.0583333,1.0583333 0 0 1 -0.09508,-0.046 1.0583333,1.0583333 0 0 1 -0.08992,-0.0553 1.0583333,1.0583333 0 0 1 -0.08423,-0.0641 1.0583333,1.0583333 0 0 1 -0.07752,-0.0718 1.0583333,1.0583333 0 0 1 -0.06976,-0.0796 1.0583333,1.0583333 0 0 1 -0.06149,-0.0858 1.0583333,1.0583333 0 0 1 -0.05271,-0.092 1.0583333,1.0583333 0 0 1 -0.03462,-0.0749 1.0583333,1.0583333 0 0 1 -0.03566,-0.0997 1.0583333,1.0583333 0 0 1 -0.02532,-0.10284 1.0583333,1.0583333 0 0 1 -0.01499,-0.10438 1.0583333,1.0583333 0 0 1 -0.0046,-0.10594 1.0583333,1.0583333 0 0 1 0.0062,-0.10542 1.0583333,1.0583333 0 0 1 0.01654,-0.1049 1.0583333,1.0583333 0 0 1 0.02687,-0.10181 1.0583333,1.0583333 0 0 1 0.03721,-0.0992 1.0583333,1.0583333 0 0 1 0.04651,-0.0951 1.0583333,1.0583333 0 0 1 0.05581,-0.0899 1.0583333,1.0583333 0 0 1 0.0646,-0.0837 1.0583333,1.0583333 0 0 1 0.05633,-0.0605 1.0583333,1.0583333 0 0 1 0.07855,-0.0708 1.0583333,1.0583333 0 0 1 0.08475,-0.063 1.0583333,1.0583333 0 0 1 0.09095,-0.0538 1.0583333,1.0583333 0 0 1 0.09612,-0.045 1.0583333,1.0583333 0 0 1 0.09974,-0.0346 1.0583333,1.0583333 0 0 1 0.102836,-0.0248 1.0583333,1.0583333 0 0 1 0.104903,-0.0145 1.0583333,1.0583333 0 0 1 0.105937,-0.004 1.0583333,1.0583333 0 0 1 0.10542,0.007 1.0583333,1.0583333 0 0 1 0.104386,0.0176 1.0583333,1.0583333 0 0 1 0.102319,0.0279 1.0583333,1.0583333 0 0 1 0.07752,0.0284 1.0583333,1.0583333 0 0 1 0.0956,0.0455 1.0583333,1.0583333 0 0 1 0.09043,0.0543 1.0583333,1.0583333 0 0 1 0.08475,0.0636 1.0583333,1.0583333 0 0 1 0.07803,0.0713 1.0583333,1.0583333 0 0 1 0.07028,0.0791 1.0583333,1.0583333 0 0 1 0.06201,0.0858 1.0583333,1.0583333 0 0 1 0.05323,0.0915 1.0583333,1.0583333 0 0 1 0.04392,0.0961 1.0583333,1.0583333 0 0 1 0.03411,0.10025 1.0583333,1.0583333 0 0 1 0.02429,0.10284 1.0583333,1.0583333 0 0 1 0.01343,0.1049 1.0583333,1.0583333 0 0 1 0.0031,0.0827 h 0.264584 a 1.3229166,1.3229166 0 0 0 -0.816489,-1.22215 1.3229166,1.3229166 0 0 0 -0.487308,-0.10076 z m -0.0077,0.52916 a 0.79374997,0.79374997 0 0 0 -0.572575,0.23255 0.79374997,0.79374997 0 0 0 -0.172082,0.86506 0.79374997,0.79374997 0 0 0 0.733288,0.48989 h 2.116667 v -0.26458 h -2.11667 a 0.52916664,0.52916664 0 0 1 -0.05271,-0.003 0.52916664,0.52916664 0 0 1 -0.05219,-0.008 0.52916664,0.52916664 0 0 1 -0.05168,-0.0134 0.52916664,0.52916664 0 0 1 -0.04961,-0.0181 0.52916664,0.52916664 0 0 1 -0.04754,-0.0227 0.52916664,0.52916664 0 0 1 -0.04496,-0.0279 0.52916664,0.52916664 0 0 1 -0.04237,-0.032 0.52916664,0.52916664 0 0 1 -0.03876,-0.0362 0.52916664,0.52916664 0 0 1 -0.03462,-0.0393 0.52916664,0.52916664 0 0 1 -0.03101,-0.0434 0.52916664,0.52916664 0 0 1 -0.02636,-0.046 0.52916664,0.52916664 0 0 1 -0.01705,-0.0372 0.52916664,0.52916664 0 0 1 -0.01757,-0.0501 0.52916664,0.52916664 0 0 1 -0.01292,-0.0512 0.52916664,0.52916664 0 0 1 -0.0077,-0.0522 0.52916664,0.52916664 0 0 1 -0.0021,-0.0527 0.52916664,0.52916664 0 0 1 0.0031,-0.0532 0.52916664,0.52916664 0 0 1 0.0083,-0.0522 0.52916664,0.52916664 0 0 1 0.01344,-0.0511 0.52916664,0.52916664 0 0 1 0.0186,-0.0496 0.52916664,0.52916664 0 0 1 0.02325,-0.047 0.52916664,0.52916664 0 0 1 0.02791,-0.045 0.52916664,0.52916664 0 0 1 0.03256,-0.0419 0.52916664,0.52916664 0 0 1 0.02791,-0.0305 0.52916664,0.52916664 0 0 1 0.03927,-0.0357 0.52916664,0.52916664 0 0 1 0.04237,-0.031 0.52916664,0.52916664 0 0 1 0.04548,-0.0274 0.52916664,0.52916664 0 0 1 0.04806,-0.0222 0.52916664,0.52916664 0 0 1 0.05013,-0.0176 0.52916664,0.52916664 0 0 1 0.05116,-0.0119 0.52916664,0.52916664 0 0 1 0.05271,-0.007 0.52916664,0.52916664 0 0 1 0.05271,-0.002 0.52916664,0.52916664 0 0 1 0.05271,0.004 0.52916664,0.52916664 0 0 1 0.05219,0.008 0.52916664,0.52916664 0 0 1 0.05116,0.014 0.52916664,0.52916664 0 0 1 0.03876,0.0145 0.52916664,0.52916664 0 0 1 0.04754,0.0227 0.52916664,0.52916664 0 0 1 0.04547,0.0274 0.52916664,0.52916664 0 0 1 0.04237,0.0315 0.52916664,0.52916664 0 0 1 0.03876,0.0357 0.52916664,0.52916664 0 0 1 0.03514,0.0398 0.52916664,0.52916664 0 0 1 0.03152,0.0424 0.52916664,0.52916664 0 0 1 0.02636,0.046 0.52916664,0.52916664 0 0 1 0.02222,0.0481 0.52916664,0.52916664 0 0 1 0.01705,0.0501 0.52916664,0.52916664 0 0 1 0.01189,0.0517 0.52916664,0.52916664 0 0 1 0.0067,0.0522 0.52916664,0.52916664 0 0 1 0.0015,0.0413 h 0.264584 a 0.79374997,0.79374997 0 0 0 -0.489893,-0.73329 0.79374997,0.79374997 0 0 0 -0.292489,-0.0605 z"
         inkscape:connector-curvature="0" />
    </g>
  </g>
</svg>
