<?xml version="1.0" encoding="UTF-8" standalone="no"?>
<!-- Created with Inkscape (http://www.inkscape.org/) -->

<svg
   xmlns:dc="http://purl.org/dc/elements/1.1/"
   xmlns:cc="http://creativecommons.org/ns#"
   xmlns:rdf="http://www.w3.org/1999/02/22-rdf-syntax-ns#"
   xmlns:svg="http://www.w3.org/2000/svg"
   xmlns="http://www.w3.org/2000/svg"
   xmlns:sodipodi="http://sodipodi.sourceforge.net/DTD/sodipodi-0.dtd"
   xmlns:inkscape="http://www.inkscape.org/namespaces/inkscape"
   width="16"
   height="16"
   viewBox="0 0 4.2333332 4.2333335"
   version="1.1"
   id="svg8"
   inkscape:version="0.92.3 (2405546, 2018-03-11)"
   sodipodi:docname="folder-favorites.svg">
  <defs
     id="defs2" />
  <sodipodi:namedview
     id="base"
     pagecolor="#ffffff"
     bordercolor="#666666"
     borderopacity="1.0"
     inkscape:pageopacity="0.0"
     inkscape:pageshadow="2"
     inkscape:zoom="31.678384"
     inkscape:cx="1.7582079"
     inkscape:cy="7.730104"
     inkscape:document-units="px"
     inkscape:current-layer="layer1"
     showgrid="true"
     units="px"
     inkscape:showpageshadow="false"
     inkscape:snap-bbox="true"
     inkscape:bbox-paths="true"
     inkscape:bbox-nodes="true"
     inkscape:snap-bbox-edge-midpoints="true"
     inkscape:snap-bbox-midpoints="true"
     inkscape:object-paths="true"
     inkscape:snap-intersection-paths="true"
     inkscape:window-width="1874"
     inkscape:window-height="1141"
     inkscape:window-x="46"
     inkscape:window-y="30"
     inkscape:window-maximized="1">
    <inkscape:grid
       type="xygrid"
       id="grid815" />
  </sodipodi:namedview>
  <metadata
     id="metadata5">
    <rdf:RDF>
      <cc:Work
         rdf:about="">
        <dc:format>image/svg+xml</dc:format>
        <dc:type
           rdf:resource="http://purl.org/dc/dcmitype/StillImage" />
        <dc:title></dc:title>
      </cc:Work>
    </rdf:RDF>
  </metadata>
  <g
     inkscape:label="Capa 1"
     inkscape:groupmode="layer"
     id="layer1"
     transform="translate(0,-292.76666)">
    <g
       id="g3673"
       transform="translate(2.1166724,0.79374667)">
      <path
         sodipodi:nodetypes="sccsccsccsccsscs"
         inkscape:connector-curvature="0"
         id="rect3039"
         d="m -0.66145838,292.50223 c -0.64332012,0 -1.16523102,0.51856 -1.18390702,1.15755 -0.00143,0.006 -0.00264,0.0124 -0.00362,0.0186 -6.56e-5,0.005 -0.0031,0.009 -0.0031,0.0145 0,0.0111 3.042e-4,-10e-4 5.159e-4,0.006 -3.901e-4,0.006 -5.622e-4,0.0124 -5.159e-4,0.0186 0,0.42828 0.2417743,0.82446 0.5606892,1.19321 0.31891497,0.36874 0.73082362,0.71063 1.14463302,0.9865 0.088874,0.0592 0.2046481,0.0592 0.2935221,0 0.4138093,-0.27587 0.8257778,-0.61786 1.14463298,-0.98598 0.3188552,-0.36813 0.5606894,-0.76266 0.5606894,-1.1896 -1.603e-4,-0.006 -5.027e-4,-0.0114 -0.00103,-0.017 5.556e-4,-0.009 0.00103,0.007 0.00103,-0.0119 0,-0.65503 -0.5355953,-1.19063 -1.19062508,-1.19063 -0.2501691,0 -0.4696599,0.0962 -0.6614583002046,0.22841 C -0.19179848,292.59823 -0.41128918,292.50208 -0.66145838,292.50208 Z"
         style="color:#000000;font-style:normal;font-variant:normal;font-weight:normal;font-stretch:normal;font-size:medium;line-height:normal;font-family:sans-serif;font-variant-ligatures:normal;font-variant-position:normal;font-variant-caps:normal;font-variant-numeric:normal;font-variant-alternates:normal;font-feature-settings:normal;text-indent:0;text-align:start;text-decoration:none;text-decoration-line:none;text-decoration-style:solid;text-decoration-color:#000000;letter-spacing:normal;word-spacing:normal;text-transform:none;writing-mode:lr-tb;direction:ltr;text-orientation:mixed;dominant-baseline:auto;baseline-shift:baseline;text-anchor:start;white-space:normal;shape-padding:0;clip-rule:nonzero;display:inline;overflow:visible;visibility:visible;opacity:1;isolation:auto;mix-blend-mode:normal;color-interpolation:sRGB;color-interpolation-filters:linearRGB;solid-color:#000000;solid-opacity:1;vector-effect:none;fill:#c74343;fill-opacity:1;fill-rule:nonzero;stroke:none;stroke-width:0.5291667;stroke-linecap:round;stroke-linejoin:round;stroke-miterlimit:4;stroke-dasharray:none;stroke-dashoffset:0;stroke-opacity:1;paint-order:fill markers stroke;color-rendering:auto;image-rendering:auto;shape-rendering:auto;text-rendering:auto;enable-background:accumulate" />
      <path
         id="rect3039-7"
         d="m -0.66145808,292.76681 c -0.51302712,0 -0.92604172,0.41302 -0.92604172,0.92605 0,0.009 0.00236,0.0163 0.00259,0.0248 h -0.00259 c 0,0.63665 0.79375002,1.4304 1.58750001979543,1.95957 C 0.79375032,295.14806 1.5875003,294.35431 1.5875003,293.72179 h -0.0031 c 3.175e-4,-0.01 0.0031,-0.019 0.0031,-0.0289 0,-0.51303 -0.4130146,-0.92605 -0.92604168,-0.92605 -0.2600963,0 -0.4935625,0.10701 -0.66145840020457,0.27854 C -0.16789558,292.87385 -0.40136178,292.76684 -0.66145808,292.76684 Z"
         style="opacity:1;fill:#f78f8f;fill-opacity:1;stroke:none;stroke-width:0.5291667;stroke-linecap:round;stroke-linejoin:round;stroke-miterlimit:4;stroke-dasharray:none;stroke-opacity:1;paint-order:fill markers stroke"
         inkscape:connector-curvature="0" />
    </g>
  </g>
</svg>
