<?xml version="1.0" encoding="UTF-8" standalone="no"?>
<!-- Created with Inkscape (http://www.inkscape.org/) -->

<svg
   xmlns:dc="http://purl.org/dc/elements/1.1/"
   xmlns:cc="http://creativecommons.org/ns#"
   xmlns:rdf="http://www.w3.org/1999/02/22-rdf-syntax-ns#"
   xmlns:svg="http://www.w3.org/2000/svg"
   xmlns="http://www.w3.org/2000/svg"
   xmlns:sodipodi="http://sodipodi.sourceforge.net/DTD/sodipodi-0.dtd"
   xmlns:inkscape="http://www.inkscape.org/namespaces/inkscape"
   width="16"
   height="16"
   viewBox="0 0 4.2333332 4.2333335"
   version="1.1"
   id="svg8"
   inkscape:version="0.92.3 (2405546, 2018-03-11)"
   sodipodi:docname="folder-games.svg">
  <defs
     id="defs2" />
  <sodipodi:namedview
     id="base"
     pagecolor="#ffffff"
     bordercolor="#666666"
     borderopacity="1.0"
     inkscape:pageopacity="0.0"
     inkscape:pageshadow="2"
     inkscape:zoom="31.678384"
     inkscape:cx="1.7582079"
     inkscape:cy="7.730104"
     inkscape:document-units="px"
     inkscape:current-layer="g2959"
     showgrid="true"
     units="px"
     inkscape:showpageshadow="false"
     inkscape:snap-bbox="true"
     inkscape:bbox-paths="true"
     inkscape:bbox-nodes="true"
     inkscape:snap-bbox-edge-midpoints="true"
     inkscape:snap-bbox-midpoints="true"
     inkscape:object-paths="true"
     inkscape:snap-intersection-paths="true"
     inkscape:window-width="1874"
     inkscape:window-height="1141"
     inkscape:window-x="46"
     inkscape:window-y="30"
     inkscape:window-maximized="1">
    <inkscape:grid
       type="xygrid"
       id="grid815" />
  </sodipodi:namedview>
  <metadata
     id="metadata5">
    <rdf:RDF>
      <cc:Work
         rdf:about="">
        <dc:format>image/svg+xml</dc:format>
        <dc:type
           rdf:resource="http://purl.org/dc/dcmitype/StillImage" />
        <dc:title></dc:title>
      </cc:Work>
    </rdf:RDF>
  </metadata>
  <g
     inkscape:label="Capa 1"
     inkscape:groupmode="layer"
     id="layer1"
     transform="translate(0,-292.76666)">
    <g
       id="g2959"
       transform="translate(1.057647,-0.26546327)">
      <g
         id="g3043"
         transform="translate(0,0.52867852)">
        <path
           id="path3017"
           d="m 1.1582384,292.77099 c -0.1000964,-0.005 -0.20038909,-0.003 -0.2997232,0.008 -0.39733723,0.0431 -0.78037002,0.2143 -1.08365502,0.50591 -0.60657075,0.5832 -0.74343635,1.506 -0.33227937,2.24017 0.41115589,0.73417 1.26991244,1.09923 2.08411049,0.88677 0.8141981,-0.21246 1.3849274,-0.9512 1.3849284,-1.79266 A 0.26460979,0.26460979 0 0 0 2.6460029,294.35539 H 1.5308254 l 0.5839437,-0.95136 a 0.26460979,0.26460979 0 0 0 -0.08785,-0.36329 c -0.269049,-0.16487 -0.5683917,-0.25372 -0.8686807,-0.26975 z"
           style="color:#000000;font-style:normal;font-variant:normal;font-weight:normal;font-stretch:normal;font-size:medium;line-height:normal;font-family:sans-serif;font-variant-ligatures:normal;font-variant-position:normal;font-variant-caps:normal;font-variant-numeric:normal;font-variant-alternates:normal;font-feature-settings:normal;text-indent:0;text-align:start;text-decoration:none;text-decoration-line:none;text-decoration-style:solid;text-decoration-color:#000000;letter-spacing:normal;word-spacing:normal;text-transform:none;writing-mode:lr-tb;direction:ltr;text-orientation:mixed;dominant-baseline:auto;baseline-shift:baseline;text-anchor:start;white-space:normal;shape-padding:0;clip-rule:nonzero;display:inline;overflow:visible;visibility:visible;opacity:1;isolation:auto;mix-blend-mode:normal;color-interpolation:sRGB;color-interpolation-filters:linearRGB;solid-color:#000000;solid-opacity:1;vector-effect:none;fill:#fca526;fill-opacity:1;fill-rule:nonzero;stroke:none;stroke-width:0.52916664;stroke-linecap:round;stroke-linejoin:round;stroke-miterlimit:4;stroke-dasharray:none;stroke-dashoffset:0;stroke-opacity:1;paint-order:fill markers stroke;color-rendering:auto;image-rendering:auto;shape-rendering:auto;text-rendering:auto;enable-background:accumulate"
           inkscape:connector-curvature="0" />
        <path
           id="path2344-2"
           d="m 1.1029447,293.03248 a 1.5875,1.5875 0 0 0 -1.15186779,0.4501 1.5875,1.5875 0 0 0 -0.27388502,1.91874 1.5875,1.5875 0 0 0 1.78593751,0.75345 1.5875,1.5875 0 0 0 1.1833903,-1.53531 H 1.0590196 l 0.8175213,-1.36064 a 1.5875,1.5875 0 0 0 -0.7735962,-0.22634 z m -0.70538341,0.79323 c 0.21986875,0 0.396875,0.17701 0.396875,0.39687 0,0.21987 -0.17700625,0.39688 -0.396875,0.39688 -0.21986875,0 -0.39687500166,-0.17701 -0.39687500166,-0.39688 0,-0.21986 0.17700625166,-0.39687 0.39687500166,-0.39687 z"
           style="opacity:1;fill:#ffd94c;fill-opacity:1;stroke:none;stroke-width:0.45357141;stroke-linecap:round;stroke-linejoin:round;stroke-miterlimit:4;stroke-dasharray:none;stroke-opacity:1;paint-order:fill markers stroke"
           inkscape:connector-curvature="0" />
      </g>
    </g>
  </g>
</svg>
