<?xml version="1.0" encoding="UTF-8" standalone="no"?>
<!-- Created with Inkscape (http://www.inkscape.org/) -->

<svg
   width="16"
   height="16"
   viewBox="0 0 4.2333331 4.2333332"
   version="1.1"
   id="svg1399"
   inkscape:version="1.2 (dc2aedaf03, 2022-05-15)"
   sodipodi:docname="folder-torrents.svg"
   xml:space="preserve"
   xmlns:inkscape="http://www.inkscape.org/namespaces/inkscape"
   xmlns:sodipodi="http://sodipodi.sourceforge.net/DTD/sodipodi-0.dtd"
   xmlns="http://www.w3.org/2000/svg"
   xmlns:svg="http://www.w3.org/2000/svg"
   xmlns:rdf="http://www.w3.org/1999/02/22-rdf-syntax-ns#"
   xmlns:cc="http://creativecommons.org/ns#"
   xmlns:dc="http://purl.org/dc/elements/1.1/"><defs
     id="defs1393" /><sodipodi:namedview
     id="base"
     pagecolor="#ffffff"
     bordercolor="#666666"
     borderopacity="1.0"
     inkscape:pageopacity="0.0"
     inkscape:pageshadow="2"
     inkscape:zoom="31.678384"
     inkscape:cx="8.6809984"
     inkscape:cy="8.5705129"
     inkscape:document-units="px"
     inkscape:current-layer="g1485"
     showgrid="true"
     inkscape:showpageshadow="false"
     units="px"
     inkscape:window-width="2160"
     inkscape:window-height="1337"
     inkscape:window-x="0"
     inkscape:window-y="0"
     inkscape:window-maximized="1"
     inkscape:pagecheckerboard="0"
     inkscape:deskcolor="#d1d1d1"><inkscape:grid
       type="xygrid"
       id="grid894" /></sodipodi:namedview><metadata
     id="metadata1396"><rdf:RDF><cc:Work
         rdf:about=""><dc:format>image/svg+xml</dc:format><dc:type
           rdf:resource="http://purl.org/dc/dcmitype/StillImage" /><dc:title /></cc:Work></rdf:RDF></metadata><g
     inkscape:label="Capa 1"
     inkscape:groupmode="layer"
     id="layer1"
     transform="translate(0,-292.76671)"><g
       id="g1485"
       transform="translate(15.880818,-2.2833569)"><g
         id="path1728"><path
           style="color:#000000;fill:#6e7cd4;stroke-linecap:round;stroke-miterlimit:1.8;-inkscape-stroke:none;paint-order:fill markers stroke;fill-opacity:1"
           d="m -13.71875,295.31445 c -0.506587,-0.0123 -0.997174,0.18463 -1.355469,0.54297 -0.529213,0.52916 -0.686801,1.32617 -0.40039,2.01758 0.286439,0.69125 0.962693,1.14453 1.710937,1.14453 h 1.851563 v -0.5293 -0.26562 -0.26367 -0.26563 -0.26367 -0.26562 c -2e-6,-0.74825 -0.451333,-1.42451 -1.142579,-1.71094 -0.21072,-0.0873 -0.436041,-0.13507 -0.664062,-0.14063 z"
           id="path2454" /><path
           style="color:#000000;fill:#dee1f1;stroke-width:0.529167;stroke-linecap:round;stroke-miterlimit:1.8;-inkscape-stroke:none;paint-order:fill markers stroke;fill-opacity:1"
           d="m -13.725394,295.57975 a 1.5875,1.5875 0 0 0 -1.161169,0.46457 1.5875,1.5875 0 0 0 -0.344166,1.73013 1.5875,1.5875 0 0 0 1.466578,0.97978 h 1.5875 v -0.26458 h -1.5875 a 1.3229166,1.3229166 0 0 1 -1.222148,-0.81649 1.3229166,1.3229166 0 0 1 0.286804,-1.44177 1.3229166,1.3229166 0 0 1 1.441773,-0.2868 1.3229166,1.3229166 0 0 1 0.816487,1.22214 h 0.264584 a 1.5875,1.5875 0 0 0 -0.979786,-1.46657 1.5875,1.5875 0 0 0 -0.568957,-0.12041 z m -0.03876,0.52865 a 1.0583333,1.0583333 0 0 0 -1.058334,1.05833 1.0583333,1.0583333 0 0 0 1.058334,1.05834 h 1.5875 v -0.26459 h -1.5875 a 0.79374999,0.79374999 0 0 1 -0.733289,-0.48989 0.79374999,0.79374999 0 0 1 0.172083,-0.86506 0.79374999,0.79374999 0 0 1 0.865063,-0.17209 0.79374999,0.79374999 0 0 1 0.489893,0.73329 h 0.264583 a 1.0583333,1.0583333 0 0 0 -1.058333,-1.05833 z m 0.01292,0.52917 a 0.52916664,0.52916664 0 0 0 -0.387057,0.15503 0.52916664,0.52916664 0 0 0 -0.114721,0.57671 0.52916664,0.52916664 0 0 0 0.488859,0.32659 h 1.5875 v -0.26458 h -1.5875 a 0.26458332,0.26458332 0 0 1 -0.24443,-0.1633 0.26458332,0.26458332 0 0 1 0.05736,-0.28836 0.26458332,0.26458332 0 0 1 0.288354,-0.0574 0.26458332,0.26458332 0 0 1 0.163298,0.24443 h 0.264583 a 0.52916664,0.52916664 0 0 0 -0.326595,-0.48886 0.52916664,0.52916664 0 0 0 -0.189652,-0.0403 z"
           id="path2447" /></g></g></g></svg>
