<?xml version="1.0" encoding="UTF-8" standalone="no"?>
<!-- Created with Inkscape (http://www.inkscape.org/) -->

<svg
   width="16"
   height="16"
   viewBox="0 0 4.2333332 4.2333335"
   version="1.1"
   id="svg8"
   inkscape:version="1.2.1 (9c6d41e410, 2022-07-14)"
   sodipodi:docname="folder-mail.svg"
   xmlns:inkscape="http://www.inkscape.org/namespaces/inkscape"
   xmlns:sodipodi="http://sodipodi.sourceforge.net/DTD/sodipodi-0.dtd"
   xmlns="http://www.w3.org/2000/svg"
   xmlns:svg="http://www.w3.org/2000/svg"
   xmlns:rdf="http://www.w3.org/1999/02/22-rdf-syntax-ns#"
   xmlns:cc="http://creativecommons.org/ns#"
   xmlns:dc="http://purl.org/dc/elements/1.1/">
  <defs
     id="defs2" />
  <sodipodi:namedview
     id="base"
     pagecolor="#ffffff"
     bordercolor="#666666"
     borderopacity="1.0"
     inkscape:pageopacity="0.0"
     inkscape:pageshadow="2"
     inkscape:zoom="31.678384"
     inkscape:cx="-3.7407211"
     inkscape:cy="11.001192"
     inkscape:document-units="px"
     inkscape:current-layer="layer1"
     showgrid="true"
     units="px"
     inkscape:showpageshadow="false"
     inkscape:snap-bbox="true"
     inkscape:bbox-paths="true"
     inkscape:bbox-nodes="true"
     inkscape:snap-bbox-edge-midpoints="true"
     inkscape:snap-bbox-midpoints="true"
     inkscape:object-paths="true"
     inkscape:snap-intersection-paths="true"
     inkscape:window-width="2160"
     inkscape:window-height="1335"
     inkscape:window-x="0"
     inkscape:window-y="0"
     inkscape:window-maximized="1"
     inkscape:pagecheckerboard="0"
     inkscape:deskcolor="#d1d1d1">
    <inkscape:grid
       type="xygrid"
       id="grid815" />
  </sodipodi:namedview>
  <metadata
     id="metadata5">
    <rdf:RDF>
      <cc:Work
         rdf:about="">
        <dc:format>image/svg+xml</dc:format>
        <dc:type
           rdf:resource="http://purl.org/dc/dcmitype/StillImage" />
        <dc:title />
      </cc:Work>
    </rdf:RDF>
  </metadata>
  <g
     inkscape:label="Capa 1"
     inkscape:groupmode="layer"
     id="layer1"
     transform="translate(0,-292.76666)">
    <path
       id="path37648"
       style="fill:#3ba0f3;fill-opacity:1;stroke:none;stroke-width:0.529167;stroke-linecap:round;stroke-linejoin:round;stroke-miterlimit:1.8;paint-order:fill markers stroke;stop-color:#000000"
       d="m 0.52916665,296.47855 c 0,0.14657 0.11801,0.26458 0.26459,0.26458 0,-0.009 7.8e-4,-0.018 0.00206,-0.0269 9e-4,-0.009 0.00214,-0.0177 0.00414,-0.0264 0.002,-0.009 0.00372,-0.0175 0.00672,-0.0258 0.003,-0.008 0.0053,-0.0164 0.0093,-0.0243 0.003,-0.008 0.00697,-0.0152 0.01137,-0.0227 0.004,-0.007 0.00802,-0.0152 0.01292,-0.0222 0.005,-0.007 0.0101,-0.0136 0.0155,-0.0202 0.005,-0.007 0.01063,-0.0126 0.01653,-0.0186 0.006,-0.006 0.01211,-0.0117 0.01861,-0.0171 0.007,-0.005 0.01357,-0.0108 0.02067,-0.0155 0.007,-0.005 0.01472,-0.009 0.02222,-0.0129 0.007,-0.004 0.01432,-0.008 0.02222,-0.0114 0.008,-0.003 0.01599,-0.006 0.02429,-0.009 0.008,-0.003 0.01724,-0.005 0.0258399,-0.007 0.009,-0.002 0.01735,-0.003 0.02635,-0.004 0.009,-9e-4 0.01819,-0.002 0.02739,-0.002 0.009,0 0.01797,6.5e-4 0.02687,0.002 0.009,9e-4 0.01766,0.002 0.02636,0.004 0.009,0.002 0.01754,0.004 0.02584,0.007 0.008,0.003 0.01638,0.005 0.02428,0.009 0.008,0.003 0.01524,0.007 0.02274,0.0114 0.007,0.004 0.01522,0.008 0.02222,0.0129 0.007,0.005 0.01356,0.0101 0.02016,0.0155 0.007,0.005 0.0126,0.0111 0.0186,0.0171 0.006,0.006 0.01114,0.0121 0.01654,0.0186 0.005,0.007 0.0108,0.0131 0.0155,0.0202 0.005,0.007 0.00902,0.0147 0.01292,0.0222 0.004,0.007 0.00848,0.0148 0.01188,0.0227 0.003,0.008 0.00579,0.016 0.00879,0.0243 0.003,0.008 0.00472,0.0172 0.00672,0.0258 0.002,0.009 0.00313,0.0174 0.00413,0.0264 9e-4,0.009 0.00207,0.0177 0.00207,0.0269 h 0.52968 c 0,-0.009 2.7e-4,-0.018 0.00207,-0.0269 9e-4,-0.009 0.00213,-0.0177 0.00413,-0.0264 0.002,-0.009 0.00372,-0.0175 0.00672,-0.0258 0.003,-0.008 0.0053,-0.0164 0.0093,-0.0243 0.003,-0.008 0.00697,-0.0152 0.01137,-0.0227 0.004,-0.007 0.00802,-0.0152 0.01292,-0.0222 0.005,-0.007 0.0101,-0.0136 0.0155,-0.0202 0.005,-0.007 0.01116,-0.0126 0.01706,-0.0186 0.006,-0.006 0.0121,-0.0117 0.0186,-0.0171 0.007,-0.005 0.01305,-0.0108 0.02015,-0.0155 0.007,-0.005 0.01472,-0.009 0.02222,-0.0129 0.007,-0.004 0.01484,-0.008 0.02274,-0.0114 0.008,-0.003 0.01599,-0.006 0.02429,-0.009 0.008,-0.003 0.01724,-0.005 0.02584,-0.007 0.009,-0.002 0.01694,-0.003 0.02584,-0.004 0.009,-9e-4 0.01818,-0.002 0.02738,-0.002 0.009,0 0.01798,6.5e-4 0.02688,0.002 0.009,9e-4 0.01765,0.002 0.02635,0.004 0.009,0.002 0.01754,0.004 0.02584,0.007 0.008,0.003 0.01639,0.005 0.02429,0.009 0.008,0.003 0.01523,0.007 0.02273,0.0114 0.007,0.004 0.01523,0.008 0.02223,0.0129 0.007,0.005 0.01355,0.0101 0.02015,0.0155 0.007,0.005 0.0126,0.0111 0.0186,0.0171 0.006,0.006 0.01166,0.0121 0.01706,0.0186 0.005,0.007 0.0107,0.0131 0.0155,0.0202 0.005,0.007 0.00902,0.0147 0.01292,0.0222 0.004,0.007 0.00797,0.0148 0.01137,0.0227 0.003,0.008 0.00578,0.016 0.00878,0.0243 0.003,0.008 0.00524,0.0172 0.00724,0.0258 0.002,0.009 0.00313,0.0174 0.00413,0.0264 9e-4,0.009 0.00155,0.0177 0.00155,0.0269 h 0.00207 0.52141 0.00775 c 0,-0.009 7.9e-4,-0.018 0.00207,-0.0269 9e-4,-0.009 0.00214,-0.0177 0.00414,-0.0264 0.002,-0.009 0.00423,-0.0175 0.00723,-0.0258 0.003,-0.008 0.00479,-0.0164 0.00879,-0.0243 0.003,-0.008 0.00698,-0.0152 0.01188,-0.0227 0.004,-0.007 0.008,-0.0152 0.0124,-0.0222 0.005,-0.007 0.01011,-0.0136 0.01551,-0.0202 0.005,-0.007 0.01115,-0.0126 0.01705,-0.0186 0.006,-0.006 0.0121,-0.0117 0.0186,-0.0171 0.007,-0.005 0.01306,-0.0108 0.02016,-0.0155 0.007,-0.005 0.01472,-0.009 0.02222,-0.0129 0.007,-0.004 0.01484,-0.008 0.02274,-0.0114 0.008,-0.003 0.01598,-0.006 0.02428,-0.009 0.008,-0.003 0.01724,-0.005 0.02584,-0.007 0.009,-0.002 0.01736,-0.003 0.02636,-0.004 0.009,-9e-4 0.01767,-0.002 0.02687,-0.002 0.009,0 0.01797,6.5e-4 0.02687,0.002 0.009,9e-4 0.01817,0.002 0.02687,0.004 0.009,0.002 0.01702,0.004 0.02532,0.007 0.008,0.003 0.01691,0.005 0.02481,0.009 0.008,0.003 0.01472,0.007 0.02222,0.0114 0.007,0.004 0.01522,0.008 0.02222,0.0129 0.007,0.005 0.01345,0.0101 0.02015,0.0155 0.007,0.005 0.01261,0.0111 0.01861,0.0171 0.006,0.006 0.01217,0.0121 0.01757,0.0186 0.005,0.007 0.0108,0.0131 0.0155,0.0202 0.005,0.007 0.00902,0.0147 0.01292,0.0222 0.004,0.007 0.00797,0.0148 0.01137,0.0227 0.003,0.008 0.0063,0.016 0.0093,0.0243 0.003,0.008 0.00472,0.0172 0.00672,0.0258 0.002,0.009 0.00313,0.0174 0.00413,0.0264 9e-4,0.009 0.00207,0.0177 0.00207,0.0269 0.14658,0 0.26458,-0.11801 0.26458,-0.26458 v -0.26459 c -0.009,0 -0.01807,-6.8e-4 -0.02687,-0.002 -0.009,-8.7e-4 -0.01734,-0.002 -0.02584,-0.004 -0.009,-0.002 -0.0166,-0.004 -0.0248,-0.006 -0.008,-0.002 -0.01649,-0.006 -0.02429,-0.009 -0.008,-0.003 -0.01534,-0.007 -0.02274,-0.0109 -0.007,-0.004 -0.0147,-0.008 -0.0217,-0.0129 -0.007,-0.005 -0.01356,-0.009 -0.02016,-0.0145 -0.006,-0.005 -0.0127,-0.0107 -0.0186,-0.0165 -0.006,-0.006 -0.01165,-0.0122 -0.01705,-0.0186 -0.005,-0.006 -0.01071,-0.0128 -0.01551,-0.0196 -0.005,-0.007 -0.00901,-0.0139 -0.01291,-0.0212 -0.004,-0.007 -0.00797,-0.015 -0.01137,-0.0227 -0.003,-0.008 -0.00731,-0.0157 -0.00931,-0.0238 -0.003,-0.008 -0.00471,-0.0164 -0.00671,-0.0248 -0.002,-0.008 -0.00417,-0.0171 -0.00517,-0.0258 -10e-4,-0.009 -0.00207,-0.0174 -0.00207,-0.0263 -5e-5,-0.002 0,-0.004 0,-0.007 0,-0.009 2.7e-4,-0.018 0.00207,-0.0269 9e-4,-0.009 0.00213,-0.0177 0.00413,-0.0264 0.002,-0.009 0.00424,-0.0175 0.00724,-0.0258 0.003,-0.008 0.00478,-0.0164 0.00878,-0.0243 0.003,-0.008 0.00697,-0.0152 0.01137,-0.0227 0.004,-0.007 0.00802,-0.0152 0.01292,-0.0222 0.005,-0.007 0.0101,-0.0136 0.0155,-0.0202 0.005,-0.007 0.01106,-0.0126 0.01706,-0.0186 0.006,-0.006 0.0121,-0.0117 0.0186,-0.017 0.007,-0.005 0.01305,-0.0108 0.02015,-0.0155 0.007,-0.005 0.01473,-0.009 0.02223,-0.0129 0.007,-0.004 0.01483,-0.008 0.02273,-0.0114 0.008,-0.003 0.01599,-0.006 0.02429,-0.009 0.008,-0.003 0.01724,-0.005 0.02584,-0.007 0.009,-0.002 0.01745,-0.003 0.02635,-0.004 0.009,-9e-4 0.01768,-0.002 0.02688,-0.002 v -0.52917 c -0.009,0 -0.01808,-6.8e-4 -0.02688,-0.002 -0.009,-8.8e-4 -0.01733,-0.002 -0.02583,-0.004 -0.009,-0.002 -0.01661,-0.004 -0.02481,-0.006 -0.008,-0.002 -0.01649,-0.006 -0.02429,-0.009 -0.008,-0.003 -0.01533,-0.007 -0.02273,-0.0109 -0.007,-0.004 -0.01471,-0.008 -0.02171,-0.0129 -0.007,-0.005 -0.01365,-0.009 -0.02015,-0.0145 -0.006,-0.005 -0.01271,-0.0107 -0.01861,-0.0165 -0.006,-0.006 -0.01165,-0.0122 -0.01705,-0.0186 -0.005,-0.006 -0.0107,-0.0128 -0.0155,-0.0196 -0.005,-0.007 -0.00902,-0.0139 -0.01292,-0.0212 -0.004,-0.007 -0.00797,-0.015 -0.01137,-0.0227 -0.003,-0.008 -0.00679,-0.0157 -0.00879,-0.0238 -0.003,-0.008 -0.00523,-0.0164 -0.00723,-0.0248 -0.002,-0.008 -0.00417,-0.0171 -0.00517,-0.0258 -10e-4,-0.009 -0.00206,-0.0174 -0.00206,-0.0264 -5e-5,-0.002 0,-0.004 0,-0.007 0,-0.009 2.6e-4,-0.018 0.00206,-0.0269 9e-4,-0.009 0.00214,-0.0177 0.00414,-0.0264 0.002,-0.009 0.00423,-0.0175 0.00723,-0.0258 0.003,-0.008 0.00479,-0.0164 0.00879,-0.0243 0.003,-0.008 0.00697,-0.0152 0.01137,-0.0227 0.004,-0.007 0.00801,-0.0152 0.01291,-0.0222 0.005,-0.007 0.01011,-0.0136 0.01551,-0.0202 0.005,-0.007 0.01115,-0.0126 0.01705,-0.0186 0.006,-0.006 0.0121,-0.0117 0.0186,-0.0171 0.007,-0.005 0.01306,-0.0108 0.02016,-0.0155 0.007,-0.005 0.01472,-0.009 0.02222,-0.0129 0.007,-0.004 0.01484,-0.008 0.02274,-0.0114 0.008,-0.003 0.01598,-0.006 0.02428,-0.009 0.008,-0.003 0.01724,-0.005 0.02584,-0.007 0.009,-0.002 0.01736,-0.003 0.02636,-0.004 0.009,-9e-4 0.01767,-0.002 0.02687,-0.002 v -0.52916 c -0.009,0 -0.01807,-6.8e-4 -0.02687,-0.002 -0.009,-8.7e-4 -0.01734,-0.002 -0.02584,-0.004 -0.009,-0.002 -0.01661,-0.004 -0.02481,-0.006 -0.008,-0.002 -0.01648,-0.006 -0.02428,-0.009 -0.008,-0.003 -0.01534,-0.007 -0.02274,-0.0109 -0.007,-0.004 -0.01471,-0.008 -0.02171,-0.0129 -0.007,-0.005 -0.01365,-0.009 -0.02015,-0.0145 -0.006,-0.005 -0.0127,-0.0107 -0.0186,-0.0165 -0.006,-0.006 -0.01166,-0.0122 -0.01706,-0.0186 -0.005,-0.006 -0.0107,-0.0128 -0.0155,-0.0196 -0.005,-0.007 -0.00902,-0.0139 -0.01292,-0.0212 -0.004,-0.007 -0.00797,-0.015 -0.01137,-0.0227 -0.003,-0.008 -0.00678,-0.0157 -0.00878,-0.0238 -0.003,-0.008 -0.00524,-0.0164 -0.00724,-0.0248 -0.002,-0.008 -0.00416,-0.0171 -0.00516,-0.0258 -0.001,-0.009 -0.00155,-0.0174 -0.00155,-0.0263 -5e-5,-0.002 0,-0.004 0,-0.007 0,-0.009 2.7e-4,-0.0179 0.00155,-0.0269 9e-4,-0.009 0.00213,-0.0177 0.00413,-0.0264 0.002,-0.009 0.00423,-0.0175 0.00723,-0.0258 0.003,-0.008 0.00479,-0.0164 0.00879,-0.0243 0.003,-0.008 0.00697,-0.0152 0.01137,-0.0227 0.004,-0.007 0.00802,-0.0152 0.01292,-0.0222 0.005,-0.007 0.0101,-0.0136 0.0155,-0.0202 0.005,-0.007 0.01105,-0.0126 0.01705,-0.0186 0.006,-0.006 0.01211,-0.0117 0.01861,-0.017 0.007,-0.005 0.01295,-0.0108 0.02015,-0.0155 0.007,-0.005 0.01472,-0.009 0.02222,-0.0129 0.007,-0.004 0.01484,-0.008 0.02274,-0.0114 0.008,-0.003 0.01599,-0.006 0.02429,-0.009 0.008,-0.003 0.01724,-0.005 0.02584,-0.007 0.009,-0.002 0.01735,-0.003 0.02635,-0.004 0.009,-9e-4 0.01767,-0.002 0.02687,-0.002 v -0.26458 c 0,-0.14658 -0.118,-0.26459 -0.2645801,-0.26459 0,0.009 -7.8e-4,0.018 -0.00207,0.0269 -9e-4,0.009 -0.00161,0.0177 -0.00361,0.0264 -0.002,0.009 -0.00424,0.0175 -0.00724,0.0258 -0.003,0.008 -0.00478,0.0164 -0.00878,0.0243 -0.003,0.008 -0.00697,0.0152 -0.01137,0.0227 -0.004,0.007 -0.00802,0.0152 -0.01292,0.0222 -0.005,0.007 -0.01011,0.0136 -0.01551,0.0202 -0.005,0.007 -0.01115,0.0126 -0.01705,0.0186 -0.006,0.006 -0.0121,0.0117 -0.0186,0.017 -0.007,0.005 -0.01296,0.0108 -0.02016,0.0155 -0.007,0.005 -0.01472,0.009 -0.02222,0.0129 -0.007,0.004 -0.01483,0.008 -0.02273,0.0114 -0.008,0.003 -0.01599,0.006 -0.02429,0.009 -0.008,0.003 -0.01724,0.005 -0.02584,0.007 -0.009,0.002 -0.01736,0.003 -0.02636,0.004 -0.009,9e-4 -0.01767,0.002 -0.02687,0.002 -0.009,0 -0.01807,-6.8e-4 -0.02687,-0.002 -0.009,-8.7e-4 -0.01734,-0.002 -0.02584,-0.004 -0.008,-0.002 -0.0166,-0.004 -0.0248,-0.006 -0.008,-0.002 -0.01649,-0.006 -0.02429,-0.009 -0.008,-0.003 -0.01534,-0.007 -0.02274,-0.0109 -0.007,-0.004 -0.0147,-0.008 -0.0217,-0.0129 -0.007,-0.005 -0.01356,-0.009 -0.02016,-0.0145 -0.006,-0.005 -0.0126,-0.0107 -0.0186,-0.0165 -0.006,-0.006 -0.01175,-0.0122 -0.01705,-0.0186 -0.005,-0.006 -0.01071,-0.0128 -0.01551,-0.0196 -0.005,-0.007 -0.00901,-0.0139 -0.01291,-0.0212 -0.004,-0.007 -0.00797,-0.015 -0.01137,-0.0227 -0.003,-0.008 -0.0073,-0.0157 -0.0093,-0.0238 -0.003,-0.008 -0.00472,-0.0164 -0.00672,-0.0248 -0.002,-0.008 -0.00417,-0.0171 -0.00517,-0.0258 -10e-4,-0.009 -0.00207,-0.0174 -0.00207,-0.0263 -6e-5,-0.002 0,-0.004 0,-0.007 h -0.01292 -0.51624 -0.00207 c 0,0.009 -2.7e-4,0.018 -0.00155,0.0269 -9e-4,0.009 -0.00214,0.0177 -0.00414,0.0264 -0.002,0.009 -0.00423,0.0175 -0.00723,0.0258 -0.003,0.008 -0.00479,0.0164 -0.00879,0.0243 -0.003,0.008 -0.00696,0.0152 -0.01136,0.0227 -0.004,0.007 -0.00802,0.0152 -0.01292,0.0222 -0.005,0.007 -0.01011,0.0136 -0.01551,0.0202 -0.005,0.007 -0.01115,0.0126 -0.01705,0.0186 -0.006,0.006 -0.0121,0.0117 -0.0186,0.017 -0.007,0.005 -0.01306,0.0108 -0.02016,0.0155 -0.007,0.005 -0.01472,0.009 -0.02222,0.0129 -0.007,0.004 -0.01484,0.008 -0.02274,0.0114 -0.008,0.003 -0.01598,0.006 -0.02428,0.009 -0.008,0.003 -0.01724,0.005 -0.02584,0.007 -0.009,0.002 -0.01736,0.003 -0.02636,0.004 -0.009,9e-4 -0.01767,0.002 -0.02687,0.002 -0.009,0 -0.01807,-6.8e-4 -0.02687,-0.002 -0.009,-8.7e-4 -0.01734,-0.002 -0.02584,-0.004 -0.008,-0.002 -0.0166,-0.004 -0.0248,-0.006 -0.008,-0.002 -0.01649,-0.006 -0.02429,-0.009 -0.008,-0.003 -0.01534,-0.007 -0.02274,-0.0109 -0.007,-0.004 -0.0147,-0.008 -0.0217,-0.0129 -0.007,-0.005 -0.01366,-0.009 -0.02016,-0.0145 -0.006,-0.005 -0.0127,-0.0107 -0.0186,-0.0165 -0.006,-0.006 -0.01185,-0.0122 -0.01705,-0.0186 -0.005,-0.006 -0.01071,-0.0128 -0.01551,-0.0196 -0.005,-0.007 -0.00902,-0.0139 -0.01292,-0.0212 -0.004,-0.007 -0.00796,-0.015 -0.01136,-0.0227 -0.003,-0.008 -0.00679,-0.0157 -0.00879,-0.0238 -0.003,-0.008 -0.00523,-0.0164 -0.00723,-0.0248 -0.002,-0.008 -0.00417,-0.0171 -0.00517,-0.0258 -0.001,-0.009 -0.00207,-0.0174 -0.00207,-0.0263 -6e-5,-0.002 0,-0.004 0,-0.007 h -0.52916 c 0,0.009 2.4e-4,0.018 -0.00156,0.0269 -9e-4,0.009 -0.00213,0.0177 -0.00413,0.0264 -0.002,0.009 -0.00423,0.0175 -0.00723,0.0258 -0.003,0.008 -0.00479,0.0164 -0.00879,0.0243 -0.003,0.008 -0.00697,0.0152 -0.01137,0.0227 -0.004,0.007 -0.00802,0.0152 -0.01292,0.0222 -0.005,0.007 -0.0101,0.0136 -0.0155,0.0202 -0.005,0.007 -0.01105,0.0126 -0.01705,0.0186 -0.006,0.006 -0.01211,0.0117 -0.01861,0.017 -0.007,0.005 -0.01305,0.0108 -0.02015,0.0155 -0.007,0.005 -0.01472,0.009 -0.02222,0.0129 -0.007,0.004 -0.01484,0.008 -0.02274,0.0114 -0.008,0.003 -0.01599,0.006 -0.02429,0.009 -0.008,0.003 -0.01724,0.005 -0.02584,0.007 -0.009,0.002 -0.01735,0.003 -0.02635,0.004 -0.009,9e-4 -0.01767,0.002 -0.02687,0.002 -0.009,0 -0.01807,-6.8e-4 -0.02687,-0.002 -0.009,-8.7e-4 -0.01734,-0.002 -0.02584,-0.004 -0.008,-0.002 -0.0166099,-0.004 -0.0248099,-0.006 -0.008,-0.002 -0.01648,-0.006 -0.02428,-0.009 -0.008,-0.003 -0.01534,-0.007 -0.02274,-0.0109 -0.007,-0.004 -0.01471,-0.008 -0.02171,-0.0129 -0.007,-0.005 -0.01365,-0.009 -0.02015,-0.0145 -0.006,-0.005 -0.0126,-0.0107 -0.0186,-0.0165 -0.006,-0.006 -0.01166,-0.0122 -0.01706,-0.0186 -0.005,-0.006 -0.0107,-0.0128 -0.0155,-0.0196 -0.005,-0.007 -0.00902,-0.0139 -0.01292,-0.0212 -0.004,-0.007 -0.00797,-0.015 -0.01137,-0.0227 -0.003,-0.008 -0.0073,-0.0157 -0.0093,-0.0238 -0.003,-0.008 -0.00472,-0.0164 -0.00672,-0.0248 -0.002,-0.008 -0.00416,-0.0171 -0.00516,-0.0258 -10e-4,-0.009 -0.00207,-0.0174 -0.00207,-0.0263 -6e-5,-0.002 0,-0.004 0,-0.007 -0.14658,0 -0.26459,0.11801 -0.26459,0.26459 v 0.26458 c 0.009,0 0.01798,6.5e-4 0.02688,0.002 0.009,9e-4 0.01775,0.002 0.02635,0.004 0.009,0.002 0.01754,0.004 0.02584,0.007 0.008,0.003 0.01639,0.005 0.02429,0.009 0.008,0.003 0.01524,0.007 0.02274,0.0114 0.007,0.004 0.01522,0.008 0.02222,0.0129 0.007,0.005 0.01355,0.0101 0.02015,0.0155 0.007,0.005 0.0126,0.0111 0.0186,0.017 0.006,0.006 0.01166,0.0121 0.01706,0.0186 0.005,0.007 0.0107,0.0131 0.0155,0.0202 0.005,0.007 0.00902,0.0147 0.01292,0.0222 0.004,0.007 0.00797,0.0148 0.01137,0.0227 0.003,0.008 0.0063,0.016 0.0093,0.0243 0.003,0.008 0.00472,0.0172 0.00672,0.0258 0.002,0.009 0.00313,0.0174 0.00413,0.0264 9e-4,0.009 0.00207,0.0177 0.00207,0.0269 0,0.009 -7.9e-4,0.018 -0.00207,0.0269 -9e-4,0.009 -0.00213,0.0177 -0.00413,0.0264 -0.002,0.009 -0.00372,0.0175 -0.00672,0.0258 -0.003,0.008 -0.0053,0.0164 -0.0093,0.0243 -0.003,0.008 -0.00697,0.0152 -0.01137,0.0227 -0.004,0.007 -0.00802,0.0152 -0.01292,0.0222 -0.005,0.007 -0.0101,0.0136 -0.0155,0.0202 -0.005,0.007 -0.01106,0.0126 -0.01706,0.0186 -0.006,0.006 -0.0121,0.0117 -0.0186,0.017 -0.007,0.005 -0.01295,0.0108 -0.02015,0.0155 -0.007,0.005 -0.01472,0.009 -0.02222,0.0129 -0.007,0.004 -0.01484,0.008 -0.02274,0.0114 -0.008,0.003 -0.01599,0.006 -0.02429,0.009 -0.008,0.003 -0.01724,0.005 -0.02584,0.007 -0.009,0.002 -0.01745,0.003 -0.02635,0.004 -0.009,9e-4 -0.01768,0.002 -0.02688,0.002 v 0.52916 c 0.009,0 0.01798,6.5e-4 0.02688,0.002 0.009,9e-4 0.01775,0.002 0.02635,0.004 0.009,0.002 0.01754,0.004 0.02584,0.007 0.008,0.003 0.01639,0.005 0.02429,0.009 0.008,0.003 0.01524,0.007 0.02274,0.0114 0.007,0.004 0.01522,0.008 0.02222,0.0129 0.007,0.005 0.01355,0.0101 0.02015,0.0155 0.007,0.005 0.0126,0.0111 0.0186,0.0171 0.006,0.006 0.01166,0.0121 0.01706,0.0186 0.005,0.007 0.0107,0.0131 0.0155,0.0202 0.005,0.007 0.00902,0.0147 0.01292,0.0222 0.004,0.007 0.00797,0.0148 0.01137,0.0227 0.003,0.008 0.0063,0.016 0.0093,0.0243 0.003,0.008 0.00472,0.0172 0.00672,0.0258 0.002,0.009 0.00313,0.0174 0.00413,0.0264 9e-4,0.009 0.00207,0.0177 0.00207,0.0269 0,0.009 -7.9e-4,0.0179 -0.00207,0.0269 -9e-4,0.009 -0.00213,0.0177 -0.00413,0.0263 -0.002,0.009 -0.00372,0.0176 -0.00672,0.0258 -0.003,0.008 -0.0053,0.0164 -0.0093,0.0243 -0.003,0.008 -0.00697,0.0152 -0.01137,0.0227 -0.004,0.007 -0.00802,0.0152 -0.01292,0.0222 -0.005,0.007 -0.0101,0.0136 -0.0155,0.0202 -0.005,0.007 -0.01106,0.0126 -0.01706,0.0186 -0.006,0.006 -0.0121,0.0117 -0.0186,0.0171 -0.007,0.005 -0.01295,0.0107 -0.02015,0.0155 -0.007,0.005 -0.01472,0.009 -0.02222,0.0129 -0.007,0.004 -0.01484,0.008 -0.02274,0.0114 -0.008,0.003 -0.01599,0.006 -0.02429,0.009 -0.008,0.003 -0.01724,0.005 -0.02584,0.007 -0.009,0.002 -0.01745,0.003 -0.02635,0.004 -0.009,9e-4 -0.01768,0.002 -0.02688,0.002 v 0.52917 c 0.009,0 0.01798,6.5e-4 0.02688,0.002 0.009,9e-4 0.01775,0.002 0.02635,0.004 0.009,0.002 0.01754,0.004 0.02584,0.007 0.008,0.003 0.01639,0.005 0.02429,0.009 0.008,0.003 0.01524,0.007 0.02274,0.0114 0.007,0.004 0.01522,0.008 0.02222,0.0129 0.007,0.005 0.01355,0.0101 0.02015,0.0155 0.007,0.005 0.0126,0.0111 0.0186,0.017 0.006,0.006 0.01166,0.0121 0.01706,0.0186 0.005,0.007 0.0107,0.0131 0.0155,0.0202 0.005,0.007 0.00902,0.0147 0.01292,0.0222 0.004,0.007 0.00797,0.0148 0.01137,0.0227 0.003,0.008 0.0063,0.016 0.0093,0.0243 0.003,0.008 0.00472,0.0172 0.00672,0.0258 0.002,0.009 0.00313,0.0174 0.00413,0.0264 9e-4,0.009 0.00207,0.0177 0.00207,0.0269 0,0.009 -7.9e-4,0.018 -0.00207,0.0269 -9e-4,0.009 -0.00213,0.0177 -0.00413,0.0264 -0.002,0.009 -0.00372,0.0175 -0.00672,0.0258 -0.003,0.008 -0.0053,0.0164 -0.0093,0.0243 -0.003,0.008 -0.00697,0.0152 -0.01137,0.0227 -0.004,0.007 -0.00802,0.0152 -0.01292,0.0222 -0.005,0.007 -0.0101,0.0136 -0.0155,0.0202 -0.005,0.007 -0.01106,0.0126 -0.01706,0.0186 -0.006,0.006 -0.0121,0.0117 -0.0186,0.0171 -0.007,0.005 -0.01295,0.0108 -0.02015,0.0155 -0.007,0.005 -0.01472,0.009 -0.02222,0.0129 -0.007,0.004 -0.01484,0.008 -0.02274,0.0114 -0.008,0.003 -0.01599,0.006 -0.02429,0.009 -0.008,0.003 -0.01724,0.005 -0.02584,0.007 -0.009,0.002 -0.01745,0.003 -0.02635,0.004 -0.009,9e-4 -0.01768,0.002 -0.02688,0.002 z"
       sodipodi:nodetypes="cccccccccccccccccscccccccsccccccccccccccccccccccccscccccccsccccccccccccccccccccccccccscccccccsccccccccscccccccscccccccccscccccccscccccccccccccccccccccccccscccccccccccccccccccccccccccccccccscccccccsccccccccsccccccccccccccccsccccccsccccccccccccccccccccccccccccscccccccccccccccccccccccccscccccccscccccccccccccccccsccccccccccccccccscccccccsccccccccccccccccscccccccscccccccsccccccccccccccccccccccccscccccccsccccccccc" />
    <path
       id="path37832"
       style="opacity:1;fill:#c6e5ff;fill-opacity:1;stroke-width:0.529167;stroke-linecap:round;stroke-linejoin:round;stroke-miterlimit:1.8;paint-order:fill markers stroke;stop-color:#000000"
       d="m 2.9104166,293.29583 -0.3348633,5.2e-4 c -0.00199,0.003 -0.00413,0.007 -0.0062,0.01 -0.00441,0.007 -0.00869,0.0142 -0.013436,0.0212 -0.00474,0.007 -0.00992,0.0142 -0.014986,0.0212 -0.00507,0.007 -0.010123,0.0131 -0.015503,0.0202 -0.00538,0.006 -0.010847,0.0131 -0.016537,0.0191 -0.00569,0.006 -0.01159,0.0126 -0.01757,0.0186 -0.00598,0.006 -0.012344,0.0116 -0.018604,0.0176 -0.00626,0.006 -0.01259,0.0115 -0.01912,0.0165 -0.00653,0.005 -0.013364,0.0105 -0.020154,0.0155 -0.00679,0.005 -0.013631,0.01 -0.020671,0.015 -0.00703,0.004 -0.013917,0.009 -0.021187,0.0134 -0.00727,0.004 -0.014721,0.009 -0.022221,0.0129 -0.0075,0.004 -0.015028,0.007 -0.022738,0.0114 -0.00771,0.004 -0.015851,0.008 -0.023771,0.0109 -0.00792,0.003 -0.015661,0.006 -0.023771,0.009 -0.00811,0.003 -0.016515,0.005 -0.024805,0.008 -0.00829,0.002 -0.016852,0.005 -0.025321,0.007 -0.00847,0.002 -0.016691,0.004 -0.025322,0.006 -0.00863,0.002 -0.017575,0.004 -0.026355,0.005 -0.00878,0.002 -0.017435,0.003 -0.026355,0.004 -0.00892,10e-4 -0.017832,0.002 -0.026872,0.002 -0.00904,4.6e-4 -0.018229,5.2e-4 -0.027389,5.2e-4 -0.00916,0 -0.018344,-6e-5 -0.027388,-5.2e-4 -0.00904,-4.5e-4 -0.017956,-0.001 -0.026872,-0.002 -0.00892,-9e-4 -0.017579,-0.002 -0.026355,-0.004 -0.00878,-0.001 -0.017728,-0.003 -0.026355,-0.005 -0.00863,-0.002 -0.016855,-0.004 -0.025322,-0.006 -0.00847,-0.002 -0.017026,-0.005 -0.025321,-0.007 -0.00829,-0.003 -0.016692,-0.005 -0.024805,-0.008 -0.00811,-0.003 -0.015852,-0.006 -0.023771,-0.009 -0.00792,-0.003 -0.016057,-0.007 -0.023771,-0.0109 -0.00771,-0.004 -0.015239,-0.007 -0.022738,-0.0114 -0.0075,-0.004 -0.014948,-0.009 -0.022221,-0.0129 -0.00727,-0.004 -0.014152,-0.009 -0.021187,-0.0134 -0.00704,-0.005 -0.013883,-0.01 -0.020671,-0.015 -0.00679,-0.005 -0.013626,-0.0101 -0.020154,-0.0155 -0.00653,-0.005 -0.012862,-0.0109 -0.01912,-0.0165 -0.00626,-0.006 -0.012626,-0.0116 -0.018603,-0.0176 -0.00598,-0.006 -0.011884,-0.0124 -0.01757,-0.0186 -0.00569,-0.006 -0.011153,-0.0126 -0.016537,-0.0191 -0.00538,-0.007 -0.010433,-0.0134 -0.015503,-0.0202 -0.00507,-0.007 -0.010241,-0.0136 -0.014986,-0.0207 -0.00475,-0.007 -0.00903,-0.0139 -0.013436,-0.0212 -0.00207,-0.003 -0.00421,-0.007 -0.0062,-0.0103 H 1.3229166 c 0,0.005 -2.89e-4,0.009 -5.168e-4,0.0134 -2.277e-4,0.005 -5.835e-4,0.01 -0.00103,0.014 -4.5e-4,0.004 -8.834e-4,0.009 -0.00155,0.0129 -6.669e-4,0.004 -0.00119,0.009 -0.00207,0.0129 -8.782e-4,0.004 -0.00202,0.009 -0.0031,0.0129 -0.00108,0.004 -0.00233,0.009 -0.00362,0.0129 -0.00128,0.004 -0.00265,0.008 -0.00413,0.0119 -0.00148,0.004 -0.00298,0.008 -0.00465,0.0124 -0.00167,0.004 -0.00331,0.008 -0.00517,0.0114 -0.00185,0.004 -0.00417,0.008 -0.0062,0.0114 -0.00203,0.004 -0.004,0.008 -0.0062,0.0114 -0.00221,0.004 -0.00435,0.007 -0.00672,0.0109 -0.00237,0.004 -0.0047,0.007 -0.00723,0.0103 -0.00253,0.003 -0.00558,0.007 -0.00827,0.01 -0.00269,0.003 -0.00543,0.007 -0.00827,0.01 -0.00284,0.003 -0.0058,0.006 -0.00879,0.009 -0.00299,0.003 -0.00566,0.006 -0.00879,0.009 -0.00313,0.003 -0.00655,0.006 -0.00982,0.008 -0.00326,0.003 -0.00642,0.006 -0.00982,0.008 -0.00339,0.003 -0.00682,0.005 -0.010335,0.007 -0.00352,0.002 -0.00722,0.005 -0.010852,0.007 -0.00364,0.002 -0.00762,0.004 -0.011369,0.006 -0.00375,0.002 -0.00751,0.004 -0.011369,0.006 -0.00386,0.002 -0.00741,0.003 -0.011369,0.005 -0.00396,0.002 -0.00835,0.003 -0.012402,0.005 -0.00406,0.001 -0.00774,0.003 -0.011886,0.004 -0.00415,0.001 -0.00869,0.003 -0.012919,0.004 -0.00423,0.001 -0.00861,0.002 -0.012919,0.003 -0.00431,8.8e-4 -0.00853,0.001 -0.012919,0.002 -0.00439,6.7e-4 -0.00898,0.001 -0.013436,0.002 -0.00446,4.5e-4 -0.00891,8.1e-4 -0.013436,0.001 -0.00452,2.3e-4 -0.00886,5.2e-4 -0.013436,5.2e-4 h -0.0702799 c 0.002257,0.004 0.00456,0.008 0.006718,0.0119 0.004064,0.007 0.007662,0.015 0.0113689,0.0227 0.00371,0.008 0.00751,0.0159 0.010852,0.0238 0.00334,0.008 0.00634,0.0157 0.0093,0.0238 0.00296,0.008 0.0057,0.0165 0.00827,0.0248 0.00257,0.008 0.00507,0.0169 0.00723,0.0253 0.00217,0.008 0.00393,0.0167 0.00568,0.0253 0.00176,0.009 0.00332,0.0176 0.00465,0.0264 0.00133,0.009 0.00272,0.0174 0.00362,0.0264 9.001e-4,0.009 0.00161,0.0178 0.00207,0.0269 4.555e-4,0.009 5.168e-4,0.0182 5.168e-4,0.0274 0,0.009 -6.13e-5,0.0183 -5.168e-4,0.0274 -4.555e-4,0.009 -0.00117,0.018 -0.00207,0.0269 -9e-4,0.009 -0.00228,0.0176 -0.00362,0.0264 -0.00133,0.009 -0.00289,0.0177 -0.00465,0.0263 -0.00176,0.009 -0.00352,0.0174 -0.00568,0.0258 -0.00217,0.008 -0.00467,0.0165 -0.00723,0.0248 -0.00257,0.008 -0.00531,0.0167 -0.00827,0.0248 -0.00296,0.008 -0.00596,0.0159 -0.0093,0.0238 -0.00334,0.008 -0.00715,0.0161 -0.010852,0.0238 -0.00371,0.008 -0.007305,0.0152 -0.0113689,0.0227 -0.004064,0.007 -0.008509,0.0149 -0.0129191,0.0222 -0.00441,0.007 -0.00869,0.0141 -0.0134358,0.0212 -0.004746,0.007 -0.009916,0.0139 -0.0149862,0.0207 -0.00507,0.007 -0.0101194,0.0136 -0.0155029,0.0202 -0.005383,0.007 -0.0108503,0.0129 -0.0165365,0.0191 -0.005686,0.006 -0.0115921,0.0126 -0.01757,0.0186 -0.005978,0.006 -0.0123448,0.0119 -0.0186035,0.0176 -0.006259,0.006 -0.0125916,0.0111 -0.0191203,0.0165 -0.006529,0.005 -0.0133661,0.0104 -0.0201538,0.0155 -0.006788,0.005 -0.0136348,0.0102 -0.0206706,0.015 -0.007036,0.005 -0.0139144,0.009 -0.0211873,0.0134 -0.00341,0.002 -0.006875,0.004 -0.0103353,0.006 v 0.14056 c 0.00346,0.002 0.006925,0.004 0.0103353,0.006 0.007273,0.004 0.0141516,0.009 0.0211873,0.0134 0.007036,0.005 0.013883,0.01 0.0206706,0.015 0.006788,0.005 0.0136252,0.0101 0.0201538,0.0155 0.006529,0.005 0.0128616,0.0109 0.0191203,0.0165 0.006259,0.006 0.0126256,0.0116 0.0186035,0.0176 0.005978,0.006 0.0118838,0.0124 0.01757,0.0186 0.005686,0.006 0.011153,0.0126 0.0165365,0.0191 0.005383,0.007 0.010433,0.0134 0.0155029,0.0202 0.00507,0.007 0.0102407,0.0136 0.0149862,0.0207 0.004745,0.007 0.009026,0.0139 0.0134358,0.0212 0.00441,0.007 0.008856,0.0147 0.0129191,0.0222 0.004064,0.007 0.007662,0.015 0.0113689,0.0227 0.00371,0.008 0.00751,0.0159 0.010852,0.0238 0.00334,0.008 0.00634,0.0157 0.0093,0.0238 0.00296,0.008 0.0057,0.0165 0.00827,0.0248 0.00257,0.008 0.00507,0.0163 0.00723,0.0248 0.00217,0.008 0.00393,0.0172 0.00568,0.0258 0.00176,0.009 0.00332,0.0176 0.00465,0.0263 0.00133,0.009 0.00272,0.0174 0.00362,0.0264 9.001e-4,0.009 0.00161,0.0178 0.00207,0.0269 4.555e-4,0.009 5.168e-4,0.0182 5.168e-4,0.0274 0,0.009 -6.13e-5,0.0184 -5.168e-4,0.0274 -4.6e-4,0.009 -0.00117,0.0179 -0.00207,0.0269 -9e-4,0.009 -0.00229,0.0174 -0.00362,0.0263 -0.00133,0.009 -0.00289,0.0174 -0.00465,0.0264 -0.00175,0.009 -0.00351,0.0178 -0.00568,0.0258 -0.00216,0.009 -0.00466,0.0168 -0.00723,0.0248 -0.00257,0.008 -0.00531,0.0168 -0.00827,0.0248 -0.00296,0.008 -0.00596,0.0158 -0.0093,0.0238 -0.00334,0.008 -0.00714,0.0158 -0.010852,0.0238 -0.00371,0.008 -0.007309,0.0157 -0.0113689,0.0227 -0.004059,0.007 -0.008509,0.0152 -0.0129191,0.0222 -0.004406,0.007 -0.008686,0.0142 -0.0134358,0.0212 -0.004745,0.007 -0.009916,0.0137 -0.0149862,0.0207 -0.00507,0.007 -0.0101229,0.0132 -0.0155029,0.0202 -0.005383,0.007 -0.0108465,0.0131 -0.0165365,0.0191 -0.005686,0.006 -0.01159,0.0126 -0.01757,0.0186 -0.005977,0.006 -0.0123435,0.0116 -0.0186035,0.0176 -0.006258,0.006 -0.0125903,0.0115 -0.0191203,0.0165 -0.006529,0.005 -0.0133638,0.0105 -0.0201538,0.0155 -0.006788,0.005 -0.0136306,0.01 -0.0206706,0.015 -0.007035,0.004 -0.0139173,0.009 -0.0211873,0.0134 -0.003405,0.002 -0.006875,0.004 -0.0103353,0.006 v 0.14056 c 0.003465,0.002 0.006925,0.004 0.0103353,0.006 0.007273,0.004 0.0141473,0.008 0.0211873,0.0134 0.007036,0.005 0.0138806,0.01 0.0206706,0.015 0.006788,0.005 0.0136238,0.0105 0.0201538,0.0155 0.006528,0.005 0.0128603,0.0105 0.0191203,0.0165 0.006258,0.006 0.0126235,0.0116 0.0186035,0.0176 0.005978,0.006 0.01188,0.0126 0.01757,0.0186 0.005686,0.006 0.0111565,0.0121 0.0165365,0.0191 0.005384,0.007 0.0104329,0.0132 0.0155029,0.0202 0.005066,0.007 0.0102362,0.0137 0.0149862,0.0207 0.004746,0.007 0.009026,0.0142 0.0134358,0.0212 0.004409,0.007 0.008859,0.0152 0.0129191,0.0222 0.004059,0.007 0.007659,0.0147 0.0113689,0.0227 0.0037,0.008 0.00751,0.0158 0.010852,0.0238 0.00334,0.008 0.00634,0.0158 0.0093,0.0238 0.00296,0.008 0.0057,0.0168 0.00827,0.0248 0.00256,0.008 0.00506,0.0168 0.00723,0.0248 0.00216,0.008 0.00392,0.0168 0.00568,0.0258 0.00176,0.009 0.00332,0.0174 0.00465,0.0264 0.00134,0.009 0.00272,0.0174 0.00362,0.0264 9e-4,0.009 0.00161,0.0179 0.00207,0.0269 4.555e-4,0.009 5.168e-4,0.0184 5.168e-4,0.0274 0,0.009 -6.13e-5,0.0184 -5.168e-4,0.0274 -4.6e-4,0.009 -0.00117,0.0179 -0.00207,0.0269 -9e-4,0.009 -0.00229,0.0174 -0.00362,0.0264 -0.00133,0.009 -0.00289,0.0179 -0.00465,0.0269 -0.00175,0.009 -0.00351,0.0168 -0.00568,0.0248 -0.00216,0.008 -0.00466,0.0173 -0.00723,0.0253 -0.00257,0.008 -0.00531,0.0168 -0.00827,0.0248 -0.00296,0.008 -0.00596,0.0158 -0.0093,0.0238 -0.00334,0.008 -0.00714,0.0163 -0.010852,0.0243 -0.00371,0.008 -0.007309,0.0152 -0.0113689,0.0222 -0.00216,0.004 -0.004458,0.008 -0.006718,0.0124 h 0.0702799 c 0.00458,0 0.00892,2.9e-4 0.013436,5.2e-4 0.00453,1.9e-4 0.00898,7e-5 0.013436,5.2e-4 0.00446,10e-4 0.00905,0.001 0.013436,0.002 0.00439,0.001 0.00861,0.001 0.012919,0.002 0.00431,10e-4 0.00869,0.002 0.012919,0.003 0.00423,10e-4 0.00877,0.003 0.012919,0.004 0.00415,10e-4 0.00783,0.003 0.011886,0.004 0.00405,0.002 0.00844,0.003 0.012402,0.005 0.00396,10e-4 0.00751,0.003 0.011369,0.005 0.00386,0.002 0.00762,0.004 0.011369,0.006 0.00375,0.002 0.00773,0.004 0.011369,0.006 0.00363,0.002 0.00733,0.005 0.010852,0.007 0.00351,0.002 0.00695,0.004 0.010335,0.007 0.0034,0.002 0.00656,0.005 0.00982,0.008 0.00327,0.002 0.00669,0.005 0.00982,0.008 0.00313,0.003 0.00579,0.006 0.00879,0.009 0.00299,0.003 0.00594,0.006 0.00879,0.009 0.00284,0.003 0.00558,0.007 0.00827,0.01 0.00269,0.003 0.00574,0.007 0.00827,0.0103 0.00253,0.003 0.00486,0.006 0.00723,0.0103 0.00237,0.004 0.00451,0.007 0.00672,0.0109 0.0022,0.003 0.00417,0.007 0.0062,0.0114 0.00203,0.003 0.00435,0.007 0.0062,0.0114 0.00186,0.003 0.0035,0.007 0.00517,0.0114 0.00167,0.004 0.00317,0.008 0.00465,0.0124 0.00148,0.004 0.00285,0.008 0.00413,0.0119 0.00129,0.004 0.00254,0.009 0.00362,0.0129 0.00108,0.004 0.00222,0.009 0.0031,0.0129 8.8e-4,0.004 0.0014,0.009 0.00207,0.0129 6.666e-4,0.004 0.0011,0.009 0.00155,0.0129 4.465e-4,0.004 8.058e-4,0.009 0.00103,0.014 2.278e-4,0.004 5.168e-4,0.008 5.168e-4,0.0134 l 0.3348633,-5.1e-4 c 0.00199,-0.003 0.00413,-0.007 0.0062,-0.01 0.00441,-0.007 0.00869,-0.0142 0.013436,-0.0212 0.00474,-0.007 0.00992,-0.0142 0.014986,-0.0212 0.00507,-0.007 0.010123,-0.0131 0.015503,-0.0202 0.00538,-0.007 0.010846,-0.0131 0.016537,-0.0191 0.00569,-0.006 0.01159,-0.0126 0.01757,-0.0186 0.00598,-0.006 0.012344,-0.0116 0.018603,-0.0176 0.00626,-0.006 0.01259,-0.0115 0.01912,-0.0165 0.00653,-0.005 0.013364,-0.0105 0.020154,-0.0155 0.00679,-0.005 0.01363,-0.01 0.020671,-0.015 0.00703,-0.004 0.013917,-0.009 0.021187,-0.0134 0.00727,-0.004 0.014721,-0.008 0.022221,-0.0124 0.0075,-0.004 0.015028,-0.008 0.022738,-0.0119 0.00771,-0.004 0.015851,-0.008 0.023771,-0.0109 0.00792,-0.003 0.015661,-0.006 0.023771,-0.009 0.00811,-0.003 0.016515,-0.005 0.024805,-0.008 0.00829,-0.002 0.016851,-0.005 0.025321,-0.007 0.00847,-0.002 0.016692,-0.004 0.025322,-0.006 0.00863,-0.002 0.017575,-0.004 0.026355,-0.005 0.00878,-0.002 0.017435,-0.003 0.026355,-0.004 0.00892,-10e-4 0.017832,-0.002 0.026872,-0.002 0.00904,-4.6e-4 0.018228,-5.2e-4 0.027388,-5.2e-4 0.00916,0 0.018344,6e-5 0.027389,5.2e-4 0.00904,4.5e-4 0.017956,0.001 0.026872,0.002 0.00892,9e-4 0.017578,0.002 0.026355,0.004 0.00878,10e-4 0.017728,0.003 0.026355,0.005 0.00863,0.002 0.016854,0.004 0.025322,0.006 0.00847,0.002 0.017026,0.005 0.025321,0.007 0.00829,0.003 0.016692,0.005 0.024805,0.008 0.00811,0.003 0.015852,0.006 0.023771,0.009 0.00792,0.003 0.016057,0.007 0.023771,0.0109 0.00771,0.004 0.015238,0.007 0.022738,0.0119 0.0075,0.004 0.014948,0.008 0.022221,0.0124 0.00727,0.004 0.014152,0.009 0.021187,0.0134 0.00704,0.005 0.013883,0.01 0.020671,0.015 0.00679,0.005 0.013626,0.0101 0.020154,0.0155 0.00653,0.005 0.012862,0.0109 0.01912,0.0165 0.00626,0.006 0.012627,0.0116 0.018604,0.0176 0.00598,0.006 0.011884,0.0123 0.01757,0.0186 0.00569,0.006 0.011154,0.0126 0.016537,0.0191 0.00538,0.007 0.010433,0.0134 0.015503,0.0202 0.00507,0.007 0.010241,0.0141 0.014986,0.0212 0.00475,0.007 0.00903,0.0139 0.013436,0.0212 0.00207,0.003 0.00421,0.007 0.0062,0.01 l 0.3348633,5.1e-4 c 0,-0.005 2.89e-4,-0.009 5.168e-4,-0.0134 2.277e-4,-0.005 5.87e-4,-0.01 0.00103,-0.014 4.5e-4,-0.004 8.837e-4,-0.009 0.00155,-0.0129 6.669e-4,-0.004 0.00119,-0.009 0.00207,-0.0129 8.782e-4,-0.004 0.00202,-0.009 0.0031,-0.0129 0.00108,-0.004 0.00233,-0.009 0.00362,-0.0129 0.00128,-0.004 0.00265,-0.008 0.00413,-0.0119 0.00148,-0.004 0.00298,-0.008 0.00465,-0.0124 0.00167,-0.004 0.00331,-0.008 0.00517,-0.0114 0.00185,-0.004 0.00417,-0.008 0.0062,-0.0114 0.00203,-0.004 0.004,-0.008 0.0062,-0.0114 0.00221,-0.004 0.00435,-0.007 0.00672,-0.0109 0.00237,-0.004 0.0047,-0.007 0.00723,-0.0103 0.00253,-0.003 0.00558,-0.007 0.00827,-0.0103 0.00269,-0.003 0.00543,-0.007 0.00827,-0.01 0.00284,-0.003 0.00579,-0.006 0.00878,-0.009 0.00299,-0.003 0.00566,-0.006 0.00879,-0.009 0.00313,-0.003 0.00655,-0.006 0.00982,-0.008 0.00326,-0.003 0.00642,-0.006 0.00982,-0.008 0.00339,-0.003 0.00682,-0.005 0.010335,-0.007 0.00352,-0.002 0.00722,-0.005 0.010852,-0.007 0.00364,-0.002 0.00762,-0.004 0.011369,-0.006 0.00375,-0.002 0.00751,-0.004 0.011369,-0.006 0.00386,-0.002 0.00741,-0.004 0.011369,-0.005 0.00396,-0.002 0.00835,-0.003 0.012402,-0.005 0.00406,-10e-4 0.00774,-0.003 0.011886,-0.004 0.00415,-0.001 0.00869,-0.003 0.012919,-0.004 0.00423,-0.001 0.00861,-0.002 0.012919,-0.003 0.00431,-8.8e-4 0.00853,-0.001 0.012919,-0.002 0.00439,-6.7e-4 0.00898,-0.001 0.013436,-0.002 0.00446,-4.5e-4 0.00891,-3.3e-4 0.013436,-5.2e-4 0.00452,-2.3e-4 0.00886,-5.2e-4 0.013436,-5.2e-4 h 0.07028 c -0.00226,-0.004 -0.00456,-0.008 -0.00672,-0.0124 -0.00406,-0.007 -0.00766,-0.0145 -0.011369,-0.0222 -0.00371,-0.008 -0.00751,-0.0164 -0.010852,-0.0243 -0.00334,-0.008 -0.00634,-0.0157 -0.0093,-0.0238 -0.00296,-0.008 -0.0057,-0.0165 -0.00827,-0.0248 -0.00257,-0.008 -0.00507,-0.0169 -0.00723,-0.0253 -0.00217,-0.008 -0.00393,-0.0162 -0.00568,-0.0248 -0.00176,-0.009 -0.00332,-0.0181 -0.00465,-0.0269 -0.00133,-0.009 -0.00272,-0.0174 -0.00362,-0.0264 -8.999e-4,-0.009 -0.00161,-0.0178 -0.00207,-0.0269 -4.555e-4,-0.009 -5.168e-4,-0.0182 -5.168e-4,-0.0274 0,-0.009 6.13e-5,-0.0183 5.168e-4,-0.0274 4.555e-4,-0.009 0.00117,-0.018 0.00207,-0.0269 9e-4,-0.009 0.00228,-0.0176 0.00362,-0.0264 0.00133,-0.009 0.00289,-0.0178 0.00465,-0.0264 0.00176,-0.009 0.00352,-0.0174 0.00568,-0.0258 0.00217,-0.008 0.00467,-0.0165 0.00723,-0.0248 0.00257,-0.008 0.00531,-0.0167 0.00827,-0.0248 0.00296,-0.008 0.00596,-0.0159 0.0093,-0.0238 0.00334,-0.008 0.00715,-0.0161 0.010852,-0.0238 0.00371,-0.008 0.00731,-0.0152 0.011369,-0.0227 0.00406,-0.007 0.00851,-0.0149 0.012919,-0.0222 0.00441,-0.007 0.00869,-0.0141 0.013436,-0.0212 0.00475,-0.007 0.00992,-0.0139 0.014986,-0.0207 0.00507,-0.007 0.010119,-0.0136 0.015503,-0.0202 0.00538,-0.007 0.010851,-0.0129 0.016536,-0.0191 0.00569,-0.006 0.011592,-0.0126 0.01757,-0.0186 0.00598,-0.006 0.012346,-0.0119 0.018604,-0.0176 0.00626,-0.006 0.012592,-0.0111 0.01912,-0.0165 0.00653,-0.005 0.013366,-0.0104 0.020154,-0.0155 0.00679,-0.005 0.013634,-0.0102 0.020671,-0.015 0.00704,-0.005 0.013914,-0.009 0.021187,-0.0134 0.00341,-0.002 0.00687,-0.004 0.010335,-0.006 v -0.14056 c -0.00346,-0.002 -0.00693,-0.004 -0.010335,-0.006 -0.00727,-0.004 -0.014152,-0.009 -0.021187,-0.0134 -0.00704,-0.005 -0.013883,-0.01 -0.020671,-0.015 -0.00679,-0.005 -0.013625,-0.0101 -0.020154,-0.0155 -0.00653,-0.005 -0.012862,-0.0108 -0.01912,-0.0165 -0.00626,-0.006 -0.012627,-0.0116 -0.018604,-0.0176 -0.00598,-0.006 -0.011884,-0.0124 -0.01757,-0.0186 -0.00569,-0.006 -0.011153,-0.0126 -0.016536,-0.0191 -0.00538,-0.007 -0.010433,-0.0134 -0.015503,-0.0202 -0.00507,-0.007 -0.010241,-0.0136 -0.014986,-0.0207 -0.00475,-0.007 -0.00903,-0.0139 -0.013436,-0.0212 -0.00441,-0.007 -0.00886,-0.0147 -0.012919,-0.0222 -0.00406,-0.007 -0.00766,-0.015 -0.011369,-0.0227 -0.00371,-0.008 -0.00751,-0.0159 -0.010852,-0.0238 -0.00334,-0.008 -0.00634,-0.0157 -0.0093,-0.0238 -0.00296,-0.008 -0.0057,-0.0165 -0.00827,-0.0248 -0.00257,-0.008 -0.00507,-0.0163 -0.00723,-0.0248 -0.00217,-0.008 -0.00393,-0.0172 -0.00568,-0.0258 -0.00176,-0.009 -0.00332,-0.0177 -0.00465,-0.0264 -0.00133,-0.009 -0.00272,-0.0173 -0.00362,-0.0263 -8.999e-4,-0.009 -0.00161,-0.0178 -0.00207,-0.0269 -4.555e-4,-0.009 -5.168e-4,-0.0182 -5.168e-4,-0.0274 0,-0.009 6.13e-5,-0.0184 5.168e-4,-0.0274 4.6e-4,-0.009 0.00117,-0.0179 0.00207,-0.0269 9e-4,-0.009 0.00229,-0.0174 0.00362,-0.0264 0.00133,-0.009 0.00289,-0.0173 0.00465,-0.0263 0.00175,-0.009 0.00351,-0.0178 0.00568,-0.0258 0.00216,-0.008 0.00466,-0.0168 0.00723,-0.0248 0.00257,-0.008 0.00531,-0.0168 0.00827,-0.0248 0.00296,-0.008 0.00596,-0.0158 0.0093,-0.0238 0.00334,-0.008 0.00714,-0.0158 0.010852,-0.0238 0.00371,-0.008 0.00731,-0.0157 0.011369,-0.0227 0.00406,-0.007 0.00851,-0.0152 0.012919,-0.0222 0.00441,-0.007 0.00869,-0.0142 0.013436,-0.0212 0.00475,-0.007 0.00992,-0.0137 0.014986,-0.0207 0.00507,-0.007 0.010123,-0.0131 0.015503,-0.0202 0.00538,-0.007 0.010846,-0.0131 0.016536,-0.0191 0.00569,-0.006 0.01159,-0.0126 0.01757,-0.0186 0.00598,-0.006 0.012344,-0.0116 0.018604,-0.0176 0.00626,-0.006 0.01259,-0.0115 0.01912,-0.0165 0.00653,-0.005 0.013364,-0.0105 0.020154,-0.0155 0.00679,-0.005 0.01363,-0.01 0.020671,-0.015 0.00703,-0.004 0.013917,-0.009 0.021187,-0.0134 0.00341,-0.002 0.00688,-0.004 0.010335,-0.006 v -0.14056 c -0.00346,-0.002 -0.00693,-0.004 -0.010335,-0.006 -0.00727,-0.004 -0.014147,-0.008 -0.021187,-0.0134 -0.00704,-0.005 -0.013881,-0.01 -0.020671,-0.015 -0.00679,-0.005 -0.013624,-0.0105 -0.020154,-0.0155 -0.00653,-0.005 -0.01286,-0.0105 -0.01912,-0.0165 -0.00626,-0.006 -0.012624,-0.0116 -0.018604,-0.0176 -0.00598,-0.006 -0.01188,-0.0126 -0.01757,-0.0186 -0.00569,-0.006 -0.011156,-0.0121 -0.016536,-0.0191 -0.00538,-0.007 -0.010433,-0.0131 -0.015503,-0.0202 -0.00507,-0.007 -0.010236,-0.0137 -0.014986,-0.0207 -0.00475,-0.007 -0.00903,-0.0142 -0.013436,-0.0212 -0.00441,-0.007 -0.00886,-0.0152 -0.012919,-0.0222 -0.00406,-0.007 -0.00766,-0.0147 -0.011369,-0.0227 -0.0037,-0.008 -0.00751,-0.0158 -0.010852,-0.0238 -0.00334,-0.008 -0.00634,-0.0158 -0.0093,-0.0238 -0.00296,-0.008 -0.0057,-0.0168 -0.00827,-0.0248 -0.00256,-0.008 -0.00506,-0.0168 -0.00723,-0.0248 -0.00216,-0.008 -0.00392,-0.0168 -0.00568,-0.0258 -0.00176,-0.009 -0.00332,-0.0173 -0.00465,-0.0263 -0.00134,-0.009 -0.00272,-0.0174 -0.00362,-0.0264 -8.998e-4,-0.009 -0.00161,-0.0179 -0.00207,-0.0269 -4.555e-4,-0.009 -5.168e-4,-0.0184 -5.168e-4,-0.0274 0,-0.009 6.13e-5,-0.0184 5.168e-4,-0.0274 4.6e-4,-0.009 0.00117,-0.0179 0.00207,-0.0269 9e-4,-0.009 0.00229,-0.0174 0.00362,-0.0264 0.00133,-0.009 0.00289,-0.0179 0.00465,-0.0269 0.00175,-0.009 0.00351,-0.0168 0.00568,-0.0248 0.00216,-0.008 0.00466,-0.0173 0.00723,-0.0253 0.00257,-0.008 0.00531,-0.0168 0.00827,-0.0248 0.00296,-0.008 0.00596,-0.0158 0.0093,-0.0238 0.00334,-0.008 0.00714,-0.0163 0.010852,-0.0243 0.00371,-0.008 0.00731,-0.0152 0.011369,-0.0222 0.00216,-0.004 0.00446,-0.008 0.00672,-0.0119 h -0.07028 c -0.00458,0 -0.00892,-8.1e-4 -0.013436,-0.001 -0.00453,-1.9e-4 -0.00898,-6e-5 -0.013436,-5.1e-4 -0.00446,-0.001 -0.00905,-0.001 -0.013436,-0.002 -0.00439,-0.001 -0.00861,-0.001 -0.012919,-0.002 -0.00431,-0.001 -0.00869,-0.002 -0.012919,-0.003 -0.00423,-10e-4 -0.00877,-0.003 -0.012919,-0.004 -0.00415,-0.001 -0.00783,-0.003 -0.011886,-0.004 -0.00405,-0.002 -0.00844,-0.003 -0.012402,-0.005 -0.00396,-10e-4 -0.00751,-0.003 -0.011369,-0.005 -0.00386,-0.002 -0.00762,-0.004 -0.011369,-0.006 -0.00375,-0.002 -0.00773,-0.004 -0.011369,-0.006 -0.00363,-0.002 -0.00733,-0.005 -0.010852,-0.007 -0.00352,-0.002 -0.00695,-0.004 -0.010335,-0.007 -0.0034,-0.002 -0.00656,-0.005 -0.00982,-0.008 -0.00327,-0.002 -0.00669,-0.005 -0.00982,-0.008 -0.00313,-0.003 -0.00579,-0.006 -0.00879,-0.009 -0.00299,-0.003 -0.00594,-0.006 -0.00878,-0.009 -0.00284,-0.003 -0.00558,-0.007 -0.00827,-0.01 -0.00269,-0.003 -0.00574,-0.007 -0.00827,-0.0103 -0.00253,-0.003 -0.00486,-0.006 -0.00723,-0.0103 -0.00237,-0.004 -0.00451,-0.007 -0.00672,-0.0109 -0.0022,-0.003 -0.00417,-0.007 -0.0062,-0.0114 -0.00203,-0.003 -0.00435,-0.007 -0.0062,-0.0114 -0.00186,-0.003 -0.0035,-0.007 -0.00517,-0.0114 -0.00167,-0.004 -0.00317,-0.008 -0.00465,-0.0124 -0.00148,-0.004 -0.00285,-0.008 -0.00413,-0.0119 -0.00129,-0.004 -0.00254,-0.009 -0.00362,-0.0129 -0.00108,-0.004 -0.00222,-0.009 -0.0031,-0.0129 -8.8e-4,-0.004 -0.0014,-0.009 -0.00207,-0.0129 -6.666e-4,-0.004 -0.0011,-0.009 -0.00155,-0.0129 -4.465e-4,-0.004 -8.058e-4,-0.009 -0.00103,-0.0139 -2.278e-4,-0.004 -5.168e-4,-0.008 -5.168e-4,-0.0134 z m -1.5875,0.52968 h 1.5875 v 2.11667 h -1.5875 z" />
  </g>
</svg>
