<?xml version="1.0" encoding="UTF-8" standalone="no"?>
<!-- Created with Inkscape (http://www.inkscape.org/) -->

<svg
   xmlns:dc="http://purl.org/dc/elements/1.1/"
   xmlns:cc="http://creativecommons.org/ns#"
   xmlns:rdf="http://www.w3.org/1999/02/22-rdf-syntax-ns#"
   xmlns:svg="http://www.w3.org/2000/svg"
   xmlns="http://www.w3.org/2000/svg"
   xmlns:sodipodi="http://sodipodi.sourceforge.net/DTD/sodipodi-0.dtd"
   xmlns:inkscape="http://www.inkscape.org/namespaces/inkscape"
   width="16"
   height="16"
   viewBox="0 0 4.2333332 4.2333335"
   version="1.1"
   id="svg8"
   inkscape:version="0.92.3 (2405546, 2018-03-11)"
   sodipodi:docname="folder-unlocked.svg">
  <defs
     id="defs2" />
  <sodipodi:namedview
     id="base"
     pagecolor="#ffffff"
     bordercolor="#666666"
     borderopacity="1.0"
     inkscape:pageopacity="0.0"
     inkscape:pageshadow="2"
     inkscape:zoom="31.678384"
     inkscape:cx="1.7582079"
     inkscape:cy="7.730104"
     inkscape:document-units="px"
     inkscape:current-layer="layer1"
     showgrid="true"
     units="px"
     inkscape:showpageshadow="false"
     inkscape:snap-bbox="true"
     inkscape:bbox-paths="true"
     inkscape:bbox-nodes="true"
     inkscape:snap-bbox-edge-midpoints="true"
     inkscape:snap-bbox-midpoints="true"
     inkscape:object-paths="true"
     inkscape:snap-intersection-paths="true"
     inkscape:window-width="1874"
     inkscape:window-height="1141"
     inkscape:window-x="46"
     inkscape:window-y="30"
     inkscape:window-maximized="1">
    <inkscape:grid
       type="xygrid"
       id="grid815" />
  </sodipodi:namedview>
  <metadata
     id="metadata5">
    <rdf:RDF>
      <cc:Work
         rdf:about="">
        <dc:format>image/svg+xml</dc:format>
        <dc:type
           rdf:resource="http://purl.org/dc/dcmitype/StillImage" />
        <dc:title></dc:title>
      </cc:Work>
    </rdf:RDF>
  </metadata>
  <g
     inkscape:label="Capa 1"
     inkscape:groupmode="layer"
     id="layer1"
     transform="translate(0,-292.76666)">
    <g
       id="g2850"
       transform="translate(1.8520834,0.79375668)">
      <path
         id="path2262"
         d="m 0.26458333,292.23749 c -0.61412067,0 -1.11349208,0.43035 -1.26090495,0.99115 a 0.26460979,0.26460979 0 0 0 0.24856361,0.33177 h -0.045992 c -0.28858499,0 -0.52916669,0.24058 -0.52916669,0.52916 v 1.5875 c 0,0.28859 0.2405849,0.52917 0.5291667,0.52917 h 2.1166666 c 0.2885819,0 0.5291667,-0.24058 0.5291667,-0.52917 v -1.5875 c 0,-0.18613 -0.116091,-0.32354 -0.2645833,-0.41806 v -0.1111 c 0,-0.72832 -0.59459757,-1.32292 -1.32291667,-1.32292 z"
         style="color:#122036;font-style:normal;font-variant:normal;font-weight:normal;font-stretch:normal;font-size:medium;line-height:normal;font-family:sans-serif;font-variant-ligatures:normal;font-variant-position:normal;font-variant-caps:normal;font-variant-numeric:normal;font-variant-alternates:normal;font-feature-settings:normal;text-indent:0;text-align:start;text-decoration:none;text-decoration-line:none;text-decoration-style:solid;text-decoration-color:#000000;letter-spacing:normal;word-spacing:normal;text-transform:none;writing-mode:lr-tb;direction:ltr;text-orientation:mixed;dominant-baseline:auto;baseline-shift:baseline;text-anchor:start;white-space:normal;shape-padding:0;clip-rule:nonzero;display:inline;overflow:visible;visibility:visible;opacity:1;isolation:auto;mix-blend-mode:normal;color-interpolation:sRGB;color-interpolation-filters:linearRGB;solid-color:#000000;solid-opacity:1;vector-effect:none;fill:#85898c;fill-opacity:1;fill-rule:nonzero;stroke:none;stroke-width:0.5291667;stroke-linecap:round;stroke-linejoin:round;stroke-miterlimit:4;stroke-dasharray:none;stroke-dashoffset:0;stroke-opacity:1;color-rendering:auto;image-rendering:auto;shape-rendering:auto;text-rendering:auto;enable-background:accumulate"
         inkscape:connector-curvature="0" />
      <path
         inkscape:connector-curvature="0"
         d="m 0.26458333,292.50207 c -0.4923721,0 -0.88579431,0.33985 -1.00510684,0.79375 h 0.58497734 c 0.09339,-0.14912 0.2304754,-0.26458 0.4201295,-0.26458 0.2931583,0 0.5291664,0.23601 0.5291664,0.52917 v 0.26458 H 2.8125002e-8 -0.26458357 -0.79375027 c -0.14657916,0 -0.26458333,0.11801 -0.26458333,0.26458 v 1.5875 c 0,0.14658 0.11800417,0.26459 0.26458333,0.26459 H 1.3229164 c 0.1465791,0 0.2645833,-0.11801 0.2645833,-0.26459 v -1.5875 c 0,-0.14657 -0.1180042,-0.26458 -0.2645833,-0.26458 v -0.26458 c 0,-0.58632 -0.47201667,-1.05834 -1.05833307,-1.05834 z m 0,1.5875 c 0.2931583,0 0.5291664,0.23601 0.5291664,0.52917 0,0.19607 -0.1069446,0.36488 -0.2645831,0.4563 v 0.60203 H 2.8125002e-8 v -0.60203 C -0.15763877,294.98364 -0.26458357,294.81481 -0.26458357,294.61874 c 0,-0.29316 0.2360086,-0.52917 0.5291669,-0.52917 z"
         style="color:#122036;fill:#dbdfe4;fill-opacity:1;stroke:none;stroke-width:0.26458335"
         class="ColorScheme-Text"
         id="path2223-6" />
    </g>
  </g>
</svg>
