<?xml version="1.0" encoding="UTF-8" standalone="no"?>
<!-- Created with Inkscape (http://www.inkscape.org/) -->

<svg
   width="16"
   height="16"
   viewBox="0 0 4.2333332 4.2333335"
   version="1.1"
   id="svg8"
   inkscape:version="1.2 (dc2aedaf03, 2022-05-15)"
   sodipodi:docname="folder blender.svg"
   xmlns:inkscape="http://www.inkscape.org/namespaces/inkscape"
   xmlns:sodipodi="http://sodipodi.sourceforge.net/DTD/sodipodi-0.dtd"
   xmlns="http://www.w3.org/2000/svg"
   xmlns:svg="http://www.w3.org/2000/svg"
   xmlns:rdf="http://www.w3.org/1999/02/22-rdf-syntax-ns#"
   xmlns:cc="http://creativecommons.org/ns#"
   xmlns:dc="http://purl.org/dc/elements/1.1/">
  <defs
     id="defs2" />
  <sodipodi:namedview
     id="base"
     pagecolor="#ffffff"
     bordercolor="#666666"
     borderopacity="1.0"
     inkscape:pageopacity="0.0"
     inkscape:pageshadow="2"
     inkscape:zoom="31.678384"
     inkscape:cx="4.9560609"
     inkscape:cy="7.1184187"
     inkscape:document-units="px"
     inkscape:current-layer="layer1"
     showgrid="true"
     units="px"
     inkscape:showpageshadow="false"
     inkscape:snap-bbox="true"
     inkscape:bbox-paths="true"
     inkscape:bbox-nodes="true"
     inkscape:snap-bbox-edge-midpoints="true"
     inkscape:snap-bbox-midpoints="true"
     inkscape:object-paths="true"
     inkscape:snap-intersection-paths="true"
     inkscape:window-width="2160"
     inkscape:window-height="1337"
     inkscape:window-x="0"
     inkscape:window-y="0"
     inkscape:window-maximized="1"
     inkscape:pagecheckerboard="0"
     inkscape:deskcolor="#d1d1d1">
    <inkscape:grid
       type="xygrid"
       id="grid815" />
  </sodipodi:namedview>
  <metadata
     id="metadata5">
    <rdf:RDF>
      <cc:Work
         rdf:about="">
        <dc:format>image/svg+xml</dc:format>
        <dc:type
           rdf:resource="http://purl.org/dc/dcmitype/StillImage" />
      </cc:Work>
    </rdf:RDF>
  </metadata>
  <g
     inkscape:label="Capa 1"
     inkscape:groupmode="layer"
     id="layer1"
     transform="translate(0,-292.76666)">
    <g
       id="g53934"
       transform="translate(-1.1998946e-7,0.52889798)">
      <path
         id="rect51523"
         style="fill:#dd4d25;fill-opacity:1;stroke:none;stroke-width:0.529167;stroke-linecap:round;stroke-linejoin:round;stroke-dasharray:none;stroke-opacity:1;stop-color:#000000"
         d="m 1.6040366,292.50259 a 0.52916666,0.52916666 0 0 0 -0.1033516,0.007 0.52916666,0.52916666 0 0 0 -0.3436487,0.21446 0.52916666,0.52916666 0 0 0 0.1229889,0.73794 l 0.1379775,0.0987 H 0.52916678 A 0.52916666,0.52916666 0 0 0 1.2e-7,294.08958 0.52916666,0.52916666 0 0 0 0.52916678,294.61875 H 0.919324 l -0.46457128,0.38705 a 0.52916666,0.52916666 0 0 0 -0.0676963,0.74518 0.52916666,0.52916666 0 0 0 0.74569108,0.0677 l 0.2992067,-0.24908 c 0.2171409,0.52971 0.7364386,0.90124 1.3461709,0.90124 0.8061854,0 1.4552083,-0.64902 1.4552083,-1.45521 0,-0.36207 -0.1310322,-0.69208 -0.3483001,-0.94619 a 0.52916666,0.52916666 0 0 0 -0.137975,-0.14573 l -0.031007,-0.0222 c -0.058266,-0.0491 -0.1204304,-0.0933 -0.1860338,-0.1328 l -1.635043,-1.16789 a 0.52916666,0.52916666 0 0 0 -0.2909384,-0.0982 z" />
      <path
         id="rect51961"
         style="fill:#f6d1c7;fill-opacity:1;stroke:none;stroke-width:1.05833;stroke-linecap:round;stroke-linejoin:round;stroke-dasharray:none;stroke-opacity:1;stop-color:#000000"
         d="m 1.6133393,292.7677 a 0.26458333,0.26458333 0 0 0 -0.2413291,0.10955 0.26458333,0.26458333 0 0 0 0.061495,0.36897 L 2.2437911,293.825 H 0.52916678 a 0.26458333,0.26458333 0 0 0 -0.26458333,0.26458 0.26458333,0.26458333 0 0 0 0.26458333,0.26458 H 1.6500291 l -1.02577636,0.85473 a 0.26458333,0.26458333 0 0 0 -0.0335915,0.37311 0.26458333,0.26458333 0 0 0 0.37258624,0.0336 l 0.62683762,-0.52244 c 0.039711,0.62317 0.5545031,1.11311 1.18804,1.11311 0.6596062,0 1.190625,-0.53102 1.190625,-1.19063 0,-0.30284 -0.1122098,-0.57838 -0.2971403,-0.78807 a 0.26458333,0.26458333 0 0 0 -0.078031,-0.0889 l -0.047543,-0.0341 c -0.048281,-0.0407 -0.1000707,-0.0774 -0.1545114,-0.11006 l -1.650029,-1.17874 a 0.26458333,0.26458333 0 0 0 -0.1281562,-0.0481 z" />
      <rect
         style="fill:#b3c9d5;fill-opacity:1;stroke:none;stroke-width:0.529167;stroke-linecap:round;stroke-linejoin:round;stroke-dasharray:none;stroke-opacity:1;stop-color:#000000"
         id="rect52464"
         width="1.8520833"
         height="1.8520823"
         x="1.8520834"
         y="294.08957"
         ry="0.91953033" />
      <rect
         style="fill:#fcfcfc;fill-opacity:1;stroke:none;stroke-width:0.377976;stroke-linecap:round;stroke-linejoin:round;stroke-dasharray:none;stroke-opacity:1;stop-color:#000000"
         id="rect52464-3"
         width="1.3229166"
         height="1.3229159"
         x="2.1166668"
         y="294.35416"
         ry="0.65680736" />
      <rect
         style="fill:#0c63cc;fill-opacity:1;stroke:none;stroke-width:0.226785;stroke-linecap:round;stroke-linejoin:round;stroke-dasharray:none;stroke-opacity:1;stop-color:#000000"
         id="rect52464-3-7"
         width="0.79374999"
         height="0.79374957"
         x="2.3812501"
         y="294.61874"
         ry="0.39408442" />
      <rect
         style="fill:#2292f4;fill-opacity:1;stroke:none;stroke-width:0.0755952;stroke-linecap:round;stroke-linejoin:round;stroke-dasharray:none;stroke-opacity:1;stop-color:#000000"
         id="rect52464-3-7-5"
         width="0.26458332"
         height="0.2645832"
         x="2.6458335"
         y="294.88333"
         ry="0.13136147" />
    </g>
  </g>
</svg>
