<?xml version="1.0" encoding="UTF-8" standalone="no"?>
<!-- Created with Inkscape (http://www.inkscape.org/) -->

<svg
   xmlns:dc="http://purl.org/dc/elements/1.1/"
   xmlns:cc="http://creativecommons.org/ns#"
   xmlns:rdf="http://www.w3.org/1999/02/22-rdf-syntax-ns#"
   xmlns:svg="http://www.w3.org/2000/svg"
   xmlns="http://www.w3.org/2000/svg"
   xmlns:sodipodi="http://sodipodi.sourceforge.net/DTD/sodipodi-0.dtd"
   xmlns:inkscape="http://www.inkscape.org/namespaces/inkscape"
   width="16"
   height="16"
   viewBox="0 0 4.2333332 4.2333335"
   version="1.1"
   id="svg8"
   inkscape:version="0.92.3 (2405546, 2018-03-11)"
   sodipodi:docname="folder-important.svg">
  <defs
     id="defs2" />
  <sodipodi:namedview
     id="base"
     pagecolor="#ffffff"
     bordercolor="#666666"
     borderopacity="1.0"
     inkscape:pageopacity="0.0"
     inkscape:pageshadow="2"
     inkscape:zoom="31.678384"
     inkscape:cx="1.7582079"
     inkscape:cy="7.730104"
     inkscape:document-units="px"
     inkscape:current-layer="layer1"
     showgrid="true"
     units="px"
     inkscape:showpageshadow="false"
     inkscape:snap-bbox="true"
     inkscape:bbox-paths="true"
     inkscape:bbox-nodes="true"
     inkscape:snap-bbox-edge-midpoints="true"
     inkscape:snap-bbox-midpoints="true"
     inkscape:object-paths="true"
     inkscape:snap-intersection-paths="true"
     inkscape:window-width="1874"
     inkscape:window-height="1141"
     inkscape:window-x="46"
     inkscape:window-y="30"
     inkscape:window-maximized="1">
    <inkscape:grid
       type="xygrid"
       id="grid815" />
  </sodipodi:namedview>
  <metadata
     id="metadata5">
    <rdf:RDF>
      <cc:Work
         rdf:about="">
        <dc:format>image/svg+xml</dc:format>
        <dc:type
           rdf:resource="http://purl.org/dc/dcmitype/StillImage" />
        <dc:title></dc:title>
      </cc:Work>
    </rdf:RDF>
  </metadata>
  <g
     inkscape:label="Capa 1"
     inkscape:groupmode="layer"
     id="layer1"
     transform="translate(0,-292.76666)">
    <g
       id="g1462"
       transform="translate(1.8520833,0.79375247)">
      <path
         id="path868"
         d="m 0.27595223,292.2376 c -0.098087,-0.004 -0.1903897,0.0464 -0.2397787,0.13126 l -1.85208333,3.175 c -0.1028335,0.17634 0.024278,0.39778 0.2284098,0.39791 h 3.7041667 c 0.2041319,-1.3e-4 0.3312433,-0.22157 0.2284098,-0.39791 l -1.85208347,-3.175 c -0.045297,-0.0778 -0.1270717,-0.12729 -0.2170408,-0.13126 z"
         style="fill:#ebab4e;fill-opacity:1;stroke:none;stroke-width:0.26458335"
         inkscape:connector-curvature="0" />
      <path
         inkscape:connector-curvature="0"
         id="path870"
         d="m -1.5875,295.67707 h 3.7041667 l -1.85208337,-3.175 z"
         style="fill:#ffd94c;fill-opacity:1;stroke:none;stroke-width:0.26458335px;stroke-linecap:butt;stroke-linejoin:miter;stroke-opacity:1" />
      <path
         id="path866"
         d="m 0.26458333,293.29582 c -0.1465792,0 -0.264583298389363,0.118 -0.264583298389363,0.26458 v 0.79375 c 0,0.14658 0.118004098389363,0.26459 0.264583298389363,0.26459 0.1465792,0 0.2645833,-0.11801 0.2645833,-0.26459 v -0.79375 c 0,-0.14658 -0.1180041,-0.26458 -0.2645833,-0.26458 z m 0,1.5875 c -0.1465792,0 -0.264583298389363,0.118 -0.264583298389363,0.26458 0,0.14658 0.118004098389363,0.26459 0.264583298389363,0.26459 0.1465792,0 0.2645833,-0.11801 0.2645833,-0.26459 0,-0.14658 -0.1180041,-0.26458 -0.2645833,-0.26458 z"
         style="fill:#906411;fill-opacity:1;stroke:none;stroke-width:0.26458335"
         inkscape:connector-curvature="0" />
    </g>
  </g>
</svg>
