<?xml version="1.0" encoding="UTF-8" standalone="no"?>
<!-- Created with Inkscape (http://www.inkscape.org/) -->

<svg
   xmlns:dc="http://purl.org/dc/elements/1.1/"
   xmlns:cc="http://creativecommons.org/ns#"
   xmlns:rdf="http://www.w3.org/1999/02/22-rdf-syntax-ns#"
   xmlns:svg="http://www.w3.org/2000/svg"
   xmlns="http://www.w3.org/2000/svg"
   xmlns:sodipodi="http://sodipodi.sourceforge.net/DTD/sodipodi-0.dtd"
   xmlns:inkscape="http://www.inkscape.org/namespaces/inkscape"
   width="16"
   height="16"
   viewBox="0 0 4.2333332 4.2333335"
   version="1.1"
   id="svg8"
   inkscape:version="0.92.3 (2405546, 2018-03-11)"
   sodipodi:docname="folder-encrypted.svg">
  <defs
     id="defs2" />
  <sodipodi:namedview
     id="base"
     pagecolor="#ffffff"
     bordercolor="#666666"
     borderopacity="1.0"
     inkscape:pageopacity="0.0"
     inkscape:pageshadow="2"
     inkscape:zoom="31.678384"
     inkscape:cx="1.7582079"
     inkscape:cy="7.730104"
     inkscape:document-units="px"
     inkscape:current-layer="layer1"
     showgrid="true"
     units="px"
     inkscape:showpageshadow="false"
     inkscape:snap-bbox="true"
     inkscape:bbox-paths="true"
     inkscape:bbox-nodes="true"
     inkscape:snap-bbox-edge-midpoints="true"
     inkscape:snap-bbox-midpoints="true"
     inkscape:object-paths="true"
     inkscape:snap-intersection-paths="true"
     inkscape:window-width="1874"
     inkscape:window-height="1141"
     inkscape:window-x="46"
     inkscape:window-y="30"
     inkscape:window-maximized="1">
    <inkscape:grid
       type="xygrid"
       id="grid815" />
  </sodipodi:namedview>
  <metadata
     id="metadata5">
    <rdf:RDF>
      <cc:Work
         rdf:about="">
        <dc:format>image/svg+xml</dc:format>
        <dc:type
           rdf:resource="http://purl.org/dc/dcmitype/StillImage" />
        <dc:title></dc:title>
      </cc:Work>
    </rdf:RDF>
  </metadata>
  <g
     inkscape:label="Capa 1"
     inkscape:groupmode="layer"
     id="layer1"
     transform="translate(0,-292.76666)">
    <g
       id="g1457"
       transform="translate(2.1166667,0.79374668)">
      <path
         id="path863"
         d="M 1.2977907e-8,292.50208 C -0.58631669,292.50208 -1.0583333,292.9741 -1.0583333,293.56042 v 0.26458 c -0.1465792,0 -0.2645834,0.118 -0.2645834,0.26458 v 1.5875 c 0,0.14658 0.1180042,0.26459 0.2645834,0.26459 h 1.58750001 v -0.26459 h 0.2645833 v -0.26458 h -0.2645833 v -0.26458 h 0.2645833 v -0.26459 H 1.0583333 v -0.26458 h 0.2645834 v -0.52917 c 0,-0.14658 -0.1180042,-0.26458 -0.2645834,-0.26458 v -0.26458 c 0,-0.58632 -0.47201659,-1.05834 -1.058333287022093,-1.05834 z"
         style="fill:#85898c;fill-opacity:1;stroke:#85898c;stroke-width:0.5291667;stroke-linecap:round;stroke-linejoin:round;stroke-miterlimit:4;stroke-dasharray:none;stroke-opacity:1"
         inkscape:connector-curvature="0" />
      <path
         id="path846"
         d="M 1.2977907e-8,292.50208 C -0.58631669,292.50208 -1.0583333,292.9741 -1.0583333,293.56042 v 0.26458 c -0.1465792,0 -0.2645834,0.118 -0.2645834,0.26458 v 1.5875 c 0,0.14658 0.1180042,0.26459 0.2645834,0.26459 h 1.58750001 v -0.26459 h 0.2645833 v -0.26458 h -0.2645833 v -0.26458 h 0.2645833 v -0.26459 H 1.0583333 v -0.26458 h 0.2645834 v -0.52917 c 0,-0.14658 -0.1180042,-0.26458 -0.2645834,-0.26458 v -0.26458 c 0,-0.58632 -0.47201659,-1.05834 -1.058333287022093,-1.05834 z m 0,0.52917 C 0.29315831,293.03125 0.52916671,293.26726 0.52916671,293.56042 v 0.26458 h -1.0583334 v -0.26458 c 0,-0.29316 0.2360084,-0.52917 0.529166702977907,-0.52917 z m 0,1.05833 C 0.29315831,294.08958 0.52916671,294.32559 0.52916671,294.61875 c 0,0.19607 -0.1069449,0.36487 -0.2645834,0.4563 v 0.60203 h -0.5291666 v -0.60203 c -0.1576385,-0.0914 -0.2645834,-0.26023 -0.2645834,-0.4563 0,-0.29316 0.2360084,-0.52917 0.529166702977907,-0.52917 z"
         style="fill:#dbdfe4;fill-opacity:1;stroke:none;stroke-width:0.26458335"
         inkscape:connector-curvature="0" />
    </g>
  </g>
</svg>
