<?xml version="1.0" encoding="UTF-8" standalone="no"?>
<!-- Created with Inkscape (http://www.inkscape.org/) -->

<svg
   xmlns:dc="http://purl.org/dc/elements/1.1/"
   xmlns:cc="http://creativecommons.org/ns#"
   xmlns:rdf="http://www.w3.org/1999/02/22-rdf-syntax-ns#"
   xmlns:svg="http://www.w3.org/2000/svg"
   xmlns="http://www.w3.org/2000/svg"
   xmlns:sodipodi="http://sodipodi.sourceforge.net/DTD/sodipodi-0.dtd"
   xmlns:inkscape="http://www.inkscape.org/namespaces/inkscape"
   width="16"
   height="16"
   viewBox="0 0 4.2333332 4.2333335"
   version="1.1"
   id="svg8"
   inkscape:version="0.92.3 (2405546, 2018-03-11)"
   sodipodi:docname="folder-dropbox.svg">
  <defs
     id="defs2" />
  <sodipodi:namedview
     id="base"
     pagecolor="#ffffff"
     bordercolor="#666666"
     borderopacity="1.0"
     inkscape:pageopacity="0.0"
     inkscape:pageshadow="2"
     inkscape:zoom="31.678384"
     inkscape:cx="1.7582079"
     inkscape:cy="7.730104"
     inkscape:document-units="px"
     inkscape:current-layer="layer1"
     showgrid="true"
     units="px"
     inkscape:showpageshadow="false"
     inkscape:snap-bbox="true"
     inkscape:bbox-paths="true"
     inkscape:bbox-nodes="true"
     inkscape:snap-bbox-edge-midpoints="true"
     inkscape:snap-bbox-midpoints="true"
     inkscape:object-paths="true"
     inkscape:snap-intersection-paths="true"
     inkscape:window-width="1874"
     inkscape:window-height="1141"
     inkscape:window-x="46"
     inkscape:window-y="30"
     inkscape:window-maximized="1">
    <inkscape:grid
       type="xygrid"
       id="grid815" />
  </sodipodi:namedview>
  <metadata
     id="metadata5">
    <rdf:RDF>
      <cc:Work
         rdf:about="">
        <dc:format>image/svg+xml</dc:format>
        <dc:type
           rdf:resource="http://purl.org/dc/dcmitype/StillImage" />
        <dc:title></dc:title>
      </cc:Work>
    </rdf:RDF>
  </metadata>
  <g
     inkscape:label="Capa 1"
     inkscape:groupmode="layer"
     id="layer1"
     transform="translate(0,-292.76666)">
    <g
       id="g1487"
       transform="translate(2.1166691,0.79378629)">
      <path
         id="path899"
         d="m -1.0614363,291.97291 a 0.26460979,0.26460979 0 0 0 -0.1436605,0.0444 l -0.79375,0.52917 a 0.26460979,0.26460979 0 0 0 0,0.44028 l 0.79375,0.52917 a 0.26460979,0.26460979 0 0 0 0.1436605,0.0444 0.26460979,0.26460979 0 0 0 -0.1436605,0.0444 l -0.79375,0.52917 a 0.26460979,0.26460979 0 0 0 0,0.44028 l 0.79375,0.52917 a 0.26460979,0.26460979 0 0 0 0.29352211,0 l 0.79375,-0.52917 a 0.26460979,0.26460979 0 0 0 0,-0.44028 l -0.79375,-0.52917 a 0.26460979,0.26460979 0 0 0 -0.14366041,-0.0444 0.26460979,0.26460979 0 0 0 0.14366041,-0.0444 l 0.79375,-0.52917 a 0.26460979,0.26460979 0 0 0 0,-0.44028 l -0.79375,-0.52917 a 0.26460979,0.26460979 0 0 0 -0.14986161,-0.0444 z m 2.1166665,0 a 0.26460979,0.26460979 0 0 0 -0.14366059,0.0444 l -0.7937497,0.52917 a 0.26460979,0.26460979 0 0 0 0,0.44028 l 0.7937497,0.52917 a 0.26460979,0.26460979 0 0 0 0.14366059,0.0444 0.26460979,0.26460979 0 0 0 -0.14366059,0.0444 l -0.7937497,0.52917 a 0.26460979,0.26460979 0 0 0 0,0.44028 l 0.7937497,0.52917 a 0.26460979,0.26460979 0 0 0 0.29352239,0 l 0.79375,-0.52917 a 0.26460979,0.26460979 0 0 0 0,-0.44028 l -0.79375,-0.52917 a 0.26460979,0.26460979 0 0 0 -0.1436605,-0.0444 0.26460979,0.26460979 0 0 0 0.1436605,-0.0444 l 0.79375,-0.52917 a 0.26460979,0.26460979 0 0 0 0,-0.44028 l -0.79375,-0.52917 a 0.26460979,0.26460979 0 0 0 -0.1498618,-0.0444 z m -1.05833319,2.64583 a 0.26460979,0.26460979 0 0 0 -0.1436605,0.0444 l -0.79375,0.52917 a 0.26460979,0.26460979 0 0 0 0,0.44028 l 0.79375,0.52917 a 0.26460979,0.26460979 0 0 0 0.2935222,0 l 0.79375,-0.52917 a 0.26460979,0.26460979 0 0 0 0,-0.44028 l -0.79375,-0.52917 a 0.26460979,0.26460979 0 0 0 -0.1498617,-0.0444 z"
         style="color:#000000;font-style:normal;font-variant:normal;font-weight:normal;font-stretch:normal;font-size:medium;line-height:normal;font-family:sans-serif;font-variant-ligatures:normal;font-variant-position:normal;font-variant-caps:normal;font-variant-numeric:normal;font-variant-alternates:normal;font-feature-settings:normal;text-indent:0;text-align:start;text-decoration:none;text-decoration-line:none;text-decoration-style:solid;text-decoration-color:#000000;letter-spacing:normal;word-spacing:normal;text-transform:none;writing-mode:lr-tb;direction:ltr;text-orientation:mixed;dominant-baseline:auto;baseline-shift:baseline;text-anchor:start;white-space:normal;shape-padding:0;clip-rule:nonzero;display:inline;overflow:visible;visibility:visible;opacity:1;isolation:auto;mix-blend-mode:normal;color-interpolation:sRGB;color-interpolation-filters:linearRGB;solid-color:#000000;solid-opacity:1;vector-effect:none;fill:#3ba0f3;fill-opacity:1;fill-rule:nonzero;stroke:none;stroke-width:0.5291667;stroke-linecap:round;stroke-linejoin:round;stroke-miterlimit:4;stroke-dasharray:none;stroke-dashoffset:0;stroke-opacity:1;color-rendering:auto;image-rendering:auto;shape-rendering:auto;text-rendering:auto;enable-background:accumulate"
         inkscape:connector-curvature="0" />
      <path
         id="path832-0"
         d="m -1.0583357,292.23749 -0.79375,0.52917 0.79375,0.52916 0.79375001,-0.52916 z m 2.1166665,0 -0.79374989,0.52917 0.79374989,0.52916 0.79375,-0.52916 z m -2.1166665,1.5875 -0.79375,0.52917 0.79375,0.52916 0.79375001,-0.52916 z m 2.1166665,0 -0.79374989,0.52917 0.79374989,0.52916 0.79375,-0.52916 z M -2.3895582e-6,294.88332 -0.79375239,295.41249 -2.3895582e-6,295.94166 0.79374751,295.41249 Z"
         style="fill:#c6e5ff;fill-opacity:1;stroke:none;stroke-width:0.5291667;stroke-linecap:round;stroke-linejoin:round;stroke-miterlimit:4;stroke-dasharray:none;stroke-opacity:1"
         inkscape:connector-curvature="0" />
    </g>
  </g>
</svg>
