<?xml version="1.0" encoding="UTF-8" standalone="no"?>
<!-- Created with Inkscape (http://www.inkscape.org/) -->

<svg
   xmlns:dc="http://purl.org/dc/elements/1.1/"
   xmlns:cc="http://creativecommons.org/ns#"
   xmlns:rdf="http://www.w3.org/1999/02/22-rdf-syntax-ns#"
   xmlns:svg="http://www.w3.org/2000/svg"
   xmlns="http://www.w3.org/2000/svg"
   xmlns:sodipodi="http://sodipodi.sourceforge.net/DTD/sodipodi-0.dtd"
   xmlns:inkscape="http://www.inkscape.org/namespaces/inkscape"
   width="16"
   height="16"
   viewBox="0 0 4.2333332 4.2333335"
   version="1.1"
   id="svg8"
   inkscape:version="0.92.3 (2405546, 2018-03-11)"
   sodipodi:docname="folder-temp.svg">
  <defs
     id="defs2" />
  <sodipodi:namedview
     id="base"
     pagecolor="#ffffff"
     bordercolor="#666666"
     borderopacity="1.0"
     inkscape:pageopacity="0.0"
     inkscape:pageshadow="2"
     inkscape:zoom="45.254834"
     inkscape:cx="3.808262"
     inkscape:cy="9.0674443"
     inkscape:document-units="px"
     inkscape:current-layer="layer1"
     showgrid="true"
     units="px"
     inkscape:showpageshadow="false"
     inkscape:snap-bbox="true"
     inkscape:bbox-paths="true"
     inkscape:bbox-nodes="true"
     inkscape:snap-bbox-edge-midpoints="true"
     inkscape:snap-bbox-midpoints="true"
     inkscape:object-paths="true"
     inkscape:snap-intersection-paths="true"
     inkscape:window-width="1874"
     inkscape:window-height="1141"
     inkscape:window-x="46"
     inkscape:window-y="30"
     inkscape:window-maximized="1">
    <inkscape:grid
       type="xygrid"
       id="grid815" />
  </sodipodi:namedview>
  <metadata
     id="metadata5">
    <rdf:RDF>
      <cc:Work
         rdf:about="">
        <dc:format>image/svg+xml</dc:format>
        <dc:type
           rdf:resource="http://purl.org/dc/dcmitype/StillImage" />
        <dc:title />
      </cc:Work>
    </rdf:RDF>
  </metadata>
  <g
     inkscape:label="Capa 1"
     inkscape:groupmode="layer"
     id="layer1"
     transform="translate(0,-292.76666)">
    <g
       id="g1448"
       transform="translate(1.8520833,0.79375168)">
      <path
         id="path844"
         d="m 0.26458329,292.23749 c -1.02605413,0 -1.85208329,0.82603 -1.85208329,1.85208 0,1.02606 0.82602916,1.85209 1.85208329,1.85209 1.02605421,0 1.85208341,-0.82603 1.85208341,-1.85209 0,-1.02605 -0.8260292,-1.85208 -1.85208341,-1.85208 z"
         style="fill:#36404d;fill-opacity:1;stroke:none;stroke-width:0.26458335"
         inkscape:connector-curvature="0" />
      <path
         id="rect838"
         d="m 0.26458329,292.50207 c 0.87947501,0 1.58750001,0.70803 1.58750001,1.5875 0,0.87948 -0.708025,1.5875 -1.58750001,1.5875 -0.87947496,0 -1.58749999,-0.70802 -1.58749999,-1.5875 0,-0.87947 0.70802503,-1.5875 1.58749999,-1.5875 z"
         style="opacity:1;fill:#4b6477;fill-opacity:1;stroke:none;stroke-width:0.5291667;stroke-linecap:round;stroke-linejoin:round;stroke-miterlimit:4;stroke-dasharray:none;stroke-opacity:1;paint-order:fill markers stroke"
         inkscape:connector-curvature="0" />
      <path
         id="rect840"
         d="m 0.26458329,292.76666 c 0.7328959,0 1.32291671,0.59002 1.32291671,1.32291 0,0.7329 -0.59002081,1.32292 -1.32291671,1.32292 -0.7328958,0 -1.32291659,-0.59002 -1.32291659,-1.32292 0,-0.73289 0.59002079,-1.32291 1.32291659,-1.32291 z"
         style="opacity:1;fill:#f1f1f1;fill-opacity:1;stroke:none;stroke-width:0.5291667;stroke-linecap:round;stroke-linejoin:round;stroke-miterlimit:4;stroke-dasharray:none;stroke-opacity:1;paint-order:fill markers stroke"
         inkscape:connector-curvature="0" />
      <path
         id="rect846"
         d="m 0.26458329,293.82499 c 0.1465792,0 0.2645834,0.11801 0.2645834,0.26459 v 0.79374 c 0,0.14658 -0.1180042,0.26459 -0.2645834,0.26459 C 0.11800419,295.14791 0,295.0299 0,294.88332 v -0.79374 c 0,-0.14658 0.11800419,-0.26459 0.26458329,-0.26459 z"
         style="opacity:1;fill:#f78f8f;fill-opacity:1;stroke:none;stroke-width:0.5291667;stroke-linecap:round;stroke-linejoin:round;stroke-miterlimit:4;stroke-dasharray:none;stroke-opacity:1;paint-order:fill markers stroke"
         inkscape:connector-curvature="0"
         sodipodi:nodetypes="sssssss" />
      <path
         id="path4"
         d="m 0.26458329,293.03124 c 0.1465792,0 0.2645834,0.118 0.2645834,0.26458 v 0.52917 H 1.0583333 c 0.1465792,0 0.2645834,0.11801 0.2645834,0.26459 0,0.14658 -0.1180042,0.26458 -0.2645834,0.26458 H 0.26458329 C 0.11800419,294.35416 0,294.23616 0,294.08958 v -0.79376 c 0,-0.14658 0.11800419,-0.26458 0.26458329,-0.26458 z"
         style="fill:#36404d;fill-opacity:1;stroke:none;stroke-width:0.26458335"
         inkscape:connector-curvature="0"
         sodipodi:nodetypes="sscsssssss" />
    </g>
  </g>
</svg>
