<?xml version="1.0" encoding="UTF-8" standalone="no"?>
<!-- Created with Inkscape (http://www.inkscape.org/) -->

<svg
   xmlns:dc="http://purl.org/dc/elements/1.1/"
   xmlns:cc="http://creativecommons.org/ns#"
   xmlns:rdf="http://www.w3.org/1999/02/22-rdf-syntax-ns#"
   xmlns:svg="http://www.w3.org/2000/svg"
   xmlns="http://www.w3.org/2000/svg"
   xmlns:sodipodi="http://sodipodi.sourceforge.net/DTD/sodipodi-0.dtd"
   xmlns:inkscape="http://www.inkscape.org/namespaces/inkscape"
   width="16"
   height="16"
   viewBox="0 0 4.2333332 4.2333335"
   version="1.1"
   id="svg8"
   inkscape:version="0.92.3 (2405546, 2018-03-11)"
   sodipodi:docname="folder-video.svg">
  <defs
     id="defs2" />
  <sodipodi:namedview
     id="base"
     pagecolor="#ffffff"
     bordercolor="#666666"
     borderopacity="1.0"
     inkscape:pageopacity="0.0"
     inkscape:pageshadow="2"
     inkscape:zoom="31.678384"
     inkscape:cx="1.7582079"
     inkscape:cy="7.730104"
     inkscape:document-units="px"
     inkscape:current-layer="layer1"
     showgrid="true"
     units="px"
     inkscape:showpageshadow="false"
     inkscape:snap-bbox="true"
     inkscape:bbox-paths="true"
     inkscape:bbox-nodes="true"
     inkscape:snap-bbox-edge-midpoints="true"
     inkscape:snap-bbox-midpoints="true"
     inkscape:object-paths="true"
     inkscape:snap-intersection-paths="true"
     inkscape:window-width="1874"
     inkscape:window-height="1141"
     inkscape:window-x="46"
     inkscape:window-y="30"
     inkscape:window-maximized="1">
    <inkscape:grid
       type="xygrid"
       id="grid815" />
  </sodipodi:namedview>
  <metadata
     id="metadata5">
    <rdf:RDF>
      <cc:Work
         rdf:about="">
        <dc:format>image/svg+xml</dc:format>
        <dc:type
           rdf:resource="http://purl.org/dc/dcmitype/StillImage" />
        <dc:title></dc:title>
      </cc:Work>
    </rdf:RDF>
  </metadata>
  <g
     inkscape:label="Capa 1"
     inkscape:groupmode="layer"
     id="layer1"
     transform="translate(0,-292.76666)">
    <g
       id="g1460"
       transform="translate(1.5874999,0.52954806)">
      <path
         id="path4"
         class="ColorScheme-Text"
         style="fill:#6e7cd4;fill-opacity:1;stroke:none;stroke-width:0.26458335"
         d="m -0.79374998,293.03059 c -0.29315832,0 -0.52916662,0.236 -0.52916662,0.52916 v 1.5875 c 0,0.29316 0.2360083,0.52917 0.52916662,0.52917 h 1.58749993 c 0.29315845,0 0.52916675,-0.23601 0.52916675,-0.52917 v -0.0315 l 0.6283855,0.50281 c 0.1732891,0.13868 0.4300405,0.0152 0.4299479,-0.2067 v -2.11667 c 4.87e-5,-0.1492 -0.1231982,-0.26894 -0.2723349,-0.26458 -0.057428,0.002 -0.1127516,0.022 -0.157613,0.0579 l -0.6283855,0.50281 v -0.0315 c 0,-0.29316 -0.2360083,-0.52916 -0.52916675,-0.52916 z"
         inkscape:connector-curvature="0" />
      <path
         id="rect836"
         d="m -0.79375001,293.2958 h 1.58749996 c 0.1465792,0 0.26458345,0.11801 0.26458345,0.26458 v 1.5875 c 0,0.14658 -0.11800425,0.26459 -0.26458345,0.26459 h -1.58749996 c -0.14657916,0 -0.26458329,-0.11801 -0.26458329,-0.26459 v -1.5875 c 0,-0.14657 0.11800413,-0.26458 0.26458329,-0.26458 z"
         style="opacity:1;fill:#93a0e6;fill-opacity:1;stroke:none;stroke-width:0.5291667;stroke-linecap:round;stroke-linejoin:round;stroke-miterlimit:4;stroke-dasharray:none;stroke-opacity:1;paint-order:fill markers stroke"
         inkscape:connector-curvature="0" />
      <path
         inkscape:connector-curvature="0"
         id="path841"
         d="m 2.1166667,295.41247 v -2.11667 l -1.32291675,1.05833 z"
         style="fill:#93a0e6;fill-opacity:1;stroke:none;stroke-width:0.26458335px;stroke-linecap:butt;stroke-linejoin:miter;stroke-opacity:1" />
      <path
         id="rect843"
         d="m -0.39687501,293.56038 c 0.21986876,0 0.396874964583335,0.17701 0.396874964583335,0.39688 0,0.21987 -0.177006204583335,0.39687 -0.396874964583335,0.39687 -0.21986875,0 -0.396875,-0.177 -0.396875,-0.39687 0,-0.21987 0.17700625,-0.39688 0.396875,-0.39688 z"
         style="opacity:1;fill:#6e7cd4;fill-opacity:1;stroke:none;stroke-width:0.5291667;stroke-linecap:round;stroke-linejoin:round;stroke-miterlimit:4;stroke-dasharray:none;stroke-opacity:1;paint-order:fill markers stroke"
         inkscape:connector-curvature="0" />
      <path
         id="rect845"
         d="m -0.39687501,293.82497 c 0.0732896,0 0.13229166,0.059 0.13229166,0.13229 0,0.0733 -0.0590021,0.13229 -0.13229166,0.13229 -0.0732896,0 -0.13229166,-0.059 -0.13229166,-0.13229 0,-0.0733 0.0590021,-0.13229 0.13229166,-0.13229 z"
         style="opacity:1;fill:#ebecf4;fill-opacity:1;stroke:none;stroke-width:0.5291667;stroke-linecap:round;stroke-linejoin:round;stroke-miterlimit:4;stroke-dasharray:none;stroke-opacity:1;paint-order:fill markers stroke"
         inkscape:connector-curvature="0" />
    </g>
  </g>
</svg>
