<?xml version="1.0" encoding="UTF-8" standalone="no"?>
<!-- Created with Inkscape (http://www.inkscape.org/) -->

<svg
   width="16"
   height="16"
   viewBox="0 0 4.2333332 4.2333335"
   version="1.1"
   id="svg8"
   inkscape:version="1.2.1 (9c6d41e410, 2022-07-14)"
   sodipodi:docname="folder-owncloud.svg"
   xmlns:inkscape="http://www.inkscape.org/namespaces/inkscape"
   xmlns:sodipodi="http://sodipodi.sourceforge.net/DTD/sodipodi-0.dtd"
   xmlns="http://www.w3.org/2000/svg"
   xmlns:svg="http://www.w3.org/2000/svg"
   xmlns:rdf="http://www.w3.org/1999/02/22-rdf-syntax-ns#"
   xmlns:cc="http://creativecommons.org/ns#"
   xmlns:dc="http://purl.org/dc/elements/1.1/">
  <defs
     id="defs2" />
  <sodipodi:namedview
     id="base"
     pagecolor="#ffffff"
     bordercolor="#666666"
     borderopacity="1.0"
     inkscape:pageopacity="0.0"
     inkscape:pageshadow="2"
     inkscape:zoom="31.999999"
     inkscape:cx="11.390626"
     inkscape:cy="9.0781254"
     inkscape:document-units="px"
     inkscape:current-layer="layer1"
     showgrid="true"
     units="px"
     inkscape:showpageshadow="false"
     inkscape:snap-bbox="true"
     inkscape:bbox-paths="true"
     inkscape:bbox-nodes="true"
     inkscape:snap-bbox-edge-midpoints="true"
     inkscape:snap-bbox-midpoints="true"
     inkscape:object-paths="true"
     inkscape:snap-intersection-paths="true"
     inkscape:window-width="2160"
     inkscape:window-height="1335"
     inkscape:window-x="0"
     inkscape:window-y="0"
     inkscape:window-maximized="1"
     inkscape:pagecheckerboard="0"
     inkscape:deskcolor="#d1d1d1">
    <inkscape:grid
       type="xygrid"
       id="grid815" />
  </sodipodi:namedview>
  <metadata
     id="metadata5">
    <rdf:RDF>
      <cc:Work
         rdf:about="">
        <dc:format>image/svg+xml</dc:format>
        <dc:type
           rdf:resource="http://purl.org/dc/dcmitype/StillImage" />
        <dc:title />
      </cc:Work>
    </rdf:RDF>
  </metadata>
  <g
     inkscape:label="Capa 1"
     inkscape:groupmode="layer"
     id="layer1"
     transform="translate(0,-292.76666)">
    <path
       id="rect1324"
       style="opacity:1;fill:#287bc2;fill-opacity:1;stroke-width:0.529167;stroke-linecap:round;stroke-linejoin:round;stroke-miterlimit:1.8;paint-order:fill markers stroke;stop-color:#000000"
       d="M 2.2489583 293.29583 C 1.8762994 293.29583 1.5563638 293.51376 1.4092163 293.82964 C 1.3808087 293.82659 1.3521615 293.82499 1.3229167 293.82499 C 0.88317959 293.82499 0.52916667 294.17901 0.52916667 294.61874 C 0.52916667 294.64799 0.5307649 294.67664 0.53381755 294.70504 C 0.21793036 294.85219 0 295.17212 0 295.54479 C 7.8332324e-17 296.05781 0.41301527 296.47083 0.92604167 296.47083 L 3.0427083 296.47083 C 3.7023135 296.47083 4.2333333 295.93981 4.2333333 295.2802 C 4.2333333 294.66253 3.7675772 294.15747 3.1667318 294.09578 C 3.1056365 293.64277 2.719239 293.29583 2.2489583 293.29583 z " />
    <g
       id="g1467"
       transform="translate(1.8520833,0.79374668)" />
    <path
       id="rect844"
       style="opacity:1;fill:#78c1ff;stroke-width:0.529167;stroke-linecap:round;stroke-linejoin:round;stroke-miterlimit:1.8;paint-order:fill markers stroke;stop-color:#000000;fill-opacity:1"
       d="M 2.2319051 293.56041 C 1.9132647 293.56843 1.6519618 293.80045 1.5978353 294.10508 C 1.5519656 294.09508 1.5041606 294.08958 1.4552083 294.08958 C 1.0887608 294.08958 0.79375 294.38459 0.79375 294.75104 C 0.79375 294.79999 0.79925686 294.84779 0.80925293 294.89366 L 0.80873617 294.89366 C 0.49866861 294.94876 0.26458333 295.21842 0.26458333 295.54479 C 0.26458333 295.91123 0.55959413 296.20624 0.92604167 296.20624 L 3.0427083 296.20624 L 3.0690633 296.20624 L 3.0690633 296.20573 C 3.5697043 296.19176 3.96875 295.78434 3.96875 295.2802 C 3.96875 294.76718 3.5557334 294.35416 3.0427083 294.35416 C 2.9922458 294.35416 2.9426264 294.35835 2.894397 294.36605 C 2.9046196 294.31969 2.9104167 294.27139 2.9104167 294.22187 C 2.9104167 293.85542 2.6154059 293.56041 2.2489583 293.56041 C 2.2432326 293.56041 2.2375951 293.56027 2.2319051 293.56041 z " />
  </g>
</svg>
