<?xml version="1.0" encoding="UTF-8" standalone="no"?>
<!-- Created with Inkscape (http://www.inkscape.org/) -->

<svg
   xmlns:dc="http://purl.org/dc/elements/1.1/"
   xmlns:cc="http://creativecommons.org/ns#"
   xmlns:rdf="http://www.w3.org/1999/02/22-rdf-syntax-ns#"
   xmlns:svg="http://www.w3.org/2000/svg"
   xmlns="http://www.w3.org/2000/svg"
   xmlns:sodipodi="http://sodipodi.sourceforge.net/DTD/sodipodi-0.dtd"
   xmlns:inkscape="http://www.inkscape.org/namespaces/inkscape"
   width="16"
   height="16"
   viewBox="0 0 4.2333332 4.2333335"
   version="1.1"
   id="svg8"
   inkscape:version="0.92.3 (2405546, 2018-03-11)"
   sodipodi:docname="folder-locked.svg">
  <defs
     id="defs2" />
  <sodipodi:namedview
     id="base"
     pagecolor="#ffffff"
     bordercolor="#666666"
     borderopacity="1.0"
     inkscape:pageopacity="0.0"
     inkscape:pageshadow="2"
     inkscape:zoom="31.678384"
     inkscape:cx="1.7582079"
     inkscape:cy="7.730104"
     inkscape:document-units="px"
     inkscape:current-layer="layer1"
     showgrid="true"
     units="px"
     inkscape:showpageshadow="false"
     inkscape:snap-bbox="true"
     inkscape:bbox-paths="true"
     inkscape:bbox-nodes="true"
     inkscape:snap-bbox-edge-midpoints="true"
     inkscape:snap-bbox-midpoints="true"
     inkscape:object-paths="true"
     inkscape:snap-intersection-paths="true"
     inkscape:window-width="1874"
     inkscape:window-height="1141"
     inkscape:window-x="46"
     inkscape:window-y="30"
     inkscape:window-maximized="1">
    <inkscape:grid
       type="xygrid"
       id="grid815" />
  </sodipodi:namedview>
  <metadata
     id="metadata5">
    <rdf:RDF>
      <cc:Work
         rdf:about="">
        <dc:format>image/svg+xml</dc:format>
        <dc:type
           rdf:resource="http://purl.org/dc/dcmitype/StillImage" />
        <dc:title></dc:title>
      </cc:Work>
    </rdf:RDF>
  </metadata>
  <g
     inkscape:label="Capa 1"
     inkscape:groupmode="layer"
     id="layer1"
     transform="translate(0,-292.76666)">
    <path
       inkscape:connector-curvature="0"
       style="color:#122036;font-style:normal;font-variant:normal;font-weight:normal;font-stretch:normal;font-size:medium;line-height:normal;font-family:sans-serif;font-variant-ligatures:normal;font-variant-position:normal;font-variant-caps:normal;font-variant-numeric:normal;font-variant-alternates:normal;font-feature-settings:normal;text-indent:0;text-align:start;text-decoration:none;text-decoration-line:none;text-decoration-style:solid;text-decoration-color:#000000;letter-spacing:normal;word-spacing:normal;text-transform:none;writing-mode:lr-tb;direction:ltr;text-orientation:mixed;dominant-baseline:auto;baseline-shift:baseline;text-anchor:start;white-space:normal;shape-padding:0;clip-rule:nonzero;display:inline;overflow:visible;visibility:visible;opacity:1;isolation:auto;mix-blend-mode:normal;color-interpolation:sRGB;color-interpolation-filters:linearRGB;solid-color:#000000;solid-opacity:1;vector-effect:none;fill:#85898c;fill-opacity:1;fill-rule:nonzero;stroke:none;stroke-width:0.5291667;stroke-linecap:round;stroke-linejoin:round;stroke-miterlimit:4;stroke-dasharray:none;stroke-dashoffset:0;stroke-opacity:1;color-rendering:auto;image-rendering:auto;shape-rendering:auto;text-rendering:auto;enable-background:accumulate"
       d="m 2.1166667,293.03125 c -0.7283193,0 -1.32291661,0.5946 -1.32291661,1.32292 v 0.1111 c -0.1484925,0.0945 -0.2645834,0.23193 -0.2645834,0.41806 v 1.5875 c 0,0.28859 0.2405849,0.52917 0.52916671,0.52917 H 3.175 c 0.2885819,0 0.5291667,-0.24058 0.5291667,-0.52917 v -1.5875 c 0,-0.18613 -0.116091,-0.32354 -0.2645833,-0.41806 v -0.1111 c 0,-0.72832 -0.5945974,-1.32292 -1.3229167,-1.32292 z"
       id="path855" />
    <path
       inkscape:connector-curvature="0"
       d="m 2.1166667,293.29583 c -0.5863167,0 -1.0583334,0.47202 -1.0583334,1.05834 v 0.26458 c -0.14657913,0 -0.26458326,0.118 -0.26458326,0.26458 v 1.5875 c 0,0.14658 0.11800413,0.26459 0.26458326,0.26459 h 2.1166666 c 0.1465792,0 0.2645834,-0.11801 0.2645834,-0.26459 v -1.5875 c 0,-0.14658 -0.1180042,-0.26458 -0.2645834,-0.26458 v -0.26458 c 0,-0.58632 -0.4720165,-1.05834 -1.0583332,-1.05834 z m 0,0.52917 c 0.2931583,0 0.5291667,0.23601 0.5291667,0.52917 v 0.26458 H 1.5875 v -0.26458 c 0,-0.29316 0.2360084,-0.52917 0.5291667,-0.52917 z m 0,1.05833 c 0.2931583,0 0.5291667,0.23601 0.5291667,0.52917 0,0.19607 -0.1069449,0.36487 -0.2645834,0.4563 v 0.60203 H 1.8520834 V 295.8688 C 1.6944449,295.7774 1.5875,295.60857 1.5875,295.4125 c 0,-0.29316 0.2360084,-0.52917 0.5291667,-0.52917 z"
       style="color:#122036;fill:#dbdfe4;fill-opacity:1;stroke:none;stroke-width:0.26458335"
       class="ColorScheme-Text"
       id="path4" />
  </g>
</svg>
