<?xml version="1.0" encoding="UTF-8" standalone="no"?>
<svg
   xmlns:dc="http://purl.org/dc/elements/1.1/"
   xmlns:cc="http://creativecommons.org/ns#"
   xmlns:rdf="http://www.w3.org/1999/02/22-rdf-syntax-ns#"
   xmlns:svg="http://www.w3.org/2000/svg"
   xmlns="http://www.w3.org/2000/svg"
   xmlns:sodipodi="http://sodipodi.sourceforge.net/DTD/sodipodi-0.dtd"
   xmlns:inkscape="http://www.inkscape.org/namespaces/inkscape"
   height="22"
   viewBox="0 0 5.820833 5.8208331"
   width="22"
   version="1.1"
   id="svg6"
   sodipodi:docname="alt-torrents.svg"
   inkscape:version="0.92.4 5da689c313, 2019-01-14">
  <metadata
     id="metadata10">
    <rdf:RDF>
      <cc:Work
         rdf:about="">
        <dc:format>image/svg+xml</dc:format>
        <dc:type
           rdf:resource="http://purl.org/dc/dcmitype/StillImage" />
        <dc:title></dc:title>
      </cc:Work>
    </rdf:RDF>
  </metadata>
  <sodipodi:namedview
     pagecolor="#ffffff"
     bordercolor="#666666"
     borderopacity="1"
     objecttolerance="10"
     gridtolerance="10"
     guidetolerance="10"
     inkscape:pageopacity="0"
     inkscape:pageshadow="2"
     inkscape:window-width="1920"
     inkscape:window-height="1049"
     id="namedview8"
     showgrid="true"
     inkscape:zoom="16"
     inkscape:cx="-6.5885441"
     inkscape:cy="13.348303"
     inkscape:window-x="0"
     inkscape:window-y="0"
     inkscape:window-maximized="1"
     inkscape:current-layer="svg6">
    <inkscape:grid
       type="xygrid"
       id="grid817" />
  </sodipodi:namedview>
  <defs
     id="defs2">
    <style
       type="text/css"
       id="current-color-scheme">
      .ColorScheme-Text {
        color:#36404d;
      }
      </style>
  </defs>
  <path
     style="opacity:1;vector-effect:none;fill:#4b5799;fill-opacity:1;stroke:none;stroke-width:2;stroke-linecap:round;stroke-linejoin:miter;stroke-miterlimit:4;stroke-dasharray:none;stroke-dashoffset:0;stroke-opacity:1;paint-order:normal"
     d="M 11 0 C 4.9059998 -1.1842379e-15 0 4.9059998 0 11 C -1.1711546e-15 17.026675 4.8005151 21.883479 10.800781 21.990234 L 10.800781 22 L 11 22 L 22 22 L 22 11 L 22 10.900391 L 21.994141 10.900391 C 21.940326 4.8532414 17.060321 0 11 0 z "
     transform="scale(0.26458332)"
     id="rect874" />
  <path
     inkscape:connector-curvature="0"
     d="m 2.9222931,0.26568193 c -0.7150086,-0.0104 -1.4037931,0.269 -1.9094439,0.77462997 -0.75656757,0.75662 -0.98294877,1.89444 -0.57360827,2.8830299 0.4094518,0.9887 1.37416277,1.6334101 2.44429507,1.63349 v -0.52916 c -0.070581,6.01e-5 -0.1411219,-0.003 -0.2113566,-0.0104 -0.070253,-0.007 -0.140104,-0.0179 -0.2092897,-0.032 -0.069039,-0.014 -0.1373367,-0.0314 -0.2046385,-0.0522 -0.067484,-0.0208 -0.1338855,-0.045 -0.1989544,-0.0724 -0.065057,-0.0275 -0.1286985,-0.0582 -0.190686,-0.092 -0.061923,-0.0338 -0.1221147,-0.0707 -0.1803506,-0.1105898 -0.058257,-0.0399 -0.1144827,-0.0827 -0.1684652,-0.1281602 -0.053873,-0.0455 -0.1054411,-0.0936 -0.1545124,-0.1441799 -0.04931,-0.0507 -0.09605,-0.1038 -0.1400432,-0.1591601 -0.043839,-0.0553 -0.084887,-0.1127099 -0.1229899,-0.17208 -0.038,-0.0594 -0.073012,-0.1205899 -0.10490307,-0.1834499 -0.025035,-0.0492 -0.048135,-0.0994 -0.069247,-0.1503802 -0.027069,-0.0651 -0.05087,-0.1314899 -0.071313,-0.1989499 -0.020303,-0.0677 -0.037205,-0.13632 -0.050643,-0.20568 -0.013471,-0.0692 -0.023474,-0.13907 -0.029972,-0.2092899 -0.00662,-0.0702 -0.00972,-0.1407901 -0.0093,-0.21135 6.053e-4,-0.0706 0.00474,-0.14116 0.012401,-0.21136 0.00754,-0.0701 0.018579,-0.13977 0.033073,-0.20877 0.014492,-0.0691 0.032429,-0.13737 0.053744,-0.20464 0.021306,-0.0673 0.045969,-0.13357 0.073897,-0.19844 0.027999,-0.0647 0.059216,-0.12803 0.093534,-0.18965 0.0342,-0.0616 0.071453,-0.12144 0.1116211,-0.17932 0.040401,-0.0581 0.083691,-0.11417 0.129708,-0.16795 0.035794,-0.0417 0.073202,-0.0821 0.1121378,-0.12092 0.049793,-0.05 0.1020514,-0.0974 0.1565795,-0.14211 0.054713,-0.0447 0.1116284,-0.0866 0.1705323,-0.12558 0.058796,-0.039 0.1195052,-0.075 0.181901,-0.108 0.062377,-0.033 0.1263629,-0.0628 0.1917194,-0.0894 0.065465,-0.0264 0.1322114,-0.0496 0.199988,-0.0693 0.067688,-0.0199 0.1363309,-0.0365 0.2056722,-0.0496 0.069418,-0.013 0.1394409,-0.0224 0.2098062,-0.0284 0.070275,-0.006 0.1408151,-0.009 0.2113565,-0.008 0.070469,0.001 0.1408369,0.006 0.2108399,0.014 0.070124,0.008 0.1398023,0.0196 0.2087729,0.0346 0.06892,0.015 0.1370451,0.0335 0.2041218,0.0553 0.052404,0.0171 0.1041201,0.0363 0.1550294,0.0574 0.065201,0.0269 0.1290148,0.0571 0.1912027,0.0904 0.062253,0.0335 0.12279,0.07 0.1813843,0.10955 0.058575,0.0393 0.1151451,0.0816 0.1694987,0.12661 0.0542,0.0451 0.1061135,0.0929 0.1555459,0.14314 0.049636,0.0503 0.096721,0.1031 0.1410769,0.15813 0.044163,0.0549 0.085556,0.112 0.1240234,0.17105 0.038674,0.059 0.074375,0.11987 0.10697,0.18242 0.032482,0.0627 0.061802,0.12707 0.08785,0.19275 0.026069,0.0657 0.048836,0.13258 0.068213,0.20051 0.019259,0.0677 0.035125,0.13637 0.047542,0.20567 0.012621,0.0694 0.021762,0.13946 0.027388,0.20981 0.00422,0.055 0.00629,0.11018 0.0062,0.16536 H 5.5293667 C 5.5292821,1.840532 4.8845793,0.87582203 3.8958788,0.46637203 3.586968,0.33845203 3.2566098,0.27023203 2.922295,0.26534203 Z M 2.9104081,1.0589219 c -0.5004693,-0.007 -0.9825196,0.18859 -1.3363527,0.5426 -0.5297488,0.5297 -0.68822577,1.3263698 -0.4015258,2.0184799 0.2867293,0.6919502 0.9620022,1.1430801 1.7110065,1.1430801 V 4.2339218 c -0.044186,-1.201e-4 -0.088339,-0.002 -0.1322915,-0.007 -0.04388,-0.004 -0.087515,-0.0109 -0.1307415,-0.0196 -0.043236,-0.009 -0.086009,-0.0196 -0.1281576,-0.0326 -0.042073,-0.0131 -0.083466,-0.0283 -0.1240234,-0.0455 -0.040549,-0.0171 -0.080217,-0.0363 -0.1188558,-0.0574 -0.038684,-0.0212 -0.076282,-0.0443 -0.1126547,-0.0693 -0.036455,-0.0249 -0.071639,-0.0517 -0.1054197,-0.0801 -0.033687,-0.0283 -0.065939,-0.0583 -0.096635,-0.0899 -0.030759,-0.0317 -0.059906,-0.065 -0.087333,-0.0997 -0.027441,-0.0345 -0.053139,-0.0704 -0.076998,-0.1074801 -0.023774,-0.0371 -0.045678,-0.0754 -0.065629,-0.1147198 -0.015679,-0.0306 -0.030159,-0.0618 -0.043408,-0.0935 -0.016881,-0.0408 -0.031713,-0.0823 -0.044442,-0.1245401 -0.012824,-0.0423 -0.023517,-0.0853 -0.032039,-0.1286698 -0.00837,-0.0433 -0.014583,-0.0869 -0.018603,-0.1307502 -0.0041,-0.044 -0.006,-0.0881 -0.00568,-0.1322899 3.891e-4,-0.044 0.00298,-0.088 0.00775,-0.13177 0.0047,-0.0439 0.011604,-0.0875 0.020672,-0.13074 0.00907,-0.0431 0.020277,-0.0857 0.03359,-0.12764 0.013253,-0.0421 0.028603,-0.0835 0.045992,-0.12403 0.017469,-0.0406 0.036957,-0.0802 0.058394,-0.11885 0.021541,-0.0385 0.044997,-0.076 0.07028,-0.11214 0.025119,-0.0361 0.052024,-0.071 0.080615,-0.10439 0.022426,-0.0262 0.045871,-0.0516 0.07028,-0.076 0.031223,-0.0312 0.063993,-0.0609 0.098185,-0.0889 0.034151,-0.028 0.06968,-0.0542 0.1064534,-0.0786 0.036754,-0.0243 0.074697,-0.0467 0.1136884,-0.0672 0.039008,-0.0206 0.079021,-0.0392 0.1198892,-0.0558 0.040766,-0.0165 0.082331,-0.031 0.1245403,-0.0434 0.042347,-0.0125 0.085292,-0.0228 0.1286742,-0.031 0.043423,-0.008 0.087231,-0.0143 0.1312582,-0.0181 0.043813,-0.004 0.087791,-0.006 0.1317708,-0.005 0.04422,7.911e-4 0.088373,0.004 0.1322914,0.009 0.043742,0.005 0.087205,0.0123 0.1302247,0.0217 0.043097,0.009 0.085697,0.021 0.1276409,0.0346 0.032837,0.0106 0.065246,0.0225 0.097152,0.0357 0.040703,0.0168 0.080543,0.0356 0.1193726,0.0563 0.038847,0.021 0.076618,0.0439 0.1131716,0.0687 0.036608,0.0246 0.071965,0.051 0.1059365,0.0791 0.033852,0.0282 0.066276,0.058 0.097152,0.0894 0.031086,0.0314 0.060578,0.0643 0.088367,0.0987 0.027604,0.0343 0.053474,0.07 0.077515,0.10697 0.024112,0.0369 0.04636,0.075 0.066663,0.11421 0.020257,0.0392 0.038537,0.0794 0.054777,0.1204 0.016373,0.041 0.030688,0.0827 0.042892,0.12506 0.012129,0.0424 0.02213,0.0853 0.029972,0.12868 0.0077,0.0434 0.013216,0.0872 0.016536,0.13125 0.00273,0.0344 0.00411,0.0689 0.00414,0.10336 h 0.5291692 c 1.4e-6,-0.74901 -0.4511333,-1.42428 -1.1430851,-1.71101 -0.2164069,-0.0898 -0.4478761,-0.13762 -0.6821289,-0.14108 z m -0.011369,0.79375 c -0.2860336,-0.004 -0.5615516,0.10773 -0.7637772,0.31006 -0.3027106,0.30268 -0.3932688,0.75792 -0.2294434,1.1534099 0.1638449,0.3954 0.5497152,0.6531901 0.977718,0.6531901 v -0.52916 c -0.017609,-1.201e-4 -0.035201,-0.00101 -0.05271,-0.003 -0.01752,-0.00201 -0.034939,-0.004 -0.052193,-0.008 -0.01744,-0.004 -0.034687,-0.008 -0.051676,-0.013401 -0.016827,-0.005 -0.033384,-0.0112 -0.049609,-0.0181 -0.016215,-0.007 -0.032082,-0.014401 -0.047543,-0.022699 -0.015442,-0.009 -0.030447,-0.017899 -0.044958,-0.0279 -0.014652,-0.010001 -0.028794,-0.020601 -0.042375,-0.032 -0.013516,-0.011401 -0.026451,-0.0235 -0.038757,-0.0362 -0.012183,-0.012499 -0.023738,-0.025601 -0.034623,-0.0393 -0.011058,-0.013901 -0.021407,-0.0284 -0.031006,-0.0434 -0.00955,-0.014899 -0.018344,-0.0302 -0.026355,-0.046 -0.00616,-0.0122 -0.01185,-0.024601 -0.017052,-0.0372 -0.00669,-0.016399 -0.012556,-0.0331 -0.017571,-0.0501 -0.00516,-0.016801 -0.00947,-0.0339 -0.01292,-0.0512 -0.00345,-0.017301 -0.00604,-0.0347 -0.00775,-0.0522 -0.00156,-0.0175 -0.00225,-0.0351 -0.00206,-0.0527 1.392e-4,-0.0178 0.00117,-0.0355 0.0031,-0.0532 0.00189,-0.0175 0.00465,-0.0349 0.00827,-0.0522 0.00362,-0.0173 0.00811,-0.0344 0.013436,-0.0512 0.00537,-0.0168 0.011578,-0.0334 0.018603,-0.0496 0.00697,-0.016 0.014731,-0.0317 0.023254,-0.047 0.00854,-0.0155 0.017858,-0.0305 0.027905,-0.045 0.010145,-0.0145 0.02101,-0.0285 0.032556,-0.0419 0.0089,-0.0105 0.01821,-0.0207 0.027905,-0.0305 0.012486,-0.0125 0.025594,-0.0245 0.039274,-0.0357 0.013603,-0.011 0.027746,-0.0214 0.042375,-0.031 0.01469,-0.01 0.029868,-0.019 0.045475,-0.0274 0.015639,-0.008 0.031679,-0.0156 0.048059,-0.0222 0.016403,-0.007 0.033133,-0.0126 0.050126,-0.0176 0.016846,-0.005 0.03392,-0.009 0.05116,-0.0119 0.017442,-0.003 0.035034,-0.006 0.05271,-0.007 0.017526,-0.002 0.035118,-0.002 0.05271,-0.002 0.017627,4.498e-4 0.035218,0.002 0.05271,0.004 0.017521,0.002 0.034939,0.004 0.052193,0.008 0.017275,0.004 0.03435,0.008 0.05116,0.0139 0.013102,0.004 0.026032,0.009 0.038757,0.0145 0.016214,0.007 0.032081,0.0144 0.047542,0.0227 0.015608,0.008 0.030785,0.0175 0.045475,0.0274 0.014639,0.01 0.028783,0.0203 0.042375,0.0315 0.013504,0.0112 0.02644,0.0232 0.038757,0.0357 0.012372,0.0127 0.024101,0.026 0.03514,0.0398 0.011208,0.0136 0.021728,0.0278 0.031522,0.0424 0.00955,0.0149 0.018344,0.0302 0.026355,0.046 0.00821,0.0156 0.015621,0.0317 0.02222,0.0481 0.00652,0.0164 0.012208,0.0331 0.017052,0.0501 0.00482,0.017 0.00879,0.0343 0.011885,0.0517 0.0031,0.0173 0.00535,0.0347 0.00672,0.0522 0.00122,0.0137 0.0019,0.0275 0.00206,0.0413 h 0.5291706 c -3.2e-6,-0.428 -0.257796,-0.81388 -0.6531986,-0.97772 -0.1236162,-0.0513 -0.2558325,-0.0786 -0.3896402,-0.0806 z m -0.014986,1.5875 v 0.52916 L 5.5562496,3.9687428 V 3.4395831 Z m 0,0.7937499 v 0.5291601 l 2.6721965,-5.891e-4 v -0.52916 z m 0,0.79375 v 0.52916 l 2.6721964,-5.891e-4 v -0.52916 z"
     style="color:#36404d;fill:#e5e7f0;fill-opacity:1;stroke:none;stroke-width:1"
     class="ColorScheme-Text"
     id="path4-3"
     sodipodi:nodetypes="ccccccccccccccccccccccccccccccccccccccccccccccccccccccccccccccccccccccccccccccccccccccccccccccccccccccccccccccccccccccccccccccccccccccccsccccccccccccccccccccccccccccccccccccccccccccccccc" />
</svg>
