<?xml version="1.0" encoding="UTF-8" standalone="no"?>
<!-- Created with Inkscape (http://www.inkscape.org/) -->

<svg
   xmlns:dc="http://purl.org/dc/elements/1.1/"
   xmlns:cc="http://creativecommons.org/ns#"
   xmlns:rdf="http://www.w3.org/1999/02/22-rdf-syntax-ns#"
   xmlns:svg="http://www.w3.org/2000/svg"
   xmlns="http://www.w3.org/2000/svg"
   xmlns:sodipodi="http://sodipodi.sourceforge.net/DTD/sodipodi-0.dtd"
   xmlns:inkscape="http://www.inkscape.org/namespaces/inkscape"
   width="22"
   height="22"
   viewBox="0 0 5.8208332 5.8208335"
   version="1.1"
   id="svg8"
   inkscape:version="0.92.4 5da689c313, 2019-01-14"
   sodipodi:docname="folder-video.svg">
  <defs
     id="defs2" />
  <sodipodi:namedview
     id="base"
     pagecolor="#ffffff"
     bordercolor="#666666"
     borderopacity="1.0"
     inkscape:pageopacity="0.0"
     inkscape:pageshadow="2"
     inkscape:zoom="22.4"
     inkscape:cx="4.6635971"
     inkscape:cy="9.3695614"
     inkscape:document-units="px"
     inkscape:current-layer="g1473"
     showgrid="true"
     units="px"
     inkscape:showpageshadow="false"
     inkscape:snap-bbox="true"
     inkscape:bbox-paths="true"
     inkscape:bbox-nodes="true"
     inkscape:snap-bbox-edge-midpoints="true"
     inkscape:snap-bbox-midpoints="true"
     inkscape:object-paths="true"
     inkscape:snap-intersection-paths="true"
     inkscape:window-width="1920"
     inkscape:window-height="1049"
     inkscape:window-x="0"
     inkscape:window-y="0"
     inkscape:window-maximized="1">
    <inkscape:grid
       type="xygrid"
       id="grid815" />
  </sodipodi:namedview>
  <metadata
     id="metadata5">
    <rdf:RDF>
      <cc:Work
         rdf:about="">
        <dc:format>image/svg+xml</dc:format>
        <dc:type
           rdf:resource="http://purl.org/dc/dcmitype/StillImage" />
        <dc:title />
      </cc:Work>
    </rdf:RDF>
  </metadata>
  <g
     inkscape:label="Capa 1"
     inkscape:groupmode="layer"
     id="layer1"
     transform="translate(0,-291.17916)">
    <g
       id="g1473"
       transform="translate(3.175,2.3812499)">
      <path
         id="path4"
         class="ColorScheme-Text"
         style="fill:#4b5799;fill-opacity:1;stroke:none;stroke-width:0.26458332"
         d="m -2.1166667,290.12094 c -0.2931602,0 -0.5291666,0.23596 -0.5291666,0.52907 v 2.11628 c 0,0.29311 0.2360064,0.52908 0.5291666,0.52908 H -4.0909089e-8 C 0.29316016,293.29537 0.52916666,293.0594 0.52916666,292.76629 v -0.68407 l 1.13584814,1.13565 c 0.1666859,0.16654 0.451559,0.0486 0.4516519,-0.18704 v -2.64536 c 4.87e-5,-0.14917 -0.1231982,-0.26889 -0.2723348,-0.26453 -0.067471,0.002 -0.1316196,0.0297 -0.1793171,0.0775 l -1.13584814,1.13564 v -0.68407 c 0,-0.29311 -0.2360065,-0.52907 -0.529166700909089,-0.52907 z"
         inkscape:connector-curvature="0" />
      <path
         id="rect819"
         d="m -2.1166667,290.3854 c -0.1465791,0 -0.2645833,0.11801 -0.2645833,0.26459 v 2.11666 c 0,0.14658 0.1180042,0.26459 0.2645833,0.26459 H -4.0909089e-8 C 0.14657916,293.03124 0.26458336,292.91323 0.26458336,292.76665 v -2.11666 c 0,-0.14658 -0.1180042,-0.26459 -0.264583400909089,-0.26459 z m 3.9687501,0 -1.32291674,1.32292 1.32291674,1.32292 z"
         style="opacity:1;fill:#e1e5f8;fill-opacity:1;stroke:none;stroke-width:0.52916664;stroke-linecap:round;stroke-linejoin:round;stroke-miterlimit:4;stroke-dasharray:none;stroke-opacity:1"
         inkscape:connector-curvature="0" />
    </g>
  </g>
</svg>
