<?xml version="1.0" encoding="UTF-8" standalone="no"?>
<!-- Created with Inkscape (http://www.inkscape.org/) -->

<svg
   xmlns:dc="http://purl.org/dc/elements/1.1/"
   xmlns:cc="http://creativecommons.org/ns#"
   xmlns:rdf="http://www.w3.org/1999/02/22-rdf-syntax-ns#"
   xmlns:svg="http://www.w3.org/2000/svg"
   xmlns="http://www.w3.org/2000/svg"
   xmlns:sodipodi="http://sodipodi.sourceforge.net/DTD/sodipodi-0.dtd"
   xmlns:inkscape="http://www.inkscape.org/namespaces/inkscape"
   width="22"
   height="22"
   viewBox="0 0 5.8208332 5.8208335"
   version="1.1"
   id="svg8"
   inkscape:version="0.92.4 5da689c313, 2019-01-14"
   sodipodi:docname="folder-picture.svg">
  <defs
     id="defs2" />
  <sodipodi:namedview
     id="base"
     pagecolor="#ffffff"
     bordercolor="#666666"
     borderopacity="1.0"
     inkscape:pageopacity="0.0"
     inkscape:pageshadow="2"
     inkscape:zoom="22.4"
     inkscape:cx="3.4911651"
     inkscape:cy="14.430831"
     inkscape:document-units="px"
     inkscape:current-layer="g4584"
     showgrid="true"
     units="px"
     inkscape:showpageshadow="false"
     inkscape:snap-bbox="true"
     inkscape:bbox-paths="true"
     inkscape:bbox-nodes="true"
     inkscape:snap-bbox-edge-midpoints="true"
     inkscape:snap-bbox-midpoints="true"
     inkscape:object-paths="true"
     inkscape:snap-intersection-paths="true"
     inkscape:window-width="1920"
     inkscape:window-height="1049"
     inkscape:window-x="0"
     inkscape:window-y="0"
     inkscape:window-maximized="1">
    <inkscape:grid
       type="xygrid"
       id="grid815" />
  </sodipodi:namedview>
  <metadata
     id="metadata5">
    <rdf:RDF>
      <cc:Work
         rdf:about="">
        <dc:format>image/svg+xml</dc:format>
        <dc:type
           rdf:resource="http://purl.org/dc/dcmitype/StillImage" />
        <dc:title />
      </cc:Work>
    </rdf:RDF>
  </metadata>
  <g
     inkscape:label="Capa 1"
     inkscape:groupmode="layer"
     id="layer1"
     transform="translate(0,-291.17916)">
    <g
       id="g6313"
       transform="translate(3.1629801,2.6303366)">
      <g
         id="g4584"
         transform="translate(3.7041668,2.1166666)">
        <g
           id="g826">
          <path
             inkscape:connector-curvature="0"
             id="path4577"
             d="m -5.2796469,287.49049 c -0.439734,0 -0.79375,0.35401 -0.79375,0.79375 0,0.43972 0.3516817,0.79375 0.7914157,0.79375 0.4397339,0 0.7960843,-0.35403 0.7960843,-0.79375 0,-0.43974 -0.354016,-0.79375 -0.79375,-0.79375 z"
             style="color:#122036;fill:#288799;fill-opacity:1;stroke:none;stroke-width:0.3175002" />
          <path
             inkscape:connector-curvature="0"
             id="path4489"
             d="m -3.4416142,289.07799 c -0.080482,0.005 -0.1543625,0.0453 -0.2009299,0.11111 l -0.8553726,1.19631 -0.3052688,-0.40773 c -0.048426,-0.0647 -0.1237679,-0.10374 -0.2045455,-0.10594 -0.085866,-0.002 -0.1675317,0.0371 -0.2190084,0.10594 l -0.7933892,1.05834 c -0.1306215,0.17449 -0.00613,0.42329 0.2117772,0.42322 h 1.5867779 c 0.00127,10e-6 0.00235,-5.3e-4 0.00362,-5.3e-4 h 2.1115683 c 0.215412,10e-4 0.341792,-0.24245 0.216943,-0.41807 l -1.3238661,-1.85155 c -0.052169,-0.0737 -0.1381708,-0.11541 -0.2283051,-0.11111 z"
             style="color:#122036;fill:#288799;fill-opacity:1;stroke:none;stroke-width:0.26452315" />
          <path
             inkscape:connector-curvature="0"
             id="rect4571"
             d="m -5.279647,287.75507 c 0.2931583,0 0.5291667,0.23602 0.5291667,0.52918 0,0.29316 -0.2360084,0.52916 -0.5291667,0.52916 -0.2931582,0 -0.5291666,-0.236 -0.5291666,-0.52916 0,-0.29316 0.2360084,-0.52918 0.5291666,-0.52918 z"
             style="opacity:1;fill:#d9f4f9;fill-opacity:1;stroke:none;stroke-width:0.7055555;stroke-linecap:round;stroke-linejoin:round;stroke-miterlimit:4;stroke-dasharray:none;stroke-opacity:1" />
          <path
             sodipodi:nodetypes="cccccc"
             inkscape:connector-curvature="0"
             id="path4573"
             d="m -5.8208333,291.17916 h 3.7041667 l -1.3229167,-1.85208 -1.0583334,1.5875 -0.5291666,-0.79375 z"
             style="fill:#3bc6e0;fill-opacity:1;stroke:none;stroke-width:0.26458332px;stroke-linecap:butt;stroke-linejoin:miter;stroke-opacity:1" />
        </g>
      </g>
    </g>
  </g>
</svg>
