<?xml version="1.0" encoding="UTF-8" standalone="no"?>
<svg
   height="22"
   viewBox="0 0 5.820833 5.8208331"
   width="22"
   version="1.1"
   id="svg6"
   sodipodi:docname="alt-torrents.svg"
   inkscape:version="1.2 (dc2aedaf03, 2022-05-15)"
   xml:space="preserve"
   xmlns:inkscape="http://www.inkscape.org/namespaces/inkscape"
   xmlns:sodipodi="http://sodipodi.sourceforge.net/DTD/sodipodi-0.dtd"
   xmlns="http://www.w3.org/2000/svg"
   xmlns:svg="http://www.w3.org/2000/svg"
   xmlns:rdf="http://www.w3.org/1999/02/22-rdf-syntax-ns#"
   xmlns:cc="http://creativecommons.org/ns#"
   xmlns:dc="http://purl.org/dc/elements/1.1/"><metadata
     id="metadata10"><rdf:RDF><cc:Work
         rdf:about=""><dc:format>image/svg+xml</dc:format><dc:type
           rdf:resource="http://purl.org/dc/dcmitype/StillImage" /></cc:Work></rdf:RDF></metadata><sodipodi:namedview
     pagecolor="#ffffff"
     bordercolor="#666666"
     borderopacity="1"
     objecttolerance="10"
     gridtolerance="10"
     guidetolerance="10"
     inkscape:pageopacity="0"
     inkscape:pageshadow="2"
     inkscape:window-width="2160"
     inkscape:window-height="1337"
     id="namedview8"
     showgrid="true"
     inkscape:zoom="45.254834"
     inkscape:cx="3.9332815"
     inkscape:cy="14.197378"
     inkscape:window-x="0"
     inkscape:window-y="0"
     inkscape:window-maximized="1"
     inkscape:current-layer="svg6"
     inkscape:showpageshadow="2"
     inkscape:pagecheckerboard="0"
     inkscape:deskcolor="#d1d1d1"><inkscape:grid
       type="xygrid"
       id="grid817" /></sodipodi:namedview><defs
     id="defs2"><style
       type="text/css"
       id="current-color-scheme">
      .ColorScheme-Text {
        color:#36404d;
      }
      </style></defs><g
     id="g3983"><path
       style="color:#000000;fill:#6e7cd4;stroke-linecap:round;stroke-miterlimit:1.8;paint-order:fill markers stroke;fill-opacity:1"
       d="M 2.9746094,0.265625 C 2.2507214,0.24803406 1.5509685,0.52693405 1.0390625,1.0390625 0.28305755,1.7951334 0.05777392,2.9340051 0.46679688,3.921875 0.87593905,4.9098976 1.8407705,5.5565467 2.9101563,5.5566406 H 5.5566406 V 5.0273437 4.7617187 4.4980469 4.2324219 3.7050781 H 2.9101563 C 2.588395,3.7050788 2.3009086,3.5120952 2.1777344,3.2148438 2.0545719,2.9175222 2.1220367,2.577161 2.3496094,2.3496094 2.577161,2.1220367 2.9175222,2.0545719 3.2148438,2.1777344 3.5120952,2.3009086 3.7050788,2.588395 3.7050781,2.9101563 v 0.265625 h 0.5273438 0.265625 0.2636718 0.265625 0.5292969 V 2.9101563 C 5.5565467,1.8407705 4.9098976,0.87593905 3.921875,0.46679688 3.6211314,0.3420904 3.3000819,0.27375225 2.9746094,0.265625 Z"
       id="path3978" /><path
       id="path741-6"
       style="fill:#dee1f1;stroke:none;stroke-width:0.560295;stroke-linecap:round;stroke-miterlimit:1.8;paint-order:fill markers stroke;stop-color:#000000;fill-opacity:1"
       d="M 2.9688109,0.52968338 A 2.3812499,2.3812499 0 0 0 1.2267984,1.2267984 2.3812499,2.3812499 0 0 0 0.71055092,3.821472 2.3812499,2.3812499 0 0 0 2.9104165,5.2916664 H 5.2916664 V 5.0270831 H 2.9104165 A 2.1166666,2.1166666 0 0 1 0.95498043,3.7201862 2.1166666,2.1166666 0 0 1 1.4138671,1.4138671 2.1166666,2.1166666 0 0 1 3.7201862,0.95498041 2.1166666,2.1166666 0 0 1 5.0270831,2.9104165 H 5.2916664 A 2.3812499,2.3812499 0 0 0 3.821472,0.71055088 2.3812499,2.3812499 0 0 0 2.9688109,0.52968338 Z M 2.9558918,1.0588499 A 1.8520832,1.8520832 0 0 0 1.6009358,1.6009358 1.8520832,1.8520832 0 0 0 1.1994099,3.6194171 1.8520832,1.8520832 0 0 0 2.9104165,4.7624998 H 5.2916664 V 4.4979164 H 2.9104165 A 1.5875,1.5875 0 0 1 1.4438394,3.5181313 1.5875,1.5875 0 0 1 1.7880045,1.7880045 1.5875,1.5875 0 0 1 3.5181313,1.4438394 1.5875,1.5875 0 0 1 4.4979164,2.9104165 H 4.7624998 A 1.8520832,1.8520832 0 0 0 3.6194171,1.1994099 1.8520832,1.8520832 0 0 0 2.9558918,1.0588499 Z M 2.9429727,1.5880167 A 1.3229166,1.3229166 0 0 0 1.9750731,1.9750731 1.3229166,1.3229166 0 0 0 1.688269,3.4168455 1.3229166,1.3229166 0 0 0 2.9104165,4.2333331 H 5.2916664 V 3.9687498 H 2.9104165 A 1.0583333,1.0583333 0 0 1 1.9326985,3.3155597 1.0583333,1.0583333 0 0 1 2.1621418,2.1621418 1.0583333,1.0583333 0 0 1 3.3155597,1.9326985 1.0583333,1.0583333 0 0 1 3.9687498,2.9104165 H 4.2333331 A 1.3229166,1.3229166 0 0 0 3.4168455,1.688269 1.3229166,1.3229166 0 0 0 2.9429727,1.5880167 Z" /></g></svg>
