<?xml version="1.0" encoding="UTF-8" standalone="no"?>
<svg
   xmlns:dc="http://purl.org/dc/elements/1.1/"
   xmlns:cc="http://creativecommons.org/ns#"
   xmlns:rdf="http://www.w3.org/1999/02/22-rdf-syntax-ns#"
   xmlns:svg="http://www.w3.org/2000/svg"
   xmlns="http://www.w3.org/2000/svg"
   xmlns:sodipodi="http://sodipodi.sourceforge.net/DTD/sodipodi-0.dtd"
   xmlns:inkscape="http://www.inkscape.org/namespaces/inkscape"
   height="22"
   viewBox="0 0 22 22"
   width="22"
   version="1.1"
   id="svg6"
   sodipodi:docname="folder-encrypted.svg"
   inkscape:version="0.92.3 (2405546, 2018-03-11)">
  <metadata
     id="metadata10">
    <rdf:RDF>
      <cc:Work
         rdf:about="">
        <dc:format>image/svg+xml</dc:format>
        <dc:type
           rdf:resource="http://purl.org/dc/dcmitype/StillImage" />
        <dc:title></dc:title>
      </cc:Work>
    </rdf:RDF>
  </metadata>
  <sodipodi:namedview
     pagecolor="#ffffff"
     bordercolor="#666666"
     borderopacity="1"
     objecttolerance="10"
     gridtolerance="10"
     guidetolerance="10"
     inkscape:pageopacity="0"
     inkscape:pageshadow="2"
     inkscape:window-width="1874"
     inkscape:window-height="1141"
     id="namedview8"
     showgrid="true"
     inkscape:zoom="22.627417"
     inkscape:cx="10.828604"
     inkscape:cy="9.355675"
     inkscape:window-x="46"
     inkscape:window-y="30"
     inkscape:window-maximized="1"
     inkscape:current-layer="svg6">
    <inkscape:grid
       type="xygrid"
       id="grid817" />
  </sodipodi:namedview>
  <defs
     id="defs2">
    <style
       type="text/css"
       id="current-color-scheme">
      .ColorScheme-Text {
        color:#122036;
      }
      </style>
    <style
       id="current-color-scheme-6"
       type="text/css">
      .ColorScheme-Text {
        color:#122036;
      }
      </style>
  </defs>
  <path
     style="color:#122036;fill:#85898c;fill-opacity:1;stroke:none"
     d="M 11 2 C 7.676 2 5 4.676 5 8 C 4.446002 8 4 8.446 4 9 L 4 19 C 4 19.554 4.446002 20 5 20 L 12 20 L 14 20 L 15 20 L 15 18 L 15 17 L 17 17 L 17 16 L 17 15 L 17 14 L 16 14 L 15 14 L 15 13 L 16 13 L 16 12 L 16 11 L 18 11 L 18 10 L 18 9 C 18 8.446 17.553998 8 17 8 C 17 4.676 14.324 2 11 2 z M 11 5 C 12.662 5 14 6.338 14 8 L 8 8 C 8 6.338 9.338 5 11 5 z "
     id="path862" />
  <path
     style="opacity:1;fill:#dbdfe4;fill-opacity:1;stroke:none;stroke-width:2;stroke-linecap:round;stroke-linejoin:round;stroke-miterlimit:4;stroke-dasharray:none;stroke-opacity:1"
     d="M 11,3 C 8.23,3 6,5.23 6,8 V 9 H 5 v 10 h 7 2 v -1 -2 h 2 v -1 h -2 v -3 h 1 v -2 h 2 V 9 H 16 V 8 C 16,5.23 13.77,3 11,3 Z m 0,1 c 2.216,0 4,1.784 4,4 V 9 H 7 V 8 C 7,5.784 8.784,4 11,4 Z m 0,7 c 1.108,0 2,0.892 2,2 0,0.74107 -0.404201,1.379048 -1,1.724609 V 17 c 0,0.554 -0.446,1 -1,1 -0.554,0 -1,-0.446 -1,-1 V 14.724609 C 9.4042011,14.379048 9,13.74107 9,13 9,11.892 9.892,11 11,11 Z"
     id="path887"
     inkscape:connector-curvature="0"
     sodipodi:nodetypes="ssccccccccccccccccssssccsssscssscss" />
</svg>
