<?xml version="1.0" encoding="UTF-8" standalone="no"?>
<!-- Created with Inkscape (http://www.inkscape.org/) -->

<svg
   xmlns:dc="http://purl.org/dc/elements/1.1/"
   xmlns:cc="http://creativecommons.org/ns#"
   xmlns:rdf="http://www.w3.org/1999/02/22-rdf-syntax-ns#"
   xmlns:svg="http://www.w3.org/2000/svg"
   xmlns="http://www.w3.org/2000/svg"
   xmlns:sodipodi="http://sodipodi.sourceforge.net/DTD/sodipodi-0.dtd"
   xmlns:inkscape="http://www.inkscape.org/namespaces/inkscape"
   width="22"
   height="22"
   viewBox="0 0 5.8208332 5.8208335"
   version="1.1"
   id="svg8"
   inkscape:version="0.92.3 (2405546, 2018-03-11)"
   sodipodi:docname="folder-github.svg">
  <defs
     id="defs2" />
  <sodipodi:namedview
     id="base"
     pagecolor="#ffffff"
     bordercolor="#666666"
     borderopacity="1.0"
     inkscape:pageopacity="0.0"
     inkscape:pageshadow="2"
     inkscape:zoom="44.8"
     inkscape:cx="11.287325"
     inkscape:cy="10.414119"
     inkscape:document-units="px"
     inkscape:current-layer="layer1"
     showgrid="true"
     units="px"
     inkscape:showpageshadow="false"
     inkscape:snap-bbox="true"
     inkscape:bbox-paths="true"
     inkscape:bbox-nodes="true"
     inkscape:snap-bbox-edge-midpoints="true"
     inkscape:snap-bbox-midpoints="true"
     inkscape:object-paths="true"
     inkscape:snap-intersection-paths="true"
     inkscape:window-width="1874"
     inkscape:window-height="1141"
     inkscape:window-x="46"
     inkscape:window-y="30"
     inkscape:window-maximized="1">
    <inkscape:grid
       type="xygrid"
       id="grid815" />
  </sodipodi:namedview>
  <metadata
     id="metadata5">
    <rdf:RDF>
      <cc:Work
         rdf:about="">
        <dc:format>image/svg+xml</dc:format>
        <dc:type
           rdf:resource="http://purl.org/dc/dcmitype/StillImage" />
        <dc:title></dc:title>
      </cc:Work>
    </rdf:RDF>
  </metadata>
  <g
     inkscape:label="Capa 1"
     inkscape:groupmode="layer"
     id="layer1"
     transform="translate(0,-291.17916)">
    <g
       id="g1588"
       transform="translate(3.4395833,2.6458667)">
      <path
         id="path4"
         class="ColorScheme-Text"
         style="fill:#6e7cd4;fill-opacity:1;stroke:#6e7cd4;stroke-width:0.52916664;stroke-linecap:round;stroke-linejoin:round;stroke-miterlimit:4;stroke-dasharray:none;stroke-opacity:1"
         d="m -1.7192751,289.32712 c -0.073261,-2.6e-4 -0.1328015,0.059 -0.1328084,0.13229 v 0.75035 c -0.1662395,0.23655 -0.2645833,0.52481 -0.2645833,0.83715 0,0.6233 0.3888076,1.151 0.9374106,1.35909 -0.089995,0.14286 -0.1436606,0.31098 -0.1436606,0.493 0,0.011 0.00273,0.0211 0.0031,0.032 h -0.0031 v 0.017 c -0.1808019,-0.0757 -0.275921,-0.19667 -0.3834392,-0.34003 -0.090752,-0.121 -0.1780169,-0.26661 -0.3219442,-0.39946 -0.1439269,-0.13286 -0.3602995,-0.23564 -0.6175333,-0.23564 -0.3578021,-0.005 -0.3578021,0.53422 0,0.52916 0.1396413,0 0.187852,0.0295 0.2588989,0.0951 0.071047,0.0656 0.1491465,0.18456 0.256832,0.32814 0.155902,0.20787 0.4050803,0.44571 0.8071858,0.56224 v 0.33745 h 0.2645833 v -0.13229 -0.52917 c 0,-0.0733 0.059002,-0.13229 0.13229169,-0.13229 0.07329,0 0.1322918,0.059 0.1322918,0.13229 v 0.39688 0.26458 h 0.2645834 v -0.13229 -0.79375 c 0,-0.0733 0.059002,-0.13229 0.1322917,-0.13229 0.07329,0 0.1322916,0.059 0.1322916,0.13229 v 0.66146 0.26458 H 8.634472e-8 v -0.13229 -0.13229 -0.39688 c 0,-0.0733 0.05900200365528,-0.13229 0.13229160365528,-0.13229 0.07329,0 0.1322917,0.059 0.1322917,0.13229 v 0.39688 0.13229 0.13229 h 0.2645833 v -0.894 h -0.0031 c 3.704e-4,-0.0109 0.0031,-0.0211 0.0031,-0.032 0,-0.18202 -0.053665,-0.35014 -0.1436605,-0.493 0.5486029,-0.20809 0.93741051,-0.73579 0.93741051,-1.35909 0,-0.31234 -0.098344,-0.6006 -0.2645833,-0.83715 v -0.75035 c 2.88e-5,-0.0747 -0.061757,-0.13462 -0.13642581,-0.13229 -0.016558,5.3e-4 -0.03286,0.004 -0.048059,0.0109 l -0.6805784,0.29145 c -0.1047647,-0.0238 -0.2133865,-0.0377 -0.3255616,-0.0377 h -0.5291669 c -0.1121752,0 -0.2207971,0.0139 -0.3255617,0.0377 l -0.68057849,-0.29146 c -0.016322,-0.007 -0.033897,-0.0107 -0.051677,-0.0109 z"
         inkscape:connector-curvature="0" />
      <path
         id="path4-9"
         class="ColorScheme-Text"
         style="color:#122036;fill:#a7b4ff;fill-opacity:1;stroke:none;stroke-width:0.26458332"
         d="m -1.7192751,289.32712 c -0.073261,-2.6e-4 -0.1328015,0.059 -0.1328084,0.13229 v 0.75035 c -0.1662395,0.23655 -0.2645833,0.52481 -0.2645833,0.83715 0,0.6233 0.3888076,1.151 0.9374106,1.35909 -0.089995,0.14286 -0.1436606,0.31098 -0.1436606,0.493 0,0.011 0.00273,0.0211 0.0031,0.032 h -0.0031 v 0.017 c -0.1808019,-0.0757 -0.275921,-0.19667 -0.3834392,-0.34003 -0.090752,-0.121 -0.1780169,-0.26661 -0.3219442,-0.39946 -0.1439269,-0.13286 -0.3602995,-0.23564 -0.6175333,-0.23564 -0.3578021,-0.005 -0.3578021,0.53422 0,0.52916 0.1396413,0 0.187852,0.0295 0.2588989,0.0951 0.071047,0.0656 0.1491465,0.18456 0.256832,0.32814 0.155902,0.20787 0.4050803,0.44571 0.8071858,0.56224 v 0.33745 h 0.2645833 v -0.13229 -0.52917 c 0,-0.0733 0.059002,-0.13229 0.13229179,-0.13229 0.07329,0 0.1322917,0.059 0.1322917,0.13229 v 0.39688 0.26458 h 0.2645834 v -0.13229 -0.79375 c 0,-0.0733 0.059002,-0.13229 0.1322917,-0.13229 0.07329,0 0.1322916,0.059 0.1322916,0.13229 v 0.66146 0.26458 H 8.634472e-8 v -0.13229 -0.13229 -0.39688 c 0,-0.0733 0.05900200365528,-0.13229 0.13229160365528,-0.13229 0.07329,0 0.1322917,0.059 0.1322917,0.13229 v 0.39688 0.13229 0.13229 h 0.2645833 v -0.894 h -0.0031 c 3.704e-4,-0.0109 0.0031,-0.0211 0.0031,-0.032 0,-0.18202 -0.053665,-0.35014 -0.1436605,-0.493 0.5486029,-0.20809 0.93741051,-0.73579 0.93741051,-1.35909 0,-0.31234 -0.098344,-0.6006 -0.2645833,-0.83715 v -0.75035 c 2.88e-5,-0.0747 -0.061757,-0.13462 -0.13642581,-0.13229 -0.016558,5.3e-4 -0.03286,0.004 -0.048059,0.0109 l -0.6805784,0.29145 c -0.1047647,-0.0238 -0.2133865,-0.0377 -0.3255616,-0.0377 h -0.5291669 c -0.1121752,0 -0.220797,0.0139 -0.3255616,0.0377 l -0.68057859,-0.29146 c -0.016322,-0.007 -0.033897,-0.0107 -0.051677,-0.0109 z"
         inkscape:connector-curvature="0" />
    </g>
  </g>
</svg>
