<?xml version="1.0" encoding="UTF-8" standalone="no"?>
<svg
   xmlns:dc="http://purl.org/dc/elements/1.1/"
   xmlns:cc="http://creativecommons.org/ns#"
   xmlns:rdf="http://www.w3.org/1999/02/22-rdf-syntax-ns#"
   xmlns:svg="http://www.w3.org/2000/svg"
   xmlns="http://www.w3.org/2000/svg"
   xmlns:sodipodi="http://sodipodi.sourceforge.net/DTD/sodipodi-0.dtd"
   xmlns:inkscape="http://www.inkscape.org/namespaces/inkscape"
   height="22"
   viewBox="0 0 22 22"
   width="22"
   version="1.1"
   id="svg6"
   sodipodi:docname="folder-dropbox.svg"
   inkscape:version="0.92.3 (2405546, 2018-03-11)">
  <metadata
     id="metadata10">
    <rdf:RDF>
      <cc:Work
         rdf:about="">
        <dc:format>image/svg+xml</dc:format>
        <dc:type
           rdf:resource="http://purl.org/dc/dcmitype/StillImage" />
      </cc:Work>
    </rdf:RDF>
  </metadata>
  <sodipodi:namedview
     pagecolor="#ffffff"
     bordercolor="#666666"
     borderopacity="1"
     objecttolerance="10"
     gridtolerance="10"
     guidetolerance="10"
     inkscape:pageopacity="0"
     inkscape:pageshadow="2"
     inkscape:window-width="1874"
     inkscape:window-height="1141"
     id="namedview8"
     showgrid="true"
     inkscape:zoom="21.454545"
     inkscape:cx="3.2445065"
     inkscape:cy="8.1735538"
     inkscape:window-x="46"
     inkscape:window-y="30"
     inkscape:window-maximized="1"
     inkscape:current-layer="svg6">
    <inkscape:grid
       type="xygrid"
       id="grid817" />
  </sodipodi:namedview>
  <defs
     id="defs2">
    <style
       type="text/css"
       id="current-color-scheme">
      .ColorScheme-Text {
        color:#122036;
      }
      </style>
  </defs>
  <path
     d="m7.0000001 3-4 3 4 3 3.9999999-3zm3.9999999 3 4 3 4-3-4-3zm4 3-4 3 4 3 4-3zm-4 3-3.9999999-3-4 3 4 3zm0 1-3.9999999 3 3.9999999 3 4-3z"
     fill="currentColor"
     style="fill:#3ba0f3;fill-opacity:1;stroke:#3ba0f3;stroke-opacity:1;stroke-width:2;stroke-miterlimit:4;stroke-dasharray:none;stroke-linejoin:round"
     class="ColorScheme-Text"
     id="path4" />
  <path
     inkscape:connector-curvature="0"
     d="M 7,3 3,6 7,9 11,6 Z m 4,3 4,3 4,-3 -4,-3 z m 4,3 -4,3 4,3 4,-3 z m -4,3 -4,-3 -4,3 4,3 z m 0,1 -4,3 4,3 4,-3 z"
     style="color:#122036;fill:#c6e5ff;fill-opacity:1;stroke:none;stroke-width:2;stroke-linejoin:round;stroke-miterlimit:4;stroke-dasharray:none;stroke-opacity:1"
     class="ColorScheme-Text"
     id="path4-6" />
</svg>
