<?xml version="1.0" encoding="UTF-8" standalone="no"?>
<!-- Created with Inkscape (http://www.inkscape.org/) -->

<svg
   xmlns:dc="http://purl.org/dc/elements/1.1/"
   xmlns:cc="http://creativecommons.org/ns#"
   xmlns:rdf="http://www.w3.org/1999/02/22-rdf-syntax-ns#"
   xmlns:svg="http://www.w3.org/2000/svg"
   xmlns="http://www.w3.org/2000/svg"
   xmlns:sodipodi="http://sodipodi.sourceforge.net/DTD/sodipodi-0.dtd"
   xmlns:inkscape="http://www.inkscape.org/namespaces/inkscape"
   width="22"
   height="22"
   viewBox="0 0 5.8208332 5.8208335"
   version="1.1"
   id="svg8"
   inkscape:version="0.92.3 (2405546, 2018-03-11)"
   sodipodi:docname="folder-activities.svg">
  <defs
     id="defs2" />
  <sodipodi:namedview
     id="base"
     pagecolor="#ffffff"
     bordercolor="#666666"
     borderopacity="1.0"
     inkscape:pageopacity="0.0"
     inkscape:pageshadow="2"
     inkscape:zoom="31.678384"
     inkscape:cx="14.585362"
     inkscape:cy="9.8483497"
     inkscape:document-units="px"
     inkscape:current-layer="layer1"
     showgrid="true"
     units="px"
     inkscape:showpageshadow="false"
     inkscape:snap-bbox="true"
     inkscape:bbox-paths="true"
     inkscape:bbox-nodes="true"
     inkscape:snap-bbox-edge-midpoints="true"
     inkscape:snap-bbox-midpoints="true"
     inkscape:object-paths="true"
     inkscape:snap-intersection-paths="true"
     inkscape:window-width="1874"
     inkscape:window-height="1141"
     inkscape:window-x="46"
     inkscape:window-y="30"
     inkscape:window-maximized="1">
    <inkscape:grid
       type="xygrid"
       id="grid815" />
  </sodipodi:namedview>
  <metadata
     id="metadata5">
    <rdf:RDF>
      <cc:Work
         rdf:about="">
        <dc:format>image/svg+xml</dc:format>
        <dc:type
           rdf:resource="http://purl.org/dc/dcmitype/StillImage" />
        <dc:title></dc:title>
      </cc:Work>
    </rdf:RDF>
  </metadata>
  <g
     inkscape:label="Capa 1"
     inkscape:groupmode="layer"
     id="layer1"
     transform="translate(0,-291.17916)">
    <g
       id="g3662"
       transform="translate(1.3229167,0.52916168)">
      <path
         id="rect819-3"
         d="m 3.4395833,292.50208 c 0.5863167,0 1.0583333,0.47202 1.0583333,1.05833 0,0.58632 -0.4720166,1.05834 -1.0583333,1.05834 -0.5863167,0 -1.0583333,-0.47202 -1.0583333,-1.05834 0,-0.58631 0.4720166,-1.05833 1.0583333,-1.05833 z"
         style="opacity:1;fill:#4c9167;fill-opacity:1;stroke:none;stroke-width:0.52916664;stroke-linecap:round;stroke-linejoin:round;stroke-miterlimit:4;stroke-dasharray:none;stroke-opacity:1"
         inkscape:connector-curvature="0" />
      <path
         id="rect819-3-6"
         d="m -0.26458337,292.50208 c 0.5863167,0 1.0583334,0.47202 1.0583334,1.05833 0,0.58632 -0.4720167,1.05834 -1.0583334,1.05834 -0.58631663,0 -1.05833333,-0.47202 -1.05833333,-1.05834 0,-0.58631 0.4720167,-1.05833 1.05833333,-1.05833 z"
         style="opacity:1;fill:#287bc2;fill-opacity:1;stroke:none;stroke-width:0.52916664;stroke-linecap:round;stroke-linejoin:round;stroke-miterlimit:4;stroke-dasharray:none;stroke-opacity:1"
         inkscape:connector-curvature="0" />
      <path
         id="path855"
         d="m -0.26458337,292.76666 c -0.43973746,0 -0.79374993,0.35402 -0.79374993,0.79375 0,0.43974 0.35401247,0.79375 0.79374993,0.79375 0.4397375,0 0.79375,-0.35401 0.79375,-0.79375 0,-0.43973 -0.3540125,-0.79375 -0.79375,-0.79375 z"
         style="color:#122036;fill:#78c1ff;fill-opacity:1;stroke:none;stroke-width:0.26458332"
         inkscape:connector-curvature="0" />
      <path
         id="path4"
         d="m 3.4395833,292.76666 c -0.4397375,0 -0.79375,0.35402 -0.79375,0.79375 0,0.43974 0.3540125,0.79375 0.79375,0.79375 0.4397375,0 0.79375,-0.35401 0.79375,-0.79375 0,-0.43973 -0.3540125,-0.79375 -0.79375,-0.79375 z"
         style="color:#122036;fill:#bae0bd;fill-opacity:1;stroke:none;stroke-width:0.26458332"
         inkscape:connector-curvature="0" />
      <path
         id="rect819"
         d="m 1.5875,292.50208 c 0.5863166,0 1.0583333,0.47202 1.0583333,1.05833 0,0.58632 -0.4720167,1.05834 -1.0583333,1.05834 -0.5863167,0 -1.05833337,-0.47202 -1.05833337,-1.05834 0,-0.58631 0.47201667,-1.05833 1.05833337,-1.05833 z"
         style="opacity:1;fill:#c74343;fill-opacity:1;stroke:none;stroke-width:0.52916664;stroke-linecap:round;stroke-linejoin:round;stroke-miterlimit:4;stroke-dasharray:none;stroke-opacity:1"
         inkscape:connector-curvature="0" />
      <path
         id="path853"
         d="m 1.5875,292.76666 c -0.4397375,0 -0.79374997,0.35402 -0.79374997,0.79375 0,0.43974 0.35401247,0.79375 0.79374997,0.79375 0.4397375,0 0.79375,-0.35401 0.79375,-0.79375 0,-0.43973 -0.3540125,-0.79375 -0.79375,-0.79375 z"
         style="color:#122036;fill:#f78f8f;fill-opacity:1;stroke:none;stroke-width:0.26458332"
         inkscape:connector-curvature="0" />
    </g>
  </g>
</svg>
