<?xml version="1.0" encoding="UTF-8" standalone="no"?>
<svg
   xmlns:dc="http://purl.org/dc/elements/1.1/"
   xmlns:cc="http://creativecommons.org/ns#"
   xmlns:rdf="http://www.w3.org/1999/02/22-rdf-syntax-ns#"
   xmlns:svg="http://www.w3.org/2000/svg"
   xmlns="http://www.w3.org/2000/svg"
   xmlns:sodipodi="http://sodipodi.sourceforge.net/DTD/sodipodi-0.dtd"
   xmlns:inkscape="http://www.inkscape.org/namespaces/inkscape"
   height="22"
   viewBox="0 0 22 22"
   width="22"
   version="1.1"
   id="svg6"
   sodipodi:docname="folder-decrypted.svg"
   inkscape:version="0.92.3 (2405546, 2018-03-11)">
  <metadata
     id="metadata10">
    <rdf:RDF>
      <cc:Work
         rdf:about="">
        <dc:format>image/svg+xml</dc:format>
        <dc:type
           rdf:resource="http://purl.org/dc/dcmitype/StillImage" />
        <dc:title></dc:title>
      </cc:Work>
    </rdf:RDF>
  </metadata>
  <sodipodi:namedview
     pagecolor="#ffffff"
     bordercolor="#666666"
     borderopacity="1"
     objecttolerance="10"
     gridtolerance="10"
     guidetolerance="10"
     inkscape:pageopacity="0"
     inkscape:pageshadow="2"
     inkscape:window-width="1874"
     inkscape:window-height="1141"
     id="namedview8"
     showgrid="true"
     inkscape:zoom="45.254834"
     inkscape:cx="10.823674"
     inkscape:cy="11.606593"
     inkscape:window-x="46"
     inkscape:window-y="30"
     inkscape:window-maximized="1"
     inkscape:current-layer="svg6">
    <inkscape:grid
       type="xygrid"
       id="grid817" />
  </sodipodi:namedview>
  <defs
     id="defs2">
    <style
       type="text/css"
       id="current-color-scheme">
      .ColorScheme-Text {
        color:#122036;
      }
      </style>
    <style
       id="current-color-scheme-6"
       type="text/css">
      .ColorScheme-Text {
        color:#122036;
      }
      </style>
  </defs>
  <path
     style="color:#122036;fill:#85898c;fill-opacity:1;stroke:none"
     d="M 11 2 C 8.3863043 2 6.2288045 3.6768828 5.4023438 6 L 8.8261719 6 C 9.3739214 5.4013032 10.120843 5 11 5 C 12.662 5 14 6.338 14 8 L 9 8 L 8 8 L 5 8 C 4.446002 8 4 8.446 4 9 L 4 19 C 4 19.554 4.446002 20 5 20 L 12 20 L 14 20 L 15 20 L 15 18 L 15 17 L 17 17 L 17 16 L 17 15 L 17 14 L 16 14 L 15 14 L 15 13 L 16 13 L 16 12 L 16 11 L 18 11 L 18 10 L 18 9 C 18 8.446 17.553998 8 17 8 C 17 4.676 14.324 2 11 2 z "
     id="path862" />
  <path
     style="opacity:1;fill:#dbdfe4;fill-opacity:1;stroke:none;stroke-width:2;stroke-linecap:round;stroke-linejoin:round;stroke-miterlimit:4;stroke-dasharray:none;stroke-opacity:1"
     d="M 11 3 C 9.3803814 3 8.0121839 3.8130625 7.0996094 5 L 8.421875 5 C 9.1211646 4.3997084 10.001898 4 11 4 C 13.216 4 15 5.784 15 8 L 15 9 L 9 9 L 7 9 L 6 9 L 5 9 L 5 19 L 12 19 L 14 19 L 14 18 L 14 16 L 16 16 L 16 15 L 14 15 L 14 12 L 15 12 L 15 10 L 17 10 L 17 9 L 16 9 L 16 8 C 16 5.23 13.77 3 11 3 z M 11 11 C 12.108 11 13 11.892 13 13 C 13 13.74107 12.595799 14.379048 12 14.724609 L 12 17 C 12 17.554 11.554 18 11 18 C 10.446 18 10 17.554 10 17 L 10 14.724609 C 9.4042011 14.379048 9 13.74107 9 13 C 9 11.892 9.892 11 11 11 z "
     id="path887" />
</svg>
