<?xml version="1.0" encoding="UTF-8" standalone="no"?>
<!-- Created with Inkscape (http://www.inkscape.org/) -->

<svg
   xmlns:dc="http://purl.org/dc/elements/1.1/"
   xmlns:cc="http://creativecommons.org/ns#"
   xmlns:rdf="http://www.w3.org/1999/02/22-rdf-syntax-ns#"
   xmlns:svg="http://www.w3.org/2000/svg"
   xmlns="http://www.w3.org/2000/svg"
   xmlns:sodipodi="http://sodipodi.sourceforge.net/DTD/sodipodi-0.dtd"
   xmlns:inkscape="http://www.inkscape.org/namespaces/inkscape"
   width="22"
   height="22"
   viewBox="0 0 5.8208332 5.8208335"
   version="1.1"
   id="svg8"
   inkscape:version="0.92.3 (2405546, 2018-03-11)"
   sodipodi:docname="folder-tar.svg">
  <defs
     id="defs2" />
  <sodipodi:namedview
     id="base"
     pagecolor="#ffffff"
     bordercolor="#666666"
     borderopacity="1.0"
     inkscape:pageopacity="0.0"
     inkscape:pageshadow="2"
     inkscape:zoom="31.678384"
     inkscape:cx="19.122592"
     inkscape:cy="15.379324"
     inkscape:document-units="px"
     inkscape:current-layer="layer1"
     showgrid="true"
     units="px"
     inkscape:showpageshadow="false"
     inkscape:snap-bbox="true"
     inkscape:bbox-paths="true"
     inkscape:bbox-nodes="true"
     inkscape:snap-bbox-edge-midpoints="true"
     inkscape:snap-bbox-midpoints="true"
     inkscape:object-paths="true"
     inkscape:snap-intersection-paths="true"
     inkscape:window-width="1874"
     inkscape:window-height="1141"
     inkscape:window-x="46"
     inkscape:window-y="30"
     inkscape:window-maximized="1">
    <inkscape:grid
       type="xygrid"
       id="grid815" />
  </sodipodi:namedview>
  <metadata
     id="metadata5">
    <rdf:RDF>
      <cc:Work
         rdf:about="">
        <dc:format>image/svg+xml</dc:format>
        <dc:type
           rdf:resource="http://purl.org/dc/dcmitype/StillImage" />
        <dc:title></dc:title>
      </cc:Work>
    </rdf:RDF>
  </metadata>
  <g
     inkscape:label="Capa 1"
     inkscape:groupmode="layer"
     id="layer1"
     transform="translate(0,-291.17916)">
    <g
       id="g1573"
       transform="translate(-0.26458076,-8.1667584e-6)">
      <g
         transform="matrix(0.26458333,0,0,0.26458333,8.9711661,291.35182)"
         id="g845">
        <path
           style="fill:#4f92db;fill-opacity:1;stroke:none;stroke-opacity:1"
           d="m -13.906771,4.3474576 h -8.000008 c -2.15625,0 -1,-1.9999998 -4,-1.9999998 l -3.99999,-2e-7 c -0.554001,0 -1.000001,0.44601 -1.000001,1 V 15.347458 c 0,0.554 0.446,1 1.000001,1 h 15.999998 c 0.554001,0 1.000001,-0.446 1.000001,-1 V 5.3474576 c 0,-0.55399 -0.446,-1 -1.000001,-1 z"
           id="rect842-6"
           inkscape:connector-curvature="0"
           sodipodi:nodetypes="sccssssssss" />
        <path
           style="fill:#5ac0ff;fill-opacity:1;stroke:none;stroke-opacity:1"
           d="m -13.90677,5.3474576 h -8.000009 c -3,0 -2,-1.9999998 -4,-1.9999998 l -4.00001,-2e-7 V 15.347428 h 16.000019 z"
           id="rect849-7"
           inkscape:connector-curvature="0"
           sodipodi:nodetypes="ccccccc" />
        <path
           style="fill:#4f92db;fill-opacity:1;stroke:none;stroke-opacity:1"
           d="m -29.906788,6.3474576 h 3.999989 c 2.15625,0 1,-2 3,-2 h 9.000009 c 0.554001,0 1.000001,0.446 1.000001,1 V 17.347458 c 0,0.554 -0.446,1 -1.000001,1 h -15.999998 c -0.554001,0 -1.000001,-0.446 -1.000001,-1 V 7.3474576 c 0,-0.55399 0.446,-1 1.000001,-1 z"
           id="rect842"
           inkscape:connector-curvature="0"
           sodipodi:nodetypes="sccssssssss" />
        <path
           style="fill:#5ac0ff;fill-opacity:1;stroke:none;stroke-opacity:1"
           d="m -29.906789,7.3474576 h 3.99999 c 3,0 2,-2 3,-2 h 9.000029 V 17.347428 h -16.000019 z"
           id="rect849"
           inkscape:connector-curvature="0"
           sodipodi:nodetypes="ccccccc" />
      </g>
      <path
         sodipodi:nodetypes="cccsssccccc"
         inkscape:connector-curvature="0"
         id="rect862"
         d="m 3.4395832,292.50207 v 0.52917 0.26458 1.32291 c 0,0.29316 0.2360083,0.52917 0.5291666,0.52917 0.2931584,0 0.5291667,-0.23601 0.5291667,-0.52917 v -1.32291 -0.26458 -0.52917 H 3.9687498 Z"
         style="opacity:1;fill:#36404d;fill-opacity:1;stroke:none;stroke-width:0.52916664;stroke-linecap:round;stroke-linejoin:round;stroke-miterlimit:4;stroke-dasharray:none;stroke-opacity:1" />
      <path
         sodipodi:nodetypes="cccsssccccc"
         inkscape:connector-curvature="0"
         id="rect867"
         d="m 3.7041665,292.76665 v 0.26459 0.52916 1.05833 c 0,0.14658 0.1180042,0.26459 0.2645833,0.26459 0.1465792,0 0.2645834,-0.11801 0.2645834,-0.26459 v -1.05833 -0.52916 -0.26459 H 3.9687498 Z"
         style="opacity:1;fill:#4b6477;fill-opacity:1;stroke:none;stroke-width:0.52916664;stroke-linecap:round;stroke-linejoin:round;stroke-miterlimit:4;stroke-dasharray:none;stroke-opacity:1" />
      <path
         id="rect872"
         d="m 3.7041665,292.76666 v 0.26459 h 0.2645833 v -0.26459 z m 0.2645833,0.26459 v 0.26458 h 0.2645834 v -0.26458 z m 0,0.26458 H 3.7041665 v 0.26458 h 0.2645833 z m 0,0.26458 v 0.26459 h 0.2645834 v -0.26459 z m 0,0.26459 H 3.7041665 v 0.26458 h 0.2645833 z m 0,0.26458 v 0.26458 h 0.2645834 v -0.26458 z m 0,0.26458 H 3.7041665 v 0.26459 h 0.2645833 z"
         style="opacity:1;fill:#e6f9ff;fill-opacity:1;stroke:none;stroke-width:0.52916664;stroke-linecap:round;stroke-linejoin:round;stroke-miterlimit:4;stroke-dasharray:none;stroke-opacity:1"
         inkscape:connector-curvature="0" />
    </g>
  </g>
</svg>
