<?xml version="1.0" encoding="UTF-8" standalone="no"?>
<svg
   xmlns:dc="http://purl.org/dc/elements/1.1/"
   xmlns:cc="http://creativecommons.org/ns#"
   xmlns:rdf="http://www.w3.org/1999/02/22-rdf-syntax-ns#"
   xmlns:svg="http://www.w3.org/2000/svg"
   xmlns="http://www.w3.org/2000/svg"
   xmlns:sodipodi="http://sodipodi.sourceforge.net/DTD/sodipodi-0.dtd"
   xmlns:inkscape="http://www.inkscape.org/namespaces/inkscape"
   height="22"
   viewBox="0 0 22 22"
   width="22"
   version="1.1"
   id="svg6"
   sodipodi:docname="folder-open.svg"
   inkscape:version="0.92.3 (2405546, 2018-03-11)">
  <metadata
     id="metadata10">
    <rdf:RDF>
      <cc:Work
         rdf:about="">
        <dc:format>image/svg+xml</dc:format>
        <dc:type
           rdf:resource="http://purl.org/dc/dcmitype/StillImage" />
        <dc:title />
      </cc:Work>
    </rdf:RDF>
  </metadata>
  <sodipodi:namedview
     pagecolor="#ffffff"
     bordercolor="#666666"
     borderopacity="1"
     objecttolerance="10"
     gridtolerance="10"
     guidetolerance="10"
     inkscape:pageopacity="0"
     inkscape:pageshadow="2"
     inkscape:window-width="1874"
     inkscape:window-height="1141"
     id="namedview8"
     showgrid="true"
     inkscape:zoom="42.909092"
     inkscape:cx="6.3608409"
     inkscape:cy="9.9312488"
     inkscape:window-x="46"
     inkscape:window-y="30"
     inkscape:window-maximized="1"
     inkscape:current-layer="svg6">
    <inkscape:grid
       type="xygrid"
       id="grid817" />
  </sodipodi:namedview>
  <defs
     id="defs2">
    <style
       type="text/css"
       id="current-color-scheme">
      .ColorScheme-Text {
        color:#122036;
      }
      </style>
  </defs>
  <g
     id="g845"
     transform="translate(32.906779,0.6525422)">
    <path
       sodipodi:nodetypes="sccssssssss"
       inkscape:connector-curvature="0"
       id="rect842-6"
       d="m -13.906771,4.3474576 h -8.000008 c -2.15625,0 -1,-1.9999998 -4,-1.9999998 l -3.99999,-2e-7 c -0.554001,0 -1.000001,0.44601 -1.000001,1 V 15.347458 c 0,0.554 0.446,1 1.000001,1 h 15.999998 c 0.554001,0 1.000001,-0.446 1.000001,-1 V 5.3474576 c 0,-0.55399 -0.446,-1 -1.000001,-1 z"
       style="fill:#4f92db;fill-opacity:1;stroke:none;stroke-opacity:1" />
    <path
       sodipodi:nodetypes="ccccccc"
       inkscape:connector-curvature="0"
       id="rect849-7"
       d="m -13.90677,5.3474576 h -8.000009 c -3,0 -2,-1.9999998 -4,-1.9999998 l -4.00001,-2e-7 V 15.347428 h 16.000019 z"
       style="fill:#5ac0ff;fill-opacity:1;stroke:none;stroke-opacity:1" />
    <path
       sodipodi:nodetypes="sccssssssss"
       inkscape:connector-curvature="0"
       id="rect842"
       d="m -29.906788,9.3474578 h 3.999989 c 2.15625,0 1,-2 3,-2 h 9.000009 c 0.554001,0 1.000001,0.446 1.000001,1 v 9.0000002 c 0,0.554 -0.446,1 -1.000001,1 h -15.999998 c -0.554001,0 -1.000001,-0.446 -1.000001,-1 v -7 c 0,-0.5539902 0.446,-1.0000002 1.000001,-1.0000002 z"
       style="fill:#4f92db;fill-opacity:1;stroke:none;stroke-opacity:1" />
    <path
       sodipodi:nodetypes="ccccccc"
       inkscape:connector-curvature="0"
       id="rect849"
       d="m -29.906789,10.347458 h 3.99999 c 3,0 2,-2.0000002 3,-2.0000002 h 9.000029 v 8.9999702 h -16.000019 z"
       style="fill:#5ac0ff;fill-opacity:1;stroke:none;stroke-opacity:1" />
  </g>
</svg>
