<?xml version="1.0" encoding="UTF-8" standalone="no"?>
<!-- Created with Inkscape (http://www.inkscape.org/) -->

<svg
   xmlns:dc="http://purl.org/dc/elements/1.1/"
   xmlns:cc="http://creativecommons.org/ns#"
   xmlns:rdf="http://www.w3.org/1999/02/22-rdf-syntax-ns#"
   xmlns:svg="http://www.w3.org/2000/svg"
   xmlns="http://www.w3.org/2000/svg"
   xmlns:sodipodi="http://sodipodi.sourceforge.net/DTD/sodipodi-0.dtd"
   xmlns:inkscape="http://www.inkscape.org/namespaces/inkscape"
   width="22"
   height="22"
   viewBox="0 0 5.8208332 5.8208335"
   version="1.1"
   id="svg8"
   inkscape:version="0.92.3 (2405546, 2018-03-11)"
   sodipodi:docname="folder-games.svg">
  <defs
     id="defs2" />
  <sodipodi:namedview
     id="base"
     pagecolor="#ffffff"
     bordercolor="#666666"
     borderopacity="1.0"
     inkscape:pageopacity="0.0"
     inkscape:pageshadow="2"
     inkscape:zoom="31.678384"
     inkscape:cx="7.8861184"
     inkscape:cy="13.470288"
     inkscape:document-units="px"
     inkscape:current-layer="layer1"
     showgrid="true"
     units="px"
     inkscape:showpageshadow="false"
     inkscape:snap-bbox="true"
     inkscape:bbox-paths="true"
     inkscape:bbox-nodes="true"
     inkscape:snap-bbox-edge-midpoints="true"
     inkscape:snap-bbox-midpoints="true"
     inkscape:object-paths="true"
     inkscape:snap-intersection-paths="true"
     inkscape:window-width="1874"
     inkscape:window-height="1141"
     inkscape:window-x="46"
     inkscape:window-y="30"
     inkscape:window-maximized="1">
    <inkscape:grid
       type="xygrid"
       id="grid815" />
  </sodipodi:namedview>
  <metadata
     id="metadata5">
    <rdf:RDF>
      <cc:Work
         rdf:about="">
        <dc:format>image/svg+xml</dc:format>
        <dc:type
           rdf:resource="http://purl.org/dc/dcmitype/StillImage" />
        <dc:title></dc:title>
      </cc:Work>
    </rdf:RDF>
  </metadata>
  <g
     inkscape:label="Capa 1"
     inkscape:groupmode="layer"
     id="layer1"
     transform="translate(0,-291.17916)">
    <path
       style="color:#000000;font-style:normal;font-variant:normal;font-weight:normal;font-stretch:normal;font-size:medium;line-height:normal;font-family:sans-serif;font-variant-ligatures:normal;font-variant-position:normal;font-variant-caps:normal;font-variant-numeric:normal;font-variant-alternates:normal;font-feature-settings:normal;text-indent:0;text-align:start;text-decoration:none;text-decoration-line:none;text-decoration-style:solid;text-decoration-color:#000000;letter-spacing:normal;word-spacing:normal;text-transform:none;writing-mode:lr-tb;direction:ltr;text-orientation:mixed;dominant-baseline:auto;baseline-shift:baseline;text-anchor:start;white-space:normal;shape-padding:0;clip-rule:nonzero;display:inline;overflow:visible;visibility:visible;opacity:1;isolation:auto;mix-blend-mode:normal;color-interpolation:sRGB;color-interpolation-filters:linearRGB;solid-color:#000000;solid-opacity:1;vector-effect:none;fill:#fca526;fill-opacity:1;fill-rule:nonzero;stroke:none;stroke-width:2;stroke-linecap:round;stroke-linejoin:round;stroke-miterlimit:4;stroke-dasharray:none;stroke-dashoffset:0;stroke-opacity:1;paint-order:fill markers stroke;color-rendering:auto;image-rendering:auto;shape-rendering:auto;text-rendering:auto;enable-background:accumulate"
       d="M 11.246094 3.0078125 C 10.608918 2.9887544 9.9737045 3.0453734 9.3535156 3.1757812 C 7.6996783 3.5234978 6.1532999 4.3875381 4.9824219 5.7226562 C 2.6406656 8.3929303 2.3436606 12.301448 4.2519531 15.296875 C 6.1602457 18.292302 9.8265809 19.671599 13.236328 18.677734 C 16.646076 17.683908 19.001953 14.553613 19.001953 11.001953 A 1.0001001 1.0001001 0 0 0 17.996094 9.9980469 L 12.572266 9.9980469 L 14.867188 5.0800781 A 1.0001001 1.0001001 0 0 0 14.380859 3.7519531 C 13.374961 3.2828901 12.308053 3.039576 11.246094 3.0078125 z "
       transform="matrix(0.26458333,0,0,0.26458333,0,291.17916)"
       id="path866" />
    <path
       style="opacity:1;fill:#ffd94c;fill-opacity:1;stroke:none;stroke-width:1.99999988;stroke-linecap:round;stroke-linejoin:round;stroke-miterlimit:4;stroke-dasharray:none;stroke-opacity:1;paint-order:fill markers stroke"
       d="M 11.34375 4.0078125 A 6.9999999 6.9999999 0 0 0 5.7363281 6.3847656 A 6.9999999 6.9999999 0 0 0 5.0957031 14.761719 A 6.9999999 6.9999999 0 0 0 12.958984 17.720703 A 6.9999999 6.9999999 0 0 0 18 11 L 11 11 L 13.958984 4.65625 A 6.9999999 6.9999999 0 0 0 11.34375 4.0078125 z M 8.5 7 C 9.330993 7 10 7.669007 10 8.5 C 10 9.330993 9.330993 10 8.5 10 C 7.669007 10 7 9.330993 7 8.5 C 7 7.669007 7.669007 7 8.5 7 z "
       transform="matrix(0.26458333,0,0,0.26458333,0,291.17916)"
       id="path845-0" />
  </g>
</svg>
