<?xml version="1.0" encoding="UTF-8" standalone="no"?>
<!-- Created with Inkscape (http://www.inkscape.org/) -->

<svg
   xmlns:dc="http://purl.org/dc/elements/1.1/"
   xmlns:cc="http://creativecommons.org/ns#"
   xmlns:rdf="http://www.w3.org/1999/02/22-rdf-syntax-ns#"
   xmlns:svg="http://www.w3.org/2000/svg"
   xmlns="http://www.w3.org/2000/svg"
   xmlns:sodipodi="http://sodipodi.sourceforge.net/DTD/sodipodi-0.dtd"
   xmlns:inkscape="http://www.inkscape.org/namespaces/inkscape"
   width="22"
   height="22"
   viewBox="0 0 5.8208332 5.8208335"
   version="1.1"
   id="svg8"
   inkscape:version="0.92.3 (2405546, 2018-03-11)"
   sodipodi:docname="folder-download.svg">
  <defs
     id="defs2" />
  <sodipodi:namedview
     id="base"
     pagecolor="#ffffff"
     bordercolor="#666666"
     borderopacity="1.0"
     inkscape:pageopacity="0.0"
     inkscape:pageshadow="2"
     inkscape:zoom="31.678384"
     inkscape:cx="13.157852"
     inkscape:cy="13.470288"
     inkscape:document-units="px"
     inkscape:current-layer="layer1"
     showgrid="true"
     units="px"
     inkscape:showpageshadow="false"
     inkscape:snap-bbox="true"
     inkscape:bbox-paths="true"
     inkscape:bbox-nodes="true"
     inkscape:snap-bbox-edge-midpoints="true"
     inkscape:snap-bbox-midpoints="true"
     inkscape:object-paths="true"
     inkscape:snap-intersection-paths="true"
     inkscape:window-width="1874"
     inkscape:window-height="1141"
     inkscape:window-x="46"
     inkscape:window-y="30"
     inkscape:window-maximized="1">
    <inkscape:grid
       type="xygrid"
       id="grid815" />
  </sodipodi:namedview>
  <metadata
     id="metadata5">
    <rdf:RDF>
      <cc:Work
         rdf:about="">
        <dc:format>image/svg+xml</dc:format>
        <dc:type
           rdf:resource="http://purl.org/dc/dcmitype/StillImage" />
        <dc:title />
      </cc:Work>
    </rdf:RDF>
  </metadata>
  <g
     inkscape:label="Capa 1"
     inkscape:groupmode="layer"
     id="layer1"
     transform="translate(0,-291.17916)">
    <g
       id="g1480"
       transform="translate(0.79375002,0.79375168)">
      <path
         id="path821"
         d="M 2.1166667,291.17916 C 0.94403334,291.17916 0,292.1232 0,293.29583 c 0,1.17264 0.94403334,2.11666 2.1166667,2.11666 1.1726333,0 2.1166666,-0.94402 2.1166666,-2.11666 0,-1.17263 -0.9440333,-2.11667 -2.1166666,-2.11667 z"
         style="fill:#4c9167;fill-opacity:1;stroke:none;stroke-width:0.26458332"
         inkscape:connector-curvature="0" />
      <path
         id="rect863"
         d="m 2.1166667,291.44374 c 1.0260541,0 1.8520833,0.82603 1.8520833,1.85209 0,1.02605 -0.8260292,1.85208 -1.8520833,1.85208 -1.0260542,0 -1.85208337,-0.82603 -1.85208337,-1.85208 0,-1.02606 0.82602917,-1.85209 1.85208337,-1.85209 z"
         style="opacity:1;fill:#bae0bd;fill-opacity:1;stroke:none;stroke-width:0.52916664;stroke-linecap:round;stroke-linejoin:round;stroke-miterlimit:4;stroke-dasharray:none;stroke-opacity:1"
         inkscape:connector-curvature="0" />
      <path
         id="path4"
         d="m 2.1166667,292.23762 c 0.1465791,0 0.2645833,0.118 0.2645833,0.26458 v 0.79375 h 0.2645833 c 0.2356477,10e-5 0.3536387,0.28497 0.1870687,0.45166 l -0.5291667,0.52916 c -0.1033277,0.10329 -0.2708095,0.10329 -0.3741372,0 l -0.5291667,-0.52916 c -0.16657,-0.16669 -0.048579,-0.45156 0.1870686,-0.45166 h 0.2645833 v -0.79375 c 0,-0.14658 0.1180042,-0.26458 0.2645834,-0.26458 z"
         style="fill:#4c9167;fill-opacity:1;stroke:none;stroke-width:0.26458332"
         inkscape:connector-curvature="0" />
    </g>
  </g>
</svg>
