<?xml version="1.0" encoding="UTF-8" standalone="no"?>
<!-- Created with Inkscape (http://www.inkscape.org/) -->

<svg
   xmlns:dc="http://purl.org/dc/elements/1.1/"
   xmlns:cc="http://creativecommons.org/ns#"
   xmlns:rdf="http://www.w3.org/1999/02/22-rdf-syntax-ns#"
   xmlns:svg="http://www.w3.org/2000/svg"
   xmlns="http://www.w3.org/2000/svg"
   xmlns:sodipodi="http://sodipodi.sourceforge.net/DTD/sodipodi-0.dtd"
   xmlns:inkscape="http://www.inkscape.org/namespaces/inkscape"
   width="22"
   height="22"
   viewBox="0 0 5.8208332 5.8208335"
   version="1.1"
   id="svg8"
   inkscape:version="0.92.3 (2405546, 2018-03-11)"
   sodipodi:docname="folder-temp.svg">
  <defs
     id="defs2" />
  <sodipodi:namedview
     id="base"
     pagecolor="#ffffff"
     bordercolor="#666666"
     borderopacity="1.0"
     inkscape:pageopacity="0.0"
     inkscape:pageshadow="2"
     inkscape:zoom="11.2"
     inkscape:cx="1.6814447"
     inkscape:cy="13.283898"
     inkscape:document-units="px"
     inkscape:current-layer="layer1"
     showgrid="true"
     units="px"
     inkscape:showpageshadow="false"
     inkscape:snap-bbox="true"
     inkscape:bbox-paths="true"
     inkscape:bbox-nodes="true"
     inkscape:snap-bbox-edge-midpoints="true"
     inkscape:snap-bbox-midpoints="true"
     inkscape:object-paths="true"
     inkscape:snap-intersection-paths="true"
     inkscape:window-width="1874"
     inkscape:window-height="1141"
     inkscape:window-x="46"
     inkscape:window-y="30"
     inkscape:window-maximized="1">
    <inkscape:grid
       type="xygrid"
       id="grid815" />
  </sodipodi:namedview>
  <metadata
     id="metadata5">
    <rdf:RDF>
      <cc:Work
         rdf:about="">
        <dc:format>image/svg+xml</dc:format>
        <dc:type
           rdf:resource="http://purl.org/dc/dcmitype/StillImage" />
        <dc:title></dc:title>
      </cc:Work>
    </rdf:RDF>
  </metadata>
  <g
     inkscape:label="Capa 1"
     inkscape:groupmode="layer"
     id="layer1"
     transform="translate(0,-291.17916)">
    <g
       id="g1470"
       transform="translate(3.7041667,2.1166667)">
      <path
         id="path843"
         d="m -0.79375001,289.59166 c -1.31921249,0 -2.38124999,1.06204 -2.38124999,2.38125 0,1.31921 1.0620375,2.38125 2.38124999,2.38125 1.3192125,0 2.38125001,-1.06204 2.38125001,-2.38125 0,-1.31921 -1.06203751,-2.38125 -2.38125001,-2.38125 z"
         style="fill:#36404d;fill-opacity:1;stroke:none;stroke-width:0.26458332"
         inkscape:connector-curvature="0" />
      <path
         id="rect839"
         d="m -0.79375001,289.85624 c 1.1726333,0 2.11666671,0.94404 2.11666671,2.11667 0,1.17263 -0.94403341,2.11667 -2.11666671,2.11667 -1.17263329,0 -2.11666669,-0.94404 -2.11666669,-2.11667 0,-1.17263 0.9440334,-2.11667 2.11666669,-2.11667 z"
         style="opacity:1;fill:#4b6477;fill-opacity:1;stroke:none;stroke-width:0.52916664;stroke-linecap:round;stroke-linejoin:round;stroke-miterlimit:4;stroke-dasharray:none;stroke-opacity:1"
         inkscape:connector-curvature="0" />
      <path
         id="rect845"
         d="m -0.79375001,290.12083 c 1.0260542,0 1.85208331,0.82603 1.85208331,1.85208 0,1.02605 -0.82602911,1.85208 -1.85208331,1.85208 -1.02605419,0 -1.85208329,-0.82603 -1.85208329,-1.85208 0,-1.02605 0.8260291,-1.85208 1.85208329,-1.85208 z"
         style="opacity:1;fill:#f1f1f1;fill-opacity:1;stroke:none;stroke-width:0.52916664;stroke-linecap:round;stroke-linejoin:round;stroke-miterlimit:4;stroke-dasharray:none;stroke-opacity:1"
         inkscape:connector-curvature="0" />
      <path
         id="rect857"
         d="m -0.79375001,292.23749 c 0.1465792,0 0.2645833,0.11801 0.2645833,0.26459 v 0.52916 c 0,0.14658 -0.1180041,0.26459 -0.2645833,0.26459 -0.1465792,0 -0.26458329,-0.11801 -0.26458329,-0.26459 v -0.52916 c 0,-0.14658 0.11800409,-0.26459 0.26458329,-0.26459 z"
         style="opacity:1;fill:#f78f8f;fill-opacity:1;stroke:none;stroke-width:0.52916664;stroke-linecap:round;stroke-linejoin:round;stroke-miterlimit:4;stroke-dasharray:none;stroke-opacity:1"
         inkscape:connector-curvature="0" />
      <path
         id="rect847"
         d="m -0.79375001,290.38541 c -0.1465792,0 -0.26458329,0.118 -0.26458329,0.26458 v 0.86662 c -0.1576385,0.0914 -0.2645834,0.26023 -0.2645834,0.4563 0,0.29316 0.2360084,0.52917 0.52916669,0.52917 0.1960748,0 0.3648731,-0.10695 0.4563028,-0.26459 h 0.6020305 c 0.1465792,0 0.2645834,-0.118 0.2645834,-0.26458 0,-0.14658 -0.1180042,-0.26458 -0.2645834,-0.26458 h -0.6020305 c -0.046159,-0.0796 -0.1121333,-0.14556 -0.1917195,-0.19172 v -0.86662 c 0,-0.14658 -0.1180041,-0.26458 -0.2645833,-0.26458 z"
         style="opacity:1;fill:#36404d;fill-opacity:1;stroke:none;stroke-width:0.52916664;stroke-linecap:round;stroke-linejoin:round;stroke-miterlimit:4;stroke-dasharray:none;stroke-opacity:1"
         inkscape:connector-curvature="0" />
    </g>
  </g>
</svg>
