<?xml version="1.0" encoding="UTF-8" standalone="no"?>
<!-- Created with Inkscape (http://www.inkscape.org/) -->

<svg
   xmlns:dc="http://purl.org/dc/elements/1.1/"
   xmlns:cc="http://creativecommons.org/ns#"
   xmlns:rdf="http://www.w3.org/1999/02/22-rdf-syntax-ns#"
   xmlns:svg="http://www.w3.org/2000/svg"
   xmlns="http://www.w3.org/2000/svg"
   xmlns:sodipodi="http://sodipodi.sourceforge.net/DTD/sodipodi-0.dtd"
   xmlns:inkscape="http://www.inkscape.org/namespaces/inkscape"
   width="22"
   height="22"
   viewBox="0 0 5.8208332 5.8208335"
   version="1.1"
   id="svg8"
   inkscape:version="0.92.3 (2405546, 2018-03-11)"
   sodipodi:docname="folder-cloud.svg">
  <defs
     id="defs2" />
  <sodipodi:namedview
     id="base"
     pagecolor="#ffffff"
     bordercolor="#666666"
     borderopacity="1.0"
     inkscape:pageopacity="0.0"
     inkscape:pageshadow="2"
     inkscape:zoom="11.2"
     inkscape:cx="1.6814447"
     inkscape:cy="13.283898"
     inkscape:document-units="px"
     inkscape:current-layer="layer1"
     showgrid="true"
     units="px"
     inkscape:showpageshadow="false"
     inkscape:snap-bbox="true"
     inkscape:bbox-paths="true"
     inkscape:bbox-nodes="true"
     inkscape:snap-bbox-edge-midpoints="true"
     inkscape:snap-bbox-midpoints="true"
     inkscape:object-paths="true"
     inkscape:snap-intersection-paths="true"
     inkscape:window-width="1874"
     inkscape:window-height="1141"
     inkscape:window-x="46"
     inkscape:window-y="30"
     inkscape:window-maximized="1">
    <inkscape:grid
       type="xygrid"
       id="grid815" />
  </sodipodi:namedview>
  <metadata
     id="metadata5">
    <rdf:RDF>
      <cc:Work
         rdf:about="">
        <dc:format>image/svg+xml</dc:format>
        <dc:type
           rdf:resource="http://purl.org/dc/dcmitype/StillImage" />
        <dc:title></dc:title>
      </cc:Work>
    </rdf:RDF>
  </metadata>
  <g
     inkscape:label="Capa 1"
     inkscape:groupmode="layer"
     id="layer1"
     transform="translate(0,-291.17916)">
    <g
       id="g1558"
       transform="translate(3.4395834,2.3812517)">
      <path
         id="path4-3"
         d="m -0.13230152,290.12084 c -0.5558073,0 -1.01582408,0.37915 -1.14825038,0.89246 -0.086598,-0.0618 -0.1919949,-0.0987 -0.3069579,-0.0987 -0.2931531,0 -0.5291667,0.23602 -0.5291667,0.52917 0,0.004 0.00143,0.009 0.00156,0.0129 -0.4500832,0.0637 -0.7953002,0.44491 -0.7953002,0.91312 0,0.51303 0.4130154,0.92604 0.9260417,0.92604 h 2.91041668 c 0.51302712,0 0.92604162,-0.41301 0.92604162,-0.92604 0,-0.47263 -0.351886,-0.85602 -0.8082195,-0.91415 0.0058,-0.0478 0.01447,-0.0947 0.01447,-0.14419 0,-0.65959 -0.53102252,-1.19063 -1.19062502,-1.19063 z"
         style="color:#122036;fill:#287bc2;fill-opacity:1;stroke:#287bc2;stroke-width:0.52916664;stroke-linecap:round;stroke-linejoin:round;stroke-miterlimit:4;stroke-dasharray:none;stroke-opacity:1"
         inkscape:connector-curvature="0" />
      <path
         id="path4-3-9"
         d="m -0.11783202,290.10894 c -0.5558073,0 -1.01582398,0.37916 -1.14825038,0.89246 -0.086598,-0.0618 -0.1919949,-0.0987 -0.3069579,-0.0987 -0.2931531,0 -0.5291667,0.23603 -0.5291667,0.52918 0,0.004 0.00143,0.009 0.00156,0.0129 -0.4500833,0.0637 -0.7953002,0.4449 -0.7953002,0.91311 0,0.51303 0.4130153,0.92605 0.9260416,0.92605 h 2.91041668 c 0.51302712,0 0.92604172,-0.41301 0.92604172,-0.92605 0,-0.47263 -0.3518861,-0.85601 -0.8082196,-0.91415 0.0058,-0.0478 0.01447,-0.0947 0.01447,-0.14418 0,-0.65959 -0.53102242,-1.19063 -1.19062502,-1.19063 z"
         style="color:#122036;fill:#78c1ff;fill-opacity:1;stroke:none;stroke-width:0.52916664;stroke-linecap:round;stroke-linejoin:round;stroke-miterlimit:4;stroke-dasharray:none;stroke-opacity:1"
         inkscape:connector-curvature="0" />
    </g>
  </g>
</svg>
