<?xml version="1.0" encoding="UTF-8" standalone="no"?>
<!-- Created with Inkscape (http://www.inkscape.org/) -->

<svg
   xmlns:dc="http://purl.org/dc/elements/1.1/"
   xmlns:cc="http://creativecommons.org/ns#"
   xmlns:rdf="http://www.w3.org/1999/02/22-rdf-syntax-ns#"
   xmlns:svg="http://www.w3.org/2000/svg"
   xmlns="http://www.w3.org/2000/svg"
   xmlns:sodipodi="http://sodipodi.sourceforge.net/DTD/sodipodi-0.dtd"
   xmlns:inkscape="http://www.inkscape.org/namespaces/inkscape"
   width="22"
   height="22"
   viewBox="0 0 5.8208332 5.8208335"
   version="1.1"
   id="svg8"
   inkscape:version="0.92.3 (2405546, 2018-03-11)"
   sodipodi:docname="folder-public.svg">
  <defs
     id="defs2" />
  <sodipodi:namedview
     id="base"
     pagecolor="#ffffff"
     bordercolor="#666666"
     borderopacity="1.0"
     inkscape:pageopacity="0.0"
     inkscape:pageshadow="2"
     inkscape:zoom="31.678384"
     inkscape:cx="7.0407464"
     inkscape:cy="13.640271"
     inkscape:document-units="px"
     inkscape:current-layer="layer1"
     showgrid="true"
     units="px"
     inkscape:showpageshadow="false"
     inkscape:snap-bbox="true"
     inkscape:bbox-paths="true"
     inkscape:bbox-nodes="true"
     inkscape:snap-bbox-edge-midpoints="true"
     inkscape:snap-bbox-midpoints="true"
     inkscape:object-paths="true"
     inkscape:snap-intersection-paths="true"
     inkscape:window-width="1874"
     inkscape:window-height="1141"
     inkscape:window-x="46"
     inkscape:window-y="30"
     inkscape:window-maximized="1">
    <inkscape:grid
       type="xygrid"
       id="grid815" />
  </sodipodi:namedview>
  <metadata
     id="metadata5">
    <rdf:RDF>
      <cc:Work
         rdf:about="">
        <dc:format>image/svg+xml</dc:format>
        <dc:type
           rdf:resource="http://purl.org/dc/dcmitype/StillImage" />
        <dc:title></dc:title>
      </cc:Work>
    </rdf:RDF>
  </metadata>
  <g
     inkscape:label="Capa 1"
     inkscape:groupmode="layer"
     id="layer1"
     transform="translate(0,-291.17916)">
    <g
       id="g1400"
       transform="translate(3.175,2.6458133)">
      <path
         id="path4"
         class="ColorScheme-Text"
         style="fill:#36404d;fill-opacity:1;stroke:none;stroke-width:0.26458332"
         d="m -0.25683187,289.32715 c -0.095726,-0.003 -0.1854533,0.0465 -0.234611,0.12867 l -0.79375003,1.32292 c -0.1055068,0.1763 0.021402,0.40034 0.2268595,0.40049 h 0.26458343 v 0.52917 c 0,0.29316 0.2360083,0.52916 0.5291666,0.52916 0.2931584,0 0.5291667,-0.236 0.5291667,-0.52916 v -0.52917 h 0.2645833 c 0.205458,-1.5e-4 0.3323665,-0.22419 0.2268596,-0.40049 l -0.79375,-1.32292 c -0.046317,-0.0774 -0.1289092,-0.12595 -0.2191081,-0.12867 z m -1.59525143,2.11666 c -0.1465787,0 -0.2645834,0.11801 -0.2645834,0.26459 v 1.85208 c 0,0.14658 0.1180047,0.26458 0.2645834,0.26458 h 3.1749999 c 0.1465787,0 0.2645834,-0.118 0.2645834,-0.26458 v -1.85208 c 0,-0.14658 -0.1180047,-0.26459 -0.2645834,-0.26459 H 0.52916663 v 0.79375 h 0.2645834 v 0.79375 H -1.3229167 v -0.79375 h 0.2645833 v -0.79375 z"
         inkscape:connector-curvature="0" />
      <path
         id="path819"
         d="m -0.26458337,289.59168 -0.79375003,1.32291 h 0.52916673 v 0.79375 c 0,0.14658 0.1180042,0.26459 0.2645833,0.26459 0.1465792,0 0.264583397272729,-0.11801 0.264583397272729,-0.26459 v -0.79375 H 0.52916663 Z m -1.58749993,2.11666 v 0.26459 1.32291 0.26459 h 3.1749999 v -0.26459 -1.5875 H 0.79375003 v 0.26459 H 1.0583333 v 1.32291 H -1.5875 v -1.32291 h 0.2645833 v -0.26459 H -1.5875 Z"
         style="fill:#4b6477;fill-opacity:1;stroke:none;stroke-width:0.26458332px;stroke-linecap:butt;stroke-linejoin:miter;stroke-opacity:1"
         inkscape:connector-curvature="0" />
    </g>
  </g>
</svg>
