<?xml version="1.0" encoding="UTF-8" standalone="no"?>
<!-- Created with Inkscape (http://www.inkscape.org/) -->

<svg
   width="22"
   height="22"
   viewBox="0 0 5.8208332 5.8208335"
   version="1.1"
   id="svg8"
   inkscape:version="1.2 (dc2aedaf03, 2022-05-15)"
   sodipodi:docname="folder-antu.svg"
   xmlns:inkscape="http://www.inkscape.org/namespaces/inkscape"
   xmlns:sodipodi="http://sodipodi.sourceforge.net/DTD/sodipodi-0.dtd"
   xmlns="http://www.w3.org/2000/svg"
   xmlns:svg="http://www.w3.org/2000/svg"
   xmlns:rdf="http://www.w3.org/1999/02/22-rdf-syntax-ns#"
   xmlns:cc="http://creativecommons.org/ns#"
   xmlns:dc="http://purl.org/dc/elements/1.1/">
  <defs
     id="defs2" />
  <sodipodi:namedview
     id="base"
     pagecolor="#ffffff"
     bordercolor="#666666"
     borderopacity="1.0"
     inkscape:pageopacity="0.0"
     inkscape:pageshadow="2"
     inkscape:zoom="31.678384"
     inkscape:cx="22.318058"
     inkscape:cy="15.357475"
     inkscape:document-units="px"
     inkscape:current-layer="path6832-5-7-1-2-0-2-5-7-8"
     showgrid="true"
     units="px"
     inkscape:showpageshadow="false"
     inkscape:snap-bbox="true"
     inkscape:bbox-paths="true"
     inkscape:bbox-nodes="true"
     inkscape:snap-bbox-edge-midpoints="true"
     inkscape:snap-bbox-midpoints="true"
     inkscape:object-paths="true"
     inkscape:snap-intersection-paths="true"
     inkscape:window-width="2160"
     inkscape:window-height="1337"
     inkscape:window-x="0"
     inkscape:window-y="0"
     inkscape:window-maximized="1"
     inkscape:pagecheckerboard="0"
     inkscape:deskcolor="#d1d1d1">
    <inkscape:grid
       type="xygrid"
       id="grid815" />
  </sodipodi:namedview>
  <metadata
     id="metadata5">
    <rdf:RDF>
      <cc:Work
         rdf:about="">
        <dc:format>image/svg+xml</dc:format>
        <dc:type
           rdf:resource="http://purl.org/dc/dcmitype/StillImage" />
      </cc:Work>
    </rdf:RDF>
  </metadata>
  <g
     inkscape:label="Capa 1"
     inkscape:groupmode="layer"
     id="layer1"
     transform="translate(0,-291.17916)">
    <g
       id="path6832-5-7-1-2-0-2-5-7-8"
       transform="translate(-4.2341145,0.47707667)">
      <g
         id="path45109-1"
         style="fill:#d72f4a;fill-opacity:1">
        <path
           style="color:#000000;fill:#d72f4a;stroke-linecap:round;stroke-linejoin:round;-inkscape-stroke:none;fill-opacity:1"
           d="m 7.1445312,291.23047 a 0.26460981,0.26460981 0 0 0 -0.2207031,0.11914 l -0.4160156,0.625 -0.6015625,-0.20117 a 0.26460981,0.26460981 0 0 0 -0.3496094,0.25195 v 0.60352 l -0.6132812,0.20312 a 0.26460981,0.26460981 0 0 0 -0.0625,0.4707 l 0.4648437,0.31055 -0.4648437,0.30859 a 0.26460981,0.26460981 0 0 0 0.0625,0.47071 l 0.6132812,0.20508 v 0.60156 a 0.26460981,0.26460981 0 0 0 0.3496094,0.25195 l 0.6015625,-0.20117 0.4160156,0.625 a 0.26460981,0.26460981 0 0 0 0.4414063,0 l 0.4160156,-0.625 0.6015625,0.20117 a 0.26460981,0.26460981 0 0 0 0.3496094,-0.25195 v -0.60156 l 0.6132812,-0.20508 a 0.26460981,0.26460981 0 0 0 0.0625,-0.47071 l -0.4648437,-0.30859 0.4648437,-0.31055 a 0.26460981,0.26460981 0 0 0 -0.0625,-0.4707 l -0.6132812,-0.20312 v -0.60352 a 0.26460981,0.26460981 0 0 0 -0.3496094,-0.25195 l -0.6015625,0.20117 -0.4160156,-0.625 a 0.26460981,0.26460981 0 0 0 -0.2207032,-0.11914 z m 0,0.74219 0.3085938,0.46289 a 0.26460981,0.26460981 0 0 0 0.3046875,0.10547 l 0.4453125,-0.14844 v 0.42578 a 0.26460981,0.26460981 0 0 0 0.1796875,0.25195 l 0.28125,0.0937 -0.34375,0.22852 a 0.26460981,0.26460981 0 0 0 0,0.43945 l 0.34375,0.22852 -0.28125,0.0937 a 0.26460981,0.26460981 0 0 0 -0.1796875,0.25195 v 0.42578 l -0.4453125,-0.14844 a 0.26460981,0.26460981 0 0 0 -0.3046875,0.10547 l -0.3085938,0.46289 -0.3085937,-0.46289 A 0.26460981,0.26460981 0 0 0 6.53125,294.68359 l -0.4453125,0.14844 v -0.42578 A 0.26460981,0.26460981 0 0 0 5.90625,294.1543 l -0.28125,-0.0937 0.34375,-0.22852 a 0.26460981,0.26460981 0 0 0 0,-0.43945 l -0.34375,-0.22852 0.28125,-0.0937 a 0.26460981,0.26460981 0 0 0 0.1796875,-0.25195 v -0.42578 l 0.4453125,0.14844 a 0.26460981,0.26460981 0 0 0 0.3046875,-0.10547 z"
           id="path51887" />
      </g>
      <path
         style="color:#000000;fill:#ff778a;stroke-width:0.529167;stroke-linecap:round;stroke-linejoin:round;fill-opacity:1"
         d="m 7.1445312,291.49583 -0.5291666,0.79375 -0.7937501,-0.26458 1e-7,0.79374 -0.79375,0.26459 0.79375,0.52916 -0.79375,0.52917 0.79375,0.26458 -1e-7,0.79376 0.7937501,-0.26459 0.5291666,0.79375 0.5291668,-0.79375 0.79375,0.26459 v -0.79376 l 0.79375,-0.26457 -0.79375,-0.52918 0.79375,-0.52916 -0.79375,-0.26459 V 292.025 l -0.79375,0.26458 z"
         id="path51885" />
    </g>
  </g>
</svg>
