<?xml version="1.0" encoding="UTF-8" standalone="no"?>
<!-- Created with Inkscape (http://www.inkscape.org/) -->

<svg
   xmlns:dc="http://purl.org/dc/elements/1.1/"
   xmlns:cc="http://creativecommons.org/ns#"
   xmlns:rdf="http://www.w3.org/1999/02/22-rdf-syntax-ns#"
   xmlns:svg="http://www.w3.org/2000/svg"
   xmlns="http://www.w3.org/2000/svg"
   xmlns:sodipodi="http://sodipodi.sourceforge.net/DTD/sodipodi-0.dtd"
   xmlns:inkscape="http://www.inkscape.org/namespaces/inkscape"
   width="22"
   height="22"
   viewBox="0 0 5.8208332 5.8208335"
   version="1.1"
   id="svg8"
   inkscape:version="0.92.3 (2405546, 2018-03-11)"
   sodipodi:docname="start-here-kde.svg">
  <defs
     id="defs2" />
  <sodipodi:namedview
     id="base"
     pagecolor="#ffffff"
     bordercolor="#666666"
     borderopacity="1.0"
     inkscape:pageopacity="0.0"
     inkscape:pageshadow="2"
     inkscape:zoom="31.678384"
     inkscape:cx="9.9804834"
     inkscape:cy="13.064945"
     inkscape:document-units="px"
     inkscape:current-layer="g3883"
     showgrid="true"
     units="px"
     inkscape:showpageshadow="false"
     inkscape:snap-bbox="true"
     inkscape:bbox-paths="true"
     inkscape:bbox-nodes="true"
     inkscape:snap-bbox-edge-midpoints="true"
     inkscape:snap-bbox-midpoints="true"
     inkscape:object-paths="true"
     inkscape:snap-intersection-paths="true"
     inkscape:window-width="1874"
     inkscape:window-height="1143"
     inkscape:window-x="46"
     inkscape:window-y="30"
     inkscape:window-maximized="1">
    <inkscape:grid
       type="xygrid"
       id="grid815" />
  </sodipodi:namedview>
  <metadata
     id="metadata5">
    <rdf:RDF>
      <cc:Work
         rdf:about="">
        <dc:format>image/svg+xml</dc:format>
        <dc:type
           rdf:resource="http://purl.org/dc/dcmitype/StillImage" />
        <dc:title />
      </cc:Work>
    </rdf:RDF>
  </metadata>
  <g
     inkscape:label="Capa 1"
     inkscape:groupmode="layer"
     id="layer1"
     transform="translate(0,-291.17916)">
    <g
       id="g1482"
       transform="translate(1.5875225,-1.8520664)">
      <g
         inkscape:label="Capa 1"
         id="layer1-6"
         transform="translate(1.9616264,3.7041779)">
        <g
           id="g3883"
           transform="translate(-6.1949598,-1.3229379)">
          <path
             inkscape:connector-curvature="0"
             id="rect4119"
             d="m 3.9687275,291.17915 c 0.2931584,0 0.5291668,0.23601 0.5291668,0.52917 0,0.29316 -0.2360084,0.52917 -0.5291668,0.52917 -0.2931582,0 -0.5291666,-0.23601 -0.5291666,-0.52917 0,-0.29316 0.2360084,-0.52917 0.5291666,-0.52917 z"
             style="fill:#c74343;fill-opacity:1;stroke-width:0.16933282" />
          <path
             inkscape:connector-curvature="0"
             id="rect4308"
             d="m 3.4395848,292.50208 h 6.5e-6 c 0.4397359,0 0.7937467,0.35401 0.7937467,0.79375 v 0 c 0,0.43974 -0.3540108,0.79375 -0.7937467,0.79375 h -6.5e-6 c -0.4397358,0 -0.7937467,-0.35401 -0.7937467,-0.79375 v 0 c 0,-0.43974 0.3540109,-0.79375 0.7937467,-0.79375 z"
             style="fill:#5e9c76;fill-opacity:1;stroke-width:0.17638852" />
          <path
             inkscape:connector-curvature="0"
             id="rect4312"
             d="m 4.4978942,294.08957 c 0.5863169,0 1.0583333,0.47201 1.0583333,1.05833 0,0.58632 -0.4720164,1.05833 -1.0583333,1.05833 -0.5863168,0 -1.0583334,-0.47201 -1.0583334,-1.05833 0,-0.58632 0.4720166,-1.05833 1.0583334,-1.05833 z"
             style="fill:#4f92db;fill-opacity:1;stroke-width:0.16282056" />
          <path
             inkscape:connector-curvature="0"
             id="rect4308-6"
             d="m 3.4395834,292.76667 h 2.7e-6 c 0.2931582,0 0.5291653,0.23601 0.5291653,0.52917 v 0 c 0,0.29315 -0.2360071,0.52916 -0.5291653,0.52916 h -2.7e-6 c -0.293157,0 -0.5291653,-0.23601 -0.5291653,-0.52916 v 0 c 0,-0.29316 0.2360083,-0.52917 0.5291653,-0.52917 z"
             style="fill:#bae0bd;fill-opacity:1;stroke-width:0.11759233" />
          <path
             inkscape:connector-curvature="0"
             id="rect4119-7"
             d="m 3.9687277,291.44374 c 0.1465789,0 0.2645832,0.118 0.2645832,0.26458 0,0.14658 -0.1180043,0.26458 -0.2645832,0.26458 -0.1465793,0 -0.2645834,-0.118 -0.2645834,-0.26458 0,-0.14658 0.1180041,-0.26458 0.2645834,-0.26458 z"
             style="fill:#f78f8f;fill-opacity:1;stroke-width:0.08466639" />
          <path
             inkscape:connector-curvature="0"
             id="rect4312-5"
             d="m 4.4978942,294.35415 c 0.4397375,0 0.79375,0.35402 0.79375,0.79375 0,0.43974 -0.3540125,0.79375 -0.79375,0.79375 -0.4397375,0 -0.79375,-0.35401 -0.79375,-0.79375 0,-0.43973 0.3540125,-0.79375 0.79375,-0.79375 z"
             style="fill:#5ac0ff;fill-opacity:1;stroke-width:0.12211544" />
          <path
             id="path3263"
             d="m 6.3464204,290.91459 a 0.26460979,0.26460979 0 0 0 -0.1834513,0.0775 l -0.5291666,0.52916 a 0.26460979,0.26460979 0 0 0 0,0.37414 l 1.135848,1.13585 -1.135848,1.13585 a 0.26460979,0.26460979 0 0 0 0,0.37413 l 0.5291666,0.52917 a 0.26460979,0.26460979 0 0 0 0.3741373,0 l 1.8520833,-1.85208 a 0.26460979,0.26460979 0 0 0 0,-0.37414 l -1.8520833,-1.85208 a 0.26460979,0.26460979 0 0 0 -0.190686,-0.0775 z"
             style="color:#000000;font-style:normal;font-variant:normal;font-weight:normal;font-stretch:normal;font-size:medium;line-height:normal;font-family:sans-serif;font-variant-ligatures:normal;font-variant-position:normal;font-variant-caps:normal;font-variant-numeric:normal;font-variant-alternates:normal;font-feature-settings:normal;text-indent:0;text-align:start;text-decoration:none;text-decoration-line:none;text-decoration-style:solid;text-decoration-color:#000000;letter-spacing:normal;word-spacing:normal;text-transform:none;writing-mode:lr-tb;direction:ltr;text-orientation:mixed;dominant-baseline:auto;baseline-shift:baseline;text-anchor:start;white-space:normal;shape-padding:0;clip-rule:nonzero;display:inline;overflow:visible;visibility:visible;opacity:1;isolation:auto;mix-blend-mode:normal;color-interpolation:sRGB;color-interpolation-filters:linearRGB;solid-color:#000000;solid-opacity:1;vector-effect:none;fill:#36404d;fill-opacity:1;fill-rule:nonzero;stroke:none;stroke-width:0.5291667;stroke-linecap:round;stroke-linejoin:round;stroke-miterlimit:4;stroke-dasharray:none;stroke-dashoffset:0;stroke-opacity:1;color-rendering:auto;image-rendering:auto;shape-rendering:auto;text-rendering:auto;enable-background:accumulate"
             inkscape:connector-curvature="0" />
          <path
             inkscape:connector-curvature="0"
             id="path916-7"
             d="m 5.8208109,294.35416 0.5291667,0.52917 1.8520833,-1.85209 -1.8520833,-1.85208 -0.5291667,0.52917 1.3229167,1.32291 z"
             style="fill:#4b6477;fill-opacity:1;stroke:none;stroke-width:0.5291667;stroke-linecap:round;stroke-linejoin:round;stroke-miterlimit:4;stroke-dasharray:none;stroke-opacity:1" />
        </g>
      </g>
    </g>
  </g>
</svg>
