<?xml version="1.0" encoding="UTF-8" standalone="no"?>
<!-- Created with Inkscape (http://www.inkscape.org/) -->

<svg
   width="22"
   height="22"
   viewBox="0 0 5.8208332 5.8208335"
   version="1.1"
   id="svg8"
   inkscape:version="1.2.1 (9c6d41e410, 2022-07-14)"
   sodipodi:docname="user-home.svg"
   xmlns:inkscape="http://www.inkscape.org/namespaces/inkscape"
   xmlns:sodipodi="http://sodipodi.sourceforge.net/DTD/sodipodi-0.dtd"
   xmlns="http://www.w3.org/2000/svg"
   xmlns:svg="http://www.w3.org/2000/svg"
   xmlns:rdf="http://www.w3.org/1999/02/22-rdf-syntax-ns#"
   xmlns:cc="http://creativecommons.org/ns#"
   xmlns:dc="http://purl.org/dc/elements/1.1/">
  <defs
     id="defs2" />
  <sodipodi:namedview
     id="base"
     pagecolor="#ffffff"
     bordercolor="#666666"
     borderopacity="1.0"
     inkscape:pageopacity="0.0"
     inkscape:pageshadow="2"
     inkscape:zoom="44.8"
     inkscape:cx="8.5156249"
     inkscape:cy="12.265625"
     inkscape:document-units="px"
     inkscape:current-layer="g69687"
     showgrid="true"
     units="px"
     inkscape:showpageshadow="false"
     inkscape:snap-bbox="true"
     inkscape:bbox-paths="true"
     inkscape:bbox-nodes="true"
     inkscape:snap-bbox-edge-midpoints="true"
     inkscape:snap-bbox-midpoints="true"
     inkscape:object-paths="true"
     inkscape:snap-intersection-paths="true"
     inkscape:window-width="2160"
     inkscape:window-height="1335"
     inkscape:window-x="0"
     inkscape:window-y="0"
     inkscape:window-maximized="1"
     inkscape:pagecheckerboard="0"
     inkscape:deskcolor="#d1d1d1">
    <inkscape:grid
       type="xygrid"
       id="grid815" />
  </sodipodi:namedview>
  <metadata
     id="metadata5">
    <rdf:RDF>
      <cc:Work
         rdf:about="">
        <dc:format>image/svg+xml</dc:format>
        <dc:type
           rdf:resource="http://purl.org/dc/dcmitype/StillImage" />
      </cc:Work>
    </rdf:RDF>
  </metadata>
  <g
     inkscape:label="Capa 1"
     inkscape:groupmode="layer"
     id="layer1"
     transform="translate(0,-291.17916)">
    <g
       id="g1431"
       transform="translate(-0.26458333,-2.1166683)">
      <g
         id="g69687"
         transform="translate(-1.3229167,-0.26458169)">
        <path
           id="rect66854"
           style="fill:#b79f85;fill-opacity:1;stroke:none;stroke-width:0.529167;stroke-linecap:square;stroke-linejoin:round;stroke-miterlimit:1.8;stroke-dasharray:none;stroke-opacity:1;paint-order:fill markers stroke;stop-color:#000000"
           d="m 2.9104166,295.67708 c 0,-4.20839 0,0.70555 0,1.05833 v 1.32292 0.26458 c 0,0.14658 0.1180045,0.26458 0.2645834,0.26458 h 2.6458333 c 0.1465789,0 0.2645833,-0.118 0.2645833,-0.26458 v -0.26458 -1.32292 -1.05833 l -1.5875,-1.05834 z"
           sodipodi:nodetypes="cccssssccccc" />
        <path
           id="rect67049"
           style="fill:#f9ecde;stroke-width:0.529167;stroke-linecap:square;stroke-linejoin:round;stroke-miterlimit:1.8;paint-order:fill markers stroke;stop-color:#000000"
           d="m 3.175,295.67708 1.3229166,-1.05834 1.3229167,1.05834 v 2.64583 H 3.175 Z"
           sodipodi:nodetypes="cccccc" />
        <path
           style="color:#000000;fill:#521818;stroke-width:0.264583;stroke-linecap:round;stroke-linejoin:round;stroke-miterlimit:1.8;paint-order:fill markers stroke"
           d="m 4.325834,294.41772 -1.8520833,1.5875 a 0.26458333,0.26458333 0 0 0 -0.028939,0.37311 0.26458333,0.26458333 0 0 0 0.373104,0.0289 l 1.6800007,-1.44022 1.6800007,1.44022 a 0.26458333,0.26458333 0 0 0 0.3731041,-0.0289 0.26458333,0.26458333 0 0 0 -0.028939,-0.37311 l -1.8520834,-1.5875 a 0.26460979,0.26460979 0 0 0 -0.3441648,0 z"
           id="path61573" />
        <path
           id="rect49523-8"
           style="fill:#874720;fill-opacity:1;stroke:none;stroke-width:0.79375;stroke-linecap:square;stroke-linejoin:miter;stroke-miterlimit:1.8;stroke-dasharray:none;stroke-opacity:0.929412;paint-order:fill markers stroke;stop-color:#000000"
           d="M 4.3485718 296.73541 C 3.9901015 296.74443 3.7041667 297.03614 3.7041667 297.39687 L 3.7041667 297.52916 L 3.7041667 297.66145 L 3.7041667 298.32291 L 3.7041667 298.58749 L 5.0270834 298.58749 L 5.0270834 298.32291 L 5.0270834 297.66145 L 5.0270834 297.52916 L 5.0270834 297.39687 C 5.0270834 297.03042 4.7320723 296.73541 4.365625 296.73541 C 4.3598993 296.73541 4.3542618 296.73527 4.3485718 296.73541 z " />
        <path
           id="rect49577-0"
           style="fill:#b87441;fill-opacity:1;stroke:none;stroke-width:0.79375;stroke-linecap:square;stroke-linejoin:miter;stroke-miterlimit:1.8;stroke-dasharray:none;stroke-opacity:0.929412;paint-order:fill markers stroke;stop-color:#000000"
           d="m 4.365625,296.99999 c -0.2198685,0 -0.396875,0.17701 -0.396875,0.39688 v 0.39687 0.13229 0.39688 H 4.365625 4.7625 v -0.39688 -0.13229 -0.39687 c 0,-0.21987 -0.1770066,-0.39688 -0.396875,-0.39688 z" />
      </g>
    </g>
  </g>
</svg>
