<?xml version="1.0" encoding="UTF-8" standalone="no"?>
<!-- Created with Inkscape (http://www.inkscape.org/) -->

<svg
   xmlns:dc="http://purl.org/dc/elements/1.1/"
   xmlns:cc="http://creativecommons.org/ns#"
   xmlns:rdf="http://www.w3.org/1999/02/22-rdf-syntax-ns#"
   xmlns:svg="http://www.w3.org/2000/svg"
   xmlns="http://www.w3.org/2000/svg"
   xmlns:sodipodi="http://sodipodi.sourceforge.net/DTD/sodipodi-0.dtd"
   xmlns:inkscape="http://www.inkscape.org/namespaces/inkscape"
   width="32"
   height="32"
   viewBox="0 0 32 32"
   version="1.1"
   id="svg8"
   inkscape:version="0.92.3 (2405546, 2018-03-11)"
   sodipodi:docname="applications-education.svg">
  <title
     id="title7895">Antu icon Theme</title>
  <defs
     id="defs2">
    <style
       type="text/css"
       id="current-color-scheme">
      .ColorScheme-Text {
        color:#122036;
      }
      </style>
    <style
       type="text/css"
       id="current-color-scheme-2">
      .ColorScheme-Text {
        color:#122036;
      }
      </style>
    <style
       id="current-color-scheme-60"
       type="text/css">
      .ColorScheme-Text {
        color:#122036;
      }
      </style>
    <style
       type="text/css"
       id="current-color-scheme-6">
      .ColorScheme-Text {
        color:#122036;
      }
      </style>
    <style
       type="text/css"
       id="current-color-scheme-2-6">
      .ColorScheme-Text {
        color:#122036;
      }
      </style>
  </defs>
  <sodipodi:namedview
     id="base"
     pagecolor="#ffffff"
     bordercolor="#666666"
     borderopacity="1.0"
     inkscape:pageopacity="0.0"
     inkscape:pageshadow="2"
     inkscape:zoom="22.627417"
     inkscape:cx="17.82352"
     inkscape:cy="14.284995"
     inkscape:document-units="px"
     inkscape:current-layer="g2369"
     showgrid="true"
     units="px"
     inkscape:window-width="1874"
     inkscape:window-height="1141"
     inkscape:window-x="46"
     inkscape:window-y="30"
     inkscape:window-maximized="1"
     objecttolerance="10"
     gridtolerance="10"
     guidetolerance="10"
     inkscape:snap-bbox="true"
     inkscape:bbox-paths="true"
     inkscape:bbox-nodes="true"
     inkscape:snap-bbox-edge-midpoints="true"
     inkscape:snap-bbox-midpoints="true"
     inkscape:snap-intersection-paths="true"
     inkscape:object-nodes="true"
     inkscape:object-paths="true">
    <inkscape:grid
       type="xygrid"
       id="grid7897"
       empspacing="4" />
  </sodipodi:namedview>
  <metadata
     id="metadata5">
    <rdf:RDF>
      <cc:Work
         rdf:about="">
        <dc:format>image/svg+xml</dc:format>
        <dc:type
           rdf:resource="http://purl.org/dc/dcmitype/StillImage" />
        <dc:title>Antu icon Theme</dc:title>
      </cc:Work>
    </rdf:RDF>
  </metadata>
  <g
     inkscape:label="Capa 1"
     inkscape:groupmode="layer"
     id="layer1"
     transform="translate(0,-282.64999)">
    <g
       id="g2369"
       transform="translate(25,-8)">
      <path
         id="path12329"
         d="m -24,292.64999 c -0.55401,0 -1,0.446 -1,1 v 26 c 0,0.554 0.44599,1 1,1 H 6 c 0.55401,0 1,-0.446 1,-1 v -26 c 0,-0.554 -0.44599,-1 -1,-1 h -14 -3 z"
         style="fill:#a36c4c;fill-opacity:1;stroke-width:1.00000012"
         inkscape:connector-curvature="0" />
      <path
         style="opacity:1;fill:#ffc49c;fill-opacity:1;stroke:none;stroke-width:2;stroke-linecap:round;stroke-linejoin:round;stroke-miterlimit:4;stroke-dasharray:none;stroke-dashoffset:0;stroke-opacity:1"
         d="m -24,293.64999 30,0 0,26 -30,0 z"
         id="rect4209" />
      <path
         style="opacity:1;fill:#a36c4c;fill-opacity:1;stroke:none;stroke-width:2;stroke-linecap:round;stroke-linejoin:round;stroke-miterlimit:4;stroke-dasharray:none;stroke-dashoffset:0;stroke-opacity:1"
         d="m -22,295.64999 26,0 0,22 -26,0 z"
         id="rect4211" />
      <path
         style="opacity:1;fill:#1a8c7e;fill-opacity:1;stroke:none;stroke-width:2;stroke-linecap:round;stroke-linejoin:round;stroke-miterlimit:4;stroke-dasharray:none;stroke-dashoffset:0;stroke-opacity:1"
         d="m -21,296.64999 24,0 0,20 -24,0 z"
         id="rect4213" />
      <path
         style="opacity:1;fill:#e9f4f3;fill-opacity:1;stroke:none;stroke-width:2;stroke-linecap:round;stroke-linejoin:round;stroke-miterlimit:4;stroke-dasharray:none;stroke-dashoffset:0;stroke-opacity:1"
         d="M 15.5 11 C 14.115 11 13 12.115 13 13.5 C 13 14.885 14.115 16 15.5 16 C 16.885 16 18 14.885 18 13.5 C 18 12.115 16.885 11 15.5 11 z M 12.5 17 C 11.668999 17 11 17.668999 11 18.5 C 11 18.50471 11.00191 18.508972 11.001953 18.513672 L 11 18.513672 L 11 20 L 12.5 20 L 18.5 20 L 20 20 L 20 18.513672 L 19.998047 18.513672 C 19.99809 18.508972 20 18.50471 20 18.5 C 20 17.668999 19.331001 17 18.5 17 L 12.5 17 z M 21 23 C 20.446001 23 20 23.446 20 24 C 20 24.554 20.446001 25 21 25 L 25 25 C 25.553999 25 26 24.554 26 24 C 26 23.446 25.553999 23 25 23 L 21 23 z "
         transform="translate(-25,290.64999)"
         id="rect4215" />
    </g>
  </g>
</svg>
