<?xml version="1.0" encoding="UTF-8" standalone="no"?>
<!-- Created with Inkscape (http://www.inkscape.org/) -->

<svg
   xmlns:dc="http://purl.org/dc/elements/1.1/"
   xmlns:cc="http://creativecommons.org/ns#"
   xmlns:rdf="http://www.w3.org/1999/02/22-rdf-syntax-ns#"
   xmlns:svg="http://www.w3.org/2000/svg"
   xmlns="http://www.w3.org/2000/svg"
   xmlns:sodipodi="http://sodipodi.sourceforge.net/DTD/sodipodi-0.dtd"
   xmlns:inkscape="http://www.inkscape.org/namespaces/inkscape"
   width="128"
   height="128"
   viewBox="0 0 33.866665 33.866665"
   version="1.1"
   id="svg1399"
   inkscape:version="0.92.4 5da689c313, 2019-01-14"
   sodipodi:docname="application-x-shellscript.svg">
  <defs
     id="defs1393" />
  <sodipodi:namedview
     id="base"
     pagecolor="#ffffff"
     bordercolor="#666666"
     borderopacity="1.0"
     inkscape:pageopacity="0.0"
     inkscape:pageshadow="2"
     inkscape:zoom="4"
     inkscape:cx="33.734525"
     inkscape:cy="67.926485"
     inkscape:document-units="px"
     inkscape:current-layer="layer1"
     showgrid="true"
     inkscape:showpageshadow="false"
     units="px"
     inkscape:window-width="1920"
     inkscape:window-height="1049"
     inkscape:window-x="0"
     inkscape:window-y="0"
     inkscape:window-maximized="1">
    <inkscape:grid
       type="xygrid"
       id="grid867" />
  </sodipodi:namedview>
  <metadata
     id="metadata1396">
    <rdf:RDF>
      <cc:Work
         rdf:about="">
        <dc:format>image/svg+xml</dc:format>
        <dc:type
           rdf:resource="http://purl.org/dc/dcmitype/StillImage" />
        <dc:title />
      </cc:Work>
    </rdf:RDF>
  </metadata>
  <g
     inkscape:label="Capa 1"
     inkscape:groupmode="layer"
     id="layer1"
     transform="translate(0,-263.13338)">
    <g
       id="g6275"
       transform="translate(20.775332,-4.6055275)">
      <path
         id="rect928"
         d="M -16.277415,268.00349 H 8.5934172 c 1.172633,0 2.1166658,0.94403 2.1166658,2.11667 v 29.10416 c 0,1.17264 -0.9440328,2.11667 -2.1166658,2.11667 H -16.277415 c -1.172634,0 -2.116667,-0.94403 -2.116667,-2.11667 v -29.10416 c 0,-1.17264 0.944033,-2.11667 2.116667,-2.11667 z"
         style="opacity:1;vector-effect:none;fill:#363c4d;fill-opacity:1;stroke:none;stroke-width:0.60079932;stroke-linecap:round;stroke-linejoin:round;stroke-miterlimit:4;stroke-dasharray:none;stroke-dashoffset:0;stroke-opacity:1"
         inkscape:connector-curvature="0" />
      <path
         id="rect928-2"
         d="M -16.277415,268.26807 H 8.5934172 c 1.026054,0 1.8520828,0.82603 1.8520828,1.85209 v 29.10416 c 0,1.02606 -0.8260288,1.85209 -1.8520828,1.85209 H -16.277415 c -1.026054,0 -1.852083,-0.82603 -1.852083,-1.85209 v -29.10416 c 0,-1.02606 0.826029,-1.85209 1.852083,-1.85209 z"
         style="opacity:1;vector-effect:none;fill:#4b6477;fill-opacity:1;stroke:none;stroke-width:0.60079932;stroke-linecap:round;stroke-linejoin:round;stroke-miterlimit:4;stroke-dasharray:none;stroke-dashoffset:0;stroke-opacity:1"
         inkscape:connector-curvature="0" />
    </g>
    <g
       transform="matrix(0.51263018,0,0,0.51026783,0.56223956,134.89458)"
       id="layer1-6"
       inkscape:label="Capa 1">
      <path
         style="opacity:1;fill:#3c4f5e;fill-opacity:1;stroke:none;stroke-width:7.73212242;stroke-linecap:round;stroke-linejoin:round;stroke-miterlimit:4;stroke-dasharray:none;stroke-opacity:1"
         d="M 11.408203 5 C 11.10919 5.4164131 10.753263 5.7914315 10.550781 6.2695312 C 10.195865 7.1075608 10 8.0305019 10 9 L 10 11 L 10 13 L 10.404297 13 L 27.595703 13 L 100.4043 13 L 117.5957 13 L 118 13 L 118 11 L 118 9 C 118 8.0305019 117.80413 7.1075608 117.44922 6.2695312 C 117.24674 5.7914315 116.89081 5.4164131 116.5918 5 L 101.4082 5 L 26.591797 5 L 11.408203 5 z M 10 17 L 10 18 L 10 25 L 17 25 L 111 25 L 118 25 L 118 18 L 118 17 L 10 17 z M 10 29 L 10 37 L 118 37 L 118 29 L 10 29 z M 10 41 L 10 49 L 118 49 L 118 41 L 10 41 z M 10 54 L 10 62 L 118 62 L 118 54 L 10 54 z M 10 66 L 10 74 L 118 74 L 118 66 L 10 66 z M 10 78 L 10 86 L 118 86 L 118 78 L 10 78 z M 10 90 L 10 98 L 118 98 L 118 90 L 10 90 z M 10 102 L 10 110 L 118 110 L 118 102 L 10 102 z M 10 114 L 10 117 L 10 119 C 10 119.9695 10.195548 120.89244 10.548828 121.73047 C 10.591659 121.83207 10.683055 121.90094 10.730469 122 L 27.269531 122 L 100.73047 122 L 116 122 L 117.26953 122 C 117.31695 121.90094 117.40834 121.83207 117.45117 121.73047 C 117.80445 120.89244 118 119.9695 118 119 L 118 118 L 118 117 L 118 114 L 117.26953 114 L 100.73047 114 L 27.269531 114 L 10.730469 114 L 10 114 z "
         transform="matrix(0.51612904,0,0,0.51851852,-1.0967742,251.31665)"
         id="path985" />
    </g>
    <path
       style="opacity:1;vector-effect:none;fill:#9affc1;fill-opacity:1;stroke:none;stroke-width:2.64583325;stroke-linecap:round;stroke-linejoin:round;stroke-miterlimit:4;stroke-dasharray:none;stroke-dashoffset:0;stroke-opacity:1;paint-order:normal"
       d="m 5.2916664,265.25005 v 1.05833 H 4.2333331 v 1.05833 h 1.0583333 v 1.05834 H 4.2333331 v 1.05833 h 1.0583333 v 1.05833 h 1.0583333 v -1.05833 H 7.408333 v 1.05833 h 1.0583332 v -1.05833 h 1.0583333 v -1.05833 H 8.4666662 v -1.05834 h 1.0583333 v -1.05833 H 8.4666662 v -1.05833 H 7.408333 v 1.05833 H 6.3499997 v -1.05833 z m 1.0583333,2.11666 H 7.408333 v 1.05834 H 6.3499997 Z"
       id="rect951"
       inkscape:connector-curvature="0" />
  </g>
</svg>
