<?xml version="1.0" encoding="UTF-8" standalone="no"?>
<!-- Created with Inkscape (http://www.inkscape.org/) -->

<svg
   xmlns:dc="http://purl.org/dc/elements/1.1/"
   xmlns:cc="http://creativecommons.org/ns#"
   xmlns:rdf="http://www.w3.org/1999/02/22-rdf-syntax-ns#"
   xmlns:svg="http://www.w3.org/2000/svg"
   xmlns="http://www.w3.org/2000/svg"
   xmlns:sodipodi="http://sodipodi.sourceforge.net/DTD/sodipodi-0.dtd"
   xmlns:inkscape="http://www.inkscape.org/namespaces/inkscape"
   width="128"
   height="128"
   viewBox="0 0 33.866665 33.866665"
   version="1.1"
   id="svg1399"
   inkscape:version="0.92.4 5da689c313, 2019-01-14"
   sodipodi:docname="application-x-lha.svg">
  <defs
     id="defs1393">
    <style
       id="current-color-scheme"
       type="text/css">
      .ColorScheme-Text {
        color:#122036;
      }
      </style>
    <style
       type="text/css"
       id="current-color-scheme-53">
      .ColorScheme-Text {
        color:#122036;
      }
      </style>
    <style
       id="current-color-scheme-5"
       type="text/css">
      .ColorScheme-Text {
        color:#122036;
      }
      </style>
    <style
       id="current-color-scheme-2"
       type="text/css">
      .ColorScheme-Text {
        color:#122036;
      }
      </style>
    <style
       id="current-color-scheme-1"
       type="text/css">
      .ColorScheme-Text {
        color:#122036;
      }
      </style>
    <style
       type="text/css"
       id="current-color-scheme-10">
      .ColorScheme-Text {
        color:#122036;
      }
      </style>
    <style
       id="current-color-scheme-0"
       type="text/css">
      .ColorScheme-Text {
        color:#122036;
      }
      </style>
    <style
       id="current-color-scheme-26"
       type="text/css">
      .ColorScheme-Text {
        color:#122036;
      }
      </style>
    <style
       id="current-color-scheme-7"
       type="text/css">
      .ColorScheme-Text {
        color:#122036;
      }
      </style>
    <linearGradient
       gradientUnits="userSpaceOnUse"
       y2="528.78998"
       x2="451.34"
       y1="556.78998"
       x1="451.69"
       id="linearGradient7784">
      <stop
         style="stop-color:#1cbfa3;stop-opacity:1"
         id="stop7780"
         stop-color="#0cb096" />
      <stop
         id="stop7782"
         stop-color="#34d6b6"
         offset="1" />
    </linearGradient>
  </defs>
  <sodipodi:namedview
     id="base"
     pagecolor="#ffffff"
     bordercolor="#666666"
     borderopacity="1.0"
     inkscape:pageopacity="0.0"
     inkscape:pageshadow="2"
     inkscape:zoom="5.6"
     inkscape:cx="119.24476"
     inkscape:cy="62.22728"
     inkscape:document-units="px"
     inkscape:current-layer="layer1"
     showgrid="false"
     inkscape:showpageshadow="false"
     units="px"
     inkscape:window-width="1920"
     inkscape:window-height="1049"
     inkscape:window-x="0"
     inkscape:window-y="0"
     inkscape:window-maximized="1" />
  <metadata
     id="metadata1396">
    <rdf:RDF>
      <cc:Work
         rdf:about="">
        <dc:format>image/svg+xml</dc:format>
        <dc:type
           rdf:resource="http://purl.org/dc/dcmitype/StillImage" />
        <dc:title></dc:title>
      </cc:Work>
    </rdf:RDF>
  </metadata>
  <g
     inkscape:label="Capa 1"
     inkscape:groupmode="layer"
     id="layer1"
     transform="translate(0,-263.13338)">
    <g
       id="g6275"
       transform="translate(20.775332,-4.6055275)">
      <path
         id="rect928"
         d="M -16.277415,268.00349 H 8.5934172 c 1.172633,0 2.1166658,0.94403 2.1166658,2.11667 v 29.10416 c 0,1.17264 -0.9440328,2.11667 -2.1166658,2.11667 H -16.277415 c -1.172634,0 -2.116667,-0.94403 -2.116667,-2.11667 v -29.10416 c 0,-1.17264 0.944033,-2.11667 2.116667,-2.11667 z"
         style="opacity:1;vector-effect:none;fill:#2764c9;fill-opacity:1;stroke:none;stroke-width:0.60079932;stroke-linecap:round;stroke-linejoin:round;stroke-miterlimit:4;stroke-dasharray:none;stroke-dashoffset:0;stroke-opacity:1"
         inkscape:connector-curvature="0" />
      <path
         id="rect928-2"
         d="M -16.277415,268.26807 H 8.5934172 c 1.026054,0 1.8520828,0.82603 1.8520828,1.85209 v 29.10416 c 0,1.02606 -0.8260288,1.85209 -1.8520828,1.85209 H -16.277415 c -1.026054,0 -1.852083,-0.82603 -1.852083,-1.85209 v -29.10416 c 0,-1.02606 0.826029,-1.85209 1.852083,-1.85209 z"
         style="opacity:1;vector-effect:none;fill:#4f8df8;fill-opacity:1;stroke:none;stroke-width:0.60079932;stroke-linecap:round;stroke-linejoin:round;stroke-miterlimit:4;stroke-dasharray:none;stroke-dashoffset:0;stroke-opacity:1"
         inkscape:connector-curvature="0" />
      <path
         inkscape:connector-curvature="0"
         id="rect1067"
         d="m -6.4878328,268.00349 v 2.64583 3.43959 8.20208 c 0,1.46579 1.180042,2.64583 2.645833,2.64583 1.465792,0 2.645834,-1.18004 2.645834,-2.64583 v -8.20208 -3.43959 -2.64583 h -2.645834 z"
         style="opacity:1;vector-effect:none;fill:#36404d;fill-opacity:1;stroke:none;stroke-width:0.52916664;stroke-linecap:round;stroke-linejoin:round;stroke-miterlimit:4;stroke-dasharray:none;stroke-dashoffset:0;stroke-opacity:1" />
      <path
         inkscape:connector-curvature="0"
         style="opacity:1;vector-effect:none;fill:#465c6e;fill-opacity:1;stroke:none;stroke-width:0.52916664;stroke-linecap:round;stroke-linejoin:round;stroke-miterlimit:4;stroke-dasharray:none;stroke-dashoffset:0;stroke-opacity:1"
         d="m -6.2232488,268.26807 v 2.38125 1.05834 10.58333 c 0,1.31921 1.062037,2.38125 2.38125,2.38125 1.319212,0 2.381249,-1.06204 2.381249,-2.38125 v -10.58333 -1.05834 -2.38125 h -2.381249 z"
         id="rect1144" />
      <path
         id="path869"
         d="m -3.8419988,268.26807 v 1.05834 h 1.058333 v -1.05834 z m 0,1.05834 h -1.058334 v 1.05833 h 1.058334 z m 0,1.05833 v 1.05833 h 1.058333 v -1.05833 z m 0,1.05833 h -1.058334 v 1.05834 h 1.058334 z m 0,1.05834 v 1.05833 h 1.058333 v -1.05833 z m 0,1.05833 h -1.058334 v 1.05833 h 1.058334 z m 0,1.05833 v 1.05834 h 1.058333 v -1.05834 z m 0,1.05834 h -1.058334 v 1.05833 h 1.058334 z m 0,1.05833 v 1.05833 h 1.058333 v -1.05833 z m 0,1.05833 h -1.058334 v 1.05834 h 1.058334 z m 0,1.05834 v 1.05833 h 1.058333 v -1.05833 z m 0,1.05833 h -1.058334 v 1.05833 h 1.058334 z m 0,1.05833 v 1.05834 h 1.058333 v -1.05834 z m 0,1.05834 h -1.058334 v 1.05833 h 1.058334 z"
         style="opacity:1;vector-effect:none;fill:#f2f2f2;fill-opacity:1;stroke:none;stroke-width:0.52916664;stroke-linecap:round;stroke-linejoin:round;stroke-miterlimit:4;stroke-dasharray:none;stroke-dashoffset:0;stroke-opacity:1"
         inkscape:connector-curvature="0" />
    </g>
  </g>
</svg>
