<?xml version="1.0" encoding="UTF-8" standalone="no"?>
<!-- Created with Inkscape (http://www.inkscape.org/) -->

<svg
   xmlns:dc="http://purl.org/dc/elements/1.1/"
   xmlns:cc="http://creativecommons.org/ns#"
   xmlns:rdf="http://www.w3.org/1999/02/22-rdf-syntax-ns#"
   xmlns:svg="http://www.w3.org/2000/svg"
   xmlns="http://www.w3.org/2000/svg"
   xmlns:sodipodi="http://sodipodi.sourceforge.net/DTD/sodipodi-0.dtd"
   xmlns:inkscape="http://www.inkscape.org/namespaces/inkscape"
   width="128"
   height="128"
   viewBox="0 0 33.866665 33.866665"
   version="1.1"
   id="svg1399"
   inkscape:version="0.92.4 5da689c313, 2019-01-14"
   sodipodi:docname="application-x-bittorrent.svg">
  <defs
     id="defs1393">
    <style
       type="text/css"
       id="current-color-scheme">
      .ColorScheme-Text {
        color:#122036;
      }
      </style>
    <style
       id="current-color-scheme-53"
       type="text/css">
      .ColorScheme-Text {
        color:#122036;
      }
      </style>
    <style
       type="text/css"
       id="current-color-scheme-5">
      .ColorScheme-Text {
        color:#122036;
      }
      </style>
    <style
       type="text/css"
       id="current-color-scheme-2">
      .ColorScheme-Text {
        color:#122036;
      }
      </style>
    <style
       type="text/css"
       id="current-color-scheme-1">
      .ColorScheme-Text {
        color:#122036;
      }
      </style>
    <style
       id="current-color-scheme-10"
       type="text/css">
      .ColorScheme-Text {
        color:#122036;
      }
      </style>
    <style
       type="text/css"
       id="current-color-scheme-0">
      .ColorScheme-Text {
        color:#122036;
      }
      </style>
    <style
       type="text/css"
       id="current-color-scheme-26">
      .ColorScheme-Text {
        color:#122036;
      }
      </style>
    <style
       type="text/css"
       id="current-color-scheme-7">
      .ColorScheme-Text {
        color:#122036;
      }
      </style>
  </defs>
  <sodipodi:namedview
     id="base"
     pagecolor="#ffffff"
     bordercolor="#666666"
     borderopacity="1.0"
     inkscape:pageopacity="0.0"
     inkscape:pageshadow="2"
     inkscape:zoom="3.959798"
     inkscape:cx="142.95022"
     inkscape:cy="26.994639"
     inkscape:document-units="px"
     inkscape:current-layer="g5139"
     showgrid="true"
     inkscape:showpageshadow="false"
     units="px"
     inkscape:window-width="1920"
     inkscape:window-height="1049"
     inkscape:window-x="0"
     inkscape:window-y="0"
     inkscape:window-maximized="1"
     inkscape:snap-bbox="true"
     inkscape:bbox-paths="true"
     inkscape:bbox-nodes="true"
     inkscape:snap-bbox-edge-midpoints="true"
     inkscape:snap-bbox-midpoints="true">
    <inkscape:grid
       type="xygrid"
       id="grid5179" />
  </sodipodi:namedview>
  <metadata
     id="metadata1396">
    <rdf:RDF>
      <cc:Work
         rdf:about="">
        <dc:format>image/svg+xml</dc:format>
        <dc:type
           rdf:resource="http://purl.org/dc/dcmitype/StillImage" />
        <dc:title />
      </cc:Work>
    </rdf:RDF>
  </metadata>
  <g
     inkscape:label="Capa 1"
     inkscape:groupmode="layer"
     id="layer1"
     transform="translate(0,-263.13338)">
    <g
       id="g5139"
       transform="translate(20.30761,-4.8393875)">
      <path
         id="rect928"
         d="M -15.809694,268.23735 H 9.0611389 c 1.1726331,0 2.1166661,0.94403 2.1166661,2.11667 v 29.10416 c 0,1.17264 -0.944033,2.11667 -2.1166661,2.11667 H -15.809694 c -1.172633,0 -2.116666,-0.94403 -2.116666,-2.11667 v -29.10416 c 0,-1.17264 0.944033,-2.11667 2.116666,-2.11667 z"
         style="opacity:1;vector-effect:none;fill:#6e7cd4;fill-opacity:1;stroke:none;stroke-width:0.60079932;stroke-linecap:round;stroke-linejoin:round;stroke-miterlimit:4;stroke-dasharray:none;stroke-dashoffset:0;stroke-opacity:1"
         inkscape:connector-curvature="0" />
      <path
         id="rect928-2"
         d="M -15.809694,268.50193 H 9.0611389 c 1.0260541,0 1.8520831,0.82603 1.8520831,1.85209 v 29.10416 c 0,1.02606 -0.826029,1.85209 -1.8520831,1.85209 H -15.809694 c -1.026054,0 -1.852083,-0.82603 -1.852083,-1.85209 v -29.10416 c 0,-1.02606 0.826029,-1.85209 1.852083,-1.85209 z"
         style="opacity:1;vector-effect:none;fill:#93a0e6;fill-opacity:1;stroke:none;stroke-width:0.60079932;stroke-linecap:round;stroke-linejoin:round;stroke-miterlimit:4;stroke-dasharray:none;stroke-dashoffset:0;stroke-opacity:1"
         inkscape:connector-curvature="0" />
      <path
         style="opacity:1;vector-effect:none;fill:#ebecf4;fill-opacity:0.93913042;stroke:none;stroke-width:0.30574077;stroke-linecap:round;stroke-linejoin:round;stroke-miterlimit:4;stroke-dasharray:none;stroke-dashoffset:0;stroke-opacity:1;paint-order:normal"
         d="m -4.0636412,282.52538 c -1.9306652,-0.0281 -3.7904973,0.72646 -5.1557573,2.09186 -2.0431015,2.04304 -2.6543555,5.11562 -1.5487425,7.78506 1.1057027,2.66953 3.7106549,4.4101 6.6001135,4.41006 H 10.913222 v -1.32291 H -4.1680275 c -0.194148,5e-5 -0.388177,-0.01 -0.5813599,-0.0289 -0.1930553,-0.0195 -0.3850145,-0.0487 -0.5751586,-0.0873 -0.1902071,-0.0385 -0.3783722,-0.0864 -0.5637898,-0.14366 -0.1852829,-0.0573 -0.3675835,-0.12392 -0.5462198,-0.19947 -0.1787792,-0.0756 -0.353664,-0.16012 -0.5239991,-0.25321 -0.1703258,-0.093 -0.335897,-0.19437 -0.4960937,-0.30386 -0.1601195,-0.10968 -0.3146528,-0.22731 -0.4630208,-0.35243 -0.1484553,-0.12494 -0.2905707,-0.25723 -0.4258138,-0.39636 -0.1351933,-0.13924 -0.2633387,-0.28515 -0.3839559,-0.43718 -0.1206484,-0.15205 -0.2336165,-0.31003 -0.3384807,-0.47336 -0.1049959,-0.16335 -0.2017519,-0.33186 -0.2899047,-0.50488 -0.06873,-0.13493 -0.1321676,-0.2725 -0.1901693,-0.41238 -0.074215,-0.17939 -0.1394084,-0.36238 -0.1953368,-0.54828 -0.056069,-0.18583 -0.1028083,-0.37434 -0.1400431,-0.56483 -0.037136,-0.19039 -0.064731,-0.38252 -0.082682,-0.57567 -0.017955,-0.19325 -0.026234,-0.38728 -0.024805,-0.58136 0.00151,-0.19406 0.012719,-0.38791 0.03359,-0.58085 0.02072,-0.19294 0.051074,-0.38473 0.09095,-0.57464 0.040023,-0.18994 0.089522,-0.37776 0.1483114,-0.56275 0.058566,-0.185 0.126347,-0.36696 0.2030884,-0.54519 0.077027,-0.17816 0.1629174,-0.35235 0.2573485,-0.52193 0.094191,-0.1697 0.1968111,-0.33458 0.3074749,-0.49403 0.1107631,-0.15931 0.2294226,-0.31298 0.3555339,-0.46044 0.09845,-0.11525 0.2013648,-0.22661 0.3085081,-0.33383 0.1372402,-0.13716 0.2812526,-0.26737 0.4314983,-0.39015 0.1502122,-0.1228 0.3064701,-0.23801 0.4681884,-0.3452 0.1618533,-0.10734 0.3289774,-0.20651 0.5007446,-0.29714 0.1716696,-0.0906 0.3477617,-0.17249 0.5276165,-0.24546 0.179806,-0.0729 0.3631416,-0.13667 0.5493204,-0.19121 0.1862349,-0.0547 0.3750898,-0.10007 0.5658567,-0.13591 0.1906355,-0.0358 0.3829394,-0.062 0.5761924,-0.0785 0.1933209,-0.0166 0.3873497,-0.0235 0.5813596,-0.0207 0.1941224,0.003 0.3879792,0.0155 0.5808432,0.0377 0.1928408,0.0221 0.3844552,0.0538 0.5741252,0.0951 0.189666,0.0414 0.3771413,0.0923 0.5617228,0.15245 0.1441006,0.0468 0.2863191,0.0992 0.4263305,0.15709 0.1792341,0.0744 0.3546364,0.15769 0.5255493,0.2496 0.1709531,0.0917 0.3372141,0.19192 0.49816064,0.30024 0.16091879,0.10844 0.31631439,0.22486 0.46560473,0.34882 0.14945095,0.12402 0.29260138,0.25544 0.42891444,0.39377 0.13617124,0.13816 0.26535114,0.28303 0.38705629,0.43408 0.12181046,0.15113 0.23598583,0.30825 0.34209803,0.47078 0.10599102,0.16261 0.20378154,0.33042 0.29300537,0.50281 0.08921,0.17226 0.1697538,0.34886 0.2413288,0.52916 0.071674,0.18039 0.1342808,0.36424 0.1875857,0.55088 0.05335,0.18664 0.09733,0.37584 0.1317749,0.56689 0.034397,0.19087 0.059233,0.38335 0.074414,0.57671 0.011769,0.15112 0.01763,0.30265 0.01757,0.45423 h 1.3229166 c 4.18e-5,-2.88946 -1.7405363,-5.49441 -4.4100666,-6.60011 -0.8342302,-0.34559 -1.7264157,-0.52988 -2.6292968,-0.54312 z m -0.026872,1.85208 c -1.4301958,-0.021 -2.8079778,0.53787 -3.8194049,1.54926 -1.5135658,1.51343 -1.9663571,3.78963 -1.1472169,5.76709 0.8191346,1.97738 2.7487786,3.2666 4.8891071,3.26647 H 10.913222 v -1.32292 H -4.1680275 c -0.1323636,8e-5 -0.2646484,-0.006 -0.3963582,-0.0196 -0.1316498,-0.0132 -0.2625545,-0.0331 -0.3922242,-0.0594 -0.1297146,-0.0263 -0.2580327,-0.0591 -0.3844726,-0.0982 -0.126383,-0.0391 -0.250734,-0.0844 -0.372587,-0.13591 -0.1218301,-0.0516 -0.2410071,-0.10915 -0.3570841,-0.1726 -0.1160364,-0.0634 -0.2288317,-0.13256 -0.3379639,-0.20722 -0.1093642,-0.0748 -0.2149165,-0.15497 -0.3162596,-0.24029 -0.1010761,-0.0852 -0.1978316,-0.17541 -0.289905,-0.27027 -0.092252,-0.095 -0.1796941,-0.19447 -0.2619994,-0.29817 -0.082148,-0.10358 -0.1590699,-0.21121 -0.2304769,-0.32247 -0.071498,-0.11136 -0.137382,-0.22622 -0.1974041,-0.34416 -0.046888,-0.0922 -0.090157,-0.18611 -0.1297077,-0.28164 -0.050642,-0.12224 -0.095139,-0.24694 -0.1333251,-0.37362 -0.038264,-0.12666 -0.070171,-0.25515 -0.095601,-0.38499 -0.025312,-0.12989 -0.044111,-0.26097 -0.056327,-0.39274 -0.012288,-0.13175 -0.01798,-0.26404 -0.017053,-0.39636 9.79e-4,-0.13224 0.00857,-0.26435 0.022738,-0.39584 0.014113,-0.1317 0.034809,-0.26259 0.062012,-0.39222 0.027351,-0.12942 0.061155,-0.25739 0.1012859,-0.38344 0.039944,-0.12608 0.086166,-0.25008 0.1384927,-0.37155 0.052421,-0.12153 0.1108885,-0.24037 0.1751833,-0.35606 0.064272,-0.11574 0.134295,-0.22819 0.2098063,-0.33693 0.075512,-0.10853 0.1564003,-0.21321 0.2423623,-0.31367 0.067112,-0.0787 0.1372733,-0.1547 0.2103231,-0.22789 0.093684,-0.0936 0.1919925,-0.1824 0.2945556,-0.26614 0.1024686,-0.0836 0.209055,-0.16212 0.3193605,-0.23513 0.1102403,-0.0732 0.2240706,-0.14077 0.3410643,-0.20257 0.1170229,-0.0618 0.2370622,-0.11765 0.359668,-0.16743 0.1226362,-0.0496 0.247677,-0.0931 0.3746542,-0.13022 0.1268807,-0.0372 0.2555433,-0.0681 0.3855061,-0.0925 0.1301083,-0.0245 0.2613581,-0.0424 0.3932576,-0.0537 0.1318035,-0.0113 0.264088,-0.0159 0.3963583,-0.014 0.1322863,0.002 0.2643983,0.0103 0.3958415,0.0253 0.1315733,0.0151 0.2623065,0.0369 0.3917071,0.0651 0.1291185,0.0282 0.2567464,0.0629 0.3824057,0.10387 0.098343,0.032 0.1953964,0.0679 0.2909382,0.10749 0.1222957,0.0505 0.2419898,0.10706 0.3586345,0.1695 0.1165212,0.0627 0.229833,0.13115 0.3395141,0.20515 0.1098346,0.0739 0.2159042,0.15323 0.3178101,0.23772 0.1017307,0.0845 0.1991773,0.17399 0.2919719,0.2682 0.092904,0.0942 0.1810359,0.19306 0.2640666,0.2961 0.0829868,0.10302 0.16077062,0.21012 0.23306061,0.32091 0.0723469,0.11097 0.1390933,0.22549 0.19998768,0.34313 0.0609261,0.11741 0.11594359,0.2378 0.16484784,0.36071 0.0487841,0.12302 0.0913844,0.2484 0.12764082,0.37568 0.0363821,0.1271 0.066393,0.25594 0.089917,0.38603 0.0234394,0.13033 0.0403418,0.26175 0.0506428,0.39377 0.00799,0.10299 0.0119531,0.20624 0.0118851,0.30954 H 1.1236389 c 1.283e-4,-2.14033 -1.28908907,-4.06996 -3.2664671,-4.8891 -0.6179846,-0.2559 -1.2788817,-0.39234 -1.9476846,-0.40205 z m -0.027389,1.85209 c -0.9296225,-0.0136 -1.8251518,0.34973 -2.4825355,1.00717 -0.9834229,0.98375 -1.2775157,2.46298 -0.7451743,3.74809 0.5323331,1.28526 1.7864475,2.12331 3.1775837,2.12339 H 10.913222 v -1.32292 H -4.1680275 c -0.07058,9e-5 -0.1411203,-0.003 -0.2113565,-0.0103 -0.070253,-0.007 -0.1401038,-0.0179 -0.2092897,-0.032 -0.069039,-0.014 -0.1373367,-0.0314 -0.2046385,-0.0522 -0.067482,-0.0208 -0.1338837,-0.045 -0.1989542,-0.0724 -0.065057,-0.0275 -0.1286987,-0.0582 -0.1906863,-0.092 -0.061922,-0.0338 -0.1221145,-0.0707 -0.1803506,-0.11059 -0.058257,-0.0399 -0.1144828,-0.0827 -0.1684652,-0.12815 -0.053873,-0.0455 -0.1054412,-0.0936 -0.1545124,-0.14418 -0.04931,-0.0507 -0.09605,-0.10381 -0.1400432,-0.15917 -0.043839,-0.0553 -0.084887,-0.11271 -0.1229899,-0.17208 -0.038001,-0.0594 -0.073012,-0.12059 -0.1049031,-0.18345 -0.025035,-0.0492 -0.048134,-0.0994 -0.069247,-0.15038 -0.027069,-0.0651 -0.05087,-0.13148 -0.071313,-0.19895 -0.020303,-0.0677 -0.037205,-0.13631 -0.050643,-0.20567 -0.013471,-0.0692 -0.023474,-0.13907 -0.029973,-0.20929 -0.00662,-0.0702 -0.00973,-0.1408 -0.0093,-0.21136 6.085e-4,-0.0706 0.00475,-0.14116 0.012401,-0.21136 0.00754,-0.0701 0.018579,-0.13977 0.033073,-0.20877 0.014491,-0.0691 0.032428,-0.13737 0.053743,-0.20464 0.021307,-0.0673 0.04597,-0.13357 0.073897,-0.19844 0.027999,-0.0647 0.059215,-0.12803 0.093534,-0.18965 0.0342,-0.0616 0.071453,-0.12144 0.1116213,-0.17932 0.040401,-0.0581 0.083691,-0.11416 0.1297078,-0.16794 0.035794,-0.0417 0.073202,-0.0821 0.1121378,-0.12093 0.049793,-0.05 0.1020514,-0.0974 0.1565796,-0.14211 0.054713,-0.0447 0.1116282,-0.0866 0.1705322,-0.12557 0.058796,-0.039 0.1195051,-0.075 0.181901,-0.108 0.062377,-0.033 0.1263629,-0.0628 0.1917197,-0.0894 0.065465,-0.0264 0.1322112,-0.0495 0.1999877,-0.0692 0.067688,-0.0199 0.1363308,-0.0365 0.2056723,-0.0496 0.069418,-0.013 0.1394409,-0.0224 0.2098061,-0.0284 0.070275,-0.006 0.1408152,-0.009 0.2113568,-0.008 0.070469,10e-4 0.1408366,0.006 0.2108396,0.014 0.070124,0.008 0.1398023,0.0196 0.2087729,0.0346 0.068919,0.015 0.1370451,0.0335 0.2041218,0.0553 0.052405,0.0171 0.1041198,0.0363 0.1550294,0.0574 0.0652,0.0269 0.1290153,0.0571 0.1912027,0.0904 0.062253,0.0335 0.1227897,0.07 0.1813843,0.10955 0.058575,0.0394 0.1151443,0.0816 0.1694987,0.12661 0.0542,0.0451 0.106114,0.0929 0.1555462,0.14314 0.049636,0.0503 0.096721,0.1031 0.1410766,0.15813 0.044163,0.0549 0.085555,0.112 0.1240234,0.17105 0.038674,0.059 0.074375,0.11987 0.1069702,0.18242 0.032482,0.0627 0.061802,0.12707 0.08785,0.19275 0.026069,0.0657 0.048835,0.13258 0.068213,0.20051 0.019259,0.0677 0.035125,0.13637 0.047542,0.20567 0.012621,0.0694 0.021762,0.13946 0.027388,0.20981 0.00422,0.055 0.00629,0.11018 0.0062,0.16536 h 1.32291659 c -8.123e-5,-1.39114 -0.83812909,-2.64524 -2.12338459,-3.17758 -0.4017036,-0.1664 -0.8313145,-0.25514 -1.2660725,-0.26149 z"
         id="path932"
         inkscape:connector-curvature="0"
         sodipodi:nodetypes="cccccccccccccccccccccccccccccccccccccccccccccccccccccccccccccccccccccccccccccccccccccccccccccccccccccccccccccccccccccccccccccccccccccccccccccccccccccccccccccccccccccccccccccc" />
    </g>
  </g>
</svg>
