<?xml version="1.0" encoding="UTF-8" standalone="no"?>
<!-- Created with Inkscape (http://www.inkscape.org/) -->

<svg
   xmlns:dc="http://purl.org/dc/elements/1.1/"
   xmlns:cc="http://creativecommons.org/ns#"
   xmlns:rdf="http://www.w3.org/1999/02/22-rdf-syntax-ns#"
   xmlns:svg="http://www.w3.org/2000/svg"
   xmlns="http://www.w3.org/2000/svg"
   xmlns:sodipodi="http://sodipodi.sourceforge.net/DTD/sodipodi-0.dtd"
   xmlns:inkscape="http://www.inkscape.org/namespaces/inkscape"
   width="128"
   height="128"
   viewBox="0 0 33.866665 33.866665"
   version="1.1"
   id="svg1399"
   inkscape:version="0.92.4 5da689c313, 2019-01-14"
   sodipodi:docname="audio-x-generic.svg">
  <defs
     id="defs1393" />
  <sodipodi:namedview
     id="base"
     pagecolor="#ffffff"
     bordercolor="#666666"
     borderopacity="1.0"
     inkscape:pageopacity="0.0"
     inkscape:pageshadow="2"
     inkscape:zoom="5.6"
     inkscape:cx="37.435549"
     inkscape:cy="48.008605"
     inkscape:document-units="px"
     inkscape:current-layer="layer1"
     showgrid="false"
     inkscape:showpageshadow="false"
     units="px"
     inkscape:window-width="1920"
     inkscape:window-height="1049"
     inkscape:window-x="0"
     inkscape:window-y="0"
     inkscape:window-maximized="1" />
  <metadata
     id="metadata1396">
    <rdf:RDF>
      <cc:Work
         rdf:about="">
        <dc:format>image/svg+xml</dc:format>
        <dc:type
           rdf:resource="http://purl.org/dc/dcmitype/StillImage" />
        <dc:title></dc:title>
      </cc:Work>
    </rdf:RDF>
  </metadata>
  <g
     inkscape:label="Capa 1"
     inkscape:groupmode="layer"
     id="layer1"
     transform="translate(0,-263.13338)">
    <g
       id="g1545"
       transform="translate(24.817783,-5.9752775)">
      <path
         inkscape:connector-curvature="0"
         style="opacity:1;vector-effect:none;fill:#2764c9;fill-opacity:1;stroke:none;stroke-width:0.60079932;stroke-linecap:round;stroke-linejoin:round;stroke-miterlimit:4;stroke-dasharray:none;stroke-dashoffset:0;stroke-opacity:1"
         d="M -20.319867,269.37324 H 4.5509658 c 1.172633,0 2.116666,0.94403 2.116666,2.11667 v 29.10416 c 0,1.17264 -0.944033,2.11667 -2.116666,2.11667 H -20.319867 c -1.172633,0 -2.116666,-0.94403 -2.116666,-2.11667 v -29.10416 c 0,-1.17264 0.944033,-2.11667 2.116666,-2.11667 z"
         id="rect928" />
      <path
         inkscape:connector-curvature="0"
         style="opacity:1;vector-effect:none;fill:#4f8df8;fill-opacity:1;stroke:none;stroke-width:0.60079932;stroke-linecap:round;stroke-linejoin:round;stroke-miterlimit:4;stroke-dasharray:none;stroke-dashoffset:0;stroke-opacity:1"
         d="M -20.319867,269.63782 H 4.5509658 c 1.026054,0 1.852083,0.82603 1.852083,1.85209 v 29.10416 c 0,1.02606 -0.826029,1.85209 -1.852083,1.85209 H -20.319867 c -1.026054,0 -1.852083,-0.82603 -1.852083,-1.85209 v -29.10416 c 0,-1.02606 0.826029,-1.85209 1.852083,-1.85209 z"
         id="rect928-2" />
      <path
         style="opacity:1;fill:#eff0f3;fill-opacity:1;stroke:none;stroke-width:2;stroke-opacity:1"
         d="M 31 10 C 29.338002 10 28 11.33799 28 13 C 28 14.66201 29.338002 16 31 16 C 32.662002 16 34 14.66201 34 13 C 34 11.33799 32.662002 10 31 10 z M 21 14 C 19.337998 14 18 15.33799 18 17 C 18 18.66201 19.337998 20 21 20 C 22.661998 20 24 18.66201 24 17 C 24 15.33799 22.661998 14 21 14 z M 31 20 C 29.338002 20 28 21.33799 28 23 C 28 24.66201 29.338002 26 31 26 C 32.662002 26 34 24.66201 34 23 C 34 21.33799 32.662002 20 31 20 z M 21 24 C 19.337998 24 18 25.338066 18 27 C 18 28.66201 19.337998 30 21 30 C 22.661998 30 24 28.66201 24 27 C 24 25.338066 22.661998 24 21 24 z M 21 34 C 19.337998 34 18 35.33799 18 37 C 18 38.66201 19.337998 40 21 40 C 22.661998 40 24 38.66201 24 37 C 24 35.33799 22.661998 34 21 34 z M 56.994141 37.5 L 50.994141 39.5 L 50.994141 48.101562 C 50.244139 47.719453 49.396692 47.5 48.494141 47.5 C 45.447143 47.5 42.994141 49.95294 42.994141 53 C 42.994141 56.04694 45.447143 58.5 48.494141 58.5 C 51.541143 58.5 53.994141 56.04698 53.994141 53 C 53.994141 52.9289 53.987075 52.859362 53.984375 52.789062 L 53.994141 52.800781 L 53.994141 45.5 L 53.994141 43.5 L 56.994141 42.5 L 56.994141 37.5 z M 75.994141 39.5 L 61.994141 44.5 L 61.994141 48.5 L 61.994141 54.5 L 61.994141 65.5 L 62.03125 65.568359 C 60.004129 64.264159 57.593765 63.5 54.994141 63.5 C 47.792146 63.5 41.994141 69.29799 41.994141 76.5 C 41.994141 83.702 47.792146 89.5 54.994141 89.5 C 62.196141 89.5 67.994141 83.702 67.994141 76.5 L 67.994141 53.5 L 75.994141 50.5 L 75.994141 39.5 z M 86.003906 54.210938 L 80.003906 56.210938 L 80.003906 64.8125 C 79.253904 64.43039 78.406457 64.210938 77.503906 64.210938 C 74.456907 64.210938 72.003906 66.663878 72.003906 69.710938 C 72.003906 72.757877 74.456907 75.210938 77.503906 75.210938 C 80.550908 75.210938 83.003906 72.757917 83.003906 69.710938 C 83.003906 69.639838 82.996841 69.5703 82.994141 69.5 L 83.003906 69.511719 L 83.003906 62.210938 L 83.003906 60.210938 L 86.003906 59.210938 L 86.003906 54.210938 z M 107 88 C 105.33801 88 104 89.33799 104 91 C 104 92.66201 105.33801 94 107 94 C 108.662 94 110 92.66201 110 91 C 110 89.33799 108.662 88 107 88 z M 107 98 C 105.33801 98 104 99.33799 104 101 C 104 102.66201 105.33801 104 107 104 C 108.662 104 110 102.66201 110 101 C 110 99.33799 108.662 98 107 98 z M 97 102 C 95.337998 102 94 103.33807 94 105 C 94 106.66201 95.337998 108 97 108 C 98.662002 108 100 106.66201 100 105 C 100 103.33807 98.662002 102 97 102 z M 107 108 C 105.33801 108 104 109.33807 104 111 C 104 112.66201 105.33801 114 107 114 C 108.662 114 110 112.66201 110 111 C 110 109.33807 108.662 108 107 108 z M 97 112 C 95.337998 112 94 113.33799 94 115 C 94 116.66201 95.337998 118 97 118 C 98.662002 118 100 116.66201 100 115 C 100 113.33799 98.662002 112 97 112 z "
         transform="matrix(0.26458332,0,0,0.26458332,-24.817783,269.10866)"
         id="path946-5" />
      <g
         inkscape:label="Capa 1"
         id="layer1-62"
         transform="matrix(0.26458332,0,0,0.26458332,-24.819075,216.15231)">
        <g
           transform="matrix(2,0,0,2,-12,-500.64999)"
           id="g1658" />
        <g
           id="g5226"
           transform="translate(43.999999,22)" />
      </g>
    </g>
  </g>
</svg>
