<?xml version="1.0" encoding="UTF-8" standalone="no"?>
<!-- Created with Inkscape (http://www.inkscape.org/) -->

<svg
   xmlns:dc="http://purl.org/dc/elements/1.1/"
   xmlns:cc="http://creativecommons.org/ns#"
   xmlns:rdf="http://www.w3.org/1999/02/22-rdf-syntax-ns#"
   xmlns:svg="http://www.w3.org/2000/svg"
   xmlns="http://www.w3.org/2000/svg"
   xmlns:sodipodi="http://sodipodi.sourceforge.net/DTD/sodipodi-0.dtd"
   xmlns:inkscape="http://www.inkscape.org/namespaces/inkscape"
   width="128"
   height="128"
   viewBox="0 0 33.866665 33.866665"
   version="1.1"
   id="svg1399"
   inkscape:version="0.92.4 5da689c313, 2019-01-14"
   sodipodi:docname="text-x-generic.svg">
  <defs
     id="defs1393">
    <style
       type="text/css"
       id="current-color-scheme">
      .ColorScheme-Text {
        color:#122036;
      }
      </style>
    <style
       id="current-color-scheme-5"
       type="text/css">
      .ColorScheme-Text {
        color:#122036;
      }
      </style>
    <style
       id="current-color-scheme-2"
       type="text/css">
      .ColorScheme-Text {
        color:#122036;
      }
      </style>
    <style
       id="current-color-scheme-1"
       type="text/css">
      .ColorScheme-Text {
        color:#122036;
      }
      </style>
    <style
       type="text/css"
       id="current-color-scheme-10">
      .ColorScheme-Text {
        color:#122036;
      }
      </style>
    <style
       id="current-color-scheme-0"
       type="text/css">
      .ColorScheme-Text {
        color:#122036;
      }
      </style>
    <style
       id="current-color-scheme-26"
       type="text/css">
      .ColorScheme-Text {
        color:#122036;
      }
      </style>
    <style
       type="text/css"
       id="current-color-scheme-27">
      .ColorScheme-Text {
        color:#122036;
      }
      </style>
    <style
       type="text/css"
       id="current-color-scheme-7">
      .ColorScheme-Text {
        color:#122036;
      }
      </style>
    <style
       type="text/css"
       id="current-color-scheme-5-09">
      .ColorScheme-Text {
        color:#122036;
      }
      </style>
    <style
       type="text/css"
       id="current-color-scheme-0-3">
      .ColorScheme-Text {
        color:#122036;
      }
      </style>
    <style
       type="text/css"
       id="current-color-scheme-7-9">
      .ColorScheme-Text {
        color:#122036;
      }
      </style>
    <style
       type="text/css"
       id="current-color-scheme-5-3">
      .ColorScheme-Text {
        color:#122036;
      }
      </style>
    <style
       type="text/css"
       id="current-color-scheme-79">
      .ColorScheme-Text {
        color:#122036;
      }
      </style>
    <style
       type="text/css"
       id="current-color-scheme-7-2">
      .ColorScheme-Text {
        color:#122036;
      }
      </style>
    <style
       type="text/css"
       id="current-color-scheme-5-0">
      .ColorScheme-Text {
        color:#122036;
      }
      </style>
  </defs>
  <sodipodi:namedview
     id="base"
     pagecolor="#ffffff"
     bordercolor="#666666"
     borderopacity="1.0"
     inkscape:pageopacity="0.0"
     inkscape:pageshadow="2"
     inkscape:zoom="1.979899"
     inkscape:cx="33.958992"
     inkscape:cy="60.043527"
     inkscape:document-units="px"
     inkscape:current-layer="layer1"
     showgrid="true"
     inkscape:showpageshadow="false"
     units="px"
     inkscape:window-width="1920"
     inkscape:window-height="1049"
     inkscape:window-x="0"
     inkscape:window-y="0"
     inkscape:window-maximized="1">
    <inkscape:grid
       type="xygrid"
       id="grid7930" />
  </sodipodi:namedview>
  <metadata
     id="metadata1396">
    <rdf:RDF>
      <cc:Work
         rdf:about="">
        <dc:format>image/svg+xml</dc:format>
        <dc:type
           rdf:resource="http://purl.org/dc/dcmitype/StillImage" />
        <dc:title></dc:title>
      </cc:Work>
    </rdf:RDF>
  </metadata>
  <g
     inkscape:label="Capa 1"
     inkscape:groupmode="layer"
     id="layer1"
     transform="translate(0,-263.13338)">
    <g
       id="g7928"
       transform="translate(21.009193,-4.8727975)">
      <path
         id="rect928"
         d="M -16.511276,268.27076 H 8.3595564 c 1.172633,0 2.1166656,0.94403 2.1166656,2.11667 v 29.10416 c 0,1.17264 -0.9440326,2.11667 -2.1166656,2.11667 H -16.511276 c -1.172633,0 -2.116667,-0.94403 -2.116667,-2.11667 v -29.10416 c 0,-1.17264 0.944034,-2.11667 2.116667,-2.11667 z"
         style="opacity:1;vector-effect:none;fill:#a5b8cd;fill-opacity:1;stroke:none;stroke-width:0.60079932;stroke-linecap:round;stroke-linejoin:round;stroke-miterlimit:4;stroke-dasharray:none;stroke-dashoffset:0;stroke-opacity:1"
         inkscape:connector-curvature="0" />
      <path
         style="opacity:1;vector-effect:none;fill:#f1f1f1;fill-opacity:1;stroke:none;stroke-width:2.27073765;stroke-linecap:round;stroke-linejoin:round;stroke-miterlimit:4;stroke-dasharray:none;stroke-dashoffset:0;stroke-opacity:1"
         d="M 17 2 C 13.122 2 10 5.1219778 10 9 L 10 119 C 10 122.87802 13.122 126 17 126 L 111 126 C 114.878 126 118 122.87802 118 119 L 118 9 C 118 5.1219778 114.878 2 111 2 L 17 2 z M 24 18 L 40 18 L 40 21 L 24 21 L 24 18 z M 44 18 L 50 18 L 50 21 L 44 21 L 44 18 z M 54 18 L 62 18 L 62 21 L 54 21 L 54 18 z M 66 18 L 76 18 L 84 18 L 84 21 L 76 21 L 66 21 L 66 18 z M 88 18 L 104 18 L 104 21 L 88 21 L 88 18 z M 24 24 L 32 24 L 32 27 L 24 27 L 24 24 z M 36 24 L 52 24 L 52 27 L 36 27 L 36 24 z M 56 24 L 58 24 L 66 24 L 70 24 L 74 24 L 92 24 L 92 27 L 74 27 L 70 27 L 66 27 L 58 27 L 56 27 L 56 24 z M 96 24 L 104 24 L 104 27 L 96 27 L 96 24 z M 24 30 L 30 30 L 30 33 L 24 33 L 24 30 z M 34 30 L 42 30 L 42 33 L 34 33 L 34 30 z M 46 30 L 62 30 L 62 33 L 46 33 L 46 30 z M 66 30 L 70 30 L 76 30 L 78 30 L 78 33 L 76 33 L 70 33 L 66 33 L 66 30 z M 82 30 L 104 30 L 104 33 L 82 33 L 82 30 z M 24 36 L 46 36 L 46 39 L 24 39 L 24 36 z M 50 36 L 54 36 L 58 36 L 62 36 L 72 36 L 76 36 L 92 36 L 92 39 L 76 39 L 72 39 L 62 39 L 58 39 L 54 39 L 50 39 L 50 36 z M 96 36 L 104 36 L 104 39 L 96 39 L 96 36 z M 24 42 L 32 42 L 32 45 L 24 45 L 24 42 z M 36 42 L 52 42 L 56 42 L 66 42 L 70 42 L 74 42 L 78 42 L 78 45 L 74 45 L 70 45 L 66 45 L 56 45 L 52 45 L 36 45 L 36 42 z M 82 42 L 104 42 L 104 45 L 82 45 L 82 42 z M 24 48 L 46 48 L 46 51 L 24 51 L 24 48 z M 50 48 L 52 48 L 58 48 L 62 48 L 62 51 L 58 51 L 52 51 L 50 51 L 50 48 z M 66 48 L 82 48 L 82 51 L 66 51 L 66 48 z M 86 48 L 94 48 L 94 51 L 86 51 L 86 48 z M 98 48 L 104 48 L 104 51 L 98 51 L 98 48 z M 24 54 L 32 54 L 32 57 L 24 57 L 24 54 z M 36 54 L 54 54 L 58 54 L 62 54 L 70 54 L 72 54 L 72 57 L 70 57 L 62 57 L 58 57 L 54 57 L 36 57 L 36 54 z M 76 54 L 92 54 L 92 57 L 76 57 L 76 54 z M 96 54 L 104 54 L 104 57 L 96 57 L 96 54 z M 24 60 L 40 60 L 40 63 L 24 63 L 24 60 z M 44 60 L 52 60 L 62 60 L 62 63 L 52 63 L 44 63 L 44 60 z M 66 60 L 74 60 L 74 63 L 66 63 L 66 60 z M 78 60 L 84 60 L 84 63 L 78 63 L 78 60 z M 88 60 L 104 60 L 104 63 L 88 63 L 88 60 z M 24 66 L 46 66 L 46 69 L 24 69 L 24 66 z M 50 66 L 52 66 L 58 66 L 62 66 L 62 69 L 58 69 L 52 69 L 50 69 L 50 66 z M 66 66 L 82 66 L 82 69 L 66 69 L 66 66 z M 86 66 L 94 66 L 94 69 L 86 69 L 86 66 z M 98 66 L 104 66 L 104 69 L 98 69 L 98 66 z M 24 72 L 32 72 L 32 75 L 24 75 L 24 72 z M 36 72 L 54 72 L 58 72 L 62 72 L 70 72 L 72 72 L 72 75 L 70 75 L 62 75 L 58 75 L 54 75 L 36 75 L 36 72 z M 76 72 L 92 72 L 92 75 L 76 75 L 76 72 z M 96 72 L 104 72 L 104 75 L 96 75 L 96 72 z M 24 78 L 40 78 L 40 81 L 24 81 L 24 78 z M 44 78 L 52 78 L 62 78 L 62 81 L 52 81 L 44 81 L 44 78 z M 66 78 L 74 78 L 74 81 L 66 81 L 66 78 z M 78 78 L 84 78 L 84 81 L 78 81 L 78 78 z M 88 78 L 104 78 L 104 81 L 88 81 L 88 78 z M 24 84 L 32 84 L 32 87 L 24 87 L 24 84 z M 36 84 L 52 84 L 52 87 L 36 87 L 36 84 z M 56 84 L 58 84 L 66 84 L 70 84 L 74 84 L 92 84 L 92 87 L 74 87 L 70 87 L 66 87 L 58 87 L 56 87 L 56 84 z M 96 84 L 104 84 L 104 87 L 96 87 L 96 84 z M 24 90 L 30 90 L 30 93 L 24 93 L 24 90 z M 34 90 L 42 90 L 42 93 L 34 93 L 34 90 z M 46 90 L 62 90 L 62 93 L 46 93 L 46 90 z M 66 90 L 70 90 L 76 90 L 78 90 L 78 93 L 76 93 L 70 93 L 66 93 L 66 90 z M 82 90 L 104 90 L 104 93 L 82 93 L 82 90 z M 24 96 L 40 96 L 40 99 L 24 99 L 24 96 z M 44 96 L 50 96 L 50 99 L 44 99 L 44 96 z M 54 96 L 62 96 L 62 99 L 54 99 L 54 96 z M 66 96 L 76 96 L 84 96 L 84 99 L 76 99 L 66 99 L 66 96 z M 88 96 L 104 96 L 104 99 L 88 99 L 88 96 z M 24 102 L 32 102 L 32 105 L 24 105 L 24 102 z M 36 102 L 52 102 L 52 105 L 36 105 L 36 102 z M 56 102 L 58 102 L 66 102 L 70 102 L 74 102 L 92 102 L 92 105 L 74 105 L 70 105 L 66 105 L 58 105 L 56 105 L 56 102 z M 96 102 L 104 102 L 104 105 L 96 105 L 96 102 z M 24 108 L 30 108 L 30 111 L 24 111 L 24 108 z M 34 108 L 42 108 L 42 111 L 34 111 L 34 108 z M 46 108 L 62 108 L 62 111 L 46 111 L 46 108 z M 66 108 L 70 108 L 76 108 L 78 108 L 78 111 L 76 111 L 70 111 L 66 111 L 66 108 z M 82 108 L 104 108 L 104 111 L 82 111 L 82 108 z "
         transform="matrix(0.26458332,0,0,0.26458332,-21.009193,268.00618)"
         id="rect928-2" />
      <g
         inkscape:label="Capa 1"
         id="layer1-5"
         transform="matrix(0.52916664,0,0,0.52916664,-21.009193,135.37056)">
        <g
           id="g1769"
           transform="translate(38,-6)" />
      </g>
    </g>
  </g>
</svg>
