<?xml version="1.0" encoding="UTF-8" standalone="no"?>
<!-- Created with Inkscape (http://www.inkscape.org/) -->

<svg
   xmlns:dc="http://purl.org/dc/elements/1.1/"
   xmlns:cc="http://creativecommons.org/ns#"
   xmlns:rdf="http://www.w3.org/1999/02/22-rdf-syntax-ns#"
   xmlns:svg="http://www.w3.org/2000/svg"
   xmlns="http://www.w3.org/2000/svg"
   xmlns:sodipodi="http://sodipodi.sourceforge.net/DTD/sodipodi-0.dtd"
   xmlns:inkscape="http://www.inkscape.org/namespaces/inkscape"
   width="128"
   height="128"
   viewBox="0 0 33.866665 33.866665"
   version="1.1"
   id="svg1399"
   inkscape:version="0.92.4 5da689c313, 2019-01-14"
   sodipodi:docname="video-x-generic.svg">
  <defs
     id="defs1393" />
  <sodipodi:namedview
     id="base"
     pagecolor="#ffffff"
     bordercolor="#666666"
     borderopacity="1.0"
     inkscape:pageopacity="0.0"
     inkscape:pageshadow="2"
     inkscape:zoom="3.959798"
     inkscape:cx="5.5018201"
     inkscape:cy="29.178175"
     inkscape:document-units="px"
     inkscape:current-layer="layer1"
     showgrid="false"
     inkscape:showpageshadow="false"
     units="px"
     inkscape:window-width="1920"
     inkscape:window-height="1049"
     inkscape:window-x="0"
     inkscape:window-y="0"
     inkscape:window-maximized="1" />
  <metadata
     id="metadata1396">
    <rdf:RDF>
      <cc:Work
         rdf:about="">
        <dc:format>image/svg+xml</dc:format>
        <dc:type
           rdf:resource="http://purl.org/dc/dcmitype/StillImage" />
        <dc:title></dc:title>
      </cc:Work>
    </rdf:RDF>
  </metadata>
  <g
     inkscape:label="Capa 1"
     inkscape:groupmode="layer"
     id="layer1"
     transform="translate(0,-263.13338)">
    <g
       id="g5851"
       transform="translate(17.50128,-7.4452675)">
      <path
         id="rect928"
         d="m -13.003364,270.84323 h 24.870833 c 1.172633,0 2.116666,0.94403 2.116666,2.11667 v 29.10416 c 0,1.17264 -0.944033,2.11667 -2.116666,2.11667 h -24.870833 c -1.172633,0 -2.116666,-0.94403 -2.116666,-2.11667 V 272.9599 c 0,-1.17264 0.944033,-2.11667 2.116666,-2.11667 z"
         style="opacity:1;vector-effect:none;fill:#36404d;fill-opacity:1;stroke:none;stroke-width:0.60079932;stroke-linecap:round;stroke-linejoin:round;stroke-miterlimit:4;stroke-dasharray:none;stroke-dashoffset:0;stroke-opacity:1"
         inkscape:connector-curvature="0" />
      <path
         id="rect928-2"
         d="m -13.003364,271.10781 h 24.870833 c 1.026054,0 1.852083,0.82603 1.852083,1.85209 v 29.10416 c 0,1.02606 -0.826029,1.85209 -1.852083,1.85209 h -24.870833 c -1.026054,0 -1.852083,-0.82603 -1.852083,-1.85209 V 272.9599 c 0,-1.02606 0.826029,-1.85209 1.852083,-1.85209 z"
         style="opacity:1;vector-effect:none;fill:#4b6477;fill-opacity:1;stroke:none;stroke-width:0.60079932;stroke-linecap:round;stroke-linejoin:round;stroke-miterlimit:4;stroke-dasharray:none;stroke-dashoffset:0;stroke-opacity:1"
         inkscape:connector-curvature="0" />
      <path
         style="opacity:1;vector-effect:none;fill:#44acff;fill-opacity:1;stroke:none;stroke-width:0.67347902;stroke-linecap:round;stroke-linejoin:round;stroke-miterlimit:4;stroke-dasharray:none;stroke-dashoffset:0;stroke-opacity:1;paint-order:normal"
         d="M -7.4471136,274.28278 H 6.3112189 c 0.8794749,0 1.5874999,0.70802 1.5874999,1.5875 v 23.28335 c 0,0.87947 -0.708025,1.5875 -1.5874999,1.5875 H -7.4471136 c -0.879475,0 -1.5875,-0.70803 -1.5875,-1.5875 v -23.28335 c 0,-0.87948 0.708025,-1.5875 1.5875,-1.5875 z"
         id="rect5281" />
      <path
         id="rect5338"
         d="m -12.209614,274.81198 c -0.29316,0 -0.529166,0.236 -0.529166,0.52916 v 2.64584 c 0,0.29316 0.236006,0.52916 0.529166,0.52916 h 1.058334 c 0.293162,0 0.529166,-0.236 0.529166,-0.52916 v -2.64584 c 0,-0.29316 -0.236004,-0.52916 -0.529166,-0.52916 z m 22.224999,0 c -0.2931602,0 -0.5291662,0.236 -0.5291662,0.52916 v 2.64584 c 0,0.29316 0.236006,0.52916 0.5291662,0.52916 h 1.058334 c 0.293161,0 0.529166,-0.236 0.529166,-0.52916 v -2.64584 c 0,-0.29316 -0.236005,-0.52916 -0.529166,-0.52916 z m -22.224999,5.29166 c -0.29316,0 -0.529166,0.236 -0.529166,0.52916 v 2.64584 c 0,0.29316 0.236006,0.52916 0.529166,0.52916 h 1.058334 c 0.293162,0 0.529166,-0.236 0.529166,-0.52916 v -2.64584 c 0,-0.29316 -0.236004,-0.52916 -0.529166,-0.52916 z m 22.224999,0 c -0.2931602,0 -0.5291662,0.236 -0.5291662,0.52916 v 2.64584 c 0,0.29316 0.236006,0.52916 0.5291662,0.52916 h 1.058334 c 0.293161,0 0.529166,-0.236 0.529166,-0.52916 v -2.64584 c 0,-0.29316 -0.236005,-0.52916 -0.529166,-0.52916 z m -22.224999,5.29166 c -0.29316,0 -0.529166,0.23602 -0.529166,0.52918 v 2.64582 c 0,0.29318 0.236006,0.52918 0.529166,0.52918 h 1.058334 c 0.293162,0 0.529166,-0.236 0.529166,-0.52918 v -2.64582 c 0,-0.29316 -0.236004,-0.52918 -0.529166,-0.52918 z m 22.224999,0 c -0.2931602,0 -0.5291662,0.23602 -0.5291662,0.52918 v 2.64582 c 0,0.29318 0.236006,0.52918 0.5291662,0.52918 h 1.058334 c 0.293161,0 0.529166,-0.236 0.529166,-0.52918 v -2.64582 c 0,-0.29316 -0.236005,-0.52918 -0.529166,-0.52918 z m -22.224999,5.29168 c -0.29316,0 -0.529166,0.236 -0.529166,0.52916 v 2.64584 c 0,0.29316 0.236006,0.52916 0.529166,0.52916 h 1.058334 c 0.293162,0 0.529166,-0.236 0.529166,-0.52916 v -2.64584 c 0,-0.29316 -0.236004,-0.52916 -0.529166,-0.52916 z m 22.224999,0 c -0.2931602,0 -0.5291662,0.236 -0.5291662,0.52916 v 2.64584 c 0,0.29316 0.236006,0.52916 0.5291662,0.52916 h 1.058334 c 0.293161,0 0.529166,-0.236 0.529166,-0.52916 v -2.64584 c 0,-0.29316 -0.236005,-0.52916 -0.529166,-0.52916 z m -22.224999,5.29166 c -0.29316,0 -0.529166,0.236 -0.529166,0.52916 v 2.64584 c 0,0.29316 0.236006,0.52916 0.529166,0.52916 h 1.058334 c 0.293162,0 0.529166,-0.236 0.529166,-0.52916 v -2.64584 c 0,-0.29316 -0.236004,-0.52916 -0.529166,-0.52916 z m 22.224999,0 c -0.2931602,0 -0.5291662,0.236 -0.5291662,0.52916 v 2.64584 c 0,0.29316 0.236006,0.52916 0.5291662,0.52916 h 1.058334 c 0.293161,0 0.529166,-0.236 0.529166,-0.52916 v -2.64584 c 0,-0.29316 -0.236005,-0.52916 -0.529166,-0.52916 z"
         style="opacity:1;vector-effect:none;fill:#e1ebf2;fill-opacity:1;stroke:none;stroke-width:1.05833328;stroke-linecap:round;stroke-linejoin:round;stroke-miterlimit:4;stroke-dasharray:none;stroke-dashoffset:0;stroke-opacity:1;paint-order:normal"
         inkscape:connector-curvature="0" />
      <path
         sodipodi:nodetypes="ccccccccc"
         inkscape:connector-curvature="0"
         id="path5463"
         d="m -4.2817492,281.69252 c -0.287759,0.006 -0.518557,0.23954 -0.519531,0.52734 v 10.58594 c 0.0035,0.41932 0.470113,0.66818 0.820312,0.4375 l 7.937498,-5.28906 c 0.316369,-0.20924 0.316369,-0.67358 0,-0.88282 l -7.937498,-5.28906 c -0.08887,-0.0596 -0.193746,-0.091 -0.300781,-0.0898 z"
         style="color:#000000;font-style:normal;font-variant:normal;font-weight:normal;font-stretch:normal;font-size:medium;line-height:normal;font-family:sans-serif;font-variant-ligatures:normal;font-variant-position:normal;font-variant-caps:normal;font-variant-numeric:normal;font-variant-alternates:normal;font-feature-settings:normal;text-indent:0;text-align:start;text-decoration:none;text-decoration-line:none;text-decoration-style:solid;text-decoration-color:#000000;letter-spacing:normal;word-spacing:normal;text-transform:none;writing-mode:lr-tb;direction:ltr;text-orientation:mixed;dominant-baseline:auto;baseline-shift:baseline;text-anchor:start;white-space:normal;shape-padding:0;clip-rule:nonzero;display:inline;overflow:visible;visibility:visible;opacity:1;isolation:auto;mix-blend-mode:normal;color-interpolation:sRGB;color-interpolation-filters:linearRGB;solid-color:#000000;solid-opacity:1;vector-effect:none;fill:#e1ebf2;fill-opacity:1;fill-rule:nonzero;stroke:none;stroke-width:1.05833328;stroke-linecap:round;stroke-linejoin:round;stroke-miterlimit:4;stroke-dasharray:none;stroke-dashoffset:0;stroke-opacity:1;color-rendering:auto;image-rendering:auto;shape-rendering:auto;text-rendering:auto;enable-background:accumulate" />
    </g>
  </g>
</svg>
