<?xml version="1.0" encoding="UTF-8" standalone="no"?>
<!-- Created with Inkscape (http://www.inkscape.org/) -->

<svg
   xmlns:dc="http://purl.org/dc/elements/1.1/"
   xmlns:cc="http://creativecommons.org/ns#"
   xmlns:rdf="http://www.w3.org/1999/02/22-rdf-syntax-ns#"
   xmlns:svg="http://www.w3.org/2000/svg"
   xmlns="http://www.w3.org/2000/svg"
   xmlns:sodipodi="http://sodipodi.sourceforge.net/DTD/sodipodi-0.dtd"
   xmlns:inkscape="http://www.inkscape.org/namespaces/inkscape"
   width="128"
   height="128"
   viewBox="0 0 33.866665 33.866665"
   version="1.1"
   id="svg1399"
   inkscape:version="0.92.4 5da689c313, 2019-01-14"
   sodipodi:docname="video-x-msvideo.svg">
  <defs
     id="defs1393">
    <style
       id="current-color-scheme"
       type="text/css">
      .ColorScheme-Text {
        color:#122036;
      }
      </style>
    <style
       id="current-color-scheme-7"
       type="text/css">
      .ColorScheme-Text {
        color:#122036;
      }
      </style>
    <style
       id="current-color-scheme-5"
       type="text/css">
      .ColorScheme-Text {
        color:#122036;
      }
      </style>
    <style
       id="current-color-scheme-0"
       type="text/css">
      .ColorScheme-Text {
        color:#122036;
      }
      </style>
    <style
       id="current-color-scheme-7-9"
       type="text/css">
      .ColorScheme-Text {
        color:#122036;
      }
      </style>
    <style
       id="current-color-scheme-5-3"
       type="text/css">
      .ColorScheme-Text {
        color:#122036;
      }
      </style>
    <style
       id="current-color-scheme-79"
       type="text/css">
      .ColorScheme-Text {
        color:#122036;
      }
      </style>
    <style
       id="current-color-scheme-7-2"
       type="text/css">
      .ColorScheme-Text {
        color:#122036;
      }
      </style>
    <style
       id="current-color-scheme-5-0"
       type="text/css">
      .ColorScheme-Text {
        color:#122036;
      }
      </style>
  </defs>
  <sodipodi:namedview
     id="base"
     pagecolor="#ffffff"
     bordercolor="#666666"
     borderopacity="1.0"
     inkscape:pageopacity="0.0"
     inkscape:pageshadow="2"
     inkscape:zoom="5.6"
     inkscape:cx="9.6039791"
     inkscape:cy="76.040621"
     inkscape:document-units="px"
     inkscape:current-layer="layer1"
     showgrid="false"
     inkscape:showpageshadow="false"
     units="px"
     inkscape:window-width="1920"
     inkscape:window-height="1049"
     inkscape:window-x="0"
     inkscape:window-y="0"
     inkscape:window-maximized="1" />
  <metadata
     id="metadata1396">
    <rdf:RDF>
      <cc:Work
         rdf:about="">
        <dc:format>image/svg+xml</dc:format>
        <dc:type
           rdf:resource="http://purl.org/dc/dcmitype/StillImage" />
        <dc:title />
      </cc:Work>
    </rdf:RDF>
  </metadata>
  <g
     inkscape:label="Capa 1"
     inkscape:groupmode="layer"
     id="layer1"
     transform="translate(0,-263.13338)">
    <g
       id="g7259"
       transform="translate(20.30761,-4.9062075)">
      <path
         id="rect928"
         d="M -15.809694,268.30417 H 9.0611389 c 1.1726331,0 2.1166661,0.94403 2.1166661,2.11667 V 299.525 c 0,1.17264 -0.944033,2.11667 -2.1166661,2.11667 H -15.809694 c -1.172633,0 -2.116666,-0.94403 -2.116666,-2.11667 v -29.10416 c 0,-1.17264 0.944033,-2.11667 2.116666,-2.11667 z"
         style="opacity:1;vector-effect:none;fill:#36404d;fill-opacity:1;stroke:none;stroke-width:0.60079932;stroke-linecap:round;stroke-linejoin:round;stroke-miterlimit:4;stroke-dasharray:none;stroke-dashoffset:0;stroke-opacity:1"
         inkscape:connector-curvature="0" />
      <path
         id="rect928-2"
         d="M -15.809694,268.56875 H 9.0611389 c 1.0260541,0 1.8520831,0.82603 1.8520831,1.85209 V 299.525 c 0,1.02606 -0.826029,1.85209 -1.8520831,1.85209 H -15.809694 c -1.026054,0 -1.852083,-0.82603 -1.852083,-1.85209 v -29.10416 c 0,-1.02606 0.826029,-1.85209 1.852083,-1.85209 z"
         style="opacity:1;vector-effect:none;fill:#4b6477;fill-opacity:1;stroke:none;stroke-width:0.60079932;stroke-linecap:round;stroke-linejoin:round;stroke-miterlimit:4;stroke-dasharray:none;stroke-dashoffset:0;stroke-opacity:1"
         inkscape:connector-curvature="0" />
      <path
         style="opacity:1;vector-effect:none;fill:#a3b7cc;fill-opacity:1;stroke:none;stroke-width:0.67347902;stroke-linecap:round;stroke-linejoin:round;stroke-miterlimit:4;stroke-dasharray:none;stroke-dashoffset:0;stroke-opacity:1;paint-order:normal"
         d="M -10.253444,271.74371 H 3.5048882 c 0.879475,0 1.5875,0.70803 1.5875,1.5875 v 23.28336 c 0,0.87947 -0.708025,1.5875 -1.5875,1.5875 H -10.253444 c -0.879475,0 -1.5875,-0.70803 -1.5875,-1.5875 v -23.28336 c 0,-0.87947 0.708025,-1.5875 1.5875,-1.5875 z"
         id="rect5281" />
      <path
         id="rect5338"
         d="m -15.015944,272.27292 c -0.29316,0 -0.529166,0.236 -0.529166,0.52916 v 2.64584 c 0,0.29316 0.236006,0.52916 0.529166,0.52916 h 1.058334 c 0.293162,0 0.529166,-0.236 0.529166,-0.52916 v -2.64584 c 0,-0.29316 -0.236004,-0.52916 -0.529166,-0.52916 z m 22.2249989,0 c -0.29316,0 -0.529166,0.236 -0.529166,0.52916 v 2.64584 c 0,0.29316 0.236006,0.52916 0.529166,0.52916 h 1.058334 c 0.293161,0 0.529166,-0.236 0.529166,-0.52916 v -2.64584 c 0,-0.29316 -0.236005,-0.52916 -0.529166,-0.52916 z m -22.2249989,5.29166 c -0.29316,0 -0.529166,0.236 -0.529166,0.52916 v 2.64584 c 0,0.29316 0.236006,0.52916 0.529166,0.52916 h 1.058334 c 0.293162,0 0.529166,-0.236 0.529166,-0.52916 v -2.64584 c 0,-0.29316 -0.236004,-0.52916 -0.529166,-0.52916 z m 22.2249989,0 c -0.29316,0 -0.529166,0.236 -0.529166,0.52916 v 2.64584 c 0,0.29316 0.236006,0.52916 0.529166,0.52916 h 1.058334 c 0.293161,0 0.529166,-0.236 0.529166,-0.52916 v -2.64584 c 0,-0.29316 -0.236005,-0.52916 -0.529166,-0.52916 z m -22.2249989,5.29166 c -0.29316,0 -0.529166,0.23602 -0.529166,0.52918 v 2.64582 c 0,0.29318 0.236006,0.52918 0.529166,0.52918 h 1.058334 c 0.293162,0 0.529166,-0.236 0.529166,-0.52918 v -2.64582 c 0,-0.29316 -0.236004,-0.52918 -0.529166,-0.52918 z m 22.2249989,0 c -0.29316,0 -0.529166,0.23602 -0.529166,0.52918 v 2.64582 c 0,0.29318 0.236006,0.52918 0.529166,0.52918 h 1.058334 c 0.293161,0 0.529166,-0.236 0.529166,-0.52918 v -2.64582 c 0,-0.29316 -0.236005,-0.52918 -0.529166,-0.52918 z m -22.2249989,5.29168 c -0.29316,0 -0.529166,0.236 -0.529166,0.52916 v 2.64584 c 0,0.29316 0.236006,0.52916 0.529166,0.52916 h 1.058334 c 0.293162,0 0.529166,-0.236 0.529166,-0.52916 v -2.64584 c 0,-0.29316 -0.236004,-0.52916 -0.529166,-0.52916 z m 22.2249989,0 c -0.29316,0 -0.529166,0.236 -0.529166,0.52916 v 2.64584 c 0,0.29316 0.236006,0.52916 0.529166,0.52916 h 1.058334 c 0.293161,0 0.529166,-0.236 0.529166,-0.52916 v -2.64584 c 0,-0.29316 -0.236005,-0.52916 -0.529166,-0.52916 z m -22.2249989,5.29166 c -0.29316,0 -0.529166,0.236 -0.529166,0.52916 v 2.64584 c 0,0.29316 0.236006,0.52916 0.529166,0.52916 h 1.058334 c 0.293162,0 0.529166,-0.236 0.529166,-0.52916 v -2.64584 c 0,-0.29316 -0.236004,-0.52916 -0.529166,-0.52916 z m 22.2249989,0 c -0.29316,0 -0.529166,0.236 -0.529166,0.52916 v 2.64584 c 0,0.29316 0.236006,0.52916 0.529166,0.52916 h 1.058334 c 0.293161,0 0.529166,-0.236 0.529166,-0.52916 v -2.64584 c 0,-0.29316 -0.236005,-0.52916 -0.529166,-0.52916 z"
         style="opacity:1;vector-effect:none;fill:#e1ebf2;fill-opacity:1;stroke:none;stroke-width:1.05833328;stroke-linecap:round;stroke-linejoin:round;stroke-miterlimit:4;stroke-dasharray:none;stroke-dashoffset:0;stroke-opacity:1;paint-order:normal"
         inkscape:connector-curvature="0" />
      <path
         style="color:#000000;font-style:normal;font-variant:normal;font-weight:normal;font-stretch:normal;font-size:medium;line-height:normal;font-family:sans-serif;font-variant-ligatures:normal;font-variant-position:normal;font-variant-caps:normal;font-variant-numeric:normal;font-variant-alternates:normal;font-feature-settings:normal;text-indent:0;text-align:start;text-decoration:none;text-decoration-line:none;text-decoration-style:solid;text-decoration-color:#000000;letter-spacing:normal;word-spacing:normal;text-transform:none;writing-mode:lr-tb;direction:ltr;text-orientation:mixed;dominant-baseline:auto;baseline-shift:baseline;text-anchor:start;white-space:normal;shape-padding:0;clip-rule:nonzero;display:inline;overflow:visible;visibility:visible;opacity:1;isolation:auto;mix-blend-mode:normal;color-interpolation:sRGB;color-interpolation-filters:linearRGB;solid-color:#000000;solid-opacity:1;vector-effect:none;fill:#f7f9fb;fill-opacity:1;fill-rule:nonzero;stroke:none;stroke-width:4;stroke-linecap:round;stroke-linejoin:round;stroke-miterlimit:4;stroke-dasharray:none;stroke-dashoffset:0;stroke-opacity:1;color-rendering:auto;image-rendering:auto;shape-rendering:auto;text-rendering:auto;enable-background:accumulate"
         d="M 49.962891 42.005859 C 48.875298 42.028537 48.003681 42.910299 48 43.998047 L 48 84.007812 C 48.013228 85.592644 49.776023 86.533971 51.099609 85.662109 L 81.099609 65.671875 C 82.295335 64.881047 82.295335 63.124813 81.099609 62.333984 L 51.099609 42.345703 C 50.763723 42.120443 50.367432 42.001324 49.962891 42.005859 z M 72 90 L 72 98 L 80 98 L 80 90 L 72 90 z M 82 90 L 82 98 L 90 98 L 90 90 L 82 90 z M 72 100 L 72 108 L 80 108 L 80 100 L 72 100 z M 82 100 L 82 108 L 90 108 L 90 100 L 82 100 z "
         transform="matrix(0.26458332,0,0,0.26458332,-20.30761,268.03959)"
         id="path5463" />
    </g>
  </g>
</svg>
