<?xml version="1.0" encoding="UTF-8" standalone="no"?>
<svg
   xmlns:dc="http://purl.org/dc/elements/1.1/"
   xmlns:cc="http://creativecommons.org/ns#"
   xmlns:rdf="http://www.w3.org/1999/02/22-rdf-syntax-ns#"
   xmlns:svg="http://www.w3.org/2000/svg"
   xmlns="http://www.w3.org/2000/svg"
   xmlns:sodipodi="http://sodipodi.sourceforge.net/DTD/sodipodi-0.dtd"
   xmlns:inkscape="http://www.inkscape.org/namespaces/inkscape"
   height="22"
   viewBox="0 0 22 22"
   width="22"
   id="svg2"
   version="1.1"
   inkscape:version="0.92.3 (2405546, 2018-03-11)"
   sodipodi:docname="emblem-encrypted-unlocked.svg">
  <metadata
     id="metadata10">
    <rdf:RDF>
      <cc:Work
         rdf:about="">
        <dc:format>image/svg+xml</dc:format>
        <dc:type
           rdf:resource="http://purl.org/dc/dcmitype/StillImage" />
        <dc:title />
      </cc:Work>
    </rdf:RDF>
  </metadata>
  <sodipodi:namedview
     pagecolor="#ffffff"
     bordercolor="#666666"
     borderopacity="1"
     objecttolerance="10"
     gridtolerance="10"
     guidetolerance="10"
     inkscape:pageopacity="0"
     inkscape:pageshadow="2"
     inkscape:window-width="1874"
     inkscape:window-height="1141"
     id="namedview8"
     showgrid="true"
     inkscape:showpageshadow="false"
     inkscape:snap-bbox="true"
     inkscape:bbox-paths="true"
     inkscape:bbox-nodes="true"
     inkscape:snap-bbox-edge-midpoints="true"
     inkscape:snap-bbox-midpoints="true"
     inkscape:object-paths="true"
     inkscape:snap-intersection-paths="true"
     inkscape:object-nodes="true"
     inkscape:snap-smooth-nodes="false"
     inkscape:snap-midpoints="false"
     inkscape:zoom="22.627416"
     inkscape:cx="8.3160265"
     inkscape:cy="13.222426"
     inkscape:window-x="46"
     inkscape:window-y="30"
     inkscape:window-maximized="1"
     inkscape:current-layer="g2289">
    <inkscape:grid
       type="xygrid"
       id="grid5653" />
  </sodipodi:namedview>
  <defs
     id="defs2">
    <style
       type="text/css"
       id="current-color-scheme">
      .ColorScheme-Text {
        color:#122036;
      }
      </style>
    <style
       type="text/css"
       id="current-color-scheme-1">
      .ColorScheme-Text {
        color:#122036;
      }
      </style>
    <style
       id="current-color-scheme-10"
       type="text/css">
      .ColorScheme-Text {
        color:#122036;
      }
      </style>
    <style
       id="current-color-scheme-3"
       type="text/css">
      .ColorScheme-Text {
        color:#122036;
      }
      </style>
    <style
       type="text/css"
       id="current-color-scheme-53">
      .ColorScheme-Text {
        color:#122036;
      }
      </style>
    <style
       id="current-color-scheme-5"
       type="text/css">
      .ColorScheme-Text {
        color:#122036;
      }
      </style>
    <style
       id="current-color-scheme-2"
       type="text/css">
      .ColorScheme-Text {
        color:#122036;
      }
      </style>
    <style
       id="current-color-scheme-1-5"
       type="text/css">
      .ColorScheme-Text {
        color:#122036;
      }
      </style>
    <style
       type="text/css"
       id="current-color-scheme-10-6">
      .ColorScheme-Text {
        color:#122036;
      }
      </style>
    <style
       id="current-color-scheme-0"
       type="text/css">
      .ColorScheme-Text {
        color:#122036;
      }
      </style>
    <style
       id="current-color-scheme-26"
       type="text/css">
      .ColorScheme-Text {
        color:#122036;
      }
      </style>
    <style
       id="current-color-scheme-7"
       type="text/css">
      .ColorScheme-Text {
        color:#122036;
      }
      </style>
  </defs>
  <g
     transform="translate(-18,-287.64999)"
     id="layer1-60"
     inkscape:label="Capa 1">
    <g
       transform="matrix(0.6,0,0,0.6,9.4,122.46)"
       id="g2289">
      <path
         style="opacity:1;fill:#6e7cd4;fill-opacity:1;stroke:none;stroke-width:3.33333349;stroke-linecap:round;stroke-linejoin:round;stroke-miterlimit:4;stroke-dasharray:none;stroke-opacity:1"
         d="m 18,276.98331 29.333332,0 c 1.108,0 2,0.892 2,2 l 0,29.33334 c 0,1.108 -0.892,2 -2,2 l -29.333332,0 c -1.108,0 -2,-0.892 -2,-2 l 0,-29.33334 c 0,-1.108 0.892,-2 2,-2 z"
         id="rect5697" />
      <path
         inkscape:connector-curvature="0"
         style="opacity:1;fill:#93a0e6;fill-opacity:1;stroke:none;stroke-width:3.33333325;stroke-linecap:round;stroke-linejoin:round;stroke-miterlimit:4;stroke-dasharray:none;stroke-opacity:1;paint-order:fill markers stroke"
         d="m 17.666667,278.64998 h 30 v 30 h -30 z"
         id="rect1016" />
      <path
         style="opacity:1;fill:#ebecf4;fill-opacity:1;stroke:none;stroke-width:2;stroke-linecap:round;stroke-linejoin:round;stroke-miterlimit:4;stroke-dasharray:none;stroke-opacity:1"
         d="m 32.666667,283.64999 c -3.101556,0 -5.579805,2.14079 -6.331381,5 l 3.684896,0 c 0.588281,-0.93936 1.451814,-1.66667 2.646485,-1.66667 1.846666,0 3.333333,1.48667 3.333333,3.33334 l 0,1.66666 -5,0 -1.666667,0 -3.333333,0 c -0.923333,0 -1.666667,0.74334 -1.666667,1.66667 l 0,10 c 0,0.92333 0.743334,1.66667 1.666667,1.66667 l 10,0 0,-1.66667 1.666667,0 0,-1.66667 -1.666667,0 0,-1.66666 1.666667,0 0,-1.66667 1.666666,0 0,-1.66667 -1.666666,0 0,-1.66666 1.666666,0 0,1.66666 1.666667,0 0,-3.33333 c 0,-0.92333 -0.743333,-1.66667 -1.666667,-1.66667 l 0,-1.66666 c 0,-3.69334 -2.973333,-6.66667 -6.666666,-6.66667 z m 6.666666,15 0,1.66667 1.666667,0 0,-1.66667 z m 0,1.66667 -1.666666,0 0,1.66666 1.666666,0 z m 0,1.66666 0,1.66667 1.666667,0 0,-1.66667 z m 0,3.33334 0,-1.66667 -1.666666,0 0,1.66667 z m -6.666666,-11.66667 c 1.846666,0 3.333333,1.48667 3.333333,3.33333 0,1.23512 -0.673667,2.29842 -1.666667,2.87435 l 0,3.79232 -3.333333,0 0,-3.79232 c -0.992998,-0.57593 -1.666667,-1.63923 -1.666667,-2.87435 0,-1.84666 1.486668,-3.33333 3.333334,-3.33333 z"
         id="rect4165-5"
         inkscape:connector-curvature="0"
         sodipodi:nodetypes="sccsscccsssscccccccccccccccscssccccccccccccccccccccssccccss" />
    </g>
  </g>
</svg>
