<?xml version="1.0" encoding="UTF-8" standalone="no"?>
<!-- Created with Inkscape (http://www.inkscape.org/) -->

<svg
   xmlns:dc="http://purl.org/dc/elements/1.1/"
   xmlns:cc="http://creativecommons.org/ns#"
   xmlns:rdf="http://www.w3.org/1999/02/22-rdf-syntax-ns#"
   xmlns:svg="http://www.w3.org/2000/svg"
   xmlns="http://www.w3.org/2000/svg"
   xmlns:sodipodi="http://sodipodi.sourceforge.net/DTD/sodipodi-0.dtd"
   xmlns:inkscape="http://www.inkscape.org/namespaces/inkscape"
   width="48"
   height="48"
   viewBox="0 0 48 48"
   version="1.1"
   id="svg8"
   inkscape:version="0.92.4 5da689c313, 2019-01-14"
   sodipodi:docname="alt-mega.svg">
  <title
     id="title7895">Antu icon Theme</title>
  <defs
     id="defs2" />
  <sodipodi:namedview
     id="base"
     pagecolor="#ffffff"
     bordercolor="#666666"
     borderopacity="1.0"
     inkscape:pageopacity="0.0"
     inkscape:pageshadow="2"
     inkscape:zoom="16"
     inkscape:cx="-2.4424211"
     inkscape:cy="23.185672"
     inkscape:document-units="px"
     inkscape:current-layer="g4915"
     showgrid="true"
     units="px"
     inkscape:window-width="1920"
     inkscape:window-height="1049"
     inkscape:window-x="0"
     inkscape:window-y="0"
     inkscape:window-maximized="1"
     objecttolerance="10"
     gridtolerance="10"
     guidetolerance="10"
     inkscape:snap-bbox="true"
     inkscape:bbox-paths="true"
     inkscape:bbox-nodes="true"
     inkscape:snap-bbox-edge-midpoints="true"
     inkscape:snap-bbox-midpoints="true"
     inkscape:object-paths="true"
     inkscape:snap-intersection-paths="true">
    <inkscape:grid
       type="xygrid"
       id="grid7897"
       empspacing="4" />
  </sodipodi:namedview>
  <metadata
     id="metadata5">
    <rdf:RDF>
      <cc:Work
         rdf:about="">
        <dc:format>image/svg+xml</dc:format>
        <dc:type
           rdf:resource="http://purl.org/dc/dcmitype/StillImage" />
        <dc:title>Antu icon Theme</dc:title>
      </cc:Work>
    </rdf:RDF>
  </metadata>
  <g
     inkscape:label="Capa 1"
     inkscape:groupmode="layer"
     id="layer1"
     transform="translate(0,-266.64999)">
    <g
       id="g4915"
       transform="translate(38,11.99998)">
      <path
         id="path1233-2-0"
         d="m -35,256.65001 c -1.644706,0 -3,1.3553 -3,3 v 39 c 0,1.6447 1.355294,3 3,3 H 7 c 1.644705,0 3,-1.3553 3,-3 v -33 c 0,-1.6447 -1.355295,-3 -3,-3 h -21.998047 c -0.505981,0 -0.774153,-0.16677 -1.154297,-0.59766 -0.380145,-0.43089 -0.765928,-1.12884 -1.195312,-1.89257 -0.429386,-0.76373 -0.909713,-1.5975 -1.638672,-2.29297 -0.72896,-0.69549 -1.763671,-1.2168 -3.013672,-1.2168 z"
         style="color:#000000;font-style:normal;font-variant:normal;font-weight:normal;font-stretch:normal;font-size:medium;line-height:normal;font-family:sans-serif;font-variant-ligatures:normal;font-variant-position:normal;font-variant-caps:normal;font-variant-numeric:normal;font-variant-alternates:normal;font-feature-settings:normal;text-indent:0;text-align:start;text-decoration:none;text-decoration-line:none;text-decoration-style:solid;text-decoration-color:#000000;letter-spacing:normal;word-spacing:normal;text-transform:none;writing-mode:lr-tb;direction:ltr;text-orientation:mixed;dominant-baseline:auto;baseline-shift:baseline;text-anchor:start;white-space:normal;shape-padding:0;clip-rule:nonzero;display:inline;overflow:visible;visibility:visible;opacity:1;isolation:auto;mix-blend-mode:normal;color-interpolation:sRGB;color-interpolation-filters:linearRGB;solid-color:#000000;solid-opacity:1;vector-effect:none;fill:#b24444;fill-opacity:1;fill-rule:nonzero;stroke:none;stroke-width:1.99999988;stroke-linecap:round;stroke-linejoin:round;stroke-miterlimit:4;stroke-dasharray:none;stroke-dashoffset:0;stroke-opacity:1;color-rendering:auto;image-rendering:auto;shape-rendering:auto;text-rendering:auto;enable-background:accumulate"
         inkscape:connector-curvature="0" />
      <path
         sodipodi:nodetypes="sccssssssss"
         inkscape:connector-curvature="0"
         id="rect993-32-7"
         d="m -34.999999,257.65197 h 12.999997 c 4,0 3.746593,6 7,6 H 6.999997 c 1.108,0 2.000001,0.892 2.000001,1.99999 v 33 c 0,1.108 -0.892001,2.00001 -2.000001,2.00001 h -41.999996 c -1.108,0 -1.999999,-0.89201 -1.999999,-2.00001 v -39 c 0,-1.10799 0.891999,-1.99999 1.999999,-1.99999 z"
         style="opacity:1;vector-effect:none;fill:#fb6565;fill-opacity:1;stroke:none;stroke-width:1.99999988;stroke-linecap:round;stroke-linejoin:round;stroke-miterlimit:4;stroke-dasharray:none;stroke-dashoffset:0;stroke-opacity:1" />
      <path
         id="path1270-15-5"
         d="m -15,262.65001 c -1.12072,0 -2.04193,0.58128 -2.6543,1.27539 -0.61236,0.69411 -1.02356,1.49811 -1.4375,2.23437 -0.41394,0.73627 -0.82519,1.39861 -1.27539,1.82813 -0.45019,0.42952 -0.88281,0.66211 -1.63281,0.66211 h -13 c -1.64471,0 -3,1.3553 -3,3 v 27 c 0,1.6447 1.35529,3 3,3 H 7 c 1.64471,0 3,-1.3553 3,-3 v -33 c 0,-1.6447 -1.35529,-3 -3,-3 z"
         style="color:#000000;font-style:normal;font-variant:normal;font-weight:normal;font-stretch:normal;font-size:medium;line-height:normal;font-family:sans-serif;font-variant-ligatures:normal;font-variant-position:normal;font-variant-caps:normal;font-variant-numeric:normal;font-variant-alternates:normal;font-feature-settings:normal;text-indent:0;text-align:start;text-decoration:none;text-decoration-line:none;text-decoration-style:solid;text-decoration-color:#000000;letter-spacing:normal;word-spacing:normal;text-transform:none;writing-mode:lr-tb;direction:ltr;text-orientation:mixed;dominant-baseline:auto;baseline-shift:baseline;text-anchor:start;white-space:normal;shape-padding:0;clip-rule:nonzero;display:inline;overflow:visible;visibility:visible;opacity:1;isolation:auto;mix-blend-mode:normal;color-interpolation:sRGB;color-interpolation-filters:linearRGB;solid-color:#000000;solid-opacity:1;vector-effect:none;fill:#b24444;fill-opacity:1;fill-rule:nonzero;stroke:none;stroke-width:1.99999988;stroke-linecap:round;stroke-linejoin:round;stroke-miterlimit:4;stroke-dasharray:none;stroke-dashoffset:0;stroke-opacity:1;color-rendering:auto;image-rendering:auto;shape-rendering:auto;text-rendering:auto;enable-background:accumulate"
         inkscape:connector-curvature="0" />
      <path
         sodipodi:nodetypes="sccssssssss"
         inkscape:connector-curvature="0"
         id="rect993-6-99-9"
         d="m -35,269.65196 h 13 c 4,0 3.74659,-6 7,-6 H 7 c 1.108,0 2,0.89202 2,2 v 33 c 0,1.108 -0.892,2.00001 -2,2.00001 h -42 c -1.108,0 -2,-0.89201 -2,-2.00001 v -27 c 0,-1.10798 0.892,-2 2,-2 z"
         style="opacity:1;vector-effect:none;fill:#f7f7f7;fill-opacity:1;stroke:none;stroke-width:1.99999988;stroke-linecap:round;stroke-linejoin:round;stroke-miterlimit:4;stroke-dasharray:none;stroke-dashoffset:0;stroke-opacity:1" />
      <path
         inkscape:connector-curvature="0"
         style="opacity:1;fill:#b24444;fill-opacity:1;stroke:none;stroke-width:0.77151674;stroke-linecap:round;stroke-linejoin:round;stroke-miterlimit:4;stroke-dasharray:none;stroke-opacity:1"
         d="m -14,274.65001 c -5.54,0 -10,4.46 -10,10 0,5.53999 4.46,10 10,10 5.54,0 10,-4.46001 10,-10 0,-5.54 -4.46,-10 -10,-10 z"
         id="path863-9" />
      <path
         style="opacity:1;fill:#fb6565;fill-opacity:1;stroke:none;stroke-width:0.69436508;stroke-linecap:round;stroke-linejoin:round;stroke-miterlimit:4;stroke-dasharray:none;stroke-opacity:1"
         d="m -13.99999,275.65009 c -4.986,0 -9,4.014 -9,9 0,4.98599 4.014,9 9,9 4.986,0 9,-4.01401 9,-9 0,-4.986 -4.014,-9 -9,-9 z"
         id="path863" />
      <path
         style="opacity:1;fill:#f7f7f7;fill-opacity:1;stroke:none;stroke-width:0.69436508;stroke-linecap:round;stroke-linejoin:round;stroke-miterlimit:4;stroke-dasharray:none;stroke-opacity:1"
         d="m -20.000006,280.64992 3.000008,7e-5 3,3.00003 3,-3.00003 2.999992,-7e-5 v 9 l -2.999992,7e-5 -8e-6,-5.00007 -2,2 h -1 -1 l -2,-2 8e-6,5.00007 -3.000008,-7e-5 z"
         id="rect4505-0-9-6-6" />
    </g>
  </g>
</svg>
