<?xml version="1.0" encoding="UTF-8" standalone="no"?>
<!-- Created with Inkscape (http://www.inkscape.org/) -->

<svg
   xmlns:dc="http://purl.org/dc/elements/1.1/"
   xmlns:cc="http://creativecommons.org/ns#"
   xmlns:rdf="http://www.w3.org/1999/02/22-rdf-syntax-ns#"
   xmlns:svg="http://www.w3.org/2000/svg"
   xmlns="http://www.w3.org/2000/svg"
   xmlns:sodipodi="http://sodipodi.sourceforge.net/DTD/sodipodi-0.dtd"
   xmlns:inkscape="http://www.inkscape.org/namespaces/inkscape"
   width="48"
   height="48"
   viewBox="0 0 12.7 12.7"
   version="1.1"
   id="svg8"
   inkscape:version="0.92.3 (2405546, 2018-03-11)"
   sodipodi:docname="apple.svg">
  <defs
     id="defs2" />
  <sodipodi:namedview
     id="base"
     pagecolor="#ffffff"
     bordercolor="#666666"
     borderopacity="1.0"
     inkscape:pageopacity="0.0"
     inkscape:pageshadow="2"
     inkscape:zoom="15.839192"
     inkscape:cx="5.6604779"
     inkscape:cy="23.438386"
     inkscape:document-units="px"
     inkscape:current-layer="layer1"
     showgrid="true"
     units="px"
     inkscape:showpageshadow="false"
     inkscape:snap-bbox="true"
     inkscape:bbox-paths="true"
     inkscape:bbox-nodes="true"
     inkscape:snap-bbox-edge-midpoints="true"
     inkscape:snap-bbox-midpoints="true"
     inkscape:object-paths="true"
     inkscape:snap-intersection-paths="true"
     inkscape:window-width="1874"
     inkscape:window-height="1141"
     inkscape:window-x="46"
     inkscape:window-y="30"
     inkscape:window-maximized="1">
    <inkscape:grid
       type="xygrid"
       id="grid815" />
  </sodipodi:namedview>
  <metadata
     id="metadata5">
    <rdf:RDF>
      <cc:Work
         rdf:about="">
        <dc:format>image/svg+xml</dc:format>
        <dc:type
           rdf:resource="http://purl.org/dc/dcmitype/StillImage" />
        <dc:title></dc:title>
      </cc:Work>
    </rdf:RDF>
  </metadata>
  <g
     inkscape:label="Capa 1"
     inkscape:groupmode="layer"
     id="layer1"
     transform="translate(0,-284.29999)">
    <g
       id="g9100"
       transform="translate(5.4266834,0.570695)">
      <path
         style="opacity:1;fill:#a3b7cc;fill-opacity:1;stroke:none;stroke-width:0.07937501;stroke-miterlimit:4;stroke-dasharray:none;stroke-opacity:1"
         d="m 0.92331033,284.25847 h 1.25e-5 c 3.22473527,0 5.82082727,2.59609 5.82082727,5.82083 0,3.22473 -2.596092,5.82082 -5.82082727,5.82082 h -1.25e-5 c -3.22474163,0 -5.82082723,-2.59609 -5.82082723,-5.82082 0,-3.22474 2.5960856,-5.82083 5.82082723,-5.82083 z"
         id="rect4544-58"
         inkscape:connector-curvature="0" />
      <path
         style="opacity:1;fill:#ffffff;fill-opacity:1;stroke:none;stroke-width:0.07937501;stroke-miterlimit:4;stroke-dasharray:none;stroke-opacity:1"
         d="m 0.92331033,284.52304 h 6.1e-6 c 3.07816227,0 5.55624767,2.47809 5.55624767,5.55625 0,3.07816 -2.4780854,5.55625 -5.55624767,5.55625 h -6.1e-6 c -3.07816223,0 -5.55624783,-2.47809 -5.55624783,-5.55625 0,-3.07816 2.4780856,-5.55625 5.55624783,-5.55625 z"
         id="rect4544-5-6"
         inkscape:connector-curvature="0" />
      <path
         id="path5-2"
         d="m 2.192632,286.17119 c -0.3851805,0.0265 -0.8355013,0.27269 -1.09864,0.59325 -0.23877587,0.29122 -0.43589577,0.72303 -0.35915337,1.14257 0.42052087,0.0131 0.85532117,-0.23881 1.10794277,-0.56431 0.2355876,-0.30384 0.4147952,-0.73288 0.3498506,-1.17151 z m 0.1426262,1.68879 c -0.6490387,0 -0.9233032,0.30954 -1.37355787,0.30954 -0.4640394,0 -0.8168269,-0.30902 -1.3782119,-0.30902 -0.5513123,0 -1.13781153,0.33643 -1.50946913,0.91105 -0.00238,0.003 -0.00455,0.007 -0.00672,0.0109 h 5.371248 c 0.082558,-0.0703 0.1751145,-0.13386 0.277503,-0.19017 -0.3703241,-0.46368 -0.8904155,-0.73226 -1.3807943,-0.73226 z"
         style="clip-rule:evenodd;overflow:visible;fill:#bae0bd;fill-opacity:1;fill-rule:evenodd;stroke:#5e9c76;stroke-width:0.26458332;stroke-linecap:round;stroke-linejoin:round;stroke-miterlimit:4;stroke-dasharray:none;stroke-opacity:1"
         inkscape:connector-curvature="0" />
      <path
         sodipodi:nodetypes="ccccccc"
         inkscape:connector-curvature="0"
         style="clip-rule:evenodd;overflow:visible;fill:#ffeea3;fill-opacity:1;fill-rule:evenodd;stroke:#ba9b48;stroke-width:0.26458332;stroke-linecap:round;stroke-linejoin:round;stroke-miterlimit:4;stroke-dasharray:none;stroke-opacity:1"
         id="path9-0"
         d="m -1.9517741,288.77371 c -0.1600531,0.2518 -0.2707976,0.61271 -0.3001862,0.92927 l 5.1924749,-1.4e-4 c 0.056142,-0.34632 0.2428195,-0.6772 0.5387049,-0.92875 l -5.4309936,-3.7e-4 h 3.175e-4 z"
         stroke-miterlimit="2.6131" />
      <path
         style="clip-rule:evenodd;overflow:visible;fill:#f0a371;fill-opacity:1;fill-rule:evenodd;stroke:#b86e3e;stroke-width:0.26458332;stroke-linecap:round;stroke-linejoin:round;stroke-miterlimit:4;stroke-dasharray:none;stroke-opacity:1"
         inkscape:connector-curvature="0"
         id="path11-6"
         d="m -2.2048089,290.62399 c -0.050457,-0.32332 -0.058622,-0.63503 -0.026927,-0.921 l 5.1520259,-1.3e-4 c -0.050391,0.31012 -0.0081,0.63285 0.1193607,0.92132 z"
         stroke-miterlimit="2.6131" />
      <path
         style="clip-rule:evenodd;overflow:visible;fill:#f78f8f;fill-opacity:1;fill-rule:evenodd;stroke:#c74343;stroke-width:0.26458332;stroke-linecap:round;stroke-linejoin:round;stroke-miterlimit:4;stroke-dasharray:none;stroke-opacity:1"
         inkscape:connector-curvature="0"
         id="path13-2"
         d="m -1.9530222,291.54492 c -0.1216604,-0.30942 -0.2049624,-0.62018 -0.2517867,-0.92093 l 5.2444597,1.9e-4 c 0.1623576,0.36759 0.4628242,0.67987 0.8859049,0.84035 -0.012568,0.0281 -0.024694,0.0549 -0.03636,0.0808 z"
         stroke-miterlimit="2.6131" />
      <path
         style="clip-rule:evenodd;overflow:visible;fill:#dcd5f2;fill-opacity:1;fill-rule:evenodd;stroke:#8b75a1;stroke-width:0.26458332;stroke-linecap:round;stroke-linejoin:round;stroke-miterlimit:4;stroke-dasharray:none;stroke-opacity:1"
         inkscape:connector-curvature="0"
         id="path15-9"
         d="m 3.8891829,291.5453 c -0.1452555,0.32068 -0.2294588,0.48711 -0.4304752,0.79435 -0.027044,0.0413 -0.05499,0.0835 -0.084086,0.12607 l -4.8408982,4.5e-4 c -0.015507,-0.0232 -0.030872,-0.0464 -0.046002,-0.0694 -0.180988,-0.27681 -0.3275108,-0.5638 -0.4407443,-0.85188 z"
         stroke-miterlimit="2.6131" />
      <path
         style="clip-rule:evenodd;overflow:visible;fill:#8bb7f0;fill-opacity:1;fill-rule:evenodd;stroke:#4e7ab5;stroke-width:0.26458332;stroke-linecap:round;stroke-linejoin:round;stroke-miterlimit:4;stroke-dasharray:none;stroke-opacity:1"
         inkscape:connector-curvature="0"
         id="path19-9"
         d="m 3.3746218,292.46572 c -0.2961289,0.43561 -0.6936939,0.91497 -1.1761023,0.91952 -0.4707282,0.004 -0.5914872,-0.30761 -1.23012547,-0.3041 -0.6386385,0.004 -0.77196581,0.30955 -1.2426942,0.30513 -0.5032729,-0.005 -0.89407023,-0.47546 -1.19197623,-0.92011 z"
         stroke-miterlimit="2.6131" />
    </g>
  </g>
</svg>
