<?xml version="1.0" encoding="UTF-8" standalone="no"?>
<!-- Created with Inkscape (http://www.inkscape.org/) -->

<svg
   xmlns:dc="http://purl.org/dc/elements/1.1/"
   xmlns:cc="http://creativecommons.org/ns#"
   xmlns:rdf="http://www.w3.org/1999/02/22-rdf-syntax-ns#"
   xmlns:svg="http://www.w3.org/2000/svg"
   xmlns="http://www.w3.org/2000/svg"
   xmlns:sodipodi="http://sodipodi.sourceforge.net/DTD/sodipodi-0.dtd"
   xmlns:inkscape="http://www.inkscape.org/namespaces/inkscape"
   width="48"
   height="48"
   viewBox="0 0 12.7 12.7"
   version="1.1"
   id="svg8"
   inkscape:version="0.92.3 (2405546, 2018-03-11)"
   sodipodi:docname="arch.svg">
  <defs
     id="defs2" />
  <sodipodi:namedview
     id="base"
     pagecolor="#ffffff"
     bordercolor="#666666"
     borderopacity="1.0"
     inkscape:pageopacity="0.0"
     inkscape:pageshadow="2"
     inkscape:zoom="15.839192"
     inkscape:cx="5.6604779"
     inkscape:cy="23.438386"
     inkscape:document-units="px"
     inkscape:current-layer="layer1"
     showgrid="true"
     units="px"
     inkscape:showpageshadow="false"
     inkscape:snap-bbox="true"
     inkscape:bbox-paths="true"
     inkscape:bbox-nodes="true"
     inkscape:snap-bbox-edge-midpoints="true"
     inkscape:snap-bbox-midpoints="true"
     inkscape:object-paths="true"
     inkscape:snap-intersection-paths="true"
     inkscape:window-width="1874"
     inkscape:window-height="1141"
     inkscape:window-x="46"
     inkscape:window-y="30"
     inkscape:window-maximized="1">
    <inkscape:grid
       type="xygrid"
       id="grid815" />
  </sodipodi:namedview>
  <metadata
     id="metadata5">
    <rdf:RDF>
      <cc:Work
         rdf:about="">
        <dc:format>image/svg+xml</dc:format>
        <dc:type
           rdf:resource="http://purl.org/dc/dcmitype/StillImage" />
        <dc:title></dc:title>
      </cc:Work>
    </rdf:RDF>
  </metadata>
  <g
     inkscape:label="Capa 1"
     inkscape:groupmode="layer"
     id="layer1"
     transform="translate(0,-284.29999)">
    <g
       id="g8345"
       transform="translate(5.5562498,0.529165)">
      <path
         style="opacity:1;fill:#4e87b5;fill-opacity:1;stroke:none;stroke-width:0.07937501;stroke-miterlimit:4;stroke-dasharray:none;stroke-opacity:1"
         d="m 0.79374387,284.3 h 1.25e-5 c 3.22473533,0 5.82082733,2.59609 5.82082733,5.82083 0,3.22473 -2.596092,5.82082 -5.82082733,5.82082 h -1.25e-5 c -3.22474157,0 -5.82082717,-2.59609 -5.82082717,-5.82082 0,-3.22474 2.5960856,-5.82083 5.82082717,-5.82083 z"
         id="rect4544"
         inkscape:connector-curvature="0" />
      <path
         style="opacity:1;fill:#8bcaf0;fill-opacity:1;stroke:none;stroke-width:0.07937501;stroke-miterlimit:4;stroke-dasharray:none;stroke-opacity:1"
         d="m 0.79374387,284.56457 h 6.1e-6 c 3.07816233,0 5.55624773,2.47809 5.55624773,5.55625 0,3.07816 -2.4780854,5.55625 -5.55624773,5.55625 h -6.1e-6 c -3.07816217,0 -5.55624787,-2.47809 -5.55624787,-5.55625 0,-3.07816 2.4780857,-5.55625 5.55624787,-5.55625 z"
         id="rect4544-5"
         inkscape:connector-curvature="0" />
      <path
         inkscape:connector-curvature="0"
         id="path4199-2-9"
         d="m 0.79375237,285.88748 c -0.9260419,3.24115 -3.70416897,7.40834 -3.70416897,7.40834 1.047823,-0.69855 1.95318317,-1.04654 2.83690927,-1.21814 a 0.92604228,1.1575528 0 0 1 -0.025323,-0.0931 0.92604228,1.1575528 0 0 1 -0.019894,-0.11215 0.92604228,1.1575528 0 0 1 -0.010853,-0.11485 0.92604228,1.1575528 0 0 1 -0.00272,-0.0823 0.92604228,1.1575528 0 0 1 0.00454,-0.11576 0.92604228,1.1575528 0 0 1 0.013568,-0.11394 0.92604228,1.1575528 0 0 1 0.023511,-0.11215 0.92604228,1.1575528 0 0 1 0.03165,-0.10852 0.92604228,1.1575528 0 0 1 0.039791,-0.1049 0.92604228,1.1575528 0 0 1 0.048834,-0.0986 0.92604228,1.1575528 0 0 1 0.056068,-0.0922 0.92604228,1.1575528 0 0 1 0.063305,-0.0841 0.92604228,1.1575528 0 0 1 0.068729,-0.0769 0.92604228,1.1575528 0 0 1 0.075965,-0.0669 0.92604228,1.1575528 0 0 1 0.080486,-0.0579 0.92604228,1.1575528 0 0 1 0.084103,-0.047 0.92604228,1.1575528 0 0 1 0.087721,-0.0362 0.92604228,1.1575528 0 0 1 0.090434,-0.0253 0.92604228,1.1575528 0 0 1 0.092242,-0.0144 0.92604228,1.1575528 0 0 1 0.065113,-0.003 0.92604228,1.1575528 0 0 1 0.092242,0.005 0.92604228,1.1575528 0 0 1 0.091338,0.0181 0.92604228,1.1575528 0 0 1 0.090434,0.0281 0.92604228,1.1575528 0 0 1 0.086817,0.0397 0.92604228,1.1575528 0 0 1 0.083199,0.0507 0.92604228,1.1575528 0 0 1 0.078677,0.0606 0.92604228,1.1575528 0 0 1 0.074156,0.0696 0.92604228,1.1575528 0 0 1 0.067825,0.0787 0.92604228,1.1575528 0 0 1 0.060591,0.0868 0.92604228,1.1575528 0 0 1 0.05426,0.094 0.92604228,1.1575528 0 0 1 0.046122,0.10037 0.92604228,1.1575528 0 0 1 0.037079,0.10581 0.92604228,1.1575528 0 0 1 0.029843,0.11033 0.92604228,1.1575528 0 0 1 0.019894,0.11214 0.92604228,1.1575528 0 0 1 0.010853,0.11485 0.92604228,1.1575528 0 0 1 0.00272,0.0823 0.92604228,1.1575528 0 0 1 -0.00454,0.11575 0.92604228,1.1575528 0 0 1 -0.013568,0.11395 0.92604228,1.1575528 0 0 1 -0.023511,0.11213 0.92604228,1.1575528 0 0 1 -0.017185,0.0606 c 0.8837253,0.1716 1.789086,0.51958 2.8369085,1.21813 0,0 -2.7781271,-4.16718 -3.70416829,-7.40833 z"
         style="fill:#406e94;fill-opacity:1;fill-rule:evenodd;stroke:none;stroke-width:0.26458332px;stroke-linecap:butt;stroke-linejoin:miter;stroke-opacity:1" />
    </g>
  </g>
</svg>
