<?xml version="1.0" encoding="UTF-8" standalone="no"?>
<!-- Created with Inkscape (http://www.inkscape.org/) -->

<svg
   xmlns:dc="http://purl.org/dc/elements/1.1/"
   xmlns:cc="http://creativecommons.org/ns#"
   xmlns:rdf="http://www.w3.org/1999/02/22-rdf-syntax-ns#"
   xmlns:svg="http://www.w3.org/2000/svg"
   xmlns="http://www.w3.org/2000/svg"
   xmlns:sodipodi="http://sodipodi.sourceforge.net/DTD/sodipodi-0.dtd"
   xmlns:inkscape="http://www.inkscape.org/namespaces/inkscape"
   width="48"
   height="48"
   viewBox="0 0 12.7 12.7"
   version="1.1"
   id="svg8"
   inkscape:version="0.92.3 (2405546, 2018-03-11)"
   sodipodi:docname="folder-temp.svg">
  <defs
     id="defs2" />
  <sodipodi:namedview
     id="base"
     pagecolor="#ffffff"
     bordercolor="#666666"
     borderopacity="1.0"
     inkscape:pageopacity="0.0"
     inkscape:pageshadow="2"
     inkscape:zoom="15.839192"
     inkscape:cx="5.6604779"
     inkscape:cy="23.438386"
     inkscape:document-units="px"
     inkscape:current-layer="layer1"
     showgrid="true"
     units="px"
     inkscape:showpageshadow="false"
     inkscape:snap-bbox="true"
     inkscape:bbox-paths="true"
     inkscape:bbox-nodes="true"
     inkscape:snap-bbox-edge-midpoints="true"
     inkscape:snap-bbox-midpoints="true"
     inkscape:object-paths="true"
     inkscape:snap-intersection-paths="true"
     inkscape:window-width="1874"
     inkscape:window-height="1141"
     inkscape:window-x="46"
     inkscape:window-y="30"
     inkscape:window-maximized="1">
    <inkscape:grid
       type="xygrid"
       id="grid815" />
  </sodipodi:namedview>
  <metadata
     id="metadata5">
    <rdf:RDF>
      <cc:Work
         rdf:about="">
        <dc:format>image/svg+xml</dc:format>
        <dc:type
           rdf:resource="http://purl.org/dc/dcmitype/StillImage" />
        <dc:title></dc:title>
      </cc:Work>
    </rdf:RDF>
  </metadata>
  <g
     inkscape:label="Capa 1"
     inkscape:groupmode="layer"
     id="layer1"
     transform="translate(0,-284.29999)">
    <g
       id="g17048"
       transform="translate(-1.8520832,-1.3229133)">
      <path
         inkscape:connector-curvature="0"
         style="color:#000000;font-style:normal;font-variant:normal;font-weight:normal;font-stretch:normal;font-size:medium;line-height:normal;font-family:sans-serif;font-variant-ligatures:normal;font-variant-position:normal;font-variant-caps:normal;font-variant-numeric:normal;font-variant-alternates:normal;font-feature-settings:normal;text-indent:0;text-align:start;text-decoration:none;text-decoration-line:none;text-decoration-style:solid;text-decoration-color:#000000;letter-spacing:normal;word-spacing:normal;text-transform:none;writing-mode:lr-tb;direction:ltr;text-orientation:mixed;dominant-baseline:auto;baseline-shift:baseline;text-anchor:start;white-space:normal;shape-padding:0;clip-rule:nonzero;display:inline;overflow:visible;visibility:visible;opacity:1;isolation:auto;mix-blend-mode:normal;color-interpolation:sRGB;color-interpolation-filters:linearRGB;solid-color:#000000;solid-opacity:1;vector-effect:none;fill:#4f92db;fill-opacity:1;fill-rule:nonzero;stroke:none;stroke-width:0.52916664;stroke-linecap:round;stroke-linejoin:round;stroke-miterlimit:4;stroke-dasharray:none;stroke-dashoffset:0;stroke-opacity:1;color-rendering:auto;image-rendering:auto;shape-rendering:auto;text-rendering:auto;enable-background:accumulate"
         d="m 2.6458333,286.15207 c -0.4351619,0 -0.79375,0.35859 -0.79375,0.79375 v 10.31875 c 0,0.43516 0.3585881,0.79375 0.79375,0.79375 H 13.758333 c 0.435162,0 0.79375,-0.35859 0.79375,-0.79375 v -8.73125 c 0,-0.43516 -0.358588,-0.79375 -0.79375,-0.79375 H 7.9380167 c -0.1338741,0 -0.204828,-0.0441 -0.3054077,-0.15813 C 7.5320289,287.46743 7.4299572,287.28277 7.3163493,287.0807 7.2027409,286.87863 7.0756544,286.65803 6.882784,286.47401 6.6899134,286.29 6.4161461,286.15207 6.0854166,286.15207 Z"
         id="path1233-08" />
      <path
         style="opacity:1;vector-effect:none;fill:#5abfff;fill-opacity:1;stroke:none;stroke-width:0.52916664;stroke-linecap:round;stroke-linejoin:round;stroke-miterlimit:4;stroke-dasharray:none;stroke-dashoffset:0;stroke-opacity:1"
         d="m 2.6458334,286.41717 h 3.4395824 c 1.0583334,0 0.9912861,1.5875 1.8520834,1.5875 h 5.8208328 c 0.293158,0 0.529167,0.23601 0.529167,0.52917 v 8.73125 c 0,0.29316 -0.236009,0.52917 -0.529167,0.52917 H 2.6458334 c -0.2931584,0 -0.5291665,-0.23601 -0.5291665,-0.52917 v -10.31875 c 0,-0.29316 0.2360081,-0.52917 0.5291665,-0.52917 z"
         id="rect993-91"
         inkscape:connector-curvature="0"
         sodipodi:nodetypes="sccssssssss" />
      <path
         inkscape:connector-curvature="0"
         style="color:#000000;font-style:normal;font-variant:normal;font-weight:normal;font-stretch:normal;font-size:medium;line-height:normal;font-family:sans-serif;font-variant-ligatures:normal;font-variant-position:normal;font-variant-caps:normal;font-variant-numeric:normal;font-variant-alternates:normal;font-feature-settings:normal;text-indent:0;text-align:start;text-decoration:none;text-decoration-line:none;text-decoration-style:solid;text-decoration-color:#000000;letter-spacing:normal;word-spacing:normal;text-transform:none;writing-mode:lr-tb;direction:ltr;text-orientation:mixed;dominant-baseline:auto;baseline-shift:baseline;text-anchor:start;white-space:normal;shape-padding:0;clip-rule:nonzero;display:inline;overflow:visible;visibility:visible;opacity:1;isolation:auto;mix-blend-mode:normal;color-interpolation:sRGB;color-interpolation-filters:linearRGB;solid-color:#000000;solid-opacity:1;vector-effect:none;fill:#4f92db;fill-opacity:1;fill-rule:nonzero;stroke:none;stroke-width:0.52916664;stroke-linecap:round;stroke-linejoin:round;stroke-miterlimit:4;stroke-dasharray:none;stroke-dashoffset:0;stroke-opacity:1;color-rendering:auto;image-rendering:auto;shape-rendering:auto;text-rendering:auto;enable-background:accumulate"
         d="m 7.9375,287.73957 c -0.2965244,0 -0.5402617,0.1538 -0.7022828,0.33745 -0.162021,0.18365 -0.2708169,0.39637 -0.3803385,0.59118 -0.1095214,0.1948 -0.2183329,0.37004 -0.3374472,0.48369 -0.1191141,0.11364 -0.2335774,0.17518 -0.4320149,0.17518 H 2.6458333 c -0.4351626,0 -0.79375,0.35859 -0.79375,0.79375 v 7.14375 c 0,0.43516 0.3585874,0.79375 0.79375,0.79375 H 13.758333 c 0.435163,0 0.79375,-0.35859 0.79375,-0.79375 v -8.73125 c 0,-0.43516 -0.358587,-0.79375 -0.79375,-0.79375 z"
         id="path1270-04" />
      <path
         style="opacity:1;vector-effect:none;fill:#5abfff;fill-opacity:1;stroke:none;stroke-width:0.52916664;stroke-linecap:round;stroke-linejoin:round;stroke-miterlimit:4;stroke-dasharray:none;stroke-dashoffset:0;stroke-opacity:1"
         d="m 2.6458342,289.59217 h 3.4395824 c 1.0583334,0 0.9912861,-1.5875 1.8520834,-1.5875 h 5.820833 c 0.293158,0 0.529167,0.23601 0.529167,0.52917 v 8.73125 c 0,0.29316 -0.236009,0.52917 -0.529167,0.52917 H 2.6458342 c -0.2931584,0 -0.5291665,-0.23601 -0.5291665,-0.52917 v -7.14375 c 0,-0.29316 0.2360081,-0.52917 0.5291665,-0.52917 z"
         id="rect993-6-2"
         inkscape:connector-curvature="0"
         sodipodi:nodetypes="sccssssssss" />
      <path
         inkscape:connector-curvature="0"
         style="opacity:0.98999999;vector-effect:none;fill:#e0f6ff;fill-opacity:1;stroke:none;stroke-width:0.52916664;stroke-linecap:round;stroke-linejoin:round;stroke-miterlimit:4;stroke-dasharray:none;stroke-dashoffset:0;stroke-opacity:1"
         d="m 8.2020833,291.17915 c -1.3192125,0 -2.38125,1.06204 -2.38125,2.38125 0,1.31922 1.0620375,2.38125 2.38125,2.38125 1.3192125,0 2.3812497,-1.06203 2.3812497,-2.38125 0,-1.31921 -1.0620372,-2.38125 -2.3812497,-2.38125 z m 0,0.79375 c 0.1465792,0 0.2645833,0.11801 0.2645833,0.26459 v 1.05833 h 0.79375 c 0.1465792,0 0.2645834,0.118 0.2645834,0.26458 0,0.14658 -0.1180042,0.26459 -0.2645834,0.26459 H 8.2020833 c -0.1465792,0 -0.2645833,-0.11801 -0.2645833,-0.26459 v -1.32291 c 0,-0.14658 0.1180041,-0.26459 0.2645833,-0.26459 z"
         id="rect833-3" />
    </g>
  </g>
</svg>
