<?xml version="1.0" encoding="UTF-8" standalone="no"?>
<!-- Created with Inkscape (http://www.inkscape.org/) -->

<svg
   width="48"
   height="48"
   viewBox="0 0 12.7 12.7"
   version="1.1"
   id="svg8"
   inkscape:version="1.2.1 (9c6d41e410, 2022-07-14)"
   sodipodi:docname="folder-mail.svg"
   xml:space="preserve"
   xmlns:inkscape="http://www.inkscape.org/namespaces/inkscape"
   xmlns:sodipodi="http://sodipodi.sourceforge.net/DTD/sodipodi-0.dtd"
   xmlns:xlink="http://www.w3.org/1999/xlink"
   xmlns="http://www.w3.org/2000/svg"
   xmlns:svg="http://www.w3.org/2000/svg"
   xmlns:rdf="http://www.w3.org/1999/02/22-rdf-syntax-ns#"
   xmlns:cc="http://creativecommons.org/ns#"
   xmlns:dc="http://purl.org/dc/elements/1.1/"><defs
     id="defs2"><linearGradient
       inkscape:collect="always"
       xlink:href="#linearGradient149929"
       id="linearGradient149931"
       x1="-2.9104161"
       y1="286.15259"
       x2="-2.9104161"
       y2="282.97757"
       gradientUnits="userSpaceOnUse" /><linearGradient
       inkscape:collect="always"
       id="linearGradient149929"><stop
         style="stop-color:#4ea0ee;stop-opacity:1;"
         offset="0"
         id="stop149925" /><stop
         style="stop-color:#2988e7;stop-opacity:1;"
         offset="1"
         id="stop149927" /></linearGradient><style
       id="current-color-scheme"
       type="text/css">
      .ColorScheme-Text {
        color:#122036;
      }
      </style><style
       type="text/css"
       id="current-color-scheme-5">
      .ColorScheme-Text {
        color:#122036;
      }
      </style><style
       type="text/css"
       id="current-color-scheme-2">
      .ColorScheme-Text {
        color:#122036;
      }
      </style><style
       type="text/css"
       id="current-color-scheme-1">
      .ColorScheme-Text {
        color:#122036;
      }
      </style><style
       id="current-color-scheme-10"
       type="text/css">
      .ColorScheme-Text {
        color:#122036;
      }
      </style><style
       id="current-color-scheme-20"
       type="text/css">
      .ColorScheme-Text {
        color:#122036;
      }
      </style><style
       type="text/css"
       id="current-color-scheme-1-2">
      .ColorScheme-Text {
        color:#122036;
      }
      </style><style
       type="text/css"
       id="current-color-scheme-9">
      .ColorScheme-Text {
        color:#122036;
      }
      </style><style
       id="current-color-scheme-53"
       type="text/css">
      .ColorScheme-Text {
        color:#122036;
      }
      </style><style
       type="text/css"
       id="current-color-scheme-5-3">
      .ColorScheme-Text {
        color:#122036;
      }
      </style><style
       type="text/css"
       id="current-color-scheme-2-7">
      .ColorScheme-Text {
        color:#122036;
      }
      </style><style
       type="text/css"
       id="current-color-scheme-1-1">
      .ColorScheme-Text {
        color:#122036;
      }
      </style><style
       id="current-color-scheme-10-5"
       type="text/css">
      .ColorScheme-Text {
        color:#122036;
      }
      </style><style
       id="current-color-scheme-535"
       type="text/css">
      .ColorScheme-Text {
        color:#122036;
      }
      </style><style
       id="current-color-scheme-0"
       type="text/css">
      .ColorScheme-Text {
        color:#122036;
      }
      </style></defs><sodipodi:namedview
     id="base"
     pagecolor="#ffffff"
     bordercolor="#666666"
     borderopacity="1.0"
     inkscape:pageopacity="0.0"
     inkscape:pageshadow="2"
     inkscape:zoom="11.2"
     inkscape:cx="28.75"
     inkscape:cy="43.348214"
     inkscape:document-units="px"
     inkscape:current-layer="layer1"
     showgrid="true"
     units="px"
     inkscape:showpageshadow="false"
     inkscape:snap-bbox="true"
     inkscape:bbox-paths="true"
     inkscape:bbox-nodes="true"
     inkscape:snap-bbox-edge-midpoints="true"
     inkscape:snap-bbox-midpoints="true"
     inkscape:object-paths="true"
     inkscape:snap-intersection-paths="true"
     inkscape:window-width="2160"
     inkscape:window-height="1335"
     inkscape:window-x="0"
     inkscape:window-y="0"
     inkscape:window-maximized="1"
     inkscape:pagecheckerboard="0"
     inkscape:deskcolor="#d1d1d1"
     showguides="false"><inkscape:grid
       type="xygrid"
       id="grid815" /></sodipodi:namedview><metadata
     id="metadata5"><rdf:RDF><cc:Work
         rdf:about=""><dc:format>image/svg+xml</dc:format><dc:type
           rdf:resource="http://purl.org/dc/dcmitype/StillImage" /><dc:title /></cc:Work></rdf:RDF></metadata><g
     inkscape:label="Capa 1"
     inkscape:groupmode="layer"
     id="layer1"
     transform="translate(0,-284.29999)"><g
       id="g3782"
       transform="translate(5.0270834,1.8520867)"><path
         inkscape:connector-curvature="0"
         style="color:#000000;font-style:normal;font-variant:normal;font-weight:normal;font-stretch:normal;font-size:medium;line-height:normal;font-family:sans-serif;font-variant-ligatures:normal;font-variant-position:normal;font-variant-caps:normal;font-variant-numeric:normal;font-variant-alternates:normal;font-feature-settings:normal;text-indent:0;text-align:start;text-decoration:none;text-decoration-line:none;text-decoration-style:solid;text-decoration-color:#000000;letter-spacing:normal;word-spacing:normal;text-transform:none;writing-mode:lr-tb;direction:ltr;text-orientation:mixed;dominant-baseline:auto;baseline-shift:baseline;text-anchor:start;white-space:normal;shape-padding:0;clip-rule:nonzero;display:inline;overflow:visible;visibility:visible;opacity:1;isolation:auto;mix-blend-mode:normal;color-interpolation:sRGB;color-interpolation-filters:linearRGB;solid-color:#000000;solid-opacity:1;vector-effect:none;fill:#286bb2;fill-opacity:1;fill-rule:nonzero;stroke:none;stroke-width:0.529167;stroke-linecap:round;stroke-linejoin:round;stroke-miterlimit:4;stroke-dasharray:none;stroke-dashoffset:0;stroke-opacity:1;color-rendering:auto;image-rendering:auto;shape-rendering:auto;text-rendering:auto;enable-background:accumulate"
         d="m -4.2333332,282.97707 c -0.4351619,0 -0.79375,0.35859 -0.79375,0.79375 v 10.31875 c 0,0.43516 0.3585881,0.79375 0.79375,0.79375 H 6.8791666 c 0.435162,0 0.79375,-0.35859 0.79375,-0.79375 v -8.73125 c 0,-0.43516 -0.358588,-0.79375 -0.79375,-0.79375 H 1.0588503 c -0.13387419,0 -0.20482799,-0.0441 -0.30540779,-0.15813 -0.10058,-0.11401 -0.2026518,-0.29867 -0.3162596,-0.50074 -0.1136084,-0.20207 -0.2406949,-0.42267 -0.4335653,-0.60669 -0.1928707,-0.18401 -0.466638,-0.32194 -0.7973674,-0.32194 z"
         id="path1233" /><path
         style="opacity:1;vector-effect:none;fill:url(#linearGradient149931);fill-opacity:1;stroke:none;stroke-width:0.529167;stroke-linecap:round;stroke-linejoin:round;stroke-miterlimit:4;stroke-dasharray:none;stroke-dashoffset:0;stroke-opacity:1"
         d="m -4.2333332,283.24217 h 3.43958231 c 1.0583334,0 0.9912861,1.5875 1.85208339,1.5875 h 5.8208331 c 0.293159,0 0.529167,0.23601 0.529167,0.52917 v 8.73124 c 0,0.29316 -0.236008,0.52917 -0.529167,0.52917 H -4.2333332 c -0.2931585,0 -0.5291665,-0.23601 -0.5291665,-0.52917 v -10.31874 c 0,-0.29316 0.236008,-0.52917 0.5291665,-0.52917 z"
         id="rect993"
         inkscape:connector-curvature="0"
         sodipodi:nodetypes="sccssssssss" /><path
         inkscape:connector-curvature="0"
         style="color:#000000;font-style:normal;font-variant:normal;font-weight:normal;font-stretch:normal;font-size:medium;line-height:normal;font-family:sans-serif;font-variant-ligatures:normal;font-variant-position:normal;font-variant-caps:normal;font-variant-numeric:normal;font-variant-alternates:normal;font-feature-settings:normal;text-indent:0;text-align:start;text-decoration:none;text-decoration-line:none;text-decoration-style:solid;text-decoration-color:#000000;letter-spacing:normal;word-spacing:normal;text-transform:none;writing-mode:lr-tb;direction:ltr;text-orientation:mixed;dominant-baseline:auto;baseline-shift:baseline;text-anchor:start;white-space:normal;shape-padding:0;clip-rule:nonzero;display:inline;overflow:visible;visibility:visible;opacity:1;isolation:auto;mix-blend-mode:normal;color-interpolation:sRGB;color-interpolation-filters:linearRGB;solid-color:#000000;solid-opacity:1;vector-effect:none;fill:#3182d9;fill-opacity:1;fill-rule:nonzero;stroke:none;stroke-width:0.529167;stroke-linecap:round;stroke-linejoin:round;stroke-miterlimit:4;stroke-dasharray:none;stroke-dashoffset:0;stroke-opacity:1;color-rendering:auto;image-rendering:auto;shape-rendering:auto;text-rendering:auto;enable-background:accumulate"
         d="m 1.0583333,284.56457 c -0.29652439,0 -0.54026169,0.1538 -0.70228279,0.33745 -0.162021,0.18365 -0.2708169,0.39637 -0.3803385,0.59117 -0.1095214,0.19481 -0.2183329,0.37005 -0.3374472,0.4837 -0.1191141,0.11364 -0.2335774,0.17518 -0.4320149,0.17518 H -4.2333334 c -0.4351626,0 -0.79375,0.35859 -0.79375,0.79375 v 7.14375 c 0,0.43516 0.3585874,0.79375 0.79375,0.79375 h 11.1125 c 0.435163,0 0.79375,-0.35859 0.79375,-0.79375 v -8.73125 c 0,-0.43516 -0.358587,-0.79375 -0.79375,-0.79375 z"
         id="path1270" /><path
         style="opacity:1;vector-effect:none;fill:#50c1f9;fill-opacity:1;stroke:none;stroke-width:0.529167;stroke-linecap:round;stroke-linejoin:round;stroke-miterlimit:4;stroke-dasharray:none;stroke-dashoffset:0;stroke-opacity:1"
         d="m -4.2333325,286.41717 h 3.43958241 c 1.0583334,0 0.9912861,-1.5875 1.85208339,-1.5875 h 5.8208333 c 0.293158,0 0.529167,0.23601 0.529167,0.52916 v 8.73125 c 0,0.29316 -0.236009,0.52917 -0.529167,0.52917 H -4.2333325 c -0.2931585,0 -0.5291665,-0.23601 -0.5291665,-0.52917 v -7.14375 c 0,-0.29315 0.236008,-0.52916 0.5291665,-0.52916 z"
         id="rect993-6"
         inkscape:connector-curvature="0"
         sodipodi:nodetypes="sccssssssss" /></g><g
       id="g872"
       transform="matrix(0.26458333,0,0,0.26458333,-15.072981,202.31956)"><path
         id="path1680"
         style="opacity:1;fill:#def4ff;fill-opacity:1;stroke-width:2;stroke-linecap:round;stroke-linejoin:round;stroke-miterlimit:1.8;paint-order:fill markers stroke;stop-color:#000000"
         d="m 72.968755,328.8473 c -1.10798,0 -2,0.89202 -2,2 h 1 c 0.06925,0 0.135957,0.006 0.201171,0.0195 0.06522,0.0133 0.129594,0.0334 0.189454,0.0586 0.05986,0.0252 0.116738,0.0559 0.169921,0.0918 0.05318,0.0359 0.101297,0.0779 0.146485,0.12305 0.04519,0.0452 0.08718,0.0933 0.123047,0.14648 0.03587,0.0532 0.06656,0.11006 0.0918,0.16992 0.02523,0.0599 0.04532,0.12424 0.05859,0.18946 0.01328,0.0652 0.01953,0.13192 0.01953,0.20117 0,0.0692 -0.0063,0.13596 -0.01953,0.20117 -0.01328,0.0652 -0.03336,0.12959 -0.05859,0.18945 -0.02523,0.0599 -0.05593,0.11674 -0.0918,0.16993 -0.03587,0.0532 -0.07786,0.10129 -0.123047,0.14648 -0.04519,0.0452 -0.0933,0.0872 -0.146485,0.12305 -0.05318,0.0359 -0.110064,0.0666 -0.169921,0.0918 -0.05986,0.0252 -0.124239,0.0453 -0.189454,0.0586 -0.06521,0.0133 -0.131923,0.0195 -0.201171,0.0195 h -1 v 2 h 1 c 0.06925,0 0.135957,0.006 0.201171,0.0195 0.06522,0.0133 0.129594,0.0334 0.189454,0.0586 0.05986,0.0252 0.116738,0.0559 0.169921,0.0918 0.05318,0.0359 0.101297,0.0779 0.146485,0.12305 0.04519,0.0452 0.08718,0.0933 0.123047,0.14648 0.03587,0.0532 0.06656,0.11006 0.0918,0.16992 0.02523,0.0599 0.04532,0.12424 0.05859,0.18946 0.01328,0.0652 0.01953,0.13192 0.01953,0.20117 0,0.0692 -0.0063,0.13596 -0.01953,0.20117 -0.01328,0.0652 -0.03336,0.12959 -0.05859,0.18945 -0.02523,0.0599 -0.05593,0.11674 -0.0918,0.16993 -0.03587,0.0532 -0.07786,0.10129 -0.123047,0.14648 -0.04519,0.0452 -0.0933,0.0872 -0.146485,0.12305 -0.05318,0.0359 -0.110064,0.0666 -0.169921,0.0918 -0.05986,0.0252 -0.124239,0.0453 -0.189454,0.0586 -0.06521,0.0133 -0.131923,0.0195 -0.201171,0.0195 h -1 v 2 h 1 c 0.06925,0 0.135957,0.006 0.201171,0.0195 0.06522,0.0133 0.129594,0.0334 0.189454,0.0586 0.05986,0.0252 0.116738,0.0559 0.169921,0.0918 0.05318,0.0359 0.101297,0.0779 0.146485,0.12305 0.04519,0.0452 0.08718,0.0933 0.123047,0.14648 0.03587,0.0532 0.06656,0.11006 0.0918,0.16992 0.02523,0.0599 0.04532,0.12424 0.05859,0.18946 0.01328,0.0652 0.01953,0.13192 0.01953,0.20117 0,0.0692 -0.0063,0.13596 -0.01953,0.20117 -0.01328,0.0652 -0.03336,0.12959 -0.05859,0.18945 -0.02523,0.0599 -0.05593,0.11674 -0.0918,0.16993 -0.03587,0.0532 -0.07786,0.10129 -0.123047,0.14648 -0.04519,0.0452 -0.0933,0.0872 -0.146485,0.12305 -0.05318,0.0359 -0.110064,0.0666 -0.169921,0.0918 -0.05986,0.0252 -0.124239,0.0453 -0.189454,0.0586 -0.06521,0.0133 -0.131923,0.0195 -0.201171,0.0195 h -1 v 2 h 1 c 0.06925,0 0.135957,0.006 0.201171,0.0195 0.06522,0.0133 0.129594,0.0334 0.189454,0.0586 0.05986,0.0252 0.116738,0.0559 0.169921,0.0918 0.05318,0.0359 0.101297,0.0779 0.146485,0.12305 0.04519,0.0452 0.08718,0.0933 0.123047,0.14648 0.03587,0.0532 0.06656,0.11006 0.0918,0.16992 0.02523,0.0599 0.04532,0.12424 0.05859,0.18946 0.01328,0.0652 0.01953,0.13192 0.01953,0.20117 0,0.0692 -0.0063,0.13596 -0.01953,0.20117 -0.01328,0.0652 -0.03336,0.12959 -0.05859,0.18945 -0.02523,0.0599 -0.05593,0.11674 -0.0918,0.16993 -0.03587,0.0532 -0.07786,0.10129 -0.123047,0.14648 -0.04519,0.0452 -0.0933,0.0872 -0.146485,0.12305 -0.05318,0.0359 -0.110064,0.0666 -0.169921,0.0918 -0.05986,0.0252 -0.124239,0.0453 -0.189454,0.0586 -0.06521,0.0133 -0.131923,0.0195 -0.201171,0.0195 h -1 v 2 h 1 c 0.06925,0 0.135957,0.006 0.201171,0.0195 0.06522,0.0133 0.129594,0.0334 0.189454,0.0586 0.05986,0.0252 0.116738,0.0559 0.169921,0.0918 0.05318,0.0359 0.101297,0.0779 0.146485,0.12305 0.04519,0.0452 0.08718,0.0933 0.123047,0.14648 0.03587,0.0532 0.06656,0.11006 0.0918,0.16992 0.02523,0.0599 0.04532,0.12424 0.05859,0.18946 0.01328,0.0652 0.01953,0.13192 0.01953,0.20117 0,0.0692 -0.0063,0.13596 -0.01953,0.20117 -0.01328,0.0652 -0.03336,0.12959 -0.05859,0.18945 -0.02523,0.0599 -0.05593,0.11674 -0.0918,0.16993 -0.03587,0.0532 -0.07786,0.10129 -0.123047,0.14648 -0.04519,0.0452 -0.0933,0.0872 -0.146485,0.12305 -0.05318,0.0359 -0.110064,0.0666 -0.169921,0.0918 -0.05986,0.0252 -0.124239,0.0453 -0.189454,0.0586 -0.06521,0.0133 -0.131923,0.0195 -0.201171,0.0195 h -1 c 0,1.10798 0.89202,2 2,2 h 1 v -1 c 0,-0.0693 0.0063,-0.13596 0.01953,-0.20117 0.01328,-0.0652 0.03336,-0.1296 0.05859,-0.18946 0.02523,-0.0599 0.05593,-0.11673 0.0918,-0.16992 0.03587,-0.0532 0.07786,-0.10129 0.123047,-0.14648 0.04519,-0.0452 0.0933,-0.0872 0.146485,-0.12305 0.05318,-0.0359 0.110062,-0.0666 0.169922,-0.0918 0.05986,-0.0252 0.124238,-0.0453 0.189453,-0.0586 0.06522,-0.0133 0.131921,-0.0195 0.201172,-0.0195 0.06925,0 0.135957,0.006 0.201171,0.0195 0.06522,0.0133 0.129594,0.0334 0.189454,0.0586 0.05986,0.0252 0.116738,0.0559 0.169921,0.0918 0.05318,0.0359 0.101297,0.0779 0.146485,0.12305 0.04519,0.0452 0.08718,0.0933 0.123047,0.14648 0.03587,0.0532 0.06656,0.11006 0.0918,0.16992 0.02523,0.0599 0.04532,0.12424 0.05859,0.18946 0.01328,0.0652 0.01953,0.13192 0.01953,0.20117 v 1 h 2 v -1 c 0,-0.0693 0.0063,-0.13596 0.01953,-0.20117 0.01328,-0.0652 0.03336,-0.1296 0.05859,-0.18946 0.02523,-0.0599 0.05593,-0.11673 0.0918,-0.16992 0.03587,-0.0532 0.07786,-0.10129 0.123047,-0.14648 0.04519,-0.0452 0.0933,-0.0872 0.146485,-0.12305 0.05318,-0.0359 0.110062,-0.0666 0.169922,-0.0918 0.05986,-0.0252 0.124238,-0.0453 0.189453,-0.0586 0.06522,-0.0133 0.131921,-0.0195 0.201172,-0.0195 0.06925,0 0.135959,0.006 0.201171,0.0195 0.06522,0.0133 0.129594,0.0334 0.189454,0.0586 0.05986,0.0252 0.11674,0.0559 0.169921,0.0918 0.05318,0.0359 0.101297,0.0779 0.146485,0.12305 0.04519,0.0452 0.08718,0.0933 0.123047,0.14648 0.03587,0.0532 0.06656,0.11006 0.0918,0.16992 0.02523,0.0599 0.04532,0.12424 0.05859,0.18946 0.01328,0.0652 0.01953,0.13192 0.01953,0.20117 v 1 h 2 v -1 c 0,-0.0693 0.0063,-0.13596 0.01953,-0.20117 0.01328,-0.0652 0.03336,-0.1296 0.05859,-0.18946 0.02523,-0.0599 0.05593,-0.11673 0.0918,-0.16992 0.03587,-0.0532 0.07786,-0.10129 0.123046,-0.14648 0.04519,-0.0452 0.0933,-0.0872 0.146485,-0.12305 0.05318,-0.0359 0.110062,-0.0666 0.169922,-0.0918 0.05986,-0.0252 0.124238,-0.0453 0.189453,-0.0586 0.06522,-0.0133 0.131921,-0.0195 0.201172,-0.0195 0.06925,0 0.135957,0.006 0.201172,0.0195 0.06521,0.0133 0.129593,0.0334 0.189453,0.0586 0.05986,0.0252 0.116738,0.0559 0.169922,0.0918 0.05318,0.0359 0.101296,0.0779 0.146484,0.12305 0.04519,0.0452 0.08718,0.0933 0.123047,0.14648 0.03587,0.0532 0.06656,0.11006 0.0918,0.16992 0.02523,0.0599 0.04532,0.12424 0.05859,0.18946 0.01328,0.0652 0.01953,0.13192 0.01953,0.20117 v 1 h 2 v -1 c 0,-0.0693 0.0063,-0.13596 0.01953,-0.20117 0.01328,-0.0652 0.03336,-0.1296 0.05859,-0.18946 0.02523,-0.0599 0.05593,-0.11673 0.0918,-0.16992 0.03587,-0.0532 0.07786,-0.10129 0.123046,-0.14648 0.04519,-0.0452 0.0933,-0.0872 0.146485,-0.12305 0.05318,-0.0359 0.110062,-0.0666 0.169922,-0.0918 0.05986,-0.0252 0.124238,-0.0453 0.189453,-0.0586 0.06522,-0.0133 0.131922,-0.0195 0.201172,-0.0195 0.06925,0 0.135957,0.006 0.201172,0.0195 0.06521,0.0133 0.129593,0.0334 0.189453,0.0586 0.05986,0.0252 0.116738,0.0559 0.169922,0.0918 0.05318,0.0359 0.101297,0.0779 0.146484,0.12305 0.04519,0.0452 0.08718,0.0933 0.123047,0.14648 0.03587,0.0532 0.06656,0.11006 0.0918,0.16992 0.02523,0.0599 0.04532,0.12424 0.05859,0.18946 0.01328,0.0652 0.01953,0.13192 0.01953,0.20117 v 1 h 1 c 1.10798,0 2,-0.89202 2,-2 h -1 c -0.06925,0 -0.135957,-0.006 -0.201172,-0.0195 -0.06521,-0.0133 -0.129594,-0.0334 -0.189453,-0.0586 -0.05986,-0.0252 -0.116739,-0.0559 -0.169922,-0.0918 -0.05318,-0.0359 -0.101297,-0.0779 -0.146485,-0.12305 -0.04518,-0.0452 -0.08718,-0.0933 -0.123046,-0.14648 -0.03587,-0.0532 -0.06656,-0.11007 -0.0918,-0.16993 -0.02523,-0.0599 -0.04532,-0.12423 -0.05859,-0.18945 -0.01328,-0.0652 -0.01953,-0.13192 -0.01953,-0.20117 0,-0.0693 0.0063,-0.13596 0.01953,-0.20117 0.01328,-0.0652 0.03336,-0.1296 0.05859,-0.18946 0.02523,-0.0599 0.05593,-0.11673 0.0918,-0.16992 0.03587,-0.0532 0.07786,-0.10129 0.123046,-0.14648 0.04519,-0.0452 0.0933,-0.0872 0.146485,-0.12305 0.05318,-0.0359 0.110062,-0.0666 0.169922,-0.0918 0.05986,-0.0252 0.124238,-0.0453 0.189453,-0.0586 0.06522,-0.0133 0.131922,-0.0195 0.201172,-0.0195 h 1 v -2 h -1 c -0.06925,0 -0.135957,-0.006 -0.201172,-0.0195 -0.06521,-0.0133 -0.129594,-0.0334 -0.189453,-0.0586 -0.05986,-0.0252 -0.116739,-0.0559 -0.169922,-0.0918 -0.05318,-0.0359 -0.101297,-0.0779 -0.146485,-0.12305 -0.04518,-0.0452 -0.08718,-0.0933 -0.123046,-0.14648 -0.03587,-0.0532 -0.06656,-0.11007 -0.0918,-0.16993 -0.02523,-0.0599 -0.04532,-0.12423 -0.05859,-0.18945 -0.01328,-0.0652 -0.01953,-0.13192 -0.01953,-0.20117 0,-0.0693 0.0063,-0.13596 0.01953,-0.20117 0.01328,-0.0652 0.03336,-0.1296 0.05859,-0.18946 0.02523,-0.0599 0.05593,-0.11673 0.0918,-0.16992 0.03587,-0.0532 0.07786,-0.10129 0.123046,-0.14648 0.04519,-0.0452 0.0933,-0.0872 0.146485,-0.12305 0.05318,-0.0359 0.110062,-0.0666 0.169922,-0.0918 0.05986,-0.0252 0.124238,-0.0453 0.189453,-0.0586 0.06522,-0.0133 0.131922,-0.0195 0.201172,-0.0195 h 1 v -2 h -1 c -0.06925,0 -0.135957,-0.006 -0.201172,-0.0195 -0.06521,-0.0133 -0.129594,-0.0334 -0.189453,-0.0586 -0.05986,-0.0252 -0.116739,-0.0559 -0.169922,-0.0918 -0.05318,-0.0359 -0.101297,-0.0779 -0.146485,-0.12305 -0.04518,-0.0452 -0.08718,-0.0933 -0.123046,-0.14648 -0.03587,-0.0532 -0.06656,-0.11007 -0.0918,-0.16993 -0.02523,-0.0599 -0.04532,-0.12423 -0.05859,-0.18945 -0.01328,-0.0652 -0.01953,-0.13192 -0.01953,-0.20117 0,-0.0693 0.0063,-0.13596 0.01953,-0.20117 0.01328,-0.0652 0.03336,-0.1296 0.05859,-0.18946 0.02523,-0.0599 0.05593,-0.11673 0.0918,-0.16992 0.03587,-0.0532 0.07786,-0.1013 0.123046,-0.14648 0.04519,-0.0452 0.0933,-0.0872 0.146485,-0.12305 0.05318,-0.0359 0.110062,-0.0666 0.169922,-0.0918 0.05986,-0.0252 0.124238,-0.0453 0.189453,-0.0586 0.06522,-0.0133 0.131922,-0.0195 0.201172,-0.0195 h 1 v -2 h -1 c -0.06925,0 -0.135957,-0.006 -0.201172,-0.0195 -0.06521,-0.0133 -0.129594,-0.0334 -0.189453,-0.0586 -0.05986,-0.0252 -0.116739,-0.0559 -0.169922,-0.0918 -0.05318,-0.0359 -0.101297,-0.0779 -0.146485,-0.12305 -0.04518,-0.0452 -0.08718,-0.0933 -0.123046,-0.14648 -0.03587,-0.0532 -0.06656,-0.11007 -0.0918,-0.16993 -0.02523,-0.0599 -0.04532,-0.12423 -0.05859,-0.18945 -0.01328,-0.0652 -0.01953,-0.13192 -0.01953,-0.20117 0,-0.0693 0.0063,-0.13596 0.01953,-0.20117 0.01328,-0.0652 0.03336,-0.1296 0.05859,-0.18946 0.02523,-0.0599 0.05593,-0.11673 0.0918,-0.16992 0.03587,-0.0532 0.07786,-0.1013 0.123046,-0.14648 0.04519,-0.0452 0.0933,-0.0872 0.146485,-0.12305 0.05318,-0.0359 0.110062,-0.0666 0.169922,-0.0918 0.05986,-0.0252 0.124238,-0.0453 0.189453,-0.0586 0.06522,-0.0133 0.131922,-0.0195 0.201172,-0.0195 h 1 v -2 h -1 c -0.06925,0 -0.135957,-0.006 -0.201172,-0.0195 -0.06521,-0.0133 -0.129594,-0.0334 -0.189453,-0.0586 -0.05986,-0.0252 -0.116739,-0.0559 -0.169922,-0.0918 -0.05318,-0.0359 -0.101297,-0.0779 -0.146485,-0.12305 -0.04518,-0.0452 -0.08718,-0.0933 -0.123046,-0.14648 -0.03587,-0.0532 -0.06656,-0.11007 -0.0918,-0.16993 -0.02523,-0.0599 -0.04532,-0.12423 -0.05859,-0.18945 -0.01328,-0.0652 -0.01953,-0.13192 -0.01953,-0.20117 0,-0.0693 0.0063,-0.13596 0.01953,-0.20117 0.01328,-0.0652 0.03336,-0.1296 0.05859,-0.18946 0.02523,-0.0599 0.05593,-0.11673 0.0918,-0.16992 0.03587,-0.0532 0.07786,-0.1013 0.123046,-0.14648 0.04519,-0.0452 0.0933,-0.0872 0.146485,-0.12305 0.05318,-0.0359 0.110062,-0.0666 0.169922,-0.0918 0.05986,-0.0252 0.124238,-0.0453 0.189453,-0.0586 0.06522,-0.0133 0.131922,-0.0195 0.201172,-0.0195 h 1 c 0,-1.10798 -0.89202,-2 -2,-2 h -1 v 1 c 0,0.0692 -0.0063,0.13596 -0.01953,0.20117 -0.01328,0.0652 -0.03336,0.12959 -0.05859,0.18945 -0.02523,0.0599 -0.05593,0.11674 -0.0918,0.16993 -0.03587,0.0532 -0.07786,0.10129 -0.123047,0.14648 -0.04519,0.0452 -0.0933,0.0872 -0.146484,0.12305 -0.05318,0.0359 -0.110063,0.0666 -0.169922,0.0918 -0.05986,0.0252 -0.124239,0.0453 -0.189453,0.0586 -0.06521,0.0133 -0.131922,0.0195 -0.201172,0.0195 -0.06925,0 -0.135957,-0.006 -0.201172,-0.0195 -0.06521,-0.0133 -0.129594,-0.0334 -0.189453,-0.0586 -0.05986,-0.0252 -0.116739,-0.0559 -0.169922,-0.0918 -0.05318,-0.0359 -0.101297,-0.0779 -0.146485,-0.12305 -0.04519,-0.0452 -0.08718,-0.0933 -0.123046,-0.14648 -0.03587,-0.0532 -0.06656,-0.11007 -0.0918,-0.16993 -0.02523,-0.0599 -0.04532,-0.12423 -0.05859,-0.18945 -0.01328,-0.0652 -0.01953,-0.13192 -0.01953,-0.20117 v -1 h -2 v 1 c 0,0.0692 -0.0063,0.13596 -0.01953,0.20117 -0.01328,0.0652 -0.03336,0.12959 -0.05859,0.18945 -0.02523,0.0599 -0.05593,0.11674 -0.0918,0.16993 -0.03587,0.0532 -0.07786,0.10129 -0.123047,0.14648 -0.04519,0.0452 -0.0933,0.0872 -0.146484,0.12305 -0.05318,0.0359 -0.110063,0.0666 -0.169922,0.0918 -0.05986,0.0252 -0.124241,0.0453 -0.189453,0.0586 -0.06521,0.0133 -0.131922,0.0195 -0.201172,0.0195 -0.06925,0 -0.135957,-0.006 -0.201172,-0.0195 -0.06521,-0.0133 -0.129594,-0.0334 -0.189453,-0.0586 -0.05986,-0.0252 -0.116739,-0.0559 -0.169922,-0.0918 -0.05318,-0.0359 -0.101297,-0.0779 -0.146485,-0.12305 -0.04519,-0.0452 -0.08718,-0.0933 -0.123046,-0.14648 -0.03587,-0.0532 -0.06656,-0.11007 -0.0918,-0.16993 -0.02523,-0.0599 -0.04532,-0.12423 -0.05859,-0.18945 -0.01328,-0.0652 -0.01953,-0.13192 -0.01953,-0.20117 v -1 h -2 v 1 c 0,0.0692 -0.0063,0.13596 -0.01953,0.20117 -0.01328,0.0652 -0.03336,0.12959 -0.05859,0.18945 -0.02523,0.0599 -0.05593,0.11674 -0.0918,0.16993 -0.03587,0.0532 -0.07786,0.10129 -0.123047,0.14648 -0.04519,0.0452 -0.0933,0.0872 -0.146485,0.12305 -0.05318,0.0359 -0.110062,0.0666 -0.169921,0.0918 -0.05986,0.0252 -0.124239,0.0453 -0.189454,0.0586 -0.06521,0.0133 -0.131921,0.0195 -0.201171,0.0195 -0.06925,0 -0.135957,-0.006 -0.201172,-0.0195 -0.06521,-0.0133 -0.129594,-0.0334 -0.189453,-0.0586 -0.05986,-0.0252 -0.116739,-0.0559 -0.169922,-0.0918 -0.05318,-0.0359 -0.101297,-0.0779 -0.146485,-0.12305 -0.04519,-0.0452 -0.08718,-0.0933 -0.123047,-0.14648 -0.03587,-0.0532 -0.06656,-0.11007 -0.0918,-0.16993 -0.02523,-0.0599 -0.04532,-0.12423 -0.05859,-0.18945 -0.01328,-0.0652 -0.01953,-0.13192 -0.01953,-0.20117 v -1 h -2 v 1 c 0,0.0692 -0.0063,0.13596 -0.01953,0.20117 -0.01328,0.0652 -0.03336,0.12959 -0.05859,0.18945 -0.02523,0.0599 -0.05593,0.11674 -0.0918,0.16993 -0.03587,0.0532 -0.07786,0.10129 -0.123047,0.14648 -0.04519,0.0452 -0.0933,0.0872 -0.146485,0.12305 -0.05318,0.0359 -0.110064,0.0666 -0.169921,0.0918 -0.05986,0.0252 -0.124239,0.0453 -0.189454,0.0586 -0.06521,0.0133 -0.131923,0.0195 -0.201171,0.0195 -0.06925,0 -0.135957,-0.006 -0.201172,-0.0195 -0.06521,-0.0133 -0.129596,-0.0334 -0.189453,-0.0586 -0.05986,-0.0252 -0.116739,-0.0559 -0.169922,-0.0918 -0.05318,-0.0359 -0.101297,-0.0779 -0.146485,-0.12305 -0.04519,-0.0452 -0.08718,-0.0933 -0.123047,-0.14648 -0.03587,-0.0532 -0.06656,-0.11007 -0.0918,-0.16993 -0.02523,-0.0599 -0.04532,-0.12423 -0.05859,-0.18945 -0.01328,-0.0652 -0.01953,-0.13192 -0.01953,-0.20117 v -1 z m 2,4 h 12 v 14 h -12 z m 7,4 c -0.874929,0 -1.61401,0.55638 -1.886719,1.33594 -0.317938,-0.21279 -0.700353,-0.33594 -1.113281,-0.33594 -1.107999,0 -2,0.892 -2,2 0,0.0869 0.0069,0.1719 0.01758,0.25586 -0.608453,0.34221 -1.017578,0.99361 -1.017578,1.74414 0,1.108 0.892002,2 2,2 h 5.5 c 1.384996,0 2.5,-1.115 2.5,-2.5 0,-1.21396 -0.855792,-2.22108 -2,-2.45117 3.85e-4,-0.0162 0,-0.0325 0,-0.0488 0,-1.108 -0.892002,-2 -2,-2 z" /><g
         inkscape:label="Capa 1"
         id="layer1-2"
         transform="matrix(2.6996626,0,0,2.6996626,37.254462,-456.80961)"><g
           id="g1467"
           transform="translate(1.8520833,0.79374668)" /></g></g></g></svg>
