<?xml version="1.0" encoding="UTF-8" standalone="no"?>
<!-- Created with Inkscape (http://www.inkscape.org/) -->

<svg
   xmlns:dc="http://purl.org/dc/elements/1.1/"
   xmlns:cc="http://creativecommons.org/ns#"
   xmlns:rdf="http://www.w3.org/1999/02/22-rdf-syntax-ns#"
   xmlns:svg="http://www.w3.org/2000/svg"
   xmlns="http://www.w3.org/2000/svg"
   xmlns:sodipodi="http://sodipodi.sourceforge.net/DTD/sodipodi-0.dtd"
   xmlns:inkscape="http://www.inkscape.org/namespaces/inkscape"
   width="48"
   height="48"
   viewBox="0 0 12.7 12.7"
   version="1.1"
   id="svg8"
   inkscape:version="0.92.3 (2405546, 2018-03-11)"
   sodipodi:docname="folder-remote.svg">
  <defs
     id="defs2" />
  <sodipodi:namedview
     id="base"
     pagecolor="#ffffff"
     bordercolor="#666666"
     borderopacity="1.0"
     inkscape:pageopacity="0.0"
     inkscape:pageshadow="2"
     inkscape:zoom="15.839192"
     inkscape:cx="5.6604779"
     inkscape:cy="23.438386"
     inkscape:document-units="px"
     inkscape:current-layer="layer1"
     showgrid="true"
     units="px"
     inkscape:showpageshadow="false"
     inkscape:snap-bbox="true"
     inkscape:bbox-paths="true"
     inkscape:bbox-nodes="true"
     inkscape:snap-bbox-edge-midpoints="true"
     inkscape:snap-bbox-midpoints="true"
     inkscape:object-paths="true"
     inkscape:snap-intersection-paths="true"
     inkscape:window-width="1874"
     inkscape:window-height="1141"
     inkscape:window-x="46"
     inkscape:window-y="30"
     inkscape:window-maximized="1">
    <inkscape:grid
       type="xygrid"
       id="grid815" />
  </sodipodi:namedview>
  <metadata
     id="metadata5">
    <rdf:RDF>
      <cc:Work
         rdf:about="">
        <dc:format>image/svg+xml</dc:format>
        <dc:type
           rdf:resource="http://purl.org/dc/dcmitype/StillImage" />
        <dc:title></dc:title>
      </cc:Work>
    </rdf:RDF>
  </metadata>
  <g
     inkscape:label="Capa 1"
     inkscape:groupmode="layer"
     id="layer1"
     transform="translate(0,-284.29999)">
    <g
       id="g6602"
       transform="translate(0.52916723,-0.79323333)">
      <path
         inkscape:connector-curvature="0"
         style="color:#000000;font-style:normal;font-variant:normal;font-weight:normal;font-stretch:normal;font-size:medium;line-height:normal;font-family:sans-serif;font-variant-ligatures:normal;font-variant-position:normal;font-variant-caps:normal;font-variant-numeric:normal;font-variant-alternates:normal;font-feature-settings:normal;text-indent:0;text-align:start;text-decoration:none;text-decoration-line:none;text-decoration-style:solid;text-decoration-color:#000000;letter-spacing:normal;word-spacing:normal;text-transform:none;writing-mode:lr-tb;direction:ltr;text-orientation:mixed;dominant-baseline:auto;baseline-shift:baseline;text-anchor:start;white-space:normal;shape-padding:0;clip-rule:nonzero;display:inline;overflow:visible;visibility:visible;opacity:1;isolation:auto;mix-blend-mode:normal;color-interpolation:sRGB;color-interpolation-filters:linearRGB;solid-color:#000000;solid-opacity:1;vector-effect:none;fill:#4f92db;fill-opacity:1;fill-rule:nonzero;stroke:none;stroke-width:0.52916664;stroke-linecap:round;stroke-linejoin:round;stroke-miterlimit:4;stroke-dasharray:none;stroke-dashoffset:0;stroke-opacity:1;color-rendering:auto;image-rendering:auto;shape-rendering:auto;text-rendering:auto;enable-background:accumulate"
         d="m 0.26458254,285.62239 c -0.4351619,0 -0.79375,0.35859 -0.79375,0.79375 v 10.31875 c 0,0.43516 0.3585881,0.79375 0.79375,0.79375 H 11.377083 c 0.435162,0 0.79375,-0.35859 0.79375,-0.79375 v -8.73125 c 0,-0.43516 -0.358588,-0.79375 -0.79375,-0.79375 H 5.5567659 c -0.1338741,0 -0.204828,-0.0441 -0.3054077,-0.15813 -0.1005801,-0.11401 -0.2026518,-0.29867 -0.3162597,-0.50074 -0.1136084,-0.20207 -0.2406949,-0.42267 -0.4335653,-0.60669 -0.1928706,-0.18401 -0.4666379,-0.32194 -0.7973674,-0.32194 z"
         id="path1233-9" />
      <path
         style="opacity:1;vector-effect:none;fill:#5abfff;fill-opacity:1;stroke:none;stroke-width:0.52916664;stroke-linecap:round;stroke-linejoin:round;stroke-miterlimit:4;stroke-dasharray:none;stroke-dashoffset:0;stroke-opacity:1"
         d="M 0.26458265,285.88749 H 3.704165 c 1.0583334,0 0.9912861,1.5875 1.8520834,1.5875 h 5.8208336 c 0.293158,0 0.529167,0.23601 0.529167,0.52917 v 8.73125 c 0,0.29316 -0.236009,0.52916 -0.529167,0.52916 H 0.26458265 c -0.29315847,0 -0.52916651,-0.236 -0.52916651,-0.52916 v -10.31875 c 0,-0.29316 0.23600804,-0.52917 0.52916651,-0.52917 z"
         id="rect993-7"
         inkscape:connector-curvature="0"
         sodipodi:nodetypes="sccssssssss" />
      <path
         inkscape:connector-curvature="0"
         style="color:#000000;font-style:normal;font-variant:normal;font-weight:normal;font-stretch:normal;font-size:medium;line-height:normal;font-family:sans-serif;font-variant-ligatures:normal;font-variant-position:normal;font-variant-caps:normal;font-variant-numeric:normal;font-variant-alternates:normal;font-feature-settings:normal;text-indent:0;text-align:start;text-decoration:none;text-decoration-line:none;text-decoration-style:solid;text-decoration-color:#000000;letter-spacing:normal;word-spacing:normal;text-transform:none;writing-mode:lr-tb;direction:ltr;text-orientation:mixed;dominant-baseline:auto;baseline-shift:baseline;text-anchor:start;white-space:normal;shape-padding:0;clip-rule:nonzero;display:inline;overflow:visible;visibility:visible;opacity:1;isolation:auto;mix-blend-mode:normal;color-interpolation:sRGB;color-interpolation-filters:linearRGB;solid-color:#000000;solid-opacity:1;vector-effect:none;fill:#4f92db;fill-opacity:1;fill-rule:nonzero;stroke:none;stroke-width:0.52916664;stroke-linecap:round;stroke-linejoin:round;stroke-miterlimit:4;stroke-dasharray:none;stroke-dashoffset:0;stroke-opacity:1;color-rendering:auto;image-rendering:auto;shape-rendering:auto;text-rendering:auto;enable-background:accumulate"
         d="m 5.5562492,287.20989 c -0.2965244,0 -0.5402617,0.1538 -0.7022828,0.33745 -0.162021,0.18365 -0.2708169,0.39637 -0.3803385,0.59117 -0.1095214,0.19481 -0.2183329,0.37005 -0.3374472,0.4837 -0.1191141,0.11364 -0.2335774,0.17518 -0.4320149,0.17518 H 0.26458254 c -0.43516259,0 -0.79375,0.35859 -0.79375,0.79375 v 7.14375 c 0,0.43516 0.35858741,0.79375 0.79375,0.79375 H 11.377083 c 0.435163,0 0.79375,-0.35859 0.79375,-0.79375 v -8.73125 c 0,-0.43516 -0.358587,-0.79375 -0.79375,-0.79375 z"
         id="path1270-1" />
      <path
         style="opacity:1;vector-effect:none;fill:#5abfff;fill-opacity:1;stroke:none;stroke-width:0.52916664;stroke-linecap:round;stroke-linejoin:round;stroke-miterlimit:4;stroke-dasharray:none;stroke-dashoffset:0;stroke-opacity:1"
         d="M 0.26458341,289.06249 H 3.7041658 c 1.0583334,0 0.9912861,-1.5875 1.8520834,-1.5875 h 5.8208338 c 0.293158,0 0.529167,0.23601 0.529167,0.52917 v 8.73125 c 0,0.29315 -0.236009,0.52916 -0.529167,0.52916 H 0.26458341 c -0.29315844,0 -0.52916648,-0.23601 -0.52916648,-0.52916 v -7.14375 c 0,-0.29316 0.23600804,-0.52917 0.52916648,-0.52917 z"
         id="rect993-6-1"
         inkscape:connector-curvature="0"
         sodipodi:nodetypes="sccssssssss" />
      <path
         sodipodi:nodetypes="ssssccccccsssssccccccccccccccccccccccccccccccccc"
         id="rect6007-7-5-6"
         d="m 3.4395825,290.64949 c -0.1465792,0 -0.2645833,0.118 -0.2645833,0.26458 v 3.96875 c 0,0.14658 0.1180041,0.26459 0.2645833,0.26459 h 1.0583333 v 0.26458 h 0.2909385 2.0903115 0.2645834 v -0.26458 h 1.0583333 c 0.1465792,0 0.2645833,-0.11801 0.2645833,-0.26459 v -3.96875 c 0,-0.14658 -0.1180041,-0.26458 -0.2645833,-0.26458 z m 0.5291667,0.79374 h 3.7041666 v 2.91042 h -0.79375 v 0.26459 H 4.7624992 v -0.26459 h -0.79375 z m 0.2645833,0.26459 v 2.38125 h 0.79375 v 0.26459 h 1.5875 v -0.26459 h 0.79375 v -2.38125 z m 0.5291667,0.52917 h 0.5291666 v 0.79375 H 4.7624992 Z m 0.79375,0 h 0.5291666 v 0.79375 H 5.5562492 Z m 0.79375,0 h 0.5291666 v 0.79375 H 6.3499992 Z"
         style="opacity:1;fill:#e0f6ff;fill-opacity:1;stroke:none;stroke-width:0.26458332;stroke-linecap:round;stroke-linejoin:bevel;stroke-miterlimit:4;stroke-dasharray:none;stroke-opacity:1"
         inkscape:connector-curvature="0" />
    </g>
  </g>
</svg>
