<?xml version="1.0" encoding="UTF-8" standalone="no"?>
<!-- Created with Inkscape (http://www.inkscape.org/) -->

<svg
   width="48"
   height="48"
   viewBox="0 0 12.7 12.7"
   version="1.1"
   id="svg1399"
   inkscape:version="1.2 (dc2aedaf03, 2022-05-15)"
   sodipodi:docname="folder-torrents.svg"
   xmlns:inkscape="http://www.inkscape.org/namespaces/inkscape"
   xmlns:sodipodi="http://sodipodi.sourceforge.net/DTD/sodipodi-0.dtd"
   xmlns:xlink="http://www.w3.org/1999/xlink"
   xmlns="http://www.w3.org/2000/svg"
   xmlns:svg="http://www.w3.org/2000/svg"
   xmlns:rdf="http://www.w3.org/1999/02/22-rdf-syntax-ns#"
   xmlns:cc="http://creativecommons.org/ns#"
   xmlns:dc="http://purl.org/dc/elements/1.1/">
  <defs
     id="defs1393">
    <linearGradient
       inkscape:collect="always"
       xlink:href="#linearGradient149929"
       id="linearGradient149931"
       x1="-2.9104161"
       y1="286.15259"
       x2="-2.9104161"
       y2="282.97757"
       gradientUnits="userSpaceOnUse" />
    <linearGradient
       inkscape:collect="always"
       id="linearGradient149929">
      <stop
         style="stop-color:#4ea0ee;stop-opacity:1;"
         offset="0"
         id="stop149925" />
      <stop
         style="stop-color:#2988e7;stop-opacity:1;"
         offset="1"
         id="stop149927" />
    </linearGradient>
  </defs>
  <sodipodi:namedview
     id="base"
     pagecolor="#ffffff"
     bordercolor="#666666"
     borderopacity="1.0"
     inkscape:pageopacity="0.0"
     inkscape:pageshadow="2"
     inkscape:zoom="15.839192"
     inkscape:cx="9.1545075"
     inkscape:cy="12.847878"
     inkscape:document-units="px"
     inkscape:current-layer="layer1"
     showgrid="false"
     inkscape:showpageshadow="false"
     units="px"
     inkscape:window-width="2160"
     inkscape:window-height="1337"
     inkscape:window-x="0"
     inkscape:window-y="0"
     inkscape:window-maximized="1"
     inkscape:pagecheckerboard="0"
     inkscape:deskcolor="#d1d1d1" />
  <metadata
     id="metadata1396">
    <rdf:RDF>
      <cc:Work
         rdf:about="">
        <dc:format>image/svg+xml</dc:format>
        <dc:type
           rdf:resource="http://purl.org/dc/dcmitype/StillImage" />
        <dc:title />
      </cc:Work>
    </rdf:RDF>
  </metadata>
  <g
     inkscape:label="Capa 1"
     inkscape:groupmode="layer"
     id="layer1"
     transform="translate(0,-284.30005)">
    <g
       id="g3782"
       transform="translate(5.0270834,1.8521467)">
      <path
         inkscape:connector-curvature="0"
         style="color:#000000;font-style:normal;font-variant:normal;font-weight:normal;font-stretch:normal;font-size:medium;line-height:normal;font-family:sans-serif;font-variant-ligatures:normal;font-variant-position:normal;font-variant-caps:normal;font-variant-numeric:normal;font-variant-alternates:normal;font-feature-settings:normal;text-indent:0;text-align:start;text-decoration:none;text-decoration-line:none;text-decoration-style:solid;text-decoration-color:#000000;letter-spacing:normal;word-spacing:normal;text-transform:none;writing-mode:lr-tb;direction:ltr;text-orientation:mixed;dominant-baseline:auto;baseline-shift:baseline;text-anchor:start;white-space:normal;shape-padding:0;clip-rule:nonzero;display:inline;overflow:visible;visibility:visible;opacity:1;isolation:auto;mix-blend-mode:normal;color-interpolation:sRGB;color-interpolation-filters:linearRGB;solid-color:#000000;solid-opacity:1;vector-effect:none;fill:#286bb2;fill-opacity:1;fill-rule:nonzero;stroke:none;stroke-width:0.529167;stroke-linecap:round;stroke-linejoin:round;stroke-miterlimit:4;stroke-dasharray:none;stroke-dashoffset:0;stroke-opacity:1;color-rendering:auto;image-rendering:auto;shape-rendering:auto;text-rendering:auto;enable-background:accumulate"
         d="m -4.2333332,282.97707 c -0.4351619,0 -0.79375,0.35859 -0.79375,0.79375 v 10.31875 c 0,0.43516 0.3585881,0.79375 0.79375,0.79375 H 6.8791666 c 0.435162,0 0.79375,-0.35859 0.79375,-0.79375 v -8.73125 c 0,-0.43516 -0.358588,-0.79375 -0.79375,-0.79375 H 1.0588503 c -0.13387419,0 -0.20482799,-0.0441 -0.30540779,-0.15813 -0.10058,-0.11401 -0.2026518,-0.29867 -0.3162596,-0.50074 -0.1136084,-0.20207 -0.2406949,-0.42267 -0.4335653,-0.60669 -0.1928707,-0.18401 -0.466638,-0.32194 -0.7973674,-0.32194 z"
         id="path1233" />
      <path
         style="opacity:1;vector-effect:none;fill:url(#linearGradient149931);fill-opacity:1;stroke:none;stroke-width:0.529167;stroke-linecap:round;stroke-linejoin:round;stroke-miterlimit:4;stroke-dasharray:none;stroke-dashoffset:0;stroke-opacity:1"
         d="m -4.2333332,283.24217 h 3.43958231 c 1.0583334,0 0.9912861,1.5875 1.85208339,1.5875 h 5.8208331 c 0.293159,0 0.529167,0.23601 0.529167,0.52917 v 8.73124 c 0,0.29316 -0.236008,0.52917 -0.529167,0.52917 H -4.2333332 c -0.2931585,0 -0.5291665,-0.23601 -0.5291665,-0.52917 v -10.31874 c 0,-0.29316 0.236008,-0.52917 0.5291665,-0.52917 z"
         id="rect993"
         inkscape:connector-curvature="0"
         sodipodi:nodetypes="sccssssssss" />
      <path
         inkscape:connector-curvature="0"
         style="color:#000000;font-style:normal;font-variant:normal;font-weight:normal;font-stretch:normal;font-size:medium;line-height:normal;font-family:sans-serif;font-variant-ligatures:normal;font-variant-position:normal;font-variant-caps:normal;font-variant-numeric:normal;font-variant-alternates:normal;font-feature-settings:normal;text-indent:0;text-align:start;text-decoration:none;text-decoration-line:none;text-decoration-style:solid;text-decoration-color:#000000;letter-spacing:normal;word-spacing:normal;text-transform:none;writing-mode:lr-tb;direction:ltr;text-orientation:mixed;dominant-baseline:auto;baseline-shift:baseline;text-anchor:start;white-space:normal;shape-padding:0;clip-rule:nonzero;display:inline;overflow:visible;visibility:visible;opacity:1;isolation:auto;mix-blend-mode:normal;color-interpolation:sRGB;color-interpolation-filters:linearRGB;solid-color:#000000;solid-opacity:1;vector-effect:none;fill:#3182d9;fill-opacity:1;fill-rule:nonzero;stroke:none;stroke-width:0.529167;stroke-linecap:round;stroke-linejoin:round;stroke-miterlimit:4;stroke-dasharray:none;stroke-dashoffset:0;stroke-opacity:1;color-rendering:auto;image-rendering:auto;shape-rendering:auto;text-rendering:auto;enable-background:accumulate"
         d="m 1.0583333,284.56457 c -0.29652439,0 -0.54026169,0.1538 -0.70228279,0.33745 -0.162021,0.18365 -0.2708169,0.39637 -0.3803385,0.59117 -0.1095214,0.19481 -0.2183329,0.37005 -0.3374472,0.4837 -0.1191141,0.11364 -0.2335774,0.17518 -0.4320149,0.17518 H -4.2333334 c -0.4351626,0 -0.79375,0.35859 -0.79375,0.79375 v 7.14375 c 0,0.43516 0.3585874,0.79375 0.79375,0.79375 h 11.1125 c 0.435163,0 0.79375,-0.35859 0.79375,-0.79375 v -8.73125 c 0,-0.43516 -0.358587,-0.79375 -0.79375,-0.79375 z"
         id="path1270" />
      <path
         style="opacity:1;vector-effect:none;fill:#50c1f9;fill-opacity:1;stroke:none;stroke-width:0.529167;stroke-linecap:round;stroke-linejoin:round;stroke-miterlimit:4;stroke-dasharray:none;stroke-dashoffset:0;stroke-opacity:1"
         d="m -4.2333325,286.41717 h 3.43958241 c 1.0583334,0 0.9912861,-1.5875 1.85208339,-1.5875 h 5.8208333 c 0.293158,0 0.529167,0.23601 0.529167,0.52916 v 8.73125 c 0,0.29316 -0.236009,0.52917 -0.529167,0.52917 H -4.2333325 c -0.2931585,0 -0.5291665,-0.23601 -0.5291665,-0.52917 v -7.14375 c 0,-0.29315 0.236008,-0.52916 0.5291665,-0.52916 z"
         id="rect993-6"
         inkscape:connector-curvature="0"
         sodipodi:nodetypes="sccssssssss" />
    </g>
    <path
       inkscape:connector-curvature="0"
       style="vector-effect:none;fill:#e5f9ff;fill-opacity:1;stroke:none;stroke-width:0.529167;stroke-linecap:round;stroke-linejoin:round;stroke-miterlimit:4;stroke-dasharray:none;stroke-dashoffset:0;stroke-opacity:1;paint-order:normal"
       d="m 7.7111569,290.1214 a 2.6458333,2.6458333 0 0 0 -1.9094439,0.77463 2.6458333,2.6458333 0 0 0 -0.573608,2.88303 2.6458333,2.6458333 0 0 0 2.444295,1.63349 v -0.52916 a 2.1166667,2.1166667 0 0 1 -0.211357,-0.0104 2.1166667,2.1166667 0 0 1 -0.20929,-0.032 2.1166667,2.1166667 0 0 1 -0.204638,-0.0522 2.1166667,2.1166667 0 0 1 -0.198955,-0.0723 2.1166667,2.1166667 0 0 1 -0.190686,-0.092 2.1166667,2.1166667 0 0 1 -0.18035,-0.11059 2.1166667,2.1166667 0 0 1 -0.168465,-0.12816 2.1166667,2.1166667 0 0 1 -0.154513,-0.14417 2.1166667,2.1166667 0 0 1 -0.140043,-0.15917 2.1166667,2.1166667 0 0 1 -0.12299,-0.17208 2.1166667,2.1166667 0 0 1 -0.104903,-0.18345 2.1166667,2.1166667 0 0 1 -0.06925,-0.15038 2.1166667,2.1166667 0 0 1 -0.07131,-0.19896 2.1166667,2.1166667 0 0 1 -0.05064,-0.20567 2.1166667,2.1166667 0 0 1 -0.02997,-0.20929 2.1166667,2.1166667 0 0 1 -0.0093,-0.21135 2.1166667,2.1166667 0 0 1 0.0124,-0.21136 2.1166667,2.1166667 0 0 1 0.03307,-0.20877 2.1166667,2.1166667 0 0 1 0.05374,-0.20464 2.1166667,2.1166667 0 0 1 0.0739,-0.19844 2.1166667,2.1166667 0 0 1 0.09353,-0.18965 2.1166667,2.1166667 0 0 1 0.111621,-0.17932 2.1166667,2.1166667 0 0 1 0.129708,-0.16795 2.1166667,2.1166667 0 0 1 0.112138,-0.12092 2.1166667,2.1166667 0 0 1 0.15658,-0.14211 2.1166667,2.1166667 0 0 1 0.170532,-0.12557 2.1166667,2.1166667 0 0 1 0.181901,-0.10801 2.1166667,2.1166667 0 0 1 0.191719,-0.0894 2.1166667,2.1166667 0 0 1 0.199988,-0.0692 2.1166667,2.1166667 0 0 1 0.205672,-0.0496 2.1166667,2.1166667 0 0 1 0.209807,-0.0284 2.1166667,2.1166667 0 0 1 0.2113561,-0.008 2.1166667,2.1166667 0 0 1 0.2108398,0.0139 2.1166667,2.1166667 0 0 1 0.2087729,0.0346 2.1166667,2.1166667 0 0 1 0.2041219,0.0553 2.1166667,2.1166667 0 0 1 0.1550294,0.0574 2.1166667,2.1166667 0 0 1 0.1912027,0.0904 2.1166667,2.1166667 0 0 1 0.1813843,0.10955 2.1166667,2.1166667 0 0 1 0.1694987,0.12661 2.1166667,2.1166667 0 0 1 0.1555459,0.14314 2.1166667,2.1166667 0 0 1 0.1410769,0.15813 2.1166667,2.1166667 0 0 1 0.1240234,0.17105 2.1166667,2.1166667 0 0 1 0.10697,0.18242 2.1166667,2.1166667 0 0 1 0.08785,0.19275 2.1166667,2.1166667 0 0 1 0.068213,0.20051 2.1166667,2.1166667 0 0 1 0.047542,0.20567 2.1166667,2.1166667 0 0 1 0.027388,0.2098 2.1166667,2.1166667 0 0 1 0.0062,0.16537 h 0.529167 a 2.6458333,2.6458333 0 0 0 -1.6334905,-2.44429 2.6458333,2.6458333 0 0 0 -0.9735841,-0.20103 z m -0.011885,0.79324 a 1.8520833,1.8520833 0 0 0 -1.3363529,0.5426 1.8520833,1.8520833 0 0 0 -0.401525,2.01848 1.8520833,1.8520833 0 0 0 1.711006,1.14308 v -0.52916 a 1.3229167,1.3229167 0 0 1 -0.132291,-0.007 1.3229167,1.3229167 0 0 1 -0.130742,-0.0196 1.3229167,1.3229167 0 0 1 -0.128157,-0.0326 1.3229167,1.3229167 0 0 1 -0.124024,-0.0455 1.3229167,1.3229167 0 0 1 -0.118856,-0.0574 1.3229167,1.3229167 0 0 1 -0.112654,-0.0693 1.3229167,1.3229167 0 0 1 -0.10542,-0.0801 1.3229167,1.3229167 0 0 1 -0.09663,-0.0899 1.3229167,1.3229167 0 0 1 -0.08733,-0.0997 1.3229167,1.3229167 0 0 1 -0.077,-0.10748 1.3229167,1.3229167 0 0 1 -0.06563,-0.11472 1.3229167,1.3229167 0 0 1 -0.04341,-0.0935 1.3229167,1.3229167 0 0 1 -0.04444,-0.12454 1.3229167,1.3229167 0 0 1 -0.03204,-0.12867 1.3229167,1.3229167 0 0 1 -0.0186,-0.13074 1.3229167,1.3229167 0 0 1 -0.0057,-0.1323 1.3229167,1.3229167 0 0 1 0.0077,-0.13177 1.3229167,1.3229167 0 0 1 0.02067,-0.13074 1.3229167,1.3229167 0 0 1 0.03359,-0.12764 1.3229167,1.3229167 0 0 1 0.04599,-0.12403 1.3229167,1.3229167 0 0 1 0.05839,-0.11885 1.3229167,1.3229167 0 0 1 0.07028,-0.11214 1.3229167,1.3229167 0 0 1 0.08061,-0.10439 1.3229167,1.3229167 0 0 1 0.07028,-0.076 1.3229167,1.3229167 0 0 1 0.09819,-0.0889 1.3229167,1.3229167 0 0 1 0.106453,-0.0785 1.3229167,1.3229167 0 0 1 0.113689,-0.0672 1.3229167,1.3229167 0 0 1 0.119889,-0.0558 1.3229167,1.3229167 0 0 1 0.12454,-0.0434 1.3229167,1.3229167 0 0 1 0.128675,-0.031 1.3229167,1.3229167 0 0 1 0.131258,-0.0181 1.3229167,1.3229167 0 0 1 0.1317704,-0.005 1.3229167,1.3229167 0 0 1 0.1322916,0.009 1.3229167,1.3229167 0 0 1 0.1302248,0.0217 1.3229167,1.3229167 0 0 1 0.1276408,0.0346 1.3229167,1.3229167 0 0 1 0.097152,0.0357 1.3229167,1.3229167 0 0 1 0.1193726,0.0563 1.3229167,1.3229167 0 0 1 0.1131715,0.0687 1.3229167,1.3229167 0 0 1 0.1059365,0.0791 1.3229167,1.3229167 0 0 1 0.097152,0.0894 1.3229167,1.3229167 0 0 1 0.088367,0.0987 1.3229167,1.3229167 0 0 1 0.077515,0.10696 1.3229167,1.3229167 0 0 1 0.066662,0.11421 1.3229167,1.3229167 0 0 1 0.054777,0.1204 1.3229167,1.3229167 0 0 1 0.042892,0.12506 1.3229167,1.3229167 0 0 1 0.029972,0.12868 1.3229167,1.3229167 0 0 1 0.016536,0.13125 1.3229167,1.3229167 0 0 1 0.00414,0.10336 H 9.5244198 A 1.8520833,1.8520833 0 0 0 8.381337,291.05524 1.8520833,1.8520833 0 0 0 7.6992081,290.91417 Z m -0.011369,0.79375 a 1.0583333,1.0583333 0 0 0 -0.7637769,0.31005 1.0583333,1.0583333 0 0 0 -0.229444,1.15342 1.0583333,1.0583333 0 0 0 0.977719,0.65319 v -0.52916 a 0.52916667,0.52916667 0 0 1 -0.05271,-0.003 0.52916667,0.52916667 0 0 1 -0.05219,-0.008 0.52916667,0.52916667 0 0 1 -0.05168,-0.0134 0.52916667,0.52916667 0 0 1 -0.04961,-0.0181 0.52916667,0.52916667 0 0 1 -0.04754,-0.0227 0.52916667,0.52916667 0 0 1 -0.04496,-0.0279 0.52916667,0.52916667 0 0 1 -0.04237,-0.032 0.52916667,0.52916667 0 0 1 -0.03876,-0.0362 0.52916667,0.52916667 0 0 1 -0.03462,-0.0393 0.52916667,0.52916667 0 0 1 -0.03101,-0.0434 0.52916667,0.52916667 0 0 1 -0.02636,-0.046 0.52916667,0.52916667 0 0 1 -0.01705,-0.0372 0.52916667,0.52916667 0 0 1 -0.01757,-0.0501 0.52916667,0.52916667 0 0 1 -0.01292,-0.0512 0.52916667,0.52916667 0 0 1 -0.0077,-0.0522 0.52916667,0.52916667 0 0 1 -0.0021,-0.0527 0.52916667,0.52916667 0 0 1 0.0031,-0.0532 0.52916667,0.52916667 0 0 1 0.0083,-0.0522 0.52916667,0.52916667 0 0 1 0.01344,-0.0512 0.52916667,0.52916667 0 0 1 0.0186,-0.0496 0.52916667,0.52916667 0 0 1 0.02325,-0.047 0.52916667,0.52916667 0 0 1 0.0279,-0.045 0.52916667,0.52916667 0 0 1 0.03256,-0.0419 0.52916667,0.52916667 0 0 1 0.0279,-0.0305 0.52916667,0.52916667 0 0 1 0.03927,-0.0356 0.52916667,0.52916667 0 0 1 0.04237,-0.031 0.52916667,0.52916667 0 0 1 0.04547,-0.0274 0.52916667,0.52916667 0 0 1 0.04806,-0.0222 0.52916667,0.52916667 0 0 1 0.05013,-0.0176 0.52916667,0.52916667 0 0 1 0.05116,-0.0119 0.52916667,0.52916667 0 0 1 0.05271,-0.007 0.52916667,0.52916667 0 0 1 0.05271,-0.002 0.52916667,0.52916667 0 0 1 0.05271,0.004 0.52916667,0.52916667 0 0 1 0.052193,0.008 0.52916667,0.52916667 0 0 1 0.05116,0.0139 0.52916667,0.52916667 0 0 1 0.038757,0.0145 0.52916667,0.52916667 0 0 1 0.047542,0.0227 0.52916667,0.52916667 0 0 1 0.045475,0.0274 0.52916667,0.52916667 0 0 1 0.042375,0.0315 0.52916667,0.52916667 0 0 1 0.038757,0.0356 0.52916667,0.52916667 0 0 1 0.03514,0.0398 0.52916667,0.52916667 0 0 1 0.031523,0.0424 0.52916667,0.52916667 0 0 1 0.026355,0.046 0.52916667,0.52916667 0 0 1 0.02222,0.0481 0.52916667,0.52916667 0 0 1 0.017052,0.0501 0.52916667,0.52916667 0 0 1 0.011885,0.0517 0.52916667,0.52916667 0 0 1 0.00672,0.0522 0.52916667,0.52916667 0 0 1 0.00206,0.0414 h 0.5291667 a 1.0583333,1.0583333 0 0 0 -0.6531901,-0.97772 1.0583333,1.0583333 0 0 0 -0.3896402,-0.0806 z m -0.014986,1.5875 v 0.52916 h 4.7624991 v -0.52916 z m 0,0.79375 v 0.52916 h 4.7624991 v -0.52916 z m 0,0.79375 v 0.52916 h 4.7624991 v -0.52916 z"
       id="path835" />
  </g>
</svg>
