<?xml version="1.0" encoding="UTF-8" standalone="no"?>
<!-- Created with Inkscape (http://www.inkscape.org/) -->

<svg
   xmlns:dc="http://purl.org/dc/elements/1.1/"
   xmlns:cc="http://creativecommons.org/ns#"
   xmlns:rdf="http://www.w3.org/1999/02/22-rdf-syntax-ns#"
   xmlns:svg="http://www.w3.org/2000/svg"
   xmlns="http://www.w3.org/2000/svg"
   xmlns:sodipodi="http://sodipodi.sourceforge.net/DTD/sodipodi-0.dtd"
   xmlns:inkscape="http://www.inkscape.org/namespaces/inkscape"
   width="48"
   height="48"
   viewBox="0 0 12.7 12.7"
   version="1.1"
   id="svg8"
   inkscape:version="0.92.4 5da689c313, 2019-01-14"
   sodipodi:docname="folder-open.svg">
  <defs
     id="defs2" />
  <sodipodi:namedview
     id="base"
     pagecolor="#ffffff"
     bordercolor="#666666"
     borderopacity="1.0"
     inkscape:pageopacity="0.0"
     inkscape:pageshadow="2"
     inkscape:zoom="15.839192"
     inkscape:cx="9.8723849"
     inkscape:cy="23.120388"
     inkscape:document-units="px"
     inkscape:current-layer="layer1"
     showgrid="true"
     units="px"
     inkscape:showpageshadow="false"
     inkscape:snap-bbox="true"
     inkscape:bbox-paths="true"
     inkscape:bbox-nodes="true"
     inkscape:snap-bbox-edge-midpoints="true"
     inkscape:snap-bbox-midpoints="true"
     inkscape:object-paths="true"
     inkscape:snap-intersection-paths="true"
     inkscape:window-width="1920"
     inkscape:window-height="991"
     inkscape:window-x="0"
     inkscape:window-y="0"
     inkscape:window-maximized="1">
    <inkscape:grid
       type="xygrid"
       id="grid815" />
  </sodipodi:namedview>
  <metadata
     id="metadata5">
    <rdf:RDF>
      <cc:Work
         rdf:about="">
        <dc:format>image/svg+xml</dc:format>
        <dc:type
           rdf:resource="http://purl.org/dc/dcmitype/StillImage" />
        <dc:title />
      </cc:Work>
    </rdf:RDF>
  </metadata>
  <g
     inkscape:label="Capa 1"
     inkscape:groupmode="layer"
     id="layer1"
     transform="translate(0,-284.29999)">
    <path
       id="path1233-49"
       d="M 0.79375,284.82916 C 0.3585881,284.82916 0,285.18775 0,285.62291 v 10.31875 c 0,0.43516 0.3585881,0.79375 0.79375,0.79375 h 11.1125 c 0.435162,0 0.79375,-0.35859 0.79375,-0.79375 v -8.73125 c 0,-0.43516 -0.358588,-0.79375 -0.79375,-0.79375 H 6.0859334 c -0.1338741,0 -0.204828,-0.0441 -0.3054077,-0.15813 -0.1005801,-0.11401 -0.2026518,-0.29867 -0.3162597,-0.50074 -0.1136084,-0.20207 -0.2406949,-0.42267 -0.4335653,-0.60669 -0.1928706,-0.18401 -0.4666379,-0.32194 -0.7973674,-0.32194 z"
       style="color:#000000;font-style:normal;font-variant:normal;font-weight:normal;font-stretch:normal;font-size:medium;line-height:normal;font-family:sans-serif;font-variant-ligatures:normal;font-variant-position:normal;font-variant-caps:normal;font-variant-numeric:normal;font-variant-alternates:normal;font-feature-settings:normal;text-indent:0;text-align:start;text-decoration:none;text-decoration-line:none;text-decoration-style:solid;text-decoration-color:#000000;letter-spacing:normal;word-spacing:normal;text-transform:none;writing-mode:lr-tb;direction:ltr;text-orientation:mixed;dominant-baseline:auto;baseline-shift:baseline;text-anchor:start;white-space:normal;shape-padding:0;clip-rule:nonzero;display:inline;overflow:visible;visibility:visible;opacity:1;isolation:auto;mix-blend-mode:normal;color-interpolation:sRGB;color-interpolation-filters:linearRGB;solid-color:#000000;solid-opacity:1;vector-effect:none;fill:#4f92db;fill-opacity:1;fill-rule:nonzero;stroke:none;stroke-width:0.52916664;stroke-linecap:round;stroke-linejoin:round;stroke-miterlimit:4;stroke-dasharray:none;stroke-dashoffset:0;stroke-opacity:1;color-rendering:auto;image-rendering:auto;shape-rendering:auto;text-rendering:auto;enable-background:accumulate"
       inkscape:connector-curvature="0" />
    <path
       sodipodi:nodetypes="sccssssssss"
       inkscape:connector-curvature="0"
       id="rect993-3"
       d="m 0.7937503,285.09426 h 3.4395825 c 1.0583333,0 0.9912861,1.5875 1.8520833,1.5875 h 5.8208329 c 0.293159,0 0.529167,0.23601 0.529167,0.52917 v 8.73125 c 0,0.29316 -0.236008,0.52917 -0.529167,0.52917 H 0.7937503 c -0.2931584,0 -0.5291665,-0.23601 -0.5291665,-0.52917 v -10.31875 c 0,-0.29316 0.2360081,-0.52917 0.5291665,-0.52917 z"
       style="opacity:1;vector-effect:none;fill:#5abfff;fill-opacity:1;stroke:none;stroke-width:0.52916664;stroke-linecap:round;stroke-linejoin:round;stroke-miterlimit:4;stroke-dasharray:none;stroke-dashoffset:0;stroke-opacity:1" />
    <g
       transform="matrix(0.26458333,0,0,0.26458333,2.7073528e-7,213.74885)"
       id="layer1-3"
       inkscape:label="Capa 1">
      <g
         transform="translate(53.000007,-13)"
         id="g6914">
        <g
           id="g989"
           transform="matrix(1.4999999,0,0,1.4999999,-142.12668,-119.18607)"
           style="stroke:none">
          <g
             style="stroke:none;stroke-width:2;stroke-linecap:round;stroke-linejoin:round;stroke-miterlimit:4;stroke-dasharray:none;stroke-opacity:1"
             inkscape:label="Capa 1"
             id="layer1-0-6-8"
             transform="translate(100.17173,14.206221)">
            <g
               style="stroke:none;stroke-width:2;stroke-linecap:round;stroke-linejoin:round;stroke-miterlimit:4;stroke-dasharray:none;stroke-opacity:1"
               id="g6719-0-7"
               transform="translate(-40.753942,-34.63084)" />
          </g>
        </g>
        <path
           id="rect854"
           d="m -49.000008,290.64999 h 40.0000004 c 1.108,0 2,0.892 2,2 V 306.65 c 0,1.108 -0.892,2 -2,2 H -49.000008 c -1.108,0 -2,-0.892 -2,-2 v -14.00001 c 0,-1.108 0.892,-2 2,-2 z"
           style="opacity:1;vector-effect:none;fill:#4f92db;fill-opacity:1;stroke:none;stroke-width:2;stroke-linecap:round;stroke-linejoin:round;stroke-miterlimit:4;stroke-dasharray:none;stroke-dashoffset:0;stroke-opacity:1;paint-order:normal"
           inkscape:connector-curvature="0" />
        <path
           id="rect854-3"
           d="m -49.000008,291.64999 h 40.0000004 c 0.554,0 1,0.446 1,1 v 15 c 0,0.554 -0.446,1 -1,1 H -49.000008 c -0.554,0 -1,-0.446 -1,-1 v -15 c 0,-0.554 0.446,-1 1,-1 z"
           style="opacity:1;vector-effect:none;fill:#dcf2ff;fill-opacity:1;stroke:none;stroke-width:2;stroke-linecap:round;stroke-linejoin:round;stroke-miterlimit:4;stroke-dasharray:none;stroke-dashoffset:0;stroke-opacity:1;paint-order:normal"
           inkscape:connector-curvature="0" />
      </g>
    </g>
    <path
       sodipodi:nodetypes="sscsssssssssss"
       id="path1270-93"
       d="m 6.0854167,288.00416 c -0.2965244,0 -0.5402617,0.1538 -0.7022828,0.33745 -0.162021,0.18365 -0.2708169,0.39637 -0.3803385,0.59118 -0.1095214,0.1948 -0.2183329,0.37004 -0.3374472,0.48369 -0.1191141,0.11364 -0.2335774,0.17518 -0.4320149,0.17518 H 0.79375 C 0.3585874,289.59166 0,289.95025 0,290.38541 v 5.55625 c 0,0.43516 0.3585874,0.79375 0.79375,0.79375 h 11.1125 c 0.435163,0 0.79375,-0.35859 0.79375,-0.79375 v -7.14375 c 0,-0.43516 -0.358587,-0.79375 -0.79375,-0.79375 z"
       style="color:#000000;font-style:normal;font-variant:normal;font-weight:normal;font-stretch:normal;font-size:medium;line-height:normal;font-family:sans-serif;font-variant-ligatures:normal;font-variant-position:normal;font-variant-caps:normal;font-variant-numeric:normal;font-variant-alternates:normal;font-feature-settings:normal;text-indent:0;text-align:start;text-decoration:none;text-decoration-line:none;text-decoration-style:solid;text-decoration-color:#000000;letter-spacing:normal;word-spacing:normal;text-transform:none;writing-mode:lr-tb;direction:ltr;text-orientation:mixed;dominant-baseline:auto;baseline-shift:baseline;text-anchor:start;white-space:normal;shape-padding:0;clip-rule:nonzero;display:inline;overflow:visible;visibility:visible;opacity:1;isolation:auto;mix-blend-mode:normal;color-interpolation:sRGB;color-interpolation-filters:linearRGB;solid-color:#000000;solid-opacity:1;vector-effect:none;fill:#4f92db;fill-opacity:1;fill-rule:nonzero;stroke:none;stroke-width:0.52916664;stroke-linecap:round;stroke-linejoin:round;stroke-miterlimit:4;stroke-dasharray:none;stroke-dashoffset:0;stroke-opacity:1;color-rendering:auto;image-rendering:auto;shape-rendering:auto;text-rendering:auto;enable-background:accumulate"
       inkscape:connector-curvature="0" />
    <path
       sodipodi:nodetypes="sccssssssss"
       inkscape:connector-curvature="0"
       id="rect993-6-34"
       d="m 0.7937508,289.85676 h 3.4395825 c 1.0583334,0 0.9912861,-1.5875 1.8520834,-1.5875 H 11.90625 c 0.293158,0 0.529167,0.23601 0.529167,0.52917 v 7.14375 c 0,0.29315 -0.236009,0.52917 -0.529167,0.52917 H 0.7937508 c -0.2931584,0 -0.5291664,-0.23602 -0.5291664,-0.52917 v -5.55625 c 0,-0.29316 0.236008,-0.52917 0.5291664,-0.52917 z"
       style="opacity:1;vector-effect:none;fill:#5abfff;fill-opacity:1;stroke:none;stroke-width:0.52916664;stroke-linecap:round;stroke-linejoin:round;stroke-miterlimit:4;stroke-dasharray:none;stroke-dashoffset:0;stroke-opacity:1" />
  </g>
</svg>
