<?xml version="1.0" encoding="UTF-8" standalone="no"?>
<!-- Created with Inkscape (http://www.inkscape.org/) -->

<svg
   xmlns:dc="http://purl.org/dc/elements/1.1/"
   xmlns:cc="http://creativecommons.org/ns#"
   xmlns:rdf="http://www.w3.org/1999/02/22-rdf-syntax-ns#"
   xmlns:svg="http://www.w3.org/2000/svg"
   xmlns="http://www.w3.org/2000/svg"
   xmlns:sodipodi="http://sodipodi.sourceforge.net/DTD/sodipodi-0.dtd"
   xmlns:inkscape="http://www.inkscape.org/namespaces/inkscape"
   width="48"
   height="48"
   viewBox="0 0 12.7 12.7"
   version="1.1"
   id="svg8"
   inkscape:version="0.92.3 (2405546, 2018-03-11)"
   sodipodi:docname="manjaro.svg">
  <defs
     id="defs2" />
  <sodipodi:namedview
     id="base"
     pagecolor="#ffffff"
     bordercolor="#666666"
     borderopacity="1.0"
     inkscape:pageopacity="0.0"
     inkscape:pageshadow="2"
     inkscape:zoom="15.839192"
     inkscape:cx="5.6604779"
     inkscape:cy="23.438386"
     inkscape:document-units="px"
     inkscape:current-layer="layer1"
     showgrid="true"
     units="px"
     inkscape:showpageshadow="false"
     inkscape:snap-bbox="true"
     inkscape:bbox-paths="true"
     inkscape:bbox-nodes="true"
     inkscape:snap-bbox-edge-midpoints="true"
     inkscape:snap-bbox-midpoints="true"
     inkscape:object-paths="true"
     inkscape:snap-intersection-paths="true"
     inkscape:window-width="1874"
     inkscape:window-height="1141"
     inkscape:window-x="46"
     inkscape:window-y="30"
     inkscape:window-maximized="1">
    <inkscape:grid
       type="xygrid"
       id="grid815" />
  </sodipodi:namedview>
  <metadata
     id="metadata5">
    <rdf:RDF>
      <cc:Work
         rdf:about="">
        <dc:format>image/svg+xml</dc:format>
        <dc:type
           rdf:resource="http://purl.org/dc/dcmitype/StillImage" />
        <dc:title></dc:title>
      </cc:Work>
    </rdf:RDF>
  </metadata>
  <g
     inkscape:label="Capa 1"
     inkscape:groupmode="layer"
     id="layer1"
     transform="translate(0,-284.29999)">
    <g
       id="g8319"
       transform="translate(5.2916668,0.264585)">
      <path
         style="opacity:1;fill:#5e9c76;fill-opacity:1;stroke:none;stroke-width:0.07937501;stroke-miterlimit:4;stroke-dasharray:none;stroke-opacity:1"
         d="m 1.0583269,284.56458 h 1.25e-5 c 3.2247353,0 5.8208273,2.59609 5.8208273,5.82083 0,3.22473 -2.596092,5.82082 -5.8208273,5.82082 h -1.25e-5 c -3.2247416,0 -5.8208272,-2.59609 -5.8208272,-5.82082 0,-3.22474 2.5960856,-5.82083 5.8208272,-5.82083 z"
         id="rect4544-7"
         inkscape:connector-curvature="0" />
      <path
         style="opacity:1;fill:#99c99e;fill-opacity:1;stroke:none;stroke-width:0.07937501;stroke-miterlimit:4;stroke-dasharray:none;stroke-opacity:1"
         d="m 1.0583269,284.82915 h 6.1e-6 c 3.0781623,0 5.5562477,2.47809 5.5562477,5.55625 0,3.07816 -2.4780854,5.55625 -5.5562477,5.55625 h -6.1e-6 c -3.0781622,0 -5.5562478,-2.47809 -5.5562478,-5.55625 0,-3.07816 2.4780856,-5.55625 5.5562478,-5.55625 z"
         id="rect4544-5-75"
         inkscape:connector-curvature="0" />
      <path
         inkscape:connector-curvature="0"
         style="opacity:1;fill:#3e664e;fill-opacity:1;stroke:none;stroke-width:0.52916664;stroke-linecap:round;stroke-linejoin:round;stroke-miterlimit:4;stroke-dasharray:none;stroke-opacity:1"
         d="m -1.5875,287.47499 v 2.38125 H 3.5416669e-8 v -0.79375 H 1.8520833 v -1.5875 H 3.5416669e-8 Z m 3.7041666,0 v 5.82083 h 1.5875 v -5.82083 z m -1.85208326,1.85208 v 3.96875 H 1.8520833 v -3.96875 z M -1.5875,290.12082 v 3.175 H 3.5416668e-8 v -3.175 z"
         id="rect4211-2" />
    </g>
  </g>
</svg>
