<?xml version="1.0" encoding="UTF-8" standalone="no"?>
<!-- Created with Inkscape (http://www.inkscape.org/) -->

<svg
   xmlns:dc="http://purl.org/dc/elements/1.1/"
   xmlns:cc="http://creativecommons.org/ns#"
   xmlns:rdf="http://www.w3.org/1999/02/22-rdf-syntax-ns#"
   xmlns:svg="http://www.w3.org/2000/svg"
   xmlns="http://www.w3.org/2000/svg"
   xmlns:sodipodi="http://sodipodi.sourceforge.net/DTD/sodipodi-0.dtd"
   xmlns:inkscape="http://www.inkscape.org/namespaces/inkscape"
   width="48"
   height="48"
   viewBox="0 0 12.7 12.7"
   version="1.1"
   id="svg8"
   inkscape:version="0.92.4 5da689c313, 2019-01-14"
   sodipodi:docname="opensuse.svg">
  <defs
     id="defs2" />
  <sodipodi:namedview
     id="base"
     pagecolor="#ffffff"
     bordercolor="#666666"
     borderopacity="1.0"
     inkscape:pageopacity="0.0"
     inkscape:pageshadow="2"
     inkscape:zoom="22.4"
     inkscape:cx="14.635798"
     inkscape:cy="27.492635"
     inkscape:document-units="px"
     inkscape:current-layer="layer1"
     showgrid="true"
     units="px"
     inkscape:showpageshadow="false"
     inkscape:snap-bbox="true"
     inkscape:bbox-paths="true"
     inkscape:bbox-nodes="true"
     inkscape:snap-bbox-edge-midpoints="true"
     inkscape:snap-bbox-midpoints="true"
     inkscape:object-paths="true"
     inkscape:snap-intersection-paths="true"
     inkscape:window-width="1870"
     inkscape:window-height="1141"
     inkscape:window-x="50"
     inkscape:window-y="30"
     inkscape:window-maximized="1">
    <inkscape:grid
       type="xygrid"
       id="grid815" />
  </sodipodi:namedview>
  <metadata
     id="metadata5">
    <rdf:RDF>
      <cc:Work
         rdf:about="">
        <dc:format>image/svg+xml</dc:format>
        <dc:type
           rdf:resource="http://purl.org/dc/dcmitype/StillImage" />
        <dc:title />
      </cc:Work>
    </rdf:RDF>
  </metadata>
  <g
     inkscape:label="Capa 1"
     inkscape:groupmode="layer"
     id="layer1"
     transform="translate(0,-284.29999)">
    <path
       style="opacity:1;fill:#28596c;fill-opacity:1;stroke:none;stroke-width:0.07937501;stroke-miterlimit:4;stroke-dasharray:none;stroke-opacity:1"
       d="m 6.3499935,284.82916 h 1.3e-5 c 3.224735,0 5.8208275,2.59609 5.8208275,5.82083 0,3.22473 -2.5960925,5.82083 -5.8208275,5.82083 h -1.3e-5 c -3.224742,0 -5.820827,-2.5961 -5.820827,-5.82083 0,-3.22474 2.596085,-5.82083 5.820827,-5.82083 z"
       id="rect4544"
       inkscape:connector-curvature="0" />
    <path
       style="opacity:1;fill:#23a79b;fill-opacity:1;stroke:none;stroke-width:0.07937501;stroke-miterlimit:4;stroke-dasharray:none;stroke-opacity:1"
       d="m 6.349997,285.09374 h 6e-6 c 3.078162,0 5.556248,2.47809 5.556248,5.55625 0,3.07816 -2.478086,5.55625 -5.556248,5.55625 h -6e-6 c -3.078162,0 -5.556248,-2.47809 -5.556248,-5.55625 0,-3.07816 2.478086,-5.55625 5.556248,-5.55625 z"
       id="rect4544-5"
       inkscape:connector-curvature="0" />
    <path
       style="fill:#e1fff9;fill-opacity:1;stroke:none;stroke-width:0.26458332px;stroke-linecap:butt;stroke-linejoin:miter;stroke-opacity:1"
       d="m 4.4978417,286.68124 v 1.05833 l -1.322917,-0.52917 c -1.418348,3.12463 -0.6313,4.95625 0,6.87917 2.584354,-1.78516 5.796329,1.90956 7.4083343,-2.64583 -1.9938693,1.45774 -4.1395713,0.90132 -5.8208343,-1.5875 2.910417,2.64583 5.027084,1.32291 5.8208343,0.79375 -0.264584,-3.43959 -3.4395843,-3.96876 -6.0854173,-3.96875 z m 3.042708,0.79375 c 0.952765,0 1.719792,0.76702 1.719792,1.71979 0,0.95276 -0.767027,1.71979 -1.719792,1.71979 -0.952764,0 -1.719791,-0.76703 -1.719791,-1.71979 0,-0.95277 0.767027,-1.71979 1.719791,-1.71979 z m 0,0.26458 c -0.806185,0 -1.455208,0.64902 -1.455208,1.45521 0,0.80618 0.649023,1.45521 1.455208,1.45521 0.806186,0 1.455209,-0.64903 1.455209,-1.45521 0,-0.80619 -0.649023,-1.45521 -1.455209,-1.45521 z m 0.396875,0.79375 c 0.292251,0 0.529167,0.17769 0.529167,0.39687 0,0.21919 -0.236916,0.39688 -0.529167,0.39688 -0.29225,0 -0.529166,-0.17769 -0.529166,-0.39688 0,-0.21918 0.236916,-0.39687 0.529166,-0.39687 z"
       id="path859"
       inkscape:connector-curvature="0"
       sodipodi:nodetypes="ccccccccsssssssssssssss" />
  </g>
</svg>
