<?xml version="1.0" encoding="UTF-8" standalone="no"?>
<!-- Created with Inkscape (http://www.inkscape.org/) -->

<svg
   xmlns:dc="http://purl.org/dc/elements/1.1/"
   xmlns:cc="http://creativecommons.org/ns#"
   xmlns:rdf="http://www.w3.org/1999/02/22-rdf-syntax-ns#"
   xmlns:svg="http://www.w3.org/2000/svg"
   xmlns="http://www.w3.org/2000/svg"
   xmlns:sodipodi="http://sodipodi.sourceforge.net/DTD/sodipodi-0.dtd"
   xmlns:inkscape="http://www.inkscape.org/namespaces/inkscape"
   width="48"
   height="48"
   viewBox="0 0 12.7 12.7"
   version="1.1"
   id="svg8"
   inkscape:version="0.92.3 (2405546, 2018-03-11)"
   sodipodi:docname="start-here.svg">
  <defs
     id="defs2" />
  <sodipodi:namedview
     id="base"
     pagecolor="#ffffff"
     bordercolor="#666666"
     borderopacity="1.0"
     inkscape:pageopacity="0.0"
     inkscape:pageshadow="2"
     inkscape:zoom="15.839192"
     inkscape:cx="5.6604779"
     inkscape:cy="23.438386"
     inkscape:document-units="px"
     inkscape:current-layer="layer1"
     showgrid="true"
     units="px"
     inkscape:showpageshadow="false"
     inkscape:snap-bbox="true"
     inkscape:bbox-paths="true"
     inkscape:bbox-nodes="true"
     inkscape:snap-bbox-edge-midpoints="true"
     inkscape:snap-bbox-midpoints="true"
     inkscape:object-paths="true"
     inkscape:snap-intersection-paths="true"
     inkscape:window-width="1874"
     inkscape:window-height="1141"
     inkscape:window-x="46"
     inkscape:window-y="30"
     inkscape:window-maximized="1">
    <inkscape:grid
       type="xygrid"
       id="grid815" />
  </sodipodi:namedview>
  <metadata
     id="metadata5">
    <rdf:RDF>
      <cc:Work
         rdf:about="">
        <dc:format>image/svg+xml</dc:format>
        <dc:type
           rdf:resource="http://purl.org/dc/dcmitype/StillImage" />
        <dc:title></dc:title>
      </cc:Work>
    </rdf:RDF>
  </metadata>
  <g
     inkscape:label="Capa 1"
     inkscape:groupmode="layer"
     id="layer1"
     transform="translate(0,-284.29999)">
    <g
       id="g4498"
       transform="translate(5.0270771,0.264585)">
      <path
         style="opacity:1;fill:#4f92db;fill-opacity:1;stroke:none;stroke-width:0.07937501;stroke-miterlimit:4;stroke-dasharray:none;stroke-opacity:1"
         d="m 1.3229166,284.56458 h 1.25e-5 c 3.2247353,0 5.8208273,2.59609 5.8208273,5.82083 0,3.22473 -2.596092,5.82082 -5.8208273,5.82082 h -1.25e-5 c -3.2247416,0 -5.8208272,-2.59609 -5.8208272,-5.82082 0,-3.22474 2.5960856,-5.82083 5.8208272,-5.82083 z"
         id="rect4544"
         inkscape:connector-curvature="0" />
      <path
         style="opacity:1;fill:#5abfff;fill-opacity:1;stroke:none;stroke-width:0.07937501;stroke-miterlimit:4;stroke-dasharray:none;stroke-opacity:1"
         d="m 1.3229166,284.82915 h 6.1e-6 c 3.0781623,0 5.5562477,2.47809 5.5562477,5.55625 0,3.07816 -2.4780854,5.55625 -5.5562477,5.55625 h -6.1e-6 c -3.0781622,0 -5.5562478,-2.47809 -5.5562478,-5.55625 0,-3.07816 2.4780856,-5.55625 5.5562478,-5.55625 z"
         id="rect4544-5"
         inkscape:connector-curvature="0" />
      <path
         inkscape:connector-curvature="0"
         id="rect4666"
         d="m -0.79374368,287.47499 c -0.43973832,0 -0.79375002,0.35401 -0.79375002,0.79375 0,0.43974 0.3540117,0.79375 0.79375002,0.79375 0.4397383,0 0.79374999875,-0.35401 0.79374999875,-0.79375 0,-0.43974 -0.35401169875,-0.79375 -0.79374999875,-0.79375 z m 2.11666668,0 c -0.43973858,0 -0.79374998,0.35401 -0.79374998,0.79375 0,0.43974 0.3540114,0.79375 0.79374998,0.79375 0.4397383,0 0.79375,-0.35401 0.79375,-0.79375 0,-0.43974 -0.3540117,-0.79375 -0.79375,-0.79375 z m 2.1166667,0 c -0.4397383,0 -0.79375,0.35401 -0.79375,0.79375 0,0.43974 0.3540117,0.79375 0.79375,0.79375 0.4397383,0 0.79375,-0.35401 0.79375,-0.79375 0,-0.43974 -0.3540117,-0.79375 -0.79375,-0.79375 z m -4.23333338,2.11667 c -0.43973832,0 -0.79375002,0.35401 -0.79375002,0.79375 0,0.43973 0.3540117,0.79375 0.79375002,0.79375 0.4397383,0 0.79374999875,-0.35402 0.79374999875,-0.79375 0,-0.43974 -0.35401169875,-0.79375 -0.79374999875,-0.79375 z m 2.11666668,0 c -0.43973858,0 -0.79374998,0.35401 -0.79374998,0.79375 0,0.43973 0.3540114,0.79375 0.79374998,0.79375 0.4397383,0 0.79375,-0.35402 0.79375,-0.79375 0,-0.43974 -0.3540117,-0.79375 -0.79375,-0.79375 z m 2.1166667,0 c -0.4397383,0 -0.79375,0.35401 -0.79375,0.79375 0,0.43973 0.3540117,0.79375 0.79375,0.79375 0.4397383,0 0.79375,-0.35402 0.79375,-0.79375 0,-0.43974 -0.3540117,-0.79375 -0.79375,-0.79375 z m -4.23333338,2.11666 c -0.43973832,0 -0.79375002,0.35401 -0.79375002,0.79375 0,0.43974 0.3540117,0.79375 0.79375002,0.79375 0.4397383,0 0.79374999875,-0.35401 0.79374999875,-0.79375 0,-0.43974 -0.35401169875,-0.79375 -0.79374999875,-0.79375 z m 2.11666668,0 c -0.43973858,0 -0.79374998,0.35401 -0.79374998,0.79375 0,0.43974 0.3540114,0.79375 0.79374998,0.79375 0.4397383,0 0.79375,-0.35401 0.79375,-0.79375 0,-0.43974 -0.3540117,-0.79375 -0.79375,-0.79375 z m 2.1166667,0 c -0.4397383,0 -0.79375,0.35401 -0.79375,0.79375 0,0.43974 0.3540117,0.79375 0.79375,0.79375 0.4397383,0 0.79375,-0.35401 0.79375,-0.79375 0,-0.43974 -0.3540117,-0.79375 -0.79375,-0.79375 z"
         style="opacity:1;fill:#e0f6ff;fill-opacity:1;stroke:none;stroke-width:0.07937501;stroke-miterlimit:4;stroke-dasharray:none;stroke-opacity:1" />
    </g>
  </g>
</svg>
