<?xml version="1.0" encoding="UTF-8" standalone="no"?>
<!-- Created with Inkscape (http://www.inkscape.org/) -->

<svg
   xmlns:dc="http://purl.org/dc/elements/1.1/"
   xmlns:cc="http://creativecommons.org/ns#"
   xmlns:rdf="http://www.w3.org/1999/02/22-rdf-syntax-ns#"
   xmlns:svg="http://www.w3.org/2000/svg"
   xmlns="http://www.w3.org/2000/svg"
   xmlns:sodipodi="http://sodipodi.sourceforge.net/DTD/sodipodi-0.dtd"
   xmlns:inkscape="http://www.inkscape.org/namespaces/inkscape"
   width="48"
   height="48"
   viewBox="0 0 12.7 12.7"
   version="1.1"
   id="svg8"
   inkscape:version="0.92.4 5da689c313, 2019-01-14"
   sodipodi:docname="start-here-kde.svg">
  <defs
     id="defs2" />
  <sodipodi:namedview
     id="base"
     pagecolor="#ffffff"
     bordercolor="#666666"
     borderopacity="1.0"
     inkscape:pageopacity="0.0"
     inkscape:pageshadow="2"
     inkscape:zoom="15.839192"
     inkscape:cx="-4.8829892"
     inkscape:cy="23.438386"
     inkscape:document-units="px"
     inkscape:current-layer="layer1"
     showgrid="true"
     units="px"
     inkscape:showpageshadow="false"
     inkscape:snap-bbox="true"
     inkscape:bbox-paths="true"
     inkscape:bbox-nodes="true"
     inkscape:snap-bbox-edge-midpoints="true"
     inkscape:snap-bbox-midpoints="true"
     inkscape:object-paths="true"
     inkscape:snap-intersection-paths="true"
     inkscape:window-width="1870"
     inkscape:window-height="1141"
     inkscape:window-x="50"
     inkscape:window-y="30"
     inkscape:window-maximized="1">
    <inkscape:grid
       type="xygrid"
       id="grid815" />
  </sodipodi:namedview>
  <metadata
     id="metadata5">
    <rdf:RDF>
      <cc:Work
         rdf:about="">
        <dc:format>image/svg+xml</dc:format>
        <dc:type
           rdf:resource="http://purl.org/dc/dcmitype/StillImage" />
        <dc:title />
      </cc:Work>
    </rdf:RDF>
  </metadata>
  <g
     inkscape:label="Capa 1"
     inkscape:groupmode="layer"
     id="layer1"
     transform="translate(0,-284.29999)">
    <g
       id="g5313"
       transform="translate(3.9687459,-0.264585)">
      <path
         style="opacity:1;fill:#a3b7cc;fill-opacity:1;stroke:none;stroke-width:0.07937501;stroke-miterlimit:4;stroke-dasharray:none;stroke-opacity:1"
         d="m 2.3812478,285.09375 h 1.25e-5 c 3.2247353,0 5.8208273,2.59609 5.8208273,5.82083 0,3.22473 -2.596092,5.82082 -5.8208273,5.82082 h -1.25e-5 c -3.22474156,0 -5.8208272,-2.59609 -5.8208272,-5.82082 0,-3.22474 2.59608564,-5.82083 5.8208272,-5.82083 z"
         id="rect4544-2"
         inkscape:connector-curvature="0" />
      <path
         style="opacity:1;fill:#ffffff;fill-opacity:1;stroke:none;stroke-width:0.07937501;stroke-miterlimit:4;stroke-dasharray:none;stroke-opacity:1"
         d="m 2.3812478,285.35832 h 6.1e-6 c 3.0781623,0 5.5562477,2.47809 5.5562477,5.55625 0,3.07816 -2.4780854,5.55625 -5.5562477,5.55625 h -6.1e-6 c -3.07816216,0 -5.5562478,-2.47809 -5.5562478,-5.55625 0,-3.07816 2.47808564,-5.55625 5.5562478,-5.55625 z"
         id="rect4544-5-2"
         inkscape:connector-curvature="0" />
      <path
         inkscape:connector-curvature="0"
         id="rect4119"
         d="m 0.26458334,287.47499 c 0.4397375,0 0.79374996,0.35401 0.79374996,0.79375 0,0.43974 -0.35401246,0.79375 -0.79374996,0.79375 -0.4397375,0 -0.79375,-0.35401 -0.79375,-0.79375 0,-0.43974 0.3540125,-0.79375 0.79375,-0.79375 z"
         style="fill:#c74343;fill-opacity:1;stroke-width:0.25399923" />
      <path
         inkscape:connector-curvature="0"
         id="rect4308"
         d="m -0.79374996,289.85624 h 8.4e-6 c 0.5863146,0 1.0583291,0.47202 1.0583291,1.05833 v 0 c 0,0.58631 -0.4720145,1.05833 -1.0583291,1.05833 h -8.4e-6 c -0.58631464,0 -1.05832914,-0.47202 -1.05832914,-1.05833 v 0 c 0,-0.58631 0.4720145,-1.05833 1.05832914,-1.05833 z"
         style="fill:#5e9c76;fill-opacity:1;stroke-width:0.23518468" />
      <path
         inkscape:connector-curvature="0"
         id="rect4312"
         d="m 0.52916664,292.50208 c 0.73289606,0 1.32291666,0.59001 1.32291666,1.32291 0,0.7329 -0.5900206,1.32292 -1.32291666,1.32292 -0.7328958,0 -1.3229166,-0.59002 -1.3229166,-1.32292 0,-0.7329 0.5900208,-1.32291 1.3229166,-1.32291 z"
         style="fill:#4f92db;fill-opacity:1;stroke-width:0.20352571" />
      <path
         inkscape:connector-curvature="0"
         id="rect4308-6"
         d="m -0.79375216,290.12083 h 4.3e-6 c 0.4397372,0 0.793747895416667,0.35401 0.793747895416667,0.79375 v 0 c 0,0.43973 -0.354010695416667,0.79374 -0.793747895416667,0.79374 h -4.3e-6 c -0.43973534,0 -0.79374784,-0.35401 -0.79374784,-0.79374 v 0 c 0,-0.43974 0.3540125,-0.79375 0.79374784,-0.79375 z"
         style="fill:#bae0bd;fill-opacity:1;stroke-width:0.1763885" />
      <path
         inkscape:connector-curvature="0"
         id="rect4119-7"
         d="m 0.26458334,287.73958 c 0.2931581,0 0.5291667,0.236 0.5291667,0.52916 0,0.29316 -0.2360086,0.52917 -0.5291667,0.52917 -0.2931586,0 -0.5291667,-0.23601 -0.5291667,-0.52917 0,-0.29316 0.2360081,-0.52916 0.5291667,-0.52916 z"
         style="fill:#f78f8f;fill-opacity:1;stroke-width:0.16933277" />
      <path
         inkscape:connector-curvature="0"
         id="rect4312-5"
         d="m 0.52916664,292.76666 c 0.58631666,0 1.05833336,0.47202 1.05833336,1.05833 0,0.58632 -0.4720167,1.05834 -1.05833336,1.05834 -0.5863166,0 -1.0583333,-0.47202 -1.0583333,-1.05834 0,-0.58631 0.4720167,-1.05833 1.0583333,-1.05833 z"
         style="fill:#5abfff;fill-opacity:1;stroke-width:0.16282058" />
      <path
         id="path4693"
         d="m 3.1708659,286.68124 a 0.26460979,0.26460979 0 0 0 -0.1829346,0.0775 l -1.0583333,1.05833 a 0.26460979,0.26460979 0 0 0 0,0.37414 l 1.9295981,1.9296 -1.9295981,1.92959 a 0.26460979,0.26460979 0 0 0 0,0.37414 l 1.0583333,1.05833 a 0.26460979,0.26460979 0 0 0 0.3741373,0 l 3.175,-3.175 a 0.26460979,0.26460979 0 0 0 0,-0.37413 l -3.175,-3.175 a 0.26460979,0.26460979 0 0 0 -0.1912027,-0.0775 z"
         style="color:#000000;font-style:normal;font-variant:normal;font-weight:normal;font-stretch:normal;font-size:medium;line-height:normal;font-family:sans-serif;font-variant-ligatures:normal;font-variant-position:normal;font-variant-caps:normal;font-variant-numeric:normal;font-variant-alternates:normal;font-feature-settings:normal;text-indent:0;text-align:start;text-decoration:none;text-decoration-line:none;text-decoration-style:solid;text-decoration-color:#000000;letter-spacing:normal;word-spacing:normal;text-transform:none;writing-mode:lr-tb;direction:ltr;text-orientation:mixed;dominant-baseline:auto;baseline-shift:baseline;text-anchor:start;white-space:normal;shape-padding:0;clip-rule:nonzero;display:inline;overflow:visible;visibility:visible;opacity:1;isolation:auto;mix-blend-mode:normal;color-interpolation:sRGB;color-interpolation-filters:linearRGB;solid-color:#000000;solid-opacity:1;vector-effect:none;fill:#345166;fill-opacity:1;fill-rule:nonzero;stroke:none;stroke-width:0.52916664;stroke-linecap:round;stroke-linejoin:round;stroke-miterlimit:4;stroke-dasharray:none;stroke-dashoffset:0;stroke-opacity:1;color-rendering:auto;image-rendering:auto;shape-rendering:auto;text-rendering:auto;enable-background:accumulate"
         inkscape:connector-curvature="0" />
      <path
         inkscape:connector-curvature="0"
         id="path914"
         d="m 2.1166666,292.23749 1.0583334,1.05834 3.175,-3.175 -3.175,-3.175 -1.0583334,1.05833 2.1166667,2.11667 z"
         style="fill:#4b6477;fill-opacity:1;stroke:none;stroke-width:0.52916664;stroke-linecap:round;stroke-linejoin:round;stroke-miterlimit:4;stroke-dasharray:none;stroke-opacity:1"
         sodipodi:nodetypes="ccccccc" />
    </g>
  </g>
</svg>
