<?xml version="1.0" encoding="UTF-8" standalone="no"?>
<!-- Created with Inkscape (http://www.inkscape.org/) -->

<svg
   xmlns:dc="http://purl.org/dc/elements/1.1/"
   xmlns:cc="http://creativecommons.org/ns#"
   xmlns:rdf="http://www.w3.org/1999/02/22-rdf-syntax-ns#"
   xmlns:svg="http://www.w3.org/2000/svg"
   xmlns="http://www.w3.org/2000/svg"
   xmlns:sodipodi="http://sodipodi.sourceforge.net/DTD/sodipodi-0.dtd"
   xmlns:inkscape="http://www.inkscape.org/namespaces/inkscape"
   width="48"
   height="48"
   viewBox="0 0 12.7 12.7"
   version="1.1"
   id="svg8"
   inkscape:version="0.92.4 5da689c313, 2019-01-14"
   sodipodi:docname="ubuntu.svg">
  <defs
     id="defs2" />
  <sodipodi:namedview
     id="base"
     pagecolor="#ffffff"
     bordercolor="#666666"
     borderopacity="1.0"
     inkscape:pageopacity="0.0"
     inkscape:pageshadow="2"
     inkscape:zoom="7.919596"
     inkscape:cx="58.718891"
     inkscape:cy="0.94129009"
     inkscape:document-units="px"
     inkscape:current-layer="g833"
     showgrid="true"
     units="px"
     inkscape:showpageshadow="false"
     inkscape:snap-bbox="true"
     inkscape:bbox-paths="true"
     inkscape:bbox-nodes="true"
     inkscape:snap-bbox-edge-midpoints="true"
     inkscape:snap-bbox-midpoints="true"
     inkscape:object-paths="true"
     inkscape:snap-intersection-paths="true"
     inkscape:window-width="1870"
     inkscape:window-height="1141"
     inkscape:window-x="50"
     inkscape:window-y="30"
     inkscape:window-maximized="1">
    <inkscape:grid
       type="xygrid"
       id="grid815" />
  </sodipodi:namedview>
  <metadata
     id="metadata5">
    <rdf:RDF>
      <cc:Work
         rdf:about="">
        <dc:format>image/svg+xml</dc:format>
        <dc:type
           rdf:resource="http://purl.org/dc/dcmitype/StillImage" />
        <dc:title />
      </cc:Work>
    </rdf:RDF>
  </metadata>
  <g
     inkscape:label="Capa 1"
     inkscape:groupmode="layer"
     id="layer1"
     transform="translate(0,-284.29999)">
    <g
       id="g833"
       transform="translate(-8.4666662,-7.6729165)">
      <g
         transform="translate(14.022916,8.2020815)"
         id="g8345">
        <path
           inkscape:connector-curvature="0"
           id="rect4544"
           d="m 0.79374387,284.3 h 1.25e-5 c 3.22473533,0 5.82082733,2.59609 5.82082733,5.82083 0,3.22473 -2.596092,5.82082 -5.82082733,5.82082 h -1.25e-5 c -3.22474157,0 -5.82082717,-2.59609 -5.82082717,-5.82082 0,-3.22474 2.5960856,-5.82083 5.82082717,-5.82083 z"
           style="opacity:1;fill:#d16040;fill-opacity:1;stroke:none;stroke-width:0.07937501;stroke-miterlimit:4;stroke-dasharray:none;stroke-opacity:1" />
        <path
           inkscape:connector-curvature="0"
           id="rect4544-5"
           d="m 0.79374387,284.56457 h 6.1e-6 c 3.07816233,0 5.55624773,2.47809 5.55624773,5.55625 0,3.07816 -2.4780854,5.55625 -5.55624773,5.55625 h -6.1e-6 c -3.07816217,0 -5.55624787,-2.47809 -5.55624787,-5.55625 0,-3.07816 2.4780857,-5.55625 5.55624787,-5.55625 z"
           style="opacity:1;fill:#ff8f64;fill-opacity:1;stroke:none;stroke-width:0.07937501;stroke-miterlimit:4;stroke-dasharray:none;stroke-opacity:1" />
      </g>
      <path
         style="fill:#fefefe;fill-opacity:1;stroke:none;stroke-width:1.85714304;stroke-linecap:round;stroke-linejoin:round;stroke-miterlimit:4;stroke-dasharray:none;stroke-opacity:1"
         d="M 29 7 C 27.338002 7 26 8.3379906 26 10 C 26 11.662009 27.338002 13 29 13 C 30.662002 13 32 11.662009 32 10 C 32 8.3379906 30.662002 7 29 7 z M 24.3125 11.001953 L 24.3125 11.003906 A 13 13 0 0 0 16.919922 13.097656 L 19.642578 17.291016 A 7.9999997 7.9999997 0 0 1 20.333984 16.888672 A 7.9999997 7.9999997 0 0 1 21.0625 16.558594 A 7.9999997 7.9999997 0 0 1 21.820312 16.302734 A 7.9999997 7.9999997 0 0 1 22.599609 16.123047 A 7.9999997 7.9999997 0 0 1 23.392578 16.023438 A 7.9999997 7.9999997 0 0 1 24.191406 16.001953 A 7.9999997 7.9999997 0 0 1 24.669922 16.023438 A 7.9999997 7.9999997 0 0 1 25.462891 16.130859 A 7.9999997 7.9999997 0 0 1 26.240234 16.316406 A 7.9999997 7.9999997 0 0 1 26.996094 16.578125 A 7.9999997 7.9999997 0 0 1 27.435547 16.771484 A 7.9999997 7.9999997 0 0 1 28.140625 17.150391 A 7.9999997 7.9999997 0 0 1 28.802734 17.597656 A 7.9999997 7.9999997 0 0 1 29.417969 18.109375 A 7.9999997 7.9999997 0 0 1 29.978516 18.679688 A 7.9999997 7.9999997 0 0 1 30.478516 19.302734 A 7.9999997 7.9999997 0 0 1 30.916016 19.974609 A 7.9999997 7.9999997 0 0 1 31.28125 20.683594 A 7.9999997 7.9999997 0 0 1 31.576172 21.427734 A 7.9999997 7.9999997 0 0 1 31.794922 22.197266 L 36.666016 21.074219 A 13 13 0 0 0 31.917969 13.697266 C 31.882441 13.735817 31.867269 13.791086 31.830078 13.828125 C 31.468566 14.189448 31.039421 14.48372 30.560547 14.685547 C 30.081673 14.887374 29.553999 14.998047 29 14.998047 C 28.446001 14.998047 27.918327 14.887374 27.439453 14.685547 C 26.960576 14.48372 26.531422 14.189637 26.169922 13.828125 C 25.80841 13.466802 25.514376 13.037498 25.3125 12.558594 C 25.116154 12.09288 25.013709 11.578389 25.007812 11.041016 A 13 13 0 0 0 24.3125 11.001953 z M 14.648438 14.96875 A 13 13 0 0 0 11.308594 21.261719 C 11.388342 21.288175 11.483218 21.280752 11.560547 21.3125 C 12.039424 21.514327 12.468578 21.80841 12.830078 22.169922 C 13.19159 22.531245 13.485624 22.960587 13.6875 23.439453 C 13.889365 23.918357 14 24.445959 14 25 C 14 25.553965 13.889365 26.081681 13.6875 26.560547 C 13.485635 27.039413 13.191579 27.468566 12.830078 27.830078 C 12.540302 28.11959 12.180407 28.327695 11.8125 28.517578 A 13 13 0 0 0 15.644531 33.958984 L 18.857422 30.128906 A 7.9999997 7.9999997 0 0 1 18.734375 30.023438 A 7.9999997 7.9999997 0 0 1 18.158203 29.466797 A 7.9999997 7.9999997 0 0 1 17.642578 28.855469 A 7.9999997 7.9999997 0 0 1 17.189453 28.197266 A 7.9999997 7.9999997 0 0 1 16.804688 27.496094 A 7.9999997 7.9999997 0 0 1 16.492188 26.759766 A 7.9999997 7.9999997 0 0 1 16.253906 25.996094 A 7.9999997 7.9999997 0 0 1 16.09375 25.212891 A 7.9999997 7.9999997 0 0 1 16.011719 24.417969 A 7.9999997 7.9999997 0 0 1 16.005859 24.257812 A 7.9999997 7.9999997 0 0 1 16.019531 23.457031 A 7.9999997 7.9999997 0 0 1 16.113281 22.664062 A 7.9999997 7.9999997 0 0 1 16.287109 21.882812 A 7.9999997 7.9999997 0 0 1 16.537109 21.123047 A 7.9999997 7.9999997 0 0 1 16.861328 20.392578 A 7.9999997 7.9999997 0 0 1 17.255859 19.697266 A 7.9999997 7.9999997 0 0 1 17.720703 19.044922 A 7.9999997 7.9999997 0 0 1 18.246094 18.443359 L 14.648438 14.96875 z M 9 22 C 7.3380019 22 6 23.337991 6 25 C 6 26.661972 7.3380019 28 9 28 C 10.662002 28 12 26.661972 12 25 C 12 23.337991 10.662002 22 9 22 z M 36.96875 23.09375 L 31.980469 23.441406 A 7.9999997 7.9999997 0 0 1 32 23.958984 A 7.9999997 7.9999997 0 0 1 31.964844 24.757812 A 7.9999997 7.9999997 0 0 1 31.849609 25.548828 A 7.9999997 7.9999997 0 0 1 31.654297 26.324219 A 7.9999997 7.9999997 0 0 1 31.384766 27.076172 A 7.9999997 7.9999997 0 0 1 31.041016 27.798828 A 7.9999997 7.9999997 0 0 1 30.626953 28.482422 A 7.9999997 7.9999997 0 0 1 30.144531 29.121094 A 7.9999997 7.9999997 0 0 1 29.603516 29.708984 A 7.9999997 7.9999997 0 0 1 29.005859 30.240234 A 7.9999997 7.9999997 0 0 1 28.357422 30.708984 A 7.9999997 7.9999997 0 0 1 27.914062 30.976562 A 7.9999997 7.9999997 0 0 1 27.199219 31.332031 A 7.9999997 7.9999997 0 0 1 26.451172 31.615234 A 7.9999997 7.9999997 0 0 1 25.677734 31.822266 A 7.9999997 7.9999997 0 0 1 24.888672 31.951172 A 7.9999997 7.9999997 0 0 1 24.089844 32 A 7.9999997 7.9999997 0 0 1 23.291016 31.970703 A 7.9999997 7.9999997 0 0 1 22.5 31.861328 A 7.9999997 7.9999997 0 0 1 21.722656 31.671875 A 7.9999997 7.9999997 0 0 1 20.96875 31.40625 A 7.9999997 7.9999997 0 0 1 20.244141 31.066406 L 17.896484 35.480469 A 13 13 0 0 0 29.183594 35.921875 C 29.11046 35.618379 29 35.328467 29 35.001953 C 29 34.44795 29.110635 33.92031 29.3125 33.441406 C 29.514365 32.96254 29.808421 32.533349 30.169922 32.171875 C 30.531434 31.810174 30.960576 31.516318 31.439453 31.314453 C 31.918327 31.112626 32.446001 31.001953 33 31.001953 C 33.553999 31.001953 34.081669 31.112626 34.560547 31.314453 C 34.607111 31.333351 34.637937 31.377272 34.683594 31.398438 A 13 13 0 0 0 36.96875 23.095703 L 36.96875 23.09375 z M 34 33 C 32.337998 33 31 34.337991 31 36 C 31 37.662009 32.337998 39 34 39 C 35.661998 39 37 37.662009 37 36 C 37 34.337991 35.661998 33 34 33 z "
         transform="matrix(0.26458333,0,0,0.26458333,8.4666662,291.97291)"
         id="path826" />
    </g>
  </g>
</svg>
