<?xml version="1.0" encoding="UTF-8" standalone="no"?>
<!-- Created with Inkscape (http://www.inkscape.org/) -->

<svg
   width="48"
   height="48"
   viewBox="0 0 12.7 12.7"
   version="1.1"
   id="svg8"
   inkscape:version="1.2 (dc2aedaf03, 2022-05-15)"
   sodipodi:docname="ubuntu.svg"
   xmlns:inkscape="http://www.inkscape.org/namespaces/inkscape"
   xmlns:sodipodi="http://sodipodi.sourceforge.net/DTD/sodipodi-0.dtd"
   xmlns="http://www.w3.org/2000/svg"
   xmlns:svg="http://www.w3.org/2000/svg"
   xmlns:rdf="http://www.w3.org/1999/02/22-rdf-syntax-ns#"
   xmlns:cc="http://creativecommons.org/ns#"
   xmlns:dc="http://purl.org/dc/elements/1.1/">
  <defs
     id="defs2" />
  <sodipodi:namedview
     id="base"
     pagecolor="#ffffff"
     bordercolor="#666666"
     borderopacity="1.0"
     inkscape:pageopacity="0.0"
     inkscape:pageshadow="2"
     inkscape:zoom="7.919596"
     inkscape:cx="56.568542"
     inkscape:cy="0.947018"
     inkscape:document-units="px"
     inkscape:current-layer="g833"
     showgrid="true"
     units="px"
     inkscape:showpageshadow="false"
     inkscape:snap-bbox="true"
     inkscape:bbox-paths="true"
     inkscape:bbox-nodes="true"
     inkscape:snap-bbox-edge-midpoints="true"
     inkscape:snap-bbox-midpoints="true"
     inkscape:object-paths="true"
     inkscape:snap-intersection-paths="true"
     inkscape:window-width="2160"
     inkscape:window-height="1337"
     inkscape:window-x="0"
     inkscape:window-y="0"
     inkscape:window-maximized="1"
     inkscape:pagecheckerboard="0"
     inkscape:deskcolor="#d1d1d1">
    <inkscape:grid
       type="xygrid"
       id="grid815" />
  </sodipodi:namedview>
  <metadata
     id="metadata5">
    <rdf:RDF>
      <cc:Work
         rdf:about="">
        <dc:format>image/svg+xml</dc:format>
        <dc:type
           rdf:resource="http://purl.org/dc/dcmitype/StillImage" />
        <dc:title />
      </cc:Work>
    </rdf:RDF>
  </metadata>
  <g
     inkscape:label="Capa 1"
     inkscape:groupmode="layer"
     id="layer1"
     transform="translate(0,-284.29999)">
    <g
       id="g833"
       transform="translate(-8.4666662,-7.6729165)">
      <g
         transform="translate(14.022916,8.2020815)"
         id="g8345">
        <path
           inkscape:connector-curvature="0"
           id="rect4544"
           d="m 0.79374387,284.3 h 1.25e-5 c 3.22473533,0 5.82082733,2.59609 5.82082733,5.82083 0,3.22473 -2.596092,5.82082 -5.82082733,5.82082 h -1.25e-5 c -3.22474157,0 -5.82082717,-2.59609 -5.82082717,-5.82082 0,-3.22474 2.5960856,-5.82083 5.82082717,-5.82083 z"
           style="opacity:1;fill:#d16040;fill-opacity:1;stroke:none;stroke-width:0.07937501;stroke-miterlimit:4;stroke-dasharray:none;stroke-opacity:1" />
        <path
           inkscape:connector-curvature="0"
           id="rect4544-5"
           d="m 0.79374387,284.56457 h 6.1e-6 c 3.07816233,0 5.55624773,2.47809 5.55624773,5.55625 0,3.07816 -2.4780854,5.55625 -5.55624773,5.55625 h -6.1e-6 c -3.07816217,0 -5.55624787,-2.47809 -5.55624787,-5.55625 0,-3.07816 2.4780857,-5.55625 5.55624787,-5.55625 z"
           style="opacity:1;fill:#ff8f64;fill-opacity:1;stroke:none;stroke-width:0.07937501;stroke-miterlimit:4;stroke-dasharray:none;stroke-opacity:1" />
      </g>
      <path
         id="path3414"
         style="fill:#fefefe;fill-opacity:1;stroke-width:0.547414;stroke-linecap:round;stroke-linejoin:round"
         d="m 16.139583,294.08957 a 1.3229166,1.3229166 0 0 0 -1.322917,1.32292 1.3229166,1.3229166 0 0 0 1.322917,1.32292 1.3229166,1.3229166 0 0 0 1.322917,-1.32292 1.3229166,1.3229166 0 0 0 -1.322917,-1.32292 z m -1.322917,0.26459 a 3.96875,3.96875 0 0 0 -3.86488,3.07061 1.5875,1.5875 0 0 1 0.127124,-0.0568 1.5875,1.5875 0 0 1 0.182934,-0.0574 1.5875,1.5875 0 0 1 0.188619,-0.0346 1.5875,1.5875 0 0 1 0.191203,-0.0114 1.5875,1.5875 0 0 1 0.06408,0.001 1.5875,1.5875 0 0 1 0.06356,0.004 1.5875,1.5875 0 0 1 0.06356,0.006 1.5875,1.5875 0 0 1 0.06356,0.009 1.5875,1.5875 0 0 1 0.06253,0.0114 1.5875,1.5875 0 0 1 0.06253,0.014 1.5875,1.5875 0 0 1 0.06201,0.0165 1.5875,1.5875 0 0 1 0.06098,0.0191 1.5875,1.5875 0 0 1 0.05995,0.0217 1.5875,1.5875 0 0 1 0.05943,0.0238 1.5875,1.5875 0 0 1 0.0584,0.0263 1.5875,1.5875 0 0 1 0.0088,0.004 2.6458333,2.6458333 0 0 1 2.247925,-1.73426 1.5875,1.5875 0 0 1 -0.0155,-0.0842 1.5875,1.5875 0 0 1 -0.01137,-0.1912 1.5875,1.5875 0 0 1 0.01137,-0.1912 1.5875,1.5875 0 0 1 0.03462,-0.18862 1.5875,1.5875 0 0 1 0.05736,-0.18294 1.5875,1.5875 0 0 1 0.07855,-0.17518 1.5875,1.5875 0 0 1 0.09922,-0.16381 1.5875,1.5875 0 0 1 0.118339,-0.1509 1.5875,1.5875 0 0 1 0.0031,-0.003 3.96875,3.96875 0 0 0 -0.137976,-0.003 z m 2.897498,1.25728 a 1.5875,1.5875 0 0 1 -0.03307,0.18087 1.5875,1.5875 0 0 1 -0.05736,0.18294 1.5875,1.5875 0 0 1 -0.07855,0.17518 1.5875,1.5875 0 0 1 -0.09922,0.16381 1.5875,1.5875 0 0 1 -0.118339,0.1509 1.5875,1.5875 0 0 1 -0.135392,0.13539 1.5875,1.5875 0 0 1 -0.150895,0.11834 1.5875,1.5875 0 0 1 -0.08372,0.0506 2.6458333,2.6458333 0 0 1 0.504879,1.5534 2.6458333,2.6458333 0 0 1 -0.264584,1.1498 1.5875,1.5875 0 0 1 0.03359,0.0119 1.5875,1.5875 0 0 1 0.05943,0.0238 1.5875,1.5875 0 0 1 0.05839,0.0264 1.5875,1.5875 0 0 1 0.05736,0.0284 1.5875,1.5875 0 0 1 0.05581,0.031 1.5875,1.5875 0 0 1 0.05478,0.0331 1.5875,1.5875 0 0 1 0.05323,0.0351 1.5875,1.5875 0 0 1 0.05168,0.0372 1.5875,1.5875 0 0 1 0.05064,0.0393 1.5875,1.5875 0 0 1 0.04857,0.0419 1.5875,1.5875 0 0 1 0.04703,0.0429 1.5875,1.5875 0 0 1 0.04547,0.0455 1.5875,1.5875 0 0 1 0.04289,0.047 1.5875,1.5875 0 0 1 0.04186,0.0486 1.5875,1.5875 0 0 1 0.03927,0.0506 1.5875,1.5875 0 0 1 0.03721,0.0517 1.5875,1.5875 0 0 1 0.03514,0.0532 1.5875,1.5875 0 0 1 0.03307,0.0548 1.5875,1.5875 0 0 1 0.03101,0.0558 1.5875,1.5875 0 0 1 0.02842,0.0574 1.5875,1.5875 0 0 1 0.02635,0.0584 1.5875,1.5875 0 0 1 0.02377,0.0594 1.5875,1.5875 0 0 1 0.01447,0.0403 3.96875,3.96875 0 0 0 0.61805,-2.12338 3.96875,3.96875 0 0 0 -1.071252,-2.71147 z m -6.072498,1.91772 a 1.3229166,1.3229166 0 0 0 -1.322916,1.32291 1.3229166,1.3229166 0 0 0 1.322916,1.32292 1.3229166,1.3229166 0 0 0 1.322917,-1.32292 1.3229166,1.3229166 0 0 0 -1.322917,-1.32291 z m 5.027084,2.11666 a 1.3229166,1.3229166 0 0 0 -1.322917,1.32292 1.3229166,1.3229166 0 0 0 1.322917,1.32292 1.3229166,1.3229166 0 0 0 1.322916,-1.32292 1.3229166,1.3229166 0 0 0 -1.322916,-1.32292 z m -3.91294,0.3328 a 1.5875,1.5875 0 0 1 -0.0615,0.0615 1.5875,1.5875 0 0 1 -0.150895,0.11834 1.5875,1.5875 0 0 1 -0.163814,0.0992 1.5875,1.5875 0 0 1 -0.175183,0.0786 1.5875,1.5875 0 0 1 -0.182935,0.0574 1.5875,1.5875 0 0 1 -0.188619,0.0346 1.5875,1.5875 0 0 1 -0.191203,0.0114 1.5875,1.5875 0 0 1 -0.187585,-0.0114 3.96875,3.96875 0 0 0 3.362585,1.86346 3.96875,3.96875 0 0 0 0.850594,-0.0946 1.5875,1.5875 0 0 1 -0.05116,-0.0403 1.5875,1.5875 0 0 1 -0.135393,-0.13539 1.5875,1.5875 0 0 1 -0.118339,-0.1509 1.5875,1.5875 0 0 1 -0.09922,-0.16381 1.5875,1.5875 0 0 1 -0.07855,-0.17518 1.5875,1.5875 0 0 1 -0.05736,-0.18294 1.5875,1.5875 0 0 1 -0.03462,-0.18862 1.5875,1.5875 0 0 1 -0.01137,-0.1912 1.5875,1.5875 0 0 1 10e-4,-0.0145 2.6458333,2.6458333 0 0 1 -0.265617,0.0145 2.6458333,2.6458333 0 0 1 -2.060856,-0.99012 z" />
    </g>
  </g>
</svg>
