<?xml version="1.0" encoding="UTF-8" standalone="no"?>
<!-- Created with Inkscape (http://www.inkscape.org/) -->

<svg
   xmlns:dc="http://purl.org/dc/elements/1.1/"
   xmlns:cc="http://creativecommons.org/ns#"
   xmlns:rdf="http://www.w3.org/1999/02/22-rdf-syntax-ns#"
   xmlns:svg="http://www.w3.org/2000/svg"
   xmlns="http://www.w3.org/2000/svg"
   xmlns:sodipodi="http://sodipodi.sourceforge.net/DTD/sodipodi-0.dtd"
   xmlns:inkscape="http://www.inkscape.org/namespaces/inkscape"
   width="48"
   height="48"
   viewBox="0 0 12.7 12.7"
   version="1.1"
   id="svg8"
   inkscape:version="0.92.3 (2405546, 2018-03-11)"
   sodipodi:docname="user-home.svg">
  <defs
     id="defs2" />
  <sodipodi:namedview
     id="base"
     pagecolor="#ffffff"
     bordercolor="#666666"
     borderopacity="1.0"
     inkscape:pageopacity="0.0"
     inkscape:pageshadow="2"
     inkscape:zoom="15.839192"
     inkscape:cx="5.6604779"
     inkscape:cy="23.438386"
     inkscape:document-units="px"
     inkscape:current-layer="layer1"
     showgrid="true"
     units="px"
     inkscape:showpageshadow="false"
     inkscape:snap-bbox="true"
     inkscape:bbox-paths="true"
     inkscape:bbox-nodes="true"
     inkscape:snap-bbox-edge-midpoints="true"
     inkscape:snap-bbox-midpoints="true"
     inkscape:object-paths="true"
     inkscape:snap-intersection-paths="true"
     inkscape:window-width="1874"
     inkscape:window-height="1141"
     inkscape:window-x="46"
     inkscape:window-y="30"
     inkscape:window-maximized="1">
    <inkscape:grid
       type="xygrid"
       id="grid815" />
  </sodipodi:namedview>
  <metadata
     id="metadata5">
    <rdf:RDF>
      <cc:Work
         rdf:about="">
        <dc:format>image/svg+xml</dc:format>
        <dc:type
           rdf:resource="http://purl.org/dc/dcmitype/StillImage" />
        <dc:title></dc:title>
      </cc:Work>
    </rdf:RDF>
  </metadata>
  <g
     inkscape:label="Capa 1"
     inkscape:groupmode="layer"
     id="layer1"
     transform="translate(0,-284.29999)">
    <g
       id="g2341"
       transform="translate(5.5562501,0.66145667)">
      <path
         inkscape:connector-curvature="0"
         style="color:#000000;font-style:normal;font-variant:normal;font-weight:normal;font-stretch:normal;font-size:medium;line-height:normal;font-family:sans-serif;font-variant-ligatures:normal;font-variant-position:normal;font-variant-caps:normal;font-variant-numeric:normal;font-variant-alternates:normal;font-feature-settings:normal;text-indent:0;text-align:start;text-decoration:none;text-decoration-line:none;text-decoration-style:solid;text-decoration-color:#000000;letter-spacing:normal;word-spacing:normal;text-transform:none;writing-mode:lr-tb;direction:ltr;text-orientation:mixed;dominant-baseline:auto;baseline-shift:baseline;text-anchor:start;white-space:normal;shape-padding:0;clip-rule:nonzero;display:inline;overflow:visible;visibility:visible;opacity:1;isolation:auto;mix-blend-mode:normal;color-interpolation:sRGB;color-interpolation-filters:linearRGB;solid-color:#000000;solid-opacity:1;vector-effect:none;fill:#4f92db;fill-opacity:1;fill-rule:nonzero;stroke:none;stroke-width:0.52916664;stroke-linecap:round;stroke-linejoin:round;stroke-miterlimit:4;stroke-dasharray:none;stroke-dashoffset:0;stroke-opacity:1;color-rendering:auto;image-rendering:auto;shape-rendering:auto;text-rendering:auto;enable-background:accumulate"
         d="m -4.7624999,284.1677 c -0.4351619,0 -0.79375,0.35859 -0.79375,0.79375 v 10.31875 c 0,0.43516 0.3585881,0.79375 0.79375,0.79375 H 6.3499999 c 0.435162,0 0.79375,-0.35859 0.79375,-0.79375 v -8.73125 c 0,-0.43516 -0.358588,-0.79375 -0.79375,-0.79375 H 0.52968365 c -0.1338742,0 -0.204828,-0.0441 -0.3054078,-0.15813 -0.10058,-0.11401 -0.2026518,-0.29867 -0.3162596,-0.50074 -0.1136084,-0.20207 -0.2406949,-0.42267 -0.4335653,-0.60669 -0.1928707,-0.18401 -0.466638,-0.32194 -0.79736745,-0.32194 z"
         id="path1233" />
      <path
         style="opacity:1;vector-effect:none;fill:#5ac0ff;fill-opacity:1;stroke:none;stroke-width:0.52916664;stroke-linecap:round;stroke-linejoin:round;stroke-miterlimit:4;stroke-dasharray:none;stroke-dashoffset:0;stroke-opacity:1"
         d="m -4.7624999,284.4328 h 3.4395823 c 1.05833345,0 0.99128615,1.5875 1.85208345,1.5875 H 6.3499989 c 0.293159,0 0.529167,0.23601 0.529167,0.52917 v 8.73125 c 0,0.29316 -0.236008,0.52917 -0.529167,0.52917 H -4.7624999 c -0.2931585,0 -0.5291665,-0.23601 -0.5291665,-0.52917 v -10.31875 c 0,-0.29316 0.236008,-0.52917 0.5291665,-0.52917 z"
         id="rect993"
         inkscape:connector-curvature="0"
         sodipodi:nodetypes="sccssssssss" />
      <path
         inkscape:connector-curvature="0"
         style="color:#000000;font-style:normal;font-variant:normal;font-weight:normal;font-stretch:normal;font-size:medium;line-height:normal;font-family:sans-serif;font-variant-ligatures:normal;font-variant-position:normal;font-variant-caps:normal;font-variant-numeric:normal;font-variant-alternates:normal;font-feature-settings:normal;text-indent:0;text-align:start;text-decoration:none;text-decoration-line:none;text-decoration-style:solid;text-decoration-color:#000000;letter-spacing:normal;word-spacing:normal;text-transform:none;writing-mode:lr-tb;direction:ltr;text-orientation:mixed;dominant-baseline:auto;baseline-shift:baseline;text-anchor:start;white-space:normal;shape-padding:0;clip-rule:nonzero;display:inline;overflow:visible;visibility:visible;opacity:1;isolation:auto;mix-blend-mode:normal;color-interpolation:sRGB;color-interpolation-filters:linearRGB;solid-color:#000000;solid-opacity:1;vector-effect:none;fill:#4f92db;fill-opacity:1;fill-rule:nonzero;stroke:none;stroke-width:0.52916664;stroke-linecap:round;stroke-linejoin:round;stroke-miterlimit:4;stroke-dasharray:none;stroke-dashoffset:0;stroke-opacity:1;color-rendering:auto;image-rendering:auto;shape-rendering:auto;text-rendering:auto;enable-background:accumulate"
         d="m 0.52916665,285.7552 c -0.2965244,0 -0.5402617,0.1538 -0.7022828,0.33745 -0.162021,0.18365 -0.2708169,0.39637 -0.3803385,0.59117 -0.1095214,0.19481 -0.2183329,0.37005 -0.3374472,0.4837 -0.11911415,0.11364 -0.23357745,0.17518 -0.43201495,0.17518 h -3.4395833 c -0.4351625,0 -0.79375,0.35859 -0.79375,0.79375 v 7.14375 c 0,0.43516 0.3585875,0.79375 0.79375,0.79375 h 11.1125 c 0.435163,0 0.79375,-0.35859 0.79375,-0.79375 v -8.73125 c 0,-0.43516 -0.358587,-0.79375 -0.79375,-0.79375 z"
         id="path1270" />
      <path
         style="opacity:1;vector-effect:none;fill:#5ac0ff;fill-opacity:1;stroke:none;stroke-width:0.52916664;stroke-linecap:round;stroke-linejoin:round;stroke-miterlimit:4;stroke-dasharray:none;stroke-dashoffset:0;stroke-opacity:1"
         d="m -4.7624992,287.6078 h 3.4395824 c 1.05833345,0 0.99128615,-1.5875 1.85208345,-1.5875 H 6.3499999 c 0.293158,0 0.529167,0.23601 0.529167,0.52917 v 8.73125 c 0,0.29315 -0.236009,0.52917 -0.529167,0.52917 H -4.7624992 c -0.2931584,0 -0.5291665,-0.23602 -0.5291665,-0.52917 v -7.14375 c 0,-0.29316 0.2360081,-0.52917 0.5291665,-0.52917 z"
         id="rect993-6"
         inkscape:connector-curvature="0"
         sodipodi:nodetypes="sccssssssss" />
      <path
         id="path4570-2"
         d="m 0.77876345,288.93072 a 0.26460979,0.26460979 0 0 0 -0.1829345,0.0884 l -2.11666675,2.38125 a 0.26460979,0.26460979 0 0 0 0.1979208,0.44029 h 0.2645833 v 1.85208 c 0,0.14658 0.11800425,0.26458 0.26458335,0.26458 H 2.3812496 c 0.1465792,0 0.2645834,-0.118 0.2645834,-0.26458 v -1.85208 h 0.2645833 a 0.26460979,0.26460979 0 0 0 0.1979208,-0.44029 L 2.645833,290.87999 v -0.89142 c 0,-0.14658 -0.1180042,-0.26458 -0.2645834,-0.26458 -0.1465791,0 -0.2645833,0.118 -0.2645833,0.26458 v 0.29611 l -1.12499585,-1.26556 a 0.26460979,0.26460979 0 0 0 -0.212907,-0.0884 z"
         style="color:#000000;font-style:normal;font-variant:normal;font-weight:normal;font-stretch:normal;font-size:medium;line-height:normal;font-family:sans-serif;font-variant-ligatures:normal;font-variant-position:normal;font-variant-caps:normal;font-variant-numeric:normal;font-variant-alternates:normal;font-feature-settings:normal;text-indent:0;text-align:start;text-decoration:none;text-decoration-line:none;text-decoration-style:solid;text-decoration-color:#000000;letter-spacing:normal;word-spacing:normal;text-transform:none;writing-mode:lr-tb;direction:ltr;text-orientation:mixed;dominant-baseline:auto;baseline-shift:baseline;text-anchor:start;white-space:normal;shape-padding:0;clip-rule:nonzero;display:inline;overflow:visible;visibility:visible;opacity:1;isolation:auto;mix-blend-mode:normal;color-interpolation:sRGB;color-interpolation-filters:linearRGB;solid-color:#000000;solid-opacity:1;vector-effect:none;fill:#e1f7ff;fill-opacity:1;fill-rule:nonzero;stroke:none;stroke-width:0.52916664;stroke-linecap:butt;stroke-linejoin:miter;stroke-miterlimit:4;stroke-dasharray:none;stroke-dashoffset:0;stroke-opacity:1;color-rendering:auto;image-rendering:auto;shape-rendering:auto;text-rendering:auto;enable-background:accumulate"
         inkscape:connector-curvature="0" />
    </g>
  </g>
</svg>
