<?xml version="1.0" encoding="UTF-8" standalone="no"?>
<!-- Created with Inkscape (http://www.inkscape.org/) -->

<svg
   xmlns:dc="http://purl.org/dc/elements/1.1/"
   xmlns:cc="http://creativecommons.org/ns#"
   xmlns:rdf="http://www.w3.org/1999/02/22-rdf-syntax-ns#"
   xmlns:svg="http://www.w3.org/2000/svg"
   xmlns="http://www.w3.org/2000/svg"
   xmlns:sodipodi="http://sodipodi.sourceforge.net/DTD/sodipodi-0.dtd"
   xmlns:inkscape="http://www.inkscape.org/namespaces/inkscape"
   width="48"
   height="48"
   viewBox="0 0 12.7 12.7"
   version="1.1"
   id="svg8"
   inkscape:version="0.92.3 (2405546, 2018-03-11)"
   sodipodi:docname="user-trash-full.svg">
  <defs
     id="defs2" />
  <sodipodi:namedview
     id="base"
     pagecolor="#ffffff"
     bordercolor="#666666"
     borderopacity="1.0"
     inkscape:pageopacity="0.0"
     inkscape:pageshadow="2"
     inkscape:zoom="15.839192"
     inkscape:cx="5.6604779"
     inkscape:cy="23.438386"
     inkscape:document-units="px"
     inkscape:current-layer="layer1"
     showgrid="true"
     units="px"
     inkscape:showpageshadow="false"
     inkscape:snap-bbox="true"
     inkscape:bbox-paths="true"
     inkscape:bbox-nodes="true"
     inkscape:snap-bbox-edge-midpoints="true"
     inkscape:snap-bbox-midpoints="true"
     inkscape:object-paths="true"
     inkscape:snap-intersection-paths="true"
     inkscape:window-width="1874"
     inkscape:window-height="1141"
     inkscape:window-x="46"
     inkscape:window-y="30"
     inkscape:window-maximized="1">
    <inkscape:grid
       type="xygrid"
       id="grid815" />
  </sodipodi:namedview>
  <metadata
     id="metadata5">
    <rdf:RDF>
      <cc:Work
         rdf:about="">
        <dc:format>image/svg+xml</dc:format>
        <dc:type
           rdf:resource="http://purl.org/dc/dcmitype/StillImage" />
        <dc:title></dc:title>
      </cc:Work>
    </rdf:RDF>
  </metadata>
  <g
     inkscape:label="Capa 1"
     inkscape:groupmode="layer"
     id="layer1"
     transform="translate(0,-284.29999)">
    <g
       id="g1560"
       transform="translate(5.8208333,0.264585)">
      <path
         style="opacity:1;fill:#4f92db;fill-opacity:1;stroke:none;stroke-width:0.07937501;stroke-miterlimit:4;stroke-dasharray:none;stroke-opacity:1"
         d="m -1.3229175,284.82916 h 2.6458331 c 0.14658,0 0.2645841,0.11801 0.2645841,0.26459 v 3.175 c 0,0.14658 -0.1180041,0.26458 -0.2645841,0.26458 h -2.6458331 c -0.1465789,0 -0.264583,-0.118 -0.264583,-0.26458 v -3.175 c 0,-0.14658 0.1180041,-0.26459 0.264583,-0.26459 z"
         id="rect4936"
         inkscape:connector-curvature="0" />
      <path
         style="opacity:1;fill:#5ac0ff;fill-opacity:1;stroke:none;stroke-width:0.07937501;stroke-miterlimit:4;stroke-dasharray:none;stroke-opacity:1"
         d="m -1.3229175,285.09375 h 2.6458342 v 3.175 h -2.6458342 z"
         id="rect4938"
         inkscape:connector-curvature="0" />
      <path
         style="opacity:1;fill:#ba9b48;fill-opacity:1;stroke:none;stroke-width:0.07937501;stroke-miterlimit:4;stroke-dasharray:none;stroke-opacity:1"
         d="m 1.0583185,285.35834 h 2.6458611 c 0.1465721,0 0.2645701,0.118 0.2645701,0.26457 v 2.64586 c 0,0.14657 -0.117998,0.26457 -0.2645701,0.26457 H 1.0583185 c -0.1465709,0 -0.264569,-0.118 -0.264569,-0.26457 v -2.64586 c 0,-0.14657 0.1179981,-0.26457 0.264569,-0.26457 z"
         id="rect4944"
         inkscape:connector-curvature="0" />
      <path
         style="opacity:1;fill:#5e9c76;fill-opacity:1;stroke:none;stroke-width:0.07937501;stroke-miterlimit:4;stroke-dasharray:none;stroke-opacity:1"
         d="M -2.6458333,286.41666 H -5e-7 c 0.1465791,0 0.264583,0.118 0.264583,0.26458 v 1.5875 c 0,0.14658 -0.1180039,0.26458 -0.264583,0.26458 h -2.6458328 c -0.1465803,0 -0.2645842,-0.118 -0.2645842,-0.26458 v -1.5875 c 0,-0.14658 0.1180039,-0.26458 0.2645842,-0.26458 z"
         id="rect4932"
         inkscape:connector-curvature="0" />
      <path
         style="opacity:1;fill:#99c99e;fill-opacity:1;stroke:none;stroke-width:0.07937501;stroke-miterlimit:4;stroke-dasharray:none;stroke-opacity:1"
         d="M -2.6458333,286.68124 H -5e-7 v 1.5875 h -2.6458328 z"
         id="rect4934"
         inkscape:connector-curvature="0" />
      <path
         style="opacity:1;fill:#ffeea3;fill-opacity:1;stroke:none;stroke-width:0.07937501;stroke-miterlimit:4;stroke-dasharray:none;stroke-opacity:1"
         d="m 1.0583325,285.62289 h 2.6458331 v 2.64584 H 1.0583325 Z"
         id="rect4946"
         inkscape:connector-curvature="0" />
      <path
         style="opacity:1;fill:#c74343;fill-opacity:1;stroke:none;stroke-width:0.07937501;stroke-miterlimit:4;stroke-dasharray:none;stroke-opacity:1"
         d="m 0.7937455,286.68124 h 1.852091 c 0.1465771,0 0.2645791,0.11801 0.2645791,0.26458 v 1.32293 c 0,0.14657 -0.118002,0.26458 -0.2645791,0.26458 h -1.852091 c -0.1465768,0 -0.2645799,-0.11801 -0.2645799,-0.26458 v -1.32293 c 0,-0.14657 0.1180031,-0.26458 0.2645799,-0.26458 z"
         id="rect4940"
         inkscape:connector-curvature="0" />
      <path
         style="opacity:1;fill:#f78f8f;fill-opacity:1;stroke:none;stroke-width:0.07937501;stroke-miterlimit:4;stroke-dasharray:none;stroke-opacity:1"
         d="m 0.7937495,286.94583 h 1.852083 v 1.32292 h -1.852083 z"
         id="rect4942"
         inkscape:connector-curvature="0" />
      <path
         inkscape:connector-curvature="0"
         style="opacity:1;fill:#b1c2d5;fill-opacity:1;stroke:none;stroke-width:0.52916664;stroke-linecap:round;stroke-linejoin:round;stroke-miterlimit:4;stroke-dasharray:none;stroke-opacity:1"
         d="m -2.6458333,288.00415 c -0.2931578,0 -0.5291667,0.23601 -0.5291667,0.52917 v 0.26458 3.43958 2.64584 c 0,0.58632 0.4720132,1.05833 1.0583333,1.05833 H 3.175 c 0.5863201,0 1.0583333,-0.47201 1.0583333,-1.05833 v -5.82084 -0.26458 -0.26458 c 0,-0.29316 -0.2360088,-0.52917 -0.5291666,-0.52917 z"
         id="rect4627-5" />
      <path
         id="rect4639-0"
         d="m -2.6458333,288.26874 c -0.1465792,0 -0.2645834,0.118 -0.2645834,0.26458 v 0.52917 0.52916 1.85209 3.43958 c 0,0.43973 0.3540181,0.79375 0.79375,0.79375 H 3.175 c 0.4397319,0 0.79375,-0.35402 0.79375,-0.79375 v -3.43958 -1.85209 -0.52916 -0.52917 c 0,-0.14658 -0.1180042,-0.26458 -0.2645833,-0.26458 z m 1.4552083,1.32291 c 0.2198688,0 0.396875,0.17701 0.396875,0.39688 v 3.96875 c 0,0.21987 -0.1770062,0.39687 -0.396875,0.39687 -0.2198687,0 -0.396875,-0.177 -0.396875,-0.39687 v -3.96875 c 0,-0.21987 0.1770063,-0.39688 0.396875,-0.39688 z m 1.5875,0 c 0.2198688,0 0.396875,0.17701 0.396875,0.39688 v 3.96875 c 0,0.21987 -0.1770062,0.39687 -0.396875,0.39687 C 0.1770063,294.35415 0,294.17715 0,293.95728 v -3.96875 c 0,-0.21987 0.1770063,-0.39688 0.396875,-0.39688 z m 1.5875,0 c 0.2198688,0 0.396875,0.17701 0.396875,0.39688 v 3.96875 c 0,0.21987 -0.1770062,0.39687 -0.396875,0.39687 -0.2198687,0 -0.396875,-0.177 -0.396875,-0.39687 v -3.96875 c 0,-0.21987 0.1770063,-0.39688 0.396875,-0.39688 z"
         style="opacity:1;fill:#dfe9f2;fill-opacity:1;stroke:none;stroke-width:0.52916664;stroke-linecap:round;stroke-linejoin:round;stroke-miterlimit:4;stroke-dasharray:none;stroke-opacity:1"
         inkscape:connector-curvature="0" />
    </g>
  </g>
</svg>
