<?xml version="1.0" encoding="UTF-8" standalone="no"?>
<!-- Created with Inkscape (http://www.inkscape.org/) -->

<svg
   xmlns:dc="http://purl.org/dc/elements/1.1/"
   xmlns:cc="http://creativecommons.org/ns#"
   xmlns:rdf="http://www.w3.org/1999/02/22-rdf-syntax-ns#"
   xmlns:svg="http://www.w3.org/2000/svg"
   xmlns="http://www.w3.org/2000/svg"
   xmlns:sodipodi="http://sodipodi.sourceforge.net/DTD/sodipodi-0.dtd"
   xmlns:inkscape="http://www.inkscape.org/namespaces/inkscape"
   width="48"
   height="48"
   viewBox="0 0 12.7 12.7"
   version="1.1"
   id="svg8"
   inkscape:version="0.92.3 (2405546, 2018-03-11)"
   sodipodi:docname="user-trash.svg">
  <defs
     id="defs2" />
  <sodipodi:namedview
     id="base"
     pagecolor="#ffffff"
     bordercolor="#666666"
     borderopacity="1.0"
     inkscape:pageopacity="0.0"
     inkscape:pageshadow="2"
     inkscape:zoom="15.839192"
     inkscape:cx="5.6604779"
     inkscape:cy="23.438386"
     inkscape:document-units="px"
     inkscape:current-layer="layer1"
     showgrid="true"
     units="px"
     inkscape:showpageshadow="false"
     inkscape:snap-bbox="true"
     inkscape:bbox-paths="true"
     inkscape:bbox-nodes="true"
     inkscape:snap-bbox-edge-midpoints="true"
     inkscape:snap-bbox-midpoints="true"
     inkscape:object-paths="true"
     inkscape:snap-intersection-paths="true"
     inkscape:window-width="1874"
     inkscape:window-height="1141"
     inkscape:window-x="46"
     inkscape:window-y="30"
     inkscape:window-maximized="1">
    <inkscape:grid
       type="xygrid"
       id="grid815" />
  </sodipodi:namedview>
  <metadata
     id="metadata5">
    <rdf:RDF>
      <cc:Work
         rdf:about="">
        <dc:format>image/svg+xml</dc:format>
        <dc:type
           rdf:resource="http://purl.org/dc/dcmitype/StillImage" />
        <dc:title></dc:title>
      </cc:Work>
    </rdf:RDF>
  </metadata>
  <g
     inkscape:label="Capa 1"
     inkscape:groupmode="layer"
     id="layer1"
     transform="translate(0,-284.29999)">
    <g
       id="g1408"
       transform="translate(5.55625,0.52916667)">
      <path
         inkscape:connector-curvature="0"
         style="opacity:1;fill:#b2c2d5;fill-opacity:1;stroke:none;stroke-width:0.52916664;stroke-linecap:round;stroke-linejoin:round;stroke-miterlimit:4;stroke-dasharray:none;stroke-opacity:1"
         d="m -0.26458331,284.82916 c -0.4397319,0 -0.79375009,0.35402 -0.79375009,0.79375 v 0.79375 h -1.5874999 c -0.4397375,0 -0.79375,0.35402 -0.79375,0.79375 v 0.26458 0.79375 h 0.5291667 v 3.70417 2.64583 c 0,0.58632 0.4720132,1.05834 1.0583332,1.05834 h 5.2916668 c 0.5863201,0 1.0583333,-0.47202 1.0583333,-1.05834 v -5.82083 -0.52917 h 0.5291667 v -0.79375 -0.26458 c 0,-0.43973 -0.3540123,-0.79375 -0.79375,-0.79375 h -1.5875 v -0.79375 c 0,-0.43973 -0.3540181,-0.79375 -0.79375,-0.79375 z M 0,285.88749 h 1.5875 v 0.52917 H 0 Z"
         id="rect4627" />
      <path
         id="rect4639"
         d="m -0.26458331,285.09374 c -0.2931652,0 -0.5291667,0.236 -0.5291667,0.52917 v 0.26458 0.52917 h 0.5291667 v -0.79375 H 1.8520834 v 0.79375 H 2.38125 v -0.52917 -0.26458 c 0,-0.29317 -0.2360014,-0.52917 -0.5291666,-0.52917 z m -2.38124999,1.5875 c -0.2931518,0 -0.5291667,0.23602 -0.5291667,0.52917 v 0.26458 0.52917 H -2.6458333 4.2333334 4.7625 v -0.52917 -0.26458 c 0,-0.29315 -0.2360149,-0.52917 -0.5291666,-0.52917 z m 0,1.5875 v 1.05834 1.85208 3.43958 c 0,0.43974 0.354018,0.79375 0.79375,0.79375 h 5.2916667 c 0.4397319,0 0.79375,-0.35401 0.79375,-0.79375 v -3.43958 -1.85208 -1.05834 z m 1.71979159,1.05834 c 0.2198688,0 0.3968751,0.177 0.3968751,0.39687 v 3.96875 c 0,0.21987 -0.1770063,0.39688 -0.3968751,0.39688 -0.21986869,0 -0.39687499,-0.17701 -0.39687499,-0.39688 v -3.96875 c 0,-0.21987 0.1770063,-0.39687 0.39687499,-0.39687 z m 1.5875001,0 c 0.2198687,0 0.39687501,0.177 0.39687501,0.39687 v 3.96875 c 0,0.21987 -0.17700631,0.39688 -0.39687501,0.39688 -0.2198688,0 -0.396875,-0.17701 -0.396875,-0.39688 v -3.96875 c 0,-0.21987 0.1770062,-0.39687 0.396875,-0.39687 z m 1.58750001,0 c 0.2198687,0 0.396875,0.177 0.396875,0.39687 v 3.96875 c 0,0.21987 -0.1770063,0.39688 -0.396875,0.39688 -0.2198688,0 -0.396875,-0.17701 -0.396875,-0.39688 v -3.96875 c 0,-0.21987 0.1770062,-0.39687 0.396875,-0.39687 z"
         style="opacity:1;fill:#e0eaf2;fill-opacity:1;stroke:none;stroke-width:0.52916664;stroke-linecap:round;stroke-linejoin:round;stroke-miterlimit:4;stroke-dasharray:none;stroke-opacity:1"
         inkscape:connector-curvature="0" />
    </g>
  </g>
</svg>
