<?xml version="1.0" encoding="UTF-8" standalone="no"?>
<!-- Created with Inkscape (http://www.inkscape.org/) -->

<svg
   xmlns:dc="http://purl.org/dc/elements/1.1/"
   xmlns:cc="http://creativecommons.org/ns#"
   xmlns:rdf="http://www.w3.org/1999/02/22-rdf-syntax-ns#"
   xmlns:svg="http://www.w3.org/2000/svg"
   xmlns="http://www.w3.org/2000/svg"
   xmlns:sodipodi="http://sodipodi.sourceforge.net/DTD/sodipodi-0.dtd"
   xmlns:inkscape="http://www.inkscape.org/namespaces/inkscape"
   width="64"
   height="64"
   viewBox="0 0 16.933333 16.933333"
   version="1.1"
   id="svg1399"
   inkscape:version="0.92.4 5da689c313, 2019-01-14"
   sodipodi:docname="audio-mp3.svg">
  <defs
     id="defs1393" />
  <sodipodi:namedview
     id="base"
     pagecolor="#ffffff"
     bordercolor="#666666"
     borderopacity="1.0"
     inkscape:pageopacity="0.0"
     inkscape:pageshadow="2"
     inkscape:zoom="11.2"
     inkscape:cx="20.607816"
     inkscape:cy="25.618236"
     inkscape:document-units="px"
     inkscape:current-layer="layer1"
     showgrid="false"
     inkscape:showpageshadow="false"
     units="px"
     inkscape:window-width="1920"
     inkscape:window-height="1049"
     inkscape:window-x="0"
     inkscape:window-y="0"
     inkscape:window-maximized="1" />
  <metadata
     id="metadata1396">
    <rdf:RDF>
      <cc:Work
         rdf:about="">
        <dc:format>image/svg+xml</dc:format>
        <dc:type
           rdf:resource="http://purl.org/dc/dcmitype/StillImage" />
        <dc:title></dc:title>
      </cc:Work>
    </rdf:RDF>
  </metadata>
  <g
     inkscape:label="Capa 1"
     inkscape:groupmode="layer"
     id="layer1"
     transform="translate(0,-280.06672)">
    <g
       id="g1638"
       transform="translate(12.442301,-3.4887691)">
      <g
         inkscape:label="Capa 1"
         id="layer1-6"
         transform="matrix(0.26458333,0,0,0.26458333,-12.442301,217.23768)">
        <g
           id="g1769"
           transform="translate(38,-6)">
          <path
             inkscape:connector-curvature="0"
             id="rect971"
             transform="translate(-84,264.64999)"
             d="m 55,-7 c -2.216,0 -4,1.784 -4,4 v 14 4 36 c 0,2.216 1.784,4 4,4 h 46 c 2.216,0 4,-1.784 4,-4 V 15 11 10 -3 c 0,-2.216 -1.784,-4 -4,-4 z"
             style="opacity:1;vector-effect:none;fill:#2764c9;fill-opacity:1;stroke:none;stroke-width:2;stroke-linecap:round;stroke-linejoin:round;stroke-miterlimit:4;stroke-dasharray:none;stroke-dashoffset:0;stroke-opacity:1" />
          <path
             inkscape:connector-curvature="0"
             transform="translate(-84,264.64999)"
             id="rect971-2"
             d="m 55,-6 c -1.662,0 -3,1.338 -3,3 v 12 2 3 37 c 0,1.662 1.338,3 3,3 h 46 c 1.662,0 3,-1.338 3,-3 V 14 11 9 -3 c 0,-1.662 -1.338,-3 -3,-3 z"
             style="opacity:1;vector-effect:none;fill:#4f8df8;fill-opacity:1;stroke:none;stroke-width:2;stroke-linecap:round;stroke-linejoin:round;stroke-miterlimit:4;stroke-dasharray:none;stroke-dashoffset:0;stroke-opacity:1" />
        </g>
      </g>
      <g
         inkscape:label="Capa 1"
         id="layer1-67"
         transform="matrix(0.26458333,0,0,0.26458333,-12.442301,215.38558)">
        <g
           transform="translate(-6,-93.00001)"
           id="g1529" />
        <g
           id="g9421"
           transform="translate(23.999999,-1.569155)">
          <path
             style="opacity:1;fill:#eff0f3;fill-opacity:1;stroke:none;stroke-width:1;stroke-opacity:1"
             d="M 15.5 5 C 14.669001 5 14 5.6689953 14 6.5 C 14 7.3310047 14.669001 8 15.5 8 C 16.331 8 17 7.3310047 17 6.5 C 17 5.6689953 16.331 5 15.5 5 z M 10.5 7 C 9.6689998 7 9 7.6689953 9 8.5 C 9 9.3310047 9.6689998 10 10.5 10 C 11.330999 10 12 9.3310047 12 8.5 C 12 7.6689953 11.330999 7 10.5 7 z M 15.5 10 C 14.669001 10 14 10.668995 14 11.5 C 14 12.331005 14.669001 13 15.5 13 C 16.331 13 17 12.331005 17 11.5 C 17 10.668995 16.331 10 15.5 10 z M 10.5 12 C 9.6689998 12 9 12.669033 9 13.5 C 9 14.331005 9.6689998 15 10.5 15 C 11.330999 15 12 14.331005 12 13.5 C 12 12.669033 11.330999 12 10.5 12 z M 10.5 17 C 9.6689998 17 9 17.668995 9 18.5 C 9 19.331005 9.6689998 20 10.5 20 C 11.330999 20 12 19.331005 12 18.5 C 12 17.668995 11.330999 17 10.5 17 z M 28 17 L 23 19 L 23 21 L 23 23 L 23 25.345703 C 22.544438 25.129513 22.039614 25 21.5 25 C 19.561 25 18 26.56099 18 28.5 C 18 30.43901 19.561 32 21.5 32 C 23.439003 32 25 30.43901 25 28.5 L 25 22.199219 L 28 21 L 28 17 z M 37 20 L 30 23 L 30 34.023438 C 28.990178 33.378507 27.792062 33 26.5 33 C 22.899002 33 20 35.89898 20 39.5 C 20 43.10098 22.899002 46 26.5 46 C 30.101003 46 33 43.10098 33 39.5 C 33 39.466 32.995341 39.431244 32.994141 39.396484 L 33 39.400391 L 33 30 L 33 28 L 37 26 L 37 20 z M 45 28 L 40 30 L 40 32 L 40 34 L 40 36.345703 C 39.544438 36.129513 39.039614 36 38.5 36 C 36.561003 36 35 37.56099 35 39.5 C 35 41.43901 36.561003 43 38.5 43 C 40.439003 43 42.040048 41.43859 42 39.5 L 42 33.199219 L 45 32 L 45 28 z M 53.5 44 C 52.669003 44 52 44.668995 52 45.5 C 52 46.331005 52.669003 47 53.5 47 C 54.331001 47 55 46.331005 55 45.5 C 55 44.668995 54.331001 44 53.5 44 z M 53.5 49 C 52.669003 49 52 49.668995 52 50.5 C 52 51.331005 52.669003 52 53.5 52 C 54.331001 52 55 51.331005 55 50.5 C 55 49.668995 54.331001 49 53.5 49 z M 48.5 51 C 47.668999 51 47 51.669033 47 52.5 C 47 53.331005 47.668999 54 48.5 54 C 49.331001 54 50 53.331005 50 52.5 C 50 51.669033 49.331001 51 48.5 51 z M 53.5 54 C 52.669003 54 52 54.669033 52 55.5 C 52 56.331005 52.669003 57 53.5 57 C 54.331001 57 55 56.331005 55 55.5 C 55 54.669033 54.331001 54 53.5 54 z M 48.5 56 C 47.668999 56 47 56.668995 47 57.5 C 47 58.331005 47.668999 59 48.5 59 C 49.331001 59 50 58.331005 50 57.5 C 50 56.668995 49.331001 56 48.5 56 z "
             transform="translate(-23.999999,259.21921)"
             id="rect4545-5" />
        </g>
      </g>
    </g>
  </g>
</svg>
