<?xml version="1.0" encoding="UTF-8" standalone="no"?>
<!-- Created with Inkscape (http://www.inkscape.org/) -->

<svg
   width="128"
   height="128"
   viewBox="0 0 128 128"
   version="1.1"
   id="svg8"
   inkscape:version="1.2.1 (9c6d41e410, 2022-07-14)"
   sodipodi:docname="alt-music.svg"
   xmlns:inkscape="http://www.inkscape.org/namespaces/inkscape"
   xmlns:sodipodi="http://sodipodi.sourceforge.net/DTD/sodipodi-0.dtd"
   xmlns:xlink="http://www.w3.org/1999/xlink"
   xmlns="http://www.w3.org/2000/svg"
   xmlns:svg="http://www.w3.org/2000/svg"
   xmlns:rdf="http://www.w3.org/1999/02/22-rdf-syntax-ns#"
   xmlns:cc="http://creativecommons.org/ns#"
   xmlns:dc="http://purl.org/dc/elements/1.1/">
  <title
     id="title7895">Antu icon Theme</title>
  <defs
     id="defs2">
    <linearGradient
       inkscape:collect="always"
       id="linearGradient1247">
      <stop
         style="stop-color:#c06fda;stop-opacity:1;"
         offset="0"
         id="stop1243" />
      <stop
         style="stop-color:#a344c4;stop-opacity:1;"
         offset="1"
         id="stop1245" />
    </linearGradient>
    <linearGradient
       gradientTransform="translate(-10,24)"
       inkscape:collect="always"
       xlink:href="#linearGradient3629"
       id="linearGradient3725"
       x1="10.000001"
       y1="264.64999"
       x2="12.999999"
       y2="216.64995"
       gradientUnits="userSpaceOnUse" />
    <linearGradient
       inkscape:collect="always"
       id="linearGradient3629">
      <stop
         style="stop-color:#a73cd6;stop-opacity:1"
         offset="0"
         id="stop3625" />
      <stop
         style="stop-color:#e437ba;stop-opacity:1"
         offset="1"
         id="stop3627" />
    </linearGradient>
    <linearGradient
       inkscape:collect="always"
       xlink:href="#linearGradient116056"
       id="linearGradient105144"
       gradientUnits="userSpaceOnUse"
       x1="3.7041671"
       y1="6.8791666"
       x2="3.7041671"
       y2="-1.5875"
       gradientTransform="matrix(3.7795276,0,0,3.7795276,-99.999993,172.64999)" />
    <linearGradient
       inkscape:collect="always"
       id="linearGradient116056">
      <stop
         style="stop-color:#c474dd;stop-opacity:1;"
         offset="0"
         id="stop116052" />
      <stop
         style="stop-color:#9f3ec1;stop-opacity:1;"
         offset="1"
         id="stop116054" />
    </linearGradient>
    <linearGradient
       inkscape:collect="always"
       xlink:href="#linearGradient3629"
       id="linearGradient118692"
       x1="-177.27083"
       y1="56.885414"
       x2="-177.27083"
       y2="29.104166"
       gradientUnits="userSpaceOnUse"
       gradientTransform="matrix(3.7795276,0,0,3.7795276,639.99999,72.649996)" />
    <linearGradient
       inkscape:collect="always"
       xlink:href="#linearGradient118477"
       id="linearGradient105146"
       gradientUnits="userSpaceOnUse"
       x1="14.552084"
       y1="31.749998"
       x2="14.552084"
       y2="3.968749"
       gradientTransform="matrix(3.7795276,0,0,3.7795276,-99.999993,172.64999)" />
    <linearGradient
       inkscape:collect="always"
       id="linearGradient118477">
      <stop
         style="stop-color:#d795e7;stop-opacity:1;"
         offset="0"
         id="stop118473" />
      <stop
         style="stop-color:#e671ce;stop-opacity:1;"
         offset="1"
         id="stop118475" />
    </linearGradient>
    <linearGradient
       inkscape:collect="always"
       xlink:href="#linearGradient1247"
       id="linearGradient1249"
       x1="1"
       y1="289.64999"
       x2="1"
       y2="245.64999"
       gradientUnits="userSpaceOnUse" />
  </defs>
  <sodipodi:namedview
     id="base"
     pagecolor="#ffffff"
     bordercolor="#666666"
     borderopacity="1.0"
     inkscape:pageopacity="0.0"
     inkscape:pageshadow="2"
     inkscape:zoom="7.9195959"
     inkscape:cx="68.627239"
     inkscape:cy="70.900082"
     inkscape:document-units="px"
     inkscape:current-layer="g8039"
     showgrid="true"
     units="px"
     inkscape:window-width="2160"
     inkscape:window-height="1335"
     inkscape:window-x="0"
     inkscape:window-y="0"
     inkscape:window-maximized="1"
     objecttolerance="10"
     gridtolerance="10"
     guidetolerance="10"
     inkscape:snap-bbox="true"
     inkscape:bbox-nodes="true"
     inkscape:snap-bbox-edge-midpoints="true"
     inkscape:snap-bbox-midpoints="true"
     inkscape:object-paths="true"
     inkscape:snap-intersection-paths="true"
     inkscape:bbox-paths="true"
     inkscape:showpageshadow="2"
     inkscape:pagecheckerboard="0"
     inkscape:deskcolor="#d1d1d1">
    <inkscape:grid
       type="xygrid"
       id="grid7897"
       empspacing="4" />
  </sodipodi:namedview>
  <metadata
     id="metadata5">
    <rdf:RDF>
      <cc:Work
         rdf:about="">
        <dc:format>image/svg+xml</dc:format>
        <dc:type
           rdf:resource="http://purl.org/dc/dcmitype/StillImage" />
        <dc:title>Antu icon Theme</dc:title>
      </cc:Work>
    </rdf:RDF>
  </metadata>
  <g
     inkscape:label="Capa 1"
     inkscape:groupmode="layer"
     id="layer1"
     transform="translate(0,-186.64999)">
    <g
       id="g8039"
       transform="translate(54)">
      <g
         id="g119492"
         transform="translate(55.99999,24)">
        <path
           d="m -96.999993,167.64999 c -6.630687,0 -11.999997,5.36932 -11.999997,12 v 94 c 0,6.63071 5.36931,12.00001 11.999997,12.00001 H 5.0000083 c 6.6306897,0 11.9999997,-5.3693 11.9999997,-12.00001 V 195.65 c 0,-6.63068 -5.36931,-12.00001 -11.9999997,-12.00001 H -43.99998 c -1.953713,0 -3.57411,-0.84528 -5.205089,-2.25586 -1.63098,-1.41058 -3.205002,-3.37474 -4.904278,-5.38868 -3.398551,-4.0279 -7.446198,-8.35546 -13.890633,-8.35546 z"
           style="color:#000000;font-style:normal;font-variant:normal;font-weight:normal;font-stretch:normal;font-size:medium;line-height:normal;font-family:sans-serif;font-variant-ligatures:normal;font-variant-position:normal;font-variant-caps:normal;font-variant-numeric:normal;font-variant-alternates:normal;font-variant-east-asian:normal;font-feature-settings:normal;font-variation-settings:normal;text-indent:0;text-align:start;text-decoration:none;text-decoration-line:none;text-decoration-style:solid;text-decoration-color:#000000;letter-spacing:normal;word-spacing:normal;text-transform:none;writing-mode:lr-tb;direction:ltr;text-orientation:mixed;dominant-baseline:auto;baseline-shift:baseline;text-anchor:start;white-space:normal;shape-padding:0;shape-margin:0;inline-size:0;clip-rule:nonzero;display:inline;overflow:visible;visibility:visible;isolation:auto;mix-blend-mode:normal;color-interpolation:sRGB;color-interpolation-filters:linearRGB;solid-color:#000000;solid-opacity:1;fill:#9033b2;fill-opacity:1;fill-rule:nonzero;stroke:none;stroke-width:2;stroke-linecap:butt;stroke-linejoin:miter;stroke-miterlimit:4;stroke-dasharray:none;stroke-dashoffset:0;stroke-opacity:1;color-rendering:auto;image-rendering:auto;shape-rendering:auto;text-rendering:auto;enable-background:accumulate;stop-color:#000000"
           id="path1242-52"
           sodipodi:nodetypes="sssssssssssss" />
        <path
           id="rect1149-4-0-90"
           style="fill:url(#linearGradient105144);fill-opacity:1;stroke-width:0.999999"
           d="m -96.999993,168.64999 29.000013,2e-5 c 12,0 15,16 24,16 l 48.9999883,-2e-5 c 6.0939967,0 11.0000127,4.906 11.0000127,10.99997 v 78.00003 c 0,6.09401 -4.906016,11.00001 -11.0000127,11.00001 H -96.999993 c -6.093997,0 -10.999977,-4.906 -10.999977,-11.00001 v -94.00004 c 0,-6.09398 4.90598,-10.99996 10.999977,-10.99996 z"
           sodipodi:nodetypes="sccssssssss" />
        <path
           d="m 5.0000083,183.64997 c 6.6306897,0 11.9999997,5.36932 11.9999997,12 v 79.00005 c 0,6.6307 -5.36931,12 -11.9999997,12 H -96.999993 c -6.630687,0 -11.999997,-5.3693 -11.999997,-12 V 211.65 c 0,-6.63068 5.36931,-12 11.999997,-12 h 30.999988 c 1.953713,0 3.57411,-0.84528 5.20509,-2.25586 1.630979,-1.41058 3.205039,-3.37474 4.904315,-5.38868 3.398513,-4.02791 7.44616,-8.35547 13.890595,-8.35547 z"
           style="color:#000000;font-style:normal;font-variant:normal;font-weight:normal;font-stretch:normal;font-size:medium;line-height:normal;font-family:sans-serif;font-variant-ligatures:normal;font-variant-position:normal;font-variant-caps:normal;font-variant-numeric:normal;font-variant-alternates:normal;font-variant-east-asian:normal;font-feature-settings:normal;font-variation-settings:normal;text-indent:0;text-align:start;text-decoration:none;text-decoration-line:none;text-decoration-style:solid;text-decoration-color:#000000;letter-spacing:normal;word-spacing:normal;text-transform:none;writing-mode:lr-tb;direction:ltr;text-orientation:mixed;dominant-baseline:auto;baseline-shift:baseline;text-anchor:start;white-space:normal;shape-padding:0;shape-margin:0;inline-size:0;clip-rule:nonzero;display:inline;overflow:visible;visibility:visible;isolation:auto;mix-blend-mode:normal;color-interpolation:sRGB;color-interpolation-filters:linearRGB;solid-color:#000000;solid-opacity:1;fill:url(#linearGradient118692);fill-opacity:1;fill-rule:nonzero;stroke:none;stroke-width:2;stroke-linecap:butt;stroke-linejoin:miter;stroke-miterlimit:4;stroke-dasharray:none;stroke-dashoffset:0;stroke-opacity:1;color-rendering:auto;image-rendering:auto;shape-rendering:auto;text-rendering:auto;enable-background:accumulate;stop-color:#000000"
           id="path1242-2-28"
           sodipodi:nodetypes="sssssssssssss" />
        <path
           id="rect1149-4-0-6-38"
           style="fill:url(#linearGradient105146);fill-opacity:1;stroke-width:0.999999"
           d="m 5.0000083,184.64997 -47.0000133,2e-5 c -12,0 -15,16.00001 -24,16.00001 l -30.999988,-2e-5 c -6.093997,0 -10.999977,4.906 -10.999977,10.99996 v 63.00008 c 0,6.094 4.90598,11 10.999977,11 H 5.0000083 c 6.0939967,0 10.9999747,-4.906 10.9999747,-11 v -79.00008 c 0,-6.09397 -4.905978,-10.99997 -10.9999747,-10.99997 z"
           sodipodi:nodetypes="sccssssssss" />
      </g>
      <path
         sodipodi:nodetypes="cccssssccccccccccccssssccccccsssscccccc"
         inkscape:connector-curvature="0"
         id="path4658-1-9"
         d="m -0.9999985,243.64991 -6.0000005,2.00005 v 8.60153 c -0.7500019,-0.38207 -1.5974475,-0.60151 -2.4999987,-0.60151 -3.0469983,0 -5.4999993,2.45291 -5.4999993,5.49997 0,3.04694 2.453001,5.5 5.4999993,5.5 3.0470022,0 5.4999951,-2.45303 5.4999951,-5.5 0,-0.0711 -0.00718,-0.1406 -0.00983,-0.2109 l 0.00983,0.0113 v -7.3008 -1.99998 l 3.0000041,-0.99998 z M 22,243.64999 8.0000035,248.65 v 3.99999 6 10.99997 l 0.03704,0.0684 c -2.027116,-1.30424 -4.437479,-2.06838 -7.037102,-2.06838 -7.2019961,0 -13.0000035,5.79798 -13.0000035,12.99999 0,7.202 5.7980074,13.00002 13.0000035,13.00002 7.201995,0 12.9999975,-5.79802 12.9999975,-13.00002 v -22.99998 l 8.000002,-3 z m 13,14.99996 -6.000004,2.00001 v 8.60153 c -0.750002,-0.38211 -1.597451,-0.60155 -2.500002,-0.60155 -3.046998,0 -5.499998,2.45295 -5.499998,5.50001 0,3.04694 2.453,5.5 5.499998,5.5 3.047003,0 5.500002,-2.45303 5.500002,-5.5 0,-0.0711 -0.0072,-0.1406 -0.0098,-0.2109 l 0.0098,0.0113 v -7.30077 -2.00001 L 35,263.64958 Z"
         style="fill:url(#linearGradient1249);fill-opacity:1;stroke:none;stroke-width:0.999999px;stroke-linecap:butt;stroke-linejoin:miter;stroke-opacity:1" />
    </g>
  </g>
</svg>
