<?xml version="1.0" encoding="UTF-8" standalone="no"?>
<!-- Created with Inkscape (http://www.inkscape.org/) -->

<svg
   xmlns:dc="http://purl.org/dc/elements/1.1/"
   xmlns:cc="http://creativecommons.org/ns#"
   xmlns:rdf="http://www.w3.org/1999/02/22-rdf-syntax-ns#"
   xmlns:svg="http://www.w3.org/2000/svg"
   xmlns="http://www.w3.org/2000/svg"
   xmlns:sodipodi="http://sodipodi.sourceforge.net/DTD/sodipodi-0.dtd"
   xmlns:inkscape="http://www.inkscape.org/namespaces/inkscape"
   width="128"
   height="128"
   viewBox="0 0 128 128"
   version="1.1"
   id="svg8"
   inkscape:version="0.92.4 5da689c313, 2019-01-14"
   sodipodi:docname="alt-github.svg">
  <title
     id="title7895">Antu icon Theme</title>
  <defs
     id="defs2" />
  <sodipodi:namedview
     id="base"
     pagecolor="#ffffff"
     bordercolor="#666666"
     borderopacity="1.0"
     inkscape:pageopacity="0.0"
     inkscape:pageshadow="2"
     inkscape:zoom="7.9195959"
     inkscape:cx="84.022656"
     inkscape:cy="56.546906"
     inkscape:document-units="px"
     inkscape:current-layer="g4195"
     showgrid="true"
     units="px"
     inkscape:window-width="1920"
     inkscape:window-height="1049"
     inkscape:window-x="0"
     inkscape:window-y="0"
     inkscape:window-maximized="1"
     objecttolerance="10"
     gridtolerance="10"
     guidetolerance="10"
     inkscape:snap-bbox="true"
     inkscape:bbox-nodes="true"
     inkscape:snap-bbox-edge-midpoints="true"
     inkscape:snap-bbox-midpoints="true"
     inkscape:object-paths="true"
     inkscape:snap-intersection-paths="true"
     inkscape:bbox-paths="true">
    <inkscape:grid
       type="xygrid"
       id="grid7897"
       empspacing="4" />
  </sodipodi:namedview>
  <metadata
     id="metadata5">
    <rdf:RDF>
      <cc:Work
         rdf:about="">
        <dc:format>image/svg+xml</dc:format>
        <dc:type
           rdf:resource="http://purl.org/dc/dcmitype/StillImage" />
        <dc:title>Antu icon Theme</dc:title>
      </cc:Work>
    </rdf:RDF>
  </metadata>
  <g
     inkscape:label="Capa 1"
     inkscape:groupmode="layer"
     id="layer1"
     transform="translate(0,-186.64999)">
    <g
       id="g4195"
       transform="translate(19,9.90158)">
      <path
         id="path1651-4-5-6-4"
         d="m -11,181.74841 c -3.8607,0 -7,3.1393 -7,7 v 104 c 0,3.8607 3.1393,7 7,7 h 112 c 3.8607,0 7,-3.1393 7,-7 v -88 c 0,-3.8607 -3.1393,-7 -7,-7 H 45 c -0.71667,0 -1.72147,-0.70632 -2.85937,-2.125 -1.13791,-1.41868 -2.35521,-3.40752 -3.67969,-5.42578 -1.32449,-2.01826 -2.76048,-4.07436 -4.44531,-5.67578 -1.68484,-1.60144 -3.6823,-2.77344 -6.01563,-2.77344 z"
         style="color:#000000;font-style:normal;font-variant:normal;font-weight:normal;font-stretch:normal;font-size:medium;line-height:normal;font-family:sans-serif;font-variant-ligatures:normal;font-variant-position:normal;font-variant-caps:normal;font-variant-numeric:normal;font-variant-alternates:normal;font-feature-settings:normal;text-indent:0;text-align:start;text-decoration:none;text-decoration-line:none;text-decoration-style:solid;text-decoration-color:#000000;letter-spacing:normal;word-spacing:normal;text-transform:none;writing-mode:lr-tb;direction:ltr;text-orientation:mixed;dominant-baseline:auto;baseline-shift:baseline;text-anchor:start;white-space:normal;shape-padding:0;clip-rule:nonzero;display:inline;overflow:visible;visibility:visible;opacity:1;isolation:auto;mix-blend-mode:normal;color-interpolation:sRGB;color-interpolation-filters:linearRGB;solid-color:#000000;solid-opacity:1;vector-effect:none;fill:#35454d;fill-opacity:1;fill-rule:nonzero;stroke:none;stroke-width:2;stroke-linecap:round;stroke-linejoin:round;stroke-miterlimit:4;stroke-dasharray:none;stroke-dashoffset:0;stroke-opacity:1;color-rendering:auto;image-rendering:auto;shape-rendering:auto;text-rendering:auto;enable-background:accumulate"
         inkscape:connector-curvature="0" />
      <path
         sodipodi:nodetypes="sccssssssss"
         inkscape:connector-curvature="0"
         id="rect1558-3-3-1-9"
         d="m -11,182.74841 h 39 c 8,0 12,16 17,16 h 56 c 3.324,0 6,2.676 6,6 v 88 c 0,3.324 -2.676,6 -6,6 H -11 c -3.324,0 -6,-2.676 -6,-6 v -104 c 0,-3.324 2.676,-6 6,-6 z"
         style="opacity:1;vector-effect:none;fill:#4f6773;fill-opacity:1;stroke:none;stroke-width:2;stroke-linecap:round;stroke-linejoin:round;stroke-miterlimit:4;stroke-dasharray:none;stroke-dashoffset:0;stroke-opacity:1" />
      <path
         id="path1644-0-76-2-5"
         d="m 45,197.74841 c -1.78333,0 -3.15353,1.29368 -4.42187,2.875 -1.26835,1.58132 -2.48855,3.59248 -3.78907,5.57422 -1.30051,1.98174 -2.67702,3.92564 -4.14843,5.32422 -1.47142,1.39856 -2.97396,2.22656 -4.64063,2.22656 h -39 c -3.8607,0 -7,3.1393 -7,7 v 72 c 0,3.8607 3.1393,7 7,7 h 112 c 3.8607,0 7,-3.1393 7,-7 v -88 c 0,-3.8607 -3.1393,-7 -7,-7 z"
         style="color:#000000;font-style:normal;font-variant:normal;font-weight:normal;font-stretch:normal;font-size:medium;line-height:normal;font-family:sans-serif;font-variant-ligatures:normal;font-variant-position:normal;font-variant-caps:normal;font-variant-numeric:normal;font-variant-alternates:normal;font-feature-settings:normal;text-indent:0;text-align:start;text-decoration:none;text-decoration-line:none;text-decoration-style:solid;text-decoration-color:#000000;letter-spacing:normal;word-spacing:normal;text-transform:none;writing-mode:lr-tb;direction:ltr;text-orientation:mixed;dominant-baseline:auto;baseline-shift:baseline;text-anchor:start;white-space:normal;shape-padding:0;clip-rule:nonzero;display:inline;overflow:visible;visibility:visible;opacity:1;isolation:auto;mix-blend-mode:normal;color-interpolation:sRGB;color-interpolation-filters:linearRGB;solid-color:#000000;solid-opacity:1;vector-effect:none;fill:#35454d;fill-opacity:1;fill-rule:nonzero;stroke:none;stroke-width:2;stroke-linecap:round;stroke-linejoin:round;stroke-miterlimit:4;stroke-dasharray:none;stroke-dashoffset:0;stroke-opacity:1;color-rendering:auto;image-rendering:auto;shape-rendering:auto;text-rendering:auto;enable-background:accumulate"
         inkscape:connector-curvature="0" />
      <path
         sodipodi:nodetypes="sccssssssss"
         inkscape:connector-curvature="0"
         id="rect1558-6-7-8-9-0"
         d="m -11,214.74841 h 39 c 8,0 12,-16 17,-16 h 56 c 3.324,0 6,2.676 6,6 v 88 c 0,3.324 -2.676,6 -6,6 H -11 c -3.324,0 -6,-2.676 -6,-6 v -72 c 0,-3.324 2.676,-6 6,-6 z"
         style="opacity:1;vector-effect:none;fill:#607c8a;fill-opacity:1;stroke:none;stroke-width:2;stroke-linecap:round;stroke-linejoin:round;stroke-miterlimit:4;stroke-dasharray:none;stroke-dashoffset:0;stroke-opacity:1" />
      <path
         inkscape:connector-curvature="0"
         style="opacity:1;fill:#eff2f4;fill-opacity:1;stroke:none;stroke-width:2;stroke-linecap:round;stroke-linejoin:round;stroke-miterlimit:4;stroke-dasharray:none;stroke-dashoffset:0;stroke-opacity:1"
         d="m 32.956499,229.7484 c -1.089238,0.0214 -1.961036,0.91056 -1.960936,2 v 7.51562 c -1.266577,2.20202 -2.000001,4.7517 -2.000001,7.48438 0,6.01176 3.510763,11.16213 8.59375,13.55859 -2.796059,2.19322 -4.593751,5.59628 -4.593751,9.4414 v 0.40626 c -0.394798,-0.1352 -0.7846,-0.31606 -1.191404,-0.57032 -1.343471,-0.83966 -2.759639,-2.47784 -4.246095,-4.33594 -1.486457,-1.85804 -3.045053,-3.91908 -5.093752,-5.49218 -2.048698,-1.57312 -4.781087,-2.5844 -7.859376,-1.96874 a 2.0002005,2.0002005 0 1 0 0.781249,3.92186 c 1.92171,-0.38434 3.189324,0.1044 4.640627,1.21876 1.451302,1.1144 2.892706,2.9284 4.406251,4.8203 1.513544,1.89196 3.097377,3.87876 5.253907,5.22658 0.971324,0.60708 2.095907,1.02594 3.308593,1.20702 v 1.5664 8 c 0,1.10802 0.892,2 2.000001,2 1.108,0 2,-0.89198 2,-2 v -2 -6 c 0,-0.554 0.224438,-1.05256 0.585938,-1.41406 0.3615,-0.3615 0.860062,-0.58594 1.414063,-0.58594 0.554,0 1.052562,0.22444 1.414062,0.58594 0.3615,0.3615 0.585938,0.86006 0.585938,1.41406 v 8 c 0,1.10802 0.892,2 2.000001,2 1.108,0 2,-0.89198 2,-2 v -2 -10 c 0,-0.554 0.224438,-1.05256 0.585938,-1.41406 0.3615,-0.3615 0.860062,-0.58594 1.414063,-0.58594 0.554,0 1.052562,0.22444 1.414062,0.58594 0.3615,0.3615 0.585938,0.86006 0.585938,1.41406 v 10 2 c 0,1.10802 0.892,2 2.000001,2 1.108,0 2,-0.89198 2,-2 v -2 -6.08984 c 0,-0.554 0.224438,-1.05256 0.585938,-1.41406 0.3615,-0.3615 0.860062,-0.58594 1.414063,-0.58594 0.554,0 1.052562,0.22444 1.414062,0.58594 0.3615,0.3615 0.585938,0.86006 0.585938,1.41406 v 8.08984 c 0,1.10802 0.892,2 2.000001,2 1.108,0 2,-0.89198 2,-2 v -2 -8 -4 c 0,-3.84512 -1.797692,-7.24818 -4.593751,-9.4414 5.082989,-2.39646 8.593752,-7.54683 8.593752,-13.55859 0,-2.73268 -0.733424,-5.28236 -2,-7.48438 v -7.51562 c 3.68e-4,-1.12782 -0.931263,-2.03292 -2.058595,-2 -0.234584,0.008 -0.465978,0.0566 -0.683594,0.1446 l -6.113282,2.4453 c -1.317182,-0.37594 -2.70348,-0.58984 -4.144533,-0.58984 h -6.000001 c -1.441053,0 -2.827351,0.21392 -4.144533,0.58984 l -6.113282,-2.44532 c -0.248128,-0.1 -0.513784,-0.1492 -0.78125,-0.1446 z"
         id="rect4374-9-8-2" />
    </g>
  </g>
</svg>
