<?xml version="1.0" encoding="UTF-8" standalone="no"?>
<!-- Created with Inkscape (http://www.inkscape.org/) -->

<svg
   xmlns:dc="http://purl.org/dc/elements/1.1/"
   xmlns:cc="http://creativecommons.org/ns#"
   xmlns:rdf="http://www.w3.org/1999/02/22-rdf-syntax-ns#"
   xmlns:svg="http://www.w3.org/2000/svg"
   xmlns="http://www.w3.org/2000/svg"
   xmlns:xlink="http://www.w3.org/1999/xlink"
   xmlns:sodipodi="http://sodipodi.sourceforge.net/DTD/sodipodi-0.dtd"
   xmlns:inkscape="http://www.inkscape.org/namespaces/inkscape"
   width="128"
   height="128"
   viewBox="0 0 128 128"
   version="1.1"
   id="svg8"
   inkscape:version="0.92.4 5da689c313, 2019-01-14"
   sodipodi:docname="alt-music.svg">
  <title
     id="title7895">Antu icon Theme</title>
  <defs
     id="defs2">
    <linearGradient
       inkscape:collect="always"
       id="linearGradient903">
      <stop
         style="stop-color:#b742ea;stop-opacity:1"
         offset="0"
         id="stop899" />
      <stop
         style="stop-color:#e43ac6;stop-opacity:1"
         offset="1"
         id="stop901" />
    </linearGradient>
    <linearGradient
       inkscape:collect="always"
       id="linearGradient895">
      <stop
         style="stop-color:#d697e8;stop-opacity:1"
         offset="0"
         id="stop891" />
      <stop
         style="stop-color:#e671ce;stop-opacity:1"
         offset="1"
         id="stop893" />
    </linearGradient>
    <linearGradient
       gradientTransform="translate(-10,24)"
       inkscape:collect="always"
       xlink:href="#linearGradient3629"
       id="linearGradient3725"
       x1="10.000001"
       y1="264.64999"
       x2="12.999999"
       y2="216.64995"
       gradientUnits="userSpaceOnUse" />
    <linearGradient
       inkscape:collect="always"
       id="linearGradient3629">
      <stop
         style="stop-color:#a73cd6;stop-opacity:1"
         offset="0"
         id="stop3625" />
      <stop
         style="stop-color:#e437ba;stop-opacity:1"
         offset="1"
         id="stop3627" />
    </linearGradient>
    <linearGradient
       gradientTransform="translate(-55,26.64999)"
       inkscape:collect="always"
       xlink:href="#linearGradient903"
       id="linearGradient3645"
       x1="75"
       y1="283"
       x2="73"
       y2="184"
       gradientUnits="userSpaceOnUse" />
    <linearGradient
       inkscape:collect="always"
       xlink:href="#linearGradient895"
       id="linearGradient897"
       x1="10"
       y1="306.64999"
       x2="10"
       y2="212.64999"
       gradientUnits="userSpaceOnUse" />
  </defs>
  <sodipodi:namedview
     id="base"
     pagecolor="#ffffff"
     bordercolor="#666666"
     borderopacity="1.0"
     inkscape:pageopacity="0.0"
     inkscape:pageshadow="2"
     inkscape:zoom="3.959798"
     inkscape:cx="103.61266"
     inkscape:cy="56.014815"
     inkscape:document-units="px"
     inkscape:current-layer="g8039"
     showgrid="false"
     units="px"
     inkscape:window-width="1920"
     inkscape:window-height="1049"
     inkscape:window-x="0"
     inkscape:window-y="0"
     inkscape:window-maximized="1"
     objecttolerance="10"
     gridtolerance="10"
     guidetolerance="10"
     inkscape:snap-bbox="true"
     inkscape:bbox-nodes="true"
     inkscape:snap-bbox-edge-midpoints="true"
     inkscape:snap-bbox-midpoints="true"
     inkscape:object-paths="true"
     inkscape:snap-intersection-paths="true"
     inkscape:bbox-paths="true">
    <inkscape:grid
       type="xygrid"
       id="grid7897"
       empspacing="4" />
  </sodipodi:namedview>
  <metadata
     id="metadata5">
    <rdf:RDF>
      <cc:Work
         rdf:about="">
        <dc:format>image/svg+xml</dc:format>
        <dc:type
           rdf:resource="http://purl.org/dc/dcmitype/StillImage" />
        <dc:title>Antu icon Theme</dc:title>
      </cc:Work>
    </rdf:RDF>
  </metadata>
  <g
     inkscape:label="Capa 1"
     inkscape:groupmode="layer"
     id="layer1"
     transform="translate(0,-186.64999)">
    <g
       id="g8039"
       transform="translate(54)">
      <path
         inkscape:connector-curvature="0"
         style="color:#000000;font-style:normal;font-variant:normal;font-weight:normal;font-stretch:normal;font-size:medium;line-height:normal;font-family:sans-serif;font-variant-ligatures:normal;font-variant-position:normal;font-variant-caps:normal;font-variant-numeric:normal;font-variant-alternates:normal;font-feature-settings:normal;text-indent:0;text-align:start;text-decoration:none;text-decoration-line:none;text-decoration-style:solid;text-decoration-color:#000000;letter-spacing:normal;word-spacing:normal;text-transform:none;writing-mode:lr-tb;direction:ltr;text-orientation:mixed;dominant-baseline:auto;baseline-shift:baseline;text-anchor:start;white-space:normal;shape-padding:0;clip-rule:nonzero;display:inline;overflow:visible;visibility:visible;opacity:1;isolation:auto;mix-blend-mode:normal;color-interpolation:sRGB;color-interpolation-filters:linearRGB;solid-color:#000000;solid-opacity:1;vector-effect:none;fill:#a63bcd;fill-opacity:1;fill-rule:nonzero;stroke:none;stroke-width:2;stroke-linecap:round;stroke-linejoin:round;stroke-miterlimit:4;stroke-dasharray:none;stroke-dashoffset:0;stroke-opacity:1;color-rendering:auto;image-rendering:auto;shape-rendering:auto;text-rendering:auto;enable-background:accumulate"
         d="m -46,191.64999 c -3.860703,0 -7,3.1393 -7,7 v 104 c 0,3.8607 3.139297,7 7,7 H 66 c 3.8607,0 7,-3.1393 7,-7 v -88 c 0,-3.8607 -3.1393,-7 -7,-7 H 10 c -0.716666,0 -1.721469,-0.70632 -2.859375,-2.125 -1.137904,-1.41868 -2.355204,-3.40752 -3.679687,-5.42578 -1.324484,-2.01826 -2.760475,-4.07436 -4.445313,-5.67578 C -2.669211,192.82199 -4.666666,191.64999 -7,191.64999 Z"
         id="path1651-96" />
      <path
         style="opacity:1;vector-effect:none;fill:#c373dc;fill-opacity:1;stroke:none;stroke-width:2;stroke-linecap:round;stroke-linejoin:round;stroke-miterlimit:4;stroke-dasharray:none;stroke-dashoffset:0;stroke-opacity:1"
         d="m -46,192.64999 h 39 c 8,0 12,16 17,16 h 56 c 3.324,0 6,2.676 6,6 v 88 c 0,3.324 -2.676,6 -6,6 H -46 c -3.324,0 -6,-2.676 -6,-6 v -104 c 0,-3.324 2.676,-6 6,-6 z"
         id="rect1558-07"
         inkscape:connector-curvature="0"
         sodipodi:nodetypes="sccssssssss" />
      <path
         inkscape:connector-curvature="0"
         style="color:#000000;font-style:normal;font-variant:normal;font-weight:normal;font-stretch:normal;font-size:medium;line-height:normal;font-family:sans-serif;font-variant-ligatures:normal;font-variant-position:normal;font-variant-caps:normal;font-variant-numeric:normal;font-variant-alternates:normal;font-feature-settings:normal;text-indent:0;text-align:start;text-decoration:none;text-decoration-line:none;text-decoration-style:solid;text-decoration-color:#000000;letter-spacing:normal;word-spacing:normal;text-transform:none;writing-mode:lr-tb;direction:ltr;text-orientation:mixed;dominant-baseline:auto;baseline-shift:baseline;text-anchor:start;white-space:normal;shape-padding:0;clip-rule:nonzero;display:inline;overflow:visible;visibility:visible;opacity:1;isolation:auto;mix-blend-mode:normal;color-interpolation:sRGB;color-interpolation-filters:linearRGB;solid-color:#000000;solid-opacity:1;vector-effect:none;fill:url(#linearGradient3645);fill-opacity:1;fill-rule:nonzero;stroke:none;stroke-width:2;stroke-linecap:round;stroke-linejoin:round;stroke-miterlimit:4;stroke-dasharray:none;stroke-dashoffset:0;stroke-opacity:1;color-rendering:auto;image-rendering:auto;shape-rendering:auto;text-rendering:auto;enable-background:accumulate"
         d="m 10,207.64999 c -1.783334,0 -3.153529,1.29368 -4.421875,2.875 -1.268344,1.58132 -2.488546,3.59248 -3.789063,5.57422 -1.300516,1.98174 -2.677023,3.92564 -4.148437,5.32422 -1.471412,1.39856 -2.973959,2.22656 -4.640625,2.22656 h -39 c -3.860703,0 -7,3.1393 -7,7 v 72 c 0,3.8607 3.139297,7 7,7 H 66 c 3.8607,0 7,-3.1393 7,-7 v -88 c 0,-3.8607 -3.1393,-7 -7,-7 z"
         id="path1644-01" />
      <path
         style="opacity:1;vector-effect:none;fill:url(#linearGradient897);fill-opacity:1;stroke:none;stroke-width:2;stroke-linecap:round;stroke-linejoin:round;stroke-miterlimit:4;stroke-dasharray:none;stroke-dashoffset:0;stroke-opacity:1"
         d="m -46,224.64999 h 39 c 8,0 12,-16 17,-16 h 56 c 3.324,0 6,2.676 6,6 v 88 c 0,3.324 -2.676,6 -6,6 H -46 c -3.324,0 -6,-2.676 -6,-6 v -72 c 0,-3.324 2.676,-6 6,-6 z"
         id="rect1558-6-0"
         inkscape:connector-curvature="0"
         sodipodi:nodetypes="sccssssssss" />
      <path
         sodipodi:nodetypes="cccssssccccccccccccssssccccccsssscccccc"
         inkscape:connector-curvature="0"
         id="path4658-1"
         d="m 2.999999,239.64995 -5.999999,2 v 8.60156 c -0.750003,-0.38211 -1.597449,-0.60156 -2.5,-0.60156 -3.046999,0 -5.5,2.45294 -5.5,5.5 0,3.04694 2.453001,5.5 5.5,5.5 3.047001,0 5.5,-2.45302 5.5,-5.5 0,-0.0711 -0.0071,-0.14063 -0.0098,-0.21094 L 0,254.95071 v -7.30078 -2 l 2.999999,-1 z m 19,2 -14,5 v 4 6 11 l 0.03711,0.0684 C 6.009988,266.41415 3.599624,265.64999 1,265.64999 c -7.201994,0 -13,5.798 -13,13 0,7.202 5.798006,13 13,13 7.202,0 13,-5.798 13,-13 v -23 l 8,-3 z m 10.009766,14.71094 -6,2 v 8.60156 c -0.750002,-0.3821 -1.597449,-0.60155 -2.5,-0.60155 -3.046999,0 -5.5,2.45293 -5.5,5.5 0,3.04693 2.453001,5.5 5.5,5.5 3.047002,0 5.5,-2.45303 5.5,-5.5 0,-0.0711 -0.0071,-0.14065 -0.0098,-0.21095 l 0.0098,0.0117 v -7.30077 -2 l 3,-1 z"
         style="fill:#ffffff;fill-opacity:0.76521736;stroke:none;stroke-width:1px;stroke-linecap:butt;stroke-linejoin:miter;stroke-opacity:1" />
    </g>
  </g>
</svg>
