<?xml version="1.0" encoding="UTF-8" standalone="no"?>
<!-- Created with Inkscape (http://www.inkscape.org/) -->

<svg
   width="128"
   height="128"
   viewBox="0 0 33.866666 33.866666"
   version="1.1"
   id="svg8"
   inkscape:version="1.2 (dc2aedaf03, 2022-05-15)"
   sodipodi:docname="alt-mega.svg"
   xmlns:inkscape="http://www.inkscape.org/namespaces/inkscape"
   xmlns:sodipodi="http://sodipodi.sourceforge.net/DTD/sodipodi-0.dtd"
   xmlns:xlink="http://www.w3.org/1999/xlink"
   xmlns="http://www.w3.org/2000/svg"
   xmlns:svg="http://www.w3.org/2000/svg"
   xmlns:rdf="http://www.w3.org/1999/02/22-rdf-syntax-ns#"
   xmlns:cc="http://creativecommons.org/ns#"
   xmlns:dc="http://purl.org/dc/elements/1.1/">
  <defs
     id="defs2">
    <linearGradient
       inkscape:collect="always"
       xlink:href="#linearGradient47008"
       id="linearGradient15745"
       gradientUnits="userSpaceOnUse"
       x1="3.1852894"
       y1="11.509378"
       x2="3.1852894"
       y2="-0.39687169"
       gradientTransform="translate(33.809969,306.16591)" />
    <linearGradient
       inkscape:collect="always"
       id="linearGradient47008">
      <stop
         style="stop-color:#f78f8f;stop-opacity:1;"
         offset="0"
         id="stop47004" />
      <stop
         style="stop-color:#f65656;stop-opacity:1;"
         offset="1"
         id="stop47006" />
    </linearGradient>
  </defs>
  <sodipodi:namedview
     id="base"
     pagecolor="#ffffff"
     bordercolor="#666666"
     borderopacity="1.0"
     inkscape:pageopacity="0.0"
     inkscape:pageshadow="2"
     inkscape:zoom="5.6"
     inkscape:cx="141.42857"
     inkscape:cy="98.839286"
     inkscape:document-units="px"
     inkscape:current-layer="layer1"
     showgrid="true"
     units="px"
     inkscape:showpageshadow="false"
     inkscape:snap-bbox="true"
     inkscape:bbox-paths="true"
     inkscape:bbox-nodes="true"
     inkscape:snap-bbox-edge-midpoints="true"
     inkscape:snap-bbox-midpoints="true"
     inkscape:object-paths="true"
     inkscape:snap-intersection-paths="true"
     inkscape:window-width="2160"
     inkscape:window-height="1337"
     inkscape:window-x="0"
     inkscape:window-y="0"
     inkscape:window-maximized="1"
     inkscape:pagecheckerboard="0"
     inkscape:deskcolor="#d1d1d1">
    <inkscape:grid
       type="xygrid"
       id="grid815" />
  </sodipodi:namedview>
  <metadata
     id="metadata5">
    <rdf:RDF>
      <cc:Work
         rdf:about="">
        <dc:format>image/svg+xml</dc:format>
        <dc:type
           rdf:resource="http://purl.org/dc/dcmitype/StillImage" />
        <dc:title />
      </cc:Work>
    </rdf:RDF>
  </metadata>
  <g
     inkscape:label="Capa 1"
     inkscape:groupmode="layer"
     id="layer1"
     transform="translate(0,-263.13333)">
    <g
       id="g50655"
       transform="translate(-31.164139,-40.386743)">
      <path
         d="m 34.603721,304.84299 c -1.754371,0 -3.174999,1.42064 -3.174999,3.175 v 24.87084 c 0,1.75437 1.420628,3.175 3.174999,3.175 h 26.987497 c 1.75437,0 3.175001,-1.42063 3.175001,-3.175 v -20.6375 c 0,-1.75437 -1.420631,-3.175 -3.175001,-3.175 h -12.96458 c -0.516917,0 -0.945645,-0.22365 -1.377177,-0.59686 -0.431532,-0.37322 -0.847997,-0.8929 -1.297596,-1.42576 -0.899198,-1.06572 -1.970135,-2.21072 -3.675227,-2.21072 z"
         style="color:#000000;font-style:normal;font-variant:normal;font-weight:normal;font-stretch:normal;font-size:medium;line-height:normal;font-family:sans-serif;font-variant-ligatures:normal;font-variant-position:normal;font-variant-caps:normal;font-variant-numeric:normal;font-variant-alternates:normal;font-variant-east-asian:normal;font-feature-settings:normal;font-variation-settings:normal;text-indent:0;text-align:start;text-decoration:none;text-decoration-line:none;text-decoration-style:solid;text-decoration-color:#000000;letter-spacing:normal;word-spacing:normal;text-transform:none;writing-mode:lr-tb;direction:ltr;text-orientation:mixed;dominant-baseline:auto;baseline-shift:baseline;text-anchor:start;white-space:normal;shape-padding:0;shape-margin:0;inline-size:0;clip-rule:nonzero;display:inline;overflow:visible;visibility:visible;isolation:auto;mix-blend-mode:normal;color-interpolation:sRGB;color-interpolation-filters:linearRGB;solid-color:#000000;solid-opacity:1;fill:#c74343;fill-opacity:1;fill-rule:nonzero;stroke:none;stroke-width:0.529167;stroke-linecap:butt;stroke-linejoin:miter;stroke-miterlimit:4;stroke-dasharray:none;stroke-dashoffset:0;stroke-opacity:1;color-rendering:auto;image-rendering:auto;shape-rendering:auto;text-rendering:auto;enable-background:accumulate;stop-color:#000000"
         id="path1242-1"
         sodipodi:nodetypes="sssssssssssss" />
      <path
         id="rect1149-4-0-5"
         style="fill:url(#linearGradient15745);fill-opacity:1;stroke-width:0.264583"
         d="m 34.603721,305.10758 h 7.672919 c 3.175,0 3.96875,4.23334 6.35,4.23334 l 12.964582,-10e-6 c 1.61237,0 2.910413,1.29805 2.910413,2.91041 v 20.63751 c 0,1.61237 -1.298046,2.91042 -2.910413,2.91042 H 34.603721 c -1.612369,0 -2.910414,-1.29805 -2.910414,-2.91042 v -24.87085 c 0,-1.61236 1.298045,-2.9104 2.910414,-2.9104 z"
         sodipodi:nodetypes="sccssssssss" />
      <path
         d="m 61.59122,309.07632 c 1.75437,0 3.174999,1.42064 3.174999,3.175 v 20.9021 c 0,1.75437 -1.420629,3.175 -3.174999,3.175 H 34.603722 c -1.75437,0 -3.175,-1.42063 -3.175,-3.175 v -16.66876 c 0,-1.75436 1.42063,-3.175 3.175,-3.175 h 8.20208 c 0.516918,0 0.945646,-0.22364 1.377178,-0.59686 0.431531,-0.37322 0.847996,-0.8929 1.297595,-1.42575 0.899198,-1.06572 1.970135,-2.21072 3.675227,-2.21072 z"
         style="color:#000000;font-style:normal;font-variant:normal;font-weight:normal;font-stretch:normal;font-size:medium;line-height:normal;font-family:sans-serif;font-variant-ligatures:normal;font-variant-position:normal;font-variant-caps:normal;font-variant-numeric:normal;font-variant-alternates:normal;font-variant-east-asian:normal;font-feature-settings:normal;font-variation-settings:normal;text-indent:0;text-align:start;text-decoration:none;text-decoration-line:none;text-decoration-style:solid;text-decoration-color:#000000;letter-spacing:normal;word-spacing:normal;text-transform:none;writing-mode:lr-tb;direction:ltr;text-orientation:mixed;dominant-baseline:auto;baseline-shift:baseline;text-anchor:start;white-space:normal;shape-padding:0;shape-margin:0;inline-size:0;clip-rule:nonzero;display:inline;overflow:visible;visibility:visible;isolation:auto;mix-blend-mode:normal;color-interpolation:sRGB;color-interpolation-filters:linearRGB;solid-color:#000000;solid-opacity:1;fill:#c74343;fill-opacity:1;fill-rule:nonzero;stroke:none;stroke-width:0.529167;stroke-linecap:butt;stroke-linejoin:miter;stroke-miterlimit:4;stroke-dasharray:none;stroke-dashoffset:0;stroke-opacity:1;color-rendering:auto;image-rendering:auto;shape-rendering:auto;text-rendering:auto;enable-background:accumulate;stop-color:#000000"
         id="path1242-2-5"
         sodipodi:nodetypes="sssssssssssss" />
      <path
         id="rect1149-4-0-6-4"
         style="fill:#f7f7f7;fill-opacity:1;stroke-width:0.264583"
         d="M 61.59122,309.34091 H 49.1558 c -3.175,0 -3.96875,4.23334 -6.35,4.23334 l -8.202081,-1e-5 c -1.61237,0 -2.910414,1.29805 -2.910414,2.91041 v 16.66877 c 0,1.61237 1.298046,2.91042 2.910414,2.91042 H 61.59122 c 1.612369,0 2.910413,-1.29805 2.910413,-2.91042 v -20.90211 c 0,-1.61236 -1.298044,-2.9104 -2.910413,-2.9104 z"
         sodipodi:nodetypes="sccssssssss" />
    </g>
    <path
       style="opacity:1;vector-effect:none;fill:#b24444;fill-opacity:1;stroke:none;stroke-width:0.51436043;stroke-linecap:round;stroke-linejoin:round;stroke-miterlimit:4;stroke-dasharray:none;stroke-dashoffset:0;stroke-opacity:1;paint-order:normal"
       d="m 16.933333,277.42084 c 3.664479,0 6.614583,2.9501 6.614583,6.61458 0,3.66448 -2.950104,6.61458 -6.614583,6.61458 -3.664479,0 -6.614583,-2.9501 -6.614583,-6.61458 0,-3.66448 2.950104,-6.61458 6.614583,-6.61458 z"
       id="rect844" />
    <g
       transform="matrix(0.26458333,0,0,0.26458333,-1.1999999e-7,213.74885)"
       id="layer1-3"
       inkscape:label="Capa 1"
       style="fill:#fb6565;fill-opacity:1">
      <g
         transform="translate(4,-6.00005)"
         id="g6333"
         style="fill:#fb6565;fill-opacity:1">
        <path
           style="opacity:1;fill:#fb6565;fill-opacity:1;stroke:none;stroke-width:1.85164022;stroke-linecap:round;stroke-linejoin:round;stroke-miterlimit:4;stroke-dasharray:none;stroke-opacity:1"
           d="m 60,247.64999 c -13.296,0 -24,10.704 -24,24 0,13.29597 10.704,24 24,24 13.296,0 24,-10.70403 24,-24 0,-13.296 -10.704,-24 -24,-24 z"
           id="path858" />
        <path
           style="opacity:1;fill:#f7f7f7;fill-opacity:1;stroke:none;stroke-width:1.85164022;stroke-linecap:round;stroke-linejoin:round;stroke-miterlimit:4;stroke-dasharray:none;stroke-opacity:1"
           d="m 46,262.64999 h 6 l 8,9 8,-9 h 6 v 20 h -6 v -11 l -6,6 h -2 -2 l -6,-6 v 11 h -6 z"
           id="rect4505-0-9" />
      </g>
    </g>
  </g>
</svg>
