<?xml version="1.0" encoding="UTF-8" standalone="no"?>
<!-- Created with Inkscape (http://www.inkscape.org/) -->

<svg
   xmlns:dc="http://purl.org/dc/elements/1.1/"
   xmlns:cc="http://creativecommons.org/ns#"
   xmlns:rdf="http://www.w3.org/1999/02/22-rdf-syntax-ns#"
   xmlns:svg="http://www.w3.org/2000/svg"
   xmlns="http://www.w3.org/2000/svg"
   xmlns:xlink="http://www.w3.org/1999/xlink"
   xmlns:sodipodi="http://sodipodi.sourceforge.net/DTD/sodipodi-0.dtd"
   xmlns:inkscape="http://www.inkscape.org/namespaces/inkscape"
   width="128"
   height="128"
   viewBox="0 0 128 128"
   version="1.1"
   id="svg8"
   inkscape:version="0.92.4 5da689c313, 2019-01-14"
   sodipodi:docname="alt-gitlab.svg">
  <title
     id="title7895">Antu icon Theme</title>
  <defs
     id="defs2">
    <linearGradient
       inkscape:collect="always"
       xlink:href="#linearGradient4622"
       id="linearGradient980-9-7"
       x1="41"
       y1="404.64999"
       x2="41"
       y2="354.64999"
       gradientUnits="userSpaceOnUse"
       gradientTransform="matrix(2,0,0,2,31.99997,-470.55157)" />
    <linearGradient
       id="linearGradient4622"
       inkscape:collect="always">
      <stop
         id="stop4618"
         offset="0"
         style="stop-color:#ff6a3e;stop-opacity:1" />
      <stop
         id="stop4620"
         offset="1"
         style="stop-color:#ff9065;stop-opacity:1" />
    </linearGradient>
  </defs>
  <sodipodi:namedview
     id="base"
     pagecolor="#ffffff"
     bordercolor="#666666"
     borderopacity="1.0"
     inkscape:pageopacity="0.0"
     inkscape:pageshadow="2"
     inkscape:zoom="5.6"
     inkscape:cx="61.504964"
     inkscape:cy="78.075926"
     inkscape:document-units="px"
     inkscape:current-layer="g10016"
     showgrid="true"
     units="px"
     inkscape:window-width="1920"
     inkscape:window-height="1049"
     inkscape:window-x="0"
     inkscape:window-y="0"
     inkscape:window-maximized="1"
     objecttolerance="10"
     gridtolerance="10"
     guidetolerance="10"
     inkscape:snap-bbox="true"
     inkscape:bbox-nodes="true"
     inkscape:snap-bbox-edge-midpoints="true"
     inkscape:snap-bbox-midpoints="true"
     inkscape:object-paths="true"
     inkscape:snap-intersection-paths="true"
     inkscape:bbox-paths="true">
    <inkscape:grid
       type="xygrid"
       id="grid7897"
       empspacing="4" />
  </sodipodi:namedview>
  <metadata
     id="metadata5">
    <rdf:RDF>
      <cc:Work
         rdf:about="">
        <dc:format>image/svg+xml</dc:format>
        <dc:type
           rdf:resource="http://purl.org/dc/dcmitype/StillImage" />
        <dc:title>Antu icon Theme</dc:title>
      </cc:Work>
    </rdf:RDF>
  </metadata>
  <g
     inkscape:label="Capa 1"
     inkscape:groupmode="layer"
     id="layer1"
     transform="translate(0,-186.64999)">
    <g
       id="g7688"
       transform="translate(-43.99997,-30.09841)">
      <g
         transform="translate(43.99997,30.09841)"
         id="layer1-6"
         inkscape:label="Capa 1">
        <g
           transform="translate(20,24)"
           id="g10016">
          <path
             inkscape:connector-curvature="0"
             style="color:#000000;font-style:normal;font-variant:normal;font-weight:normal;font-stretch:normal;font-size:medium;line-height:normal;font-family:sans-serif;font-variant-ligatures:normal;font-variant-position:normal;font-variant-caps:normal;font-variant-numeric:normal;font-variant-alternates:normal;font-feature-settings:normal;text-indent:0;text-align:start;text-decoration:none;text-decoration-line:none;text-decoration-style:solid;text-decoration-color:#000000;letter-spacing:normal;word-spacing:normal;text-transform:none;writing-mode:lr-tb;direction:ltr;text-orientation:mixed;dominant-baseline:auto;baseline-shift:baseline;text-anchor:start;white-space:normal;shape-padding:0;clip-rule:nonzero;display:inline;overflow:visible;visibility:visible;opacity:1;isolation:auto;mix-blend-mode:normal;color-interpolation:sRGB;color-interpolation-filters:linearRGB;solid-color:#000000;solid-opacity:1;vector-effect:none;fill:#35454d;fill-opacity:1;fill-rule:nonzero;stroke:none;stroke-width:2;stroke-linecap:round;stroke-linejoin:round;stroke-miterlimit:4;stroke-dasharray:none;stroke-dashoffset:0;stroke-opacity:1;color-rendering:auto;image-rendering:auto;shape-rendering:auto;text-rendering:auto;enable-background:accumulate"
             d="m -12,167.64999 c -3.860703,0 -7,3.1393 -7,7 v 104 c 0,3.8607 3.139297,7 7,7 h 112 c 3.8607,0 7,-3.1393 7,-7 v -88 c 0,-3.8607 -3.1393,-7 -7,-7 H 44 c -0.716666,0 -1.721469,-0.70632 -2.859375,-2.125 -1.137904,-1.41868 -2.355204,-3.40752 -3.679687,-5.42578 -1.324484,-2.01826 -2.760475,-4.07436 -4.445313,-5.67578 C 31.330789,168.82199 29.333334,167.64999 27,167.64999 Z"
             id="path1651-9" />
          <path
             style="opacity:1;vector-effect:none;fill:#4f6773;fill-opacity:1;stroke:none;stroke-width:2;stroke-linecap:round;stroke-linejoin:round;stroke-miterlimit:4;stroke-dasharray:none;stroke-dashoffset:0;stroke-opacity:1"
             d="m -12,168.64999 h 39 c 8,0 12,16 17,16 h 56 c 3.324,0 6,2.676 6,6 v 88 c 0,3.324 -2.676,6 -6,6 H -12 c -3.324,0 -6,-2.676 -6,-6 v -104 c 0,-3.324 2.676,-6 6,-6 z"
             id="rect1558-7"
             inkscape:connector-curvature="0"
             sodipodi:nodetypes="sccssssssss" />
          <path
             inkscape:connector-curvature="0"
             style="color:#000000;font-style:normal;font-variant:normal;font-weight:normal;font-stretch:normal;font-size:medium;line-height:normal;font-family:sans-serif;font-variant-ligatures:normal;font-variant-position:normal;font-variant-caps:normal;font-variant-numeric:normal;font-variant-alternates:normal;font-feature-settings:normal;text-indent:0;text-align:start;text-decoration:none;text-decoration-line:none;text-decoration-style:solid;text-decoration-color:#000000;letter-spacing:normal;word-spacing:normal;text-transform:none;writing-mode:lr-tb;direction:ltr;text-orientation:mixed;dominant-baseline:auto;baseline-shift:baseline;text-anchor:start;white-space:normal;shape-padding:0;clip-rule:nonzero;display:inline;overflow:visible;visibility:visible;opacity:1;isolation:auto;mix-blend-mode:normal;color-interpolation:sRGB;color-interpolation-filters:linearRGB;solid-color:#000000;solid-opacity:1;vector-effect:none;fill:#35454d;fill-opacity:1;fill-rule:nonzero;stroke:none;stroke-width:2;stroke-linecap:round;stroke-linejoin:round;stroke-miterlimit:4;stroke-dasharray:none;stroke-dashoffset:0;stroke-opacity:1;color-rendering:auto;image-rendering:auto;shape-rendering:auto;text-rendering:auto;enable-background:accumulate"
             d="m 44,183.64999 c -1.783334,0 -3.153529,1.29368 -4.421875,2.875 -1.268344,1.58132 -2.488546,3.59248 -3.789063,5.57422 -1.300516,1.98174 -2.677023,3.92564 -4.148437,5.32422 -1.471412,1.39856 -2.973959,2.22656 -4.640625,2.22656 h -39 c -3.860703,0 -7,3.1393 -7,7 v 72 c 0,3.8607 3.139297,7 7,7 h 112 c 3.8607,0 7,-3.1393 7,-7 v -88 c 0,-3.8607 -3.1393,-7 -7,-7 z"
             id="path1644-5" />
          <path
             style="opacity:1;vector-effect:none;fill:#607c8a;fill-opacity:1;stroke:none;stroke-width:2;stroke-linecap:round;stroke-linejoin:round;stroke-miterlimit:4;stroke-dasharray:none;stroke-dashoffset:0;stroke-opacity:1"
             d="m -12,200.64999 h 39 c 8,0 12,-16 17,-16 h 56 c 3.324,0 6,2.676 6,6 v 88 c 0,3.324 -2.676,6 -6,6 H -12 c -3.324,0 -6,-2.676 -6,-6 v -72 c 0,-3.324 2.676,-6 6,-6 z"
             id="rect1558-6-3"
             inkscape:connector-curvature="0"
             sodipodi:nodetypes="sccssssssss" />
        </g>
      </g>
      <path
         sodipodi:nodetypes="cccccccccccccc"
         inkscape:connector-curvature="0"
         id="path4241-2-5"
         d="m 93.964816,274.74935 c -0.827798,0.014 -1.560842,0.5383 -1.84375,1.3164 l -8.000002,22 c -0.277388,0.7631 -0.06594,1.6182 0.535156,2.16406 l 22.00001,20.00001 c 0.7624,0.69146 1.92509,0.69146 2.6875,0 l 22,-20.00001 c 0.60109,-0.54586 0.81255,-1.40096 0.53516,-2.16406 l -8,-22 c -0.56087,-1.53944 -2.63333,-1.7885 -3.54297,-0.42578 l -8.33594,11.10844 h -8 l -8.335945,-11.10844 c -0.37779,-0.56686 -1.018106,-0.90248 -1.699219,-0.89062 z"
         style="color:#000000;font-style:normal;font-variant:normal;font-weight:normal;font-stretch:normal;font-size:medium;line-height:normal;font-family:sans-serif;text-indent:0;text-align:start;text-decoration:none;text-decoration-line:none;text-decoration-style:solid;text-decoration-color:#000000;letter-spacing:normal;word-spacing:normal;text-transform:none;writing-mode:lr-tb;direction:ltr;baseline-shift:baseline;text-anchor:start;white-space:normal;clip-rule:nonzero;display:inline;overflow:visible;visibility:visible;opacity:1;isolation:auto;mix-blend-mode:normal;color-interpolation:sRGB;color-interpolation-filters:linearRGB;solid-color:#000000;solid-opacity:1;fill:#eff2f4;fill-opacity:1;fill-rule:evenodd;stroke:none;stroke-width:4.00000095;stroke-linecap:round;stroke-linejoin:round;stroke-miterlimit:4;stroke-dasharray:none;stroke-dashoffset:0;stroke-opacity:1;color-rendering:auto;image-rendering:auto;shape-rendering:auto;text-rendering:auto;enable-background:accumulate" />
    </g>
  </g>
</svg>
