<?xml version="1.0" encoding="UTF-8" standalone="no"?>
<!-- Created with Inkscape (http://www.inkscape.org/) -->

<svg
   width="128"
   height="128"
   viewBox="0 0 128 128"
   version="1.1"
   id="svg8"
   inkscape:version="1.2.1 (9c6d41e410, 2022-07-14)"
   sodipodi:docname="alt-downloads.svg"
   xml:space="preserve"
   xmlns:inkscape="http://www.inkscape.org/namespaces/inkscape"
   xmlns:sodipodi="http://sodipodi.sourceforge.net/DTD/sodipodi-0.dtd"
   xmlns:xlink="http://www.w3.org/1999/xlink"
   xmlns="http://www.w3.org/2000/svg"
   xmlns:svg="http://www.w3.org/2000/svg"
   xmlns:rdf="http://www.w3.org/1999/02/22-rdf-syntax-ns#"
   xmlns:cc="http://creativecommons.org/ns#"
   xmlns:dc="http://purl.org/dc/elements/1.1/"><title
     id="title7895">Antu icon Theme</title><defs
     id="defs2"><linearGradient
       inkscape:collect="always"
       xlink:href="#linearGradient84705"
       id="linearGradient74894"
       gradientUnits="userSpaceOnUse"
       x1="5.2916684"
       y1="7.9374971"
       x2="5.2916684"
       y2="-2.6574166e-06"
       gradientTransform="matrix(3.7795276,0,0,3.7795276,34,204.64999)" /><linearGradient
       inkscape:collect="always"
       id="linearGradient84705"><stop
         style="stop-color:#99d09d;stop-opacity:1;"
         offset="0"
         id="stop84701" /><stop
         style="stop-color:#73bf79;stop-opacity:1;"
         offset="1"
         id="stop84703" /></linearGradient></defs><sodipodi:namedview
     id="base"
     pagecolor="#ffffff"
     bordercolor="#666666"
     borderopacity="1.0"
     inkscape:pageopacity="0.0"
     inkscape:pageshadow="2"
     inkscape:zoom="7.919596"
     inkscape:cx="27.463522"
     inkscape:cy="68.627238"
     inkscape:document-units="px"
     inkscape:current-layer="g11993"
     showgrid="true"
     units="px"
     inkscape:window-width="2160"
     inkscape:window-height="1335"
     inkscape:window-x="0"
     inkscape:window-y="0"
     inkscape:window-maximized="1"
     objecttolerance="10"
     gridtolerance="10"
     guidetolerance="10"
     inkscape:snap-bbox="true"
     inkscape:bbox-nodes="true"
     inkscape:snap-bbox-edge-midpoints="true"
     inkscape:snap-bbox-midpoints="true"
     inkscape:object-paths="true"
     inkscape:snap-intersection-paths="true"
     inkscape:bbox-paths="true"
     inkscape:showpageshadow="2"
     inkscape:pagecheckerboard="0"
     inkscape:deskcolor="#d1d1d1"><inkscape:grid
       type="xygrid"
       id="grid7897"
       empspacing="4" /></sodipodi:namedview><metadata
     id="metadata5"><rdf:RDF><cc:Work
         rdf:about=""><dc:format>image/svg+xml</dc:format><dc:type
           rdf:resource="http://purl.org/dc/dcmitype/StillImage" /><dc:title>Antu icon Theme</dc:title></cc:Work></rdf:RDF></metadata><g
     inkscape:label="Capa 1"
     inkscape:groupmode="layer"
     id="layer1"
     transform="translate(0,-186.64999)"><g
       id="g12637"
       transform="translate(32,8)"><g
         transform="translate(44,-35.99998)"
         id="g11993"><g
           id="g86933"
           transform="translate(-100.00001,19.99999)"><path
             d="m 37.000007,199.64998 c -6.630697,0 -12,5.36932 -12,12.00001 v 93.99999 c 0,6.63069 5.369303,12 12,12 H 139 c 6.63069,0 12,-5.36931 12,-12 v -77.99999 c 0,-6.63068 -5.36931,-12 -12,-12 H 90.000009 c -1.953706,0 -3.574095,-0.84528 -5.205078,-2.25586 -1.630988,-1.41058 -3.205028,-3.37474 -4.9043,-5.38868 -3.398544,-4.02791 -7.44618,-8.35547 -13.890622,-8.35547 z"
             style="color:#000000;font-style:normal;font-variant:normal;font-weight:normal;font-stretch:normal;font-size:medium;line-height:normal;font-family:sans-serif;font-variant-ligatures:normal;font-variant-position:normal;font-variant-caps:normal;font-variant-numeric:normal;font-variant-alternates:normal;font-variant-east-asian:normal;font-feature-settings:normal;font-variation-settings:normal;text-indent:0;text-align:start;text-decoration:none;text-decoration-line:none;text-decoration-style:solid;text-decoration-color:#000000;letter-spacing:normal;word-spacing:normal;text-transform:none;writing-mode:lr-tb;direction:ltr;text-orientation:mixed;dominant-baseline:auto;baseline-shift:baseline;text-anchor:start;white-space:normal;shape-padding:0;shape-margin:0;inline-size:0;clip-rule:nonzero;display:inline;overflow:visible;visibility:visible;isolation:auto;mix-blend-mode:normal;color-interpolation:sRGB;color-interpolation-filters:linearRGB;solid-color:#000000;solid-opacity:1;fill:#5e9c76;fill-opacity:1;fill-rule:nonzero;stroke:none;stroke-width:2;stroke-linecap:butt;stroke-linejoin:miter;stroke-miterlimit:4;stroke-dasharray:none;stroke-dashoffset:0;stroke-opacity:1;color-rendering:auto;image-rendering:auto;shape-rendering:auto;text-rendering:auto;enable-background:accumulate;stop-color:#000000"
             id="path1242-81"
             sodipodi:nodetypes="sssssssssssss" /><path
             id="rect1149-4-0-2"
             style="fill:url(#linearGradient74894);fill-opacity:1;stroke-width:0.999999"
             d="m 37.000007,200.64998 29.000009,2e-5 c 12.000001,0 15.000001,16.00001 24.000001,16.00001 l 48.999993,-2e-5 c 6.094,0 10.99999,4.906 10.99999,10.99996 v 78.00003 c 0,6.094 -4.906,11.00001 -10.99999,11.00001 H 37.000007 c -6.093993,0 -10.99999,-4.90601 -10.99999,-11.00001 v -94.00003 c 0,-6.09398 4.905997,-10.99997 10.99999,-10.99997 z"
             sodipodi:nodetypes="sccssssssss" /><path
             d="m 139,215.64997 c 6.63069,0 12,5.36932 12,12 v 79.00004 c 0,6.63069 -5.36931,12 -12,12 H 37.000007 c -6.630686,0 -12,-5.36931 -12,-12 V 243.65 c 0,-6.63069 5.369314,-12.00001 12,-12.00001 h 30.999988 c 1.95371,0 3.574099,-0.84528 5.205082,-2.25586 1.630984,-1.41058 3.205025,-3.37474 4.904296,-5.38868 3.398544,-4.0279 7.446184,-8.35546 13.890626,-8.35546 z"
             style="color:#000000;font-style:normal;font-variant:normal;font-weight:normal;font-stretch:normal;font-size:medium;line-height:normal;font-family:sans-serif;font-variant-ligatures:normal;font-variant-position:normal;font-variant-caps:normal;font-variant-numeric:normal;font-variant-alternates:normal;font-variant-east-asian:normal;font-feature-settings:normal;font-variation-settings:normal;text-indent:0;text-align:start;text-decoration:none;text-decoration-line:none;text-decoration-style:solid;text-decoration-color:#000000;letter-spacing:normal;word-spacing:normal;text-transform:none;writing-mode:lr-tb;direction:ltr;text-orientation:mixed;dominant-baseline:auto;baseline-shift:baseline;text-anchor:start;white-space:normal;shape-padding:0;shape-margin:0;inline-size:0;clip-rule:nonzero;display:inline;overflow:visible;visibility:visible;isolation:auto;mix-blend-mode:normal;color-interpolation:sRGB;color-interpolation-filters:linearRGB;solid-color:#000000;solid-opacity:1;fill:#5e9c76;fill-opacity:1;fill-rule:nonzero;stroke:none;stroke-width:2;stroke-linecap:butt;stroke-linejoin:miter;stroke-miterlimit:4;stroke-dasharray:none;stroke-dashoffset:0;stroke-opacity:1;color-rendering:auto;image-rendering:auto;shape-rendering:auto;text-rendering:auto;enable-background:accumulate;stop-color:#000000"
             id="path1242-2-9"
             sodipodi:nodetypes="sssssssssssss" /><path
             id="rect1149-4-0-6-3"
             style="fill:#bae0bd;fill-opacity:1;stroke-width:0.999999"
             d="m 139,216.64997 -47.000009,2e-5 c -12,0 -15,16 -24.000004,16 L 37,232.64997 c -6.093997,0 -10.99999,4.906 -10.99999,10.99996 v 63.00008 c 0,6.09399 4.906,11.00001 10.99999,11.00001 h 102 c 6.09399,0 10.99999,-4.90602 10.99999,-11.00001 v -79.00008 c 0,-6.09396 -4.906,-10.99996 -10.99999,-10.99996 z"
             sodipodi:nodetypes="sccssssssss" /></g><path
           sodipodi:nodetypes="ssssssscccccccccss"
           inkscape:connector-curvature="0"
           style="opacity:1;fill:#70a983;fill-opacity:1;stroke:none;stroke-width:1.85164;stroke-linecap:round;stroke-linejoin:round;stroke-miterlimit:4;stroke-dasharray:none;stroke-opacity:1"
           d="m -12,270.64997 c -13.296,0 -24,10.704 -24,24 0,13.29597 10.704,24 24,24 13.296,0 24,-10.70403 24,-24 0,-13.296 -10.704,-24 -24,-24 z m 3e-6,13 c 1.661922,0 3,1.33803 3,3 v 10 h 5 c 0.542472,-1.4e-4 0.986173,0.4323 1,0.9746 0.0061,0.2358 -0.07142,0.46618 -0.21875,0.6504 l -8,10 c -0.400352,0.50094 -1.162148,0.50094 -1.5625,0 l -8,-10 c -0.524132,-0.65496 -0.05758,-1.62536 0.78125,-1.625 h 5 v -10 c 0,-1.66197 1.338079,-3 3,-3 z"
           id="rect4505-0" /></g></g></g></svg>
