<?xml version="1.0" encoding="UTF-8" standalone="no"?>
<!-- Created with Inkscape (http://www.inkscape.org/) -->

<svg
   width="128"
   height="128"
   viewBox="0 0 128 128"
   version="1.1"
   id="svg8"
   inkscape:version="1.2 (dc2aedaf03, 2022-05-15)"
   sodipodi:docname="alt-public.svg"
   xmlns:inkscape="http://www.inkscape.org/namespaces/inkscape"
   xmlns:sodipodi="http://sodipodi.sourceforge.net/DTD/sodipodi-0.dtd"
   xmlns:xlink="http://www.w3.org/1999/xlink"
   xmlns="http://www.w3.org/2000/svg"
   xmlns:svg="http://www.w3.org/2000/svg"
   xmlns:rdf="http://www.w3.org/1999/02/22-rdf-syntax-ns#"
   xmlns:cc="http://creativecommons.org/ns#"
   xmlns:dc="http://purl.org/dc/elements/1.1/">
  <title
     id="title7895">Antu icon Theme</title>
  <defs
     id="defs2">
    <linearGradient
       id="1">
      <stop
         id="stop4778"
         stop-color="#289bf7" />
      <stop
         id="stop4780"
         stop-color="#71b9f1"
         offset="1" />
    </linearGradient>
    <linearGradient
       inkscape:collect="always"
       xlink:href="#linearGradient107497"
       id="linearGradient105054"
       gradientUnits="userSpaceOnUse"
       x1="3.968751"
       y1="6.6145825"
       x2="3.968751"
       y2="-1.0583341"
       gradientTransform="matrix(3.7795276,0,0,3.7795276,4.9999399,190.65002)" />
    <linearGradient
       inkscape:collect="always"
       id="linearGradient107497">
      <stop
         style="stop-color:#75b6f0;stop-opacity:1;"
         offset="0"
         id="stop107493" />
      <stop
         style="stop-color:#429de5;stop-opacity:1;"
         offset="1"
         id="stop107495" />
    </linearGradient>
  </defs>
  <sodipodi:namedview
     id="base"
     pagecolor="#ffffff"
     bordercolor="#666666"
     borderopacity="1.0"
     inkscape:pageopacity="0.0"
     inkscape:pageshadow="2"
     inkscape:zoom="3.959798"
     inkscape:cx="116.42008"
     inkscape:cy="107.96005"
     inkscape:document-units="px"
     inkscape:current-layer="g3148"
     showgrid="true"
     units="px"
     inkscape:window-width="2160"
     inkscape:window-height="1337"
     inkscape:window-x="0"
     inkscape:window-y="0"
     inkscape:window-maximized="1"
     objecttolerance="10"
     gridtolerance="10"
     guidetolerance="10"
     inkscape:snap-bbox="true"
     inkscape:bbox-nodes="true"
     inkscape:snap-bbox-edge-midpoints="true"
     inkscape:snap-bbox-midpoints="true"
     inkscape:object-paths="true"
     inkscape:snap-intersection-paths="true"
     inkscape:bbox-paths="true"
     inkscape:showpageshadow="2"
     inkscape:pagecheckerboard="0"
     inkscape:deskcolor="#d1d1d1">
    <inkscape:grid
       type="xygrid"
       id="grid7897"
       empspacing="4" />
  </sodipodi:namedview>
  <metadata
     id="metadata5">
    <rdf:RDF>
      <cc:Work
         rdf:about="">
        <dc:format>image/svg+xml</dc:format>
        <dc:type
           rdf:resource="http://purl.org/dc/dcmitype/StillImage" />
        <dc:title>Antu icon Theme</dc:title>
      </cc:Work>
    </rdf:RDF>
  </metadata>
  <g
     inkscape:label="Capa 1"
     inkscape:groupmode="layer"
     id="layer1"
     transform="translate(0,-186.64999)">
    <g
       id="g3148"
       transform="translate(10,8)">
      <g
         id="g145180"
         transform="translate(-4.99994,-2.00003)">
        <path
           d="m 7.9999399,185.65002 c -6.6306899,0 -11.9999999,5.36932 -11.9999999,12 v 94 c 0,6.6307 5.36931,12 11.9999999,12 H 109.99994 c 6.63069,0 12,-5.3693 12,-12 v -78 c 0,-6.63068 -5.36931,-12 -12,-12 H 60.999953 c -1.953713,0 -3.57411,-0.84528 -5.20509,-2.25586 -1.630979,-1.41058 -3.205001,-3.37474 -4.904277,-5.38868 -3.398551,-4.0279 -7.446198,-8.35546 -13.890633,-8.35546 z"
           style="color:#000000;font-style:normal;font-variant:normal;font-weight:normal;font-stretch:normal;font-size:medium;line-height:normal;font-family:sans-serif;font-variant-ligatures:normal;font-variant-position:normal;font-variant-caps:normal;font-variant-numeric:normal;font-variant-alternates:normal;font-variant-east-asian:normal;font-feature-settings:normal;font-variation-settings:normal;text-indent:0;text-align:start;text-decoration:none;text-decoration-line:none;text-decoration-style:solid;text-decoration-color:#000000;letter-spacing:normal;word-spacing:normal;text-transform:none;writing-mode:lr-tb;direction:ltr;text-orientation:mixed;dominant-baseline:auto;baseline-shift:baseline;text-anchor:start;white-space:normal;shape-padding:0;shape-margin:0;inline-size:0;clip-rule:nonzero;display:inline;overflow:visible;visibility:visible;isolation:auto;mix-blend-mode:normal;color-interpolation:sRGB;color-interpolation-filters:linearRGB;solid-color:#000000;solid-opacity:1;fill:#2381cc;fill-opacity:1;fill-rule:nonzero;stroke:none;stroke-width:2;stroke-linecap:butt;stroke-linejoin:miter;stroke-miterlimit:4;stroke-dasharray:none;stroke-dashoffset:0;stroke-opacity:1;color-rendering:auto;image-rendering:auto;shape-rendering:auto;text-rendering:auto;enable-background:accumulate;stop-color:#000000"
           id="path1242-10"
           sodipodi:nodetypes="sssssssssssss" />
        <path
           id="rect1149-4-0-7"
           style="fill:url(#linearGradient105054);fill-opacity:1;stroke-width:0.999999"
           d="m 7.9999399,186.65002 29.0000131,10e-6 c 12,0 15,16.00001 24,16.00001 l 48.999987,-2e-5 c 6.094,0 11.00002,4.906 11.00002,10.99996 v 78.00004 c 0,6.094 -4.90602,11 -11.00002,11 H 7.9999399 c -6.0939969,0 -10.9999749,-4.906 -10.9999749,-11 v -94.00004 c 0,-6.09398 4.905978,-10.99996 10.9999749,-10.99996 z"
           sodipodi:nodetypes="sccssssssss" />
        <path
           d="m 109.99994,201.65 c 6.63069,0 12,5.36932 12,12 v 79.00004 c 0,6.6307 -5.36931,12.00001 -12,12.00001 H 7.9999399 c -6.6306899,0 -11.9999999,-5.36931 -11.9999999,-12.00001 v -63.00001 c 0,-6.63069 5.36931,-12.00001 11.9999999,-12.00001 H 38.999928 c 1.953713,0 3.57411,-0.84528 5.205089,-2.25586 1.63098,-1.41058 3.20504,-3.37474 4.904315,-5.38868 3.398514,-4.0279 7.446161,-8.35546 13.890596,-8.35546 z"
           style="color:#000000;font-style:normal;font-variant:normal;font-weight:normal;font-stretch:normal;font-size:medium;line-height:normal;font-family:sans-serif;font-variant-ligatures:normal;font-variant-position:normal;font-variant-caps:normal;font-variant-numeric:normal;font-variant-alternates:normal;font-variant-east-asian:normal;font-feature-settings:normal;font-variation-settings:normal;text-indent:0;text-align:start;text-decoration:none;text-decoration-line:none;text-decoration-style:solid;text-decoration-color:#000000;letter-spacing:normal;word-spacing:normal;text-transform:none;writing-mode:lr-tb;direction:ltr;text-orientation:mixed;dominant-baseline:auto;baseline-shift:baseline;text-anchor:start;white-space:normal;shape-padding:0;shape-margin:0;inline-size:0;clip-rule:nonzero;display:inline;overflow:visible;visibility:visible;isolation:auto;mix-blend-mode:normal;color-interpolation:sRGB;color-interpolation-filters:linearRGB;solid-color:#000000;solid-opacity:1;fill:#2381cc;fill-opacity:1;fill-rule:nonzero;stroke:none;stroke-width:2;stroke-linecap:butt;stroke-linejoin:miter;stroke-miterlimit:4;stroke-dasharray:none;stroke-dashoffset:0;stroke-opacity:1;color-rendering:auto;image-rendering:auto;shape-rendering:auto;text-rendering:auto;enable-background:accumulate;stop-color:#000000"
           id="path1242-2-58"
           sodipodi:nodetypes="sssssssssssss" />
        <path
           id="rect1149-4-0-6-70"
           style="fill:#6fb8f1;fill-opacity:1;stroke-width:0.999999"
           d="m 109.99994,202.65 -47.000012,2e-5 c -12,0 -15,16.00001 -24,16.00001 L 7.9999399,218.65 c -6.0939969,0 -10.9999749,4.906 -10.9999749,10.99997 v 63.00007 c 0,6.094 4.905978,11 10.9999749,11 H 109.99994 c 6.094,0 10.99998,-4.906 10.99998,-11 v -79.00008 c 0,-6.09396 -4.90598,-10.99996 -10.99998,-10.99996 z"
           sodipodi:nodetypes="sccssssssss" />
      </g>
      <path
         inkscape:connector-curvature="0"
         style="opacity:1;fill:#e3f1fc;fill-opacity:1;stroke:none;stroke-width:2;stroke-linecap:round;stroke-linejoin:round;stroke-miterlimit:4;stroke-dasharray:none;stroke-opacity:1"
         d="m 53.999997,232.64998 c -0.30039,0 -0.60078,0.13307 -0.80078,0.40038 l -9,12 c -0.14098,0.18871 -0.21085,0.42109 -0.19727,0.65625 0.0301,0.52927 0.46793,0.94313 0.99805,0.94337 h 5 v 2 2 2 c 0,2.216 1.784,4 4,4 2.216,0 4,-1.784 4,-4 v -2 -2 -2 h 5 c 0.82394,2.3e-4 1.29468,-0.94013 0.80078,-1.59962 l -9,-12 c -0.2,-0.26732 -0.50039,-0.40038 -0.80078,-0.40038 z m -14,21 c -2.216,0 -4,1.78399 -4,4 v 18 c 0,2.216 1.784,4 4,4 h 28 c 2.216,0 4,-1.784 4,-4 v -18 c 0,-2.21601 -1.784,-3.99999 -4,-3.99999 h -6 v 5.99999 h 4 v 14 h -24 v -14 h 4 v -5.99999 z"
         id="rect8263-3-3"
         sodipodi:nodetypes="scccccccsssccccccscsssssssccccccccc" />
    </g>
  </g>
</svg>
