<?xml version="1.0" encoding="UTF-8" standalone="no"?>
<!-- Created with Inkscape (http://www.inkscape.org/) -->

<svg
   xmlns:dc="http://purl.org/dc/elements/1.1/"
   xmlns:cc="http://creativecommons.org/ns#"
   xmlns:rdf="http://www.w3.org/1999/02/22-rdf-syntax-ns#"
   xmlns:svg="http://www.w3.org/2000/svg"
   xmlns="http://www.w3.org/2000/svg"
   xmlns:sodipodi="http://sodipodi.sourceforge.net/DTD/sodipodi-0.dtd"
   xmlns:inkscape="http://www.inkscape.org/namespaces/inkscape"
   width="128"
   height="128"
   viewBox="0 0 33.866666 33.866666"
   version="1.1"
   id="svg8"
   inkscape:version="0.92.3 (2405546, 2018-03-11)"
   sodipodi:docname="apple.svg">
  <defs
     id="defs2" />
  <sodipodi:namedview
     id="base"
     pagecolor="#ffffff"
     bordercolor="#666666"
     borderopacity="1.0"
     inkscape:pageopacity="0.0"
     inkscape:pageshadow="2"
     inkscape:zoom="3.959798"
     inkscape:cx="40.297502"
     inkscape:cy="82.828895"
     inkscape:document-units="px"
     inkscape:current-layer="layer1"
     showgrid="true"
     units="px"
     inkscape:showpageshadow="false"
     inkscape:snap-bbox="true"
     inkscape:bbox-paths="true"
     inkscape:bbox-nodes="true"
     inkscape:snap-bbox-edge-midpoints="true"
     inkscape:snap-bbox-midpoints="true"
     inkscape:object-paths="true"
     inkscape:snap-intersection-paths="true"
     inkscape:window-width="1874"
     inkscape:window-height="1141"
     inkscape:window-x="46"
     inkscape:window-y="30"
     inkscape:window-maximized="1">
    <inkscape:grid
       type="xygrid"
       id="grid815" />
  </sodipodi:namedview>
  <metadata
     id="metadata5">
    <rdf:RDF>
      <cc:Work
         rdf:about="">
        <dc:format>image/svg+xml</dc:format>
        <dc:type
           rdf:resource="http://purl.org/dc/dcmitype/StillImage" />
        <dc:title></dc:title>
      </cc:Work>
    </rdf:RDF>
  </metadata>
  <g
     inkscape:label="Capa 1"
     inkscape:groupmode="layer"
     id="layer1"
     transform="translate(0,-263.13333)">
    <g
       id="g1468"
       transform="translate(13.229166,1.322913)">
      <path
         inkscape:connector-curvature="0"
         id="rect4500"
         d="m 3.7041669,262.075 c 9.2344871,0 16.6687491,7.43426 16.6687491,16.66875 0,9.23448 -7.434262,16.66875 -16.6687491,16.66875 -9.2344874,0 -16.6687499,-7.43427 -16.6687499,-16.66875 0,-9.23449 7.4342625,-16.66875 16.6687499,-16.66875 z"
         style="opacity:1;fill:#9cbbcc;fill-opacity:1;stroke:none;stroke-width:0.04950811;stroke-miterlimit:4;stroke-dasharray:none;stroke-opacity:1" />
      <path
         inkscape:connector-curvature="0"
         id="rect4500-3"
         d="m 3.7041669,262.33958 c 9.0879081,0 16.4041661,7.31626 16.4041661,16.40417 0,9.08791 -7.316258,16.40417 -16.4041661,16.40417 -9.0879082,0 -16.4041669,-7.31626 -16.4041669,-16.40417 0,-9.08791 7.3162587,-16.40417 16.4041669,-16.40417 z"
         style="opacity:1;fill:#ffffff;fill-opacity:1;stroke:none;stroke-width:0.04872227;stroke-miterlimit:4;stroke-dasharray:none;stroke-opacity:1" />
      <path
         id="path5"
         d="m 6.8936359,269.00739 c -0.983209,0.0677 -2.133305,0.69585 -2.804997,1.51412 -0.609494,0.74336 -1.112634,1.84622 -0.91674,2.91714 1.07342,0.0335 2.183923,-0.61039 2.828768,-1.44126 0.601358,-0.77557 1.058749,-1.87035 0.892969,-2.99 z m 0.363802,4.31188 c -1.656735,0 -2.356923,0.78962 -3.506246,0.78962 -1.184506,0 -2.085138,-0.78858 -3.51813098,-0.78858 -1.40728102,0 -2.90378602,0.85865 -3.85247832,2.32544 -0.00587,0.009 -0.011517,0.0177 -0.017052,0.0269 l 13.7102734,0.001 c 0.210735,-0.17936 0.446607,-0.34254 0.707967,-0.48627 -0.9452911,-1.18357 -2.2725941,-1.86811 -3.5243331,-1.86811 z"
         style="clip-rule:evenodd;overflow:visible;fill:#bae0bd;fill-opacity:1;fill-rule:evenodd;stroke:#5e9c76;stroke-width:0.26458332;stroke-linecap:round;stroke-linejoin:round;stroke-miterlimit:2.61310005;stroke-dasharray:none;stroke-opacity:1"
         inkscape:connector-curvature="0" />
      <path
         stroke-miterlimit="2.6131"
         d="m -3.6856402,275.65088 c -0.4085519,0.64275 -0.6912383,1.564 -0.7662556,2.37205 l 13.2543117,-3.5e-4 c 0.143308,-0.88403 0.619821,-1.72862 1.3750981,-2.37073 l -13.8631542,-9.7e-4 h 7.937e-4 z"
         id="path9"
         style="clip-rule:evenodd;overflow:visible;fill:#ffeea3;fill-opacity:1;fill-rule:evenodd;stroke:#ba9b48;stroke-width:0.26458332;stroke-linecap:round;stroke-linejoin:round;stroke-miterlimit:2.61310005;stroke-dasharray:none;stroke-opacity:1"
         inkscape:connector-curvature="0"
         sodipodi:nodetypes="ccccccc" />
      <path
         stroke-miterlimit="2.6131"
         d="m -4.3315373,280.3739 c -0.1287958,-0.82531 -0.1496391,-1.62098 -0.068734,-2.35094 l 13.1510607,-3.4e-4 c -0.128629,0.79161 -0.02068,1.61541 0.304681,2.35177 z"
         id="path11"
         inkscape:connector-curvature="0"
         style="clip-rule:evenodd;overflow:visible;fill:#f0a371;fill-opacity:1;fill-rule:evenodd;stroke:#b86e3e;stroke-width:0.26458332;stroke-linecap:round;stroke-linejoin:round;stroke-miterlimit:2.61310005;stroke-dasharray:none;stroke-opacity:1" />
      <path
         stroke-miterlimit="2.6131"
         d="m -3.6888266,282.72467 c -0.3105502,-0.78981 -0.5231863,-1.58307 -0.6427107,-2.35077 l 13.3870082,5e-4 c 0.414434,0.9383 1.1814051,1.73544 2.2613601,2.14508 -0.03208,0.0716 -0.06303,0.14015 -0.09281,0.20619 z"
         id="path13"
         inkscape:connector-curvature="0"
         style="clip-rule:evenodd;overflow:visible;fill:#f78f8f;fill-opacity:1;fill-rule:evenodd;stroke:#c74343;stroke-width:0.26458332;stroke-linecap:round;stroke-linejoin:round;stroke-miterlimit:2.61310005;stroke-dasharray:none;stroke-opacity:1" />
      <path
         stroke-miterlimit="2.6131"
         d="m 11.223987,282.72564 c -0.37078,0.81857 -0.585717,1.24341 -1.098832,2.02766 -0.06903,0.10533 -0.1403681,0.21306 -0.2146371,0.3218 l -12.356877,10e-4 c -0.03959,-0.0592 -0.07881,-0.11839 -0.117423,-0.17709 -0.4619905,-0.70659 -0.8360047,-1.43916 -1.1250445,-2.17452 z"
         id="path15"
         inkscape:connector-curvature="0"
         style="clip-rule:evenodd;overflow:visible;fill:#dcd5f2;fill-opacity:1;fill-rule:evenodd;stroke:#8b75a1;stroke-width:0.26458332;stroke-linecap:round;stroke-linejoin:round;stroke-miterlimit:2.61310005;stroke-dasharray:none;stroke-opacity:1" />
      <path
         stroke-miterlimit="2.6131"
         d="m 9.9105179,285.0751 c -0.755899,1.11194 -1.770723,2.33556 -3.002119,2.34718 -1.201581,0.011 -1.50983,-0.78521 -3.140018,-0.77624 -1.630189,0.009 -1.97052,0.79014 -3.17210198,0.77886 -1.284654,-0.0119 -2.28220302,-1.21365 -3.04263802,-2.34866 z"
         id="path19"
         inkscape:connector-curvature="0"
         style="clip-rule:evenodd;overflow:visible;fill:#8bb7f0;fill-opacity:1;fill-rule:evenodd;stroke:#4e7ab5;stroke-width:0.26458332;stroke-linecap:round;stroke-linejoin:round;stroke-miterlimit:2.61310005;stroke-dasharray:none;stroke-opacity:1" />
    </g>
  </g>
</svg>
