<?xml version="1.0" encoding="UTF-8" standalone="no"?>
<!-- Created with Inkscape (http://www.inkscape.org/) -->

<svg
   xmlns:dc="http://purl.org/dc/elements/1.1/"
   xmlns:cc="http://creativecommons.org/ns#"
   xmlns:rdf="http://www.w3.org/1999/02/22-rdf-syntax-ns#"
   xmlns:svg="http://www.w3.org/2000/svg"
   xmlns="http://www.w3.org/2000/svg"
   xmlns:sodipodi="http://sodipodi.sourceforge.net/DTD/sodipodi-0.dtd"
   xmlns:inkscape="http://www.inkscape.org/namespaces/inkscape"
   width="128"
   height="128"
   viewBox="0 0 33.866666 33.866666"
   version="1.1"
   id="svg8"
   inkscape:version="0.92.3 (2405546, 2018-03-11)"
   sodipodi:docname="arch.svg">
  <defs
     id="defs2" />
  <sodipodi:namedview
     id="base"
     pagecolor="#ffffff"
     bordercolor="#666666"
     borderopacity="1.0"
     inkscape:pageopacity="0.0"
     inkscape:pageshadow="2"
     inkscape:zoom="5.6"
     inkscape:cx="70.558716"
     inkscape:cy="93.118933"
     inkscape:document-units="px"
     inkscape:current-layer="g2739"
     showgrid="true"
     units="px"
     inkscape:showpageshadow="false"
     inkscape:snap-bbox="true"
     inkscape:bbox-paths="true"
     inkscape:bbox-nodes="true"
     inkscape:snap-bbox-edge-midpoints="true"
     inkscape:snap-bbox-midpoints="true"
     inkscape:object-paths="true"
     inkscape:snap-intersection-paths="true"
     inkscape:window-width="1874"
     inkscape:window-height="1141"
     inkscape:window-x="46"
     inkscape:window-y="30"
     inkscape:window-maximized="1">
    <inkscape:grid
       type="xygrid"
       id="grid815" />
  </sodipodi:namedview>
  <metadata
     id="metadata5">
    <rdf:RDF>
      <cc:Work
         rdf:about="">
        <dc:format>image/svg+xml</dc:format>
        <dc:type
           rdf:resource="http://purl.org/dc/dcmitype/StillImage" />
        <dc:title />
      </cc:Work>
    </rdf:RDF>
  </metadata>
  <g
     inkscape:label="Capa 1"
     inkscape:groupmode="layer"
     id="layer1"
     transform="translate(0,-263.13333)">
    <g
       id="g2739"
       transform="translate(11.377083,1.322913)">
      <path
         style="overflow:visible;opacity:1;fill:#4e87b5;fill-opacity:0.92156863;stroke:none;stroke-width:0.04950811;stroke-miterlimit:4;stroke-dasharray:none;stroke-opacity:1"
         d="m 5.5562502,262.075 c 9.2344868,0 16.6687488,7.43426 16.6687488,16.66875 0,9.23448 -7.434262,16.66875 -16.6687488,16.66875 -9.2344874,0 -16.6687502,-7.43427 -16.6687502,-16.66875 0,-9.23449 7.4342628,-16.66875 16.6687502,-16.66875 z"
         id="rect4500-6"
         inkscape:connector-curvature="0" />
      <path
         style="overflow:visible;opacity:1;fill:#8bcaf0;fill-opacity:1;stroke:none;stroke-width:0.04872227;stroke-miterlimit:4;stroke-dasharray:none;stroke-opacity:1"
         d="m 5.5562502,262.33958 c 9.0879078,0 16.4041658,7.31626 16.4041658,16.40417 0,9.08791 -7.316258,16.40417 -16.4041658,16.40417 -9.0879082,0 -16.4041672,-7.31626 -16.4041672,-16.40417 0,-9.08791 7.316259,-16.40417 16.4041672,-16.40417 z"
         id="rect4500-3-1"
         inkscape:connector-curvature="0" />
      <path
         inkscape:connector-curvature="0"
         id="path4199-2-9"
         d="m 5.5562382,269.21877 c -2.315101,8.10284 -9.2604045,18.52081 -9.2604045,18.52081 2.6195525,-1.74638 4.8829475,-2.61634 7.0922595,-3.04535 a 2.3151015,2.8938767 0 0 1 -0.06331,-0.23286 2.3151015,2.8938767 0 0 1 -0.04974,-0.28036 2.3151015,2.8938767 0 0 1 -0.02713,-0.28712 2.3151015,2.8938767 0 0 1 -0.0068,-0.20574 2.3151015,2.8938767 0 0 1 0.01135,-0.28939 2.3151015,2.8938767 0 0 1 0.03391,-0.28486 2.3151015,2.8938767 0 0 1 0.05878,-0.28035 2.3151015,2.8938767 0 0 1 0.07912,-0.27132 2.3151015,2.8938767 0 0 1 0.09948,-0.26225 2.3151015,2.8938767 0 0 1 0.122084,-0.24643 2.3151015,2.8938767 0 0 1 0.140171,-0.2306 2.3151015,2.8938767 0 0 1 0.158261,-0.21026 2.3151015,2.8938767 0 0 1 0.171822,-0.19216 2.3151015,2.8938767 0 0 1 0.189914,-0.16732 2.3151015,2.8938767 0 0 1 0.201213,-0.14469 2.3151015,2.8938767 0 0 1 0.210257,-0.11756 2.3151015,2.8938767 0 0 1 0.219303,-0.0904 2.3151015,2.8938767 0 0 1 0.226085,-0.0633 2.3151015,2.8938767 0 0 1 0.230605,-0.0361 2.3151015,2.8938767 0 0 1 0.16278,-0.007 2.3151015,2.8938767 0 0 1 0.230606,0.0136 2.3151015,2.8938767 0 0 1 0.228344,0.0453 2.3151015,2.8938767 0 0 1 0.226084,0.0702 2.3151015,2.8938767 0 0 1 0.217043,0.0994 2.3151015,2.8938767 0 0 1 0.207997,0.1266 2.3151015,2.8938767 0 0 1 0.196694,0.15148 2.3151015,2.8938767 0 0 1 0.185388,0.17408 2.3151015,2.8938767 0 0 1 0.169564,0.1967 2.3151015,2.8938767 0 0 1 0.151476,0.21704 2.3151015,2.8938767 0 0 1 0.135652,0.23513 2.3151015,2.8938767 0 0 1 0.115303,0.25094 2.3151015,2.8938767 0 0 1 0.0927,0.26453 2.3151015,2.8938767 0 0 1 0.07461,0.27582 2.3151015,2.8938767 0 0 1 0.04974,0.28035 2.3151015,2.8938767 0 0 1 0.02716,0.28712 2.3151015,2.8938767 0 0 1 0.0068,0.20574 2.3151015,2.8938767 0 0 1 -0.01135,0.28939 2.3151015,2.8938767 0 0 1 -0.03391,0.28487 2.3151015,2.8938767 0 0 1 -0.05878,0.28034 2.3151015,2.8938767 0 0 1 -0.04296,0.15148 c 2.209307,0.429 4.4727068,1.29897 7.0922558,3.04534 0,0 -6.9453018,-10.41794 -9.2604038,-18.52081 z"
         style="overflow:visible;fill:#406e94;fill-opacity:1;fill-rule:evenodd;stroke:none;stroke-width:0.26458332px;stroke-linecap:butt;stroke-linejoin:miter;stroke-opacity:1" />
    </g>
  </g>
</svg>
