<?xml version="1.0" encoding="UTF-8" standalone="no"?>
<!-- Created with Inkscape (http://www.inkscape.org/) -->

<svg
   xmlns:dc="http://purl.org/dc/elements/1.1/"
   xmlns:cc="http://creativecommons.org/ns#"
   xmlns:rdf="http://www.w3.org/1999/02/22-rdf-syntax-ns#"
   xmlns:svg="http://www.w3.org/2000/svg"
   xmlns="http://www.w3.org/2000/svg"
   xmlns:sodipodi="http://sodipodi.sourceforge.net/DTD/sodipodi-0.dtd"
   xmlns:inkscape="http://www.inkscape.org/namespaces/inkscape"
   width="128"
   height="128"
   viewBox="0 0 33.866666 33.866666"
   version="1.1"
   id="svg8"
   inkscape:version="0.92.3 (2405546, 2018-03-11)"
   sodipodi:docname="desktop.svg">
  <defs
     id="defs2" />
  <sodipodi:namedview
     id="base"
     pagecolor="#ffffff"
     bordercolor="#666666"
     borderopacity="1.0"
     inkscape:pageopacity="0.0"
     inkscape:pageshadow="2"
     inkscape:zoom="11.2"
     inkscape:cx="26.884118"
     inkscape:cy="30.648551"
     inkscape:document-units="px"
     inkscape:current-layer="layer1"
     showgrid="true"
     units="px"
     inkscape:showpageshadow="false"
     inkscape:snap-bbox="true"
     inkscape:bbox-paths="true"
     inkscape:bbox-nodes="true"
     inkscape:snap-bbox-edge-midpoints="true"
     inkscape:snap-bbox-midpoints="true"
     inkscape:object-paths="true"
     inkscape:snap-intersection-paths="true"
     inkscape:window-width="1874"
     inkscape:window-height="1141"
     inkscape:window-x="46"
     inkscape:window-y="30"
     inkscape:window-maximized="1">
    <inkscape:grid
       type="xygrid"
       id="grid815" />
  </sodipodi:namedview>
  <metadata
     id="metadata5">
    <rdf:RDF>
      <cc:Work
         rdf:about="">
        <dc:format>image/svg+xml</dc:format>
        <dc:type
           rdf:resource="http://purl.org/dc/dcmitype/StillImage" />
        <dc:title></dc:title>
      </cc:Work>
    </rdf:RDF>
  </metadata>
  <g
     inkscape:label="Capa 1"
     inkscape:groupmode="layer"
     id="layer1"
     transform="translate(0,-263.13333)">
    <g
       id="g5527"
       transform="translate(-1.190625,-5.2916639)">
      <path
         id="rect5200"
         d="M 2.2489789,270.80625 H 33.998939 c 0.586327,0 1.058352,0.47202 1.058352,1.05835 v 28.04579 c 0,0.58633 -0.472025,1.05836 -1.058352,1.05836 H 2.2489789 c -0.586328,0 -1.0583539,-0.47203 -1.0583539,-1.05836 V 271.8646 c 0,-0.58633 0.4720259,-1.05835 1.0583539,-1.05835 z"
         style="overflow:visible;opacity:1;fill:#4f92db;fill-opacity:1;stroke:none;stroke-width:0.0738107;stroke-miterlimit:4;stroke-dasharray:none;stroke-opacity:1"
         inkscape:connector-curvature="0" />
      <path
         sodipodi:nodetypes="ssccsss"
         inkscape:connector-curvature="0"
         id="rect5200-6"
         d="m 2.2489591,271.07082 c -0.4397375,0 -0.79375,0.35402 -0.79375,0.79375 v 24.07708 H 34.792708 v -24.07708 c 0,-0.43973 -0.354013,-0.79375 -0.79375,-0.79375 z"
         style="overflow:visible;opacity:1;fill:#5abfff;fill-opacity:1;stroke:none;stroke-width:0.0738107;stroke-miterlimit:4;stroke-dasharray:none;stroke-opacity:1" />
      <path
         inkscape:connector-curvature="0"
         style="overflow:visible;opacity:1;fill:#ddf3ff;fill-opacity:1;stroke:none;stroke-width:0.07937501;stroke-miterlimit:4;stroke-dasharray:none;stroke-opacity:1"
         d="m 1.4552096,296.20624 v 1.05833 0.26459 2.38125 c 0,0.43974 0.3540123,0.79375 0.79375,0.79375 H 33.99896 c 0.439738,0 0.79375,-0.35401 0.79375,-0.79375 v -2.38125 -0.26459 -1.05833 H 33.99896 2.2489596 Z m 1.4552084,0.79375 c 0.2198647,0 0.3968749,0.17701 0.3968749,0.39688 0,0.21986 -0.1770102,0.39687 -0.3968749,0.39687 -0.2198646,0 -0.396875,-0.17701 -0.396875,-0.39687 0,-0.21987 0.1770104,-0.39688 0.396875,-0.39688 z m 1.0583333,0 c 0.2198645,0 0.396875,0.17701 0.396875,0.39688 0,0.21986 -0.1770105,0.39687 -0.396875,0.39687 -0.2198645,0 -0.396875,-0.17701 -0.396875,-0.39687 0,-0.21987 0.1770105,-0.39688 0.396875,-0.39688 z m 1.0583333,0 c 0.2198645,0 0.396875,0.17701 0.396875,0.39688 0,0.21986 -0.1770105,0.39687 -0.396875,0.39687 -0.2198645,0 -0.396875,-0.17701 -0.396875,-0.39687 0,-0.21987 0.1770105,-0.39688 0.396875,-0.39688 z m 21.2989574,0.26458 c 0.146584,0 0.264584,0.11799 0.264584,0.26459 v 1.85208 c 0,0.14658 -0.118004,0.26458 -0.264584,0.26458 -0.146582,0 -0.264583,-0.11798 -0.264583,-0.26458 v -1.85208 c 0,-0.14658 0.118004,-0.26459 0.264583,-0.26459 z m 1.45521,0 c 0.513027,0 0.926042,0.41301 0.926042,0.92605 v 0.52916 c 0,0.51302 -0.413015,0.92604 -0.926042,0.92604 -0.513027,0 -0.926043,-0.41302 -0.926043,-0.92604 v -0.52916 c 0,-0.51304 0.413016,-0.92605 0.926043,-0.92605 z m 2.910417,0 c 0.513027,0 0.926041,0.41301 0.926041,0.92605 v 0.52916 c 0,0.51302 -0.413014,0.92604 -0.926041,0.92604 -0.513027,0 -0.926042,-0.41302 -0.926042,-0.92604 v -0.52916 c 0,-0.51304 0.413015,-0.92605 0.926042,-0.92605 z m 2.116666,0 c 0.513027,0 0.926042,0.41301 0.926042,0.92605 v 0.52916 c 0,0.51302 -0.413015,0.92604 -0.926042,0.92604 -0.513027,0 -0.926041,-0.41302 -0.926041,-0.92604 v -0.52916 c 0,-0.51304 0.413014,-0.92605 0.926041,-0.92605 z m -5.027083,0.52917 c -0.219875,0 -0.396876,0.177 -0.396876,0.39688 v 0.52916 c 0,0.21988 0.177006,0.39688 0.396876,0.39688 0.219877,0 0.396875,-0.17702 0.396875,-0.39688 v -0.52916 c 0,-0.21988 -0.177006,-0.39688 -0.396875,-0.39688 z m 1.190625,0 h 0.529167 v 0.52917 h -0.529167 z m 1.719792,0 c -0.219874,0 -0.396875,0.177 -0.396875,0.39688 v 0.52916 c 0,0.21988 0.177006,0.39688 0.396875,0.39688 0.219876,0 0.396875,-0.17702 0.396875,-0.39688 v -0.52916 c 0,-0.21988 -0.177007,-0.39688 -0.396875,-0.39688 z m 2.116666,0 c -0.219876,0 -0.396875,0.177 -0.396875,0.39688 v 0.52916 c 0,0.21988 0.177007,0.39688 0.396875,0.39688 0.219874,0 0.396875,-0.17702 0.396875,-0.39688 v -0.52916 c 0,-0.21988 -0.177006,-0.39688 -0.396875,-0.39688 z m -29.897917,0.26458 c 0.2198647,0 0.3968749,0.17702 0.3968749,0.39688 0,0.21986 -0.1770102,0.39687 -0.3968749,0.39687 -0.2198646,0 -0.396875,-0.17701 -0.396875,-0.39687 0,-0.21986 0.1770104,-0.39688 0.396875,-0.39688 z m 1.0583333,0 c 0.2198645,0 0.396875,0.17702 0.396875,0.39688 0,0.21986 -0.1770105,0.39687 -0.396875,0.39687 -0.2198645,0 -0.396875,-0.17701 -0.396875,-0.39687 0,-0.21986 0.1770105,-0.39688 0.396875,-0.39688 z m 1.0583333,0 c 0.2198645,0 0.396875,0.17702 0.396875,0.39688 0,0.21986 -0.1770105,0.39687 -0.396875,0.39687 -0.2198645,0 -0.396875,-0.17701 -0.396875,-0.39687 0,-0.21986 0.1770105,-0.39688 0.396875,-0.39688 z m 23.9447924,0.52917 h 0.529167 v 0.52917 h -0.529167 z m -26.061459,0.52917 c 0.2198647,0 0.3968749,0.17701 0.3968749,0.39687 0,0.21987 -0.1770102,0.39688 -0.3968749,0.39688 -0.2198646,0 -0.396875,-0.17701 -0.396875,-0.39688 0,-0.21986 0.1770104,-0.39687 0.396875,-0.39687 z m 1.0583333,0 c 0.2198645,0 0.396875,0.17701 0.396875,0.39687 0,0.21987 -0.1770105,0.39688 -0.396875,0.39688 -0.2198645,0 -0.396875,-0.17701 -0.396875,-0.39688 0,-0.21986 0.1770105,-0.39687 0.396875,-0.39687 z m 1.0583333,0 c 0.2198645,0 0.396875,0.17701 0.396875,0.39687 0,0.21987 -0.1770105,0.39688 -0.396875,0.39688 -0.2198645,0 -0.396875,-0.17701 -0.396875,-0.39688 0,-0.21986 0.1770105,-0.39687 0.396875,-0.39687 z"
         id="rect5249" />
    </g>
  </g>
</svg>
