<?xml version="1.0" encoding="UTF-8" standalone="no"?>
<!-- Created with Inkscape (http://www.inkscape.org/) -->

<svg
   width="128"
   height="128"
   viewBox="0 0 33.866666 33.866666"
   version="1.1"
   id="svg8"
   inkscape:version="1.2 (dc2aedaf03, 2022-05-15)"
   sodipodi:docname="user-desktop.svg"
   xmlns:inkscape="http://www.inkscape.org/namespaces/inkscape"
   xmlns:sodipodi="http://sodipodi.sourceforge.net/DTD/sodipodi-0.dtd"
   xmlns="http://www.w3.org/2000/svg"
   xmlns:svg="http://www.w3.org/2000/svg"
   xmlns:rdf="http://www.w3.org/1999/02/22-rdf-syntax-ns#"
   xmlns:cc="http://creativecommons.org/ns#"
   xmlns:dc="http://purl.org/dc/elements/1.1/">
  <defs
     id="defs2" />
  <sodipodi:namedview
     id="base"
     pagecolor="#ffffff"
     bordercolor="#666666"
     borderopacity="1.0"
     inkscape:pageopacity="0.0"
     inkscape:pageshadow="2"
     inkscape:zoom="7.919596"
     inkscape:cx="110.16976"
     inkscape:cy="79.486378"
     inkscape:document-units="px"
     inkscape:current-layer="layer1"
     showgrid="true"
     units="px"
     inkscape:showpageshadow="false"
     inkscape:snap-bbox="true"
     inkscape:bbox-paths="true"
     inkscape:bbox-nodes="true"
     inkscape:snap-bbox-edge-midpoints="true"
     inkscape:snap-bbox-midpoints="true"
     inkscape:object-paths="true"
     inkscape:snap-intersection-paths="true"
     inkscape:window-width="2160"
     inkscape:window-height="1335"
     inkscape:window-x="0"
     inkscape:window-y="0"
     inkscape:window-maximized="1"
     inkscape:pagecheckerboard="0"
     inkscape:deskcolor="#d1d1d1">
    <inkscape:grid
       type="xygrid"
       id="grid815" />
  </sodipodi:namedview>
  <metadata
     id="metadata5">
    <rdf:RDF>
      <cc:Work
         rdf:about="">
        <dc:format>image/svg+xml</dc:format>
        <dc:type
           rdf:resource="http://purl.org/dc/dcmitype/StillImage" />
        <dc:title />
      </cc:Work>
    </rdf:RDF>
  </metadata>
  <g
     inkscape:label="Capa 1"
     inkscape:groupmode="layer"
     id="layer1"
     transform="translate(0,-263.13333)">
    <g
       id="g48400"
       transform="translate(9.2604172,7.9375036)">
      <g
         id="g16302"
         transform="translate(22.754165,-45.243767)">
        <path
           id="rect5935-1-3"
           style="fill:#363c4d;stroke-width:0.529167;stroke-linecap:round;stroke-linejoin:round;stroke-miterlimit:1.8;paint-order:fill markers stroke;stop-color:#000000"
           d="m -28.574998,301.76251 h 26.9874977 c 1.75894994,0 3.1749999,1.41605 3.1749999,3.175 v 25.13543 c 0,1.75895 -1.41604996,3.175 -3.1749999,3.175 H -28.574998 c -1.75895,0 -3.175,-1.41605 -3.175,-3.175 v -25.13543 c 0,-1.75895 1.41605,-3.175 3.175,-3.175 z" />
        <path
           id="rect5935-2-2-1"
           style="fill:#4b6477;stroke-width:0.529167;stroke-linecap:round;stroke-linejoin:round;stroke-miterlimit:1.8;paint-order:fill markers stroke;stop-color:#000000"
           d="m -28.574998,302.0271 h 26.9875012 c 1.61237084,0 2.9104166,1.29805 2.9104166,2.91042 v 25.13542 c 0,1.61237 -1.29804576,2.91041 -2.9104166,2.91041 H -28.574998 c -1.612371,0 -2.910417,-1.29804 -2.910417,-2.91041 v -25.13542 c 0,-1.61237 1.298046,-2.91042 2.910417,-2.91042 z" />
        <path
           id="rect5935-2-2-1-0"
           style="fill:#363c4d;stroke-width:0.504751;stroke-linecap:round;stroke-linejoin:round;stroke-miterlimit:1.8;paint-order:fill markers stroke;stop-color:#000000"
           d="m -28.574999,303.08542 h 26.9874993 c 1.02605412,0 1.85208329,0.82603 1.85208329,1.85208 v 25.13539 c 0,1.02606 -0.82602917,1.85209 -1.85208329,1.85209 H -28.574999 c -1.026054,0 -1.852083,-0.82603 -1.852083,-1.85209 V 304.9375 c 0,-1.02605 0.826029,-1.85208 1.852083,-1.85208 z" />
        <path
           id="rect5935-2-2-1-0-3"
           style="fill:#5abfff;stroke-width:0.500895;stroke-linecap:round;stroke-linejoin:round;stroke-miterlimit:1.8;paint-order:fill markers stroke;stop-color:#000000"
           d="M -28.574998,303.35001 H -1.5875 c 0.87947501,0 1.5875,0.70802 1.5875,1.5875 v 25.13542 c 0,0.87947 -0.70802499,1.5875 -1.5875,1.5875 h -26.987498 c -0.879475,0 -1.5875,-0.70803 -1.5875,-1.5875 v -25.13542 c 0,-0.87948 0.708025,-1.5875 1.5875,-1.5875 z" />
      </g>
      <path
         id="rect5935-2-9-7-6"
         style="fill:#ddf3ff;fill-opacity:1;stroke-width:0.529167;stroke-linecap:round;stroke-linejoin:round;stroke-miterlimit:1.8;paint-order:fill markers stroke;stop-color:#000000"
         d="M -6.0854173 279.80208 L -6.0854173 281.91874 L -6.0854173 282.44791 L -6.0854173 282.97708 L -6.0854173 283.77083 L -6.0854173 284.29999 C -6.0854173 284.73972 -5.7314043 285.09374 -5.2916673 285.09374 L -4.4979173 285.09374 L -3.9687506 285.09374 L -0.26458404 285.09374 L 15.345832 285.09374 L 19.314582 285.09374 L 19.823078 285.09374 L 20.108332 285.09374 L 20.637499 285.09374 C 21.077236 285.09374 21.431249 284.73972 21.431249 284.29999 L 21.431249 283.77083 L 21.431249 282.97708 L 21.431249 282.44791 L 21.431249 281.91874 L 21.431249 279.80208 L 19.314582 279.80208 L -3.9687506 279.80208 L -6.0854173 279.80208 z " />
      <g
         id="g38343"
         transform="translate(-8.5989586,-7.9375006)">
        <path
           id="rect2066-4-9"
           style="fill:#ddf3ff;fill-opacity:1;stroke-width:0.422129;stroke-linecap:round;stroke-linejoin:round;stroke-miterlimit:1.8;paint-order:fill markers stroke;stop-color:#000000"
           d="m 6.8352421,270.80625 c -0.3420172,0 -0.6175334,0.27552 -0.6175334,0.61753 v 8.02535 c 0,0.34202 0.2755162,0.61754 0.6175334,0.61754 H 17.506424 c 0.342018,0 0.617534,-0.27552 0.617534,-0.61754 v -8.02535 c 0,-0.34201 -0.275516,-0.61753 -0.617534,-0.61753 z m 12.3470489,4.7625 v 1.32292 0.26458 2.64583 c 0,0.0229 -4.11e-4,0.0456 -0.0015,0.0682 -0.0011,0.0226 -0.0029,0.0449 -0.0052,0.0672 -0.0023,0.0223 -0.0049,0.0447 -0.0083,0.0667 -0.0033,0.0219 -0.0075,0.0435 -0.01189,0.0651 -0.0044,0.0216 -0.009,0.0429 -0.01447,0.0641 -0.0054,0.0212 -0.01166,0.0423 -0.01809,0.063 -0.0064,0.0207 -0.01327,0.0412 -0.02067,0.0615 -0.0074,0.0203 -0.01543,0.0401 -0.02377,0.0599 -0.0083,0.0198 -0.01709,0.0396 -0.02636,0.0589 -0.0093,0.0193 -0.01878,0.0381 -0.02894,0.0568 -0.01016,0.0188 -0.02101,0.0371 -0.03204,0.0553 -0.01103,0.0182 -0.02224,0.0362 -0.03411,0.0538 -0.01186,0.0176 -0.02402,0.0352 -0.03669,0.0522 -0.01267,0.017 -0.02582,0.0333 -0.03927,0.0496 -0.01346,0.0163 -0.02764,0.0324 -0.04186,0.0481 -0.01422,0.0156 -0.02846,0.031 -0.04341,0.046 -0.01494,0.0149 -0.03034,0.0292 -0.04599,0.0434 -0.01565,0.0142 -0.03174,0.0284 -0.04806,0.0419 -0.01632,0.0134 -0.03264,0.0266 -0.04961,0.0393 -0.01697,0.0127 -0.0346,0.0248 -0.05219,0.0367 -0.01759,0.0119 -0.03556,0.0231 -0.05374,0.0341 -0.01818,0.011 -0.03655,0.0219 -0.05529,0.032 -0.01875,0.0102 -0.03756,0.0197 -0.05684,0.0289 -0.01929,0.009 -0.03911,0.018 -0.05891,0.0264 -0.0198,0.008 -0.03966,0.0164 -0.05994,0.0238 -0.02028,0.007 -0.04076,0.0143 -0.0615,0.0207 -0.02074,0.006 -0.04188,0.0127 -0.06305,0.0181 -0.02117,0.005 -0.04251,0.0101 -0.06408,0.0145 -0.02157,0.004 -0.04317,0.009 -0.06511,0.0119 -0.02194,0.003 -0.04437,0.006 -0.06666,0.008 -0.02229,0.002 -0.04457,0.004 -0.06718,0.005 -0.02261,0.001 -0.04531,0.002 -0.06821,0.002 h -1.5875 -1.058333 -1.322916 v 3.08663 c 0,0.34202 0.275516,0.61754 0.617533,0.61754 h 10.671183 c 0.342017,0 0.617533,-0.27552 0.617533,-0.61754 v -8.02535 c 0,-0.34201 -0.275516,-0.61753 -0.617533,-0.61753 z" />
      </g>
    </g>
  </g>
</svg>
