<?xml version="1.0" encoding="UTF-8" standalone="no"?>
<!-- Created with Inkscape (http://www.inkscape.org/) -->

<svg
   width="128"
   height="128"
   viewBox="0 0 33.866666 33.866666"
   version="1.1"
   id="svg8"
   inkscape:version="1.2.1 (9c6d41e410, 2022-07-14)"
   sodipodi:docname="folder-onedrive.svg"
   xml:space="preserve"
   xmlns:inkscape="http://www.inkscape.org/namespaces/inkscape"
   xmlns:sodipodi="http://sodipodi.sourceforge.net/DTD/sodipodi-0.dtd"
   xmlns:xlink="http://www.w3.org/1999/xlink"
   xmlns="http://www.w3.org/2000/svg"
   xmlns:svg="http://www.w3.org/2000/svg"
   xmlns:rdf="http://www.w3.org/1999/02/22-rdf-syntax-ns#"
   xmlns:cc="http://creativecommons.org/ns#"
   xmlns:dc="http://purl.org/dc/elements/1.1/"><defs
     id="defs2"><linearGradient
       inkscape:collect="always"
       xlink:href="#linearGradient62647"
       id="linearGradient52205"
       gradientUnits="userSpaceOnUse"
       x1="3.968751"
       y1="6.6145825"
       x2="3.9687517"
       y2="-1.49325e-06"
       gradientTransform="matrix(3.7795276,0,0,3.7795276,57.99999,317.65)" /><linearGradient
       inkscape:collect="always"
       id="linearGradient62647"><stop
         style="stop-color:#5e9de9;stop-opacity:1;"
         offset="0"
         id="stop62643" /><stop
         style="stop-color:#458be3;stop-opacity:1;"
         offset="1"
         id="stop62645" /></linearGradient></defs><sodipodi:namedview
     id="base"
     pagecolor="#ffffff"
     bordercolor="#666666"
     borderopacity="1.0"
     inkscape:pageopacity="0.0"
     inkscape:pageshadow="2"
     inkscape:zoom="5.6"
     inkscape:cx="23.125"
     inkscape:cy="47.410714"
     inkscape:document-units="px"
     inkscape:current-layer="layer1"
     showgrid="true"
     units="px"
     inkscape:showpageshadow="false"
     inkscape:snap-bbox="true"
     inkscape:bbox-paths="true"
     inkscape:bbox-nodes="true"
     inkscape:snap-bbox-edge-midpoints="true"
     inkscape:snap-bbox-midpoints="true"
     inkscape:object-paths="true"
     inkscape:snap-intersection-paths="true"
     inkscape:window-width="2160"
     inkscape:window-height="1335"
     inkscape:window-x="0"
     inkscape:window-y="0"
     inkscape:window-maximized="1"
     inkscape:pagecheckerboard="0"
     inkscape:deskcolor="#d1d1d1"><inkscape:grid
       type="xygrid"
       id="grid815" /></sodipodi:namedview><metadata
     id="metadata5"><rdf:RDF><cc:Work
         rdf:about=""><dc:format>image/svg+xml</dc:format><dc:type
           rdf:resource="http://purl.org/dc/dcmitype/StillImage" /><dc:title /></cc:Work></rdf:RDF></metadata><g
     inkscape:label="Capa 1"
     inkscape:groupmode="layer"
     id="layer1"
     transform="translate(0,-263.13333)"><g
       id="g64434"
       transform="matrix(0.26458333,0,0,0.26458333,-12.699999,181.73427)"><path
         d="m 60.999997,312.65 c -6.630697,0 -12,5.36932 -12,12 v 94 c 0,6.6307 5.369303,12.00001 12,12.00001 H 162.99999 c 6.63069,0 12,-5.36931 12,-12.00001 v -77.99999 c 0,-6.63069 -5.36931,-12.00001 -12,-12.00001 H 114 c -1.95371,0 -3.5741,-0.84528 -5.20508,-2.25586 -1.63099,-1.41058 -3.20503,-3.37474 -4.9043,-5.38868 -3.39854,-4.0279 -7.446179,-8.35546 -13.890621,-8.35546 z"
         style="color:#000000;font-style:normal;font-variant:normal;font-weight:normal;font-stretch:normal;font-size:medium;line-height:normal;font-family:sans-serif;font-variant-ligatures:normal;font-variant-position:normal;font-variant-caps:normal;font-variant-numeric:normal;font-variant-alternates:normal;font-variant-east-asian:normal;font-feature-settings:normal;font-variation-settings:normal;text-indent:0;text-align:start;text-decoration:none;text-decoration-line:none;text-decoration-style:solid;text-decoration-color:#000000;letter-spacing:normal;word-spacing:normal;text-transform:none;writing-mode:lr-tb;direction:ltr;text-orientation:mixed;dominant-baseline:auto;baseline-shift:baseline;text-anchor:start;white-space:normal;shape-padding:0;shape-margin:0;inline-size:0;clip-rule:nonzero;display:inline;overflow:visible;visibility:visible;isolation:auto;mix-blend-mode:normal;color-interpolation:sRGB;color-interpolation-filters:linearRGB;solid-color:#000000;solid-opacity:1;fill:#3177d3;fill-opacity:1;fill-rule:nonzero;stroke:none;stroke-width:2;stroke-linecap:butt;stroke-linejoin:miter;stroke-miterlimit:4;stroke-dasharray:none;stroke-dashoffset:0;stroke-opacity:1;color-rendering:auto;image-rendering:auto;shape-rendering:auto;text-rendering:auto;enable-background:accumulate;stop-color:#000000"
         id="path1242-8"
         sodipodi:nodetypes="sssssssssssss" /><path
         id="rect1149-4-0-8"
         style="fill:url(#linearGradient52205);fill-opacity:1;stroke-width:0.999999"
         d="m 60.999997,313.65 29.000009,2e-5 c 12.000004,0 15.000004,16 24.000004,16 L 163,329.65 c 6.094,0 10.99999,4.906 10.99999,10.99996 V 418.65 c 0,6.094 -4.906,11 -10.99999,11 H 60.999997 c -6.093993,0 -10.99999,-4.906 -10.99999,-11 v -94.00004 c 0,-6.09398 4.905997,-10.99996 10.99999,-10.99996 z"
         sodipodi:nodetypes="sccssssssss" /><path
         d="m 162.99999,328.64998 c 6.63069,0 12,5.36932 12,12 v 79.00004 c 0,6.63071 -5.36931,12.00001 -12,12.00001 H 60.999997 c -6.630686,0 -12,-5.3693 -12,-12.00001 v -63.00001 c 0,-6.63068 5.369314,-12.00001 12,-12.00001 h 30.999988 c 1.953709,0 3.574099,-0.84528 5.205082,-2.25586 1.630983,-1.41058 3.205023,-3.37474 4.904293,-5.38868 3.39855,-4.0279 7.44619,-8.35546 13.89063,-8.35546 z"
         style="color:#000000;font-style:normal;font-variant:normal;font-weight:normal;font-stretch:normal;font-size:medium;line-height:normal;font-family:sans-serif;font-variant-ligatures:normal;font-variant-position:normal;font-variant-caps:normal;font-variant-numeric:normal;font-variant-alternates:normal;font-variant-east-asian:normal;font-feature-settings:normal;font-variation-settings:normal;text-indent:0;text-align:start;text-decoration:none;text-decoration-line:none;text-decoration-style:solid;text-decoration-color:#000000;letter-spacing:normal;word-spacing:normal;text-transform:none;writing-mode:lr-tb;direction:ltr;text-orientation:mixed;dominant-baseline:auto;baseline-shift:baseline;text-anchor:start;white-space:normal;shape-padding:0;shape-margin:0;inline-size:0;clip-rule:nonzero;display:inline;overflow:visible;visibility:visible;isolation:auto;mix-blend-mode:normal;color-interpolation:sRGB;color-interpolation-filters:linearRGB;solid-color:#000000;solid-opacity:1;fill:#3177d3;fill-opacity:1;fill-rule:nonzero;stroke:none;stroke-width:2;stroke-linecap:butt;stroke-linejoin:miter;stroke-miterlimit:4;stroke-dasharray:none;stroke-dashoffset:0;stroke-opacity:1;color-rendering:auto;image-rendering:auto;shape-rendering:auto;text-rendering:auto;enable-background:accumulate;stop-color:#000000"
         id="path1242-2-43"
         sodipodi:nodetypes="sssssssssssss" /><path
         id="rect1149-4-0-6-1"
         style="fill:#72b0f4;fill-opacity:1;stroke-width:0.999999"
         d="m 162.99999,329.64998 -47.00001,2e-5 c -12,0 -15,16.00001 -24.000003,16.00001 l -30.999987,-3e-5 C 54.905993,345.64998 50,350.55599 50,356.64995 v 63.00007 c 0,6.09401 4.906,11.00001 10.99999,11.00001 h 102 c 6.09399,0 10.99999,-4.906 10.99999,-11.00001 v -79.00007 c 0,-6.09397 -4.906,-10.99997 -10.99999,-10.99997 z"
         sodipodi:nodetypes="sccssssssss" /></g><path
       id="rect5228"
       d="m 18.256249,279.00833 c -1.851509,0 -3.413929,1.17879 -3.991487,2.82825 -0.358566,-0.27921 -0.808487,-0.447 -1.300179,-0.447 -1.172634,0 -2.116667,0.94403 -2.116667,2.11666 0,0.0476 0.0042,0.0942 0.0072,0.14108 -1.233737,0.38788 -2.1239007,1.53655 -2.1239007,2.90163 0,1.64101 1.2870647,2.9667 2.9104167,3.03599 v 0.007 h 0.132292 10.186458 v -0.007 c 0.04418,0.002 0.08764,0.007 0.132292,0.007 1.685659,0 3.042708,-1.35705 3.042708,-3.04271 0,-1.55584 -1.156802,-2.82906 -2.660303,-3.01635 0.0065,-0.0965 0.01447,-0.1927 0.01447,-0.29094 0,-2.34527 -1.888066,-4.23333 -4.233333,-4.23333 z"
       style="fill:#dfeafe;fill-opacity:1;stroke:none;stroke-width:0.079375;stroke-miterlimit:4;stroke-dasharray:none;stroke-opacity:1"
       inkscape:connector-curvature="0" /></g></svg>
