<?xml version="1.0" encoding="UTF-8" standalone="no"?>
<!-- Created with Inkscape (http://www.inkscape.org/) -->

<svg
   width="128"
   height="128"
   viewBox="0 0 33.866666 33.866666"
   version="1.1"
   id="svg8"
   inkscape:version="1.2 (dc2aedaf03, 2022-05-15)"
   sodipodi:docname="folder-gitlab.svg"
   xmlns:inkscape="http://www.inkscape.org/namespaces/inkscape"
   xmlns:sodipodi="http://sodipodi.sourceforge.net/DTD/sodipodi-0.dtd"
   xmlns:xlink="http://www.w3.org/1999/xlink"
   xmlns="http://www.w3.org/2000/svg"
   xmlns:svg="http://www.w3.org/2000/svg"
   xmlns:rdf="http://www.w3.org/1999/02/22-rdf-syntax-ns#"
   xmlns:cc="http://creativecommons.org/ns#"
   xmlns:dc="http://purl.org/dc/elements/1.1/">
  <defs
     id="defs2">
    <linearGradient
       inkscape:collect="always"
       xlink:href="#linearGradient57733"
       id="linearGradient52295"
       gradientUnits="userSpaceOnUse"
       x1="3.9687512"
       y1="8.2020826"
       x2="3.968751"
       y2="-1.0583341"
       gradientTransform="matrix(3.7795276,0,0,3.7795276,-36.000008,180.64999)" />
    <linearGradient
       inkscape:collect="always"
       id="linearGradient57733">
      <stop
         style="stop-color:#fa8966;stop-opacity:1;"
         offset="0"
         id="stop57729" />
      <stop
         style="stop-color:#ec633a;stop-opacity:1;"
         offset="1"
         id="stop57731" />
    </linearGradient>
  </defs>
  <sodipodi:namedview
     id="base"
     pagecolor="#ffffff"
     bordercolor="#666666"
     borderopacity="1.0"
     inkscape:pageopacity="0.0"
     inkscape:pageshadow="2"
     inkscape:zoom="5.6"
     inkscape:cx="22.857143"
     inkscape:cy="47.232143"
     inkscape:document-units="px"
     inkscape:current-layer="layer1"
     showgrid="true"
     units="px"
     inkscape:showpageshadow="false"
     inkscape:snap-bbox="true"
     inkscape:bbox-paths="true"
     inkscape:bbox-nodes="true"
     inkscape:snap-bbox-edge-midpoints="true"
     inkscape:snap-bbox-midpoints="true"
     inkscape:object-paths="true"
     inkscape:snap-intersection-paths="true"
     inkscape:window-width="2160"
     inkscape:window-height="1337"
     inkscape:window-x="0"
     inkscape:window-y="0"
     inkscape:window-maximized="1"
     inkscape:pagecheckerboard="0"
     inkscape:deskcolor="#d1d1d1">
    <inkscape:grid
       type="xygrid"
       id="grid815" />
  </sodipodi:namedview>
  <metadata
     id="metadata5">
    <rdf:RDF>
      <cc:Work
         rdf:about="">
        <dc:format>image/svg+xml</dc:format>
        <dc:type
           rdf:resource="http://purl.org/dc/dcmitype/StillImage" />
        <dc:title />
      </cc:Work>
    </rdf:RDF>
  </metadata>
  <g
     inkscape:label="Capa 1"
     inkscape:groupmode="layer"
     id="layer1"
     transform="translate(0,-263.13333)">
    <g
       id="g60089"
       transform="matrix(0.26458333,0,0,0.26458333,12.170833,217.98219)">
      <path
         d="m -33.000001,175.64999 c -6.630697,0 -12,5.36932 -12,12 V 281.65 c 0,6.6307 5.369303,12 12,12 h 101.99999 c 6.63069,0 12,-5.3693 12,-12 v -78 c 0,-6.63068 -5.36931,-12.00001 -12,-12.00001 H 20.000001 c -1.953706,0 -3.574095,-0.84528 -5.205078,-2.25586 -1.630987,-1.41058 -3.205028,-3.37474 -4.9043003,-5.38868 -3.3985436,-4.0279 -7.4461796,-8.35546 -13.8906219,-8.35546 z"
         style="color:#000000;font-style:normal;font-variant:normal;font-weight:normal;font-stretch:normal;font-size:medium;line-height:normal;font-family:sans-serif;font-variant-ligatures:normal;font-variant-position:normal;font-variant-caps:normal;font-variant-numeric:normal;font-variant-alternates:normal;font-variant-east-asian:normal;font-feature-settings:normal;font-variation-settings:normal;text-indent:0;text-align:start;text-decoration:none;text-decoration-line:none;text-decoration-style:solid;text-decoration-color:#000000;letter-spacing:normal;word-spacing:normal;text-transform:none;writing-mode:lr-tb;direction:ltr;text-orientation:mixed;dominant-baseline:auto;baseline-shift:baseline;text-anchor:start;white-space:normal;shape-padding:0;shape-margin:0;inline-size:0;clip-rule:nonzero;display:inline;overflow:visible;visibility:visible;isolation:auto;mix-blend-mode:normal;color-interpolation:sRGB;color-interpolation-filters:linearRGB;solid-color:#000000;solid-opacity:1;fill:#dd4d25;fill-opacity:1;fill-rule:nonzero;stroke:none;stroke-width:2;stroke-linecap:butt;stroke-linejoin:miter;stroke-miterlimit:4;stroke-dasharray:none;stroke-dashoffset:0;stroke-opacity:1;color-rendering:auto;image-rendering:auto;shape-rendering:auto;text-rendering:auto;enable-background:accumulate;stop-color:#000000"
         id="path1242-4"
         sodipodi:nodetypes="sssssssssssss" />
      <path
         id="rect1149-4-0-87"
         style="fill:url(#linearGradient52295);fill-opacity:1;stroke-width:0.999999"
         d="m -33.000001,176.64999 29.0000094,2e-5 c 12.0000001,0 15.0000006,16 24.0000006,16 L 69,192.64999 c 6.093997,0 10.99999,4.906 10.99999,10.99997 V 281.65 c 0,6.094 -4.906,11 -10.99999,11 H -33.000001 c -6.093993,0 -10.99999,-4.906 -10.99999,-11 v -94.00005 c 0,-6.09398 4.905997,-10.99996 10.99999,-10.99996 z"
         sodipodi:nodetypes="sccssssssss" />
      <path
         d="m 68.999993,191.64998 c 6.630693,0 11.999996,5.36931 11.999996,12 v 79.00004 c 0,6.6307 -5.369303,12 -11.999996,12 H -33.000001 c -6.630686,0 -12,-5.3693 -12,-12 V 219.65 c 0,-6.63068 5.369314,-12 12,-12 h 30.999988 c 1.95370964,0 3.5740989,-0.84528 5.2050823,-2.25586 1.6309833,-1.41058 3.2050243,-3.37474 4.9042961,-5.38868 3.3985436,-4.02791 7.4461836,-8.35547 13.8906256,-8.35547 z"
         style="color:#000000;font-style:normal;font-variant:normal;font-weight:normal;font-stretch:normal;font-size:medium;line-height:normal;font-family:sans-serif;font-variant-ligatures:normal;font-variant-position:normal;font-variant-caps:normal;font-variant-numeric:normal;font-variant-alternates:normal;font-variant-east-asian:normal;font-feature-settings:normal;font-variation-settings:normal;text-indent:0;text-align:start;text-decoration:none;text-decoration-line:none;text-decoration-style:solid;text-decoration-color:#000000;letter-spacing:normal;word-spacing:normal;text-transform:none;writing-mode:lr-tb;direction:ltr;text-orientation:mixed;dominant-baseline:auto;baseline-shift:baseline;text-anchor:start;white-space:normal;shape-padding:0;shape-margin:0;inline-size:0;clip-rule:nonzero;display:inline;overflow:visible;visibility:visible;isolation:auto;mix-blend-mode:normal;color-interpolation:sRGB;color-interpolation-filters:linearRGB;solid-color:#000000;solid-opacity:1;fill:#dd4d25;fill-opacity:1;fill-rule:nonzero;stroke:none;stroke-width:2;stroke-linecap:butt;stroke-linejoin:miter;stroke-miterlimit:4;stroke-dasharray:none;stroke-dashoffset:0;stroke-opacity:1;color-rendering:auto;image-rendering:auto;shape-rendering:auto;text-rendering:auto;enable-background:accumulate;stop-color:#000000"
         id="path1242-2-1"
         sodipodi:nodetypes="sssssssssssss" />
      <path
         id="rect1149-4-0-6-7"
         style="fill:#ff8f64;fill-opacity:1;stroke-width:0.999999"
         d="m 68.999993,192.64997 -47.00001,2e-5 C 9.9999834,192.64999 6.9999833,208.65 -2.0000205,208.65 l -30.9999875,-2e-5 c -6.093997,0 -10.99999,4.906 -10.99999,10.99996 v 63.00008 c 0,6.094 4.906,11 10.99999,11 H 68.999993 c 6.093993,0 10.99999,-4.906 10.99999,-11 v -79.00008 c 0,-6.09397 -4.905997,-10.99997 -10.99999,-10.99997 z"
         sodipodi:nodetypes="sccssssssss" />
    </g>
    <path
       style="color:#000000;font-style:normal;font-variant:normal;font-weight:normal;font-stretch:normal;font-size:medium;line-height:normal;font-family:sans-serif;text-indent:0;text-align:start;text-decoration:none;text-decoration-line:none;text-decoration-style:solid;text-decoration-color:#000000;letter-spacing:normal;word-spacing:normal;text-transform:none;writing-mode:lr-tb;direction:ltr;baseline-shift:baseline;text-anchor:start;white-space:normal;clip-rule:nonzero;display:inline;overflow:visible;visibility:visible;isolation:auto;mix-blend-mode:normal;color-interpolation:sRGB;color-interpolation-filters:linearRGB;solid-color:#000000;solid-opacity:1;fill:#fff3ee;fill-opacity:1;fill-rule:evenodd;stroke:none;stroke-width:1.05833;stroke-linecap:round;stroke-linejoin:round;stroke-miterlimit:4;stroke-dasharray:none;stroke-dashoffset:0;stroke-opacity:1;color-rendering:auto;image-rendering:auto;shape-rendering:auto;text-rendering:auto;enable-background:accumulate"
       d="m 13.21994,277.95024 c -0.219028,0.004 -0.412984,0.14242 -0.487839,0.3483 l -2.116727,5.82083 c -0.07339,0.2019 -0.01745,0.42815 0.141597,0.57257 l 5.820999,5.29167 c 0.201724,0.18295 0.509363,0.18295 0.711087,0 l 5.820998,-5.29167 c 0.159043,-0.14442 0.214992,-0.37067 0.141598,-0.57257 l -2.116727,-5.82083 c -0.1484,-0.40732 -0.696755,-0.47321 -0.937437,-0.11266 l -2.205612,2.93911 H 15.87515 l -2.205612,-2.93911 c -0.09996,-0.14998 -0.269382,-0.23878 -0.449598,-0.23564 z"
       id="path4241-2-3"
       inkscape:connector-curvature="0"
       sodipodi:nodetypes="cccccccccccccc" />
  </g>
</svg>
