<?xml version="1.0" encoding="UTF-8" standalone="no"?>
<!-- Created with Inkscape (http://www.inkscape.org/) -->

<svg
   xmlns:dc="http://purl.org/dc/elements/1.1/"
   xmlns:cc="http://creativecommons.org/ns#"
   xmlns:rdf="http://www.w3.org/1999/02/22-rdf-syntax-ns#"
   xmlns:svg="http://www.w3.org/2000/svg"
   xmlns="http://www.w3.org/2000/svg"
   xmlns:sodipodi="http://sodipodi.sourceforge.net/DTD/sodipodi-0.dtd"
   xmlns:inkscape="http://www.inkscape.org/namespaces/inkscape"
   width="128"
   height="128"
   viewBox="0 0 33.866666 33.866666"
   version="1.1"
   id="svg8"
   inkscape:version="0.92.3 (2405546, 2018-03-11)"
   sodipodi:docname="folder-games.svg">
  <defs
     id="defs2" />
  <sodipodi:namedview
     id="base"
     pagecolor="#ffffff"
     bordercolor="#666666"
     borderopacity="1.0"
     inkscape:pageopacity="0.0"
     inkscape:pageshadow="2"
     inkscape:zoom="16"
     inkscape:cx="58.286607"
     inkscape:cy="45.609843"
     inkscape:document-units="px"
     inkscape:current-layer="g1971-1-1"
     showgrid="true"
     units="px"
     inkscape:showpageshadow="false"
     inkscape:snap-bbox="true"
     inkscape:bbox-paths="true"
     inkscape:bbox-nodes="true"
     inkscape:snap-bbox-edge-midpoints="true"
     inkscape:snap-bbox-midpoints="true"
     inkscape:object-paths="true"
     inkscape:snap-intersection-paths="true"
     inkscape:window-width="1874"
     inkscape:window-height="1141"
     inkscape:window-x="46"
     inkscape:window-y="30"
     inkscape:window-maximized="1">
    <inkscape:grid
       type="xygrid"
       id="grid815" />
  </sodipodi:namedview>
  <metadata
     id="metadata5">
    <rdf:RDF>
      <cc:Work
         rdf:about="">
        <dc:format>image/svg+xml</dc:format>
        <dc:type
           rdf:resource="http://purl.org/dc/dcmitype/StillImage" />
        <dc:title />
      </cc:Work>
    </rdf:RDF>
  </metadata>
  <g
     inkscape:label="Capa 1"
     inkscape:groupmode="layer"
     id="layer1"
     transform="translate(0,-263.13333)">
    <g
       id="g6216"
       transform="translate(13.229166,1.05834)">
      <g
         inkscape:label="Capa 1"
         id="layer1-4"
         transform="translate(-13.229166,-1.05834)">
        <g
           id="g6240"
           transform="translate(11.112499,-4.762492)">
          <path
             id="path1651-47"
             d="m -8.9958332,269.21874 c -1.0214778,0 -1.8520828,0.83061 -1.8520828,1.85208 v 27.51667 c 0,1.02148 0.830605,1.85208 1.8520828,1.85208 H 20.6375 c 1.021477,0 1.852083,-0.8306 1.852083,-1.85208 v -23.28333 c 0,-1.02148 -0.830606,-1.85209 -1.852083,-1.85209 H 5.8208335 c -0.189618,0 -0.455472,-0.18688 -0.756543,-0.56224 -0.301071,-0.37536 -0.623148,-0.90157 -0.973584,-1.43557 -0.350436,-0.534 -0.730376,-1.078 -1.176156,-1.50171 -0.445779,-0.42372 -0.974273,-0.73381 -1.591634,-0.73381 z"
             style="color:#000000;font-style:normal;font-variant:normal;font-weight:normal;font-stretch:normal;font-size:medium;line-height:normal;font-family:sans-serif;font-variant-ligatures:normal;font-variant-position:normal;font-variant-caps:normal;font-variant-numeric:normal;font-variant-alternates:normal;font-feature-settings:normal;text-indent:0;text-align:start;text-decoration:none;text-decoration-line:none;text-decoration-style:solid;text-decoration-color:#000000;letter-spacing:normal;word-spacing:normal;text-transform:none;writing-mode:lr-tb;direction:ltr;text-orientation:mixed;dominant-baseline:auto;baseline-shift:baseline;text-anchor:start;white-space:normal;shape-padding:0;clip-rule:nonzero;display:inline;overflow:visible;visibility:visible;opacity:1;isolation:auto;mix-blend-mode:normal;color-interpolation:sRGB;color-interpolation-filters:linearRGB;solid-color:#000000;solid-opacity:1;vector-effect:none;fill:#4f92db;fill-opacity:1;fill-rule:nonzero;stroke:none;stroke-width:0.52916664;stroke-linecap:round;stroke-linejoin:round;stroke-miterlimit:4;stroke-dasharray:none;stroke-dashoffset:0;stroke-opacity:1;color-rendering:auto;image-rendering:auto;shape-rendering:auto;text-rendering:auto;enable-background:accumulate"
             inkscape:connector-curvature="0" />
          <path
             sodipodi:nodetypes="sccssssssss"
             inkscape:connector-curvature="0"
             id="rect1558-4"
             d="M -8.9958332,269.48332 H 1.3229165 c 2.116667,0 3.175,4.23334 4.497917,4.23334 H 20.6375 c 0.879475,0 1.5875,0.70802 1.5875,1.5875 v 23.28333 c 0,0.87947 -0.708025,1.5875 -1.5875,1.5875 H -8.9958332 c -0.8794749,0 -1.5874998,-0.70803 -1.5874998,-1.5875 v -27.51667 c 0,-0.87947 0.7080249,-1.5875 1.5874998,-1.5875 z"
             style="overflow:visible;opacity:1;vector-effect:none;fill:#5abfff;fill-opacity:1;stroke:none;stroke-width:0.52916664;stroke-linecap:round;stroke-linejoin:round;stroke-miterlimit:4;stroke-dasharray:none;stroke-dashoffset:0;stroke-opacity:1" />
          <path
             id="path1644-4"
             d="m 5.8208335,273.45207 c -0.471841,0 -0.834372,0.34229 -1.169955,0.76068 -0.335582,0.41839 -0.658428,0.95051 -1.002523,1.47485 -0.344094,0.52433 -0.708295,1.03865 -1.097607,1.4087 -0.389311,0.37003 -0.78686,0.58911 -1.227832,0.58911 H -8.9958332 c -1.0214778,0 -1.8520828,0.8306 -1.8520828,1.85208 v 19.05 c 0,1.02148 0.830605,1.85208 1.8520828,1.85208 H 20.6375 c 1.021477,0 1.852083,-0.8306 1.852083,-1.85208 v -23.28333 c 0,-1.02148 -0.830606,-1.85209 -1.852083,-1.85209 z"
             style="color:#000000;font-style:normal;font-variant:normal;font-weight:normal;font-stretch:normal;font-size:medium;line-height:normal;font-family:sans-serif;font-variant-ligatures:normal;font-variant-position:normal;font-variant-caps:normal;font-variant-numeric:normal;font-variant-alternates:normal;font-feature-settings:normal;text-indent:0;text-align:start;text-decoration:none;text-decoration-line:none;text-decoration-style:solid;text-decoration-color:#000000;letter-spacing:normal;word-spacing:normal;text-transform:none;writing-mode:lr-tb;direction:ltr;text-orientation:mixed;dominant-baseline:auto;baseline-shift:baseline;text-anchor:start;white-space:normal;shape-padding:0;clip-rule:nonzero;display:inline;overflow:visible;visibility:visible;opacity:1;isolation:auto;mix-blend-mode:normal;color-interpolation:sRGB;color-interpolation-filters:linearRGB;solid-color:#000000;solid-opacity:1;vector-effect:none;fill:#4f92db;fill-opacity:1;fill-rule:nonzero;stroke:none;stroke-width:0.52916664;stroke-linecap:round;stroke-linejoin:round;stroke-miterlimit:4;stroke-dasharray:none;stroke-dashoffset:0;stroke-opacity:1;color-rendering:auto;image-rendering:auto;shape-rendering:auto;text-rendering:auto;enable-background:accumulate"
             inkscape:connector-curvature="0" />
          <path
             sodipodi:nodetypes="sccssssssss"
             inkscape:connector-curvature="0"
             id="rect1558-6-30"
             d="M -8.9958332,277.94999 H 1.3229165 c 2.116667,0 3.175,-4.23333 4.497917,-4.23333 H 20.6375 c 0.879475,0 1.5875,0.70802 1.5875,1.5875 v 23.28333 c 0,0.87947 -0.708025,1.5875 -1.5875,1.5875 H -8.9958332 c -0.8794749,0 -1.5874998,-0.70803 -1.5874998,-1.5875 v -19.05 c 0,-0.87948 0.7080249,-1.5875 1.5874998,-1.5875 z"
             style="overflow:visible;opacity:1;vector-effect:none;fill:#5abfff;fill-opacity:1;stroke:none;stroke-width:0.52916664;stroke-linecap:round;stroke-linejoin:round;stroke-miterlimit:4;stroke-dasharray:none;stroke-dashoffset:0;stroke-opacity:1" />
        </g>
      </g>
      <g
         style="fill:#dcf2ff;fill-opacity:1"
         inkscape:label="Capa 1"
         id="layer1-3-6-4"
         transform="matrix(0.5291465,0,0,0.5291465,0.52979145,127.85861)">
        <g
           style="fill:#dcf2ff;fill-opacity:1"
           id="g1971-1-1"
           transform="translate(63.999998,-6.17857)">
          <g
             style="fill:#dcf2ff;fill-opacity:1"
             id="g839-0-8"
             transform="translate(-0.999998,1)" />
          <path
             id="rect1066-3-5"
             transform="translate(-89.999998,260.82856)"
             d="m 17.060547,28.998047 c -2.357653,-0.01445 -4.644595,0.804583 -6.457031,2.3125 -3.5672513,2.967001 -4.6250575,7.998049 -2.5546879,12.150391 2.0704989,4.15264 6.7256189,6.335435 11.2421879,5.271484 4.516207,-1.063898 7.707407,-5.094546 7.707031,-9.734375 h -10 l 6.017578,-7.986328 c -1.716954,-1.29392 -3.8052,-2.000047 -5.955078,-2.013672 z M 49,29 c -4.432003,0 -8,3.568 -8,8 v 2 9 l 2,-2 1.9375,2 2.0625,-2 2,2 2,-2 2,2 2,-2 2,2 v -9 -2 c 0,-4.432 -3.567997,-8 -8,-8 z m -36.001953,4.998047 c 1.108,0 2,0.891994 2,2 0,1.108006 -0.892,2 -2,2 -1.108,0 -2,-0.891994 -2,-2 0,-1.108006 0.892,-2 2,-2 z M 45.5,34 C 46.330999,34 47,34.669 47,35.5 47,36.331 46.330999,37 45.5,37 44.668995,37 44,36.331 44,35.5 44,34.669 44.668995,34 45.5,34 Z m 7,0 C 53.330999,34 54,34.66899 54,35.5 54,36.331 53.330999,37 52.5,37 51.668994,37 51,36.331 51,35.5 51,34.66899 51.668994,34 52.5,34 Z m -21.501953,3.997992 c -1.108,0 -2,0.892 -2,2 0,1.108 0.892,2 2,2 1.108,0 2,-0.892 2,-2 0,-1.108 -0.892,-2 -2,-2 z m 6,0 c -1.108,0 -2,0.892 -2,2 0,1.108 0.892,2 2,2 1.108,0 2,-0.892 2,-2 0,-1.108 -0.892,-2 -2,-2 z"
             style="opacity:1;vector-effect:none;fill:#dcf2ff;fill-opacity:1;stroke:none;stroke-width:2.00000024;stroke-linecap:round;stroke-linejoin:round;stroke-miterlimit:4;stroke-dasharray:none;stroke-dashoffset:0;stroke-opacity:1"
             inkscape:connector-curvature="0"
             sodipodi:nodetypes="ccccccccsscccccccccccsssssssssssssssssssssssssss" />
        </g>
      </g>
    </g>
  </g>
</svg>
