<?xml version="1.0" encoding="UTF-8" standalone="no"?>
<!-- Created with Inkscape (http://www.inkscape.org/) -->

<svg
   width="128"
   height="128"
   viewBox="0 0 33.866666 33.866666"
   version="1.1"
   id="svg8"
   inkscape:version="1.2 (dc2aedaf03, 2022-05-15)"
   sodipodi:docname="folder-decrypted.svg"
   xmlns:inkscape="http://www.inkscape.org/namespaces/inkscape"
   xmlns:sodipodi="http://sodipodi.sourceforge.net/DTD/sodipodi-0.dtd"
   xmlns:xlink="http://www.w3.org/1999/xlink"
   xmlns="http://www.w3.org/2000/svg"
   xmlns:svg="http://www.w3.org/2000/svg"
   xmlns:rdf="http://www.w3.org/1999/02/22-rdf-syntax-ns#"
   xmlns:cc="http://creativecommons.org/ns#"
   xmlns:dc="http://purl.org/dc/elements/1.1/">
  <defs
     id="defs2">
    <linearGradient
       inkscape:collect="always"
       xlink:href="#linearGradient88407"
       id="linearGradient74939"
       gradientUnits="userSpaceOnUse"
       x1="3.968751"
       y1="6.6145825"
       x2="3.968751"
       y2="-1.0583341"
       gradientTransform="matrix(3.7795276,0,0,3.7795276,-25.000012,170.64999)" />
    <linearGradient
       inkscape:collect="always"
       id="linearGradient88407">
      <stop
         style="stop-color:#577994;stop-opacity:1;"
         offset="0"
         id="stop88403" />
      <stop
         style="stop-color:#4b6477;stop-opacity:1;"
         offset="1"
         id="stop88405" />
    </linearGradient>
  </defs>
  <sodipodi:namedview
     id="base"
     pagecolor="#ffffff"
     bordercolor="#666666"
     borderopacity="1.0"
     inkscape:pageopacity="0.0"
     inkscape:pageshadow="2"
     inkscape:zoom="5.6"
     inkscape:cx="22.857143"
     inkscape:cy="47.232143"
     inkscape:document-units="px"
     inkscape:current-layer="layer1"
     showgrid="true"
     units="px"
     inkscape:showpageshadow="false"
     inkscape:snap-bbox="true"
     inkscape:bbox-paths="true"
     inkscape:bbox-nodes="true"
     inkscape:snap-bbox-edge-midpoints="true"
     inkscape:snap-bbox-midpoints="true"
     inkscape:object-paths="true"
     inkscape:snap-intersection-paths="true"
     inkscape:window-width="2160"
     inkscape:window-height="1337"
     inkscape:window-x="0"
     inkscape:window-y="0"
     inkscape:window-maximized="1"
     inkscape:pagecheckerboard="0"
     inkscape:deskcolor="#d1d1d1">
    <inkscape:grid
       type="xygrid"
       id="grid815" />
  </sodipodi:namedview>
  <metadata
     id="metadata5">
    <rdf:RDF>
      <cc:Work
         rdf:about="">
        <dc:format>image/svg+xml</dc:format>
        <dc:type
           rdf:resource="http://purl.org/dc/dcmitype/StillImage" />
        <dc:title />
      </cc:Work>
    </rdf:RDF>
  </metadata>
  <g
     inkscape:label="Capa 1"
     inkscape:groupmode="layer"
     id="layer1"
     transform="translate(0,-263.13333)">
    <g
       inkscape:label="Capa 1"
       id="layer1-5"
       transform="matrix(0.26458333,0,0,0.26458333,-3.176875e-6,213.74885)">
      <g
         id="g5223"
         transform="translate(23.999997,20.000005)" />
      <g
         id="g92047"
         transform="translate(35.000017,26)">
        <path
           d="m -22.000005,165.64999 c -6.630697,0 -12,5.36932 -12,12 v 94 c 0,6.63071 5.369303,12.00001 12,12.00001 H 79.99997 c 6.63069,0 12,-5.3693 12,-12.00001 V 193.65 c 0,-6.63069 -5.36931,-12.00001 -12,-12.00001 H 30.999982 c -1.953676,0 -3.574073,-0.84528 -5.205052,-2.25586 -1.631017,-1.41058 -3.205039,-3.37474 -4.904315,-5.38868 -3.398551,-4.0279 -7.446161,-8.35546 -13.8906333,-8.35546 z"
           style="color:#000000;font-style:normal;font-variant:normal;font-weight:normal;font-stretch:normal;font-size:medium;line-height:normal;font-family:sans-serif;font-variant-ligatures:normal;font-variant-position:normal;font-variant-caps:normal;font-variant-numeric:normal;font-variant-alternates:normal;font-variant-east-asian:normal;font-feature-settings:normal;font-variation-settings:normal;text-indent:0;text-align:start;text-decoration:none;text-decoration-line:none;text-decoration-style:solid;text-decoration-color:#000000;letter-spacing:normal;word-spacing:normal;text-transform:none;writing-mode:lr-tb;direction:ltr;text-orientation:mixed;dominant-baseline:auto;baseline-shift:baseline;text-anchor:start;white-space:normal;shape-padding:0;shape-margin:0;inline-size:0;clip-rule:nonzero;display:inline;overflow:visible;visibility:visible;isolation:auto;mix-blend-mode:normal;color-interpolation:sRGB;color-interpolation-filters:linearRGB;solid-color:#000000;solid-opacity:1;fill:#223240;fill-opacity:1;fill-rule:nonzero;stroke:none;stroke-width:2;stroke-linecap:butt;stroke-linejoin:miter;stroke-miterlimit:4;stroke-dasharray:none;stroke-dashoffset:0;stroke-opacity:1;color-rendering:auto;image-rendering:auto;shape-rendering:auto;text-rendering:auto;enable-background:accumulate;stop-color:#000000"
           id="path1242-50"
           sodipodi:nodetypes="sssssssssssss" />
        <path
           id="rect1149-4-0-96"
           style="fill:url(#linearGradient74939);fill-opacity:1;stroke-width:0.999999"
           d="m -22.000005,166.64999 29.0000245,2e-5 c 12.0000005,0 15.0000005,16 24.0000005,16 l 48.999988,-2e-5 c 6.093997,0 10.999975,4.906 10.999975,10.99997 v 78.00003 c 0,6.094 -4.906016,11.00001 -10.999975,11.00001 H -22.000005 c -6.093993,0 -10.99999,-4.90601 -10.99999,-11.00001 v -94.00004 c 0,-6.09398 4.905997,-10.99996 10.99999,-10.99996 z"
           sodipodi:nodetypes="sccssssssss" />
        <path
           d="m 79.99997,181.64997 c 6.630728,0 12,5.36932 12,12 v 79.00005 c 0,6.6307 -5.369272,12 -12,12 H -22.000005 c -6.630686,0 -12,-5.3693 -12,-12 V 209.65 c 0,-6.63068 5.369314,-12 12,-12 H 8.9999943 c 1.9537137,0 3.5740727,-0.84528 5.2050517,-2.25586 1.631018,-1.41058 3.20504,-3.37474 4.904315,-5.38868 3.398552,-4.02791 7.446199,-8.35547 13.890634,-8.35547 z"
           style="color:#000000;font-style:normal;font-variant:normal;font-weight:normal;font-stretch:normal;font-size:medium;line-height:normal;font-family:sans-serif;font-variant-ligatures:normal;font-variant-position:normal;font-variant-caps:normal;font-variant-numeric:normal;font-variant-alternates:normal;font-variant-east-asian:normal;font-feature-settings:normal;font-variation-settings:normal;text-indent:0;text-align:start;text-decoration:none;text-decoration-line:none;text-decoration-style:solid;text-decoration-color:#000000;letter-spacing:normal;word-spacing:normal;text-transform:none;writing-mode:lr-tb;direction:ltr;text-orientation:mixed;dominant-baseline:auto;baseline-shift:baseline;text-anchor:start;white-space:normal;shape-padding:0;shape-margin:0;inline-size:0;clip-rule:nonzero;display:inline;overflow:visible;visibility:visible;isolation:auto;mix-blend-mode:normal;color-interpolation:sRGB;color-interpolation-filters:linearRGB;solid-color:#000000;solid-opacity:1;fill:#223240;fill-opacity:1;fill-rule:nonzero;stroke:none;stroke-width:2;stroke-linecap:butt;stroke-linejoin:miter;stroke-miterlimit:4;stroke-dasharray:none;stroke-dashoffset:0;stroke-opacity:1;color-rendering:auto;image-rendering:auto;shape-rendering:auto;text-rendering:auto;enable-background:accumulate;stop-color:#000000"
           id="path1242-2-3"
           sodipodi:nodetypes="sssssssssssss" />
        <path
           id="rect1149-4-0-6-85"
           style="fill:#4b6477;fill-opacity:1;stroke-width:0.999999"
           d="m 79.99997,182.64997 -46.999975,2e-5 c -12.000001,0 -15.000001,16.00001 -24.0000007,16.00001 l -31.0000063,-2e-5 c -6.093997,0 -10.99999,4.906 -10.99999,10.99996 v 63.00008 c 0,6.094 4.906,11 10.99999,11 H 79.99997 c 6.093997,0 11.000013,-4.906 11.000013,-11 v -79.00008 c 0,-6.09397 -4.906016,-10.99997 -11.000013,-10.99997 z"
           sodipodi:nodetypes="sccssssssss" />
      </g>
    </g>
    <path
       id="path4466"
       d="m 16.933339,277.42085 c -1.864213,0 -3.332416,1.38687 -3.597713,3.175 h 1.5875 c 0.238625,-0.9078 1.025469,-1.5875 2.010213,-1.5875 1.172634,0 2.116667,0.94403 2.116667,2.11666 v 1.05834 h -3.704167 -0.529167 -1.5875 -0.529166 c -0.293159,0 -0.529167,0.236 -0.529167,0.52916 v 6.87917 c 0,0.29316 0.236008,0.52917 0.529167,0.52917 h 5.820833 v -1.05834 h 1.058333 v -1.05833 h -1.058333 v -1.05833 h 1.058333 v -1.05834 h 1.058334 v -1.05833 h 1.058333 v -2.11667 c 0,-0.29316 -0.236008,-0.52916 -0.529167,-0.52916 h -0.529166 v -1.05834 c 0,-2.05211 -1.652058,-3.70416 -3.704167,-3.70416 z m 3.704167,8.46666 v 1.05834 h 1.058333 v -1.05834 z m 0,1.05834 h -1.058334 v 1.05833 h 1.058334 z m 0,1.05833 v 1.05833 h 1.058333 v -1.05833 z m 0,1.05833 h -1.058334 v 1.05834 h 1.058334 z m -3.758944,-4.7625 h 0.109554 c 0.556216,0 1.003556,0.44735 1.003556,1.00356 v 0.10955 c 0,0.38298 -0.215364,0.71015 -0.529166,0.87954 v 1.71152 c 0,0.29316 -0.236009,0.52917 -0.529167,0.52917 -0.293158,0 -0.529167,-0.23601 -0.529167,-0.52917 v -1.71152 c -0.313802,-0.16939 -0.529166,-0.49656 -0.529166,-0.87954 v -0.10955 c 0,-0.55621 0.44734,-1.00356 1.003556,-1.00356 z"
       style="fill:#dbdfe4;fill-opacity:1;stroke:none;stroke-width:1.05833;stroke-linecap:round;stroke-linejoin:round;stroke-miterlimit:4;stroke-dasharray:none;stroke-dashoffset:0;stroke-opacity:1"
       inkscape:connector-curvature="0" />
  </g>
</svg>
