<?xml version="1.0" encoding="UTF-8" standalone="no"?>
<!-- Created with Inkscape (http://www.inkscape.org/) -->

<svg
   xmlns:dc="http://purl.org/dc/elements/1.1/"
   xmlns:cc="http://creativecommons.org/ns#"
   xmlns:rdf="http://www.w3.org/1999/02/22-rdf-syntax-ns#"
   xmlns:svg="http://www.w3.org/2000/svg"
   xmlns="http://www.w3.org/2000/svg"
   xmlns:sodipodi="http://sodipodi.sourceforge.net/DTD/sodipodi-0.dtd"
   xmlns:inkscape="http://www.inkscape.org/namespaces/inkscape"
   width="128"
   height="128"
   viewBox="0 0 33.866666 33.866666"
   version="1.1"
   id="svg8"
   inkscape:version="0.92.3 (2405546, 2018-03-11)"
   sodipodi:docname="folder-favorites.svg">
  <defs
     id="defs2" />
  <sodipodi:namedview
     id="base"
     pagecolor="#ffffff"
     bordercolor="#666666"
     borderopacity="1.0"
     inkscape:pageopacity="0.0"
     inkscape:pageshadow="2"
     inkscape:zoom="5.6"
     inkscape:cx="22.848986"
     inkscape:cy="47.159212"
     inkscape:document-units="px"
     inkscape:current-layer="layer1"
     showgrid="true"
     units="px"
     inkscape:showpageshadow="false"
     inkscape:snap-bbox="true"
     inkscape:bbox-paths="true"
     inkscape:bbox-nodes="true"
     inkscape:snap-bbox-edge-midpoints="true"
     inkscape:snap-bbox-midpoints="true"
     inkscape:object-paths="true"
     inkscape:snap-intersection-paths="true"
     inkscape:window-width="1874"
     inkscape:window-height="1141"
     inkscape:window-x="46"
     inkscape:window-y="30"
     inkscape:window-maximized="1">
    <inkscape:grid
       type="xygrid"
       id="grid815" />
  </sodipodi:namedview>
  <metadata
     id="metadata5">
    <rdf:RDF>
      <cc:Work
         rdf:about="">
        <dc:format>image/svg+xml</dc:format>
        <dc:type
           rdf:resource="http://purl.org/dc/dcmitype/StillImage" />
        <dc:title></dc:title>
      </cc:Work>
    </rdf:RDF>
  </metadata>
  <g
     inkscape:label="Capa 1"
     inkscape:groupmode="layer"
     id="layer1"
     transform="translate(0,-263.13333)">
    <g
       id="g6240"
       transform="translate(11.112499,-4.762492)">
      <path
         id="path1651-47"
         d="m -8.9958332,269.21874 c -1.0214778,0 -1.8520828,0.83061 -1.8520828,1.85208 v 27.51667 c 0,1.02148 0.830605,1.85208 1.8520828,1.85208 H 20.6375 c 1.021477,0 1.852083,-0.8306 1.852083,-1.85208 v -23.28333 c 0,-1.02148 -0.830606,-1.85209 -1.852083,-1.85209 H 5.8208335 c -0.189618,0 -0.455472,-0.18688 -0.756543,-0.56224 -0.301071,-0.37536 -0.623148,-0.90157 -0.973584,-1.43557 -0.350436,-0.534 -0.730376,-1.078 -1.176156,-1.50171 -0.445779,-0.42372 -0.974273,-0.73381 -1.591634,-0.73381 z"
         style="color:#000000;font-style:normal;font-variant:normal;font-weight:normal;font-stretch:normal;font-size:medium;line-height:normal;font-family:sans-serif;font-variant-ligatures:normal;font-variant-position:normal;font-variant-caps:normal;font-variant-numeric:normal;font-variant-alternates:normal;font-feature-settings:normal;text-indent:0;text-align:start;text-decoration:none;text-decoration-line:none;text-decoration-style:solid;text-decoration-color:#000000;letter-spacing:normal;word-spacing:normal;text-transform:none;writing-mode:lr-tb;direction:ltr;text-orientation:mixed;dominant-baseline:auto;baseline-shift:baseline;text-anchor:start;white-space:normal;shape-padding:0;clip-rule:nonzero;display:inline;overflow:visible;visibility:visible;opacity:1;isolation:auto;mix-blend-mode:normal;color-interpolation:sRGB;color-interpolation-filters:linearRGB;solid-color:#000000;solid-opacity:1;vector-effect:none;fill:#4f92db;fill-opacity:1;fill-rule:nonzero;stroke:none;stroke-width:0.52916664;stroke-linecap:round;stroke-linejoin:round;stroke-miterlimit:4;stroke-dasharray:none;stroke-dashoffset:0;stroke-opacity:1;color-rendering:auto;image-rendering:auto;shape-rendering:auto;text-rendering:auto;enable-background:accumulate"
         inkscape:connector-curvature="0" />
      <path
         sodipodi:nodetypes="sccssssssss"
         inkscape:connector-curvature="0"
         id="rect1558-4"
         d="M -8.9958332,269.48332 H 1.3229165 c 2.116667,0 3.175,4.23334 4.497917,4.23334 H 20.6375 c 0.879475,0 1.5875,0.70802 1.5875,1.5875 v 23.28333 c 0,0.87947 -0.708025,1.5875 -1.5875,1.5875 H -8.9958332 c -0.8794749,0 -1.5874998,-0.70803 -1.5874998,-1.5875 v -27.51667 c 0,-0.87947 0.7080249,-1.5875 1.5874998,-1.5875 z"
         style="overflow:visible;opacity:1;vector-effect:none;fill:#5abfff;fill-opacity:1;stroke:none;stroke-width:0.52916664;stroke-linecap:round;stroke-linejoin:round;stroke-miterlimit:4;stroke-dasharray:none;stroke-dashoffset:0;stroke-opacity:1" />
      <path
         id="path1644-4"
         d="m 5.8208335,273.45207 c -0.471841,0 -0.834372,0.34229 -1.169955,0.76068 -0.335582,0.41839 -0.658428,0.95051 -1.002523,1.47485 -0.344094,0.52433 -0.708295,1.03865 -1.097607,1.4087 -0.389311,0.37003 -0.78686,0.58911 -1.227832,0.58911 H -8.9958332 c -1.0214778,0 -1.8520828,0.8306 -1.8520828,1.85208 v 19.05 c 0,1.02148 0.830605,1.85208 1.8520828,1.85208 H 20.6375 c 1.021477,0 1.852083,-0.8306 1.852083,-1.85208 v -23.28333 c 0,-1.02148 -0.830606,-1.85209 -1.852083,-1.85209 z"
         style="color:#000000;font-style:normal;font-variant:normal;font-weight:normal;font-stretch:normal;font-size:medium;line-height:normal;font-family:sans-serif;font-variant-ligatures:normal;font-variant-position:normal;font-variant-caps:normal;font-variant-numeric:normal;font-variant-alternates:normal;font-feature-settings:normal;text-indent:0;text-align:start;text-decoration:none;text-decoration-line:none;text-decoration-style:solid;text-decoration-color:#000000;letter-spacing:normal;word-spacing:normal;text-transform:none;writing-mode:lr-tb;direction:ltr;text-orientation:mixed;dominant-baseline:auto;baseline-shift:baseline;text-anchor:start;white-space:normal;shape-padding:0;clip-rule:nonzero;display:inline;overflow:visible;visibility:visible;opacity:1;isolation:auto;mix-blend-mode:normal;color-interpolation:sRGB;color-interpolation-filters:linearRGB;solid-color:#000000;solid-opacity:1;vector-effect:none;fill:#4f92db;fill-opacity:1;fill-rule:nonzero;stroke:none;stroke-width:0.52916664;stroke-linecap:round;stroke-linejoin:round;stroke-miterlimit:4;stroke-dasharray:none;stroke-dashoffset:0;stroke-opacity:1;color-rendering:auto;image-rendering:auto;shape-rendering:auto;text-rendering:auto;enable-background:accumulate"
         inkscape:connector-curvature="0" />
      <path
         sodipodi:nodetypes="sccssssssss"
         inkscape:connector-curvature="0"
         id="rect1558-6-30"
         d="M -8.9958332,277.94999 H 1.3229165 c 2.116667,0 3.175,-4.23333 4.497917,-4.23333 H 20.6375 c 0.879475,0 1.5875,0.70802 1.5875,1.5875 v 23.28333 c 0,0.87947 -0.708025,1.5875 -1.5875,1.5875 H -8.9958332 c -0.8794749,0 -1.5874998,-0.70803 -1.5874998,-1.5875 v -19.05 c 0,-0.87948 0.7080249,-1.5875 1.5874998,-1.5875 z"
         style="overflow:visible;opacity:1;vector-effect:none;fill:#5abfff;fill-opacity:1;stroke:none;stroke-width:0.52916664;stroke-linecap:round;stroke-linejoin:round;stroke-miterlimit:4;stroke-dasharray:none;stroke-dashoffset:0;stroke-opacity:1" />
      <path
         style="overflow:visible;opacity:0.98999999;vector-effect:none;fill:#ddf3ff;fill-opacity:1;stroke:none;stroke-width:1.05833352;stroke-linecap:round;stroke-linejoin:round;stroke-miterlimit:4;stroke-dasharray:none;stroke-dashoffset:0;stroke-opacity:1"
         d="m 3.1749905,283.24167 c -2.035689,0 -3.67595395,1.62634 -3.70210095,3.6556 -0.0014,0.0161 -0.0021,0.0323 -0.0021,0.0486 0,0.13399 0.0069,0.26562 0.02067,0.39585 0.103658,1.56149 0.804045,2.89965 1.83244895,4.05659 1.114902,1.25428 2.60457,2.33032 4.203355,3.39618 0.177752,0.11848 0.4093,0.11848 0.587047,0 1.598791,-1.06586 3.088453,-2.1419 4.2033605,-3.39618 1.028404,-1.15694 1.728793,-2.4951 1.832446,-4.05659 0.01371,-0.13023 0.02069,-0.26187 0.02069,-0.39585 -1.54e-4,-0.0176 -0.0011,-0.0352 -0.0032,-0.0527 -0.02836,-2.02729 -1.66677,-3.65146 -3.7010465,-3.65146 -1.038717,0 -1.974472,0.42377 -2.645831,1.10794 -0.67136,-0.68417 -1.607115,-1.10794 -2.645832,-1.10794 z"
         id="rect833-3-2-9"
         inkscape:connector-curvature="0"
         sodipodi:nodetypes="sccccccccccscs" />
    </g>
  </g>
</svg>
