<?xml version="1.0" encoding="UTF-8" standalone="no"?>
<!-- Created with Inkscape (http://www.inkscape.org/) -->

<svg
   xmlns:dc="http://purl.org/dc/elements/1.1/"
   xmlns:cc="http://creativecommons.org/ns#"
   xmlns:rdf="http://www.w3.org/1999/02/22-rdf-syntax-ns#"
   xmlns:svg="http://www.w3.org/2000/svg"
   xmlns="http://www.w3.org/2000/svg"
   xmlns:sodipodi="http://sodipodi.sourceforge.net/DTD/sodipodi-0.dtd"
   xmlns:inkscape="http://www.inkscape.org/namespaces/inkscape"
   width="128"
   height="128"
   viewBox="0 0 33.866666 33.866666"
   version="1.1"
   id="svg8"
   inkscape:version="0.92.3 (2405546, 2018-03-11)"
   sodipodi:docname="folder-encrypted.svg">
  <defs
     id="defs2" />
  <sodipodi:namedview
     id="base"
     pagecolor="#ffffff"
     bordercolor="#666666"
     borderopacity="1.0"
     inkscape:pageopacity="0.0"
     inkscape:pageshadow="2"
     inkscape:zoom="5.6"
     inkscape:cx="22.848986"
     inkscape:cy="47.159212"
     inkscape:document-units="px"
     inkscape:current-layer="layer1"
     showgrid="true"
     units="px"
     inkscape:showpageshadow="false"
     inkscape:snap-bbox="true"
     inkscape:bbox-paths="true"
     inkscape:bbox-nodes="true"
     inkscape:snap-bbox-edge-midpoints="true"
     inkscape:snap-bbox-midpoints="true"
     inkscape:object-paths="true"
     inkscape:snap-intersection-paths="true"
     inkscape:window-width="1874"
     inkscape:window-height="1141"
     inkscape:window-x="46"
     inkscape:window-y="30"
     inkscape:window-maximized="1">
    <inkscape:grid
       type="xygrid"
       id="grid815" />
  </sodipodi:namedview>
  <metadata
     id="metadata5">
    <rdf:RDF>
      <cc:Work
         rdf:about="">
        <dc:format>image/svg+xml</dc:format>
        <dc:type
           rdf:resource="http://purl.org/dc/dcmitype/StillImage" />
        <dc:title></dc:title>
      </cc:Work>
    </rdf:RDF>
  </metadata>
  <g
     inkscape:label="Capa 1"
     inkscape:groupmode="layer"
     id="layer1"
     transform="translate(0,-263.13333)">
    <g
       id="g5741"
       transform="translate(16.404171,-2.381242)">
      <path
         id="path1651-76"
         d="m -14.287505,266.83749 c -1.021478,0 -1.852083,0.83061 -1.852083,1.85208 v 27.51667 c 0,1.02148 0.830605,1.85208 1.852083,1.85208 h 29.633333 c 1.021477,0 1.852083,-0.8306 1.852083,-1.85208 v -23.28333 c 0,-1.02148 -0.830606,-1.85209 -1.852083,-1.85209 H 0.52916169 c -0.189618,0 -0.455472,-0.18688 -0.756543,-0.56224 -0.301071,-0.37536 -0.623148,-0.90157 -0.97358399,-1.43557 -0.350436,-0.534 -0.730376,-1.078 -1.176156,-1.50171 -0.445779,-0.42372 -0.974273,-0.73381 -1.591634,-0.73381 z"
         style="color:#000000;font-style:normal;font-variant:normal;font-weight:normal;font-stretch:normal;font-size:medium;line-height:normal;font-family:sans-serif;font-variant-ligatures:normal;font-variant-position:normal;font-variant-caps:normal;font-variant-numeric:normal;font-variant-alternates:normal;font-feature-settings:normal;text-indent:0;text-align:start;text-decoration:none;text-decoration-line:none;text-decoration-style:solid;text-decoration-color:#000000;letter-spacing:normal;word-spacing:normal;text-transform:none;writing-mode:lr-tb;direction:ltr;text-orientation:mixed;dominant-baseline:auto;baseline-shift:baseline;text-anchor:start;white-space:normal;shape-padding:0;clip-rule:nonzero;display:inline;overflow:visible;visibility:visible;opacity:1;isolation:auto;mix-blend-mode:normal;color-interpolation:sRGB;color-interpolation-filters:linearRGB;solid-color:#000000;solid-opacity:1;vector-effect:none;fill:#36404d;fill-opacity:1;fill-rule:nonzero;stroke:none;stroke-width:0.52916664;stroke-linecap:round;stroke-linejoin:round;stroke-miterlimit:4;stroke-dasharray:none;stroke-dashoffset:0;stroke-opacity:1;color-rendering:auto;image-rendering:auto;shape-rendering:auto;text-rendering:auto;enable-background:accumulate"
         inkscape:connector-curvature="0" />
      <path
         sodipodi:nodetypes="sccssssssss"
         inkscape:connector-curvature="0"
         id="rect1558-13"
         d="m -14.287504,267.10207 h 10.3187527 c 2.116667,0 3.17500099,4.23334 4.49791799,4.23334 H 15.345836 c 0.879475,0 1.5875,0.70802 1.5875,1.5875 v 23.28334 c 0,0.87947 -0.708025,1.5875 -1.5875,1.5875 h -29.63334 c -0.879475,0 -1.5875,-0.70803 -1.5875,-1.5875 v -27.51668 c 0,-0.87947 0.708025,-1.5875 1.5875,-1.5875 z"
         style="opacity:1;vector-effect:none;fill:#4b6477;fill-opacity:1;stroke:none;stroke-width:0.52916676;stroke-linecap:round;stroke-linejoin:round;stroke-miterlimit:4;stroke-dasharray:none;stroke-dashoffset:0;stroke-opacity:1" />
      <path
         id="path1644-21"
         d="m 0.52916169,271.07082 c -0.471841,0 -0.834372,0.34229 -1.169955,0.76068 -0.335582,0.41839 -0.65842799,0.95051 -1.00252299,1.47485 -0.344094,0.52433 -0.708295,1.03865 -1.097607,1.4087 -0.389311,0.37003 -0.78686,0.58911 -1.227832,0.58911 H -14.287505 c -1.021478,0 -1.852083,0.8306 -1.852083,1.85208 v 19.05 c 0,1.02148 0.830605,1.85208 1.852083,1.85208 h 29.633333 c 1.021477,0 1.852083,-0.8306 1.852083,-1.85208 v -23.28333 c 0,-1.02148 -0.830606,-1.85209 -1.852083,-1.85209 z"
         style="color:#000000;font-style:normal;font-variant:normal;font-weight:normal;font-stretch:normal;font-size:medium;line-height:normal;font-family:sans-serif;font-variant-ligatures:normal;font-variant-position:normal;font-variant-caps:normal;font-variant-numeric:normal;font-variant-alternates:normal;font-feature-settings:normal;text-indent:0;text-align:start;text-decoration:none;text-decoration-line:none;text-decoration-style:solid;text-decoration-color:#000000;letter-spacing:normal;word-spacing:normal;text-transform:none;writing-mode:lr-tb;direction:ltr;text-orientation:mixed;dominant-baseline:auto;baseline-shift:baseline;text-anchor:start;white-space:normal;shape-padding:0;clip-rule:nonzero;display:inline;overflow:visible;visibility:visible;opacity:1;isolation:auto;mix-blend-mode:normal;color-interpolation:sRGB;color-interpolation-filters:linearRGB;solid-color:#000000;solid-opacity:1;vector-effect:none;fill:#36404d;fill-opacity:1;fill-rule:nonzero;stroke:none;stroke-width:0.52916664;stroke-linecap:round;stroke-linejoin:round;stroke-miterlimit:4;stroke-dasharray:none;stroke-dashoffset:0;stroke-opacity:1;color-rendering:auto;image-rendering:auto;shape-rendering:auto;text-rendering:auto;enable-background:accumulate"
         inkscape:connector-curvature="0" />
      <path
         sodipodi:nodetypes="sccssssssss"
         inkscape:connector-curvature="0"
         id="rect1558-6-59"
         d="m -14.287504,275.56874 h 10.3187527 c 2.116667,0 3.17500099,-4.23333 4.49791799,-4.23333 H 15.345836 c 0.879475,0 1.5875,0.70802 1.5875,1.5875 v 23.28334 c 0,0.87947 -0.708025,1.5875 -1.5875,1.5875 h -29.63334 c -0.879475,0 -1.5875,-0.70803 -1.5875,-1.5875 v -19.05001 c 0,-0.87947 0.708025,-1.5875 1.5875,-1.5875 z"
         style="opacity:1;vector-effect:none;fill:#4b6477;fill-opacity:1;stroke:none;stroke-width:0.52916676;stroke-linecap:round;stroke-linejoin:round;stroke-miterlimit:4;stroke-dasharray:none;stroke-dashoffset:0;stroke-opacity:1" />
      <path
         style="opacity:1;fill:#dbdfe4;fill-opacity:1;stroke:none;stroke-width:2.11666703;stroke-linecap:round;stroke-linejoin:round;stroke-miterlimit:4;stroke-dasharray:none;stroke-dashoffset:0;stroke-opacity:1"
         d="m 0.52916869,279.80208 c -2.05210899,0 -3.70416799,1.65206 -3.70416799,3.70417 v 1.05834 h -0.529167 c -0.293158,0 -0.529166,0.236 -0.529166,0.52916 v 6.87917 c 0,0.29316 0.236008,0.52917 0.529166,0.52917 h 5.820835 v -1.05834 h 1.058333 v -1.05833 h -1.058333 v -1.05833 h 1.058333 v -1.05834 h 1.058334 v -1.05833 h 1.058334 v -2.11667 c 0,-0.29316 -0.236009,-0.52916 -0.529167,-0.52916 h -0.529167 v -1.05834 c 0,-2.05211 -1.652059,-3.70417 -3.70416701,-3.70417 z m 3.70416701,8.46667 v 1.05834 h 1.058334 v -1.05834 z m 0,1.05834 h -1.058334 v 1.05833 h 1.058334 z m 0,1.05833 v 1.05833 h 1.058334 v -1.05833 z m 0,1.05833 h -1.058334 v 1.05834 h 1.058334 z M 0.52916869,281.38958 c 1.17263301,0 2.11666701,0.94404 2.11666701,2.11667 v 1.05834 h -4.233335 v -1.05834 c 0,-1.17263 0.94403399,-2.11667 2.11666799,-2.11667 z m -0.05478,5.29167 h 0.109555 c 0.55621601,0 1.00355601,0.44735 1.00355601,1.00356 v 0.10955 c 0,0.38298 -0.215364,0.71015 -0.529167,0.87954 v 1.71152 c 0,0.29316 -0.23600801,0.52917 -0.52916601,0.52917 -0.293159,0 -0.52916699729157,-0.23601 -0.52916699729157,-0.52917 V 288.6739 C -0.31380331,288.50451 -0.52916731,288.17734 -0.52916731,287.79436 v -0.10955 c 0,-0.55621 0.447341,-1.00356 1.003556,-1.00356 z"
         id="rect4256-0"
         inkscape:connector-curvature="0"
         sodipodi:nodetypes="sscsssscccccccccccsscssccccccccccccccccccccssccsssssscssscsss" />
    </g>
  </g>
</svg>
