<?xml version="1.0" encoding="UTF-8" standalone="no"?>
<!-- Created with Inkscape (http://www.inkscape.org/) -->

<svg
   xmlns:dc="http://purl.org/dc/elements/1.1/"
   xmlns:cc="http://creativecommons.org/ns#"
   xmlns:rdf="http://www.w3.org/1999/02/22-rdf-syntax-ns#"
   xmlns:svg="http://www.w3.org/2000/svg"
   xmlns="http://www.w3.org/2000/svg"
   xmlns:sodipodi="http://sodipodi.sourceforge.net/DTD/sodipodi-0.dtd"
   xmlns:inkscape="http://www.inkscape.org/namespaces/inkscape"
   width="128"
   height="128"
   viewBox="0 0 33.866666 33.866666"
   version="1.1"
   id="svg8"
   inkscape:version="0.92.3 (2405546, 2018-03-11)"
   sodipodi:docname="folder-root.svg">
  <defs
     id="defs2" />
  <sodipodi:namedview
     id="base"
     pagecolor="#ffffff"
     bordercolor="#666666"
     borderopacity="1.0"
     inkscape:pageopacity="0.0"
     inkscape:pageshadow="2"
     inkscape:zoom="5.6"
     inkscape:cx="22.848986"
     inkscape:cy="47.159212"
     inkscape:document-units="px"
     inkscape:current-layer="layer1"
     showgrid="true"
     units="px"
     inkscape:showpageshadow="false"
     inkscape:snap-bbox="true"
     inkscape:bbox-paths="true"
     inkscape:bbox-nodes="true"
     inkscape:snap-bbox-edge-midpoints="true"
     inkscape:snap-bbox-midpoints="true"
     inkscape:object-paths="true"
     inkscape:snap-intersection-paths="true"
     inkscape:window-width="1874"
     inkscape:window-height="1141"
     inkscape:window-x="46"
     inkscape:window-y="30"
     inkscape:window-maximized="1">
    <inkscape:grid
       type="xygrid"
       id="grid815" />
  </sodipodi:namedview>
  <metadata
     id="metadata5">
    <rdf:RDF>
      <cc:Work
         rdf:about="">
        <dc:format>image/svg+xml</dc:format>
        <dc:type
           rdf:resource="http://purl.org/dc/dcmitype/StillImage" />
        <dc:title></dc:title>
      </cc:Work>
    </rdf:RDF>
  </metadata>
  <g
     inkscape:label="Capa 1"
     inkscape:groupmode="layer"
     id="layer1"
     transform="translate(0,-263.13333)">
    <g
       id="g9960"
       transform="translate(9.7894536,-3.175002)">
      <path
         id="path1651-0"
         d="m -7.6727869,267.63125 c -1.0214776,0 -1.8520833,0.83061 -1.8520833,1.85208 V 297 c 0,1.02148 0.8306057,1.85208 1.8520833,1.85208 H 21.960546 c 1.021477,0 1.852083,-0.8306 1.852083,-1.85208 v -23.28333 c 0,-1.02148 -0.830606,-1.85209 -1.852083,-1.85209 H 7.1438798 c -0.189618,0 -0.455472,-0.18688 -0.756543,-0.56224 -0.301071,-0.37536 -0.623148,-0.90157 -0.973584,-1.43557 -0.350436,-0.534 -0.730376,-1.078 -1.176156,-1.50171 -0.445779,-0.42372 -0.974273,-0.73381 -1.591634,-0.73381 z"
         style="color:#000000;font-style:normal;font-variant:normal;font-weight:normal;font-stretch:normal;font-size:medium;line-height:normal;font-family:sans-serif;font-variant-ligatures:normal;font-variant-position:normal;font-variant-caps:normal;font-variant-numeric:normal;font-variant-alternates:normal;font-feature-settings:normal;text-indent:0;text-align:start;text-decoration:none;text-decoration-line:none;text-decoration-style:solid;text-decoration-color:#000000;letter-spacing:normal;word-spacing:normal;text-transform:none;writing-mode:lr-tb;direction:ltr;text-orientation:mixed;dominant-baseline:auto;baseline-shift:baseline;text-anchor:start;white-space:normal;shape-padding:0;clip-rule:nonzero;display:inline;overflow:visible;visibility:visible;opacity:1;isolation:auto;mix-blend-mode:normal;color-interpolation:sRGB;color-interpolation-filters:linearRGB;solid-color:#000000;solid-opacity:1;vector-effect:none;fill:#c74343;fill-opacity:1;fill-rule:nonzero;stroke:none;stroke-width:0.52916664;stroke-linecap:round;stroke-linejoin:round;stroke-miterlimit:4;stroke-dasharray:none;stroke-dashoffset:0;stroke-opacity:1;color-rendering:auto;image-rendering:auto;shape-rendering:auto;text-rendering:auto;enable-background:accumulate"
         inkscape:connector-curvature="0" />
      <path
         sodipodi:nodetypes="sccssssssss"
         inkscape:connector-curvature="0"
         id="rect1558-9"
         d="M -7.6727856,267.89584 H 2.6459668 c 2.116667,0 3.175001,4.23334 4.497918,4.23334 H 21.960554 c 0.879475,0 1.5875,0.70802 1.5875,1.5875 v 23.28334 c 0,0.87947 -0.708025,1.5875 -1.5875,1.5875 H -7.6727856 c -0.8794751,0 -1.5875003,-0.70803 -1.5875003,-1.5875 v -27.51668 c 0,-0.87947 0.7080252,-1.5875 1.5875003,-1.5875 z"
         style="overflow:visible;opacity:1;vector-effect:none;fill:#f78f8f;fill-opacity:1;stroke:none;stroke-width:0.52916676;stroke-linecap:round;stroke-linejoin:round;stroke-miterlimit:4;stroke-dasharray:none;stroke-dashoffset:0;stroke-opacity:1" />
      <path
         id="path1644-1"
         d="m 7.1438798,271.86458 c -0.471841,0 -0.834372,0.34229 -1.169955,0.76068 -0.335582,0.41839 -0.658428,0.95051 -1.002523,1.47485 -0.344094,0.52433 -0.708295,1.03865 -1.097607,1.4087 -0.389311,0.37003 -0.78686,0.58911 -1.227832,0.58911 H -7.6727869 c -1.0214776,0 -1.8520833,0.8306 -1.8520833,1.85208 V 297 c 0,1.02148 0.8306057,1.85208 1.8520833,1.85208 H 21.960546 c 1.021477,0 1.852083,-0.8306 1.852083,-1.85208 v -23.28333 c 0,-1.02148 -0.830606,-1.85209 -1.852083,-1.85209 z"
         style="color:#000000;font-style:normal;font-variant:normal;font-weight:normal;font-stretch:normal;font-size:medium;line-height:normal;font-family:sans-serif;font-variant-ligatures:normal;font-variant-position:normal;font-variant-caps:normal;font-variant-numeric:normal;font-variant-alternates:normal;font-feature-settings:normal;text-indent:0;text-align:start;text-decoration:none;text-decoration-line:none;text-decoration-style:solid;text-decoration-color:#000000;letter-spacing:normal;word-spacing:normal;text-transform:none;writing-mode:lr-tb;direction:ltr;text-orientation:mixed;dominant-baseline:auto;baseline-shift:baseline;text-anchor:start;white-space:normal;shape-padding:0;clip-rule:nonzero;display:inline;overflow:visible;visibility:visible;opacity:1;isolation:auto;mix-blend-mode:normal;color-interpolation:sRGB;color-interpolation-filters:linearRGB;solid-color:#000000;solid-opacity:1;vector-effect:none;fill:#c74343;fill-opacity:1;fill-rule:nonzero;stroke:none;stroke-width:0.52916664;stroke-linecap:round;stroke-linejoin:round;stroke-miterlimit:4;stroke-dasharray:none;stroke-dashoffset:0;stroke-opacity:1;color-rendering:auto;image-rendering:auto;shape-rendering:auto;text-rendering:auto;enable-background:accumulate"
         inkscape:connector-curvature="0" />
      <path
         sodipodi:nodetypes="sccssssssss"
         inkscape:connector-curvature="0"
         id="rect1558-6-77"
         d="M -7.6727856,276.36251 H 2.6459668 c 2.116667,0 3.175001,-4.23333 4.497918,-4.23333 H 21.960554 c 0.879475,0 1.5875,0.70802 1.5875,1.5875 v 23.28334 c 0,0.87947 -0.708025,1.5875 -1.5875,1.5875 H -7.6727856 c -0.8794751,0 -1.5875003,-0.70803 -1.5875003,-1.5875 v -19.05001 c 0,-0.87947 0.7080252,-1.5875 1.5875003,-1.5875 z"
         style="overflow:visible;opacity:1;vector-effect:none;fill:#f78f8f;fill-opacity:1;stroke:none;stroke-width:0.52916676;stroke-linecap:round;stroke-linejoin:round;stroke-miterlimit:4;stroke-dasharray:none;stroke-dashoffset:0;stroke-opacity:1" />
      <path
         id="path6023"
         d="m 7.3959308,280.86043 a 0.52921971,0.52921971 0 0 0 -0.377238,0.17156 l -5.820834,6.35 a 0.52921971,0.52921971 0 0 0 0.389641,0.88677 h 1.058333 v 4.7625 c 0,0.29316 0.236009,0.52917 0.529167,0.52917 H 11.1125 c 0.293158,0 0.529167,-0.23601 0.529167,-0.52917 v -4.7625 H 12.7 a 0.52921971,0.52921971 0 0 0 0.406177,-0.86816 l -0.935344,-1.12241 v -0.1261 -1.05833 -1.5875 c 0,-0.29315 -0.236008,-0.52917 -0.529166,-0.52917 H 11.1125 c -0.293159,0 -0.529167,0.23602 -0.529167,0.52917 v 0.86713 l -2.7688232,-3.3228 a 0.52921971,0.52921971 0 0 0 -0.418579,-0.19016 z"
         style="color:#000000;font-style:normal;font-variant:normal;font-weight:normal;font-stretch:normal;font-size:medium;line-height:normal;font-family:sans-serif;font-variant-ligatures:normal;font-variant-position:normal;font-variant-caps:normal;font-variant-numeric:normal;font-variant-alternates:normal;font-feature-settings:normal;text-indent:0;text-align:start;text-decoration:none;text-decoration-line:none;text-decoration-style:solid;text-decoration-color:#000000;letter-spacing:normal;word-spacing:normal;text-transform:none;writing-mode:lr-tb;direction:ltr;text-orientation:mixed;dominant-baseline:auto;baseline-shift:baseline;text-anchor:start;white-space:normal;shape-padding:0;clip-rule:nonzero;display:inline;overflow:visible;visibility:visible;opacity:1;isolation:auto;mix-blend-mode:normal;color-interpolation:sRGB;color-interpolation-filters:linearRGB;solid-color:#000000;solid-opacity:1;vector-effect:none;fill:#c74343;fill-opacity:1;fill-rule:nonzero;stroke:none;stroke-width:1.05833352;stroke-linecap:butt;stroke-linejoin:miter;stroke-miterlimit:4;stroke-dasharray:none;stroke-dashoffset:0;stroke-opacity:1;color-rendering:auto;image-rendering:auto;shape-rendering:auto;text-rendering:auto;enable-background:accumulate"
         inkscape:connector-curvature="0" />
    </g>
  </g>
</svg>
