<?xml version="1.0" encoding="UTF-8" standalone="no"?>
<!-- Created with Inkscape (http://www.inkscape.org/) -->

<svg
   xmlns:dc="http://purl.org/dc/elements/1.1/"
   xmlns:cc="http://creativecommons.org/ns#"
   xmlns:rdf="http://www.w3.org/1999/02/22-rdf-syntax-ns#"
   xmlns:svg="http://www.w3.org/2000/svg"
   xmlns="http://www.w3.org/2000/svg"
   xmlns:sodipodi="http://sodipodi.sourceforge.net/DTD/sodipodi-0.dtd"
   xmlns:inkscape="http://www.inkscape.org/namespaces/inkscape"
   width="128"
   height="128"
   viewBox="0 0 33.866666 33.866666"
   version="1.1"
   id="svg8"
   inkscape:version="0.92.3 (2405546, 2018-03-11)"
   sodipodi:docname="folder-tar.svg">
  <defs
     id="defs2" />
  <sodipodi:namedview
     id="base"
     pagecolor="#ffffff"
     bordercolor="#666666"
     borderopacity="1.0"
     inkscape:pageopacity="0.0"
     inkscape:pageshadow="2"
     inkscape:zoom="5.6"
     inkscape:cx="22.848986"
     inkscape:cy="47.159212"
     inkscape:document-units="px"
     inkscape:current-layer="layer1"
     showgrid="true"
     units="px"
     inkscape:showpageshadow="false"
     inkscape:snap-bbox="true"
     inkscape:bbox-paths="true"
     inkscape:bbox-nodes="true"
     inkscape:snap-bbox-edge-midpoints="true"
     inkscape:snap-bbox-midpoints="true"
     inkscape:object-paths="true"
     inkscape:snap-intersection-paths="true"
     inkscape:window-width="1874"
     inkscape:window-height="1141"
     inkscape:window-x="46"
     inkscape:window-y="30"
     inkscape:window-maximized="1">
    <inkscape:grid
       type="xygrid"
       id="grid815" />
  </sodipodi:namedview>
  <metadata
     id="metadata5">
    <rdf:RDF>
      <cc:Work
         rdf:about="">
        <dc:format>image/svg+xml</dc:format>
        <dc:type
           rdf:resource="http://purl.org/dc/dcmitype/StillImage" />
        <dc:title></dc:title>
      </cc:Work>
    </rdf:RDF>
  </metadata>
  <g
     inkscape:label="Capa 1"
     inkscape:groupmode="layer"
     id="layer1"
     transform="translate(0,-263.13333)">
    <g
       id="g9747"
       transform="translate(12.631241,1.770338)">
      <path
         id="path1651-2"
         d="m -10.514573,262.68591 c -1.021478,0 -1.852084,0.83061 -1.852084,1.85208 v 27.51667 c 0,1.02148 0.830606,1.85208 1.852084,1.85208 h 29.633332 c 1.021477,0 1.852083,-0.8306 1.852083,-1.85208 v -23.28333 c 0,-1.02148 -0.830606,-1.85209 -1.852083,-1.85209 H 4.3020935 c -0.189618,0 -0.455472,-0.18688 -0.756543,-0.56224 -0.301071,-0.37536 -0.623148,-0.90157 -0.973584,-1.43557 -0.350436,-0.534 -0.730376,-1.078 -1.176156,-1.50171 -0.44577901,-0.42372 -0.97427301,-0.73381 -1.59163401,-0.73381 z"
         style="color:#000000;font-style:normal;font-variant:normal;font-weight:normal;font-stretch:normal;font-size:medium;line-height:normal;font-family:sans-serif;font-variant-ligatures:normal;font-variant-position:normal;font-variant-caps:normal;font-variant-numeric:normal;font-variant-alternates:normal;font-feature-settings:normal;text-indent:0;text-align:start;text-decoration:none;text-decoration-line:none;text-decoration-style:solid;text-decoration-color:#000000;letter-spacing:normal;word-spacing:normal;text-transform:none;writing-mode:lr-tb;direction:ltr;text-orientation:mixed;dominant-baseline:auto;baseline-shift:baseline;text-anchor:start;white-space:normal;shape-padding:0;clip-rule:nonzero;display:inline;overflow:visible;visibility:visible;opacity:1;isolation:auto;mix-blend-mode:normal;color-interpolation:sRGB;color-interpolation-filters:linearRGB;solid-color:#000000;solid-opacity:1;vector-effect:none;fill:#4f92db;fill-opacity:1;fill-rule:nonzero;stroke:none;stroke-width:0.52916664;stroke-linecap:round;stroke-linejoin:round;stroke-miterlimit:4;stroke-dasharray:none;stroke-dashoffset:0;stroke-opacity:1;color-rendering:auto;image-rendering:auto;shape-rendering:auto;text-rendering:auto;enable-background:accumulate"
         inkscape:connector-curvature="0" />
      <path
         sodipodi:nodetypes="sccssssssss"
         inkscape:connector-curvature="0"
         id="rect1558-54"
         d="m -10.514573,262.9505 h 10.31874949 c 2.11666701,0 3.17500001,4.23333 4.49791701,4.23333 H 19.118759 c 0.879475,0 1.5875,0.70802 1.5875,1.5875 v 23.28333 c 0,0.87948 -0.708025,1.5875 -1.5875,1.5875 h -29.633332 c -0.879475,0 -1.5875,-0.70802 -1.5875,-1.5875 V 264.538 c 0,-0.87948 0.708025,-1.5875 1.5875,-1.5875 z"
         style="opacity:1;vector-effect:none;fill:#5abfff;fill-opacity:1;stroke:none;stroke-width:0.52916664;stroke-linecap:round;stroke-linejoin:round;stroke-miterlimit:4;stroke-dasharray:none;stroke-dashoffset:0;stroke-opacity:1" />
      <path
         id="path1644-0"
         d="m 4.3020935,266.91924 c -0.471841,0 -0.834372,0.34229 -1.169955,0.76068 -0.335582,0.41839 -0.658428,0.95051 -1.002523,1.47485 -0.344094,0.52433 -0.708295,1.03865 -1.097607,1.4087 -0.38931101,0.37003 -0.78686001,0.58911 -1.22783201,0.58911 H -10.514573 c -1.021478,0 -1.852084,0.8306 -1.852084,1.85208 v 19.05 c 0,1.02148 0.830606,1.85208 1.852084,1.85208 h 29.633332 c 1.021477,0 1.852083,-0.8306 1.852083,-1.85208 v -23.28333 c 0,-1.02148 -0.830606,-1.85209 -1.852083,-1.85209 z"
         style="color:#000000;font-style:normal;font-variant:normal;font-weight:normal;font-stretch:normal;font-size:medium;line-height:normal;font-family:sans-serif;font-variant-ligatures:normal;font-variant-position:normal;font-variant-caps:normal;font-variant-numeric:normal;font-variant-alternates:normal;font-feature-settings:normal;text-indent:0;text-align:start;text-decoration:none;text-decoration-line:none;text-decoration-style:solid;text-decoration-color:#000000;letter-spacing:normal;word-spacing:normal;text-transform:none;writing-mode:lr-tb;direction:ltr;text-orientation:mixed;dominant-baseline:auto;baseline-shift:baseline;text-anchor:start;white-space:normal;shape-padding:0;clip-rule:nonzero;display:inline;overflow:visible;visibility:visible;opacity:1;isolation:auto;mix-blend-mode:normal;color-interpolation:sRGB;color-interpolation-filters:linearRGB;solid-color:#000000;solid-opacity:1;vector-effect:none;fill:#4f92db;fill-opacity:1;fill-rule:nonzero;stroke:none;stroke-width:0.52916664;stroke-linecap:round;stroke-linejoin:round;stroke-miterlimit:4;stroke-dasharray:none;stroke-dashoffset:0;stroke-opacity:1;color-rendering:auto;image-rendering:auto;shape-rendering:auto;text-rendering:auto;enable-background:accumulate"
         inkscape:connector-curvature="0" />
      <path
         sodipodi:nodetypes="sccssssssss"
         inkscape:connector-curvature="0"
         id="rect1558-6-594"
         d="m -10.514573,271.41716 h 10.31874949 c 2.11666701,0 3.17500001,-4.23333 4.49791701,-4.23333 H 19.118759 c 0.879475,0 1.5875,0.70802 1.5875,1.5875 v 23.28333 c 0,0.87948 -0.708025,1.5875 -1.5875,1.5875 h -29.633332 c -0.879475,0 -1.5875,-0.70802 -1.5875,-1.5875 v -19.05 c 0,-0.87947 0.708025,-1.5875 1.5875,-1.5875 z"
         style="opacity:1;vector-effect:none;fill:#5abfff;fill-opacity:1;stroke:none;stroke-width:0.52916664;stroke-linecap:round;stroke-linejoin:round;stroke-miterlimit:4;stroke-dasharray:none;stroke-dashoffset:0;stroke-opacity:1" />
      <path
         inkscape:connector-curvature="0"
         style="opacity:1;fill:#36404d;fill-opacity:1;stroke:none;stroke-width:0.52916676;stroke-linecap:round;stroke-linejoin:round;stroke-miterlimit:4;stroke-dasharray:none;stroke-opacity:1"
         d="m 11.710426,266.91925 v 2.11666 2.11667 5.82084 c 0,1.17263 0.944033,2.11666 2.116667,2.11666 1.172633,0 2.116666,-0.94403 2.116666,-2.11666 v -5.82084 -2.11667 -2.11666 h -2.116666 z"
         id="rect916" />
      <path
         inkscape:connector-curvature="0"
         style="opacity:1;fill:#4b6477;fill-opacity:1;stroke:none;stroke-width:0.52916676;stroke-linecap:round;stroke-linejoin:round;stroke-miterlimit:4;stroke-dasharray:none;stroke-opacity:1"
         d="m 12.239593,267.44841 v 1.5875 1.05834 6.87917 c 0,0.87947 0.708025,1.5875 1.5875,1.5875 0.879474,0 1.587499,-0.70803 1.587499,-1.5875 v -6.87917 -1.05834 -1.5875 h -1.587499 z"
         id="rect921" />
      <path
         inkscape:connector-curvature="0"
         style="opacity:1;fill:#f8f9fa;fill-opacity:1;stroke:none;stroke-width:0.52916676;stroke-linecap:round;stroke-linejoin:round;stroke-miterlimit:4;stroke-dasharray:none;stroke-opacity:1"
         d="m 13.827093,267.44841 v 0.52917 h 0.529166 v -0.52917 z m 0,0.52917 h -0.529167 v 0.52917 h 0.529167 z m 0,0.52917 v 0.52916 h 0.529166 v -0.52916 z m 0,0.52916 h -0.529167 v 0.52917 h 0.529167 z m 0,0.52917 v 0.52917 h 0.529166 v -0.52917 z m 0,0.52917 h -0.529167 v 0.52916 h 0.529167 z m 0,0.52916 v 0.52917 h 0.529166 v -0.52917 z m 0,0.52917 h -0.529167 v 0.52917 h 0.529167 z m 0,0.52917 v 0.52916 h 0.529166 v -0.52916 z m 0,0.52916 h -0.529167 v 0.52917 h 0.529167 z m 0,0.52917 v 0.52917 h 0.529166 v -0.52917 z m 0,0.52917 h -0.529167 v 0.52916 h 0.529167 z m 0,0.52916 v 0.52917 h 0.529166 v -0.52917 z m 0,0.52917 h -0.529167 v 0.52917 h 0.529167 z m 0,0.52917 v 0.52916 h 0.529166 v -0.52916 z m 0,0.52916 h -0.529167 v 0.52917 h 0.529167 z m 0,0.52917 v 0.52917 h 0.529166 v -0.52917 z m 0,0.52917 h -0.529167 v 0.52917 h 0.529167 z m 0,0.52917 v 0.52916 h 0.529166 v -0.52916 z m 0,0.52916 h -0.529167 v 0.52917 0.67489 c -0.315277,0.18286 -0.529167,0.52046 -0.529167,0.91261 0,0.58632 0.472018,1.05833 1.058334,1.05833 0.586316,0 1.058333,-0.47201 1.058333,-1.05833 0,-0.39215 -0.213889,-0.72975 -0.529167,-0.91261 v -0.67489 h -0.529166 z m 0,1.5875 c 0.293158,0 0.529166,0.23601 0.529166,0.52917 0,0.29316 -0.236008,0.52917 -0.529166,0.52917 -0.293158,0 -0.529167,-0.23601 -0.529167,-0.52917 0,-0.29316 0.236009,-0.52917 0.529167,-0.52917 z"
         id="rect999-5" />
    </g>
  </g>
</svg>
