<?xml version="1.0" encoding="UTF-8" standalone="no"?>
<!-- Created with Inkscape (http://www.inkscape.org/) -->

<svg
   width="128"
   height="128"
   viewBox="0 0 33.866666 33.866666"
   version="1.1"
   id="svg8"
   inkscape:version="1.2 (dc2aedaf03, 2022-05-15)"
   sodipodi:docname="folder-image.svg"
   xmlns:inkscape="http://www.inkscape.org/namespaces/inkscape"
   xmlns:sodipodi="http://sodipodi.sourceforge.net/DTD/sodipodi-0.dtd"
   xmlns:xlink="http://www.w3.org/1999/xlink"
   xmlns="http://www.w3.org/2000/svg"
   xmlns:svg="http://www.w3.org/2000/svg"
   xmlns:rdf="http://www.w3.org/1999/02/22-rdf-syntax-ns#"
   xmlns:cc="http://creativecommons.org/ns#"
   xmlns:dc="http://purl.org/dc/elements/1.1/">
  <defs
     id="defs2">
    <linearGradient
       inkscape:collect="always"
       xlink:href="#linearGradient5283"
       id="linearGradient5285"
       x1="3.968751"
       y1="6.6145825"
       x2="3.968751"
       y2="-1.0583341"
       gradientUnits="userSpaceOnUse" />
    <linearGradient
       inkscape:collect="always"
       id="linearGradient5283">
      <stop
         style="stop-color:#3694ee;stop-opacity:1;"
         offset="0"
         id="stop5279" />
      <stop
         style="stop-color:#2383e6;stop-opacity:1;"
         offset="1"
         id="stop5281" />
    </linearGradient>
  </defs>
  <sodipodi:namedview
     id="base"
     pagecolor="#ffffff"
     bordercolor="#666666"
     borderopacity="1.0"
     inkscape:pageopacity="0.0"
     inkscape:pageshadow="2"
     inkscape:zoom="5.6"
     inkscape:cx="22.857143"
     inkscape:cy="47.232143"
     inkscape:document-units="px"
     inkscape:current-layer="layer1"
     showgrid="true"
     units="px"
     inkscape:showpageshadow="false"
     inkscape:snap-bbox="true"
     inkscape:bbox-paths="true"
     inkscape:bbox-nodes="true"
     inkscape:snap-bbox-edge-midpoints="true"
     inkscape:snap-bbox-midpoints="true"
     inkscape:object-paths="true"
     inkscape:snap-intersection-paths="true"
     inkscape:window-width="2160"
     inkscape:window-height="1337"
     inkscape:window-x="0"
     inkscape:window-y="0"
     inkscape:window-maximized="1"
     inkscape:pagecheckerboard="0"
     inkscape:deskcolor="#d1d1d1">
    <inkscape:grid
       type="xygrid"
       id="grid815" />
  </sodipodi:namedview>
  <metadata
     id="metadata5">
    <rdf:RDF>
      <cc:Work
         rdf:about="">
        <dc:format>image/svg+xml</dc:format>
        <dc:type
           rdf:resource="http://purl.org/dc/dcmitype/StillImage" />
        <dc:title />
      </cc:Work>
    </rdf:RDF>
  </metadata>
  <g
     inkscape:label="Capa 1"
     inkscape:groupmode="layer"
     id="layer1"
     transform="translate(0,-263.13333)">
    <g
       id="g16691"
       transform="translate(2.645831,265.77916)">
      <g
         id="g6070">
        <path
           d="m 0.79375195,-1.3229175 c -1.75437153,0 -3.17499965,1.42063295 -3.17499965,3.1750008 V 26.722917 c 0,1.754373 1.42062812,3.175001 3.17499965,3.175001 H 27.781249 c 1.75437,0 3.175,-1.420628 3.175,-3.175001 V 6.0854176 c 0,-1.7543678 -1.42063,-3.1750007 -3.175,-3.1750007 h -12.96458 c -0.516918,0 -0.945646,-0.2236471 -1.377177,-0.5968631 C 13.00796,1.9403377 12.591495,1.4206536 12.141896,0.88779851 11.242698,-0.17791695 10.171761,-1.3229175 8.4666688,-1.3229175 Z"
           style="color:#000000;font-style:normal;font-variant:normal;font-weight:normal;font-stretch:normal;font-size:medium;line-height:normal;font-family:sans-serif;font-variant-ligatures:normal;font-variant-position:normal;font-variant-caps:normal;font-variant-numeric:normal;font-variant-alternates:normal;font-variant-east-asian:normal;font-feature-settings:normal;font-variation-settings:normal;text-indent:0;text-align:start;text-decoration:none;text-decoration-line:none;text-decoration-style:solid;text-decoration-color:#000000;letter-spacing:normal;word-spacing:normal;text-transform:none;writing-mode:lr-tb;direction:ltr;text-orientation:mixed;dominant-baseline:auto;baseline-shift:baseline;text-anchor:start;white-space:normal;shape-padding:0;shape-margin:0;inline-size:0;clip-rule:nonzero;display:inline;overflow:visible;visibility:visible;isolation:auto;mix-blend-mode:normal;color-interpolation:sRGB;color-interpolation-filters:linearRGB;solid-color:#000000;solid-opacity:1;fill:#286bb2;fill-opacity:1;fill-rule:nonzero;stroke:none;stroke-width:0.529167;stroke-linecap:butt;stroke-linejoin:miter;stroke-miterlimit:4;stroke-dasharray:none;stroke-dashoffset:0;stroke-opacity:1;color-rendering:auto;image-rendering:auto;shape-rendering:auto;text-rendering:auto;enable-background:accumulate;stop-color:#000000"
           id="path1242"
           sodipodi:nodetypes="sssssssssssss" />
        <path
           id="rect1149-4-0"
           style="fill:url(#linearGradient5285);fill-opacity:1;stroke-width:0.264583"
           d="m 0.79375195,-1.0583341 7.67291895,5.3e-6 c 3.1750001,0 3.9687501,4.2333343 6.3500001,4.2333343 l 12.964581,-5.2e-6 c 1.61237,0 2.910414,1.2980461 2.910414,2.9104067 v 20.63751 c 0,1.612371 -1.298046,2.910417 -2.910414,2.910417 H 0.79375195 c -1.61236909,0 -2.91041415,-1.298046 -2.91041415,-2.910417 V 1.8520727 c 0,-1.61236592 1.29804506,-2.9104068 2.91041415,-2.9104068 z"
           sodipodi:nodetypes="sccssssssss" />
        <path
           d="m 27.78125,2.9104116 c 1.754371,0 3.174999,1.4206329 3.174999,3.1750007 V 26.987506 c 0,1.754373 -1.420628,3.175001 -3.174999,3.175001 H 0.79375248 c -1.75436994,0 -3.17500018,-1.420628 -3.17500018,-3.175001 V 10.318752 c 0,-1.7543679 1.42063024,-3.1750008 3.17500018,-3.1750008 H 8.9958324 c 0.5169182,0 0.9456465,-0.2236471 1.3771776,-0.5968631 0.431531,-0.3732161 0.847996,-0.8929002 1.297595,-1.4257553 0.899198,-1.0657154 1.970136,-2.2107159 3.675228,-2.2107159 z"
           style="color:#000000;font-style:normal;font-variant:normal;font-weight:normal;font-stretch:normal;font-size:medium;line-height:normal;font-family:sans-serif;font-variant-ligatures:normal;font-variant-position:normal;font-variant-caps:normal;font-variant-numeric:normal;font-variant-alternates:normal;font-variant-east-asian:normal;font-feature-settings:normal;font-variation-settings:normal;text-indent:0;text-align:start;text-decoration:none;text-decoration-line:none;text-decoration-style:solid;text-decoration-color:#000000;letter-spacing:normal;word-spacing:normal;text-transform:none;writing-mode:lr-tb;direction:ltr;text-orientation:mixed;dominant-baseline:auto;baseline-shift:baseline;text-anchor:start;white-space:normal;shape-padding:0;shape-margin:0;inline-size:0;clip-rule:nonzero;display:inline;overflow:visible;visibility:visible;isolation:auto;mix-blend-mode:normal;color-interpolation:sRGB;color-interpolation-filters:linearRGB;solid-color:#000000;solid-opacity:1;fill:#3182d9;fill-opacity:1;fill-rule:nonzero;stroke:none;stroke-width:0.529167;stroke-linecap:butt;stroke-linejoin:miter;stroke-miterlimit:4;stroke-dasharray:none;stroke-dashoffset:0;stroke-opacity:1;color-rendering:auto;image-rendering:auto;shape-rendering:auto;text-rendering:auto;enable-background:accumulate;stop-color:#000000"
           id="path1242-2"
           sodipodi:nodetypes="sssssssssssss" />
        <path
           id="rect1149-4-0-6"
           style="fill:#50c1f9;fill-opacity:1;stroke-width:0.264583"
           d="m 27.78125,3.174995 -12.435419,5.3e-6 c -3.175,0 -3.96875,4.2333343 -6.3500007,4.2333343 l -8.20208047,-5.3e-6 c -1.61237015,0 -2.91041413,1.2980461 -2.91041413,2.9104067 v 16.66877 c 0,1.612371 1.2980461,2.910417 2.91041413,2.910417 H 27.78125 c 1.612369,0 2.910414,-1.298046 2.910414,-2.910417 V 6.0854017 c 0,-1.6123606 -1.298045,-2.9104067 -2.910414,-2.9104067 z"
           sodipodi:nodetypes="sccssssssss" />
      </g>
    </g>
    <path
       inkscape:connector-curvature="0"
       id="path6156"
       d="m 13.225794,277.68538 c -1.026402,0 -1.852713,0.82603 -1.852713,1.85208 0,1.02606 0.826311,1.85209 1.852713,1.85209 1.026403,0 1.852713,-0.82603 1.852713,-1.85209 0,-1.02605 -0.82631,-1.85208 -1.852713,-1.85208 z m 6.613729,4.76198 a 0.26469974,0.26460981 0 0 0 -0.215046,0.11524 l -3.594801,5.19193 -2.330365,-2.82876 a 0.26469972,0.26460979 0 0 0 -0.208842,-0.0966 0.26469972,0.26460979 0 0 0 -0.205744,0.10387 l -3.4407514,4.49792 a 0.26469972,0.26460979 0 0 0 0.2103944,0.42529 h 7.146177 a 0.26469972,0.26460979 0 0 0 0.0088,-5.3e-4 h 7.131704 a 0.26469974,0.26460981 0 0 0 0.222801,-0.40825 l -4.499446,-6.87916 a 0.26469974,0.26460981 0 0 0 -0.224869,-0.12093 z"
       style="color:#000000;font-style:normal;font-variant:normal;font-weight:normal;font-stretch:normal;font-size:medium;line-height:normal;font-family:sans-serif;font-variant-ligatures:normal;font-variant-position:normal;font-variant-caps:normal;font-variant-numeric:normal;font-variant-alternates:normal;font-feature-settings:normal;text-indent:0;text-align:start;text-decoration:none;text-decoration-line:none;text-decoration-style:solid;text-decoration-color:#000000;letter-spacing:normal;word-spacing:normal;text-transform:none;writing-mode:lr-tb;direction:ltr;text-orientation:mixed;dominant-baseline:auto;baseline-shift:baseline;text-anchor:start;white-space:normal;shape-padding:0;clip-rule:nonzero;display:inline;overflow:visible;visibility:visible;isolation:auto;mix-blend-mode:normal;color-interpolation:sRGB;color-interpolation-filters:linearRGB;solid-color:#000000;solid-opacity:1;vector-effect:none;fill:#dcf2ff;fill-opacity:1;fill-rule:nonzero;stroke:none;stroke-width:0.529257;stroke-linecap:round;stroke-linejoin:round;stroke-miterlimit:4;stroke-dasharray:none;stroke-dashoffset:0;stroke-opacity:1;color-rendering:auto;image-rendering:auto;shape-rendering:auto;text-rendering:auto;enable-background:accumulate" />
  </g>
</svg>
