<?xml version="1.0" encoding="UTF-8" standalone="no"?>
<!-- Created with Inkscape (http://www.inkscape.org/) -->

<svg
   xmlns:dc="http://purl.org/dc/elements/1.1/"
   xmlns:cc="http://creativecommons.org/ns#"
   xmlns:rdf="http://www.w3.org/1999/02/22-rdf-syntax-ns#"
   xmlns:svg="http://www.w3.org/2000/svg"
   xmlns="http://www.w3.org/2000/svg"
   xmlns:sodipodi="http://sodipodi.sourceforge.net/DTD/sodipodi-0.dtd"
   xmlns:inkscape="http://www.inkscape.org/namespaces/inkscape"
   width="128"
   height="128"
   viewBox="0 0 33.866666 33.866666"
   version="1.1"
   id="svg8"
   inkscape:version="0.92.3 (2405546, 2018-03-11)"
   sodipodi:docname="kuyen.svg">
  <defs
     id="defs2" />
  <sodipodi:namedview
     id="base"
     pagecolor="#ffffff"
     bordercolor="#666666"
     borderopacity="1.0"
     inkscape:pageopacity="0.0"
     inkscape:pageshadow="2"
     inkscape:zoom="5.6"
     inkscape:cx="22.848986"
     inkscape:cy="47.159212"
     inkscape:document-units="px"
     inkscape:current-layer="layer1"
     showgrid="true"
     units="px"
     inkscape:showpageshadow="false"
     inkscape:snap-bbox="true"
     inkscape:bbox-paths="true"
     inkscape:bbox-nodes="true"
     inkscape:snap-bbox-edge-midpoints="true"
     inkscape:snap-bbox-midpoints="true"
     inkscape:object-paths="true"
     inkscape:snap-intersection-paths="true"
     inkscape:window-width="1874"
     inkscape:window-height="1141"
     inkscape:window-x="46"
     inkscape:window-y="30"
     inkscape:window-maximized="1">
    <inkscape:grid
       type="xygrid"
       id="grid815" />
  </sodipodi:namedview>
  <metadata
     id="metadata5">
    <rdf:RDF>
      <cc:Work
         rdf:about="">
        <dc:format>image/svg+xml</dc:format>
        <dc:type
           rdf:resource="http://purl.org/dc/dcmitype/StillImage" />
        <dc:title></dc:title>
      </cc:Work>
    </rdf:RDF>
  </metadata>
  <g
     inkscape:label="Capa 1"
     inkscape:groupmode="layer"
     id="layer1"
     transform="translate(0,-263.13333)">
    <g
       id="g1590"
       transform="translate(15.875,-2.645837)">
      <path
         inkscape:connector-curvature="0"
         id="rect4500-6"
         d="m 1.0583333,266.04375 c 9.2344867,0 16.6687487,7.43426 16.6687487,16.66875 0,9.23448 -7.434262,16.66875 -16.6687487,16.66875 -9.2344874,0 -16.6687503,-7.43427 -16.6687503,-16.66875 0,-9.23449 7.4342629,-16.66875 16.6687503,-16.66875 z"
         style="overflow:visible;opacity:1;fill:#2d4266;fill-opacity:1;stroke:none;stroke-width:0.04950811;stroke-miterlimit:4;stroke-dasharray:none;stroke-opacity:1" />
      <path
         inkscape:connector-curvature="0"
         id="rect4500-3-1"
         d="m 1.0583333,266.30833 c 9.0879077,0 16.4041657,7.31626 16.4041657,16.40417 0,9.08791 -7.316258,16.40417 -16.4041657,16.40417 -9.087908,0 -16.4041673,-7.31626 -16.4041673,-16.40417 0,-9.08791 7.3162593,-16.40417 16.4041673,-16.40417 z"
         style="overflow:visible;opacity:1;fill:#0d6198;fill-opacity:1;stroke:none;stroke-width:0.04872227;stroke-miterlimit:4;stroke-dasharray:none;stroke-opacity:1" />
      <path
         id="path1213"
         d="m -2.1487067,272.63974 a 10.583333,10.583333 0 0 0 -7.3762935,10.07277 10.583333,10.583333 0 0 0 10.5833335,10.58333 10.583333,10.583333 0 0 0 10.0862047,-7.38973 10.583333,10.583333 0 0 1 -0.376204,0.12506 10.583333,10.583333 0 0 1 -1.0319777,0.23151 10.583333,10.583333 0 0 1 -1.050065,0.12764 10.583333,10.583333 0 0 1 -0.748792,0.0264 10.583333,10.583333 0 0 1 -1.056783,-0.0527 10.583333,10.583333 0 0 1 -1.045931,-0.15813 10.583333,10.583333 0 0 1 -1.024743,-0.262 10.583333,10.583333 0 0 1 -0.993738,-0.36276 10.583333,10.583333 0 0 1 -0.952913,-0.45992 10.583333,10.583333 0 0 1 -0.901754,-0.55294 10.583333,10.583333 0 0 1 -0.842326,-0.64027 10.583333,10.583333 0 0 1 -0.77359599,-0.72089 10.583333,10.583333 0 0 1 -0.698666,-0.79478 10.583333,10.583333 0 0 1 -0.614949,-0.86093 10.583333,10.583333 0 0 1 -0.52658301,-0.91726 10.583333,10.583333 0 0 1 -0.432015,-0.96583 10.583333,10.583333 0 0 1 -0.33383,-1.00408 10.583333,10.583333 0 0 1 -0.23151,-1.03197 10.583333,10.583333 0 0 1 -0.127641,-1.05007 10.583333,10.583333 0 0 1 -0.02636,-0.74879 10.583333,10.583333 0 0 1 0.05271,-1.05678 10.583333,10.583333 0 0 1 0.15813,-1.04593 10.583333,10.583333 0 0 1 0.261999,-1.02475 10.583333,10.583333 0 0 1 0.02429,-0.0661 z"
         style="opacity:1;fill:#d5e3ed;fill-opacity:1;stroke:none;stroke-width:0.85093194;stroke-linecap:round;stroke-linejoin:round;stroke-miterlimit:4;stroke-dasharray:none;stroke-opacity:1;paint-order:fill markers stroke"
         inkscape:connector-curvature="0" />
    </g>
  </g>
</svg>
