<?xml version="1.0" encoding="UTF-8" standalone="no"?>
<!-- Created with Inkscape (http://www.inkscape.org/) -->

<svg
   width="128"
   height="128"
   viewBox="0 0 33.866666 33.866666"
   version="1.1"
   id="svg8"
   inkscape:version="1.2 (dc2aedaf03, 2022-05-15)"
   sodipodi:docname="library-music.svg"
   xmlns:inkscape="http://www.inkscape.org/namespaces/inkscape"
   xmlns:sodipodi="http://sodipodi.sourceforge.net/DTD/sodipodi-0.dtd"
   xmlns:xlink="http://www.w3.org/1999/xlink"
   xmlns="http://www.w3.org/2000/svg"
   xmlns:svg="http://www.w3.org/2000/svg"
   xmlns:rdf="http://www.w3.org/1999/02/22-rdf-syntax-ns#"
   xmlns:cc="http://creativecommons.org/ns#"
   xmlns:dc="http://purl.org/dc/elements/1.1/">
  <defs
     id="defs2">
    <linearGradient
       inkscape:collect="always"
       xlink:href="#linearGradient5283"
       id="linearGradient5285"
       x1="3.968751"
       y1="6.6145825"
       x2="3.968751"
       y2="-1.0583341"
       gradientUnits="userSpaceOnUse" />
    <linearGradient
       inkscape:collect="always"
       id="linearGradient5283">
      <stop
         style="stop-color:#3694ee;stop-opacity:1;"
         offset="0"
         id="stop5279" />
      <stop
         style="stop-color:#2383e6;stop-opacity:1;"
         offset="1"
         id="stop5281" />
    </linearGradient>
  </defs>
  <sodipodi:namedview
     id="base"
     pagecolor="#ffffff"
     bordercolor="#666666"
     borderopacity="1.0"
     inkscape:pageopacity="0.0"
     inkscape:pageshadow="2"
     inkscape:zoom="5.6"
     inkscape:cx="19.821429"
     inkscape:cy="47.232143"
     inkscape:document-units="px"
     inkscape:current-layer="layer1"
     showgrid="true"
     units="px"
     inkscape:showpageshadow="false"
     inkscape:snap-bbox="true"
     inkscape:bbox-paths="true"
     inkscape:bbox-nodes="true"
     inkscape:snap-bbox-edge-midpoints="true"
     inkscape:snap-bbox-midpoints="true"
     inkscape:object-paths="true"
     inkscape:snap-intersection-paths="true"
     inkscape:window-width="2160"
     inkscape:window-height="1337"
     inkscape:window-x="0"
     inkscape:window-y="0"
     inkscape:window-maximized="1"
     inkscape:pagecheckerboard="0"
     inkscape:deskcolor="#d1d1d1">
    <inkscape:grid
       type="xygrid"
       id="grid815" />
  </sodipodi:namedview>
  <metadata
     id="metadata5">
    <rdf:RDF>
      <cc:Work
         rdf:about="">
        <dc:format>image/svg+xml</dc:format>
        <dc:type
           rdf:resource="http://purl.org/dc/dcmitype/StillImage" />
        <dc:title />
      </cc:Work>
    </rdf:RDF>
  </metadata>
  <g
     inkscape:label="Capa 1"
     inkscape:groupmode="layer"
     id="layer1"
     transform="translate(0,-263.13333)">
    <g
       id="g6082"
       transform="translate(2.6458324,265.77916)">
      <g
         id="g6070">
        <path
           d="m 0.79375195,-1.3229175 c -1.75437153,0 -3.17499965,1.42063295 -3.17499965,3.1750008 V 26.722917 c 0,1.754373 1.42062812,3.175001 3.17499965,3.175001 H 27.781249 c 1.75437,0 3.175,-1.420628 3.175,-3.175001 V 6.0854176 c 0,-1.7543678 -1.42063,-3.1750007 -3.175,-3.1750007 h -12.96458 c -0.516918,0 -0.945646,-0.2236471 -1.377177,-0.5968631 C 13.00796,1.9403377 12.591495,1.4206536 12.141896,0.88779851 11.242698,-0.17791695 10.171761,-1.3229175 8.4666688,-1.3229175 Z"
           style="color:#000000;font-style:normal;font-variant:normal;font-weight:normal;font-stretch:normal;font-size:medium;line-height:normal;font-family:sans-serif;font-variant-ligatures:normal;font-variant-position:normal;font-variant-caps:normal;font-variant-numeric:normal;font-variant-alternates:normal;font-variant-east-asian:normal;font-feature-settings:normal;font-variation-settings:normal;text-indent:0;text-align:start;text-decoration:none;text-decoration-line:none;text-decoration-style:solid;text-decoration-color:#000000;letter-spacing:normal;word-spacing:normal;text-transform:none;writing-mode:lr-tb;direction:ltr;text-orientation:mixed;dominant-baseline:auto;baseline-shift:baseline;text-anchor:start;white-space:normal;shape-padding:0;shape-margin:0;inline-size:0;clip-rule:nonzero;display:inline;overflow:visible;visibility:visible;isolation:auto;mix-blend-mode:normal;color-interpolation:sRGB;color-interpolation-filters:linearRGB;solid-color:#000000;solid-opacity:1;fill:#286bb2;fill-opacity:1;fill-rule:nonzero;stroke:none;stroke-width:0.529167;stroke-linecap:butt;stroke-linejoin:miter;stroke-miterlimit:4;stroke-dasharray:none;stroke-dashoffset:0;stroke-opacity:1;color-rendering:auto;image-rendering:auto;shape-rendering:auto;text-rendering:auto;enable-background:accumulate;stop-color:#000000"
           id="path1242"
           sodipodi:nodetypes="sssssssssssss" />
        <path
           id="rect1149-4-0"
           style="fill:url(#linearGradient5285);fill-opacity:1;stroke-width:0.264583"
           d="m 0.79375195,-1.0583341 7.67291895,5.3e-6 c 3.1750001,0 3.9687501,4.2333343 6.3500001,4.2333343 l 12.964581,-5.2e-6 c 1.61237,0 2.910414,1.2980461 2.910414,2.9104067 v 20.63751 c 0,1.612371 -1.298046,2.910417 -2.910414,2.910417 H 0.79375195 c -1.61236909,0 -2.91041415,-1.298046 -2.91041415,-2.910417 V 1.8520727 c 0,-1.61236592 1.29804506,-2.9104068 2.91041415,-2.9104068 z"
           sodipodi:nodetypes="sccssssssss" />
        <path
           d="m 27.78125,2.9104116 c 1.754371,0 3.174999,1.4206329 3.174999,3.1750007 V 26.987506 c 0,1.754373 -1.420628,3.175001 -3.174999,3.175001 H 0.79375248 c -1.75436994,0 -3.17500018,-1.420628 -3.17500018,-3.175001 V 10.318752 c 0,-1.7543679 1.42063024,-3.1750008 3.17500018,-3.1750008 H 8.9958324 c 0.5169182,0 0.9456465,-0.2236471 1.3771776,-0.5968631 0.431531,-0.3732161 0.847996,-0.8929002 1.297595,-1.4257553 0.899198,-1.0657154 1.970136,-2.2107159 3.675228,-2.2107159 z"
           style="color:#000000;font-style:normal;font-variant:normal;font-weight:normal;font-stretch:normal;font-size:medium;line-height:normal;font-family:sans-serif;font-variant-ligatures:normal;font-variant-position:normal;font-variant-caps:normal;font-variant-numeric:normal;font-variant-alternates:normal;font-variant-east-asian:normal;font-feature-settings:normal;font-variation-settings:normal;text-indent:0;text-align:start;text-decoration:none;text-decoration-line:none;text-decoration-style:solid;text-decoration-color:#000000;letter-spacing:normal;word-spacing:normal;text-transform:none;writing-mode:lr-tb;direction:ltr;text-orientation:mixed;dominant-baseline:auto;baseline-shift:baseline;text-anchor:start;white-space:normal;shape-padding:0;shape-margin:0;inline-size:0;clip-rule:nonzero;display:inline;overflow:visible;visibility:visible;isolation:auto;mix-blend-mode:normal;color-interpolation:sRGB;color-interpolation-filters:linearRGB;solid-color:#000000;solid-opacity:1;fill:#3182d9;fill-opacity:1;fill-rule:nonzero;stroke:none;stroke-width:0.529167;stroke-linecap:butt;stroke-linejoin:miter;stroke-miterlimit:4;stroke-dasharray:none;stroke-dashoffset:0;stroke-opacity:1;color-rendering:auto;image-rendering:auto;shape-rendering:auto;text-rendering:auto;enable-background:accumulate;stop-color:#000000"
           id="path1242-2"
           sodipodi:nodetypes="sssssssssssss" />
        <path
           id="rect1149-4-0-6"
           style="fill:#50c1f9;fill-opacity:1;stroke-width:0.264583"
           d="m 27.78125,3.174995 -12.435419,5.3e-6 c -3.175,0 -3.96875,4.2333343 -6.3500007,4.2333343 l -8.20208047,-5.3e-6 c -1.61237015,0 -2.91041413,1.2980461 -2.91041413,2.9104067 v 16.66877 c 0,1.612371 1.2980461,2.910417 2.91041413,2.910417 H 27.78125 c 1.612369,0 2.910414,-1.298046 2.910414,-2.910417 V 6.0854017 c 0,-1.6123606 -1.298045,-2.9104067 -2.910414,-2.9104067 z"
           sodipodi:nodetypes="sccssssssss" />
      </g>
    </g>
    <path
       sodipodi:nodetypes="cccssssccccccccccccssssccccccsssscccccc"
       inkscape:connector-curvature="0"
       id="path4658-1"
       d="m 15.08125,276.62707 -1.5875,0.52917 v 2.27583 c -0.198438,-0.1011 -0.422658,-0.15916 -0.661458,-0.15916 -0.806185,0 -1.455208,0.649 -1.455208,1.4552 0,0.80617 0.649023,1.45521 1.455208,1.45521 0.806186,0 1.455207,-0.64903 1.455207,-1.45521 0,-0.0188 -0.0019,-0.0372 -0.0026,-0.0558 l 0.0026,0.003 v -1.93167 -0.52916 l 0.793751,-0.26459 z m 5.027083,0.52917 -3.704166,1.32292 v 1.05833 1.5875 2.91042 l 0.0098,0.0181 c -0.536341,-0.34507 -1.174083,-0.54725 -1.8619,-0.54725 -1.905528,0 -3.439584,1.53405 -3.439584,3.43958 0,1.90553 1.534056,3.43959 3.439584,3.43959 1.905528,0 3.439583,-1.53406 3.439583,-3.43959 v -6.08541 l 2.116667,-0.79375 z m 2.648418,3.89227 -1.587501,0.52917 v 2.27582 c -0.198438,-0.1011 -0.422659,-0.15916 -0.661459,-0.15916 -0.806185,0 -1.455208,0.64901 -1.455208,1.45521 0,0.80617 0.649023,1.45521 1.455208,1.45521 0.806186,0 1.455209,-0.64903 1.455209,-1.45521 0,-0.0188 -0.0019,-0.0372 -0.0026,-0.0558 l 0.0026,0.003 v -1.93166 -0.52917 l 0.793751,-0.26458 z"
       style="fill:#dcf2ff;fill-opacity:1;stroke:none;stroke-width:0.264583px;stroke-linecap:butt;stroke-linejoin:miter;stroke-opacity:1" />
  </g>
</svg>
