<?xml version="1.0" encoding="UTF-8" standalone="no"?>
<!-- Created with Inkscape (http://www.inkscape.org/) -->

<svg
   width="128"
   height="128"
   viewBox="0 0 33.866666 33.866666"
   version="1.1"
   id="svg8"
   inkscape:version="1.2 (dc2aedaf03, 2022-05-15)"
   sodipodi:docname="network-workgroup.svg"
   xmlns:inkscape="http://www.inkscape.org/namespaces/inkscape"
   xmlns:sodipodi="http://sodipodi.sourceforge.net/DTD/sodipodi-0.dtd"
   xmlns:xlink="http://www.w3.org/1999/xlink"
   xmlns="http://www.w3.org/2000/svg"
   xmlns:svg="http://www.w3.org/2000/svg"
   xmlns:rdf="http://www.w3.org/1999/02/22-rdf-syntax-ns#"
   xmlns:cc="http://creativecommons.org/ns#"
   xmlns:dc="http://purl.org/dc/elements/1.1/">
  <defs
     id="defs2">
    <linearGradient
       inkscape:collect="always"
       xlink:href="#linearGradient5283"
       id="linearGradient5285"
       x1="3.968751"
       y1="6.6145825"
       x2="3.968751"
       y2="-1.0583341"
       gradientUnits="userSpaceOnUse"
       gradientTransform="translate(-5.2916675,263.13333)" />
    <linearGradient
       inkscape:collect="always"
       id="linearGradient5283">
      <stop
         style="stop-color:#3694ee;stop-opacity:1;"
         offset="0"
         id="stop5279" />
      <stop
         style="stop-color:#2383e6;stop-opacity:1;"
         offset="1"
         id="stop5281" />
    </linearGradient>
  </defs>
  <sodipodi:namedview
     id="base"
     pagecolor="#ffffff"
     bordercolor="#666666"
     borderopacity="1.0"
     inkscape:pageopacity="0.0"
     inkscape:pageshadow="2"
     inkscape:zoom="5.6"
     inkscape:cx="19.821429"
     inkscape:cy="47.410714"
     inkscape:document-units="px"
     inkscape:current-layer="layer1"
     showgrid="true"
     units="px"
     inkscape:showpageshadow="false"
     inkscape:snap-bbox="true"
     inkscape:bbox-paths="true"
     inkscape:bbox-nodes="true"
     inkscape:snap-bbox-edge-midpoints="true"
     inkscape:snap-bbox-midpoints="true"
     inkscape:object-paths="true"
     inkscape:snap-intersection-paths="true"
     inkscape:window-width="2160"
     inkscape:window-height="1337"
     inkscape:window-x="0"
     inkscape:window-y="0"
     inkscape:window-maximized="1"
     inkscape:pagecheckerboard="0"
     inkscape:deskcolor="#d1d1d1">
    <inkscape:grid
       type="xygrid"
       id="grid815" />
  </sodipodi:namedview>
  <metadata
     id="metadata5">
    <rdf:RDF>
      <cc:Work
         rdf:about="">
        <dc:format>image/svg+xml</dc:format>
        <dc:type
           rdf:resource="http://purl.org/dc/dcmitype/StillImage" />
        <dc:title />
      </cc:Work>
    </rdf:RDF>
  </metadata>
  <g
     inkscape:label="Capa 1"
     inkscape:groupmode="layer"
     id="layer1"
     transform="translate(0,-263.13333)">
    <g
       id="g5642"
       transform="translate(7.9375001,2.6458366)">
      <path
         d="m -4.4979155,261.81041 c -1.7543716,0 -3.1749997,1.42064 -3.1749997,3.175 v 24.87084 c 0,1.75437 1.4206281,3.175 3.1749997,3.175 H 22.489581 c 1.754371,0 3.175,-1.42063 3.175,-3.175 v -20.6375 c 0,-1.75437 -1.420629,-3.175 -3.175,-3.175 H 9.5250015 c -0.516918,0 -0.945646,-0.22365 -1.377177,-0.59687 -0.431532,-0.37321 -0.847997,-0.8929 -1.297596,-1.42575 -0.899198,-1.06572 -1.970135,-2.21072 -3.6752272,-2.21072 z"
         style="color:#000000;font-style:normal;font-variant:normal;font-weight:normal;font-stretch:normal;font-size:medium;line-height:normal;font-family:sans-serif;font-variant-ligatures:normal;font-variant-position:normal;font-variant-caps:normal;font-variant-numeric:normal;font-variant-alternates:normal;font-variant-east-asian:normal;font-feature-settings:normal;font-variation-settings:normal;text-indent:0;text-align:start;text-decoration:none;text-decoration-line:none;text-decoration-style:solid;text-decoration-color:#000000;letter-spacing:normal;word-spacing:normal;text-transform:none;writing-mode:lr-tb;direction:ltr;text-orientation:mixed;dominant-baseline:auto;baseline-shift:baseline;text-anchor:start;white-space:normal;shape-padding:0;shape-margin:0;inline-size:0;clip-rule:nonzero;display:inline;overflow:visible;visibility:visible;isolation:auto;mix-blend-mode:normal;color-interpolation:sRGB;color-interpolation-filters:linearRGB;solid-color:#000000;solid-opacity:1;fill:#286bb2;fill-opacity:1;fill-rule:nonzero;stroke:none;stroke-width:0.529167;stroke-linecap:butt;stroke-linejoin:miter;stroke-miterlimit:4;stroke-dasharray:none;stroke-dashoffset:0;stroke-opacity:1;color-rendering:auto;image-rendering:auto;shape-rendering:auto;text-rendering:auto;enable-background:accumulate;stop-color:#000000"
         id="path1242"
         sodipodi:nodetypes="sssssssssssss" />
      <path
         id="rect1149-4-0"
         style="fill:url(#linearGradient5285);fill-opacity:1;stroke-width:0.264583"
         d="m -4.4979155,262.075 h 7.6729189 c 3.1750001,0 3.9687501,4.23334 6.3500001,4.23334 l 12.9645815,-10e-6 c 1.61237,0 2.910414,1.29805 2.910414,2.91041 v 20.63751 c 0,1.61237 -1.298046,2.91041 -2.910414,2.91041 H -4.4979155 c -1.6123691,0 -2.9104142,-1.29804 -2.9104142,-2.91041 V 264.9854 c 0,-1.61236 1.2980451,-2.9104 2.9104142,-2.9104 z"
         sodipodi:nodetypes="sccssssssss" />
      <path
         d="m 22.489582,266.04374 c 1.754371,0 3.174999,1.42063 3.174999,3.175 v 20.9021 c 0,1.75437 -1.420628,3.175 -3.174999,3.175 H -4.497915 c -1.75437,0 -3.1750002,-1.42063 -3.1750002,-3.175 v -16.66876 c 0,-1.75437 1.4206302,-3.175 3.1750002,-3.175 h 8.2020799 c 0.5169182,0 0.9456465,-0.22365 1.3771776,-0.59686 0.431531,-0.37322 0.847996,-0.8929 1.297595,-1.42576 0.899198,-1.06571 1.970136,-2.21071 3.6752285,-2.21071 z"
         style="color:#000000;font-style:normal;font-variant:normal;font-weight:normal;font-stretch:normal;font-size:medium;line-height:normal;font-family:sans-serif;font-variant-ligatures:normal;font-variant-position:normal;font-variant-caps:normal;font-variant-numeric:normal;font-variant-alternates:normal;font-variant-east-asian:normal;font-feature-settings:normal;font-variation-settings:normal;text-indent:0;text-align:start;text-decoration:none;text-decoration-line:none;text-decoration-style:solid;text-decoration-color:#000000;letter-spacing:normal;word-spacing:normal;text-transform:none;writing-mode:lr-tb;direction:ltr;text-orientation:mixed;dominant-baseline:auto;baseline-shift:baseline;text-anchor:start;white-space:normal;shape-padding:0;shape-margin:0;inline-size:0;clip-rule:nonzero;display:inline;overflow:visible;visibility:visible;isolation:auto;mix-blend-mode:normal;color-interpolation:sRGB;color-interpolation-filters:linearRGB;solid-color:#000000;solid-opacity:1;fill:#3182d9;fill-opacity:1;fill-rule:nonzero;stroke:none;stroke-width:0.529167;stroke-linecap:butt;stroke-linejoin:miter;stroke-miterlimit:4;stroke-dasharray:none;stroke-dashoffset:0;stroke-opacity:1;color-rendering:auto;image-rendering:auto;shape-rendering:auto;text-rendering:auto;enable-background:accumulate;stop-color:#000000"
         id="path1242-2"
         sodipodi:nodetypes="sssssssssssss" />
      <path
         id="rect1149-4-0-6"
         style="fill:#50c1f9;fill-opacity:1;stroke-width:0.264583"
         d="M 22.489582,266.30833 H 10.054164 c -3.1750005,0 -3.9687505,4.23333 -6.3500012,4.23333 h -8.2020805 c -1.6123701,0 -2.9104141,1.29805 -2.9104141,2.91041 v 16.66877 c 0,1.61237 1.2980461,2.91041 2.9104141,2.91041 H 22.489582 c 1.61237,0 2.910414,-1.29804 2.910414,-2.91041 v -20.90211 c 0,-1.61236 -1.298044,-2.9104 -2.910414,-2.9104 z"
         sodipodi:nodetypes="sccssssssss" />
    </g>
    <path
       sodipodi:nodetypes="sssscsssscsssssccccccccccccccccccccccccccccccccc"
       inkscape:connector-curvature="0"
       style="overflow:visible;fill:#dcf2ff;fill-opacity:1;stroke:none;stroke-width:0.529167;stroke-linecap:round;stroke-linejoin:round;stroke-miterlimit:4;stroke-dasharray:none;stroke-opacity:1"
       d="m 11.1125,278.47917 c -0.293158,0 -0.529166,0.23602 -0.529166,0.52917 v 9.78958 c 0,0.29316 0.236043,0.52463 0.529166,0.52917 l 2.116668,-10e-6 v 0.52917 c 0,0.29316 0.236008,0.52916 0.529167,0.52916 h 6.349999 c 0.293159,0 0.519401,-0.23616 0.529167,-0.52916 v -0.52917 l 2.116666,10e-6 c 0.293158,0 0.529167,-0.23601 0.529167,-0.52917 v -9.78958 c 0,-0.29316 -0.236009,-0.52917 -0.529167,-0.52917 z m 1.058334,1.5875 h 9.525 v 7.9375 l -2.645833,-10e-6 v 0.79375 h -4.233333 v -0.79375 l -2.645834,10e-6 z m 0.529167,0.52916 -1e-6,6.87917 2.645833,2e-5 10e-7,0.79374 h 3.175 l -1e-6,-0.79374 2.645834,-2e-5 1e-6,-6.87917 z m 1.322917,1.5875 h 1.5875 V 284.3 h -1.5875 z m 2.116666,0 h 1.5875 V 284.3 h -1.5875 z m 2.116667,0 h 1.5875 V 284.3 h -1.5875 z"
       id="rect7967-3" />
  </g>
</svg>
