<?xml version="1.0" encoding="UTF-8" standalone="no"?>
<!-- Created with Inkscape (http://www.inkscape.org/) -->

<svg
   xmlns:dc="http://purl.org/dc/elements/1.1/"
   xmlns:cc="http://creativecommons.org/ns#"
   xmlns:rdf="http://www.w3.org/1999/02/22-rdf-syntax-ns#"
   xmlns:svg="http://www.w3.org/2000/svg"
   xmlns="http://www.w3.org/2000/svg"
   xmlns:sodipodi="http://sodipodi.sourceforge.net/DTD/sodipodi-0.dtd"
   xmlns:inkscape="http://www.inkscape.org/namespaces/inkscape"
   width="128"
   height="128"
   viewBox="0 0 33.866666 33.866666"
   version="1.1"
   id="svg8"
   inkscape:version="0.92.4 5da689c313, 2019-01-14"
   sodipodi:docname="opensuse.svg">
  <defs
     id="defs2" />
  <sodipodi:namedview
     id="base"
     pagecolor="#ffffff"
     bordercolor="#666666"
     borderopacity="1.0"
     inkscape:pageopacity="0.0"
     inkscape:pageshadow="2"
     inkscape:zoom="2.8"
     inkscape:cx="92.035116"
     inkscape:cy="38.869293"
     inkscape:document-units="px"
     inkscape:current-layer="g2739"
     showgrid="true"
     units="px"
     inkscape:showpageshadow="false"
     inkscape:snap-bbox="true"
     inkscape:bbox-paths="true"
     inkscape:bbox-nodes="true"
     inkscape:snap-bbox-edge-midpoints="true"
     inkscape:snap-bbox-midpoints="true"
     inkscape:object-paths="true"
     inkscape:snap-intersection-paths="true"
     inkscape:window-width="1870"
     inkscape:window-height="1141"
     inkscape:window-x="50"
     inkscape:window-y="30"
     inkscape:window-maximized="1">
    <inkscape:grid
       type="xygrid"
       id="grid815" />
  </sodipodi:namedview>
  <metadata
     id="metadata5">
    <rdf:RDF>
      <cc:Work
         rdf:about="">
        <dc:format>image/svg+xml</dc:format>
        <dc:type
           rdf:resource="http://purl.org/dc/dcmitype/StillImage" />
        <dc:title></dc:title>
      </cc:Work>
    </rdf:RDF>
  </metadata>
  <g
     inkscape:label="Capa 1"
     inkscape:groupmode="layer"
     id="layer1"
     transform="translate(0,-263.13333)">
    <g
       id="g2739"
       transform="translate(11.377083,1.322913)">
      <g
         id="g830"
         transform="translate(-23.547916,-24.34167)">
        <path
           style="opacity:1;fill:#28596c;fill-opacity:1;stroke:none;stroke-width:0.04950811;stroke-miterlimit:4;stroke-dasharray:none;stroke-opacity:1"
           d="m 29.104167,286.41667 c 9.234487,0 16.668749,7.43426 16.668749,16.66875 0,9.23448 -7.434262,16.66875 -16.668749,16.66875 -9.234488,0 -16.66875,-7.43427 -16.66875,-16.66875 0,-9.23449 7.434262,-16.66875 16.66875,-16.66875 z"
           id="rect4500"
           inkscape:connector-curvature="0" />
        <path
           style="opacity:1;fill:#23a79b;fill-opacity:1;stroke:none;stroke-width:0.04872227;stroke-miterlimit:4;stroke-dasharray:none;stroke-opacity:1"
           d="m 29.104167,286.68125 c 9.087908,0 16.404166,7.31626 16.404166,16.40417 0,9.0879 -7.316258,16.40417 -16.404166,16.40417 -9.087909,0 -16.404167,-7.31627 -16.404167,-16.40417 0,-9.08791 7.316258,-16.40417 16.404167,-16.40417 z"
           id="rect4500-3"
           inkscape:connector-curvature="0" />
        <path
           inkscape:connector-curvature="0"
           style="fill:#e1fff9;fill-opacity:1;stroke:none;stroke-width:0.26458332px;stroke-linecap:butt;stroke-linejoin:miter;stroke-opacity:1"
           d="m 23.55597,292.00205 v 3.43959 l -3.96875,-1.85209 c -2.537058,6.49232 -3.095728,13.01122 0,19.57917 6.254234,-5.48006 17.044256,6.26666 21.166667,-7.67292 -7.988906,3.11743 -13.731298,1.9714 -16.66875,-4.49791 7.999989,7.42636 13.645923,4.38766 16.66875,2.64583 -0.618106,-6.44153 -3.437783,-11.78068 -17.197917,-11.64167 z m 8.202083,2.11667 c 2.785003,0 5.027085,2.24208 5.027085,5.02708 0,2.78501 -2.242082,5.02709 -5.027085,5.02709 -2.785001,0 -5.027083,-2.24208 -5.027083,-5.02709 0,-2.785 2.242082,-5.02708 5.027083,-5.02708 z m 0,1.05833 c -2.198684,0 -3.96875,1.77007 -3.96875,3.96875 0,2.19869 1.770066,3.96875 3.96875,3.96875 2.198686,0 3.968751,-1.77006 3.968751,-3.96875 0,-2.19868 -1.770065,-3.96875 -3.968751,-3.96875 z m 1.190625,2.11667 a 1.7197916,1.3229124 0 0 1 0.171567,0.007 1.7197916,1.3229124 0 0 1 0.170016,0.0196 1.7197916,1.3229124 0 0 1 0.166396,0.0325 1.7197916,1.3229124 0 0 1 0.161748,0.0455 1.7197916,1.3229124 0 0 1 0.15503,0.0574 1.7197916,1.3229124 0 0 1 0.146243,0.0693 1.7197916,1.3229124 0 0 1 0.136944,0.0801 1.7197916,1.3229124 0 0 1 0.125574,0.0899 1.7197916,1.3229124 0 0 1 0.113689,0.0997 1.7197916,1.3229124 0 0 1 0.09973,0.10748 1.7197916,1.3229124 0 0 1 0.08578,0.11472 1.7197916,1.3229124 0 0 1 0.07028,0.12041 1.7197916,1.3229124 0 0 1 0.05426,0.12557 1.7197916,1.3229124 0 0 1 0.03772,0.1292 1.7197916,1.3229124 0 0 1 0.02066,0.13125 1.7197916,1.3229124 0 0 1 0.0041,0.0935 1.7197916,1.3229124 0 0 1 -0.0088,0.13229 1.7197916,1.3229124 0 0 1 -0.02532,0.13074 1.7197916,1.3229124 0 0 1 -0.04289,0.12816 1.7197916,1.3229124 0 0 1 -0.05891,0.12402 1.7197916,1.3229124 0 0 1 -0.07441,0.11886 1.7197916,1.3229124 0 0 1 -0.08992,0.11317 1.7197916,1.3229124 0 0 1 -0.104388,0.1049 1.7197916,1.3229124 0 0 1 -0.116787,0.0966 1.7197916,1.3229124 0 0 1 -0.12919,0.0873 1.7197916,1.3229124 0 0 1 -0.140044,0.077 1.7197916,1.3229124 0 0 1 -0.148828,0.0661 1.7197916,1.3229124 0 0 1 -0.157097,0.0538 1.7197916,1.3229124 0 0 1 -0.163298,0.0419 1.7197916,1.3229124 0 0 1 -0.167431,0.0289 1.7197916,1.3229124 0 0 1 -0.17105,0.016 1.7197916,1.3229124 0 0 1 -0.121442,0.003 1.7197916,1.3229124 0 0 1 -0.171566,-0.007 1.7197916,1.3229124 0 0 1 -0.170016,-0.0196 1.7197916,1.3229124 0 0 1 -0.166396,-0.0326 1.7197916,1.3229124 0 0 1 -0.161748,-0.0455 1.7197916,1.3229124 0 0 1 -0.15503,-0.0574 1.7197916,1.3229124 0 0 1 -0.146243,-0.0693 1.7197916,1.3229124 0 0 1 -0.136943,-0.0801 1.7197916,1.3229124 0 0 1 -0.125574,-0.0899 1.7197916,1.3229124 0 0 1 -0.113689,-0.0997 1.7197916,1.3229124 0 0 1 -0.09974,-0.10749 1.7197916,1.3229124 0 0 1 -0.08578,-0.11472 1.7197916,1.3229124 0 0 1 -0.07028,-0.1204 1.7197916,1.3229124 0 0 1 -0.05426,-0.12558 1.7197916,1.3229124 0 0 1 -0.03773,-0.12919 1.7197916,1.3229124 0 0 1 -0.02067,-0.13126 1.7197916,1.3229124 0 0 1 -0.0041,-0.0935 1.7197916,1.3229124 0 0 1 0.0088,-0.13229 1.7197916,1.3229124 0 0 1 0.02532,-0.13074 1.7197916,1.3229124 0 0 1 0.04289,-0.12764 1.7197916,1.3229124 0 0 1 0.05891,-0.12455 1.7197916,1.3229124 0 0 1 0.07441,-0.11885 1.7197916,1.3229124 0 0 1 0.08992,-0.11266 1.7197916,1.3229124 0 0 1 0.104386,-0.10542 1.7197916,1.3229124 0 0 1 0.116788,-0.0966 1.7197916,1.3229124 0 0 1 0.12919,-0.0873 1.7197916,1.3229124 0 0 1 0.140044,-0.077 1.7197916,1.3229124 0 0 1 0.148828,-0.0656 1.7197916,1.3229124 0 0 1 0.157097,-0.0543 1.7197916,1.3229124 0 0 1 0.163298,-0.0419 1.7197916,1.3229124 0 0 1 0.167431,-0.0289 1.7197916,1.3229124 0 0 1 0.17105,-0.016 1.7197916,1.3229124 0 0 1 0.121441,-0.003 z"
           id="path1284-0" />
      </g>
    </g>
  </g>
</svg>
