<?xml version="1.0" encoding="UTF-8" standalone="no"?>
<!-- Created with Inkscape (http://www.inkscape.org/) -->

<svg
   xmlns:dc="http://purl.org/dc/elements/1.1/"
   xmlns:cc="http://creativecommons.org/ns#"
   xmlns:rdf="http://www.w3.org/1999/02/22-rdf-syntax-ns#"
   xmlns:svg="http://www.w3.org/2000/svg"
   xmlns="http://www.w3.org/2000/svg"
   xmlns:sodipodi="http://sodipodi.sourceforge.net/DTD/sodipodi-0.dtd"
   xmlns:inkscape="http://www.inkscape.org/namespaces/inkscape"
   width="128"
   height="128"
   viewBox="0 0 33.866666 33.866666"
   version="1.1"
   id="svg8"
   inkscape:version="0.92.3 (2405546, 2018-03-11)"
   sodipodi:docname="start-here.svg">
  <defs
     id="defs2" />
  <sodipodi:namedview
     id="base"
     pagecolor="#ffffff"
     bordercolor="#666666"
     borderopacity="1.0"
     inkscape:pageopacity="0.0"
     inkscape:pageshadow="2"
     inkscape:zoom="5.6"
     inkscape:cx="22.848986"
     inkscape:cy="47.159212"
     inkscape:document-units="px"
     inkscape:current-layer="layer1"
     showgrid="true"
     units="px"
     inkscape:showpageshadow="false"
     inkscape:snap-bbox="true"
     inkscape:bbox-paths="true"
     inkscape:bbox-nodes="true"
     inkscape:snap-bbox-edge-midpoints="true"
     inkscape:snap-bbox-midpoints="true"
     inkscape:object-paths="true"
     inkscape:snap-intersection-paths="true"
     inkscape:window-width="1874"
     inkscape:window-height="1141"
     inkscape:window-x="46"
     inkscape:window-y="30"
     inkscape:window-maximized="1">
    <inkscape:grid
       type="xygrid"
       id="grid815" />
  </sodipodi:namedview>
  <metadata
     id="metadata5">
    <rdf:RDF>
      <cc:Work
         rdf:about="">
        <dc:format>image/svg+xml</dc:format>
        <dc:type
           rdf:resource="http://purl.org/dc/dcmitype/StillImage" />
        <dc:title></dc:title>
      </cc:Work>
    </rdf:RDF>
  </metadata>
  <g
     inkscape:label="Capa 1"
     inkscape:groupmode="layer"
     id="layer1"
     transform="translate(0,-263.13333)">
    <g
       id="g3632"
       transform="translate(11.906249,1.058333)">
      <path
         style="opacity:1;fill:#4f92db;fill-opacity:1;stroke:none;stroke-width:0.04950811;stroke-miterlimit:4;stroke-dasharray:none;stroke-opacity:1"
         d="m 5.0270836,262.33958 c 9.2344874,0 16.6687494,7.43426 16.6687494,16.66875 0,9.23448 -7.434262,16.66875 -16.6687494,16.66875 -9.2344874,0 -16.6687496,-7.43427 -16.6687496,-16.66875 0,-9.23449 7.4342622,-16.66875 16.6687496,-16.66875 z"
         id="rect4500-0"
         inkscape:connector-curvature="0" />
      <path
         style="opacity:1;fill:#5abfff;fill-opacity:1;stroke:none;stroke-width:0.04872227;stroke-miterlimit:4;stroke-dasharray:none;stroke-opacity:1"
         d="m 5.0270836,262.60416 c 9.0879084,0 16.4041664,7.31626 16.4041664,16.40417 0,9.08791 -7.316258,16.40417 -16.4041664,16.40417 -9.0879082,0 -16.4041676,-7.31626 -16.4041676,-16.40417 0,-9.08791 7.3162594,-16.40417 16.4041676,-16.40417 z"
         id="rect4500-3-6"
         inkscape:connector-curvature="0" />
      <path
         style="opacity:1;fill:#e0f6ff;fill-opacity:1;stroke:none;stroke-width:0.079375;stroke-miterlimit:4;stroke-dasharray:none;stroke-opacity:1"
         d="m -1.0583334,270.54166 c -1.3192121,0 -2.3812498,1.06204 -2.3812498,2.38125 0,1.31922 1.0620377,2.38125 2.3812498,2.38125 1.31921196,0 2.38125,-1.06203 2.38125,-2.38125 0,-1.31921 -1.06203804,-2.38125 -2.38125,-2.38125 z m 6.085417,0 c -1.319213,0 -2.38125,1.06204 -2.38125,2.38125 0,1.31922 1.062037,2.38125 2.38125,2.38125 1.319212,0 2.38125,-1.06203 2.38125,-2.38125 0,-1.31921 -1.062038,-2.38125 -2.38125,-2.38125 z m 6.0854164,0 c -1.3192044,0 -2.3812504,1.06204 -2.3812504,2.38125 0,1.3192 1.062046,2.38125 2.3812504,2.38125 1.319207,0 2.38125,-1.06205 2.38125,-2.38125 0,-1.31921 -1.062043,-2.38125 -2.38125,-2.38125 z m -12.1708334,6.08542 c -1.3192121,0 -2.3812498,1.06203 -2.3812498,2.38125 0,1.31921 1.0620377,2.38125 2.3812498,2.38125 1.31921196,0 2.38125,-1.06204 2.38125,-2.38125 0,-1.31922 -1.06203804,-2.38125 -2.38125,-2.38125 z m 6.085417,0 c -1.319213,0 -2.38125,1.06203 -2.38125,2.38125 0,1.31921 1.062037,2.38125 2.38125,2.38125 1.319212,0 2.38125,-1.06204 2.38125,-2.38125 0,-1.31922 -1.062038,-2.38125 -2.38125,-2.38125 z m 6.0854164,0 c -1.3192044,0 -2.3812504,1.06203 -2.3812504,2.38125 0,1.31919 1.062046,2.38125 2.3812504,2.38125 1.319205,0 2.38125,-1.06206 2.38125,-2.38125 0,-1.31922 -1.062045,-2.38125 -2.38125,-2.38125 z m -12.1708334,6.08542 c -1.3192123,0 -2.3812498,1.06203 -2.3812498,2.38125 0,1.31921 1.0620375,2.38125 2.3812498,2.38125 1.31921196,0 2.38125,-1.06204 2.38125,-2.38125 0,-1.31922 -1.06203804,-2.38125 -2.38125,-2.38125 z m 6.085417,0 c -1.319213,0 -2.38125,1.06203 -2.38125,2.38125 0,1.31921 1.062037,2.38125 2.38125,2.38125 1.319212,0 2.38125,-1.06204 2.38125,-2.38125 0,-1.31922 -1.062038,-2.38125 -2.38125,-2.38125 z m 6.0854164,0 c -1.3192044,0 -2.3812504,1.06205 -2.3812504,2.38125 0,1.31921 1.062046,2.38125 2.3812504,2.38125 1.319205,0 2.38125,-1.06204 2.38125,-2.38125 0,-1.3192 -1.062045,-2.38125 -2.38125,-2.38125 z"
         id="rect4673"
         inkscape:connector-curvature="0" />
    </g>
  </g>
</svg>
