<?xml version="1.0" encoding="UTF-8" standalone="no"?>
<!-- Created with Inkscape (http://www.inkscape.org/) -->

<svg
   xmlns:dc="http://purl.org/dc/elements/1.1/"
   xmlns:cc="http://creativecommons.org/ns#"
   xmlns:rdf="http://www.w3.org/1999/02/22-rdf-syntax-ns#"
   xmlns:svg="http://www.w3.org/2000/svg"
   xmlns="http://www.w3.org/2000/svg"
   xmlns:sodipodi="http://sodipodi.sourceforge.net/DTD/sodipodi-0.dtd"
   xmlns:inkscape="http://www.inkscape.org/namespaces/inkscape"
   width="128"
   height="128"
   viewBox="0 0 33.866666 33.866666"
   version="1.1"
   id="svg8"
   inkscape:version="0.92.4 5da689c313, 2019-01-14"
   sodipodi:docname="start-here-kde.svg">
  <defs
     id="defs2" />
  <sodipodi:namedview
     id="base"
     pagecolor="#ffffff"
     bordercolor="#666666"
     borderopacity="1.0"
     inkscape:pageopacity="0.0"
     inkscape:pageshadow="2"
     inkscape:zoom="5.6"
     inkscape:cx="70.315004"
     inkscape:cy="54.111928"
     inkscape:document-units="px"
     inkscape:current-layer="layer1"
     showgrid="true"
     units="px"
     inkscape:showpageshadow="false"
     inkscape:snap-bbox="true"
     inkscape:bbox-paths="true"
     inkscape:bbox-nodes="true"
     inkscape:snap-bbox-edge-midpoints="true"
     inkscape:snap-bbox-midpoints="true"
     inkscape:object-paths="true"
     inkscape:snap-intersection-paths="true"
     inkscape:window-width="1870"
     inkscape:window-height="1141"
     inkscape:window-x="50"
     inkscape:window-y="30"
     inkscape:window-maximized="1">
    <inkscape:grid
       type="xygrid"
       id="grid815" />
  </sodipodi:namedview>
  <metadata
     id="metadata5">
    <rdf:RDF>
      <cc:Work
         rdf:about="">
        <dc:format>image/svg+xml</dc:format>
        <dc:type
           rdf:resource="http://purl.org/dc/dcmitype/StillImage" />
        <dc:title />
      </cc:Work>
    </rdf:RDF>
  </metadata>
  <g
     inkscape:label="Capa 1"
     inkscape:groupmode="layer"
     id="layer1"
     transform="translate(0,-263.13333)">
    <g
       id="g2928"
       transform="translate(12.435417,0.264583)">
      <path
         style="opacity:1;fill:#a3b7cc;fill-opacity:1;stroke:none;stroke-width:0.04950811;stroke-miterlimit:4;stroke-dasharray:none;stroke-opacity:1"
         d="m 4.4979168,263.13333 c 9.2344872,0 16.6687492,7.43426 16.6687492,16.66875 0,9.23448 -7.434262,16.66875 -16.6687492,16.66875 -9.2344874,0 -16.6687498,-7.43427 -16.6687498,-16.66875 0,-9.23449 7.4342624,-16.66875 16.6687498,-16.66875 z"
         id="rect4500-2"
         inkscape:connector-curvature="0" />
      <path
         style="opacity:1;fill:#ffffff;fill-opacity:1;stroke:none;stroke-width:0.04872227;stroke-miterlimit:4;stroke-dasharray:none;stroke-opacity:1"
         d="m 4.4979168,263.39791 c 9.0879082,0 16.4041662,7.31626 16.4041662,16.40417 0,9.08791 -7.316258,16.40417 -16.4041662,16.40417 -9.0879082,0 -16.4041668,-7.31626 -16.4041668,-16.40417 0,-9.08791 7.3162586,-16.40417 16.4041668,-16.40417 z"
         id="rect4500-3-2"
         inkscape:connector-curvature="0" />
      <path
         id="rect4119"
         d="m -1.5875002,269.48333 c 1.02605403,0 1.85208403,0.82603 1.85208403,1.85208 0,1.02606 -0.82603,1.85209 -1.85208403,1.85209 -1.0260543,0 -1.8520832,-0.82603 -1.8520832,-1.85209 0,-1.02605 0.8260289,-1.85208 1.8520832,-1.85208 z"
         style="fill:#c74343;fill-opacity:1;stroke-width:0.59266484"
         inkscape:connector-curvature="0" />
      <path
         id="rect4308"
         d="m -3.96875,276.3625 h 2.33e-5 c 1.6123655,0 2.9104055,1.29804 2.9104055,2.91041 v 0 c 0,1.61236 -1.29804,2.9104 -2.9104055,2.9104 h -2.33e-5 c -1.612365,0 -2.9104047,-1.29804 -2.9104047,-2.9104 v 0 c 0,-1.61237 1.2980397,-2.91041 2.9104047,-2.91041 z"
         style="fill:#5e9c76;fill-opacity:1;stroke-width:0.64675778"
         inkscape:connector-curvature="0" />
      <path
         id="rect4312"
         d="M -1.73125e-7,284.82916 C 2.1986878,284.82916 3.9687498,286.59923 3.9687498,288.79791 c 0,2.19869 -1.770062,3.96875 -3.968749973125,3.96875 C -2.1986878,292.76666 -3.96875,290.9966 -3.96875,288.79791 c 0,-2.19868 1.7700622,-3.96875 3.968749826875,-3.96875 z"
         style="fill:#4f92db;fill-opacity:1;stroke-width:0.61057717"
         inkscape:connector-curvature="0" />
      <path
         id="rect4308-6"
         d="m -3.96875,276.62708 h 1.35e-5 c 1.4657911,0 2.6458263,1.18004 2.6458263,2.64583 v 0 c 0,1.46579 -1.1800352,2.64582 -2.6458263,2.64582 h -1.35e-5 c -1.4657848,0 -2.6458267,-1.18003 -2.6458267,-2.64582 v 0 c 0,-1.46579 1.1800419,-2.64583 2.6458267,-2.64583 z"
         style="fill:#bae0bd;fill-opacity:1;stroke-width:0.58796167"
         inkscape:connector-curvature="0" />
      <path
         id="rect4119-7"
         d="m -1.5875002,269.74791 c 0.87947503,0 1.587500026875,0.70803 1.587500026875,1.5875 0,0.87948 -0.708024996875,1.5875 -1.587500026875,1.5875 -0.8794749,0 -1.5874998,-0.70802 -1.5874998,-1.5875 0,-0.87947 0.7080249,-1.5875 1.5874998,-1.5875 z"
         style="fill:#f78f8f;fill-opacity:1;stroke-width:0.50799841"
         inkscape:connector-curvature="0" />
      <path
         id="rect4312-5"
         d="M -1.73125e-7,285.09375 C 2.0521088,285.09375 3.7041668,286.74581 3.7041668,288.79791 c 0,2.05211 -1.652058,3.70417 -3.704166973125,3.70417 C -2.0521082,292.50208 -3.7041667,290.85002 -3.7041667,288.79791 c 0,-2.0521 1.6520585,-3.70416 3.704166526875,-3.70416 z"
         style="fill:#5abfff;fill-opacity:1;stroke-width:0.56987202"
         inkscape:connector-curvature="0" />
      <path
         style="color:#000000;font-style:normal;font-variant:normal;font-weight:normal;font-stretch:normal;font-size:medium;line-height:normal;font-family:sans-serif;font-variant-ligatures:normal;font-variant-position:normal;font-variant-caps:normal;font-variant-numeric:normal;font-variant-alternates:normal;font-feature-settings:normal;text-indent:0;text-align:start;text-decoration:none;text-decoration-line:none;text-decoration-style:solid;text-decoration-color:#000000;letter-spacing:normal;word-spacing:normal;text-transform:none;writing-mode:lr-tb;direction:ltr;text-orientation:mixed;dominant-baseline:auto;baseline-shift:baseline;text-anchor:start;white-space:normal;shape-padding:0;clip-rule:nonzero;display:inline;overflow:visible;visibility:visible;opacity:1;isolation:auto;mix-blend-mode:normal;color-interpolation:sRGB;color-interpolation-filters:linearRGB;solid-color:#000000;solid-opacity:1;vector-effect:none;fill:#345166;fill-opacity:1;fill-rule:nonzero;stroke:none;stroke-width:1.05833328;stroke-linecap:round;stroke-linejoin:round;stroke-miterlimit:4;stroke-dasharray:none;stroke-dashoffset:0;stroke-opacity:1;color-rendering:auto;image-rendering:auto;shape-rendering:auto;text-rendering:auto;enable-background:accumulate"
         d="m 7.4005818,267.36666 c -0.137391,0.002 -0.268596,0.0575 -0.365869,0.15452 l -2.910417,2.91041 c -0.206914,0.20672 -0.206914,0.54208 0,0.74879 l 5.665287,5.71128 -5.674072,5.98413 c -0.198698,0.20806 -0.194796,0.53673 0.0088,0.74001 l 2.910417,2.91042 c 0.208756,0.20813 0.547336,0.20557 0.752926,-0.006 l 8.9958322,-9.26041 c 0.201584,-0.2076 0.199052,-0.53862 -0.0057,-0.74311 l -8.9958342,-8.99583 c -0.101071,-0.10084 -0.238604,-0.15657 -0.381366,-0.15452 z"
         id="path972"
         inkscape:connector-curvature="0"
         sodipodi:nodetypes="ccccccccccccc" />
      <path
         style="fill:#4b6477;fill-opacity:1;stroke:none;stroke-width:0.26458332px;stroke-linecap:butt;stroke-linejoin:miter;stroke-opacity:1"
         d="m 4.2333338,283.24166 3.175,3.175 9.2604162,-9.525 -9.2604162,-9.26041 -3.175,3.175 6.0854162,6.08541 z"
         id="path975"
         inkscape:connector-curvature="0"
         sodipodi:nodetypes="ccccccc" />
    </g>
  </g>
</svg>
