<?xml version="1.0" encoding="UTF-8" standalone="no"?>
<!-- Created with Inkscape (http://www.inkscape.org/) -->

<svg
   xmlns:dc="http://purl.org/dc/elements/1.1/"
   xmlns:cc="http://creativecommons.org/ns#"
   xmlns:rdf="http://www.w3.org/1999/02/22-rdf-syntax-ns#"
   xmlns:svg="http://www.w3.org/2000/svg"
   xmlns="http://www.w3.org/2000/svg"
   xmlns:sodipodi="http://sodipodi.sourceforge.net/DTD/sodipodi-0.dtd"
   xmlns:inkscape="http://www.inkscape.org/namespaces/inkscape"
   width="128"
   height="128"
   viewBox="0 0 33.866666 33.866666"
   version="1.1"
   id="svg8"
   inkscape:version="0.92.4 5da689c313, 2019-01-14"
   sodipodi:docname="ubuntu.svg">
  <defs
     id="defs2">
    <style
       type="text/css"
       id="current-color-scheme">
      .ColorScheme-Text {
        color:#122036;
      }
      </style>
  </defs>
  <sodipodi:namedview
     id="base"
     pagecolor="#ffffff"
     bordercolor="#666666"
     borderopacity="1.0"
     inkscape:pageopacity="0.0"
     inkscape:pageshadow="2"
     inkscape:zoom="1.979899"
     inkscape:cx="91.345493"
     inkscape:cy="-12.078672"
     inkscape:document-units="px"
     inkscape:current-layer="layer1-56"
     showgrid="true"
     units="px"
     inkscape:showpageshadow="false"
     inkscape:snap-bbox="true"
     inkscape:bbox-paths="true"
     inkscape:bbox-nodes="true"
     inkscape:snap-bbox-edge-midpoints="true"
     inkscape:snap-bbox-midpoints="true"
     inkscape:object-paths="true"
     inkscape:snap-intersection-paths="true"
     inkscape:window-width="1870"
     inkscape:window-height="1141"
     inkscape:window-x="50"
     inkscape:window-y="30"
     inkscape:window-maximized="1">
    <inkscape:grid
       type="xygrid"
       id="grid815" />
  </sodipodi:namedview>
  <metadata
     id="metadata5">
    <rdf:RDF>
      <cc:Work
         rdf:about="">
        <dc:format>image/svg+xml</dc:format>
        <dc:type
           rdf:resource="http://purl.org/dc/dcmitype/StillImage" />
        <dc:title></dc:title>
      </cc:Work>
    </rdf:RDF>
  </metadata>
  <g
     inkscape:label="Capa 1"
     inkscape:groupmode="layer"
     id="layer1"
     transform="translate(0,-263.13333)">
    <g
       id="g2739"
       transform="translate(11.377083,1.322913)">
      <g
         transform="translate(-30.427083,-29.897909)"
         id="layer1-56"
         inkscape:label="Capa 1">
        <g
           id="g841"
           transform="translate(3.9687505,-6.614581)">
          <path
             inkscape:connector-curvature="0"
             id="rect4500-6"
             d="m 32.014583,298.58749 c 9.234487,0 16.668749,7.43426 16.668749,16.66875 0,9.23448 -7.434262,16.66875 -16.668749,16.66875 -9.234487,0 -16.66875,-7.43427 -16.66875,-16.66875 0,-9.23449 7.434263,-16.66875 16.66875,-16.66875 z"
             style="overflow:visible;opacity:1;fill:#d16040;fill-opacity:1;stroke:none;stroke-width:0.04950811;stroke-miterlimit:4;stroke-dasharray:none;stroke-opacity:1" />
          <path
             inkscape:connector-curvature="0"
             id="rect4500-3-1"
             d="m 32.014583,298.85207 c 9.087908,0 16.404166,7.31626 16.404166,16.40417 0,9.08791 -7.316258,16.40416 -16.404166,16.40416 -9.087908,0 -16.404167,-7.31625 -16.404167,-16.40416 0,-9.08791 7.316259,-16.40417 16.404167,-16.40417 z"
             style="overflow:visible;opacity:1;fill:#ff8f64;fill-opacity:1;stroke:none;stroke-width:0.04872227;stroke-miterlimit:4;stroke-dasharray:none;stroke-opacity:1" />
          <path
             style="fill:#ffffff;fill-opacity:1;stroke:none;stroke-width:1.05833328;stroke-linecap:round;stroke-linejoin:round;stroke-miterlimit:4;stroke-dasharray:none;stroke-opacity:1"
             d="m 37.8354,302.55621 a 2.6458333,2.6458333 0 0 0 -2.645834,2.64584 2.6458333,2.6458333 0 0 0 2.645834,2.64584 2.6458333,2.6458333 0 0 0 2.645832,-2.64584 2.6458333,2.6458333 0 0 0 -2.645832,-2.64584 z m -5.757787,3.175 a 9.5250003,9.5250003 0 0 0 -5.389849,1.62884 l 2.072223,3.07062 a 5.8208335,5.8208335 0 0 1 0.497128,-0.30076 5.8208335,5.8208335 0 0 1 0.526066,-0.2501 5.8208335,5.8208335 0 0 1 0.54777,-0.19539 5.8208335,5.8208335 0 0 1 0.564305,-0.14061 5.8208335,5.8208335 0 0 1 0.57671,-0.0826 5.8208335,5.8208335 0 0 1 0.580841,-0.0258 5.8208335,5.8208335 0 0 1 0.580844,0.033 5.8208335,5.8208335 0 0 1 0.574642,0.091 5.8208335,5.8208335 0 0 1 0.563272,0.1478 5.8208335,5.8208335 0 0 1 0.470255,0.1716 5.8208335,5.8208335 0 0 1 0.526066,0.24908 5.8208335,5.8208335 0 0 1 0.498162,0.30076 5.8208335,5.8208335 0 0 1 0.46612,0.3483 5.8208335,5.8208335 0 0 1 0.427882,0.39376 5.8208335,5.8208335 0 0 1 0.387572,0.43408 5.8208335,5.8208335 0 0 1 0.342098,0.47026 5.8208335,5.8208335 0 0 1 0.29249,0.50334 5.8208335,5.8208335 0 0 1 0.241844,0.52916 5.8208335,5.8208335 0 0 1 0.1881,0.55088 5.8208335,5.8208335 0 0 1 0.11678,0.48678 l 3.635952,-0.70694 a 9.5250003,9.5250003 0 0 0 -2.595188,-4.89065 3.1750002,3.1750002 0 0 1 -0.02378,0.014 3.1750002,3.1750002 0 0 1 -0.289388,0.1292 3.1750002,3.1750002 0 0 1 -0.300756,0.1002 3.1750002,3.1750002 0 0 1 -0.31006,0.0692 3.1750002,3.1750002 0 0 1 -0.315226,0.0382 3.1750002,3.1750002 0 0 1 -0.224276,0.008 3.1750002,3.1750002 0 0 1 -0.317291,-0.016 3.1750002,3.1750002 0 0 1 -0.31316,-0.0476 3.1750002,3.1750002 0 0 1 -0.307992,-0.0786 3.1750002,3.1750002 0 0 1 -0.297656,-0.1086 3.1750002,3.1750002 0 0 1 -0.286286,-0.1384 3.1750002,3.1750002 0 0 1 -0.270786,-0.1664 3.1750002,3.1750002 0 0 1 -0.25218,-0.1912 3.1750002,3.1750002 0 0 1 -0.232544,-0.21704 3.1750002,3.1750002 0 0 1 -0.208774,-0.23772 3.1750002,3.1750002 0 0 1 -0.185,-0.25838 3.1750002,3.1750002 0 0 1 -0.15812,-0.27594 3.1750002,3.1750002 0 0 1 -0.1292,-0.2894 3.1750002,3.1750002 0 0 1 -0.10026,-0.30076 3.1750002,3.1750002 0 0 1 -0.06924,-0.31006 3.1750002,3.1750002 0 0 1 -0.03514,-0.28732 9.5250003,9.5250003 0 0 0 -2.064989,-0.25218 z m -6.914304,2.90836 a 9.5250003,9.5250003 0 0 0 -2.481501,4.75837 3.1750002,3.1750002 0 0 1 0.271818,0.1302 3.1750002,3.1750002 0 0 1 0.270786,0.1664 3.1750002,3.1750002 0 0 1 0.25218,0.1912 3.1750002,3.1750002 0 0 1 0.232544,0.21704 3.1750002,3.1750002 0 0 1 0.208772,0.23772 3.1750002,3.1750002 0 0 1 0.185,0.25838 3.1750002,3.1750002 0 0 1 0.15812,0.27596 3.1750002,3.1750002 0 0 1 0.1292,0.28938 3.1750002,3.1750002 0 0 1 0.10026,0.30076 3.1750002,3.1750002 0 0 1 0.06924,0.31006 3.1750002,3.1750002 0 0 1 0.03824,0.31522 3.1750002,3.1750002 0 0 1 0.0082,0.22428 3.1750002,3.1750002 0 0 1 -0.0156,0.3173 3.1750002,3.1750002 0 0 1 -0.04754,0.31316 3.1750002,3.1750002 0 0 1 -0.07854,0.30798 3.1750002,3.1750002 0 0 1 -0.10956,0.29766 3.1750002,3.1750002 0 0 1 -0.13746,0.28628 3.1750002,3.1750002 0 0 1 -0.1664,0.2708 3.1750002,3.1750002 0 0 1 -0.1912,0.25218 3.1750002,3.1750002 0 0 1 -0.217042,0.23254 3.1750002,3.1750002 0 0 1 -0.237711,0.20876 3.1750002,3.1750002 0 0 1 -0.17156,0.123 9.5250003,9.5250003 0 0 0 2.916616,3.8375 l 2.280997,-2.9187 a 5.8208335,5.8208335 0 0 1 -0.440284,-0.38034 5.8208335,5.8208335 0 0 1 -0.399974,-0.4227 5.8208335,5.8208335 0 0 1 -0.355533,-0.46096 5.8208335,5.8208335 0 0 1 -0.307993,-0.49402 5.8208335,5.8208335 0 0 1 -0.257347,-0.52194 5.8208335,5.8208335 0 0 1 -0.203606,-0.54466 5.8208335,5.8208335 0 0 1 -0.1478,-0.56224 5.8208335,5.8208335 0 0 1 -0.09094,-0.57464 5.8208335,5.8208335 0 0 1 -0.0196,-0.21912 5.8208335,5.8208335 0 0 1 -0.0114,-0.58188 5.8208335,5.8208335 0 0 1 0.0465,-0.5798 5.8208335,5.8208335 0 0 1 0.10438,-0.57258 5.8208335,5.8208335 0 0 1 0.1602,-0.55914 5.8208335,5.8208335 0 0 1 0.216005,-0.54054 5.8208335,5.8208335 0 0 1 0.268719,-0.51573 5.8208335,5.8208335 0 0 1 0.31936,-0.4868 5.8208335,5.8208335 0 0 1 0.365869,-0.45267 5.8208335,5.8208335 0 0 1 0.14986,-0.16021 z m -4.261236,5.02915 a 2.6458333,2.6458333 0 0 0 -2.645832,2.64584 2.6458333,2.6458333 0 0 0 2.645832,2.64584 2.6458333,2.6458333 0 0 0 2.645833,-2.64584 2.6458333,2.6458333 0 0 0 -2.645833,-2.64584 z m 16.933327,1.5875 a 5.8208335,5.8208335 0 0 1 -0.02894,0.58084 5.8208335,5.8208335 0 0 1 -0.08682,0.57568 5.8208335,5.8208335 0 0 1 -0.1447,0.56328 5.8208335,5.8208335 0 0 1 -0.19948,0.54674 5.8208335,5.8208335 0 0 1 -0.25218,0.524 5.8208335,5.8208335 0 0 1 -0.30489,0.49608 5.8208335,5.8208335 0 0 1 -0.3514,0.46302 5.8208335,5.8208335 0 0 1 -0.396876,0.42582 5.8208335,5.8208335 0 0 1 -0.437182,0.38448 5.8208335,5.8208335 0 0 1 -0.473356,0.33796 5.8208335,5.8208335 0 0 1 -0.0176,0.012 5.8208335,5.8208335 0 0 1 -0.505396,0.28732 5.8208335,5.8208335 0 0 1 -0.532266,0.23566 5.8208335,5.8208335 0 0 1 -0.552937,0.1818 5.8208335,5.8208335 0 0 1 -0.568442,0.125 5.8208335,5.8208335 0 0 1 -0.577742,0.0682 5.8208335,5.8208335 0 0 1 -0.581875,0.01 5.8208335,5.8208335 0 0 1 -0.57981,-0.0486 5.8208335,5.8208335 0 0 1 -0.571542,-0.1054 5.8208335,5.8208335 0 0 1 -0.559138,-0.1622 5.8208335,5.8208335 0 0 1 -0.539501,-0.21704 5.8208335,5.8208335 0 0 1 -0.0186,-0.01 l -1.565796,3.35795 a 9.5250003,9.5250003 0 0 0 7.240899,0.32556 3.1750002,3.1750002 0 0 1 -0.03204,-0.2677 3.1750002,3.1750002 0 0 1 -0.0082,-0.22426 3.1750002,3.1750002 0 0 1 0.0156,-0.3173 3.1750002,3.1750002 0 0 1 0.04754,-0.31316 3.1750002,3.1750002 0 0 1 0.07854,-0.308 3.1750002,3.1750002 0 0 1 0.10956,-0.29764 3.1750002,3.1750002 0 0 1 0.13746,-0.2863 3.1750002,3.1750002 0 0 1 0.1664,-0.27078 3.1750002,3.1750002 0 0 1 0.1912,-0.25218 3.1750002,3.1750002 0 0 1 0.21704,-0.23254 3.1750002,3.1750002 0 0 1 0.237712,-0.20878 3.1750002,3.1750002 0 0 1 0.258382,-0.185 3.1750002,3.1750002 0 0 1 0.275952,-0.1582 3.1750002,3.1750002 0 0 1 0.289388,-0.1292 3.1750002,3.1750002 0 0 1 0.300758,-0.1002 3.1750002,3.1750002 0 0 1 0.310058,-0.0692 3.1750002,3.1750002 0 0 1 0.315226,-0.0382 3.1750002,3.1750002 0 0 1 0.224276,-0.008 3.1750002,3.1750002 0 0 1 0.317294,0.016 3.1750002,3.1750002 0 0 1 0.313158,0.0476 3.1750002,3.1750002 0 0 1 0.307992,0.0786 3.1750002,3.1750002 0 0 1 0.297657,0.1086 3.1750002,3.1750002 0 0 1 0.111619,0.0538 9.5250003,9.5250003 0 0 0 1.827278,-5.59554 z m 1.058332,6.35 a 2.6458333,2.6458333 0 0 0 -2.645832,2.64584 2.6458333,2.6458333 0 0 0 2.645832,2.64584 2.6458333,2.6458333 0 0 0 2.645834,-2.64584 2.6458333,2.6458333 0 0 0 -2.645834,-2.64584 z"
             id="path1012"
             inkscape:connector-curvature="0" />
        </g>
      </g>
    </g>
  </g>
</svg>
