<?xml version="1.0" encoding="UTF-8" standalone="no"?>
<!-- Created with Inkscape (http://www.inkscape.org/) -->

<svg
   width="128"
   height="128"
   viewBox="0 0 33.866666 33.866666"
   version="1.1"
   id="svg8"
   inkscape:version="1.2 (dc2aedaf03, 2022-05-15)"
   sodipodi:docname="ubuntu.svg"
   xmlns:inkscape="http://www.inkscape.org/namespaces/inkscape"
   xmlns:sodipodi="http://sodipodi.sourceforge.net/DTD/sodipodi-0.dtd"
   xmlns="http://www.w3.org/2000/svg"
   xmlns:svg="http://www.w3.org/2000/svg"
   xmlns:rdf="http://www.w3.org/1999/02/22-rdf-syntax-ns#"
   xmlns:cc="http://creativecommons.org/ns#"
   xmlns:dc="http://purl.org/dc/elements/1.1/">
  <defs
     id="defs2">
    <style
       type="text/css"
       id="current-color-scheme">
      .ColorScheme-Text {
        color:#122036;
      }
      </style>
  </defs>
  <sodipodi:namedview
     id="base"
     pagecolor="#ffffff"
     bordercolor="#666666"
     borderopacity="1.0"
     inkscape:pageopacity="0.0"
     inkscape:pageshadow="2"
     inkscape:zoom="5.6"
     inkscape:cx="108.57143"
     inkscape:cy="54.196428"
     inkscape:document-units="px"
     inkscape:current-layer="layer1-56"
     showgrid="true"
     units="px"
     inkscape:showpageshadow="false"
     inkscape:snap-bbox="true"
     inkscape:bbox-paths="true"
     inkscape:bbox-nodes="true"
     inkscape:snap-bbox-edge-midpoints="true"
     inkscape:snap-bbox-midpoints="true"
     inkscape:object-paths="true"
     inkscape:snap-intersection-paths="true"
     inkscape:window-width="2160"
     inkscape:window-height="1337"
     inkscape:window-x="0"
     inkscape:window-y="0"
     inkscape:window-maximized="1"
     inkscape:pagecheckerboard="0"
     inkscape:deskcolor="#d1d1d1">
    <inkscape:grid
       type="xygrid"
       id="grid815" />
  </sodipodi:namedview>
  <metadata
     id="metadata5">
    <rdf:RDF>
      <cc:Work
         rdf:about="">
        <dc:format>image/svg+xml</dc:format>
        <dc:type
           rdf:resource="http://purl.org/dc/dcmitype/StillImage" />
        <dc:title />
      </cc:Work>
    </rdf:RDF>
  </metadata>
  <g
     inkscape:label="Capa 1"
     inkscape:groupmode="layer"
     id="layer1"
     transform="translate(0,-263.13333)">
    <g
       id="g2739"
       transform="translate(11.377083,1.322913)">
      <g
         transform="translate(-30.427083,-29.897909)"
         id="layer1-56"
         inkscape:label="Capa 1">
        <g
           id="g841"
           transform="translate(3.9687505,-6.614581)">
          <path
             inkscape:connector-curvature="0"
             id="rect4500-6"
             d="m 32.014583,298.58749 c 9.234487,0 16.668749,7.43426 16.668749,16.66875 0,9.23448 -7.434262,16.66875 -16.668749,16.66875 -9.234487,0 -16.66875,-7.43427 -16.66875,-16.66875 0,-9.23449 7.434263,-16.66875 16.66875,-16.66875 z"
             style="overflow:visible;opacity:1;fill:#d16040;fill-opacity:1;stroke:none;stroke-width:0.04950811;stroke-miterlimit:4;stroke-dasharray:none;stroke-opacity:1" />
          <path
             inkscape:connector-curvature="0"
             id="rect4500-3-1"
             d="m 32.014583,298.85207 c 9.087908,0 16.404166,7.31626 16.404166,16.40417 0,9.08791 -7.316258,16.40416 -16.404166,16.40416 -9.087908,0 -16.404167,-7.31625 -16.404167,-16.40416 0,-9.08791 7.316259,-16.40417 16.404167,-16.40417 z"
             style="overflow:visible;opacity:1;fill:#ff8f64;fill-opacity:1;stroke:none;stroke-width:0.04872227;stroke-miterlimit:4;stroke-dasharray:none;stroke-opacity:1" />
        </g>
        <path
           id="path7111"
           style="fill:#ffffff;fill-opacity:1;stroke-width:0.529167;stroke-linecap:round;stroke-linejoin:round"
           d="m 40.481249,296.99999 a 3.7041666,3.7041666 0 0 0 -3.704166,3.70416 3.7041666,3.7041666 0 0 0 3.704166,3.70417 3.7041666,3.7041666 0 0 0 3.704167,-3.70417 3.7041666,3.7041666 0 0 0 -3.704167,-3.70416 z m -4.233333,0.79375 a 10.847917,10.847917 0 0 0 -9.442834,5.55935 4.7624999,4.7624999 0 0 1 0.273885,0.0103 4.7624999,4.7624999 0 0 1 0.353983,0.0398 4.7624999,4.7624999 0 0 1 0.34985,0.0661 4.7624999,4.7624999 0 0 1 0.343648,0.092 4.7624999,4.7624999 0 0 1 0.336414,0.11783 4.7624999,4.7624999 0 0 1 0.326595,0.14262 4.7624999,4.7624999 0 0 1 0.314709,0.1664 4.7624999,4.7624999 0 0 1 0.29714,0.18603 8.2020832,8.2020832 0 0 1 6.342248,-3.69072 4.7624999,4.7624999 0 0 1 0.09457,-0.83923 4.7624999,4.7624999 0 0 1 0.352433,-1.00666 4.7624999,4.7624999 0 0 1 0.522449,-0.83147 10.847917,10.847917 0 0 0 -0.465088,-0.0124 z m 8.724532,4.40438 a 4.7624999,4.7624999 0 0 1 -0.200505,0.57257 4.7624999,4.7624999 0 0 1 -0.567407,0.90279 4.7624999,4.7624999 0 0 1 -0.753959,0.75396 4.7624999,4.7624999 0 0 1 -0.123507,0.0775 8.2020832,8.2020832 0 0 1 1.122929,4.1367 8.2020832,8.2020832 0 0 1 -1.309481,4.40232 4.7624999,4.7624999 0 0 1 0.05064,0.0439 4.7624999,4.7624999 0 0 1 0.252181,0.25218 4.7624999,4.7624999 0 0 1 0.232027,0.26975 4.7624999,4.7624999 0 0 1 0.211873,0.28629 4.7624999,4.7624999 0 0 1 0.189136,0.30179 4.7624999,4.7624999 0 0 1 0.166398,0.31471 4.7624999,4.7624999 0 0 1 0.142627,0.3266 4.7624999,4.7624999 0 0 1 0.117822,0.33641 4.7624999,4.7624999 0 0 1 0.09198,0.34365 10.847917,10.847917 0 0 0 2.500623,-6.87762 10.847917,10.847917 0 0 0 -2.123385,-6.44353 z m -18.249532,2.2102 a 3.7041666,3.7041666 0 0 0 -3.704166,3.70417 3.7041666,3.7041666 0 0 0 3.704166,3.70416 3.7041666,3.7041666 0 0 0 3.704167,-3.70416 3.7041666,3.7041666 0 0 0 -3.704167,-3.70417 z m 2.218469,7.89926 a 4.7624999,4.7624999 0 0 1 -0.151928,0.0956 4.7624999,4.7624999 0 0 1 -1.006657,0.35243 4.7624999,4.7624999 0 0 1 -1.059884,0.11938 4.7624999,4.7624999 0 0 1 -0.448034,-0.0507 10.847917,10.847917 0 0 0 9.914123,6.66058 4.7624999,4.7624999 0 0 1 -0.527616,-0.83923 4.7624999,4.7624999 0 0 1 -0.352434,-1.00665 4.7624999,4.7624999 0 0 1 -0.09974,-0.88625 8.2020832,8.2020832 0 0 1 -6.267835,-4.44521 z m 11.010698,0.56741 a 3.7041666,3.7041666 0 0 0 -3.704167,3.70416 3.7041666,3.7041666 0 0 0 3.704167,3.70417 3.7041666,3.7041666 0 0 0 3.704166,-3.70417 3.7041666,3.7041666 0 0 0 -3.704166,-3.70416 z" />
      </g>
    </g>
  </g>
</svg>
