<?xml version="1.0" encoding="UTF-8" standalone="no"?>
<!-- Created with Inkscape (http://www.inkscape.org/) -->

<svg
   xmlns:dc="http://purl.org/dc/elements/1.1/"
   xmlns:cc="http://creativecommons.org/ns#"
   xmlns:rdf="http://www.w3.org/1999/02/22-rdf-syntax-ns#"
   xmlns:svg="http://www.w3.org/2000/svg"
   xmlns="http://www.w3.org/2000/svg"
   xmlns:sodipodi="http://sodipodi.sourceforge.net/DTD/sodipodi-0.dtd"
   xmlns:inkscape="http://www.inkscape.org/namespaces/inkscape"
   width="32"
   height="32"
   viewBox="0 0 8.4666662 8.4666664"
   version="1.1"
   id="svg1399"
   inkscape:version="0.92.4 5da689c313, 2019-01-14"
   sodipodi:docname="alt-torrents.svg">
  <defs
     id="defs1393" />
  <sodipodi:namedview
     id="base"
     pagecolor="#ffffff"
     bordercolor="#666666"
     borderopacity="1.0"
     inkscape:pageopacity="0.0"
     inkscape:pageshadow="2"
     inkscape:zoom="7.9195959"
     inkscape:cx="-15.735422"
     inkscape:cy="-0.67020984"
     inkscape:document-units="px"
     inkscape:current-layer="layer1"
     showgrid="false"
     inkscape:showpageshadow="false"
     units="px"
     inkscape:window-width="1920"
     inkscape:window-height="1049"
     inkscape:window-x="0"
     inkscape:window-y="0"
     inkscape:window-maximized="1" />
  <metadata
     id="metadata1396">
    <rdf:RDF>
      <cc:Work
         rdf:about="">
        <dc:format>image/svg+xml</dc:format>
        <dc:type
           rdf:resource="http://purl.org/dc/dcmitype/StillImage" />
        <dc:title></dc:title>
      </cc:Work>
    </rdf:RDF>
  </metadata>
  <g
     inkscape:label="Capa 1"
     inkscape:groupmode="layer"
     id="layer1"
     transform="translate(0,-288.53338)">
    <g
       id="g1515"
       transform="translate(10.881662,-11.182337)">
      <path
         inkscape:connector-curvature="0"
         id="path1151-60-1"
         d="m -10.352496,299.98031 c -0.288575,0 -0.529166,0.24059 -0.529166,0.52917 v 6.87916 c 0,0.28858 0.240588,0.52917 0.529166,0.52917 h 7.4083333 c 0.2885786,0 0.5291666,-0.24059 0.5291666,-0.52917 v -5.82083 c 0,-0.28858 -0.2405912,-0.52917 -0.5291666,-0.52917 h -3.7041665 c -0.044097,0 -0.058041,-0.007 -0.1111044,-0.0703 -0.053064,-0.0637 -0.1152385,-0.18035 -0.1813843,-0.31264 -0.066146,-0.13229 -0.1362625,-0.2802 -0.2485636,-0.41496 -0.1123011,-0.13476 -0.296795,-0.26045 -0.517281,-0.26045 z"
         style="color:#000000;font-style:normal;font-variant:normal;font-weight:normal;font-stretch:normal;font-size:medium;line-height:normal;font-family:sans-serif;font-variant-ligatures:normal;font-variant-position:normal;font-variant-caps:normal;font-variant-numeric:normal;font-variant-alternates:normal;font-feature-settings:normal;text-indent:0;text-align:start;text-decoration:none;text-decoration-line:none;text-decoration-style:solid;text-decoration-color:#000000;letter-spacing:normal;word-spacing:normal;text-transform:none;writing-mode:lr-tb;direction:ltr;text-orientation:mixed;dominant-baseline:auto;baseline-shift:baseline;text-anchor:start;white-space:normal;shape-padding:0;clip-rule:nonzero;display:inline;overflow:visible;visibility:visible;opacity:1;isolation:auto;mix-blend-mode:normal;color-interpolation:sRGB;color-interpolation-filters:linearRGB;solid-color:#000000;solid-opacity:1;vector-effect:none;fill:#4b5799;fill-opacity:1;fill-rule:nonzero;stroke:none;stroke-width:0.52916664;stroke-linecap:round;stroke-linejoin:round;stroke-miterlimit:4;stroke-dasharray:none;stroke-dashoffset:0;stroke-opacity:1;color-rendering:auto;image-rendering:auto;shape-rendering:auto;text-rendering:auto;enable-background:accumulate"
         sodipodi:nodetypes="ssssssssscccss" />
      <path
         sodipodi:nodetypes="ssssssssccs"
         inkscape:connector-curvature="0"
         style="fill:#6979d9;fill-opacity:1;stroke-width:0.52916664;stroke-miterlimit:4;stroke-dasharray:none"
         id="path13-6-3-1-3-0-7-7-43-8"
         d="m -10.352496,300.2449 c -0.146582,0 -0.264583,0.11799 -0.264583,0.26458 v 6.87917 c 0,0.14657 0.118001,0.26458 0.264583,0.26458 h 7.4083335 c 0.1465816,0 0.2645831,-0.11801 0.2645831,-0.26458 v -5.82084 c 0,-0.14658 -0.1180018,-0.26458 -0.2645831,-0.26458 h -3.7041667 c -0.5291667,0 -0.5291667,-1.05834 -1.0583333,-1.05834 z" />
      <path
         inkscape:connector-curvature="0"
         id="path1105-46-4"
         d="m -6.6483292,301.03864 c -0.2204861,0 -0.411239,0.14535 -0.5012614,0.28939 -0.090023,0.14404 -0.1300009,0.2881 -0.1762167,0.41135 -0.046216,0.12324 -0.095339,0.22076 -0.1462442,0.27388 -0.050906,0.0531 -0.09497,0.0837 -0.234611,0.0837 h -2.6458335 c -0.288575,2e-5 -0.529166,0.2406 -0.529166,0.52918 v 4.7625 c 0,0.28858 0.240588,0.52917 0.529166,0.52917 h 7.4083333 c 0.2885786,0 0.5291666,-0.24059 0.5291666,-0.52917 v -5.82083 c 0,-0.28858 -0.2405912,-0.52917 -0.5291666,-0.52917 z"
         style="color:#000000;font-style:normal;font-variant:normal;font-weight:normal;font-stretch:normal;font-size:medium;line-height:normal;font-family:sans-serif;font-variant-ligatures:normal;font-variant-position:normal;font-variant-caps:normal;font-variant-numeric:normal;font-variant-alternates:normal;font-feature-settings:normal;text-indent:0;text-align:start;text-decoration:none;text-decoration-line:none;text-decoration-style:solid;text-decoration-color:#000000;letter-spacing:normal;word-spacing:normal;text-transform:none;writing-mode:lr-tb;direction:ltr;text-orientation:mixed;dominant-baseline:auto;baseline-shift:baseline;text-anchor:start;white-space:normal;shape-padding:0;clip-rule:nonzero;display:inline;overflow:visible;visibility:visible;opacity:1;isolation:auto;mix-blend-mode:normal;color-interpolation:sRGB;color-interpolation-filters:linearRGB;solid-color:#000000;solid-opacity:1;vector-effect:none;fill:#4b5799;fill-opacity:1;fill-rule:nonzero;stroke:none;stroke-width:0.52916664;stroke-linecap:butt;stroke-linejoin:miter;stroke-miterlimit:4;stroke-dasharray:none;stroke-dashoffset:0;stroke-opacity:1;color-rendering:auto;image-rendering:auto;shape-rendering:auto;text-rendering:auto;enable-background:accumulate"
         sodipodi:nodetypes="scccssssssssss" />
      <path
         d="m -10.352496,302.36156 c -0.146582,0 -0.264583,0.118 -0.264583,0.26458 v 4.7625 c 0,0.14658 0.118001,0.26458 0.264583,0.26458 h 7.4083335 c 0.1465816,0 0.2645831,-0.118 0.2645831,-0.26458 v -5.82083 c 0,-0.14658 -0.1180018,-0.26458 -0.2645831,-0.26458 l -3.7041667,-10e-6 c -0.5291667,0 -0.2645834,1.05834 -1.0583333,1.05834 z"
         id="path13-6-3-1-3-0-7-7-9-2-9-7"
         style="fill:#8795e4;fill-opacity:1;stroke:none;stroke-width:0.52916664;stroke-miterlimit:4;stroke-dasharray:none;stroke-opacity:1"
         inkscape:connector-curvature="0"
         sodipodi:nodetypes="ssssssssccs" />
      <path
         inkscape:connector-curvature="0"
         style="opacity:1;vector-effect:none;fill:#e1e5f8;fill-opacity:1;stroke:none;stroke-width:0.53320712;stroke-linecap:round;stroke-linejoin:round;stroke-miterlimit:4;stroke-dasharray:none;stroke-dashoffset:0;stroke-opacity:1;paint-order:normal"
         d="m -5.8235733,302.86436 a 2.1166666,2.1306906 0 0 0 -1.5275554,0.62425 2.1166666,2.1306906 0 0 0 -0.4588867,2.32182 2.1166666,2.1306906 0 0 0 1.9554361,1.31517 v -0.002 h 3.1749999 v -0.26459 h -3.1749999 a 1.8520833,1.8643543 0 0 1 -0.1850017,-0.009 1.8520833,1.8643543 0 0 1 -0.1829345,-0.0279 1.8520833,1.8643543 0 0 1 -0.1793171,-0.046 1.8520833,1.8643543 0 0 1 -0.1741495,-0.0641 1.8520833,1.8643543 0 0 1 -0.1663983,-0.0811 1.8520833,1.8643543 0 0 1 -0.1581298,-0.0971 1.8520833,1.8643543 0 0 1 -0.147278,-0.11317 1.8520833,1.8643543 0 0 1 -0.135392,-0.12661 1.8520833,1.8643543 0 0 1 -0.1219565,-0.14004 1.8520833,1.8643543 0 0 1 -0.1080037,-0.15193 1.8520833,1.8643543 0 0 1 -0.091984,-0.16175 1.8520833,1.8643543 0 0 1 -0.060462,-0.13177 1.8520833,1.8643543 0 0 1 -0.062528,-0.1757 1.8520833,1.8643543 0 0 1 -0.044442,-0.18087 1.8520833,1.8643543 0 0 1 -0.026355,-0.18449 1.8520833,1.8643543 0 0 1 -0.00775,-0.18602 1.8520833,1.8643543 0 0 1 0.010853,-0.18603 1.8520833,1.8643543 0 0 1 0.028939,-0.18449 1.8520833,1.8643543 0 0 1 0.047025,-0.17983 1.8520833,1.8643543 0 0 1 0.064596,-0.17467 1.8520833,1.8643543 0 0 1 0.081649,-0.16743 1.8520833,1.8643543 0 0 1 0.098185,-0.15813 1.8520833,1.8643543 0 0 1 0.1131716,-0.14728 1.8520833,1.8643543 0 0 1 0.098185,-0.10697 1.8520833,1.8643543 0 0 1 0.1369425,-0.12506 1.8520833,1.8643543 0 0 1 0.1493448,-0.11058 1.8520833,1.8643543 0 0 1 0.1591636,-0.0951 1.8520833,1.8643543 0 0 1 0.1679485,-0.0786 1.8520833,1.8643543 0 0 1 0.1746662,-0.0615 1.8520833,1.8643543 0 0 1 0.1798339,-0.0434 1.8520833,1.8643543 0 0 1 0.1834515,-0.0253 1.8520833,1.8643543 0 0 1 0.1850014,-0.006 1.8520833,1.8643543 0 0 1 0.1850017,0.0119 1.8520833,1.8643543 0 0 1 0.1824177,0.0305 1.8520833,1.8643543 0 0 1 0.1788007,0.0486 1.8520833,1.8643543 0 0 1 0.135909,0.0506 1.8520833,1.8643543 0 0 1 0.1669148,0.0796 1.8520833,1.8643543 0 0 1 0.1586465,0.0966 1.8520833,1.8643543 0 0 1 0.1483114,0.11162 1.8520833,1.8643543 0 0 1 0.1364258,0.12609 1.8520833,1.8643543 0 0 1 0.12299,0.13901 1.8520833,1.8643543 0 0 1 0.1090371,0.15089 1.8520833,1.8643543 0 0 1 0.093018,0.16072 1.8520833,1.8643543 0 0 1 0.076998,0.1695 1.8520833,1.8643543 0 0 1 0.059428,0.17673 1.8520833,1.8643543 0 0 1 0.041858,0.18138 1.8520833,1.8643543 0 0 1 0.02377,0.18501 1.8520833,1.8643543 0 0 1 0.00568,0.14521 h 0.2645833 a 2.1166666,2.1306906 0 0 0 -1.3068969,-1.96836 2.1166666,2.1306906 0 0 0 -0.7787637,-0.16226 z m -0.00775,0.5364 a 1.5874999,1.5980179 0 0 0 -1.1456659,0.46767 1.5874999,1.5980179 0 0 0 -0.3441649,1.7415 1.5874999,1.5980179 0 0 0 1.4665771,0.9865 v -0.002 h 3.1749976 v -0.26458 h -3.1749999 a 1.3229166,1.3316815 0 0 1 -0.1322916,-0.007 1.3229166,1.3316815 0 0 1 -0.1307415,-0.0196 1.3229166,1.3316815 0 0 1 -0.1281576,-0.0331 1.3229166,1.3316815 0 0 1 -0.1240234,-0.0455 1.3229166,1.3316815 0 0 1 -0.1188556,-0.0584 1.3229166,1.3316815 0 0 1 -0.1126548,-0.0693 1.3229166,1.3316815 0 0 1 -0.1054198,-0.0806 1.3229166,1.3316815 0 0 1 -0.096635,-0.091 1.3229166,1.3316815 0 0 1 -0.087333,-0.0997 1.3229166,1.3316815 0 0 1 -0.076998,-0.10852 1.3229166,1.3316815 0 0 1 -0.065629,-0.11524 1.3229166,1.3316815 0 0 1 -0.043408,-0.0946 1.3229166,1.3316815 0 0 1 -0.044442,-0.12505 1.3229166,1.3316815 0 0 1 -0.032039,-0.12919 1.3229166,1.3316815 0 0 1 -0.018604,-0.13178 1.3229166,1.3316815 0 0 1 -0.00568,-0.13332 1.3229166,1.3316815 0 0 1 0.00775,-0.13281 1.3229166,1.3316815 0 0 1 0.020672,-0.13126 1.3229166,1.3316815 0 0 1 0.03359,-0.12867 1.3229166,1.3316815 0 0 1 0.045992,-0.12506 1.3229166,1.3316815 0 0 1 0.058394,-0.11937 1.3229166,1.3316815 0 0 1 0.07028,-0.11318 1.3229166,1.3316815 0 0 1 0.080615,-0.1049 1.3229166,1.3316815 0 0 1 0.07028,-0.0765 1.3229166,1.3316815 0 0 1 0.098185,-0.0894 1.3229166,1.3316815 0 0 1 0.1064532,-0.0791 1.3229166,1.3316815 0 0 1 0.1136883,-0.0677 1.3229166,1.3316815 0 0 1 0.1198893,-0.0563 1.3229166,1.3316815 0 0 1 0.1245402,-0.0439 1.3229166,1.3316815 0 0 1 0.1286743,-0.031 1.3229166,1.3316815 0 0 1 0.1312582,-0.0181 1.3229166,1.3316815 0 0 1 0.1317749,-0.005 1.3229166,1.3316815 0 0 1 0.1322917,0.009 1.3229166,1.3316815 0 0 1 0.1302244,0.0217 1.3229166,1.3316815 0 0 1 0.1276409,0.0351 1.3229166,1.3316815 0 0 1 0.097151,0.0357 1.3229166,1.3316815 0 0 1 0.1193726,0.0574 1.3229166,1.3316815 0 0 1 0.1131715,0.0687 1.3229166,1.3316815 0 0 1 0.1059366,0.0796 1.3229166,1.3316815 0 0 1 0.097152,0.0899 1.3229166,1.3316815 0 0 1 0.088367,0.0992 1.3229166,1.3316815 0 0 1 0.077515,0.108 1.3229166,1.3316815 0 0 1 0.066663,0.11472 1.3229166,1.3316815 0 0 1 0.054777,0.12144 1.3229166,1.3316815 0 0 1 0.042892,0.12609 1.3229166,1.3316815 0 0 1 0.029972,0.12919 1.3229166,1.3316815 0 0 1 0.016536,0.13229 1.3229166,1.3316815 0 0 1 0.00413,0.10387 h 0.2645831 a 1.5874999,1.5980179 0 0 0 -0.9797851,-1.47639 1.5874999,1.5980179 0 0 0 -0.5844603,-0.12144 z m -0.00775,0.5364 a 1.0583333,1.0653453 0 0 0 -0.7637761,0.31161 1.0583333,1.0653453 0 0 0 -0.2294432,1.16117 1.0583333,1.0653453 0 0 0 0.9777179,0.65784 v -0.002 h 3.1749953 v -0.26465 h -3.1749999 a 0.79374997,0.79900896 0 0 1 -0.079065,-0.004 0.79374997,0.79900896 0 0 1 -0.078548,-0.0119 0.79374997,0.79900896 0 0 1 -0.076998,-0.0196 0.79374997,0.79900896 0 0 1 -0.074414,-0.0274 0.79374997,0.79900896 0 0 1 -0.071313,-0.0346 0.79374997,0.79900896 0 0 1 -0.067696,-0.0419 0.79374997,0.79900896 0 0 1 -0.063562,-0.0481 0.79374997,0.79900896 0 0 1 -0.057878,-0.0548 0.79374997,0.79900896 0 0 1 -0.052193,-0.0599 0.79374997,0.79900896 0 0 1 -0.045992,-0.0651 0.79374997,0.79900896 0 0 1 -0.039791,-0.0692 0.79374997,0.79900896 0 0 1 -0.025839,-0.0563 0.79374997,0.79900896 0 0 1 -0.026872,-0.0755 0.79374997,0.79900896 0 0 1 -0.019119,-0.0775 0.79374997,0.79900896 0 0 1 -0.010853,-0.0791 0.79374997,0.79900896 0 0 1 -0.00362,-0.0796 0.79374997,0.79900896 0 0 1 0.00465,-0.0801 0.79374997,0.79900896 0 0 1 0.012401,-0.0786 0.79374997,0.79900896 0 0 1 0.020153,-0.0775 0.79374997,0.79900896 0 0 1 0.027905,-0.0744 0.79374997,0.79900896 0 0 1 0.034623,-0.0718 0.79374997,0.79900896 0 0 1 0.042375,-0.0677 0.79374997,0.79900896 0 0 1 0.048059,-0.0636 0.79374997,0.79900896 0 0 1 0.042375,-0.0455 0.79374997,0.79900896 0 0 1 0.058911,-0.0537 0.79374997,0.79900896 0 0 1 0.063562,-0.0476 0.79374997,0.79900896 0 0 1 0.068213,-0.0408 0.79374997,0.79900896 0 0 1 0.072347,-0.0336 0.79374997,0.79900896 0 0 1 0.074931,-0.0264 0.79374997,0.79900896 0 0 1 0.076998,-0.0186 0.79374997,0.79900896 0 0 1 0.078548,-0.0108 0.79374997,0.79900896 0 0 1 0.079065,-0.003 0.79374997,0.79900896 0 0 1 0.079582,0.005 0.79374997,0.79900896 0 0 1 0.078031,0.0129 0.79374997,0.79900896 0 0 1 0.076481,0.0212 0.79374997,0.79900896 0 0 1 0.058395,0.0217 0.79374997,0.79900896 0 0 1 0.07183,0.0341 0.79374997,0.79900896 0 0 1 0.067696,0.0413 0.79374997,0.79900896 0 0 1 0.063562,0.0475 0.79374997,0.79900896 0 0 1 0.058394,0.0543 0.79374997,0.79900896 0 0 1 0.05271,0.0594 0.79374997,0.79900896 0 0 1 0.046509,0.0646 0.79374997,0.79900896 0 0 1 0.040307,0.0692 0.79374997,0.79900896 0 0 1 0.033073,0.0723 0.79374997,0.79900896 0 0 1 0.025321,0.076 0.79374997,0.79900896 0 0 1 0.018087,0.0775 0.79374997,0.79900896 0 0 1 0.00982,0.0791 0.79374997,0.79900896 0 0 1 0.00259,0.0625 h 0.2645833 a 1.0583333,1.0653453 0 0 0 -0.6531901,-0.98443 1.0583333,1.0653453 0 0 0 -0.3896402,-0.0806 z"
         id="path835" />
    </g>
  </g>
</svg>
