<?xml version="1.0" encoding="UTF-8" standalone="no"?>
<!-- Created with Inkscape (http://www.inkscape.org/) -->

<svg
   xmlns:dc="http://purl.org/dc/elements/1.1/"
   xmlns:cc="http://creativecommons.org/ns#"
   xmlns:rdf="http://www.w3.org/1999/02/22-rdf-syntax-ns#"
   xmlns:svg="http://www.w3.org/2000/svg"
   xmlns="http://www.w3.org/2000/svg"
   xmlns:sodipodi="http://sodipodi.sourceforge.net/DTD/sodipodi-0.dtd"
   xmlns:inkscape="http://www.inkscape.org/namespaces/inkscape"
   width="32"
   height="32"
   viewBox="0 0 8.4666665 8.4666669"
   version="1.1"
   id="svg8"
   inkscape:version="0.92.3 (2405546, 2018-03-11)"
   sodipodi:docname="favorites.svg">
  <defs
     id="defs2" />
  <sodipodi:namedview
     id="base"
     pagecolor="#ffffff"
     bordercolor="#666666"
     borderopacity="1.0"
     inkscape:pageopacity="0.0"
     inkscape:pageshadow="2"
     inkscape:zoom="11.2"
     inkscape:cx="1.6814447"
     inkscape:cy="13.283898"
     inkscape:document-units="px"
     inkscape:current-layer="layer1"
     showgrid="true"
     units="px"
     inkscape:showpageshadow="false"
     inkscape:snap-bbox="true"
     inkscape:bbox-paths="true"
     inkscape:bbox-nodes="true"
     inkscape:snap-bbox-edge-midpoints="true"
     inkscape:snap-bbox-midpoints="true"
     inkscape:object-paths="true"
     inkscape:snap-intersection-paths="true"
     inkscape:window-width="1874"
     inkscape:window-height="1141"
     inkscape:window-x="46"
     inkscape:window-y="30"
     inkscape:window-maximized="1">
    <inkscape:grid
       type="xygrid"
       id="grid815" />
  </sodipodi:namedview>
  <metadata
     id="metadata5">
    <rdf:RDF>
      <cc:Work
         rdf:about="">
        <dc:format>image/svg+xml</dc:format>
        <dc:type
           rdf:resource="http://purl.org/dc/dcmitype/StillImage" />
        <dc:title></dc:title>
      </cc:Work>
    </rdf:RDF>
  </metadata>
  <g
     inkscape:label="Capa 1"
     inkscape:groupmode="layer"
     id="layer1"
     transform="translate(0,-288.53333)">
    <g
       id="g6794"
       transform="translate(5.0270834,0.52916335)">
      <path
         inkscape:connector-curvature="0"
         id="path1151-2-52"
         d="m -4.4979167,288.26875 c -0.2885755,0 -0.5291667,0.24059 -0.5291667,0.52917 v 6.87916 c 0,0.28858 0.2405881,0.52917 0.5291667,0.52917 h 7.4083333 c 0.2885787,0 0.5291667,-0.24059 0.5291667,-0.52917 v -5.82083 c 0,-0.28858 -0.2405912,-0.52917 -0.5291667,-0.52917 h -3.70416665 c -0.044097,0 -0.058041,-0.007 -0.1111043,-0.0703 -0.053063,-0.0637 -0.11523855,-0.18034 -0.18138435,-0.31264 -0.066146,-0.13229 -0.1362626,-0.2802 -0.2485636,-0.41496 -0.1123011,-0.13474 -0.2967951,-0.26043 -0.5172811,-0.26043 z"
         style="color:#000000;font-style:normal;font-variant:normal;font-weight:normal;font-stretch:normal;font-size:medium;line-height:normal;font-family:sans-serif;font-variant-ligatures:normal;font-variant-position:normal;font-variant-caps:normal;font-variant-numeric:normal;font-variant-alternates:normal;font-feature-settings:normal;text-indent:0;text-align:start;text-decoration:none;text-decoration-line:none;text-decoration-style:solid;text-decoration-color:#000000;letter-spacing:normal;word-spacing:normal;text-transform:none;writing-mode:lr-tb;direction:ltr;text-orientation:mixed;dominant-baseline:auto;baseline-shift:baseline;text-anchor:start;white-space:normal;shape-padding:0;clip-rule:nonzero;display:inline;overflow:visible;visibility:visible;opacity:1;isolation:auto;mix-blend-mode:normal;color-interpolation:sRGB;color-interpolation-filters:linearRGB;solid-color:#000000;solid-opacity:1;vector-effect:none;fill:#4f92db;fill-opacity:1;fill-rule:nonzero;stroke:none;stroke-width:0.5291667;stroke-linecap:round;stroke-linejoin:round;stroke-miterlimit:4;stroke-dasharray:none;stroke-dashoffset:0;stroke-opacity:1;color-rendering:auto;image-rendering:auto;shape-rendering:auto;text-rendering:auto;enable-background:accumulate"
         sodipodi:nodetypes="ssssssssscccss" />
      <path
         sodipodi:nodetypes="ssssssssccs"
         inkscape:connector-curvature="0"
         style="fill:#5ac0ff;fill-opacity:1;stroke-width:0.5291667;stroke-miterlimit:4;stroke-dasharray:none"
         id="path13-6-3-1-3-0-7-7-3-3-94"
         d="m -4.4979167,288.53334 c -0.1465817,0 -0.2645833,0.11799 -0.2645833,0.26458 v 6.87917 c 0,0.14658 0.1180016,0.26458 0.2645833,0.26458 h 7.4083336 c 0.1465815,0 0.2645831,-0.118 0.2645831,-0.26458 v -5.82084 c 0,-0.14658 -0.1180018,-0.26458 -0.2645831,-0.26458 h -3.70416695 c -0.52916665,0 -0.52916665,-1.05834 -1.05833335,-1.05834 z" />
      <path
         inkscape:connector-curvature="0"
         id="path1105-1-46"
         d="m -0.79375005,289.32708 c -0.22048605,0 -0.41123895,0.14535 -0.50126135,0.28939 -0.090023,0.14404 -0.1300009,0.2881 -0.1762167,0.41135 -0.046216,0.12324 -0.095339,0.22076 -0.1462442,0.27388 -0.050906,0.0531 -0.09497,0.0837 -0.2346111,0.0837 h -2.6458333 c -0.2885755,0 -0.5291667,0.24058 -0.5291667,0.52916 v 4.7625 c 0,0.28858 0.2405881,0.52917 0.5291667,0.52917 h 7.4083333 c 0.2885787,0 0.5291667,-0.24059 0.5291667,-0.52917 v -5.82083 c 0,-0.28858 -0.2405912,-0.52917 -0.5291667,-0.52917 z"
         style="color:#000000;font-style:normal;font-variant:normal;font-weight:normal;font-stretch:normal;font-size:medium;line-height:normal;font-family:sans-serif;font-variant-ligatures:normal;font-variant-position:normal;font-variant-caps:normal;font-variant-numeric:normal;font-variant-alternates:normal;font-feature-settings:normal;text-indent:0;text-align:start;text-decoration:none;text-decoration-line:none;text-decoration-style:solid;text-decoration-color:#000000;letter-spacing:normal;word-spacing:normal;text-transform:none;writing-mode:lr-tb;direction:ltr;text-orientation:mixed;dominant-baseline:auto;baseline-shift:baseline;text-anchor:start;white-space:normal;shape-padding:0;clip-rule:nonzero;display:inline;overflow:visible;visibility:visible;opacity:1;isolation:auto;mix-blend-mode:normal;color-interpolation:sRGB;color-interpolation-filters:linearRGB;solid-color:#000000;solid-opacity:1;vector-effect:none;fill:#4f92db;fill-opacity:1;fill-rule:nonzero;stroke:none;stroke-width:0.5291667;stroke-linecap:butt;stroke-linejoin:miter;stroke-miterlimit:4;stroke-dasharray:none;stroke-dashoffset:0;stroke-opacity:1;color-rendering:auto;image-rendering:auto;shape-rendering:auto;text-rendering:auto;enable-background:accumulate"
         sodipodi:nodetypes="scccssssssssss" />
      <path
         d="m -4.4979167,290.65 c -0.1465818,0 -0.2645833,0.118 -0.2645833,0.26458 v 4.7625 c 0,0.14658 0.1180015,0.26458 0.2645833,0.26458 h 7.4083336 c 0.1465815,0 0.2645831,-0.118 0.2645831,-0.26458 v -5.82083 c 0,-0.14658 -0.1180018,-0.26458 -0.2645831,-0.26458 l -3.70416695,-1e-5 c -0.52916665,0 -0.26458335,1.05834 -1.05833335,1.05834 z"
         id="path13-6-3-1-3-0-7-7-9-2-8-76"
         style="fill:#5ac0ff;fill-opacity:1;stroke:none;stroke-width:0.5291667;stroke-miterlimit:4;stroke-dasharray:none;stroke-opacity:1"
         inkscape:connector-curvature="0"
         sodipodi:nodetypes="ssssssssccs" />
      <path
         sodipodi:nodetypes="scccccccccscs"
         inkscape:connector-curvature="0"
         id="rect880-7"
         d="m -1.5875003,291.4438 c -0.5689629,0 -1.0263552,0.4456 -1.0531657,1.00769 -0.00335,0.0167 -0.00508,0.0336 -0.00517,0.0506 0,0.54387 0.3846834,1.02202 0.7637776,1.43558 0.3790943,0.41355 0.800127,0.76705 0.90123735,0.86816 0.1033277,0.10328 0.2708092,0.10328 0.3741372,0 0.10111,-0.10111 0.5221428,-0.45461 0.9012357,-0.86816 0.379095,-0.41356 0.76377795,-0.89171 0.76377795,-1.43558 4.44e-5,-0.0177 -0.00169,-0.0353 -0.00518,-0.0527 v -4.8e-4 c -0.028105,-0.56085 -0.48507955,-1.00509 -1.053164853125,-1.00509 -0.318649396875,0 -0.600044096875,0.14238 -0.793749996875,0.3638 -0.1937062,-0.22142 -0.47510075,-0.3638 -0.79375005,-0.3638 z"
         style="opacity:0.97000002;vector-effect:none;fill:#e5f9ff;fill-opacity:1;stroke:none;stroke-width:0.5291667;stroke-linecap:round;stroke-linejoin:round;stroke-miterlimit:4;stroke-dasharray:none;stroke-dashoffset:0;stroke-opacity:1" />
    </g>
  </g>
</svg>
