<?xml version="1.0" encoding="UTF-8" standalone="no"?>
<!-- Created with Inkscape (http://www.inkscape.org/) -->

<svg
   xmlns:dc="http://purl.org/dc/elements/1.1/"
   xmlns:cc="http://creativecommons.org/ns#"
   xmlns:rdf="http://www.w3.org/1999/02/22-rdf-syntax-ns#"
   xmlns:svg="http://www.w3.org/2000/svg"
   xmlns="http://www.w3.org/2000/svg"
   xmlns:sodipodi="http://sodipodi.sourceforge.net/DTD/sodipodi-0.dtd"
   xmlns:inkscape="http://www.inkscape.org/namespaces/inkscape"
   width="32"
   height="32"
   viewBox="0 0 8.4666665 8.4666669"
   version="1.1"
   id="svg8"
   inkscape:version="0.92.3 (2405546, 2018-03-11)"
   sodipodi:docname="folder-locked.svg">
  <defs
     id="defs2" />
  <sodipodi:namedview
     id="base"
     pagecolor="#ffffff"
     bordercolor="#666666"
     borderopacity="1.0"
     inkscape:pageopacity="0.0"
     inkscape:pageshadow="2"
     inkscape:zoom="11.2"
     inkscape:cx="1.6814447"
     inkscape:cy="13.283898"
     inkscape:document-units="px"
     inkscape:current-layer="layer1"
     showgrid="true"
     units="px"
     inkscape:showpageshadow="false"
     inkscape:snap-bbox="true"
     inkscape:bbox-paths="true"
     inkscape:bbox-nodes="true"
     inkscape:snap-bbox-edge-midpoints="true"
     inkscape:snap-bbox-midpoints="true"
     inkscape:object-paths="true"
     inkscape:snap-intersection-paths="true"
     inkscape:window-width="1874"
     inkscape:window-height="1141"
     inkscape:window-x="46"
     inkscape:window-y="30"
     inkscape:window-maximized="1">
    <inkscape:grid
       type="xygrid"
       id="grid815" />
  </sodipodi:namedview>
  <metadata
     id="metadata5">
    <rdf:RDF>
      <cc:Work
         rdf:about="">
        <dc:format>image/svg+xml</dc:format>
        <dc:type
           rdf:resource="http://purl.org/dc/dcmitype/StillImage" />
        <dc:title></dc:title>
      </cc:Work>
    </rdf:RDF>
  </metadata>
  <g
     inkscape:label="Capa 1"
     inkscape:groupmode="layer"
     id="layer1"
     transform="translate(0,-288.53333)">
    <g
       id="g25647"
       transform="translate(2.3812497,2.1166633)">
      <path
         sodipodi:nodetypes="ssssssssscccss"
         style="color:#000000;font-style:normal;font-variant:normal;font-weight:normal;font-stretch:normal;font-size:medium;line-height:normal;font-family:sans-serif;font-variant-ligatures:normal;font-variant-position:normal;font-variant-caps:normal;font-variant-numeric:normal;font-variant-alternates:normal;font-feature-settings:normal;text-indent:0;text-align:start;text-decoration:none;text-decoration-line:none;text-decoration-style:solid;text-decoration-color:#000000;letter-spacing:normal;word-spacing:normal;text-transform:none;writing-mode:lr-tb;direction:ltr;text-orientation:mixed;dominant-baseline:auto;baseline-shift:baseline;text-anchor:start;white-space:normal;shape-padding:0;clip-rule:nonzero;display:inline;overflow:visible;visibility:visible;opacity:1;isolation:auto;mix-blend-mode:normal;color-interpolation:sRGB;color-interpolation-filters:linearRGB;solid-color:#000000;solid-opacity:1;vector-effect:none;fill:#4f92db;fill-opacity:1;fill-rule:nonzero;stroke:none;stroke-width:0.5291667;stroke-linecap:round;stroke-linejoin:round;stroke-miterlimit:4;stroke-dasharray:none;stroke-dashoffset:0;stroke-opacity:1;color-rendering:auto;image-rendering:auto;shape-rendering:auto;text-rendering:auto;enable-background:accumulate"
         d="m -1.8520831,286.68125 c -0.2885755,0 -0.5291666,0.24059 -0.5291666,0.52917 v 6.87916 c 0,0.28858 0.240588,0.52917 0.5291666,0.52917 h 7.4083334 c 0.2885787,0 0.5291667,-0.24059 0.5291667,-0.52917 v -5.82083 c 0,-0.28858 -0.2405912,-0.52917 -0.5291667,-0.52917 H 1.8520836 c -0.044097,0 -0.058041,-0.007 -0.1111043,-0.0703 -0.053063,-0.0637 -0.1152385,-0.18034 -0.1813843,-0.31264 -0.066146,-0.13229 -0.1362626,-0.2802 -0.2485636,-0.41496 -0.1123011,-0.13474 -0.2967951,-0.26043 -0.51728114,-0.26043 z"
         id="path1151-2-1"
         inkscape:connector-curvature="0" />
      <path
         d="m -1.8520828,286.94584 c -0.1465817,0 -0.2645833,0.11799 -0.2645833,0.26458 v 6.87917 c 0,0.14658 0.1180016,0.26458 0.2645833,0.26458 h 7.4083337 c 0.1465815,0 0.264583,-0.118 0.264583,-0.26458 v -5.82084 c 0,-0.14658 -0.1180018,-0.26458 -0.264583,-0.26458 h -3.704167 c -0.5291667,0 -0.5291667,-1.05834 -1.05833334,-1.05834 z"
         id="path13-6-3-1-3-0-7-7-3-3-13"
         style="fill:#5ac0ff;fill-opacity:1;stroke-width:0.5291667;stroke-miterlimit:4;stroke-dasharray:none"
         inkscape:connector-curvature="0"
         sodipodi:nodetypes="ssssssssccs" />
      <path
         sodipodi:nodetypes="scccssssssssss"
         style="color:#000000;font-style:normal;font-variant:normal;font-weight:normal;font-stretch:normal;font-size:medium;line-height:normal;font-family:sans-serif;font-variant-ligatures:normal;font-variant-position:normal;font-variant-caps:normal;font-variant-numeric:normal;font-variant-alternates:normal;font-feature-settings:normal;text-indent:0;text-align:start;text-decoration:none;text-decoration-line:none;text-decoration-style:solid;text-decoration-color:#000000;letter-spacing:normal;word-spacing:normal;text-transform:none;writing-mode:lr-tb;direction:ltr;text-orientation:mixed;dominant-baseline:auto;baseline-shift:baseline;text-anchor:start;white-space:normal;shape-padding:0;clip-rule:nonzero;display:inline;overflow:visible;visibility:visible;opacity:1;isolation:auto;mix-blend-mode:normal;color-interpolation:sRGB;color-interpolation-filters:linearRGB;solid-color:#000000;solid-opacity:1;vector-effect:none;fill:#4f92db;fill-opacity:1;fill-rule:nonzero;stroke:none;stroke-width:0.5291667;stroke-linecap:butt;stroke-linejoin:miter;stroke-miterlimit:4;stroke-dasharray:none;stroke-dashoffset:0;stroke-opacity:1;color-rendering:auto;image-rendering:auto;shape-rendering:auto;text-rendering:auto;enable-background:accumulate"
         d="m 1.8520836,287.73958 c -0.220486,0 -0.4112389,0.14535 -0.5012613,0.28939 -0.090023,0.14404 -0.1300009,0.2881 -0.1762167,0.41135 -0.046216,0.12324 -0.095339,0.22076 -0.1462442,0.27388 -0.0509059,0.0531 -0.0949698,0.0837 -0.23461114,0.0837 H -1.8520831 c -0.2885755,0 -0.5291666,0.24058 -0.5291666,0.52916 v 4.7625 c 0,0.28858 0.240588,0.52917 0.5291666,0.52917 h 7.4083334 c 0.2885787,0 0.5291667,-0.24059 0.5291667,-0.52917 v -5.82083 c 0,-0.28858 -0.2405912,-0.52917 -0.5291667,-0.52917 z"
         id="path1105-1-30"
         inkscape:connector-curvature="0" />
      <path
         sodipodi:nodetypes="ssssssssccs"
         inkscape:connector-curvature="0"
         style="fill:#5ac0ff;fill-opacity:1;stroke:none;stroke-width:0.5291667;stroke-miterlimit:4;stroke-dasharray:none;stroke-opacity:1"
         id="path13-6-3-1-3-0-7-7-9-2-8-00"
         d="m -1.8520828,289.0625 c -0.1465818,0 -0.2645833,0.118 -0.2645833,0.26458 v 4.76251 c 0,0.14658 0.1180015,0.26458 0.2645833,0.26458 h 7.4083337 c 0.1465815,0 0.264583,-0.118 0.264583,-0.26458 v -5.82084 c 0,-0.14658 -0.1180018,-0.26458 -0.264583,-0.26458 h -3.704167 c -0.5291667,0 -0.2645833,1.05833 -1.05833334,1.05833 z" />
      <path
         id="rect4165"
         d="m 1.8520839,289.85625 c -0.5863167,0 -1.05833334,0.47202 -1.05833334,1.05833 v 0.26459 c -0.1465792,0 -0.2645834,0.118 -0.2645834,0.26458 v 1.5875 c 0,0.14658 0.1180042,0.26458 0.2645834,0.26458 H 2.9104173 c 0.1465791,0 0.2645833,-0.118 0.2645833,-0.26458 v -1.5875 c 0,-0.14658 -0.1180042,-0.26458 -0.2645833,-0.26458 v -0.26459 c 0,-0.58631 -0.4720167,-1.05833 -1.0583334,-1.05833 z m 0,0.52917 c 0.2931583,0 0.5291667,0.23601 0.5291667,0.52916 v 0.26459 H 1.3229172 v -0.26459 c 0,-0.29315 0.2360084,-0.52916 0.5291667,-0.52916 z m 0,1.05833 c 0.2931583,0 0.5291667,0.23601 0.5291667,0.52917 0,0.19607 -0.1069449,0.36487 -0.2645834,0.4563 v 0.60203 H 1.5875006 v -0.60203 c -0.1576385,-0.0914 -0.2645834,-0.26023 -0.2645834,-0.4563 0,-0.29316 0.2360084,-0.52917 0.5291667,-0.52917 z"
         style="opacity:1;fill:#e5f9ff;fill-opacity:1;stroke:none;stroke-width:0.5291667;stroke-linecap:round;stroke-linejoin:round;stroke-miterlimit:4;stroke-dasharray:none;stroke-opacity:1"
         inkscape:connector-curvature="0" />
    </g>
  </g>
</svg>
