<?xml version="1.0" encoding="UTF-8" standalone="no"?>
<!-- Created with Inkscape (http://www.inkscape.org/) -->

<svg
   width="32"
   height="32"
   viewBox="0 0 8.4666665 8.4666669"
   version="1.1"
   id="svg8"
   inkscape:version="1.2.1 (9c6d41e410, 2022-07-14)"
   sodipodi:docname="network-workgroup.svg"
   xmlns:inkscape="http://www.inkscape.org/namespaces/inkscape"
   xmlns:sodipodi="http://sodipodi.sourceforge.net/DTD/sodipodi-0.dtd"
   xmlns:xlink="http://www.w3.org/1999/xlink"
   xmlns="http://www.w3.org/2000/svg"
   xmlns:svg="http://www.w3.org/2000/svg"
   xmlns:rdf="http://www.w3.org/1999/02/22-rdf-syntax-ns#"
   xmlns:cc="http://creativecommons.org/ns#"
   xmlns:dc="http://purl.org/dc/elements/1.1/">
  <defs
     id="defs2">
    <linearGradient
       inkscape:collect="always"
       xlink:href="#linearGradient2969"
       id="linearGradient2971"
       x1="-1.0583333"
       y1="290.12082"
       x2="-1.0583333"
       y2="288.26874"
       gradientUnits="userSpaceOnUse"
       gradientTransform="translate(2.38125,0.2645867)" />
    <linearGradient
       inkscape:collect="always"
       id="linearGradient2969">
      <stop
         style="stop-color:#4c9fee;stop-opacity:1;"
         offset="0"
         id="stop2965" />
      <stop
         style="stop-color:#2e8be8;stop-opacity:1;"
         offset="1"
         id="stop2967" />
    </linearGradient>
  </defs>
  <sodipodi:namedview
     id="base"
     pagecolor="#ffffff"
     bordercolor="#666666"
     borderopacity="1.0"
     inkscape:pageopacity="0.0"
     inkscape:pageshadow="2"
     inkscape:zoom="22.4"
     inkscape:cx="15.46875"
     inkscape:cy="16.272321"
     inkscape:document-units="px"
     inkscape:current-layer="layer1"
     showgrid="true"
     units="px"
     inkscape:showpageshadow="false"
     inkscape:snap-bbox="true"
     inkscape:bbox-paths="true"
     inkscape:bbox-nodes="true"
     inkscape:snap-bbox-edge-midpoints="true"
     inkscape:snap-bbox-midpoints="true"
     inkscape:object-paths="true"
     inkscape:snap-intersection-paths="true"
     inkscape:window-width="2160"
     inkscape:window-height="1335"
     inkscape:window-x="0"
     inkscape:window-y="0"
     inkscape:window-maximized="1"
     inkscape:pagecheckerboard="0"
     inkscape:deskcolor="#d1d1d1">
    <inkscape:grid
       type="xygrid"
       id="grid815" />
  </sodipodi:namedview>
  <metadata
     id="metadata5">
    <rdf:RDF>
      <cc:Work
         rdf:about="">
        <dc:format>image/svg+xml</dc:format>
        <dc:type
           rdf:resource="http://purl.org/dc/dcmitype/StillImage" />
        <dc:title />
      </cc:Work>
    </rdf:RDF>
  </metadata>
  <g
     inkscape:label="Capa 1"
     inkscape:groupmode="layer"
     id="layer1"
     transform="translate(0,-288.53333)">
    <g
       id="g4712"
       transform="translate(0.79375004,0.52916167)">
      <path
         sodipodi:nodetypes="ssssssssscccss"
         style="color:#000000;font-style:normal;font-variant:normal;font-weight:normal;font-stretch:normal;font-size:medium;line-height:normal;font-family:sans-serif;font-variant-ligatures:normal;font-variant-position:normal;font-variant-caps:normal;font-variant-numeric:normal;font-variant-alternates:normal;font-feature-settings:normal;text-indent:0;text-align:start;text-decoration:none;text-decoration-line:none;text-decoration-style:solid;text-decoration-color:#000000;letter-spacing:normal;word-spacing:normal;text-transform:none;writing-mode:lr-tb;direction:ltr;text-orientation:mixed;dominant-baseline:auto;baseline-shift:baseline;text-anchor:start;white-space:normal;shape-padding:0;clip-rule:nonzero;display:inline;overflow:visible;visibility:visible;isolation:auto;mix-blend-mode:normal;color-interpolation:sRGB;color-interpolation-filters:linearRGB;solid-color:#000000;solid-opacity:1;vector-effect:none;fill:#286bb2;fill-opacity:1;fill-rule:nonzero;stroke:none;stroke-width:0.529167;stroke-linecap:round;stroke-linejoin:round;stroke-miterlimit:4;stroke-dasharray:none;stroke-dashoffset:0;stroke-opacity:1;color-rendering:auto;image-rendering:auto;shape-rendering:auto;text-rendering:auto;enable-background:accumulate"
         d="m -0.2645833,288.26875 c -0.2885755,0 -0.5291667,0.24059 -0.5291667,0.52917 v 6.87916 c 0,0.28858 0.240588,0.52917 0.5291667,0.52917 H 7.14375 c 0.2885787,0 0.5291667,-0.24059 0.5291667,-0.52917 v -5.82083 c 0,-0.28858 -0.2405912,-0.52917 -0.5291667,-0.52917 H 3.4395833 c -0.044097,0 -0.058041,-0.007 -0.1111043,-0.0703 -0.053063,-0.0637 -0.1152385,-0.18034 -0.1813843,-0.31264 -0.066146,-0.13229 -0.1362626,-0.2802 -0.2485636,-0.41496 C 2.78623,288.39444 2.601736,288.26875 2.38125,288.26875 Z"
         id="path1151-2"
         inkscape:connector-curvature="0" />
      <path
         d="m -0.2645834,288.53334 c -0.1465817,0 -0.2645833,0.11799 -0.2645833,0.26458 v 6.87917 c 0,0.14658 0.1180016,0.26458 0.2645833,0.26458 h 7.4083337 c 0.1465815,0 0.2645831,-0.118 0.2645831,-0.26458 v -5.82084 c 0,-0.14658 -0.1180018,-0.26458 -0.2645831,-0.26458 h -3.704167 c -0.5291666,0 -0.5291666,-1.05834 -1.0583333,-1.05834 z"
         id="path13-6-3-1-3-0-7-7-3-3"
         style="fill:url(#linearGradient2971);fill-opacity:1;stroke-width:0.529167;stroke-miterlimit:4;stroke-dasharray:none"
         inkscape:connector-curvature="0"
         sodipodi:nodetypes="ssssssssccs" />
      <path
         sodipodi:nodetypes="scccssssssssss"
         style="color:#000000;font-style:normal;font-variant:normal;font-weight:normal;font-stretch:normal;font-size:medium;line-height:normal;font-family:sans-serif;font-variant-ligatures:normal;font-variant-position:normal;font-variant-caps:normal;font-variant-numeric:normal;font-variant-alternates:normal;font-feature-settings:normal;text-indent:0;text-align:start;text-decoration:none;text-decoration-line:none;text-decoration-style:solid;text-decoration-color:#000000;letter-spacing:normal;word-spacing:normal;text-transform:none;writing-mode:lr-tb;direction:ltr;text-orientation:mixed;dominant-baseline:auto;baseline-shift:baseline;text-anchor:start;white-space:normal;shape-padding:0;clip-rule:nonzero;display:inline;overflow:visible;visibility:visible;isolation:auto;mix-blend-mode:normal;color-interpolation:sRGB;color-interpolation-filters:linearRGB;solid-color:#000000;solid-opacity:1;vector-effect:none;fill:#3182d9;fill-opacity:1;fill-rule:nonzero;stroke:none;stroke-width:0.529167;stroke-linecap:butt;stroke-linejoin:miter;stroke-miterlimit:4;stroke-dasharray:none;stroke-dashoffset:0;stroke-opacity:1;color-rendering:auto;image-rendering:auto;shape-rendering:auto;text-rendering:auto;enable-background:accumulate"
         d="m 3.4395833,289.32708 c -0.220486,0 -0.4112389,0.14535 -0.5012613,0.28939 -0.090023,0.14404 -0.1300009,0.2881 -0.1762167,0.41135 -0.046216,0.12324 -0.095339,0.22076 -0.1462442,0.27388 -0.050906,0.0531 -0.09497,0.0837 -0.2346111,0.0837 h -2.6458333 c -0.2885755,0 -0.5291667,0.24058 -0.5291667,0.52916 v 4.7625 c 0,0.28858 0.240588,0.52917 0.5291667,0.52917 H 7.14375 c 0.2885787,0 0.5291667,-0.24059 0.5291667,-0.52917 v -5.82083 c 0,-0.28858 -0.2405912,-0.52917 -0.5291667,-0.52917 z"
         id="path1105-1"
         inkscape:connector-curvature="0" />
      <path
         sodipodi:nodetypes="ssssssssccs"
         inkscape:connector-curvature="0"
         style="fill:#50c1f9;fill-opacity:1;stroke:none;stroke-width:0.529167;stroke-miterlimit:4;stroke-dasharray:none;stroke-opacity:1"
         id="path13-6-3-1-3-0-7-7-9-2-8"
         d="m -0.2645833,290.65 c -0.1465819,0 -0.2645834,0.118 -0.2645834,0.26458 v 4.76251 c 0,0.14658 0.1180015,0.26458 0.2645834,0.26458 h 7.4083336 c 0.1465815,0 0.2645831,-0.118 0.2645831,-0.26458 v -5.82084 c 0,-0.14658 -0.1180018,-0.26458 -0.2645831,-0.26458 H 3.4395833 C 2.9104167,289.59167 3.175,290.65 2.38125,290.65 Z" />
    </g>
    <path
       id="path10038"
       class="ColorScheme-Text"
       style="color:#122036;opacity:0.99;fill:#e7f9ff;fill-opacity:1;stroke:none;stroke-width:0.264583"
       d="m 2.6458333,291.97292 c -0.1465791,0 -0.2645836,0.118 -0.2645836,0.26458 l 2e-7,2.91041 c 0,0.14658 0.1180045,0.26459 0.2645836,0.26459 h 0.5291664 l 0.2645837,-1e-5 h 1.5875 l 0.264583,1e-5 h 0.5291667 c 0.1465792,0 0.2645833,-0.11801 0.2645833,-0.26459 l -2e-7,-2.91041 c 0,-0.14658 -0.1180041,-0.26458 -0.2645833,-0.26458 z m 0.2645834,0.52916 h 2.6458331 l 2e-7,2.11666 H 4.7625 v 0.26459 H 3.7041667 l 2e-7,-0.26459 h -0.79375 z m 0.264583,0.52917 v 0.79375 h 0.529167 v -0.79375 z m 0.7937501,0 v 0.79375 h 0.5291666 v -0.79375 z m 0.79375,0 v 0.79375 h 0.5291666 v -0.79375 z"
       inkscape:connector-curvature="0"
       sodipodi:nodetypes="ssssccccssssscccccccccccccccccccccccc" />
  </g>
</svg>
