<?xml version="1.0" encoding="UTF-8" standalone="no"?>
<!-- Created with Inkscape (http://www.inkscape.org/) -->

<svg
   width="32"
   height="32"
   viewBox="0 0 8.4666662 8.4666664"
   version="1.1"
   id="svg1399"
   inkscape:version="1.2.1 (9c6d41e410, 2022-07-14)"
   sodipodi:docname="folder-torrents.svg"
   xmlns:inkscape="http://www.inkscape.org/namespaces/inkscape"
   xmlns:sodipodi="http://sodipodi.sourceforge.net/DTD/sodipodi-0.dtd"
   xmlns:xlink="http://www.w3.org/1999/xlink"
   xmlns="http://www.w3.org/2000/svg"
   xmlns:svg="http://www.w3.org/2000/svg"
   xmlns:rdf="http://www.w3.org/1999/02/22-rdf-syntax-ns#"
   xmlns:cc="http://creativecommons.org/ns#"
   xmlns:dc="http://purl.org/dc/elements/1.1/">
  <defs
     id="defs1393">
    <linearGradient
       inkscape:collect="always"
       xlink:href="#linearGradient2969"
       id="linearGradient2971"
       x1="-1.0583333"
       y1="290.12082"
       x2="-1.0583333"
       y2="288.26874"
       gradientUnits="userSpaceOnUse"
       gradientTransform="translate(4.1860861,0.38747879)" />
    <linearGradient
       inkscape:collect="always"
       id="linearGradient2969">
      <stop
         style="stop-color:#4c9fee;stop-opacity:1;"
         offset="0"
         id="stop2965" />
      <stop
         style="stop-color:#2e8be8;stop-opacity:1;"
         offset="1"
         id="stop2967" />
    </linearGradient>
  </defs>
  <sodipodi:namedview
     id="base"
     pagecolor="#ffffff"
     bordercolor="#666666"
     borderopacity="1.0"
     inkscape:pageopacity="0.0"
     inkscape:pageshadow="2"
     inkscape:zoom="11.2"
     inkscape:cx="-2.7232143"
     inkscape:cy="5.0446429"
     inkscape:document-units="px"
     inkscape:current-layer="layer1"
     showgrid="false"
     inkscape:showpageshadow="false"
     units="px"
     inkscape:window-width="2160"
     inkscape:window-height="1335"
     inkscape:window-x="0"
     inkscape:window-y="0"
     inkscape:window-maximized="1"
     inkscape:pagecheckerboard="0"
     inkscape:deskcolor="#d1d1d1" />
  <metadata
     id="metadata1396">
    <rdf:RDF>
      <cc:Work
         rdf:about="">
        <dc:format>image/svg+xml</dc:format>
        <dc:type
           rdf:resource="http://purl.org/dc/dcmitype/StillImage" />
        <dc:title />
      </cc:Work>
    </rdf:RDF>
  </metadata>
  <g
     inkscape:label="Capa 1"
     inkscape:groupmode="layer"
     id="layer1"
     transform="translate(0,-288.53338)">
    <g
       id="g8813"
       transform="translate(-1.0110861,0.40632332)">
      <path
         sodipodi:nodetypes="ssssssssscccss"
         style="color:#000000;font-style:normal;font-variant:normal;font-weight:normal;font-stretch:normal;font-size:medium;line-height:normal;font-family:sans-serif;font-variant-ligatures:normal;font-variant-position:normal;font-variant-caps:normal;font-variant-numeric:normal;font-variant-alternates:normal;font-feature-settings:normal;text-indent:0;text-align:start;text-decoration:none;text-decoration-line:none;text-decoration-style:solid;text-decoration-color:#000000;letter-spacing:normal;word-spacing:normal;text-transform:none;writing-mode:lr-tb;direction:ltr;text-orientation:mixed;dominant-baseline:auto;baseline-shift:baseline;text-anchor:start;white-space:normal;shape-padding:0;clip-rule:nonzero;display:inline;overflow:visible;visibility:visible;isolation:auto;mix-blend-mode:normal;color-interpolation:sRGB;color-interpolation-filters:linearRGB;solid-color:#000000;solid-opacity:1;vector-effect:none;fill:#286bb2;fill-opacity:1;fill-rule:nonzero;stroke:none;stroke-width:0.529167;stroke-linecap:round;stroke-linejoin:round;stroke-miterlimit:4;stroke-dasharray:none;stroke-dashoffset:0;stroke-opacity:1;color-rendering:auto;image-rendering:auto;shape-rendering:auto;text-rendering:auto;enable-background:accumulate"
         d="m 1.5402528,288.39164 c -0.2885755,0 -0.5291667,0.24059 -0.5291667,0.52917 v 6.87916 c 0,0.28858 0.240588,0.52917 0.5291667,0.52917 h 7.4083333 c 0.2885787,0 0.5291667,-0.24059 0.5291667,-0.52917 v -5.82083 c 0,-0.28858 -0.2405912,-0.52917 -0.5291667,-0.52917 H 5.2444194 c -0.044097,0 -0.058041,-0.007 -0.1111043,-0.0703 -0.053063,-0.0637 -0.1152385,-0.18034 -0.1813843,-0.31264 -0.066146,-0.13229 -0.1362626,-0.2802 -0.2485636,-0.41496 -0.1123011,-0.13474 -0.2967951,-0.26043 -0.5172811,-0.26043 z"
         id="path1151-2"
         inkscape:connector-curvature="0" />
      <path
         d="m 1.5402527,288.65623 c -0.1465817,0 -0.2645833,0.11799 -0.2645833,0.26458 v 6.87917 c 0,0.14658 0.1180016,0.26458 0.2645833,0.26458 h 7.4083337 c 0.1465815,0 0.2645831,-0.118 0.2645831,-0.26458 v -5.82084 c 0,-0.14658 -0.1180018,-0.26458 -0.2645831,-0.26458 h -3.704167 c -0.5291666,0 -0.5291666,-1.05834 -1.0583333,-1.05834 z"
         id="path13-6-3-1-3-0-7-7-3-3"
         style="fill:url(#linearGradient2971);fill-opacity:1;stroke-width:0.529167;stroke-miterlimit:4;stroke-dasharray:none"
         inkscape:connector-curvature="0"
         sodipodi:nodetypes="ssssssssccs" />
      <path
         sodipodi:nodetypes="scccssssssssss"
         style="color:#000000;font-style:normal;font-variant:normal;font-weight:normal;font-stretch:normal;font-size:medium;line-height:normal;font-family:sans-serif;font-variant-ligatures:normal;font-variant-position:normal;font-variant-caps:normal;font-variant-numeric:normal;font-variant-alternates:normal;font-feature-settings:normal;text-indent:0;text-align:start;text-decoration:none;text-decoration-line:none;text-decoration-style:solid;text-decoration-color:#000000;letter-spacing:normal;word-spacing:normal;text-transform:none;writing-mode:lr-tb;direction:ltr;text-orientation:mixed;dominant-baseline:auto;baseline-shift:baseline;text-anchor:start;white-space:normal;shape-padding:0;clip-rule:nonzero;display:inline;overflow:visible;visibility:visible;isolation:auto;mix-blend-mode:normal;color-interpolation:sRGB;color-interpolation-filters:linearRGB;solid-color:#000000;solid-opacity:1;vector-effect:none;fill:#3182d9;fill-opacity:1;fill-rule:nonzero;stroke:none;stroke-width:0.529167;stroke-linecap:butt;stroke-linejoin:miter;stroke-miterlimit:4;stroke-dasharray:none;stroke-dashoffset:0;stroke-opacity:1;color-rendering:auto;image-rendering:auto;shape-rendering:auto;text-rendering:auto;enable-background:accumulate"
         d="m 5.2444194,289.44997 c -0.220486,0 -0.4112389,0.14535 -0.5012613,0.28939 -0.090023,0.14404 -0.1300009,0.2881 -0.1762167,0.41135 -0.046216,0.12324 -0.095339,0.22076 -0.1462442,0.27388 -0.050906,0.0531 -0.09497,0.0837 -0.2346111,0.0837 H 1.5402528 c -0.2885755,0 -0.5291667,0.24058 -0.5291667,0.52916 v 4.7625 c 0,0.28858 0.240588,0.52917 0.5291667,0.52917 h 7.4083333 c 0.2885787,0 0.5291667,-0.24059 0.5291667,-0.52917 v -5.82083 c 0,-0.28858 -0.2405912,-0.52917 -0.5291667,-0.52917 z"
         id="path1105-1"
         inkscape:connector-curvature="0" />
      <path
         sodipodi:nodetypes="ssssssssccs"
         inkscape:connector-curvature="0"
         style="fill:#50c1f9;fill-opacity:1;stroke:none;stroke-width:0.529167;stroke-miterlimit:4;stroke-dasharray:none;stroke-opacity:1"
         id="path13-6-3-1-3-0-7-7-9-2-8"
         d="m 1.5402528,290.77289 c -0.1465819,0 -0.2645834,0.118 -0.2645834,0.26458 v 4.76251 c 0,0.14658 0.1180015,0.26458 0.2645834,0.26458 h 7.4083336 c 0.1465815,0 0.2645831,-0.118 0.2645831,-0.26458 v -5.82084 c 0,-0.14658 -0.1180018,-0.26458 -0.2645831,-0.26458 h -3.704167 c -0.5291666,0 -0.2645833,1.05833 -1.0583333,1.05833 z" />
    </g>
    <path
       inkscape:connector-curvature="0"
       style="vector-effect:none;fill:#e5f9ff;fill-opacity:1;stroke:none;stroke-width:0.533207;stroke-linecap:round;stroke-linejoin:round;stroke-miterlimit:4;stroke-dasharray:none;stroke-dashoffset:0;stroke-opacity:1;paint-order:normal"
       d="m 5.058089,291.68202 a 2.1166666,2.1306906 0 0 0 -1.527555,0.62425 2.1166666,2.1306906 0 0 0 -0.458887,2.32182 2.1166666,2.1306906 0 0 0 1.955436,1.31517 v -0.002 h 3.1750004 v -0.26459 H 5.027083 a 1.8520833,1.8643543 0 0 1 -0.185001,-0.009 1.8520833,1.8643543 0 0 1 -0.182935,-0.0279 1.8520833,1.8643543 0 0 1 -0.179317,-0.046 1.8520833,1.8643543 0 0 1 -0.174149,-0.0641 1.8520833,1.8643543 0 0 1 -0.166399,-0.0811 1.8520833,1.8643543 0 0 1 -0.158129,-0.0971 1.8520833,1.8643543 0 0 1 -0.147278,-0.11317 1.8520833,1.8643543 0 0 1 -0.135392,-0.12661 1.8520833,1.8643543 0 0 1 -0.121957,-0.14004 1.8520833,1.8643543 0 0 1 -0.108004,-0.15193 1.8520833,1.8643543 0 0 1 -0.09198,-0.16175 1.8520833,1.8643543 0 0 1 -0.06046,-0.13177 1.8520833,1.8643543 0 0 1 -0.06253,-0.1757 1.8520833,1.8643543 0 0 1 -0.04444,-0.18087 1.8520833,1.8643543 0 0 1 -0.02636,-0.18449 1.8520833,1.8643543 0 0 1 -0.0077,-0.18602 1.8520833,1.8643543 0 0 1 0.01085,-0.18603 1.8520833,1.8643543 0 0 1 0.02894,-0.18449 1.8520833,1.8643543 0 0 1 0.04702,-0.17983 1.8520833,1.8643543 0 0 1 0.0646,-0.17467 1.8520833,1.8643543 0 0 1 0.08165,-0.16743 1.8520833,1.8643543 0 0 1 0.09818,-0.15813 1.8520833,1.8643543 0 0 1 0.113172,-0.14728 1.8520833,1.8643543 0 0 1 0.09818,-0.10697 1.8520833,1.8643543 0 0 1 0.136942,-0.12506 1.8520833,1.8643543 0 0 1 0.149345,-0.11058 1.8520833,1.8643543 0 0 1 0.159164,-0.0951 1.8520833,1.8643543 0 0 1 0.167948,-0.0786 1.8520833,1.8643543 0 0 1 0.174667,-0.0615 1.8520833,1.8643543 0 0 1 0.179833,-0.0434 1.8520833,1.8643543 0 0 1 0.183452,-0.0253 1.8520833,1.8643543 0 0 1 0.185001,-0.006 1.8520833,1.8643543 0 0 1 0.185002,0.0119 1.8520833,1.8643543 0 0 1 0.182418,0.0305 1.8520833,1.8643543 0 0 1 0.1788,0.0486 1.8520833,1.8643543 0 0 1 0.135909,0.0506 1.8520833,1.8643543 0 0 1 0.166915,0.0796 1.8520833,1.8643543 0 0 1 0.1586468,0.0966 1.8520833,1.8643543 0 0 1 0.1483114,0.11162 1.8520833,1.8643543 0 0 1 0.1364258,0.12609 1.8520833,1.8643543 0 0 1 0.12299,0.13901 1.8520833,1.8643543 0 0 1 0.1090371,0.15089 1.8520833,1.8643543 0 0 1 0.093018,0.16072 1.8520833,1.8643543 0 0 1 0.076998,0.1695 1.8520833,1.8643543 0 0 1 0.059428,0.17673 1.8520833,1.8643543 0 0 1 0.041858,0.18138 1.8520833,1.8643543 0 0 1 0.02377,0.18501 1.8520833,1.8643543 0 0 1 0.00568,0.14521 H 7.1437864 A 2.1166666,2.1306906 0 0 0 5.836889,291.84435 2.1166666,2.1306906 0 0 0 5.058126,291.68209 Z m -0.0077,0.5364 a 1.5874999,1.5980179 0 0 0 -1.145665,0.46767 1.5874999,1.5980179 0 0 0 -0.344165,1.7415 1.5874999,1.5980179 0 0 0 1.466577,0.9865 v -0.002 h 3.1749974 v -0.26458 H 5.027133 a 1.3229166,1.3316815 0 0 1 -0.132291,-0.007 1.3229166,1.3316815 0 0 1 -0.130742,-0.0196 1.3229166,1.3316815 0 0 1 -0.128157,-0.0331 1.3229166,1.3316815 0 0 1 -0.124024,-0.0455 1.3229166,1.3316815 0 0 1 -0.118855,-0.0584 1.3229166,1.3316815 0 0 1 -0.112655,-0.0693 1.3229166,1.3316815 0 0 1 -0.10542,-0.0806 1.3229166,1.3316815 0 0 1 -0.09664,-0.091 1.3229166,1.3316815 0 0 1 -0.08733,-0.0997 1.3229166,1.3316815 0 0 1 -0.077,-0.10852 1.3229166,1.3316815 0 0 1 -0.06563,-0.11524 1.3229166,1.3316815 0 0 1 -0.04341,-0.0946 1.3229166,1.3316815 0 0 1 -0.04444,-0.12505 1.3229166,1.3316815 0 0 1 -0.03204,-0.12919 1.3229166,1.3316815 0 0 1 -0.0186,-0.13178 1.3229166,1.3316815 0 0 1 -0.0057,-0.13332 1.3229166,1.3316815 0 0 1 0.0078,-0.13281 1.3229166,1.3316815 0 0 1 0.02067,-0.13126 1.3229166,1.3316815 0 0 1 0.03359,-0.12867 1.3229166,1.3316815 0 0 1 0.04599,-0.12506 1.3229166,1.3316815 0 0 1 0.05839,-0.11937 1.3229166,1.3316815 0 0 1 0.07028,-0.11318 1.3229166,1.3316815 0 0 1 0.08061,-0.1049 1.3229166,1.3316815 0 0 1 0.07028,-0.0765 1.3229166,1.3316815 0 0 1 0.09818,-0.0894 1.3229166,1.3316815 0 0 1 0.106453,-0.0791 1.3229166,1.3316815 0 0 1 0.113689,-0.0677 1.3229166,1.3316815 0 0 1 0.119889,-0.0563 1.3229166,1.3316815 0 0 1 0.12454,-0.0439 1.3229166,1.3316815 0 0 1 0.128674,-0.031 1.3229166,1.3316815 0 0 1 0.131259,-0.0181 1.3229166,1.3316815 0 0 1 0.131775,-0.005 1.3229166,1.3316815 0 0 1 0.132291,0.009 1.3229166,1.3316815 0 0 1 0.130225,0.0217 1.3229166,1.3316815 0 0 1 0.127641,0.0351 1.3229166,1.3316815 0 0 1 0.09715,0.0357 1.3229166,1.3316815 0 0 1 0.119372,0.0574 1.3229166,1.3316815 0 0 1 0.113172,0.0687 1.3229166,1.3316815 0 0 1 0.105936,0.0796 1.3229166,1.3316815 0 0 1 0.09715,0.0899 1.3229166,1.3316815 0 0 1 0.088367,0.0992 1.3229166,1.3316815 0 0 1 0.077515,0.108 1.3229166,1.3316815 0 0 1 0.066663,0.11472 1.3229166,1.3316815 0 0 1 0.054777,0.12144 1.3229166,1.3316815 0 0 1 0.042892,0.12609 1.3229166,1.3316815 0 0 1 0.029972,0.12919 1.3229166,1.3316815 0 0 1 0.016536,0.13229 1.3229166,1.3316815 0 0 1 0.00413,0.10387 h 0.2645831 a 1.5874999,1.5980179 0 0 0 -0.9797851,-1.47639 1.5874999,1.5980179 0 0 0 -0.58446,-0.12144 z m -0.0077,0.5364 a 1.0583333,1.0653453 0 0 0 -0.763776,0.31161 1.0583333,1.0653453 0 0 0 -0.229443,1.16117 1.0583333,1.0653453 0 0 0 0.977718,0.65784 v -0.002 h 3.1749954 v -0.26465 H 5.027183 a 0.79374997,0.79900896 0 0 1 -0.07906,-0.004 0.79374997,0.79900896 0 0 1 -0.07855,-0.0119 0.79374997,0.79900896 0 0 1 -0.077,-0.0196 0.79374997,0.79900896 0 0 1 -0.07441,-0.0274 0.79374997,0.79900896 0 0 1 -0.07131,-0.0346 0.79374997,0.79900896 0 0 1 -0.0677,-0.0419 0.79374997,0.79900896 0 0 1 -0.06356,-0.0481 0.79374997,0.79900896 0 0 1 -0.05788,-0.0548 0.79374997,0.79900896 0 0 1 -0.05219,-0.0599 0.79374997,0.79900896 0 0 1 -0.04599,-0.0651 0.79374997,0.79900896 0 0 1 -0.03979,-0.0692 0.79374997,0.79900896 0 0 1 -0.02584,-0.0563 0.79374997,0.79900896 0 0 1 -0.02687,-0.0755 0.79374997,0.79900896 0 0 1 -0.01912,-0.0775 0.79374997,0.79900896 0 0 1 -0.01085,-0.0791 0.79374997,0.79900896 0 0 1 -0.0036,-0.0796 0.79374997,0.79900896 0 0 1 0.0047,-0.0801 0.79374997,0.79900896 0 0 1 0.0124,-0.0786 0.79374997,0.79900896 0 0 1 0.02015,-0.0775 0.79374997,0.79900896 0 0 1 0.02791,-0.0744 0.79374997,0.79900896 0 0 1 0.03462,-0.0718 0.79374997,0.79900896 0 0 1 0.04237,-0.0677 0.79374997,0.79900896 0 0 1 0.04806,-0.0636 0.79374997,0.79900896 0 0 1 0.04237,-0.0455 0.79374997,0.79900896 0 0 1 0.05891,-0.0537 0.79374997,0.79900896 0 0 1 0.06356,-0.0476 0.79374997,0.79900896 0 0 1 0.06821,-0.0408 0.79374997,0.79900896 0 0 1 0.07235,-0.0336 0.79374997,0.79900896 0 0 1 0.07493,-0.0264 0.79374997,0.79900896 0 0 1 0.077,-0.0186 0.79374997,0.79900896 0 0 1 0.07855,-0.0108 0.79374997,0.79900896 0 0 1 0.07906,-0.003 0.79374997,0.79900896 0 0 1 0.07958,0.005 0.79374997,0.79900896 0 0 1 0.07803,0.0129 0.79374997,0.79900896 0 0 1 0.07648,0.0212 0.79374997,0.79900896 0 0 1 0.0584,0.0217 0.79374997,0.79900896 0 0 1 0.07183,0.0341 0.79374997,0.79900896 0 0 1 0.0677,0.0413 0.79374997,0.79900896 0 0 1 0.06356,0.0475 0.79374997,0.79900896 0 0 1 0.05839,0.0543 0.79374997,0.79900896 0 0 1 0.05271,0.0594 0.79374997,0.79900896 0 0 1 0.04651,0.0646 0.79374997,0.79900896 0 0 1 0.04031,0.0692 0.79374997,0.79900896 0 0 1 0.03307,0.0723 0.79374997,0.79900896 0 0 1 0.02532,0.076 0.79374997,0.79900896 0 0 1 0.01809,0.0775 0.79374997,0.79900896 0 0 1 0.0098,0.0791 0.79374997,0.79900896 0 0 1 0.0026,0.0625 h 0.2645838 a 1.0583333,1.0653453 0 0 0 -0.6531898,-0.98443 1.0583333,1.0653453 0 0 0 -0.389641,-0.0806 z"
       id="path835" />
  </g>
</svg>
