<?xml version="1.0" encoding="UTF-8" standalone="no"?>
<!-- Created with Inkscape (http://www.inkscape.org/) -->

<svg
   width="32"
   height="32"
   viewBox="0 0 8.4666665 8.4666669"
   version="1.1"
   id="svg8"
   inkscape:version="1.2.1 (9c6d41e410, 2022-07-14)"
   sodipodi:docname="folder-mail.svg"
   xmlns:inkscape="http://www.inkscape.org/namespaces/inkscape"
   xmlns:sodipodi="http://sodipodi.sourceforge.net/DTD/sodipodi-0.dtd"
   xmlns:xlink="http://www.w3.org/1999/xlink"
   xmlns="http://www.w3.org/2000/svg"
   xmlns:svg="http://www.w3.org/2000/svg"
   xmlns:rdf="http://www.w3.org/1999/02/22-rdf-syntax-ns#"
   xmlns:cc="http://creativecommons.org/ns#"
   xmlns:dc="http://purl.org/dc/elements/1.1/">
  <defs
     id="defs2">
    <linearGradient
       inkscape:collect="always"
       xlink:href="#linearGradient2969"
       id="linearGradient2971"
       x1="-1.0583333"
       y1="290.12082"
       x2="-1.0583333"
       y2="288.26874"
       gradientUnits="userSpaceOnUse"
       gradientTransform="translate(-5.0270834,2.3812534)" />
    <linearGradient
       inkscape:collect="always"
       id="linearGradient2969">
      <stop
         style="stop-color:#4c9fee;stop-opacity:1;"
         offset="0"
         id="stop2965" />
      <stop
         style="stop-color:#2e8be8;stop-opacity:1;"
         offset="1"
         id="stop2967" />
    </linearGradient>
  </defs>
  <sodipodi:namedview
     id="base"
     pagecolor="#ffffff"
     bordercolor="#666666"
     borderopacity="1.0"
     inkscape:pageopacity="0.0"
     inkscape:pageshadow="2"
     inkscape:zoom="22.4"
     inkscape:cx="16.361607"
     inkscape:cy="15.870536"
     inkscape:document-units="px"
     inkscape:current-layer="layer1"
     showgrid="true"
     units="px"
     inkscape:showpageshadow="false"
     inkscape:snap-bbox="true"
     inkscape:bbox-paths="true"
     inkscape:bbox-nodes="true"
     inkscape:snap-bbox-edge-midpoints="true"
     inkscape:snap-bbox-midpoints="true"
     inkscape:object-paths="true"
     inkscape:snap-intersection-paths="true"
     inkscape:window-width="2160"
     inkscape:window-height="1335"
     inkscape:window-x="0"
     inkscape:window-y="0"
     inkscape:window-maximized="1"
     inkscape:pagecheckerboard="0"
     inkscape:deskcolor="#d1d1d1">
    <inkscape:grid
       type="xygrid"
       id="grid815" />
  </sodipodi:namedview>
  <metadata
     id="metadata5">
    <rdf:RDF>
      <cc:Work
         rdf:about="">
        <dc:format>image/svg+xml</dc:format>
        <dc:type
           rdf:resource="http://purl.org/dc/dcmitype/StillImage" />
        <dc:title />
      </cc:Work>
    </rdf:RDF>
  </metadata>
  <g
     inkscape:label="Capa 1"
     inkscape:groupmode="layer"
     id="layer1"
     transform="translate(0,-288.53333)">
    <g
       id="g20420"
       transform="translate(8.2020834,-1.5874967)">
      <path
         sodipodi:nodetypes="ssssssssscccss"
         style="color:#000000;font-style:normal;font-variant:normal;font-weight:normal;font-stretch:normal;font-size:medium;line-height:normal;font-family:sans-serif;font-variant-ligatures:normal;font-variant-position:normal;font-variant-caps:normal;font-variant-numeric:normal;font-variant-alternates:normal;font-feature-settings:normal;text-indent:0;text-align:start;text-decoration:none;text-decoration-line:none;text-decoration-style:solid;text-decoration-color:#000000;letter-spacing:normal;word-spacing:normal;text-transform:none;writing-mode:lr-tb;direction:ltr;text-orientation:mixed;dominant-baseline:auto;baseline-shift:baseline;text-anchor:start;white-space:normal;shape-padding:0;clip-rule:nonzero;display:inline;overflow:visible;visibility:visible;isolation:auto;mix-blend-mode:normal;color-interpolation:sRGB;color-interpolation-filters:linearRGB;solid-color:#000000;solid-opacity:1;vector-effect:none;fill:#286bb2;fill-opacity:1;fill-rule:nonzero;stroke:none;stroke-width:0.529167;stroke-linecap:round;stroke-linejoin:round;stroke-miterlimit:4;stroke-dasharray:none;stroke-dashoffset:0;stroke-opacity:1;color-rendering:auto;image-rendering:auto;shape-rendering:auto;text-rendering:auto;enable-background:accumulate"
         d="m -7.6729167,290.38541 c -0.2885755,0 -0.5291667,0.24059 -0.5291667,0.52917 v 6.87916 c 0,0.28858 0.240588,0.52917 0.5291667,0.52917 h 7.4083333 c 0.2885787,0 0.5291667,-0.24059 0.5291667,-0.52917 v -5.82083 c 0,-0.28858 -0.2405912,-0.52917 -0.5291667,-0.52917 h -3.7041667 c -0.044097,0 -0.058041,-0.007 -0.1111043,-0.0703 -0.053063,-0.0637 -0.1152385,-0.18034 -0.1813843,-0.31264 -0.066146,-0.13229 -0.1362626,-0.2802 -0.2485636,-0.41496 -0.1123011,-0.13474 -0.2967951,-0.26043 -0.5172811,-0.26043 z"
         id="path1151-2"
         inkscape:connector-curvature="0" />
      <path
         d="m -7.6729168,290.65 c -0.1465817,0 -0.2645833,0.11799 -0.2645833,0.26458 v 6.87917 c 0,0.14658 0.1180016,0.26458 0.2645833,0.26458 h 7.4083337 C -0.1180016,298.05833 0,297.94033 0,297.79375 v -5.82084 c 0,-0.14658 -0.1180018,-0.26458 -0.2645831,-0.26458 h -3.704167 c -0.5291666,0 -0.5291666,-1.05834 -1.0583333,-1.05834 z"
         id="path13-6-3-1-3-0-7-7-3-3"
         style="fill:url(#linearGradient2971);fill-opacity:1;stroke-width:0.529167;stroke-miterlimit:4;stroke-dasharray:none"
         inkscape:connector-curvature="0"
         sodipodi:nodetypes="ssssssssccs" />
      <path
         sodipodi:nodetypes="scccssssssssss"
         style="color:#000000;font-style:normal;font-variant:normal;font-weight:normal;font-stretch:normal;font-size:medium;line-height:normal;font-family:sans-serif;font-variant-ligatures:normal;font-variant-position:normal;font-variant-caps:normal;font-variant-numeric:normal;font-variant-alternates:normal;font-feature-settings:normal;text-indent:0;text-align:start;text-decoration:none;text-decoration-line:none;text-decoration-style:solid;text-decoration-color:#000000;letter-spacing:normal;word-spacing:normal;text-transform:none;writing-mode:lr-tb;direction:ltr;text-orientation:mixed;dominant-baseline:auto;baseline-shift:baseline;text-anchor:start;white-space:normal;shape-padding:0;clip-rule:nonzero;display:inline;overflow:visible;visibility:visible;isolation:auto;mix-blend-mode:normal;color-interpolation:sRGB;color-interpolation-filters:linearRGB;solid-color:#000000;solid-opacity:1;vector-effect:none;fill:#3182d9;fill-opacity:1;fill-rule:nonzero;stroke:none;stroke-width:0.529167;stroke-linecap:butt;stroke-linejoin:miter;stroke-miterlimit:4;stroke-dasharray:none;stroke-dashoffset:0;stroke-opacity:1;color-rendering:auto;image-rendering:auto;shape-rendering:auto;text-rendering:auto;enable-background:accumulate"
         d="m -3.9687501,291.44374 c -0.220486,0 -0.4112389,0.14535 -0.5012613,0.28939 -0.090023,0.14404 -0.1300009,0.2881 -0.1762167,0.41135 -0.046216,0.12324 -0.095339,0.22076 -0.1462442,0.27388 -0.050906,0.0531 -0.09497,0.0837 -0.2346111,0.0837 h -2.6458333 c -0.2885755,0 -0.5291667,0.24058 -0.5291667,0.52916 v 4.7625 c 0,0.28858 0.240588,0.52917 0.5291667,0.52917 h 7.4083333 c 0.2885787,0 0.5291667,-0.24059 0.5291667,-0.52917 v -5.82083 c 0,-0.28858 -0.2405912,-0.52917 -0.5291667,-0.52917 z"
         id="path1105-1"
         inkscape:connector-curvature="0" />
      <path
         sodipodi:nodetypes="ssssssssccs"
         inkscape:connector-curvature="0"
         style="fill:#50c1f9;fill-opacity:1;stroke:none;stroke-width:0.529167;stroke-miterlimit:4;stroke-dasharray:none;stroke-opacity:1"
         id="path13-6-3-1-3-0-7-7-9-2-8"
         d="m -7.6729167,292.76666 c -0.1465819,0 -0.2645834,0.118 -0.2645834,0.26458 v 4.76251 c 0,0.14658 0.1180015,0.26458 0.2645834,0.26458 h 7.4083336 C -0.1180016,298.05833 0,297.94033 0,297.79375 v -5.82084 c 0,-0.14658 -0.1180018,-0.26458 -0.2645831,-0.26458 h -3.704167 c -0.5291666,0 -0.2645833,1.05833 -1.0583333,1.05833 z" />
    </g>
    <path
       id="path22261"
       style="opacity:1;fill:#e5f9ff;fill-opacity:1;stroke:none;stroke-width:0.529167;stroke-linecap:round;stroke-linejoin:round;stroke-miterlimit:1.8;paint-order:fill markers stroke;stop-color:#000000"
       d="m 2.6458004,291.70833 c -0.146576,0 -0.2645834,0.11801 -0.2645834,0.26459 0.00916,0 0.017956,6.5e-4 0.026872,0.002 0.00892,9e-4 0.017728,0.002 0.026355,0.004 0.00863,0.002 0.017543,0.004 0.025838,0.007 0.00829,0.003 0.016369,0.005 0.024288,0.009 0.00792,0.003 0.015238,0.007 0.022738,0.0114 0.0075,0.004 0.015185,0.008 0.022221,0.0129 0.00704,0.005 0.013625,0.0101 0.020154,0.0155 0.00653,0.005 0.012626,0.0111 0.018604,0.0171 0.00598,0.006 0.01167,0.0121 0.017053,0.0186 0.00538,0.007 0.010758,0.0131 0.015503,0.0202 0.00475,0.007 0.00886,0.0147 0.012919,0.0222 0.00406,0.007 0.00803,0.0148 0.011369,0.0227 0.00334,0.008 0.00622,0.016 0.00879,0.0243 0.00257,0.008 0.00496,0.0172 0.00672,0.0258 0.00176,0.009 0.00272,0.0174 0.00362,0.0264 9e-4,0.009 0.00155,0.0177 0.00155,0.0269 0,0.009 -6.503e-4,0.018 -0.00155,0.0269 -9.001e-4,0.009 -0.00186,0.0177 -0.00362,0.0264 -0.00176,0.009 -0.00415,0.0175 -0.00672,0.0258 -0.00257,0.008 -0.00545,0.0164 -0.00879,0.0243 -0.00334,0.008 -0.00731,0.0152 -0.011369,0.0227 -0.00406,0.007 -0.00817,0.0152 -0.012919,0.0222 -0.00475,0.007 -0.01012,0.0136 -0.015503,0.0202 -0.00538,0.007 -0.011075,0.0126 -0.017053,0.0186 -0.00598,0.006 -0.012075,0.0117 -0.018604,0.0171 -0.00653,0.005 -0.013118,0.0108 -0.020154,0.0155 -0.00704,0.005 -0.014722,0.009 -0.022221,0.0129 -0.0075,0.004 -0.014819,0.008 -0.022738,0.0114 -0.00792,0.003 -0.015993,0.006 -0.024288,0.009 -0.0083,0.003 -0.017211,0.005 -0.025838,0.007 -0.00863,0.002 -0.017439,0.003 -0.026355,0.004 -0.00892,9e-4 -0.01771,0.002 -0.026872,0.002 v 0.52917 c 0.00916,0 0.017956,6.5e-4 0.026872,0.002 0.00892,9e-4 0.017728,0.002 0.026355,0.004 0.00863,0.002 0.017543,0.004 0.025838,0.007 0.00829,0.003 0.016369,0.005 0.024288,0.009 0.00792,0.003 0.015238,0.007 0.022738,0.0114 0.0075,0.004 0.015185,0.008 0.022221,0.0129 0.00704,0.005 0.013625,0.0101 0.020154,0.0155 0.00653,0.005 0.012626,0.0111 0.018604,0.017 0.00598,0.006 0.01167,0.0121 0.017053,0.0186 0.00538,0.007 0.010758,0.0131 0.015503,0.0202 0.00475,0.007 0.00886,0.0147 0.012919,0.0222 0.00406,0.007 0.00803,0.0148 0.011369,0.0227 0.00334,0.008 0.00622,0.016 0.00879,0.0243 0.00257,0.008 0.00496,0.0172 0.00672,0.0258 0.00176,0.009 0.00272,0.0169 0.00362,0.0258 9e-4,0.009 0.00155,0.0182 0.00155,0.0274 0,0.009 -6.503e-4,0.018 -0.00155,0.0269 -9.001e-4,0.009 -0.00186,0.0177 -0.00362,0.0264 -0.00176,0.009 -0.00415,0.0175 -0.00672,0.0258 -0.00257,0.008 -0.00545,0.0164 -0.00879,0.0243 -0.00334,0.008 -0.00731,0.0152 -0.011369,0.0227 -0.00406,0.007 -0.00817,0.0152 -0.012919,0.0222 -0.00475,0.007 -0.01012,0.0136 -0.015503,0.0202 -0.00538,0.007 -0.011075,0.0126 -0.017053,0.0186 -0.00598,0.006 -0.012075,0.0117 -0.018604,0.0171 -0.00653,0.005 -0.013118,0.0107 -0.020154,0.0155 -0.00704,0.005 -0.014722,0.009 -0.022221,0.0129 -0.0075,0.004 -0.014819,0.008 -0.022738,0.0114 -0.00792,0.003 -0.015993,0.006 -0.024288,0.009 -0.0083,0.003 -0.017211,0.005 -0.025838,0.007 -0.00863,0.002 -0.017439,0.003 -0.026355,0.004 -0.00892,9e-4 -0.01771,0.002 -0.026872,0.002 v 0.52916 c 0.00916,0 0.017956,6.5e-4 0.026872,0.002 0.00892,9e-4 0.017728,0.002 0.026355,0.004 0.00863,0.002 0.017543,0.004 0.025838,0.007 0.00829,0.003 0.016369,0.005 0.024288,0.009 0.00792,0.003 0.015238,0.007 0.022738,0.0114 0.0075,0.004 0.015185,0.008 0.022221,0.0129 0.00704,0.005 0.013625,0.0101 0.020154,0.0155 0.00653,0.005 0.012625,0.0111 0.018604,0.0171 0.00598,0.006 0.01167,0.0121 0.017053,0.0186 0.00538,0.007 0.010758,0.0131 0.015503,0.0202 0.00475,0.007 0.00886,0.0147 0.012919,0.0222 0.00406,0.007 0.00803,0.0148 0.011369,0.0227 0.00334,0.008 0.00622,0.016 0.00879,0.0243 0.00257,0.008 0.00496,0.0172 0.00672,0.0258 0.00176,0.009 0.00272,0.0174 0.00362,0.0264 9.001e-4,0.009 0.00155,0.0177 0.00155,0.0269 0,0.009 -6.502e-4,0.0179 -0.00155,0.0269 -9.001e-4,0.009 -0.00186,0.0177 -0.00362,0.0263 -0.00176,0.009 -0.00415,0.0176 -0.00672,0.0258 -0.00257,0.008 -0.00545,0.0164 -0.00879,0.0243 -0.00334,0.008 -0.0073,0.0152 -0.011369,0.0227 -0.00406,0.007 -0.00817,0.0152 -0.012919,0.0222 -0.00475,0.007 -0.010119,0.0136 -0.015503,0.0202 -0.00538,0.007 -0.011075,0.0126 -0.017053,0.0186 -0.00598,0.006 -0.012075,0.0117 -0.018604,0.0171 -0.00653,0.005 -0.013118,0.0108 -0.020154,0.0155 -0.00704,0.005 -0.014722,0.009 -0.022221,0.0129 -0.0075,0.004 -0.014819,0.008 -0.022738,0.0114 -0.00792,0.003 -0.015993,0.006 -0.024288,0.009 -0.00829,0.003 -0.017211,0.005 -0.025838,0.007 -0.00863,0.002 -0.017439,0.003 -0.026355,0.004 -0.00892,9e-4 -0.017711,0.002 -0.026872,0.002 v 0.52917 c 0.00916,0 0.017956,6.5e-4 0.026872,0.002 0.00892,9e-4 0.017728,0.002 0.026355,0.004 0.00863,0.002 0.017543,0.004 0.025838,0.007 0.00829,0.003 0.016369,0.005 0.024288,0.009 0.00792,0.003 0.015238,0.007 0.022738,0.0114 0.0075,0.004 0.015185,0.008 0.022221,0.0129 0.00704,0.005 0.013625,0.0101 0.020154,0.0155 0.00653,0.005 0.012625,0.0111 0.018604,0.017 0.00598,0.006 0.01167,0.0121 0.017053,0.0186 0.00538,0.007 0.010758,0.0131 0.015503,0.0202 0.00475,0.007 0.00886,0.0147 0.012919,0.0222 0.00406,0.007 0.00803,0.0148 0.011369,0.0227 0.00334,0.008 0.00622,0.016 0.00879,0.0243 0.00257,0.008 0.00496,0.0172 0.00672,0.0258 0.00176,0.009 0.00272,0.0174 0.00362,0.0264 9.001e-4,0.009 0.00155,0.0177 0.00155,0.0269 0,0.009 -6.502e-4,0.018 -0.00155,0.0269 -9.001e-4,0.009 -0.00186,0.0177 -0.00362,0.0264 -0.00176,0.009 -0.00415,0.0175 -0.00672,0.0258 -0.00257,0.008 -0.00545,0.0164 -0.00879,0.0243 -0.00334,0.008 -0.0073,0.0152 -0.011369,0.0227 -0.00406,0.007 -0.00817,0.0152 -0.012919,0.0222 -0.00475,0.007 -0.010119,0.0136 -0.015503,0.0202 -0.00538,0.007 -0.011075,0.0126 -0.017053,0.0186 -0.00598,0.006 -0.012075,0.0117 -0.018604,0.0171 -0.00653,0.005 -0.013118,0.0108 -0.020154,0.0155 -0.00704,0.005 -0.014722,0.009 -0.022221,0.0129 -0.0075,0.004 -0.014819,0.008 -0.022738,0.0114 -0.00792,0.003 -0.015993,0.006 -0.024288,0.009 -0.00829,0.003 -0.017211,0.005 -0.025838,0.007 -0.00863,0.002 -0.017439,0.003 -0.026355,0.004 -0.00892,9e-4 -0.017711,0.002 -0.026872,0.002 0,0.14658 0.1180074,0.26459 0.2645834,0.26459 h 0.2645833 c 0,-0.009 6.768e-4,-0.0181 0.00155,-0.0269 8.734e-4,-0.009 0.00191,-0.0173 0.00362,-0.0258 0.00171,-0.009 0.00371,-0.0166 0.0062,-0.0248 0.00249,-0.008 0.00554,-0.0165 0.00878,-0.0243 0.00324,-0.008 0.0069,-0.0153 0.010852,-0.0227 0.00395,-0.007 0.00831,-0.0147 0.012919,-0.0217 0.00461,-0.007 0.00923,-0.0137 0.014469,-0.0202 0.00524,-0.006 0.010719,-0.0127 0.016536,-0.0186 0.00582,-0.006 0.012247,-0.0117 0.018604,-0.0171 0.00636,-0.005 0.012783,-0.0107 0.019637,-0.0155 0.00685,-0.005 0.013877,-0.009 0.021187,-0.0129 0.00731,-0.004 0.015014,-0.008 0.022738,-0.0114 0.00772,-0.003 0.015675,-0.007 0.023771,-0.009 0.0081,-0.003 0.016378,-0.005 0.024805,-0.007 0.00843,-0.002 0.017123,-0.004 0.025838,-0.005 0.00872,-10e-4 0.017393,-0.002 0.026355,-0.002 0.00228,-5e-5 0.00443,0 0.00672,0 0.00916,0 0.017956,6.5e-4 0.026872,0.002 0.00892,9e-4 0.017728,0.002 0.026355,0.004 0.00863,0.002 0.017543,0.004 0.025838,0.007 0.00829,0.003 0.016369,0.005 0.024288,0.009 0.00792,0.003 0.015238,0.007 0.022738,0.0114 0.0075,0.004 0.015185,0.008 0.022221,0.0129 0.00704,0.005 0.013625,0.0101 0.020154,0.0155 0.00653,0.005 0.012626,0.0111 0.018603,0.0171 0.00598,0.006 0.01167,0.0121 0.017053,0.0186 0.00538,0.007 0.010758,0.0131 0.015503,0.0202 0.00475,0.007 0.00886,0.0147 0.012919,0.0222 0.00406,0.007 0.00803,0.0148 0.011369,0.0227 0.00334,0.008 0.00622,0.016 0.00879,0.0243 0.00257,0.008 0.00496,0.0172 0.00672,0.0258 0.00176,0.009 0.00272,0.0174 0.00362,0.0263 9e-4,0.009 0.00155,0.0177 0.00155,0.0269 h 0.5291666 c 0,-0.009 6.769e-4,-0.0181 0.00155,-0.0269 8.735e-4,-0.009 0.00191,-0.0173 0.00362,-0.0258 0.00171,-0.009 0.00371,-0.0166 0.0062,-0.0248 0.00249,-0.008 0.00554,-0.0165 0.00878,-0.0243 0.00324,-0.008 0.0069,-0.0153 0.010852,-0.0227 0.00395,-0.007 0.00831,-0.0147 0.012919,-0.0217 0.00461,-0.007 0.00923,-0.0137 0.014469,-0.0202 0.00524,-0.006 0.010719,-0.0127 0.016536,-0.0186 0.00582,-0.006 0.012246,-0.0117 0.018604,-0.0171 0.00636,-0.005 0.012783,-0.0107 0.019637,-0.0155 0.00685,-0.005 0.013877,-0.009 0.021187,-0.0129 0.00731,-0.004 0.015014,-0.008 0.022738,-0.0114 0.00772,-0.003 0.015675,-0.007 0.023771,-0.009 0.0081,-0.003 0.016378,-0.005 0.024805,-0.007 0.00843,-0.002 0.017123,-0.004 0.025838,-0.005 0.00871,-0.001 0.017393,-0.002 0.026355,-0.002 0.00228,-5e-5 0.00443,0 0.00672,0 0.00916,0 0.017956,6.5e-4 0.026872,0.002 0.00892,9e-4 0.017728,0.002 0.026355,0.004 0.00863,0.002 0.017543,0.004 0.025838,0.007 0.00829,0.003 0.016369,0.005 0.024288,0.009 0.00792,0.003 0.015239,0.007 0.022738,0.0114 0.0075,0.004 0.015185,0.008 0.022221,0.0129 0.00704,0.005 0.013625,0.0101 0.020154,0.0155 0.00653,0.005 0.012626,0.0111 0.018604,0.0171 0.00598,0.006 0.01167,0.0121 0.017053,0.0186 0.00538,0.007 0.010757,0.0131 0.015503,0.0202 0.00475,0.007 0.00886,0.0147 0.012919,0.0222 0.00406,0.007 0.00803,0.0148 0.011369,0.0227 0.00334,0.008 0.00622,0.016 0.00879,0.0243 0.00257,0.008 0.00496,0.0172 0.00672,0.0258 0.00176,0.009 0.00272,0.0174 0.00362,0.0263 9.001e-4,0.009 0.00155,0.0177 0.00155,0.0269 H 5.027066 c 0,-0.009 6.768e-4,-0.0181 0.00155,-0.0269 8.734e-4,-0.009 0.00191,-0.0173 0.00362,-0.0258 0.00171,-0.009 0.00371,-0.0166 0.0062,-0.0248 0.00249,-0.008 0.00554,-0.0165 0.00879,-0.0243 0.00324,-0.008 0.0069,-0.0153 0.010852,-0.0227 0.00395,-0.007 0.00831,-0.0147 0.012919,-0.0217 0.00461,-0.007 0.00923,-0.0137 0.014469,-0.0202 0.00524,-0.006 0.010719,-0.0127 0.016536,-0.0186 0.00582,-0.006 0.012247,-0.0117 0.018604,-0.0171 0.00636,-0.005 0.012783,-0.0107 0.019637,-0.0155 0.00685,-0.005 0.013877,-0.009 0.021187,-0.0129 0.00731,-0.004 0.015014,-0.008 0.022738,-0.0114 0.00772,-0.003 0.015675,-0.007 0.023771,-0.009 0.0081,-0.003 0.016378,-0.005 0.024805,-0.007 0.00843,-0.002 0.017123,-0.004 0.025838,-0.005 0.00872,-10e-4 0.017393,-0.002 0.026355,-0.002 0.00228,-5e-5 0.00443,0 0.00672,0 0.00916,0 0.017956,6.5e-4 0.026872,0.002 0.00892,9e-4 0.017727,0.002 0.026355,0.004 0.00863,0.002 0.017543,0.004 0.025838,0.007 0.00829,0.003 0.016369,0.005 0.024288,0.009 0.00792,0.003 0.015239,0.007 0.022738,0.0114 0.0075,0.004 0.015185,0.008 0.022221,0.0129 0.00704,0.005 0.013625,0.0101 0.020154,0.0155 0.00653,0.005 0.012626,0.0111 0.018603,0.0171 0.00598,0.006 0.01167,0.0121 0.017053,0.0186 0.00538,0.007 0.010757,0.0131 0.015503,0.0202 0.00475,0.007 0.00886,0.0147 0.012919,0.0222 0.00406,0.007 0.00803,0.0148 0.011369,0.0227 0.00334,0.008 0.00622,0.016 0.00879,0.0243 0.00257,0.008 0.00496,0.0172 0.00672,0.0258 0.00176,0.009 0.00272,0.0174 0.00362,0.0263 9e-4,0.009 0.00155,0.0177 0.00155,0.0269 h 0.2645834 c 0.1465758,0 0.2645833,-0.11801 0.2645833,-0.26459 -0.00916,0 -0.017956,-6.5e-4 -0.026872,-0.002 -0.00892,-9e-4 -0.017728,-0.002 -0.026355,-0.004 -0.00863,-0.002 -0.017543,-0.004 -0.025838,-0.007 -0.00829,-0.003 -0.016369,-0.005 -0.024288,-0.009 -0.00792,-0.003 -0.015239,-0.007 -0.022738,-0.0114 -0.0075,-0.004 -0.015185,-0.008 -0.022221,-0.0129 -0.00704,-0.005 -0.013625,-0.0101 -0.020154,-0.0155 -0.00653,-0.005 -0.012625,-0.0111 -0.018603,-0.0171 -0.00598,-0.006 -0.01167,-0.0121 -0.017053,-0.0186 -0.00538,-0.007 -0.010757,-0.0131 -0.015503,-0.0202 -0.00475,-0.007 -0.00886,-0.0147 -0.012919,-0.0222 -0.00406,-0.007 -0.00803,-0.0148 -0.011369,-0.0227 -0.00334,-0.008 -0.00622,-0.016 -0.00879,-0.0243 -0.00257,-0.008 -0.00496,-0.0172 -0.00672,-0.0258 -0.00176,-0.009 -0.00272,-0.0174 -0.00362,-0.0264 -9.001e-4,-0.009 -0.00155,-0.0177 -0.00155,-0.0269 0,-0.009 6.768e-4,-0.0181 0.00155,-0.0269 8.735e-4,-0.009 0.00191,-0.0173 0.00362,-0.0258 0.00171,-0.008 0.00371,-0.0166 0.0062,-0.0248 0.0025,-0.008 0.00554,-0.0165 0.00879,-0.0243 0.00324,-0.008 0.0069,-0.0153 0.010852,-0.0227 0.00395,-0.007 0.00831,-0.0147 0.012919,-0.0217 0.00461,-0.007 0.00923,-0.0137 0.014469,-0.0202 0.00524,-0.006 0.010719,-0.0126 0.016536,-0.0186 0.00582,-0.006 0.012246,-0.0117 0.018604,-0.017 0.00636,-0.005 0.012782,-0.0107 0.019637,-0.0155 0.00685,-0.005 0.013877,-0.009 0.021187,-0.0129 0.00731,-0.004 0.015014,-0.008 0.022738,-0.0114 0.00772,-0.003 0.015675,-0.007 0.023771,-0.009 0.0081,-0.003 0.016378,-0.005 0.024805,-0.007 0.00843,-0.002 0.017123,-0.004 0.025838,-0.005 0.00871,-10e-4 0.017393,-0.002 0.026355,-0.002 0.00228,-6e-5 0.00443,0 0.00672,0 v -0.52917 c -0.00916,0 -0.017956,-6.5e-4 -0.026872,-0.002 -0.00892,-9e-4 -0.017728,-0.002 -0.026355,-0.004 -0.00863,-0.002 -0.017543,-0.004 -0.025838,-0.007 -0.00829,-0.003 -0.016369,-0.005 -0.024288,-0.009 -0.00792,-0.003 -0.015239,-0.007 -0.022738,-0.0114 -0.0075,-0.004 -0.015185,-0.008 -0.022221,-0.0129 -0.00704,-0.005 -0.013625,-0.0101 -0.020154,-0.0155 -0.00653,-0.005 -0.012625,-0.0111 -0.018603,-0.0171 -0.00598,-0.006 -0.01167,-0.0121 -0.017053,-0.0186 -0.00538,-0.007 -0.010757,-0.0131 -0.015503,-0.0202 -0.00475,-0.007 -0.00886,-0.0147 -0.012919,-0.0222 -0.00406,-0.007 -0.00803,-0.0148 -0.011369,-0.0227 -0.00334,-0.008 -0.00622,-0.016 -0.00879,-0.0243 -0.00257,-0.008 -0.00496,-0.0172 -0.00672,-0.0258 -0.00176,-0.009 -0.00272,-0.0174 -0.00362,-0.0263 -9.001e-4,-0.009 -0.00155,-0.0177 -0.00155,-0.0269 0,-0.009 6.768e-4,-0.0181 0.00155,-0.0269 8.735e-4,-0.009 0.00191,-0.0173 0.00362,-0.0258 0.00171,-0.009 0.00371,-0.0166 0.0062,-0.0248 0.0025,-0.008 0.00554,-0.0165 0.00879,-0.0243 0.00324,-0.008 0.0069,-0.0153 0.010852,-0.0227 0.00395,-0.007 0.00831,-0.0147 0.012919,-0.0217 0.00461,-0.007 0.00923,-0.0137 0.014469,-0.0202 0.00524,-0.006 0.010719,-0.0127 0.016536,-0.0186 0.00582,-0.006 0.012246,-0.0117 0.018604,-0.0171 0.00636,-0.005 0.012782,-0.0107 0.019637,-0.0155 0.00685,-0.005 0.013877,-0.009 0.021187,-0.0129 0.00731,-0.004 0.015014,-0.008 0.022738,-0.0114 0.00772,-0.003 0.015675,-0.007 0.023771,-0.009 0.0081,-0.003 0.016378,-0.005 0.024805,-0.007 0.00843,-0.002 0.017123,-0.004 0.025838,-0.005 0.00871,-0.001 0.017393,-0.002 0.026355,-0.002 0.00228,-5e-5 0.00443,0 0.00672,0 v -0.52916 c -0.00916,0 -0.017956,-6.5e-4 -0.026872,-0.002 -0.00892,-9e-4 -0.017728,-0.002 -0.026355,-0.004 -0.00863,-0.002 -0.017543,-0.004 -0.025838,-0.007 -0.00829,-0.003 -0.016369,-0.005 -0.024288,-0.009 -0.00792,-0.003 -0.015239,-0.007 -0.022738,-0.0114 -0.0075,-0.004 -0.015185,-0.008 -0.022221,-0.0129 -0.00704,-0.005 -0.013625,-0.0101 -0.020154,-0.0155 -0.00653,-0.005 -0.012626,-0.0111 -0.018603,-0.0171 -0.00598,-0.006 -0.01167,-0.0121 -0.017053,-0.0186 -0.00538,-0.007 -0.010757,-0.0131 -0.015503,-0.0202 -0.00475,-0.007 -0.00886,-0.0147 -0.012919,-0.0222 -0.00406,-0.007 -0.00803,-0.0148 -0.011369,-0.0227 -0.00334,-0.008 -0.00622,-0.016 -0.00879,-0.0243 -0.00257,-0.008 -0.00496,-0.0172 -0.00672,-0.0258 -0.00176,-0.009 -0.00272,-0.0174 -0.00362,-0.0264 -9.001e-4,-0.009 -0.00155,-0.0177 -0.00155,-0.0269 0,-0.009 6.768e-4,-0.0181 0.00155,-0.0269 8.734e-4,-0.009 0.00191,-0.0173 0.00362,-0.0258 0.00171,-0.008 0.00371,-0.0166 0.0062,-0.0248 0.0025,-0.008 0.00554,-0.0165 0.00879,-0.0243 0.00324,-0.008 0.0069,-0.0153 0.010852,-0.0227 0.00395,-0.007 0.00831,-0.0147 0.012919,-0.0217 0.00461,-0.007 0.00923,-0.0137 0.014469,-0.0202 0.00524,-0.006 0.010719,-0.0127 0.016536,-0.0186 0.00582,-0.006 0.012246,-0.0117 0.018604,-0.017 0.00636,-0.005 0.012783,-0.0107 0.019637,-0.0155 0.00685,-0.005 0.013877,-0.009 0.021187,-0.0129 0.00731,-0.004 0.015014,-0.008 0.022738,-0.0114 0.00772,-0.003 0.015675,-0.007 0.023771,-0.009 0.0081,-0.003 0.016378,-0.005 0.024805,-0.007 0.00843,-0.002 0.017123,-0.004 0.025838,-0.005 0.00872,-10e-4 0.017393,-0.002 0.026355,-0.002 0.00228,-6e-5 0.00443,0 0.00672,0 v -0.52917 c -0.00916,0 -0.017956,-6.5e-4 -0.026872,-0.002 -0.00892,-9e-4 -0.017728,-0.002 -0.026355,-0.004 -0.00863,-0.002 -0.017543,-0.004 -0.025838,-0.007 -0.00829,-0.003 -0.016369,-0.005 -0.024288,-0.009 -0.00792,-0.003 -0.015239,-0.007 -0.022738,-0.0114 -0.0075,-0.004 -0.015185,-0.008 -0.022221,-0.0129 -0.00704,-0.005 -0.013625,-0.0101 -0.020154,-0.0155 -0.00653,-0.005 -0.012626,-0.0111 -0.018603,-0.0171 -0.00598,-0.006 -0.01167,-0.0121 -0.017053,-0.0186 -0.00538,-0.007 -0.010757,-0.0131 -0.015503,-0.0202 -0.00475,-0.007 -0.00886,-0.0147 -0.012919,-0.0222 -0.00406,-0.007 -0.00803,-0.0148 -0.011369,-0.0227 -0.00334,-0.008 -0.00622,-0.016 -0.00879,-0.0243 -0.00257,-0.008 -0.00496,-0.0172 -0.00672,-0.0258 -0.00176,-0.009 -0.00272,-0.0174 -0.00362,-0.0264 -9.001e-4,-0.009 -0.00155,-0.0177 -0.00155,-0.0269 0,-0.009 6.768e-4,-0.0181 0.00155,-0.0269 8.734e-4,-0.009 0.00191,-0.0173 0.00362,-0.0258 0.00171,-0.008 0.00371,-0.0166 0.0062,-0.0248 0.0025,-0.008 0.00554,-0.0165 0.00879,-0.0243 0.00324,-0.008 0.0069,-0.0153 0.010852,-0.0227 0.00395,-0.007 0.00831,-0.0147 0.012919,-0.0217 0.00461,-0.007 0.00923,-0.0137 0.014469,-0.0202 0.00524,-0.006 0.010719,-0.0126 0.016536,-0.0186 0.00582,-0.006 0.012246,-0.0117 0.018604,-0.0171 0.00636,-0.005 0.012783,-0.0107 0.019637,-0.0155 0.00685,-0.005 0.013877,-0.009 0.021187,-0.0129 0.00731,-0.004 0.015014,-0.008 0.022738,-0.0114 0.00772,-0.003 0.015675,-0.007 0.023771,-0.009 0.0081,-0.003 0.016378,-0.005 0.024805,-0.007 0.00843,-0.002 0.017123,-0.004 0.025838,-0.005 0.00872,-10e-4 0.017393,-0.002 0.026355,-0.002 0.00228,-6e-5 0.00443,0 0.00672,0 0,-0.14658 -0.1180075,-0.26459 -0.2645833,-0.26459 H 5.556242 c 0,0.009 -6.502e-4,0.018 -0.00155,0.0269 -9.001e-4,0.009 -0.00186,0.0177 -0.00362,0.0263 -0.00176,0.009 -0.00415,0.0175 -0.00672,0.0258 -0.00257,0.008 -0.00545,0.0164 -0.00879,0.0243 -0.00334,0.008 -0.00731,0.0152 -0.011369,0.0227 -0.00406,0.007 -0.00817,0.0152 -0.012919,0.0222 -0.00475,0.007 -0.01012,0.0136 -0.015503,0.0202 -0.00538,0.007 -0.011075,0.0126 -0.017053,0.0186 -0.00598,0.006 -0.012075,0.0117 -0.018603,0.0171 -0.00653,0.005 -0.013118,0.0107 -0.020154,0.0155 -0.00704,0.005 -0.014722,0.009 -0.022221,0.0129 -0.0075,0.004 -0.014819,0.008 -0.022738,0.0114 -0.00792,0.003 -0.015993,0.006 -0.024288,0.009 -0.00829,0.003 -0.017211,0.005 -0.025838,0.007 -0.00863,0.002 -0.017439,0.003 -0.026355,0.004 -0.00892,9e-4 -0.01771,0.002 -0.026872,0.002 -0.00916,0 -0.017956,-6.5e-4 -0.026872,-0.002 -0.00892,-9e-4 -0.017728,-0.002 -0.026355,-0.004 -0.00863,-0.002 -0.017543,-0.004 -0.025838,-0.007 -0.00829,-0.003 -0.016369,-0.005 -0.024288,-0.009 -0.00792,-0.003 -0.015238,-0.007 -0.022738,-0.0114 -0.0075,-0.004 -0.015185,-0.008 -0.022221,-0.0129 -0.00704,-0.005 -0.013625,-0.0101 -0.020154,-0.0155 -0.00653,-0.005 -0.012626,-0.0111 -0.018604,-0.0171 -0.00598,-0.006 -0.01167,-0.0121 -0.017053,-0.0186 -0.00538,-0.007 -0.010757,-0.0131 -0.015503,-0.0202 -0.00475,-0.007 -0.00886,-0.0147 -0.012919,-0.0222 -0.00406,-0.007 -0.00803,-0.0148 -0.011369,-0.0227 -0.00334,-0.008 -0.00622,-0.016 -0.00879,-0.0243 -0.00257,-0.008 -0.00496,-0.0172 -0.00672,-0.0258 -0.00176,-0.009 -0.00272,-0.0174 -0.00362,-0.0263 -9.001e-4,-0.009 -0.00155,-0.0177 -0.00155,-0.0269 H 4.4978883 c 0,0.009 -6.502e-4,0.018 -0.00155,0.0269 -9e-4,0.009 -0.00186,0.0177 -0.00362,0.0263 -0.00176,0.009 -0.00415,0.0175 -0.00672,0.0258 -0.00257,0.008 -0.00545,0.0164 -0.00879,0.0243 -0.00334,0.008 -0.00731,0.0152 -0.011369,0.0227 -0.00406,0.007 -0.00817,0.0152 -0.012919,0.0222 -0.00475,0.007 -0.010119,0.0136 -0.015503,0.0202 -0.00538,0.007 -0.011075,0.0126 -0.017053,0.0186 -0.00598,0.006 -0.012075,0.0117 -0.018604,0.0171 -0.00653,0.005 -0.013118,0.0107 -0.020154,0.0155 -0.00704,0.005 -0.014722,0.009 -0.022221,0.0129 -0.0075,0.004 -0.014819,0.008 -0.022738,0.0114 -0.00792,0.003 -0.015993,0.006 -0.024288,0.009 -0.00829,0.003 -0.017211,0.005 -0.025838,0.007 -0.00863,0.002 -0.017439,0.003 -0.026355,0.004 -0.00892,9e-4 -0.01771,0.002 -0.026872,0.002 -0.00916,0 -0.017956,-6.5e-4 -0.026872,-0.002 -0.00892,-9e-4 -0.017727,-0.002 -0.026355,-0.004 -0.00863,-0.002 -0.017543,-0.004 -0.025838,-0.007 -0.0083,-0.003 -0.016369,-0.005 -0.024288,-0.009 -0.00792,-0.003 -0.015238,-0.007 -0.022738,-0.0114 -0.0075,-0.004 -0.015185,-0.008 -0.022221,-0.0129 -0.00704,-0.005 -0.013625,-0.0101 -0.020154,-0.0155 -0.00653,-0.005 -0.012626,-0.0111 -0.018604,-0.0171 -0.00598,-0.006 -0.01167,-0.0121 -0.017053,-0.0186 -0.00538,-0.007 -0.010758,-0.0131 -0.015503,-0.0202 -0.00475,-0.007 -0.00886,-0.0147 -0.012919,-0.0222 -0.00406,-0.007 -0.00803,-0.0148 -0.011369,-0.0227 -0.00334,-0.008 -0.00622,-0.016 -0.00879,-0.0243 -0.00257,-0.008 -0.00496,-0.0172 -0.00672,-0.0258 -0.00176,-0.009 -0.00272,-0.0174 -0.00362,-0.0263 -9e-4,-0.009 -0.00155,-0.0177 -0.00155,-0.0269 H 3.4395337 c 0,0.009 -6.503e-4,0.018 -0.00155,0.0269 -9.001e-4,0.009 -0.00186,0.0177 -0.00362,0.0263 -0.00176,0.009 -0.00415,0.0175 -0.00672,0.0258 -0.00257,0.008 -0.00545,0.0164 -0.00879,0.0243 -0.00334,0.008 -0.00731,0.0152 -0.011369,0.0227 -0.00406,0.007 -0.00817,0.0152 -0.012919,0.0222 -0.00475,0.007 -0.01012,0.0136 -0.015503,0.0202 -0.00538,0.007 -0.011075,0.0126 -0.017053,0.0186 -0.00598,0.006 -0.012075,0.0117 -0.018603,0.0171 -0.00653,0.005 -0.013118,0.0107 -0.020154,0.0155 -0.00704,0.005 -0.014722,0.009 -0.022221,0.0129 -0.0075,0.004 -0.014819,0.008 -0.022738,0.0114 -0.00792,0.003 -0.015993,0.006 -0.024288,0.009 -0.0083,0.003 -0.017211,0.005 -0.025838,0.007 -0.00863,0.002 -0.017439,0.003 -0.026355,0.004 -0.00892,9e-4 -0.01771,0.002 -0.026872,0.002 -0.00916,0 -0.017956,-6.5e-4 -0.026872,-0.002 -0.00892,-9e-4 -0.017728,-0.002 -0.026355,-0.004 -0.00863,-0.002 -0.017543,-0.004 -0.025838,-0.007 -0.00829,-0.003 -0.016369,-0.005 -0.024288,-0.009 -0.00792,-0.003 -0.015238,-0.007 -0.022738,-0.0114 -0.0075,-0.004 -0.015185,-0.008 -0.022221,-0.0129 -0.00704,-0.005 -0.013625,-0.0101 -0.020154,-0.0155 -0.00653,-0.005 -0.012626,-0.0111 -0.018603,-0.0171 -0.00598,-0.006 -0.01167,-0.0121 -0.017053,-0.0186 -0.00538,-0.007 -0.010757,-0.0131 -0.015503,-0.0202 -0.00475,-0.007 -0.00886,-0.0147 -0.012919,-0.0222 -0.00406,-0.007 -0.00803,-0.0148 -0.011369,-0.0227 -0.00334,-0.008 -0.00622,-0.016 -0.00879,-0.0243 -0.00257,-0.008 -0.00496,-0.0172 -0.00672,-0.0258 -0.00176,-0.009 -0.00272,-0.0174 -0.00362,-0.0263 -9.001e-4,-0.009 -0.00155,-0.0177 -0.00155,-0.0269 z m 0.5291666,0.79375 h 2.1166667 v 2.64584 H 3.174967 Z" />
  </g>
</svg>
