<?xml version="1.0" encoding="UTF-8" standalone="no"?>
<!-- Created with Inkscape (http://www.inkscape.org/) -->

<svg
   xmlns:dc="http://purl.org/dc/elements/1.1/"
   xmlns:cc="http://creativecommons.org/ns#"
   xmlns:rdf="http://www.w3.org/1999/02/22-rdf-syntax-ns#"
   xmlns:svg="http://www.w3.org/2000/svg"
   xmlns="http://www.w3.org/2000/svg"
   xmlns:sodipodi="http://sodipodi.sourceforge.net/DTD/sodipodi-0.dtd"
   xmlns:inkscape="http://www.inkscape.org/namespaces/inkscape"
   width="32"
   height="32"
   viewBox="0 0 32 32"
   version="1.1"
   id="svg8"
   inkscape:version="0.92.3 (2405546, 2018-03-11)"
   sodipodi:docname="start-here-gnome.svg">
  <title
     id="title7895">Antu icon Theme</title>
  <defs
     id="defs2">
    <style
       id="current-color-scheme"
       type="text/css">
      .ColorScheme-Text {
        color:#122036;
      }
      </style>
    <style
       id="current-color-scheme-7"
       type="text/css">
      .ColorScheme-Text {
        color:#122036;
      }
      </style>
  </defs>
  <sodipodi:namedview
     id="base"
     pagecolor="#ffffff"
     bordercolor="#666666"
     borderopacity="1.0"
     inkscape:pageopacity="0.0"
     inkscape:pageshadow="2"
     inkscape:zoom="16"
     inkscape:cx="-11.791968"
     inkscape:cy="18.183153"
     inkscape:document-units="px"
     inkscape:current-layer="layer1"
     showgrid="true"
     units="px"
     inkscape:window-width="1874"
     inkscape:window-height="1141"
     inkscape:window-x="46"
     inkscape:window-y="30"
     inkscape:window-maximized="1"
     objecttolerance="10"
     gridtolerance="10"
     guidetolerance="10"
     inkscape:snap-bbox="true"
     inkscape:bbox-nodes="true"
     showborder="true"
     inkscape:showpageshadow="false">
    <inkscape:grid
       type="xygrid"
       id="grid7897"
       empspacing="4" />
  </sodipodi:namedview>
  <metadata
     id="metadata5">
    <rdf:RDF>
      <cc:Work
         rdf:about="">
        <dc:format>image/svg+xml</dc:format>
        <dc:type
           rdf:resource="http://purl.org/dc/dcmitype/StillImage" />
        <dc:title>Antu icon Theme</dc:title>
      </cc:Work>
    </rdf:RDF>
  </metadata>
  <g
     inkscape:label="Capa 1"
     inkscape:groupmode="layer"
     id="layer1"
     transform="translate(0,-282.64999)">
    <g
       id="g1574"
       transform="translate(10,-6)">
      <path
         inkscape:connector-curvature="0"
         id="rect903"
         d="m 6,289.64999 c 8.31,0 15,6.69 15,15 0,8.31 -6.69,15 -15,15 -8.31,0 -15,-6.69 -15,-15 0,-8.31 6.69,-15 15,-15 z"
         style="opacity:1;fill:#4972c5;fill-opacity:1;stroke:none;stroke-width:1.97685266;stroke-linecap:round;stroke-linejoin:round;stroke-miterlimit:4;stroke-dasharray:none;stroke-opacity:1" />
      <path
         inkscape:connector-curvature="0"
         id="rect903-2"
         d="m 6,290.64999 c 7.756,0 14,6.244 14,14 0,7.756 -6.244,14 -14,14 -7.756,0 -14,-6.244 -14,-14 0,-7.756 6.244,-14 14,-14 z"
         style="opacity:1;fill:#5ca5ff;fill-opacity:1;stroke:none;stroke-width:1.84506249;stroke-linecap:round;stroke-linejoin:round;stroke-miterlimit:4;stroke-dasharray:none;stroke-opacity:1" />
    </g>
    <g
       style="fill:#e6f9ff;fill-opacity:1"
       inkscape:label="Capa 1"
       id="layer1-3"
       transform="matrix(3.7795275,0,0,3.7795275,-3.870769e-8,-806.86961)">
      <g
         style="fill:#e6f9ff;fill-opacity:1"
         id="g7758"
         transform="translate(3.3120164,-1.3748867)">
        <path
           d="m 2.5946891,291.49571 c -1.0749489,0 -1.276603,1.57055 -0.6717993,1.57055 0.6045578,0 1.7468807,-1.57055 0.6717993,-1.57055 z m -1.65575828,0.24163 c -0.016933,-6e-5 -0.035341,0.002 -0.054398,0.003 -0.6091653,0.074 -0.3947698,1.06528 -0.070485,1.08376 0.31400348,0.018 0.65753848,-1.08534 0.1246716,-1.08707 z m -1.0562659,0.36597 c -0.037268,-0.002 -0.078525,0.005 -0.1244563,0.0226 -0.4896229,0.19332 -0.074295,0.99136 0.1998096,0.93771 0.2487878,-0.0486 0.2844536,-0.93788 -0.075353,-0.96036 z m -0.7991816,0.65244 c -0.042556,-10e-4 -0.088473,0.013 -0.13757952,0.0481 -0.3919309,0.28125 0.13186832,0.96071 0.36247522,0.85537 0.2017184,-0.0923 0.073025,-0.89311 -0.2249486,-0.90349 z m 2.31482078,0.64865 c -0.84918788,-0.014 -1.96942238,0.40034 -2.16051588,1.23267 -0.2067944,0.90065 0.851864,2.1503 1.95634798,2.1503 0.5433373,0 1.170014,-0.47745 1.2873644,-1.08211 0.089535,-0.46103 -1.0537936,-0.27627 -1.0127721,0.0288 0.049318,0.3657 -0.2757564,0.54647 -0.59407638,0.31076 -1.0132597,-0.75049 1.67777218,-1.12498 1.50027428,-2.15031 -0.055245,-0.31918 -0.4671219,-0.48171 -0.9766223,-0.4901 z"
           id="path4490"
           style="fill:#e6f9ff;fill-opacity:1;stroke:none;stroke-width:0.15119049;stroke-linecap:round;stroke-linejoin:round;stroke-miterlimit:4;stroke-dasharray:none;stroke-opacity:1"
           inkscape:connector-curvature="0" />
      </g>
    </g>
  </g>
</svg>
