<?xml version="1.0" encoding="UTF-8" standalone="no"?>
<!-- Created with Inkscape (http://www.inkscape.org/) -->

<svg
   xmlns:dc="http://purl.org/dc/elements/1.1/"
   xmlns:cc="http://creativecommons.org/ns#"
   xmlns:rdf="http://www.w3.org/1999/02/22-rdf-syntax-ns#"
   xmlns:svg="http://www.w3.org/2000/svg"
   xmlns="http://www.w3.org/2000/svg"
   xmlns:sodipodi="http://sodipodi.sourceforge.net/DTD/sodipodi-0.dtd"
   xmlns:inkscape="http://www.inkscape.org/namespaces/inkscape"
   width="32"
   height="32"
   viewBox="0 0 8.4666665 8.4666669"
   version="1.1"
   id="svg8"
   inkscape:version="0.92.3 (2405546, 2018-03-11)"
   sodipodi:docname="start-here.svg">
  <defs
     id="defs2" />
  <sodipodi:namedview
     id="base"
     pagecolor="#ffffff"
     bordercolor="#666666"
     borderopacity="1.0"
     inkscape:pageopacity="0.0"
     inkscape:pageshadow="2"
     inkscape:zoom="11.2"
     inkscape:cx="1.6814447"
     inkscape:cy="13.283898"
     inkscape:document-units="px"
     inkscape:current-layer="layer1"
     showgrid="true"
     units="px"
     inkscape:showpageshadow="false"
     inkscape:snap-bbox="true"
     inkscape:bbox-paths="true"
     inkscape:bbox-nodes="true"
     inkscape:snap-bbox-edge-midpoints="true"
     inkscape:snap-bbox-midpoints="true"
     inkscape:object-paths="true"
     inkscape:snap-intersection-paths="true"
     inkscape:window-width="1874"
     inkscape:window-height="1141"
     inkscape:window-x="46"
     inkscape:window-y="30"
     inkscape:window-maximized="1">
    <inkscape:grid
       type="xygrid"
       id="grid815" />
  </sodipodi:namedview>
  <metadata
     id="metadata5">
    <rdf:RDF>
      <cc:Work
         rdf:about="">
        <dc:format>image/svg+xml</dc:format>
        <dc:type
           rdf:resource="http://purl.org/dc/dcmitype/StillImage" />
        <dc:title></dc:title>
      </cc:Work>
    </rdf:RDF>
  </metadata>
  <g
     inkscape:label="Capa 1"
     inkscape:groupmode="layer"
     id="layer1"
     transform="translate(0,-288.53333)">
    <g
       id="g3025"
       transform="translate(4.2333334,0.52917335)">
      <path
         style="opacity:1;fill:#4f92db;fill-opacity:1;stroke:none;stroke-width:0.52304226;stroke-linecap:round;stroke-linejoin:round;stroke-miterlimit:4;stroke-dasharray:none;stroke-opacity:1"
         d="M -1.1804687e-7,288.26874 C 2.1986874,288.26874 3.9687499,290.0388 3.9687499,292.23749 c 0,2.19869 -1.7700625,3.96875 -3.96875001804687,3.96875 C -2.1986876,296.20624 -3.9687501,294.43618 -3.9687501,292.23749 c 0,-2.19869 1.7700625,-3.96875 3.96874998195313,-3.96875 z"
         id="rect903"
         inkscape:connector-curvature="0" />
      <path
         style="opacity:1;fill:#5ac0ff;fill-opacity:1;stroke:none;stroke-width:0.4881728;stroke-linecap:round;stroke-linejoin:round;stroke-miterlimit:4;stroke-dasharray:none;stroke-opacity:1"
         d="M -1.1804687e-7,288.53332 C 2.0521083,288.53332 3.7041666,290.18538 3.7041666,292.23749 c 0,2.05211 -1.6520583,3.70417 -3.70416671804687,3.70417 C -2.0521084,295.94166 -3.7041668,294.2896 -3.7041668,292.23749 c 0,-2.05211 1.6520584,-3.70417 3.70416668195313,-3.70417 z"
         id="rect903-2"
         inkscape:connector-curvature="0" />
      <path
         inkscape:connector-curvature="0"
         style="opacity:1;fill:#e7f9ff;fill-opacity:1;stroke:none;stroke-width:0.48991314;stroke-linecap:round;stroke-linejoin:round;stroke-miterlimit:4;stroke-dasharray:none;stroke-opacity:1"
         d="m -1.0583334,290.38541 c -0.4397375,0 -0.79375,0.35401 -0.79375,0.79375 0,0.43973 0.3540125,0.79375 0.79375,0.79375 0.43973748,0 0.79374998,-0.35402 0.79374998,-0.79375 0,-0.43974 -0.3540125,-0.79375 -0.79374998,-0.79375 z m 2.1166667,0 c -0.43973752,0 -0.79375012,0.35401 -0.79375012,0.79375 0,0.43973 0.3540126,0.79375 0.79375012,0.79375 0.4397375,0 0.79375,-0.35402 0.79375,-0.79375 0,-0.43974 -0.3540125,-0.79375 -0.79375,-0.79375 z m -2.1166667,2.11666 c -0.4397375,0 -0.79375,0.35402 -0.79375,0.79375 0,0.43974 0.3540125,0.79375 0.79375,0.79375 0.43973748,0 0.79374998,-0.35401 0.79374998,-0.79375 0,-0.43973 -0.3540125,-0.79375 -0.79374998,-0.79375 z m 2.1166667,0 c -0.43973752,0 -0.79375012,0.35402 -0.79375012,0.79375 0,0.43974 0.3540126,0.79375 0.79375012,0.79375 0.4397375,0 0.79375,-0.35401 0.79375,-0.79375 0,-0.43973 -0.3540125,-0.79375 -0.79375,-0.79375 z"
         id="path964" />
    </g>
  </g>
</svg>
