<?xml version="1.0" encoding="UTF-8" standalone="no"?>
<!-- Created with Inkscape (http://www.inkscape.org/) -->

<svg
   xmlns:dc="http://purl.org/dc/elements/1.1/"
   xmlns:cc="http://creativecommons.org/ns#"
   xmlns:rdf="http://www.w3.org/1999/02/22-rdf-syntax-ns#"
   xmlns:svg="http://www.w3.org/2000/svg"
   xmlns="http://www.w3.org/2000/svg"
   xmlns:sodipodi="http://sodipodi.sourceforge.net/DTD/sodipodi-0.dtd"
   xmlns:inkscape="http://www.inkscape.org/namespaces/inkscape"
   width="32"
   height="32"
   viewBox="0 0 32 32"
   version="1.1"
   id="svg8"
   inkscape:version="0.92.4 5da689c313, 2019-01-14"
   sodipodi:docname="ubuntu.svg">
  <title
     id="title7895">Antu icon Theme</title>
  <defs
     id="defs2">
    <style
       id="current-color-scheme"
       type="text/css">
      .ColorScheme-Text {
        color:#122036;
      }
      </style>
    <style
       type="text/css"
       id="current-color-scheme-53">
      .ColorScheme-Text {
        color:#122036;
      }
      </style>
    <style
       id="current-color-scheme-5"
       type="text/css">
      .ColorScheme-Text {
        color:#122036;
      }
      </style>
    <style
       id="current-color-scheme-2"
       type="text/css">
      .ColorScheme-Text {
        color:#122036;
      }
      </style>
    <style
       id="current-color-scheme-1"
       type="text/css">
      .ColorScheme-Text {
        color:#122036;
      }
      </style>
    <style
       type="text/css"
       id="current-color-scheme-10">
      .ColorScheme-Text {
        color:#122036;
      }
      </style>
    <style
       id="current-color-scheme-0"
       type="text/css">
      .ColorScheme-Text {
        color:#122036;
      }
      </style>
    <style
       id="current-color-scheme-26"
       type="text/css">
      .ColorScheme-Text {
        color:#122036;
      }
      </style>
    <style
       id="current-color-scheme-6"
       type="text/css">
      .ColorScheme-Text {
        color:#122036;
      }
      </style>
    <style
       type="text/css"
       id="current-color-scheme-53-7">
      .ColorScheme-Text {
        color:#122036;
      }
      </style>
    <style
       id="current-color-scheme-5-5"
       type="text/css">
      .ColorScheme-Text {
        color:#122036;
      }
      </style>
    <style
       id="current-color-scheme-2-3"
       type="text/css">
      .ColorScheme-Text {
        color:#122036;
      }
      </style>
    <style
       id="current-color-scheme-1-5"
       type="text/css">
      .ColorScheme-Text {
        color:#122036;
      }
      </style>
    <style
       type="text/css"
       id="current-color-scheme-10-6">
      .ColorScheme-Text {
        color:#122036;
      }
      </style>
    <style
       id="current-color-scheme-0-2"
       type="text/css">
      .ColorScheme-Text {
        color:#122036;
      }
      </style>
    <style
       id="current-color-scheme-67"
       type="text/css">
      .ColorScheme-Text {
        color:#122036;
      }
      </style>
    <style
       type="text/css"
       id="current-color-scheme-53-5">
      .ColorScheme-Text {
        color:#122036;
      }
      </style>
    <style
       id="current-color-scheme-5-3"
       type="text/css">
      .ColorScheme-Text {
        color:#122036;
      }
      </style>
    <style
       id="current-color-scheme-2-5"
       type="text/css">
      .ColorScheme-Text {
        color:#122036;
      }
      </style>
    <style
       id="current-color-scheme-1-6"
       type="text/css">
      .ColorScheme-Text {
        color:#122036;
      }
      </style>
    <style
       type="text/css"
       id="current-color-scheme-10-2">
      .ColorScheme-Text {
        color:#122036;
      }
      </style>
    <style
       id="current-color-scheme-0-9"
       type="text/css">
      .ColorScheme-Text {
        color:#122036;
      }
      </style>
    <style
       id="current-color-scheme-26-1"
       type="text/css">
      .ColorScheme-Text {
        color:#122036;
      }
      </style>
  </defs>
  <sodipodi:namedview
     id="base"
     pagecolor="#ffffff"
     bordercolor="#666666"
     borderopacity="1.0"
     inkscape:pageopacity="0.0"
     inkscape:pageshadow="2"
     inkscape:zoom="11.2"
     inkscape:cx="-14.432971"
     inkscape:cy="13.753967"
     inkscape:document-units="px"
     inkscape:current-layer="layer1"
     showgrid="true"
     units="px"
     inkscape:window-width="1870"
     inkscape:window-height="1141"
     inkscape:window-x="50"
     inkscape:window-y="30"
     inkscape:window-maximized="1"
     objecttolerance="10"
     gridtolerance="10"
     guidetolerance="10"
     inkscape:snap-bbox="true"
     inkscape:bbox-paths="true"
     inkscape:bbox-nodes="true"
     inkscape:snap-bbox-edge-midpoints="true"
     inkscape:snap-bbox-midpoints="true"
     inkscape:object-paths="true"
     inkscape:snap-intersection-paths="true">
    <inkscape:grid
       type="xygrid"
       id="grid7897"
       empspacing="4" />
  </sodipodi:namedview>
  <metadata
     id="metadata5">
    <rdf:RDF>
      <cc:Work
         rdf:about="">
        <dc:format>image/svg+xml</dc:format>
        <dc:type
           rdf:resource="http://purl.org/dc/dcmitype/StillImage" />
        <dc:title>Antu icon Theme</dc:title>
      </cc:Work>
    </rdf:RDF>
  </metadata>
  <g
     inkscape:label="Capa 1"
     inkscape:groupmode="layer"
     id="layer1"
     transform="translate(0,-282.64999)">
    <g
       id="g854"
       transform="translate(-22,-33)">
      <path
         inkscape:connector-curvature="0"
         id="rect903-3"
         d="m 38,316.64999 c 8.31,0 15,6.69 15,15 0,8.31 -6.69,15 -15,15 -8.31,0 -15,-6.69 -15,-15 0,-8.31 6.69,-15 15,-15 z"
         style="opacity:1;fill:#d16040;fill-opacity:1;stroke:none;stroke-width:1.97685266;stroke-linecap:round;stroke-linejoin:round;stroke-miterlimit:4;stroke-dasharray:none;stroke-opacity:1" />
      <path
         inkscape:connector-curvature="0"
         id="rect903-2-6"
         d="m 38,317.64999 c 7.756,0 14,6.244 14,14 0,7.756 -6.244,14 -14,14 -7.756,0 -14,-6.244 -14,-14 0,-7.756 6.244,-14 14,-14 z"
         style="opacity:1;fill:#ff8f64;fill-opacity:1;stroke:none;stroke-width:1.84506249;stroke-linecap:round;stroke-linejoin:round;stroke-miterlimit:4;stroke-dasharray:none;stroke-opacity:1" />
      <path
         id="rect920"
         d="m 41,320.64999 c -1.108,0 -2,0.892 -2,2 0,1.108 0.892,2 2,2 1.108,0 2,-0.892 2,-2 0,-1.108 -0.892,-2 -2,-2 z m -3,2.00195 a 9,9 0 0 0 -5.033203,1.53711 l 1.677734,2.48633 a 6,6 0 0 1 0.513672,-0.31055 6,6 0 0 1 0.541016,-0.25586 6,6 0 0 1 0.566406,-0.20312 6,6 0 0 1 0.582031,-0.14453 6,6 0 0 1 0.591797,-0.0859 6,6 0 0 1 0.599609,-0.0254 6,6 0 0 1 0.59961,0.0332 6,6 0 0 1 0.591797,0.0937 6,6 0 0 1 0.580078,0.15234 6,6 0 0 1 0.04297,0.0137 6,6 0 0 1 0.560546,0.21485 6,6 0 0 1 0.53711,0.26758 6,6 0 0 1 0.505859,0.32031 6,6 0 0 1 0.472657,0.37109 6,6 0 0 1 0.433593,0.41406 6,6 0 0 1 0.388672,0.45704 6,6 0 0 1 0.341797,0.49218 6,6 0 0 1 0.291016,0.52344 6,6 0 0 1 0.238281,0.55078 6,6 0 0 1 0.01563,0.043 l 2.818359,-1.02539 a 9,9 0 0 0 -3.064453,-4.11719 3,3 0 0 1 -0.09766,0.12891 3,3 0 0 1 -0.205078,0.21875 3,3 0 0 1 -0.22461,0.19727 3,3 0 0 1 -0.24414,0.17578 3,3 0 0 1 -0.259766,0.14843 3,3 0 0 1 -0.273437,0.12305 3,3 0 0 1 -0.285157,0.0937 3,3 0 0 1 -0.292968,0.0664 3,3 0 0 1 -0.296875,0.0352 3,3 0 0 1 -0.212893,0.008 3,3 0 0 1 -0.298828,-0.0156 3,3 0 0 1 -0.296875,-0.0449 3,3 0 0 1 -0.291016,-0.0742 3,3 0 0 1 -0.28125,-0.10156 3,3 0 0 1 -0.269531,-0.13086 3,3 0 0 1 -0.255859,-0.15625 3,3 0 0 1 -0.240235,-0.18164 3,3 0 0 1 -0.21875,-0.20508 3,3 0 0 1 -0.197265,-0.22461 3,3 0 0 1 -0.173829,-0.24414 3,3 0 0 1 -0.15039,-0.25976 3,3 0 0 1 -0.123047,-0.27344 3,3 0 0 1 -0.09375,-0.28516 3,3 0 0 1 -0.06641,-0.29296 3,3 0 0 1 -0.03516,-0.29688 A 3,3 0 0 1 38,322.65194 Z m -6.6875,2.97657 a 9,9 0 0 0 -1.902344,3.375 3,3 0 0 1 0.02734,0.0137 3,3 0 0 1 0.25586,0.15625 3,3 0 0 1 0.240234,0.18164 3,3 0 0 1 0.21875,0.20507 3,3 0 0 1 0.197266,0.22461 3,3 0 0 1 0.173828,0.24414 3,3 0 0 1 0.15039,0.25977 3,3 0 0 1 0.123047,0.27344 3,3 0 0 1 0.09375,0.28515 3,3 0 0 1 0.06641,0.29297 3,3 0 0 1 0.03516,0.29688 3,3 0 0 1 0.0078,0.21289 3,3 0 0 1 -0.01563,0.29883 3,3 0 0 1 -0.04492,0.29687 3,3 0 0 1 -0.07422,0.29102 3,3 0 0 1 -0.101562,0.28125 3,3 0 0 1 -0.13086,0.26953 3,3 0 0 1 -0.15625,0.25586 3,3 0 0 1 -0.18164,0.24023 3,3 0 0 1 -0.205078,0.21875 3,3 0 0 1 -0.22461,0.19727 3,3 0 0 1 -0.24414,0.17578 3,3 0 0 1 -0.210938,0.12109 9,9 0 0 0 2.568359,4.04102 l 2.00586,-2.22852 a 6,6 0 0 1 -0.423828,-0.42382 6,6 0 0 1 -0.380859,-0.46289 6,6 0 0 1 -0.332032,-0.49805 6,6 0 0 1 -0.28125,-0.53125 6,6 0 0 1 -0.226562,-0.55469 6,6 0 0 1 -0.171875,-0.57422 6,6 0 0 1 -0.111328,-0.58984 6,6 0 0 1 -0.05274,-0.59766 6,6 0 0 1 0.0078,-0.59961 6,6 0 0 1 0.06641,-0.5957 6,6 0 0 1 0.126953,-0.58594 6,6 0 0 1 0.183594,-0.57226 6,6 0 0 1 0.240234,-0.54883 6,6 0 0 1 0.294922,-0.52344 6,6 0 0 1 0.34375,-0.49023 6,6 0 0 1 0.273438,-0.32618 z M 28,329.64999 c -1.108,0 -2,0.892 -2,2 0,1.108 0.892,2 2,2 1.108,0 2,-0.892 2,-2 0,-1.108 -0.892,-2 -2,-2 z m 18.951172,1.05859 -2.984375,0.31446 a 6,6 0 0 1 0.0332,0.59961 6,6 0 0 1 -0.02734,0.59765 6,6 0 0 1 -0.08594,0.59375 6,6 0 0 1 -0.146485,0.58203 6,6 0 0 1 -0.203125,0.56446 6,6 0 0 1 -0.257812,0.54101 6,6 0 0 1 -0.310547,0.51367 6,6 0 0 1 -0.361328,0.47852 6,6 0 0 1 -0.40625,0.44141 6,6 0 0 1 -0.449219,0.39648 6,6 0 0 1 -0.310547,0.23242 6,6 0 0 1 -0.507812,0.32031 6,6 0 0 1 -0.53711,0.26563 6,6 0 0 1 -0.560546,0.21289 6,6 0 0 1 -0.580079,0.1543 6,6 0 0 1 -0.591797,0.0957 6,6 0 0 1 -0.59961,0.0371 6,6 0 0 1 -0.597656,-0.0234 6,6 0 0 1 -0.595703,-0.084 6,6 0 0 1 -0.582032,-0.14258 6,6 0 0 1 -0.564453,-0.19922 6,6 0 0 1 -0.355468,-0.1582 l -1.314453,2.69726 a 9,9 0 0 0 6.984374,0.38282 3,3 0 0 1 -0.03125,-0.25977 3,3 0 0 1 -0.0078,-0.21289 3,3 0 0 1 0.01563,-0.29883 3,3 0 0 1 0.04492,-0.29687 3,3 0 0 1 0.07422,-0.29102 3,3 0 0 1 0.101562,-0.28125 3,3 0 0 1 0.13086,-0.26953 3,3 0 0 1 0.15625,-0.25586 3,3 0 0 1 0.18164,-0.24023 3,3 0 0 1 0.205078,-0.21875 3,3 0 0 1 0.22461,-0.19727 3,3 0 0 1 0.24414,-0.17383 3,3 0 0 1 0.259766,-0.15039 3,3 0 0 1 0.273437,-0.12305 3,3 0 0 1 0.285157,-0.0937 3,3 0 0 1 0.292968,-0.0664 3,3 0 0 1 0.296875,-0.0351 3,3 0 0 1 0.212887,-0.008 3,3 0 0 1 0.298828,0.0156 3,3 0 0 1 0.296875,0.0449 3,3 0 0 1 0.291016,0.0742 3,3 0 0 1 0.28125,0.10156 3,3 0 0 1 0.103515,0.0508 9,9 0 0 0 1.679688,-6.22851 z M 44,337.64999 c -1.107999,0 -2,0.892 -2,2 0,1.108 0.892001,2 2,2 1.107999,0 2,-0.892 2,-2 0,-1.108 -0.892001,-2 -2,-2 z"
         style="fill:#fefefe;fill-opacity:1;stroke:none;stroke-width:2;stroke-linecap:round;stroke-linejoin:round;stroke-miterlimit:4;stroke-dasharray:none;stroke-opacity:1"
         inkscape:connector-curvature="0" />
    </g>
  </g>
</svg>
