<?xml version="1.0" encoding="UTF-8" standalone="no"?>
<!-- Created with Inkscape (http://www.inkscape.org/) -->

<svg
   xmlns:dc="http://purl.org/dc/elements/1.1/"
   xmlns:cc="http://creativecommons.org/ns#"
   xmlns:rdf="http://www.w3.org/1999/02/22-rdf-syntax-ns#"
   xmlns:svg="http://www.w3.org/2000/svg"
   xmlns="http://www.w3.org/2000/svg"
   xmlns:sodipodi="http://sodipodi.sourceforge.net/DTD/sodipodi-0.dtd"
   xmlns:inkscape="http://www.inkscape.org/namespaces/inkscape"
   width="32"
   height="32"
   viewBox="0 0 8.4666665 8.4666669"
   version="1.1"
   id="svg8"
   inkscape:version="0.92.3 (2405546, 2018-03-11)"
   sodipodi:docname="user-trash.svg">
  <defs
     id="defs2" />
  <sodipodi:namedview
     id="base"
     pagecolor="#ffffff"
     bordercolor="#666666"
     borderopacity="1.0"
     inkscape:pageopacity="0.0"
     inkscape:pageshadow="2"
     inkscape:zoom="11.2"
     inkscape:cx="1.6814447"
     inkscape:cy="13.283898"
     inkscape:document-units="px"
     inkscape:current-layer="layer1"
     showgrid="true"
     units="px"
     inkscape:showpageshadow="false"
     inkscape:snap-bbox="true"
     inkscape:bbox-paths="true"
     inkscape:bbox-nodes="true"
     inkscape:snap-bbox-edge-midpoints="true"
     inkscape:snap-bbox-midpoints="true"
     inkscape:object-paths="true"
     inkscape:snap-intersection-paths="true"
     inkscape:window-width="1874"
     inkscape:window-height="1141"
     inkscape:window-x="46"
     inkscape:window-y="30"
     inkscape:window-maximized="1">
    <inkscape:grid
       type="xygrid"
       id="grid815" />
  </sodipodi:namedview>
  <metadata
     id="metadata5">
    <rdf:RDF>
      <cc:Work
         rdf:about="">
        <dc:format>image/svg+xml</dc:format>
        <dc:type
           rdf:resource="http://purl.org/dc/dcmitype/StillImage" />
        <dc:title></dc:title>
      </cc:Work>
    </rdf:RDF>
  </metadata>
  <g
     inkscape:label="Capa 1"
     inkscape:groupmode="layer"
     id="layer1"
     transform="translate(0,-288.53333)">
    <g
       id="g1415"
       transform="translate(-1.5875001,0.26458835)">
      <path
         inkscape:connector-curvature="0"
         style="opacity:0.98999999;fill:#b0c1d4;fill-opacity:1;stroke:none;stroke-width:0.52916664;stroke-linecap:round;stroke-linejoin:round;stroke-miterlimit:4;stroke-dasharray:none;stroke-opacity:1"
         d="m 5.0270833,288.79791 c -0.2931509,0 -0.5291666,0.23602 -0.5291666,0.52917 v 0.52916 H 3.4395833 c -0.2931588,0 -0.5291666,0.23601 -0.5291666,0.52917 v 0.26458 0.52917 H 3.175 v 0.26458 2.64584 1.32291 c 0,0.43974 0.3540186,0.79375 0.79375,0.79375 h 3.7041667 c 0.4397312,0 0.79375,-0.35401 0.79375,-0.79375 v -1.32291 -2.64584 -0.26458 h 0.2645834 v -0.52917 -0.26458 c 0,-0.29316 -0.2360078,-0.52917 -0.5291667,-0.52917 H 7.14375 v -0.52916 c 0,-0.29315 -0.2360157,-0.52917 -0.5291666,-0.52917 z m 0.2645834,0.79375 H 6.35 v 0.26458 H 5.2916667 Z"
         id="rect4605-0" />
      <path
         id="rect4632"
         d="m 5.0270834,289.06249 c -0.1465863,0 -0.2645834,0.118 -0.2645834,0.26459 v 0.26458 0.26458 h 0.2645834 v -0.52916 h 1.5875 v 0.52916 h 0.2645833 v -0.26458 -0.26458 c 0,-0.14659 -0.117997,-0.26459 -0.2645833,-0.26459 z m -1.5875001,1.05834 c -0.1465775,0 -0.2645833,0.118 -0.2645833,0.26458 v 0.26458 0.26459 h 0.2645833 4.7625001 0.2645833 v -0.26459 -0.26458 c 0,-0.14658 -0.118006,-0.26458 -0.2645833,-0.26458 z m 0,1.05833 v 0.52917 2.38125 1.32291 c 0,0.29316 0.2360084,0.52917 0.5291667,0.52917 h 3.7041667 c 0.2931584,0 0.5291667,-0.23601 0.5291667,-0.52917 v -1.32291 -2.38125 -0.52917 H 7.6729167 3.96875 Z m 1.0583334,0.79375 c 0.1465792,0 0.2645833,0.118 0.2645833,0.26458 v 2.64584 c 0,0.14658 -0.1180041,0.26458 -0.2645833,0.26458 -0.1465792,0 -0.2645833,-0.118 -0.2645833,-0.26458 v -2.64584 c 0,-0.14658 0.1180041,-0.26458 0.2645833,-0.26458 z m 1.3229167,0 c 0.1465791,0 0.2645833,0.118 0.2645833,0.26458 v 2.64584 c 0,0.14658 -0.1180042,0.26458 -0.2645833,0.26458 -0.1465792,0 -0.2645834,-0.118 -0.2645834,-0.26458 v -2.64584 c 0,-0.14658 0.1180042,-0.26458 0.2645834,-0.26458 z m 1.3229166,0 c 0.1465792,0 0.2645834,0.118 0.2645834,0.26458 v 2.64584 c 0,0.14658 -0.1180042,0.26458 -0.2645834,0.26458 -0.1465791,0 -0.2645833,-0.118 -0.2645833,-0.26458 v -2.64584 c 0,-0.14658 0.1180042,-0.26458 0.2645833,-0.26458 z"
         style="opacity:0.98999999;fill:#e1ebf2;fill-opacity:1;stroke:none;stroke-width:0.52916664;stroke-linecap:round;stroke-linejoin:round;stroke-miterlimit:4;stroke-dasharray:none;stroke-opacity:1"
         inkscape:connector-curvature="0" />
    </g>
  </g>
</svg>
