<?xml version="1.0" encoding="UTF-8" standalone="no"?>
<!-- Created with Inkscape (http://www.inkscape.org/) -->

<svg
   xmlns:dc="http://purl.org/dc/elements/1.1/"
   xmlns:cc="http://creativecommons.org/ns#"
   xmlns:rdf="http://www.w3.org/1999/02/22-rdf-syntax-ns#"
   xmlns:svg="http://www.w3.org/2000/svg"
   xmlns="http://www.w3.org/2000/svg"
   xmlns:sodipodi="http://sodipodi.sourceforge.net/DTD/sodipodi-0.dtd"
   xmlns:inkscape="http://www.inkscape.org/namespaces/inkscape"
   width="32"
   height="32"
   viewBox="0 0 8.4666665 8.4666669"
   version="1.1"
   id="svg8"
   inkscape:version="0.92.3 (2405546, 2018-03-11)"
   sodipodi:docname="user-trash-full.svg">
  <defs
     id="defs2" />
  <sodipodi:namedview
     id="base"
     pagecolor="#ffffff"
     bordercolor="#666666"
     borderopacity="1.0"
     inkscape:pageopacity="0.0"
     inkscape:pageshadow="2"
     inkscape:zoom="11.2"
     inkscape:cx="1.6814447"
     inkscape:cy="13.283898"
     inkscape:document-units="px"
     inkscape:current-layer="layer1"
     showgrid="true"
     units="px"
     inkscape:showpageshadow="false"
     inkscape:snap-bbox="true"
     inkscape:bbox-paths="true"
     inkscape:bbox-nodes="true"
     inkscape:snap-bbox-edge-midpoints="true"
     inkscape:snap-bbox-midpoints="true"
     inkscape:object-paths="true"
     inkscape:snap-intersection-paths="true"
     inkscape:window-width="1874"
     inkscape:window-height="1141"
     inkscape:window-x="46"
     inkscape:window-y="30"
     inkscape:window-maximized="1">
    <inkscape:grid
       type="xygrid"
       id="grid815" />
  </sodipodi:namedview>
  <metadata
     id="metadata5">
    <rdf:RDF>
      <cc:Work
         rdf:about="">
        <dc:format>image/svg+xml</dc:format>
        <dc:type
           rdf:resource="http://purl.org/dc/dcmitype/StillImage" />
        <dc:title></dc:title>
      </cc:Work>
    </rdf:RDF>
  </metadata>
  <g
     inkscape:label="Capa 1"
     inkscape:groupmode="layer"
     id="layer1"
     transform="translate(0,-288.53333)">
    <g
       id="g1543"
       transform="translate(7.9375,-0.52916665)">
      <path
         sodipodi:nodetypes="sssssssss"
         style="opacity:1;fill:#4f92db;fill-opacity:1;stroke:none;stroke-width:0.079375;stroke-miterlimit:4;stroke-dasharray:none;stroke-opacity:1"
         d="m -4.762496,289.59166 h 1.587492 c 0.1465813,0 0.2645873,0.118 0.2645873,0.26458 v 1.85209 c 0,0.14658 -0.118006,0.26459 -0.2645873,0.26459 h -1.587492 c -0.1465814,0 -0.2645874,-0.11801 -0.2645874,-0.26459 v -1.85209 c 0,-0.14658 0.118006,-0.26458 0.2645874,-0.26458 z"
         id="rect4528"
         inkscape:connector-curvature="0" />
      <path
         sodipodi:nodetypes="ccccc"
         style="opacity:1;fill:#5ac0ff;fill-opacity:1;stroke:none;stroke-width:0.079375;stroke-miterlimit:4;stroke-dasharray:none;stroke-opacity:1"
         d="m -4.7625,289.85624 h 1.5875 v 1.85209 h -1.5875 z"
         id="rect4530"
         inkscape:connector-curvature="0" />
      <path
         sodipodi:nodetypes="sssssssss"
         style="opacity:1;fill:#ba9b48;fill-opacity:1;stroke:none;stroke-width:0.079375;stroke-miterlimit:4;stroke-dasharray:none;stroke-opacity:1"
         d="m -3.174991,289.85624 h 1.5874826 c 0.1465841,0 0.2645923,0.11801 0.2645923,0.2646 v 1.58746 c 0,0.14659 -0.1180082,0.2646 -0.2645923,0.2646 H -3.174991 c -0.1465842,0 -0.2645923,-0.11801 -0.2645923,-0.2646 v -1.58746 c 0,-0.14659 0.1180081,-0.2646 0.2645923,-0.2646 z"
         id="rect4536-5"
         inkscape:connector-curvature="0" />
      <path
         sodipodi:nodetypes="ccccc"
         style="opacity:1;fill:#ffeea3;fill-opacity:1;stroke:none;stroke-width:0.079375;stroke-miterlimit:4;stroke-dasharray:none;stroke-opacity:1"
         d="m -3.1750003,290.12083 h 1.5874995 v 1.58748 h -1.5874995 z"
         id="rect4538-5"
         inkscape:connector-curvature="0" />
      <path
         sodipodi:nodetypes="sssssssss"
         style="opacity:1;fill:#c74343;fill-opacity:1;stroke:none;stroke-width:0.079375;stroke-miterlimit:4;stroke-dasharray:none;stroke-opacity:1"
         d="m -3.4395828,290.65 h 1.0583323 c 0.1465797,0 0.2645844,0.118 0.2645844,0.26458 v 0.79375 c 0,0.14658 -0.091546,0.26459 -0.2381261,0.26459 h -1.0847906 c -0.1465797,0 -0.2645843,-0.11801 -0.2645843,-0.26459 v -0.79375 c 0,-0.14658 0.1180046,-0.26458 0.2645843,-0.26458 z"
         id="rect4532"
         inkscape:connector-curvature="0" />
      <path
         sodipodi:nodetypes="ccccc"
         style="opacity:1;fill:#f78f8f;fill-opacity:1;stroke:none;stroke-width:0.079375;stroke-miterlimit:4;stroke-dasharray:none;stroke-opacity:1"
         d="m -3.4395836,290.91459 h 1.0583341 v 0.79375 h -1.0583341 z"
         id="rect4534"
         inkscape:connector-curvature="0" />
      <path
         sodipodi:nodetypes="sssssssss"
         style="opacity:1;fill:#5e9c76;fill-opacity:1;stroke:none;stroke-width:0.079375;stroke-miterlimit:4;stroke-dasharray:none;stroke-opacity:1"
         d="m -5.8208323,290.65 h 1.5874982 c 0.1465796,0 0.2645842,0.118 0.2645842,0.26458 v 0.79375 c 0,0.14658 -0.1180046,0.26459 -0.2645842,0.26459 h -1.5874982 c -0.1465797,0 -0.2645844,-0.11801 -0.2645844,-0.26459 v -0.79375 c 0,-0.14658 0.1180047,-0.26458 0.2645844,-0.26458 z"
         id="rect4524"
         inkscape:connector-curvature="0" />
      <path
         sodipodi:nodetypes="ccccc"
         style="opacity:1;fill:#99c99e;fill-opacity:1;stroke:none;stroke-width:0.079375;stroke-miterlimit:4;stroke-dasharray:none;stroke-opacity:1"
         d="m -5.8208334,290.91459 h 1.5875001 v 0.79374 h -1.5875001 z"
         id="rect4526"
         inkscape:connector-curvature="0" />
      <path
         inkscape:connector-curvature="0"
         style="opacity:0.98999999;fill:#b0c1d4;fill-opacity:0.99215686;stroke:none;stroke-width:0.52916664;stroke-linecap:round;stroke-linejoin:round;stroke-miterlimit:4;stroke-dasharray:none;stroke-opacity:1"
         d="m -6.0854167,291.70833 c -0.1465792,0 -0.2645833,0.118 -0.2645833,0.26458 v 0.26459 0.26458 2.38125 1.32292 c 0,0.43973 0.3540186,0.79375 0.79375,0.79375 h 3.7041667 c 0.4397311,0 0.79375,-0.35402 0.79375,-0.79375 v -1.32292 -2.38125 -0.26458 -0.26459 c 0,-0.14658 -0.1180042,-0.26458 -0.2645833,-0.26458 z"
         id="rect4605" />
      <path
         id="rect4636"
         d="m -6.0854167,291.97291 v 0.26458 0.26459 0.26458 2.11667 1.32291 c 0,0.29316 0.2360083,0.52917 0.5291667,0.52917 h 3.7041667 c 0.2931583,0 0.5291667,-0.23601 0.5291667,-0.52917 v -1.32291 -2.11667 -0.26458 -0.26459 -0.26458 z m 1.0583334,0.79375 c 0.1465791,0 0.2645833,0.118 0.2645833,0.26458 v 2.64584 c 0,0.14657 -0.1180042,0.26458 -0.2645833,0.26458 -0.1465792,0 -0.2645834,-0.11801 -0.2645834,-0.26458 v -2.64584 c 0,-0.14658 0.1180042,-0.26458 0.2645834,-0.26458 z m 1.3229166,0 c 0.1465795,0 0.2645834,0.118 0.2645834,0.26458 v 2.64584 c 0,0.14657 -0.1180039,0.26458 -0.2645834,0.26458 -0.1465791,0 -0.2645833,-0.11801 -0.2645833,-0.26458 v -2.64584 c 0,-0.14658 0.1180042,-0.26458 0.2645833,-0.26458 z m 1.3229167,0 c 0.1465792,0 0.2645833,0.118 0.2645833,0.26458 v 2.64584 c 0,0.14657 -0.1180041,0.26458 -0.2645833,0.26458 -0.1465792,0 -0.2645833,-0.11801 -0.2645833,-0.26458 v -2.64584 c 0,-0.14658 0.1180041,-0.26458 0.2645833,-0.26458 z"
         style="opacity:0.98999999;fill:#e0eaf2;fill-opacity:1;stroke:none;stroke-width:0.52916664;stroke-linecap:round;stroke-linejoin:round;stroke-miterlimit:4;stroke-dasharray:none;stroke-opacity:1"
         inkscape:connector-curvature="0" />
    </g>
  </g>
</svg>
