<?xml version="1.0" encoding="UTF-8" standalone="no"?>
<!-- Created with Inkscape (http://www.inkscape.org/) -->

<svg
   xmlns:dc="http://purl.org/dc/elements/1.1/"
   xmlns:cc="http://creativecommons.org/ns#"
   xmlns:rdf="http://www.w3.org/1999/02/22-rdf-syntax-ns#"
   xmlns:svg="http://www.w3.org/2000/svg"
   xmlns="http://www.w3.org/2000/svg"
   xmlns:sodipodi="http://sodipodi.sourceforge.net/DTD/sodipodi-0.dtd"
   xmlns:inkscape="http://www.inkscape.org/namespaces/inkscape"
   width="32"
   height="32"
   viewBox="0 0 32 32"
   version="1.1"
   id="svg8"
   inkscape:version="0.92.4 5da689c313, 2019-01-14"
   sodipodi:docname="windows.svg">
  <title
     id="title7895">Antu icon Theme</title>
  <defs
     id="defs2" />
  <sodipodi:namedview
     id="base"
     pagecolor="#ffffff"
     bordercolor="#666666"
     borderopacity="1.0"
     inkscape:pageopacity="0.0"
     inkscape:pageshadow="2"
     inkscape:zoom="16"
     inkscape:cx="9.330741"
     inkscape:cy="18.466238"
     inkscape:document-units="px"
     inkscape:current-layer="layer1"
     showgrid="true"
     units="px"
     inkscape:window-width="1870"
     inkscape:window-height="1141"
     inkscape:window-x="50"
     inkscape:window-y="30"
     inkscape:window-maximized="1"
     objecttolerance="10"
     gridtolerance="10"
     guidetolerance="10"
     inkscape:snap-bbox="true"
     inkscape:bbox-nodes="true"
     showborder="true"
     inkscape:showpageshadow="false">
    <inkscape:grid
       type="xygrid"
       id="grid7897"
       empspacing="4" />
  </sodipodi:namedview>
  <metadata
     id="metadata5">
    <rdf:RDF>
      <cc:Work
         rdf:about="">
        <dc:format>image/svg+xml</dc:format>
        <dc:type
           rdf:resource="http://purl.org/dc/dcmitype/StillImage" />
        <dc:title>Antu icon Theme</dc:title>
      </cc:Work>
    </rdf:RDF>
  </metadata>
  <g
     inkscape:label="Capa 1"
     inkscape:groupmode="layer"
     id="layer1"
     transform="translate(0,-282.64999)">
    <g
       id="g24"
       transform="translate(-26.3125,-24.6875)">
      <path
         id="rect843-37"
         d="m 29.3125,308.33749 h 25.999999 c 1.108001,0 2.000001,0.89201 2.000001,2.00001 v 25.99998 c 0,1.108 -0.892,2.00001 -2.000001,2.00001 H 29.3125 c -1.108,0 -2,-0.89201 -2,-2.00001 V 310.3375 c 0,-1.108 0.892,-2.00001 2,-2.00001 z"
         style="opacity:1;fill:#4972c5;fill-opacity:1;stroke:none;stroke-width:2.39314151;stroke-linecap:round;stroke-linejoin:round;stroke-miterlimit:4;stroke-dasharray:none;stroke-opacity:1"
         inkscape:connector-curvature="0" />
      <path
         id="rect843-3-5"
         d="m 29.3125,309.33752 h 25.999999 c 0.554001,0 1.000001,0.44598 1.000001,0.99998 v 26.00001 c 0,0.55397 -0.446,0.99999 -1.000001,0.99999 H 29.3125 c -0.554,0 -1,-0.44602 -1,-0.99999 V 310.3375 c 0,-0.554 0.446,-0.99998 1,-0.99998 z"
         style="opacity:1;fill:#5ba2fb;fill-opacity:1;stroke:none;stroke-width:2.23359871;stroke-linecap:round;stroke-linejoin:round;stroke-miterlimit:4;stroke-dasharray:none;stroke-opacity:1"
         inkscape:connector-curvature="0" />
    </g>
    <path
       inkscape:connector-curvature="0"
       id="path2699-7"
       d="m 24,289.64998 -9,0.99999 v 6.99998 l 9,8e-5 z m -10,0.99999 -7,1.00005 v 5.99991 h 7 z m -7,8.00005 v 6 l 7,0.99998 v -6.99998 z m 8,-9e-5 V 305.65 l 9,0.99999 v -7.9999 z"
       style="fill:#e5f3ff;fill-opacity:1;stroke-width:1.96760929;enable-background:new"
       sodipodi:nodetypes="cccccccccccccccccccc" />
  </g>
</svg>
