<?xml version="1.0" encoding="UTF-8" standalone="no"?>
<!-- Created with Inkscape (http://www.inkscape.org/) -->

<svg
   xmlns:dc="http://purl.org/dc/elements/1.1/"
   xmlns:cc="http://creativecommons.org/ns#"
   xmlns:rdf="http://www.w3.org/1999/02/22-rdf-syntax-ns#"
   xmlns:svg="http://www.w3.org/2000/svg"
   xmlns="http://www.w3.org/2000/svg"
   xmlns:sodipodi="http://sodipodi.sourceforge.net/DTD/sodipodi-0.dtd"
   xmlns:inkscape="http://www.inkscape.org/namespaces/inkscape"
   width="16"
   height="16"
   viewBox="0 0 4.2333332 4.2333335"
   version="1.1"
   id="svg8"
   inkscape:version="0.92.3 (2405546, 2018-03-11)"
   sodipodi:docname="drive-harddisk-root.svg">
  <defs
     id="defs2" />
  <sodipodi:namedview
     id="base"
     pagecolor="#ffffff"
     bordercolor="#666666"
     borderopacity="1.0"
     inkscape:pageopacity="0.0"
     inkscape:pageshadow="2"
     inkscape:zoom="15.839192"
     inkscape:cx="23.641736"
     inkscape:cy="16.222149"
     inkscape:document-units="px"
     inkscape:current-layer="layer1"
     showgrid="true"
     units="px"
     inkscape:showpageshadow="false"
     inkscape:snap-bbox="true"
     inkscape:bbox-paths="true"
     inkscape:bbox-nodes="true"
     inkscape:snap-bbox-edge-midpoints="true"
     inkscape:snap-bbox-midpoints="true"
     inkscape:object-paths="true"
     inkscape:snap-intersection-paths="true"
     inkscape:window-width="1874"
     inkscape:window-height="1141"
     inkscape:window-x="46"
     inkscape:window-y="30"
     inkscape:window-maximized="1">
    <inkscape:grid
       type="xygrid"
       id="grid815" />
  </sodipodi:namedview>
  <metadata
     id="metadata5">
    <rdf:RDF>
      <cc:Work
         rdf:about="">
        <dc:format>image/svg+xml</dc:format>
        <dc:type
           rdf:resource="http://purl.org/dc/dcmitype/StillImage" />
        <dc:title></dc:title>
      </cc:Work>
    </rdf:RDF>
  </metadata>
  <g
     inkscape:label="Capa 1"
     inkscape:groupmode="layer"
     id="layer1"
     transform="translate(0,-292.76666)">
    <path
       style="opacity:1;fill:#36404d;fill-opacity:1;stroke:none;stroke-width:1.05833328;stroke-linecap:round;stroke-linejoin:round;stroke-miterlimit:4;stroke-dasharray:none;stroke-opacity:1;paint-order:fill markers stroke"
       d="m 0.7937541,295.41251 h 2.6458251 c 0.1465815,0 0.2645875,0.118 0.2645875,0.26458 v 0.79372 c 0,0.14658 -0.118006,0.26458 -0.2645875,0.26458 H 0.7937541 c -0.14658142,0 -0.2645874,-0.118 -0.2645874,-0.26458 v -0.79372 c 0,-0.14658 0.11800598,-0.26458 0.2645874,-0.26458 z"
       id="rect1533" />
    <path
       style="opacity:1;fill:#4b6477;fill-opacity:1;stroke:none;stroke-width:3.99999976;stroke-linecap:round;stroke-linejoin:round;stroke-miterlimit:4;stroke-dasharray:none;stroke-opacity:1;paint-order:fill markers stroke"
       d="M 3 12 L 3 14 L 4 14 L 4 13 L 8 13 L 8 14 L 9 14 L 9 13 L 12 13 L 12 14 L 13 14 L 13 12 L 3 12 z "
       transform="matrix(0.26458333,0,0,0.26458333,0,292.76666)"
       id="rect1535" />
    <path
       style="opacity:1;fill:#a3b7cc;fill-opacity:1;stroke:none;stroke-width:1.05833328;stroke-linecap:round;stroke-linejoin:round;stroke-miterlimit:4;stroke-dasharray:none;stroke-opacity:1;paint-order:fill markers stroke"
       d="M 0.79374331,293.03125 H 3.4395899 c 0.1465755,0 0.2645767,0.118 0.2645767,0.26458 v 2.38125 c 0,0.14658 -0.1180012,0.26458 -0.2645767,0.26458 H 0.79374331 c -0.14657547,0 -0.26457667,-0.118 -0.26457667,-0.26458 v -2.38125 c 0,-0.14658 0.1180012,-0.26458 0.26457667,-0.26458 z"
       id="rect1531" />
    <path
       style="opacity:1;fill:#e1ebf2;fill-opacity:1;stroke:none;stroke-width:3.99999976;stroke-linecap:round;stroke-linejoin:round;stroke-miterlimit:4;stroke-dasharray:none;stroke-opacity:1;paint-order:fill markers stroke"
       d="M 3 2 L 3 11 L 13 11 L 13 2 L 3 2 z M 4 3 L 5 3 L 5 4 L 4 4 L 4 3 z M 11 3 L 12 3 L 12 4 L 11 4 L 11 3 z M 4 6 L 5 6 L 5 7 L 4 7 L 4 6 z M 11 6 L 12 6 L 12 7 L 11 7 L 11 6 z M 4 9 L 5 9 L 5 10 L 4 10 L 4 9 z M 11 9 L 12 9 L 12 10 L 11 10 L 11 9 z "
       transform="matrix(0.26458333,0,0,0.26458333,0,292.76666)"
       id="rect1537" />
    <path
       style="opacity:1;fill:#fdd837;fill-opacity:1;stroke:none;stroke-width:1.05833328;stroke-linecap:round;stroke-linejoin:round;stroke-miterlimit:4;stroke-dasharray:none;stroke-opacity:1;paint-order:fill markers stroke"
       d="m 1.3229166,296.20624 h 0.5291667 v 0.26458 H 1.3229166 Z"
       id="rect1547" />
    <path
       style="opacity:1;fill:#fdd837;fill-opacity:1;stroke:none;stroke-width:1.05833328;stroke-linecap:round;stroke-linejoin:round;stroke-miterlimit:4;stroke-dasharray:none;stroke-opacity:1;paint-order:fill markers stroke"
       d="m 2.6458333,296.20624 h 0.2645833 v 0.26458 H 2.6458333 Z"
       id="rect1549" />
    <path
       style="opacity:1;fill:#394450;fill-opacity:1;stroke:none;stroke-width:1.05833328;stroke-linecap:round;stroke-linejoin:round;stroke-miterlimit:4;stroke-dasharray:none;stroke-opacity:1;paint-order:fill markers stroke"
       d="m 1.5875,293.56042 h 1.0583333 v 0.79375 H 1.5875 Z"
       id="rect1590" />
    <path
       style="opacity:1;fill:#4b6377;fill-opacity:1;stroke:none;stroke-width:1.05833328;stroke-linecap:round;stroke-linejoin:round;stroke-miterlimit:4;stroke-dasharray:none;stroke-opacity:1;paint-order:fill markers stroke"
       d="M 1.8520833,293.82498 H 2.38125 v 0.26459 H 1.8520833 Z"
       id="rect1592" />
    <path
       style="opacity:1;fill:#d8344b;fill-opacity:1;stroke:none;stroke-width:1.05833328;stroke-linecap:round;stroke-linejoin:round;stroke-miterlimit:4;stroke-dasharray:none;stroke-opacity:1;paint-order:fill markers stroke"
       d="m 1.5875,294.61874 h 1.0583333 v 0.79375 H 1.5875 Z"
       id="rect1594" />
    <path
       style="opacity:1;fill:#fe7588;fill-opacity:1;stroke:none;stroke-width:1.05833328;stroke-linecap:round;stroke-linejoin:round;stroke-miterlimit:4;stroke-dasharray:none;stroke-opacity:1;paint-order:fill markers stroke"
       d="M 1.8520833,294.88333 H 2.38125 v 0.26458 H 1.8520833 Z"
       id="rect1596" />
  </g>
</svg>
