<?xml version="1.0" encoding="UTF-8" standalone="no"?>
<svg
   xmlns:dc="http://purl.org/dc/elements/1.1/"
   xmlns:cc="http://creativecommons.org/ns#"
   xmlns:rdf="http://www.w3.org/1999/02/22-rdf-syntax-ns#"
   xmlns:svg="http://www.w3.org/2000/svg"
   xmlns="http://www.w3.org/2000/svg"
   xmlns:sodipodi="http://sodipodi.sourceforge.net/DTD/sodipodi-0.dtd"
   xmlns:inkscape="http://www.inkscape.org/namespaces/inkscape"
   height="16"
   viewBox="0 0 16 16"
   width="16"
   version="1.1"
   id="svg6"
   sodipodi:docname="system-lock-screen.svg"
   inkscape:version="0.92.3 (2405546, 2018-03-11)">
  <metadata
     id="metadata10">
    <rdf:RDF>
      <cc:Work
         rdf:about="">
        <dc:format>image/svg+xml</dc:format>
        <dc:type
           rdf:resource="http://purl.org/dc/dcmitype/StillImage" />
        <dc:title />
      </cc:Work>
    </rdf:RDF>
  </metadata>
  <sodipodi:namedview
     pagecolor="#ffffff"
     bordercolor="#666666"
     borderopacity="1"
     objecttolerance="10"
     gridtolerance="10"
     guidetolerance="10"
     inkscape:pageopacity="0"
     inkscape:pageshadow="2"
     inkscape:window-width="1874"
     inkscape:window-height="1141"
     id="namedview8"
     showgrid="true"
     showguides="false"
     inkscape:zoom="45.254832"
     inkscape:cx="8.253657"
     inkscape:cy="7.0197405"
     inkscape:window-x="46"
     inkscape:window-y="30"
     inkscape:window-maximized="1"
     inkscape:current-layer="svg6">
    <inkscape:grid
       type="xygrid"
       id="grid868" />
  </sodipodi:namedview>
  <defs
     id="defs2">
    <style
       type="text/css"
       id="current-color-scheme">
      .ColorScheme-Text {
        color:#122036;
      }
      </style>
    <style
       id="current-color-scheme-5"
       type="text/css">
      .ColorScheme-Text {
        color:#122036;
      }
      </style>
    <style
       id="current-color-scheme-2"
       type="text/css">
      .ColorScheme-Text {
        color:#122036;
      }
      </style>
    <style
       id="current-color-scheme-1"
       type="text/css">
      .ColorScheme-Text {
        color:#122036;
      }
      </style>
    <style
       type="text/css"
       id="current-color-scheme-10">
      .ColorScheme-Text {
        color:#122036;
      }
      </style>
  </defs>
  <path
     style="opacity:1;vector-effect:none;fill:#5e9c76;fill-opacity:1;stroke:none;stroke-width:1.98768997;stroke-linecap:round;stroke-linejoin:round;stroke-miterlimit:4;stroke-dasharray:none;stroke-dashoffset:0;stroke-opacity:1"
     d="m 8,0 c 4.432,0 8,3.568 8,8 0,4.432 -3.568,8 -8,8 C 3.568,16 0,12.432 0,8 0,3.568 3.568,0 8,0 Z"
     id="rect843" />
  <path
     style="opacity:1;vector-effect:none;fill:#bae0bd;fill-opacity:1;stroke:none;stroke-width:1.73922873;stroke-linecap:round;stroke-linejoin:round;stroke-miterlimit:4;stroke-dasharray:none;stroke-dashoffset:0;stroke-opacity:1"
     d="m 8,1 c 3.878,0 7,3.122 7,7 0,3.878 -3.122,7 -7,7 C 4.122,15 1,11.878 1,8 1,4.122 4.122,1 8,1 Z"
     id="rect843-6" />
  <path
     style="opacity:1;vector-effect:none;fill:#5e9c76;fill-opacity:1;stroke:none;stroke-width:2;stroke-linecap:round;stroke-linejoin:round;stroke-miterlimit:4;stroke-dasharray:none;stroke-dashoffset:0;stroke-opacity:1"
     d="M 8,3 C 6.338,3 5,4.338 5,6 V 7 C 4.446,7 4,7.446 4,8 v 4 c 0,0.554 0.446,1 1,1 h 6 c 0.554,0 1,-0.446 1,-1 V 8 C 12,7.446 11.554,7 11,7 V 6 C 11,4.338 9.662,3 8,3 Z M 8,5 C 8.554,5 9,5.446 9,6 V 7 H 7 V 6 C 7,5.446 7.446,5 8,5 Z"
     id="rect859"
     inkscape:connector-curvature="0" />
</svg>
